<svg id="Layer_2" data-name="Layer 2" xmlns="http://www.w3.org/2000/svg" viewBox="0 0 1692.78 947.96"><defs><style>.cls-1{fill:#231f20}</style></defs><path class="cls-1" d="M1642.18 509.35h-29.27v181.82h-288.14V509.35h-29.26v392.9h29.26V720.43h288.14v181.82h29.27v-392.9"/><path class="cls-1" d="M119.63 913.23v-20.7l22.81 20.7h-22.81m415.73 0v-20.7l22.81 20.7h-22.81m415.74 0v-20.7l22.81 20.7H951.1m415.73 0v-20.7l22.81 20.7h-22.81m-1059 0l22.81-38v38h-22.82m415.74 0l22.81-38v38h-22.81m415.73 0l22.81-38v38h-22.81m415.74 0l22.81-38v38H1555M186.91 842.79l-17.86-16.21 17.86-16.2 17.86 16.2-17.86 16.21m71.49 0l-17.87-16.21 17.87-16.2 17.86 16.2-17.86 16.21m344.25 0l-17.86-16.21 17.86-16.2 17.86 16.2-17.86 16.21m71.48 0l-17.86-16.21 17.86-16.2 17.87 16.2-17.86 16.21m344.25 0l-17.86-16.21 17.86-16.2 17.86 16.2-17.86 16.21m71.49 0L1072 826.58l17.87-16.2 17.86 16.2-17.86 16.21m344.25 0l-17.86-16.21 17.86-16.2 17.86 16.2-17.86 16.21m71.48 0l-17.86-16.21 17.86-16.2 17.86 16.2-17.86 16.21m-1175-47.73l-28.51-37.95h28.51v37.95m415.74 0l-28.52-37.95h28.52v37.95m415.73 0l-28.51-37.95h28.51v37.95m415.74 0l-28.52-37.95h28.52v37.95M119.63 777.81v-20.7h22.81l-22.81 20.7m415.73 0v-20.7h22.82l-22.82 20.7m415.74 0v-20.7h22.81l-22.81 20.7m415.73 0v-20.7h22.82l-22.82 20.7M220.62 786.2l35.61-32.31 80.1 72.69-61.09 79.6L220.62 867l-43.21 42.66-49.06-61.77L141.41 836l38 51 41.18-43.47 48.78 35.65 46.51-52.56-56-54.27-39.28 37.37-35.48-32.2L140.46 818l-13.06-11.83 57.6-52.28 35.61 32.31m415.73 0L672 753.89l80.11 72.69-61.11 79.6L636.35 867l-43.21 42.66-49.06-61.77L557.15 836l38 51 41.19-43.47 48.78 35.65 46.5-52.56-56-54.27-39.28 37.37-35.48-32.2L556.2 818l-13.07-11.86 57.62-52.28 35.6 32.31m415.74 0l35.61-32.31 80.1 72.69-61.09 79.6-54.62-39.15-43.21 42.66-49.06-61.77L972.88 836l38 51 41.18-43.47 48.79 35.65 46.5-52.56-56-54.27-39.28 37.37-35.48-32.2L971.93 818l-13.06-11.86 57.61-52.28 35.61 32.31m415.73 0l35.61-32.31 80.11 72.69-61.1 79.6-54.62-39.15-43.21 42.66-49.06-61.77 13.07-11.89 38 51 41.19-43.47 48.78 35.65 46.5-52.56-56-54.27-39.28 37.37-35.48-32.2-44.66 40.48-13.07-11.86 57.62-52.28 35.6 32.31M119.63 657.92v-20.7l22.81 20.7h-22.81m415.73 0v-20.7l22.81 20.7h-22.81m415.74 0v-20.7l22.81 20.7H951.1m415.73 0v-20.7l22.81 20.7h-22.81m-1059 0l22.8-37.92v37.95h-22.81m415.74 0L746.37 620v37.95h-22.81m415.73 0L1162.1 620v37.95h-22.81m415.74 0l22.81-37.95v37.95H1555M186.91 587.49l-17.86-16.21 17.86-16.21 17.86 16.21-17.86 16.21m71.49 0l-17.87-16.21 17.87-16.21 17.86 16.21-17.86 16.21m344.25 0l-17.86-16.21 17.86-16.21 17.86 16.21-17.86 16.21m71.48 0l-17.86-16.21 17.86-16.21L692 571.28l-17.86 16.21m344.25 0l-17.86-16.21 17.86-16.21 17.86 16.21-17.86 16.21m71.49 0L1072 571.28l17.87-16.21 17.86 16.21-17.86 16.21m344.25 0l-17.86-16.21 17.86-16.21 17.88 16.21-17.86 16.21m71.48 0l-17.86-16.21 17.86-16.21 17.86 16.21-17.86 16.21m-1175-47.74l-28.5-37.95h28.51v37.95m415.74 0l-28.52-37.95h28.52v37.95m415.73 0l-28.51-37.95h28.51v37.95m415.74 0l-28.52-37.95h28.52v37.95M119.63 522.5v-20.7h22.81l-22.81 20.7m415.73 0v-20.7h22.82l-22.82 20.7m415.74 0v-20.7h22.81l-22.81 20.7m415.73 0v-20.7h22.82l-22.82 20.7m-1146.21 8.4l35.61-32.32 80.1 72.7-61.09 79.6-54.62-39.22-43.21 42.67-49.06-61.78 13.06-11.85 38 50.95 41.18-43.47 48.78 35.65 46.51-52.55L259.9 517l-39.28 37.37-35.48-32.19-44.68 40.54-13.06-11.85 57.6-52.29 35.61 32.32m415.73 0L672 498.58l80.11 72.7-61.11 79.6-54.62-39.22-43.21 42.67-49.06-61.78 13.07-11.85 38 50.95 41.19-43.47 48.78 35.65 46.5-52.55-56-54.28-39.28 37.37-35.48-32.19-44.69 40.54-13.07-11.85 57.62-52.29 35.6 32.32m415.74 0l35.61-32.32 80.1 72.7-61.09 79.6-54.62-39.22-43.21 42.67-49.06-61.78 13.06-11.85 38 50.95 41.18-43.47 48.79 35.65 46.5-52.55-56-54.28-39.28 37.37-35.48-32.19-44.68 40.54-13.06-11.85 57.61-52.29 35.61 32.32m415.73 0l35.61-32.32 80.11 72.7-61.1 79.6-54.62-39.22-43.21 42.67-49.06-61.78 13.07-11.85 38 50.95 41.19-43.47 48.78 35.65 46.5-52.55-56-54.28-39.28 37.37-35.48-32.19-44.68 40.54-13.07-11.85 57.62-52.29 35.6 32.32M98.72 671.33h247.12V489.68h69.9v429h-69.9v-181.8H98.72V918.7H29.26v-429h69.46v181.63m415.73 0h247.12V489.68h69.9v429h-69.9v-181.8H514.45V918.7H445v-429h69.45v181.63m415.74 0h247.12V489.68h69.9v429h-69.9v-181.8H930.19V918.7h-69.46v-429h69.46v181.63m415.73 0H1593V489.68h69.9v429H1593v-181.8h-247.08V918.7h-69.45v-429h69.45v181.63M128.72 414.87v-17.31h76.82V460h-76.82v-15.87h44.44v-29.26h-44.44m107.1 0v-17.31h76.83V460h-76.83v-15.87h53.38v-29.26h-53.38m308.63 0v-17.31h76.83V460h-76.83v-15.87h44.45v-29.26h-44.45m107.11 0v-17.31h76.82V460h-76.82v-15.87h53.37v-29.26h-53.37m308.63 0v-17.31H1037V460h-76.81v-15.87h44.44v-29.26h-44.44m107.1 0v-17.31h76.83V460h-76.83v-15.87h53.38v-29.26h-53.38m308.63 0v-17.31h76.83V460h-76.83v-15.87h44.45v-29.26h-44.45m107.11 0v-17.31h76.82V460H1483v-15.87h53.37v-29.26H1483M128.72 323.44v-18.17h76.82v63h-76.82v-15.56h51.58v-29.27h-51.58m107.1 0v-18.17h76.83v63h-76.83v-15.56h48v-29.27h-48m308.63 0v-18.17h76.83v63h-76.83v-15.56H596v-29.27h-51.55m107.11 0v-18.17h76.82v63h-76.82v-15.56h48v-29.27h-48m308.63 0v-18.17H1037v63h-76.81v-15.56h51.58v-29.27h-51.58m107.1 0v-18.17h76.83v63h-76.83v-15.56h48v-29.27h-48m308.63 0v-18.17h76.83v63h-76.83v-15.56h51.59v-29.27h-51.59m107.11 0v-18.17h76.82v63H1483v-15.56h48v-29.27h-48M128.72 140.59v-17.31h76.82V188h-76.82v-18.15h44.44v-29.26h-44.44m107.1 0v-17.31h76.83V188h-76.83v-18.15h53.38v-29.26h-53.38m308.63 0v-17.31h76.83V188h-76.83v-18.15h44.45v-29.26h-44.45m107.11 0v-17.31h76.82V188h-76.82v-18.15h53.37v-29.26h-53.37m308.63 0v-17.31H1037V188h-76.81v-18.15h44.44v-29.26h-44.44m107.1 0v-17.31h76.83V188h-76.83v-18.15h53.38v-29.26h-53.38m308.63 0v-17.31h76.83V188h-76.83v-18.15h44.45v-29.26h-44.45m107.11 0v-17.31h76.82V188H1483v-18.15h53.37v-29.26H1483M128.72 49.16v-19.9h76.82V94h-76.82V78.42h42.66V49.16h-42.66m107.1 0v-19.9h76.83V94h-76.83V78.42h49.8V49.16h-49.8M99.06 217.29h243.69V215h.18V29.26h72.36V460h-72.36V277.9h-.18V276H103.08v1.89h-4.64V460h-67V29.26h67V215h.62v2.33M544.45 49.16v-19.9h76.83V94h-76.83V78.42h42.66V49.16h-42.66m107.11 0v-19.9h76.82V94h-76.82V78.42h49.8V49.16h-49.8M514.8 217.29h243.68V215h.18V29.26H831V460h-72.34V277.9h-.18V276H518.81v1.89h-4.64V460h-67V29.26h67V215h.63v2.33M960.19 49.16v-19.9H1037V94h-76.81V78.42h42.66V49.16h-42.66m107.1 0v-19.9h76.83V94h-76.83V78.42h49.81V49.16h-49.81M930.53 217.29h243.69V215h.18V29.26h72.36V460h-72.36V277.9h-.18V276H934.55v1.89h-4.64V460h-67V29.26h67V215h.62v2.33m445.39-168.17v-19.9h76.83V94h-76.83V78.42h42.66V49.16h-42.66m107.11 0v-19.9h76.82V94H1483V78.42h49.8V49.16H1483m-136.73 168.13H1590V215h.18V29.26h72.37V460h-72.37V277.9h-.18V276h-239.72v1.89h-4.64V460h-67V29.26h67V215h.63v2.33M1690.81 0H2.22v.17H1.15V460H1v.17H0V948h1692.2V489.68h.58V.17h-2V0"/><path class="cls-1" d="M1641.01 49.34h-30.28v181.82h-283.9V49.34h-30.28v389.45h30.28V260.42h283.9v178.37h30.28V49.34M1226.44 509.35h-29.26v181.82H909.03V509.35h-29.26v392.9h29.26V720.43h288.15v181.82h29.26v-392.9M1225.27 49.34h-30.28v181.82H911.1V49.34h-30.28v389.45h30.28V260.42h283.89v178.37h30.28V49.34M810.71 509.35h-29.27v181.82H493.3V509.35h-29.26v392.9h29.26V720.43h288.14v181.82h29.27v-392.9M809.54 49.34h-30.28v181.82h-283.9V49.34h-30.28v389.45h30.28V260.42h283.9v178.37h30.28V49.34M394.97 509.35h-29.26v181.82H77.56V509.35H48.3v392.9h29.26V720.43h288.15v181.82h29.26v-392.9M393.8 49.34h-30.28v181.82H79.63V49.34H49.35v389.45h30.28V260.42h283.89v178.37h30.28V49.34"/></svg>