<svg id="Layer_2" data-name="Layer 2" xmlns="http://www.w3.org/2000/svg" viewBox="0 0 1815.18 1081.54"><defs><style>.cls-1{fill:#231f20;fill-rule:evenodd}</style></defs><path class="cls-1" d="M12.32 0v60.74h62.55V0zM62.4 8.07l-18.49 18.5-18.5-18.5zM38.2 32.28L20.39 50.09V14.47zm-9 20.39L43.91 38l14.68 14.67zm37.57-3.22L49.62 32.28 66.79 15.1zM0 118.58l5.53 5.53.18.18 31.53 31.54 2.87 2.87 2.89 2.84 44.18-44.24-2.84-2.83-2.87-2.87-31.53-31.54-.18-.18-5.53-5.53zm41.13-29.7V115H15zm0 34.22v25.19L15.94 123.1zm8.07 20.77V123.1H70zM73.49 115H49.2V90.74zM12.32 176v60.74h62.55V176zm50.08 8.07l-18.49 18.5-18.5-18.5zm-24.2 24.21l-17.81 17.81v-35.62zm-9 20.39L43.91 214l14.68 14.68zm37.57-3.22l-17.15-17.17 17.17-17.18zM0 294.58l5.53 5.53.18.18 31.53 31.54 2.87 2.87 2.89 2.84 44.18-44.24-2.84-2.83-2.87-2.87-31.53-31.54-.18-.18-5.53-5.53zm41.13-29.7V291H15zm0 34.22v25.19L15.94 299.1zm8.07 20.77V299.1H70zM73.49 291H49.2v-24.26zM12.32 352v60.74h62.55V352zm50.08 8.07l-18.49 18.5-18.5-18.5zm-24.2 24.21l-17.81 17.81v-35.62zm-9 20.39L43.91 390l14.68 14.68zm37.57-3.22l-17.15-17.17 17.17-17.18zM0 470.58l5.53 5.53.18.18 31.53 31.54 2.87 2.87 2.89 2.84 44.18-44.24-2.84-2.83-2.87-2.87-31.53-31.54-.18-.18-5.53-5.53zm41.13-29.7V467H15zm0 34.22v25.19L15.94 475.1zm8.07 20.77V475.1H70zM73.49 467H49.2v-24.26zM12.32 528v60.74h62.55V528zm50.08 8.07l-18.49 18.5-18.5-18.5zm-24.2 24.21l-17.81 17.81v-35.62zm-9 20.39L43.91 566l14.68 14.68zm37.57-3.22l-17.15-17.17 17.17-17.18zM0 646.58l5.53 5.53.18.18 31.53 31.54 2.87 2.87 2.89 2.84 44.18-44.24-2.84-2.83-2.87-2.87-31.53-31.54-.18-.18-5.53-5.53zm41.13-29.7V643H15zm0 34.22v25.19L15.94 651.1zm8.07 20.77V651.1H70zM73.49 643H49.2v-24.26zM12.32 704v60.74h62.55V704zm50.08 8.07l-18.49 18.5-18.5-18.5zm-24.2 24.21l-17.81 17.81v-35.62zm-9 20.39L43.91 742l14.68 14.68zm37.57-3.22l-17.15-17.17 17.17-17.18zM0 822.58l5.53 5.53.18.18 31.53 31.54 2.87 2.87 2.89 2.84 44.18-44.24-2.84-2.83-2.87-2.87-31.53-31.54-.18-.18-5.53-5.53zm41.13-29.7V819H15zm0 34.22v25.19L15.94 827.1zm8.07 20.77V827.1H70zM73.49 819H49.2v-24.26zM12.32 880v60.74h62.55V880zm50.08 8.07l-18.49 18.5-18.5-18.5zm-24.2 24.21l-17.81 17.81v-35.62zm-9 20.39L43.91 918l14.68 14.68zm37.57-3.22l-17.15-17.17 17.17-17.18zM0 998.58l5.53 5.53.18.18 31.53 31.54 2.87 2.87 2.84 2.84 44.23-44.24-2.84-2.83-2.87-2.87-31.53-31.54-.18-.18-5.53-5.53zm41.13-29.7V995H15zm0 34.22v25.19l-25.19-25.19zm8.07 20.77v-20.77H70zM73.49 995H49.2v-24.26zM90.32 40v60.74h62.55V40zm50.08 8.07l-18.49 18.5-18.5-18.5zm-24.2 24.21L98.39 90.09V54.47zm-9 20.39L121.91 78l14.68 14.68zm37.57-3.22l-17.15-17.17 17.17-17.18zM78 158.58l5.53 5.53.18.18 31.53 31.54 2.87 2.87 2.84 2.84 44.23-44.24-2.84-2.83-2.87-2.87-31.53-31.54-.18-.18-5.53-5.53zm41.13-29.7V155H93zm0 34.22v25.19L93.94 163.1zm8.07 20.77V163.1H148zM151.49 155H127.2v-24.26zM90.32 216v60.74h62.55V216zm50.08 8.07l-18.49 18.5-18.5-18.5zm-24.2 24.21l-17.81 17.81v-35.62zm-9 20.39L121.91 254l14.68 14.68zm37.57-3.22l-17.17-17.17 17.17-17.18zM78 334.58l5.53 5.53.18.18 31.53 31.54 2.87 2.87 2.84 2.84 44.23-44.24-2.84-2.83-2.87-2.87-31.53-31.54-.18-.18-5.53-5.53zm41.13-29.7V331H93zm0 34.22v25.19L93.94 339.1zm8.07 20.77V339.1H148zM151.49 331H127.2v-24.26zM90.32 392v60.74h62.55V392zm50.08 8.07l-18.49 18.5-18.5-18.5zm-24.2 24.21l-17.81 17.81v-35.62zm-9 20.39L121.91 430l14.68 14.68zm37.57-3.22l-17.17-17.17 17.17-17.18zM78 510.58l5.53 5.53.18.18 31.53 31.54 2.87 2.87 2.84 2.84 44.23-44.24-2.84-2.83-2.87-2.87-31.53-31.54-.18-.18-5.53-5.53zm41.13-29.7V507H93zm0 34.22v25.19L93.94 515.1zm8.07 20.77V515.1H148zM151.49 507H127.2v-24.26zM90.32 568v60.74h62.55V568zm50.08 8.07l-18.49 18.5-18.5-18.5zm-24.2 24.21l-17.81 17.81v-35.62zm-9 20.39L121.91 606l14.68 14.68zm37.57-3.22l-17.17-17.17 17.17-17.18zM78 686.58l5.53 5.53.18.18 31.53 31.54 2.87 2.87 2.84 2.84 44.23-44.24-2.84-2.83-2.87-2.87-31.53-31.54-.18-.18-5.53-5.53zm41.13-29.7V683H93zm0 34.22v25.19L93.94 691.1zm8.07 20.77V691.1H148zM151.49 683H127.2v-24.26zM90.32 744v60.74h62.55V744zm50.08 8.07l-18.49 18.5-18.5-18.5zm-24.2 24.21l-17.81 17.81v-35.62zm-9 20.39L121.91 782l14.68 14.68zm37.57-3.22l-17.17-17.17 17.17-17.18zM78 862.58l5.53 5.53.18.18 31.53 31.54 2.87 2.87 2.84 2.84 44.23-44.24-2.84-2.83-2.87-2.87-31.53-31.54-.18-.18-5.53-5.53zm41.13-29.7V859H93zm0 34.22v25.19L93.94 867.1zm8.07 20.77V867.1H148zM151.49 859H127.2v-24.26zM90.32 920v60.74h62.55V920zm50.08 8.07l-18.49 18.5-18.5-18.5zm-24.2 24.21l-17.81 17.81v-35.62zm-9 20.39L121.91 958l14.68 14.68zm37.57-3.22l-17.17-17.17 17.17-17.18zM78 1038.58l5.53 5.53.18.18 31.53 31.54 2.87 2.87 2.84 2.84 44.23-44.24-2.84-2.83-2.87-2.87-31.53-31.54-.18-.18-5.53-5.53zm41.13-29.7V1035H93zm0 34.22v25.19l-25.19-25.19zm8.07 20.77v-20.77H148zm24.29-28.87H127.2v-24.29zM162.32 0v60.74h62.55V0zm50.08 8.07l-18.49 18.5-18.5-18.5zm-24.2 24.21l-17.81 17.81V14.47zm-9 20.39L193.91 38l14.68 14.68zm37.57-3.22l-17.15-17.17 17.17-17.18zM150 118.58l5.53 5.53.18.18 31.53 31.54 2.87 2.87 2.84 2.84 44.23-44.24-2.84-2.83-2.87-2.87-31.53-31.54-.18-.18-5.53-5.53zm41.13-29.7V115H165zm0 34.22v25.19l-25.19-25.19zm8.07 20.77V123.1H220zM223.49 115H199.2V90.74zM162.32 176v60.74h62.55V176zm50.08 8.07l-18.49 18.5-18.5-18.5zm-24.2 24.21l-17.81 17.81v-35.62zm-9 20.39L193.91 214l14.68 14.68zm37.57-3.22l-17.17-17.17 17.17-17.18zM150 294.58l5.53 5.53.18.18 31.53 31.54 2.87 2.87 2.84 2.84 44.23-44.24-2.84-2.83-2.87-2.87-31.53-31.54-.18-.18-5.53-5.53zm41.13-29.7V291H165zm0 34.22v25.19l-25.19-25.19zm8.07 20.77V299.1H220zM223.49 291H199.2v-24.26zM162.32 352v60.74h62.55V352zm50.08 8.07l-18.49 18.5-18.5-18.5zm-24.2 24.21l-17.81 17.81v-35.62zm-9 20.39L193.91 390l14.68 14.68zm37.57-3.22l-17.17-17.17 17.17-17.18zM150 470.58l5.53 5.53.18.18 31.53 31.54 2.87 2.87 2.84 2.84 44.23-44.24-2.84-2.83-2.87-2.87-31.53-31.54-.18-.18-5.53-5.53zm41.13-29.7V467H165zm0 34.22v25.19l-25.19-25.19zm8.07 20.77V475.1H220zM223.49 467H199.2v-24.26zM162.32 528v60.74h62.55V528zm50.08 8.07l-18.49 18.5-18.5-18.5zm-24.2 24.21l-17.81 17.81v-35.62zm-9 20.39L193.91 566l14.68 14.68zm37.57-3.22l-17.17-17.17 17.17-17.18zM150 646.58l5.53 5.53.18.18 31.53 31.54 2.87 2.87 2.84 2.84 44.23-44.24-2.84-2.83-2.87-2.87-31.53-31.54-.18-.18-5.53-5.53zm41.13-29.7V643H165zm0 34.22v25.19l-25.19-25.19zm8.07 20.77V651.1H220zM223.49 643H199.2v-24.26zM162.32 704v60.74h62.55V704zm50.08 8.07l-18.49 18.5-18.5-18.5zm-24.2 24.21l-17.81 17.81v-35.62zm-9 20.39L193.91 742l14.68 14.68zm37.57-3.22l-17.17-17.17 17.17-17.18zM150 822.58l5.53 5.53.18.18 31.53 31.54 2.87 2.87 2.84 2.84 44.23-44.24-2.84-2.83-2.87-2.87-31.53-31.54-.18-.18-5.53-5.53zm41.13-29.7V819H165zm0 34.22v25.19l-25.19-25.19zm8.07 20.77V827.1H220zM223.49 819H199.2v-24.26zM162.32 880v60.74h62.55V880zm50.08 8.07l-18.49 18.5-18.5-18.5zm-24.2 24.21l-17.81 17.81v-35.62zm-9 20.39L193.91 918l14.68 14.68zm37.57-3.22l-17.17-17.17 17.17-17.18zM150 998.58l5.53 5.53.18.18 31.53 31.54 2.87 2.87 2.84 2.84 44.23-44.24-2.84-2.83-2.87-2.87-31.53-31.54-.18-.18-5.53-5.53zm41.13-29.7V995H165zm0 34.22v25.19l-25.19-25.19zm8.07 20.77v-20.77H220zM223.49 995H199.2v-24.26zM240.32 40v60.74h62.55V40zm50.08 8.07l-18.49 18.5-18.5-18.5zm-24.2 24.21l-17.81 17.81V54.47zm-9 20.39L271.91 78l14.68 14.68zm37.57-3.22l-17.15-17.17 17.17-17.18zM228 158.58l5.53 5.53.18.18 31.53 31.54 2.87 2.87 2.84 2.84 44.23-44.24-2.84-2.83-2.87-2.87-31.53-31.54-.18-.18-5.53-5.53zm41.13-29.7V155H243zm0 34.22v25.19l-25.19-25.19zm8.07 20.77V163.1H298zM301.49 155H277.2v-24.26zM240.32 216v60.74h62.55V216zm50.08 8.07l-18.49 18.5-18.5-18.5zm-24.2 24.21l-17.81 17.81v-35.62zm-9 20.39L271.91 254l14.68 14.68zm37.57-3.22l-17.17-17.17 17.17-17.18zM228 334.58l5.53 5.53.18.18 31.53 31.54 2.87 2.87 2.84 2.84 44.23-44.24-2.84-2.83-2.87-2.87-31.53-31.54-.18-.18-5.53-5.53zm41.13-29.7V331H243zm0 34.22v25.19l-25.19-25.19zm8.07 20.77V339.1H298zM301.49 331H277.2v-24.26zM240.32 392v60.74h62.55V392zm50.08 8.07l-18.49 18.5-18.5-18.5zm-24.2 24.21l-17.81 17.81v-35.62zm-9 20.39L271.91 430l14.68 14.68zm37.57-3.22l-17.17-17.17 17.17-17.18zM228 510.58l5.53 5.53.18.18 31.53 31.54 2.87 2.87 2.84 2.84 44.23-44.24-2.84-2.83-2.87-2.87-31.53-31.54-.18-.18-5.53-5.53zm41.13-29.7V507H243zm0 34.22v25.19l-25.19-25.19zm8.07 20.77V515.1H298zM301.49 507H277.2v-24.26zM240.32 568v60.74h62.55V568zm50.08 8.07l-18.49 18.5-18.5-18.5zm-24.2 24.21l-17.81 17.81v-35.62zm-9 20.39L271.91 606l14.68 14.68zm37.57-3.22l-17.17-17.17 17.17-17.18zM228 686.58l5.53 5.53.18.18 31.53 31.54 2.87 2.87 2.84 2.84 44.23-44.24-2.84-2.83-2.87-2.87-31.53-31.54-.18-.18-5.53-5.53zm41.13-29.7V683H243zm0 34.22v25.19l-25.19-25.19zm8.07 20.77V691.1H298zM301.49 683H277.2v-24.26zM240.32 744v60.74h62.55V744zm50.08 8.07l-18.49 18.5-18.5-18.5zm-24.2 24.21l-17.81 17.81v-35.62zm-9 20.39L271.91 782l14.68 14.68zm37.57-3.22l-17.17-17.17 17.17-17.18zM228 862.58l5.53 5.53.18.18 31.53 31.54 2.87 2.87 2.84 2.84 44.23-44.24-2.84-2.83-2.87-2.87-31.53-31.54-.18-.18-5.53-5.53zm41.13-29.7V859H243zm0 34.22v25.19l-25.19-25.19zm8.07 20.77V867.1H298zM301.49 859H277.2v-24.26zM240.32 920v60.74h62.55V920zm50.08 8.07l-18.49 18.5-18.5-18.5zm-24.2 24.21l-17.81 17.81v-35.62zm-9 20.39L271.91 958l14.68 14.68zm37.57-3.22l-17.17-17.17 17.17-17.18zM228 1038.58l5.53 5.53.18.18 31.53 31.54 2.87 2.87 2.84 2.84 44.23-44.24-2.84-2.83-2.87-2.87-31.53-31.54-.18-.18-5.53-5.53zm41.13-29.7V1035H243zm0 34.22v25.19l-25.19-25.19zm8.07 20.77v-20.77H298zm24.29-28.87H277.2v-24.29zM312.32 0v60.74h62.55V0zm50.08 8.07l-18.49 18.5-18.5-18.5zm-24.2 24.21l-17.81 17.81V14.47zm-9 20.39L343.91 38l14.68 14.68zm37.57-3.22l-17.15-17.17 17.17-17.18zM300 118.58l5.53 5.53.18.18 31.53 31.54 2.87 2.87 2.84 2.84 44.23-44.24-2.84-2.83-2.87-2.87-31.53-31.54-.18-.18-5.53-5.53zm41.13-29.7V115H315zm0 34.22v25.19l-25.19-25.19zm8.07 20.77V123.1H370zM373.49 115H349.2V90.74zM312.32 176v60.74h62.55V176zm50.08 8.07l-18.49 18.5-18.5-18.5zm-24.2 24.21l-17.81 17.81v-35.62zm-9 20.39L343.91 214l14.68 14.68zm37.57-3.22l-17.17-17.17 17.17-17.18zM300 294.58l5.53 5.53.18.18 31.53 31.54 2.87 2.87 2.84 2.84 44.23-44.24-2.84-2.83-2.87-2.87-31.53-31.54-.18-.18-5.53-5.53zm41.13-29.7V291H315zm0 34.22v25.19l-25.19-25.19zm8.07 20.77V299.1H370zM373.49 291H349.2v-24.26zM312.32 352v60.74h62.55V352zm50.08 8.07l-18.49 18.5-18.5-18.5zm-24.2 24.21l-17.81 17.81v-35.62zm-9 20.39L343.91 390l14.68 14.68zm37.57-3.22l-17.17-17.17 17.17-17.18zM300 470.58l5.53 5.53.18.18 31.53 31.54 2.87 2.87 2.84 2.84 44.23-44.24-2.84-2.83-2.87-2.87-31.53-31.54-.18-.18-5.53-5.53zm41.13-29.7V467H315zm0 34.22v25.19l-25.19-25.19zm8.07 20.77V475.1H370zM373.49 467H349.2v-24.26zM312.32 528v60.74h62.55V528zm50.08 8.07l-18.49 18.5-18.5-18.5zm-24.2 24.21l-17.81 17.81v-35.62zm-9 20.39L343.91 566l14.68 14.68zm37.57-3.22l-17.17-17.17 17.17-17.18zM300 646.58l5.53 5.53.18.18 31.53 31.54 2.87 2.87 2.84 2.84 44.23-44.24-2.84-2.83-2.87-2.87-31.53-31.54-.18-.18-5.53-5.53zm41.13-29.7V643H315zm0 34.22v25.19l-25.19-25.19zm8.07 20.77V651.1H370zM373.49 643H349.2v-24.26zM312.32 704v60.74h62.55V704zm50.08 8.07l-18.49 18.5-18.5-18.5zm-24.2 24.21l-17.81 17.81v-35.62zm-9 20.39L343.91 742l14.68 14.68zm37.57-3.22l-17.17-17.17 17.17-17.18zM300 822.58l5.53 5.53.18.18 31.53 31.54 2.87 2.87 2.84 2.84 44.23-44.24-2.84-2.83-2.87-2.87-31.53-31.54-.18-.18-5.53-5.53zm41.13-29.7V819H315zm0 34.22v25.19l-25.19-25.19zm8.07 20.77V827.1H370zM373.49 819H349.2v-24.26zM312.32 880v60.74h62.55V880zm50.08 8.07l-18.49 18.5-18.5-18.5zm-24.2 24.21l-17.81 17.81v-35.62zm-9 20.39L343.91 918l14.68 14.68zm37.57-3.22l-17.17-17.17 17.17-17.18zM300 998.58l5.53 5.53.18.18 31.53 31.54 2.87 2.87 2.84 2.84 44.23-44.24-2.84-2.83-2.87-2.87-31.53-31.54-.18-.18-5.53-5.53zm41.13-29.7V995H315zm0 34.22v25.19l-25.19-25.19zm8.07 20.77v-20.77H370zM373.49 995H349.2v-24.26zM390.32 40v60.74h62.55V40zm50.08 8.07l-18.49 18.5-18.5-18.5zm-24.2 24.21l-17.81 17.81V54.47zm-9 20.39L421.91 78l14.68 14.68zm37.57-3.22l-17.15-17.17 17.17-17.18zM378 158.58l5.53 5.53.18.18 31.53 31.54 2.87 2.87 2.84 2.84 44.23-44.24-2.84-2.83-2.87-2.87-31.53-31.54-.18-.18-5.53-5.53zm41.13-29.7V155H393zm0 34.22v25.19l-25.19-25.19zm8.07 20.77V163.1H448zM451.49 155H427.2v-24.26zM390.32 216v60.74h62.55V216zm50.08 8.07l-18.49 18.5-18.5-18.5zm-24.2 24.21l-17.81 17.81v-35.62zm-9 20.39L421.91 254l14.68 14.68zm37.57-3.22l-17.17-17.17 17.17-17.18zM378 334.58l5.53 5.53.18.18 31.53 31.54 2.87 2.87 2.84 2.84 44.23-44.24-2.84-2.83-2.87-2.87-31.53-31.54-.18-.18-5.53-5.53zm41.13-29.7V331H393zm0 34.22v25.19l-25.19-25.19zm8.07 20.77V339.1H448zM451.49 331H427.2v-24.26zM390.32 392v60.74h62.55V392zm50.08 8.07l-18.49 18.5-18.5-18.5zm-24.2 24.21l-17.81 17.81v-35.62zm-9 20.39L421.91 430l14.68 14.68zm37.57-3.22l-17.17-17.17 17.17-17.18zM378 510.58l5.53 5.53.18.18 31.53 31.54 2.87 2.87 2.84 2.84 44.23-44.24-2.84-2.83-2.87-2.87-31.53-31.54-.18-.18-5.53-5.53zm41.13-29.7V507H393zm0 34.22v25.19l-25.19-25.19zm8.07 20.77V515.1H448zM451.49 507H427.2v-24.26zM390.32 568v60.74h62.55V568zm50.08 8.07l-18.49 18.5-18.5-18.5zm-24.2 24.21l-17.81 17.81v-35.62zm-9 20.39L421.91 606l14.68 14.68zm37.57-3.22l-17.17-17.17 17.17-17.18zM378 686.58l5.53 5.53.18.18 31.53 31.54 2.87 2.87 2.84 2.84 44.23-44.24-2.84-2.83-2.87-2.87-31.53-31.54-.18-.18-5.53-5.53zm41.13-29.7V683H393zm0 34.22v25.19l-25.19-25.19zm8.07 20.77V691.1H448zM451.49 683H427.2v-24.26zM390.32 744v60.74h62.55V744zm50.08 8.07l-18.49 18.5-18.5-18.5zm-24.2 24.21l-17.81 17.81v-35.62zm-9 20.39L421.91 782l14.68 14.68zm37.57-3.22l-17.17-17.17 17.17-17.18zM378 862.58l5.53 5.53.18.18 31.53 31.54 2.87 2.87 2.84 2.84 44.23-44.24-2.84-2.83-2.87-2.87-31.53-31.54-.18-.18-5.53-5.53zm41.13-29.7V859H393zm0 34.22v25.19l-25.19-25.19zm8.07 20.77V867.1H448zM451.49 859H427.2v-24.26zM390.32 920v60.74h62.55V920zm50.08 8.07l-18.49 18.5-18.5-18.5zm-24.2 24.21l-17.81 17.81v-35.62zm-9 20.39L421.91 958l14.68 14.68zm37.57-3.22l-17.17-17.17 17.17-17.18zM378 1038.58l5.53 5.53.18.18 31.53 31.54 2.87 2.87 2.84 2.84 44.23-44.24-2.84-2.83-2.87-2.87-31.53-31.54-.18-.18-5.53-5.53zm41.13-29.7V1035H393zm0 34.22v25.19l-25.19-25.19zm8.07 20.77v-20.77H448zm24.29-28.87H427.2v-24.29zM462.32 0v60.74h62.55V0zm50.08 8.07l-18.49 18.5-18.5-18.5zm-24.2 24.21l-17.81 17.81V14.47zm-9 20.39L493.91 38l14.68 14.68zm37.57-3.22l-17.15-17.17 17.17-17.18zM450 118.58l5.53 5.53.18.18 31.53 31.54 2.87 2.87 2.84 2.84 44.23-44.24-2.84-2.83-2.87-2.87-31.53-31.54-.18-.18-5.53-5.53zm41.13-29.7V115H465zm0 34.22v25.19l-25.19-25.19zm8.07 20.77V123.1H520zM523.49 115H499.2V90.74zM462.32 176v60.74h62.55V176zm50.08 8.07l-18.49 18.5-18.5-18.5zm-24.2 24.21l-17.81 17.81v-35.62zm-9 20.39L493.91 214l14.68 14.68zm37.57-3.22l-17.17-17.17 17.17-17.18zM450 294.58l5.53 5.53.18.18 31.53 31.54 2.87 2.87 2.84 2.84 44.23-44.24-2.84-2.83-2.87-2.87-31.53-31.54-.18-.18-5.53-5.53zm41.13-29.7V291H465zm0 34.22v25.19l-25.19-25.19zm8.07 20.77V299.1H520zM523.49 291H499.2v-24.26zM462.32 352v60.74h62.55V352zm50.08 8.07l-18.49 18.5-18.5-18.5zm-24.2 24.21l-17.81 17.81v-35.62zm-9 20.39L493.91 390l14.68 14.68zm37.57-3.22l-17.17-17.17 17.17-17.18zM450 470.58l5.53 5.53.18.18 31.53 31.54 2.87 2.87 2.84 2.84 44.23-44.24-2.84-2.83-2.87-2.87-31.53-31.54-.18-.18-5.53-5.53zm41.13-29.7V467H465zm0 34.22v25.19l-25.19-25.19zm8.07 20.77V475.1H520zM523.49 467H499.2v-24.26zM462.32 528v60.74h62.55V528zm50.08 8.07l-18.49 18.5-18.5-18.5zm-24.2 24.21l-17.81 17.81v-35.62zm-9 20.39L493.91 566l14.68 14.68zm37.57-3.22l-17.17-17.17 17.17-17.18zM450 646.58l5.53 5.53.18.18 31.53 31.54 2.87 2.87 2.84 2.84 44.23-44.24-2.84-2.83-2.87-2.87-31.53-31.54-.18-.18-5.53-5.53zm41.13-29.7V643H465zm0 34.22v25.19l-25.19-25.19zm8.07 20.77V651.1H520zM523.49 643H499.2v-24.26zM462.32 704v60.74h62.55V704zm50.08 8.07l-18.49 18.5-18.5-18.5zm-24.2 24.21l-17.81 17.81v-35.62zm-9 20.39L493.91 742l14.68 14.68zm37.57-3.22l-17.17-17.17 17.17-17.18zM450 822.58l5.53 5.53.18.18 31.53 31.54 2.87 2.87 2.84 2.84 44.23-44.24-2.84-2.83-2.87-2.87-31.53-31.54-.18-.18-5.53-5.53zm41.13-29.7V819H465zm0 34.22v25.19l-25.19-25.19zm8.07 20.77V827.1H520zM523.49 819H499.2v-24.26zM462.32 880v60.74h62.55V880zm50.08 8.07l-18.49 18.5-18.5-18.5zm-24.2 24.21l-17.81 17.81v-35.62zm-9 20.39L493.91 918l14.68 14.68zm37.57-3.22l-17.17-17.17 17.17-17.18zM450 998.58l5.53 5.53.18.18 31.53 31.54 2.87 2.87 2.84 2.84 44.23-44.24-2.84-2.83-2.87-2.87-31.53-31.54-.18-.18-5.53-5.53zm41.13-29.7V995H465zm0 34.22v25.19l-25.19-25.19zm8.07 20.77v-20.77H520zM523.49 995H499.2v-24.26zM540.32 40v60.74h62.55V40zm50.08 8.07l-18.49 18.5-18.5-18.5zm-24.2 24.21l-17.81 17.81V54.47zm-9 20.39L571.91 78l14.68 14.68zm37.57-3.22l-17.15-17.17 17.17-17.18zM528 158.58l5.53 5.53.18.18 31.53 31.54 2.87 2.87 2.84 2.84 44.23-44.24-2.84-2.83-2.87-2.87-31.53-31.54-.18-.18-5.53-5.53zm41.13-29.7V155H543zm0 34.22v25.19l-25.19-25.19zm8.07 20.77V163.1H598zM601.49 155H577.2v-24.26zM540.32 216v60.74h62.55V216zm50.08 8.07l-18.49 18.5-18.5-18.5zm-24.2 24.21l-17.81 17.81v-35.62zm-9 20.39L571.91 254l14.68 14.68zm37.57-3.22l-17.17-17.17 17.17-17.18zM528 334.58l5.53 5.53.18.18 31.53 31.54 2.87 2.87 2.84 2.84 44.23-44.24-2.84-2.83-2.87-2.87-31.53-31.54-.18-.18-5.53-5.53zm41.13-29.7V331H543zm0 34.22v25.19l-25.19-25.19zm8.07 20.77V339.1H598zM601.49 331H577.2v-24.26zM540.32 392v60.74h62.55V392zm50.08 8.07l-18.49 18.5-18.5-18.5zm-24.2 24.21l-17.81 17.81v-35.62zm-9 20.39L571.91 430l14.68 14.68zm37.57-3.22l-17.17-17.17 17.17-17.18zM528 510.58l5.53 5.53.18.18 31.53 31.54 2.87 2.87 2.84 2.84 44.23-44.24-2.84-2.83-2.87-2.87-31.53-31.54-.18-.18-5.53-5.53zm41.13-29.7V507H543zm0 34.22v25.19l-25.19-25.19zm8.07 20.77V515.1H598zM601.49 507H577.2v-24.26zM540.32 568v60.74h62.55V568zm50.08 8.07l-18.49 18.5-18.5-18.5zm-24.2 24.21l-17.81 17.81v-35.62zm-9 20.39L571.91 606l14.68 14.68zm37.57-3.22l-17.17-17.17 17.17-17.18zM528 686.58l5.53 5.53.18.18 31.53 31.54 2.87 2.87 2.84 2.84 44.23-44.24-2.84-2.83-2.87-2.87-31.53-31.54-.18-.18-5.53-5.53zm41.13-29.7V683H543zm0 34.22v25.19l-25.19-25.19zm8.07 20.77V691.1H598zM601.49 683H577.2v-24.26zM540.32 744v60.74h62.55V744zm50.08 8.07l-18.49 18.5-18.5-18.5zm-24.2 24.21l-17.81 17.81v-35.62zm-9 20.39L571.91 782l14.68 14.68zm37.57-3.22l-17.17-17.17 17.17-17.18zM528 862.58l5.53 5.53.18.18 31.53 31.54 2.87 2.87 2.84 2.84 44.23-44.24-2.84-2.83-2.87-2.87-31.53-31.54-.18-.18-5.53-5.53zm41.13-29.7V859H543zm0 34.22v25.19l-25.19-25.19zm8.07 20.77V867.1H598zM601.49 859H577.2v-24.26zM540.32 920v60.74h62.55V920zm50.08 8.07l-18.49 18.5-18.5-18.5zm-24.2 24.21l-17.81 17.81v-35.62zm-9 20.39L571.91 958l14.68 14.68zm37.57-3.22l-17.17-17.17 17.17-17.18zM528 1038.58l5.53 5.53.18.18 31.53 31.54 2.87 2.87 2.84 2.84 44.23-44.24-2.84-2.83-2.87-2.87-31.53-31.54-.18-.18-5.53-5.53zm41.13-29.7V1035H543zm0 34.22v25.19l-25.19-25.19zm8.07 20.77v-20.77H598zm24.29-28.87H577.2v-24.29zM612.32 0v60.74h62.55V0zm50.08 8.07l-18.49 18.5-18.5-18.5zm-24.2 24.21l-17.81 17.81V14.47zm-9 20.39L643.91 38l14.68 14.68zm37.57-3.22l-17.15-17.17 17.17-17.18zM600 118.58l5.53 5.53.18.18 31.53 31.54 2.87 2.87 2.84 2.84 44.23-44.24-2.84-2.83-2.87-2.87-31.53-31.54-.18-.18-5.53-5.53zm41.13-29.7V115H615zm0 34.22v25.19l-25.19-25.19zm8.07 20.77V123.1H670zM673.49 115H649.2V90.74zM612.32 176v60.74h62.55V176zm50.08 8.07l-18.49 18.5-18.5-18.5zm-24.2 24.21l-17.81 17.81v-35.62zm-9 20.39L643.91 214l14.68 14.68zm37.57-3.22l-17.17-17.17 17.17-17.18zM600 294.58l5.53 5.53.18.18 31.53 31.54 2.87 2.87 2.84 2.84 44.23-44.24-2.84-2.83-2.87-2.87-31.53-31.54-.18-.18-5.53-5.53zm41.13-29.7V291H615zm0 34.22v25.19l-25.19-25.19zm8.07 20.77V299.1H670zM673.49 291H649.2v-24.26zM612.32 352v60.74h62.55V352zm50.08 8.07l-18.49 18.5-18.5-18.5zm-24.2 24.21l-17.81 17.81v-35.62zm-9 20.39L643.91 390l14.68 14.68zm37.57-3.22l-17.17-17.17 17.17-17.18zM600 470.58l5.53 5.53.18.18 31.53 31.54 2.87 2.87 2.84 2.84 44.23-44.24-2.84-2.83-2.87-2.87-31.53-31.54-.18-.18-5.53-5.53zm41.13-29.7V467H615zm0 34.22v25.19l-25.19-25.19zm8.07 20.77V475.1H670zM673.49 467H649.2v-24.26zM612.32 528v60.74h62.55V528zm50.08 8.07l-18.49 18.5-18.5-18.5zm-24.2 24.21l-17.81 17.81v-35.62zm-9 20.39L643.91 566l14.68 14.68zm37.57-3.22l-17.17-17.17 17.17-17.18zM600 646.58l5.53 5.53.18.18 31.53 31.54 2.87 2.87 2.84 2.84 44.23-44.24-2.84-2.83-2.87-2.87-31.53-31.54-.18-.18-5.53-5.53zm41.13-29.7V643H615zm0 34.22v25.19l-25.19-25.19zm8.07 20.77V651.1H670zM673.49 643H649.2v-24.26zM612.32 704v60.74h62.55V704zm50.08 8.07l-18.49 18.5-18.5-18.5zm-24.2 24.21l-17.81 17.81v-35.62zm-9 20.39L643.91 742l14.68 14.68zm37.57-3.22l-17.17-17.17 17.17-17.18zM600 822.58l5.53 5.53.18.18 31.53 31.54 2.87 2.87 2.84 2.84 44.23-44.24-2.84-2.83-2.87-2.87-31.53-31.54-.18-.18-5.53-5.53zm41.13-29.7V819H615zm0 34.22v25.19l-25.19-25.19zm8.07 20.77V827.1H670zM673.49 819H649.2v-24.26zM612.32 880v60.74h62.55V880zm50.08 8.07l-18.49 18.5-18.5-18.5zm-24.2 24.21l-17.81 17.81v-35.62zm-9 20.39L643.91 918l14.68 14.68zm37.57-3.22l-17.17-17.17 17.17-17.18zM600 998.58l5.53 5.53.18.18 31.53 31.54 2.87 2.87 2.84 2.84 44.23-44.24-2.84-2.83-2.87-2.87-31.53-31.54-.18-.18-5.53-5.53zm41.13-29.7V995H615zm0 34.22v25.19l-25.19-25.19zm8.07 20.77v-20.77H670zM673.49 995H649.2v-24.26zM690.32 40v60.74h62.55V40zm50.08 8.07l-18.49 18.5-18.5-18.5zm-24.2 24.21l-17.81 17.81V54.47zm-9 20.39L721.91 78l14.68 14.68zm37.57-3.22l-17.15-17.17 17.17-17.18zM678 158.58l5.53 5.53.18.18 31.53 31.54 2.87 2.87 2.84 2.84 44.23-44.24-2.84-2.83-2.87-2.87-31.53-31.54-.18-.18-5.53-5.53zm41.13-29.7V155H693zm0 34.22v25.19l-25.19-25.19zm8.07 20.77V163.1H748zM751.49 155H727.2v-24.26zM690.32 216v60.74h62.55V216zm50.08 8.07l-18.49 18.5-18.5-18.5zm-24.2 24.21l-17.81 17.81v-35.62zm-9 20.39L721.91 254l14.68 14.68zm37.57-3.22l-17.17-17.17 17.17-17.18zM678 334.58l5.53 5.53.18.18 31.53 31.54 2.87 2.87 2.84 2.84 44.23-44.24-2.84-2.83-2.87-2.87-31.53-31.54-.18-.18-5.53-5.53zm41.13-29.7V331H693zm0 34.22v25.19l-25.19-25.19zm8.07 20.77V339.1H748zM751.49 331H727.2v-24.26zM690.32 392v60.74h62.55V392zm50.08 8.07l-18.49 18.5-18.5-18.5zm-24.2 24.21l-17.81 17.81v-35.62zm-9 20.39L721.91 430l14.68 14.68zm37.57-3.22l-17.17-17.17 17.17-17.18zM678 510.58l5.53 5.53.18.18 31.53 31.54 2.87 2.87 2.84 2.84 44.23-44.24-2.84-2.83-2.87-2.87-31.53-31.54-.18-.18-5.53-5.53zm41.13-29.7V507H693zm0 34.22v25.19l-25.19-25.19zm8.07 20.77V515.1H748zM751.49 507H727.2v-24.26zM690.32 568v60.74h62.55V568zm50.08 8.07l-18.49 18.5-18.5-18.5zm-24.2 24.21l-17.81 17.81v-35.62zm-9 20.39L721.91 606l14.68 14.68zm37.57-3.22l-17.17-17.17 17.17-17.18zM678 686.58l5.53 5.53.18.18 31.53 31.54 2.87 2.87 2.84 2.84 44.23-44.24-2.84-2.83-2.87-2.87-31.53-31.54-.18-.18-5.53-5.53zm41.13-29.7V683H693zm0 34.22v25.19l-25.19-25.19zm8.07 20.77V691.1H748zM751.49 683H727.2v-24.26zM690.32 744v60.74h62.55V744zm50.08 8.07l-18.49 18.5-18.5-18.5zm-24.2 24.21l-17.81 17.81v-35.62zm-9 20.39L721.91 782l14.68 14.68zm37.57-3.22l-17.17-17.17 17.17-17.18zM678 862.58l5.53 5.53.18.18 31.53 31.54 2.87 2.87 2.84 2.84 44.23-44.24-2.84-2.83-2.87-2.87-31.53-31.54-.18-.18-5.53-5.53zm41.13-29.7V859H693zm0 34.22v25.19l-25.19-25.19zm8.07 20.77V867.1H748zM751.49 859H727.2v-24.26zM690.32 920v60.74h62.55V920zm50.08 8.07l-18.49 18.5-18.5-18.5zm-24.2 24.21l-17.81 17.81v-35.62zm-9 20.39L721.91 958l14.68 14.68zm37.57-3.22l-17.17-17.17 17.17-17.18zM678 1038.58l5.53 5.53.18.18 31.53 31.54 2.87 2.87 2.84 2.84 44.23-44.24-2.84-2.83-2.87-2.87-31.53-31.54-.18-.18-5.53-5.53zm41.13-29.7V1035H693zm0 34.22v25.19l-25.19-25.19zm8.07 20.77v-20.77H748zm24.29-28.87H727.2v-24.29zM762.32 0v60.74h62.55V0zm50.08 8.07l-18.49 18.5-18.5-18.5zm-24.2 24.21l-17.81 17.81V14.47zm-9 20.39L793.91 38l14.68 14.68zm37.57-3.22l-17.15-17.17 17.17-17.18zM750 118.58l5.53 5.53.18.18 31.53 31.54 2.87 2.87 2.84 2.84 44.23-44.24-2.84-2.83-2.87-2.87-31.53-31.54-.18-.18-5.53-5.53zm41.13-29.7V115H765zm0 34.22v25.19l-25.19-25.19zm8.07 20.77V123.1H820zM823.49 115H799.2V90.74zM762.32 176v60.74h62.55V176zm50.08 8.07l-18.49 18.5-18.5-18.5zm-24.2 24.21l-17.81 17.81v-35.62zm-9 20.39L793.91 214l14.68 14.68zm37.57-3.22l-17.17-17.17 17.17-17.18zM750 294.58l5.53 5.53.18.18 31.53 31.54 2.87 2.87 2.84 2.84 44.23-44.24-2.84-2.83-2.87-2.87-31.53-31.54-.18-.18-5.53-5.53zm41.13-29.7V291H765zm0 34.22v25.19l-25.19-25.19zm8.07 20.77V299.1H820zM823.49 291H799.2v-24.26zM762.32 352v60.74h62.55V352zm50.08 8.07l-18.49 18.5-18.5-18.5zm-24.2 24.21l-17.81 17.81v-35.62zm-9 20.39L793.91 390l14.68 14.68zm37.57-3.22l-17.17-17.17 17.17-17.18zM750 470.58l5.53 5.53.18.18 31.53 31.54 2.87 2.87 2.84 2.84 44.23-44.24-2.84-2.83-2.87-2.87-31.53-31.54-.18-.18-5.53-5.53zm41.13-29.7V467H765zm0 34.22v25.19l-25.19-25.19zm8.07 20.77V475.1H820zM823.49 467H799.2v-24.26zM762.32 528v60.74h62.55V528zm50.08 8.07l-18.49 18.5-18.5-18.5zm-24.2 24.21l-17.81 17.81v-35.62zm-9 20.39L793.91 566l14.68 14.68zm37.57-3.22l-17.17-17.17 17.17-17.18zM750 646.58l5.53 5.53.18.18 31.53 31.54 2.87 2.87 2.84 2.84 44.23-44.24-2.84-2.83-2.87-2.87-31.53-31.54-.18-.18-5.53-5.53zm41.13-29.7V643H765zm0 34.22v25.19l-25.19-25.19zm8.07 20.77V651.1H820zM823.49 643H799.2v-24.26zM762.32 704v60.74h62.55V704zm50.08 8.07l-18.49 18.5-18.5-18.5zm-24.2 24.21l-17.81 17.81v-35.62zm-9 20.39L793.91 742l14.68 14.68zm37.57-3.22l-17.17-17.17 17.17-17.18zM750 822.58l5.53 5.53.18.18 31.53 31.54 2.87 2.87 2.84 2.84 44.23-44.24-2.84-2.83-2.87-2.87-31.53-31.54-.18-.18-5.53-5.53zm41.13-29.7V819H765zm0 34.22v25.19l-25.19-25.19zm8.07 20.77V827.1H820zM823.49 819H799.2v-24.26zM762.32 880v60.74h62.55V880zm50.08 8.07l-18.49 18.5-18.5-18.5zm-24.2 24.21l-17.81 17.81v-35.62zm-9 20.39L793.91 918l14.68 14.68zm37.57-3.22l-17.17-17.17 17.17-17.18zM750 998.58l5.53 5.53.18.18 31.53 31.54 2.87 2.87 2.84 2.84 44.23-44.24-2.84-2.83-2.87-2.87-31.53-31.54-.18-.18-5.53-5.53zm41.13-29.7V995H765zm0 34.22v25.19l-25.19-25.19zm8.07 20.77v-20.77H820zM823.49 995H799.2v-24.26zM840.32 40v60.74h62.55V40zm50.08 8.07l-18.49 18.5-18.5-18.5zm-24.2 24.21l-17.81 17.81V54.47zm-9 20.39L871.91 78l14.68 14.68zm37.57-3.22l-17.15-17.17 17.17-17.18zM828 158.58l5.53 5.53.18.18 31.53 31.54 2.87 2.87 2.84 2.84 44.23-44.24-2.84-2.83-2.87-2.87-31.53-31.54-.18-.18-5.53-5.53zm41.13-29.7V155H843zm0 34.22v25.19l-25.19-25.19zm8.07 20.77V163.1H898zM901.49 155H877.2v-24.26zM840.32 216v60.74h62.55V216zm50.08 8.07l-18.49 18.5-18.5-18.5zm-24.2 24.21l-17.81 17.81v-35.62zm-9 20.39L871.91 254l14.68 14.68zm37.57-3.22l-17.17-17.17 17.17-17.18zM828 334.58l5.53 5.53.18.18 31.53 31.54 2.87 2.87 2.84 2.84 44.23-44.24-2.84-2.83-2.87-2.87-31.53-31.54-.18-.18-5.53-5.53zm41.13-29.7V331H843zm0 34.22v25.19l-25.19-25.19zm8.07 20.77V339.1H898zM901.49 331H877.2v-24.26zM840.32 392v60.74h62.55V392zm50.08 8.07l-18.49 18.5-18.5-18.5zm-24.2 24.21l-17.81 17.81v-35.62zm-9 20.39L871.91 430l14.68 14.68zm37.57-3.22l-17.17-17.17 17.17-17.18zM828 510.58l5.53 5.53.18.18 31.53 31.54 2.87 2.87 2.84 2.84 44.23-44.24-2.84-2.83-2.87-2.87-31.53-31.54-.18-.18-5.53-5.53zm41.13-29.7V507H843zm0 34.22v25.19l-25.19-25.19zm8.07 20.77V515.1H898zM901.49 507H877.2v-24.26zM840.32 568v60.74h62.55V568zm50.08 8.07l-18.49 18.5-18.5-18.5zm-24.2 24.21l-17.81 17.81v-35.62zm-9 20.39L871.91 606l14.68 14.68zm37.57-3.22l-17.17-17.17 17.17-17.18zM828 686.58l5.53 5.53.18.18 31.53 31.54 2.87 2.87 2.84 2.84 44.23-44.24-2.84-2.83-2.87-2.87-31.53-31.54-.18-.18-5.53-5.53zm41.13-29.7V683H843zm0 34.22v25.19l-25.19-25.19zm8.07 20.77V691.1H898zM901.49 683H877.2v-24.26zM840.32 744v60.74h62.55V744zm50.08 8.07l-18.49 18.5-18.5-18.5zm-24.2 24.21l-17.81 17.81v-35.62zm-9 20.39L871.91 782l14.68 14.68zm37.57-3.22l-17.17-17.17 17.17-17.18zM828 862.58l5.53 5.53.18.18 31.53 31.54 2.87 2.87 2.84 2.84 44.23-44.24-2.84-2.83-2.87-2.87-31.53-31.54-.18-.18-5.53-5.53zm41.13-29.7V859H843zm0 34.22v25.19l-25.19-25.19zm8.07 20.77V867.1H898zM901.49 859H877.2v-24.26zM840.32 920v60.74h62.55V920zm50.08 8.07l-18.49 18.5-18.5-18.5zm-24.2 24.21l-17.81 17.81v-35.62zm-9 20.39L871.91 958l14.68 14.68zm37.57-3.22l-17.17-17.17 17.17-17.18zM828 1038.58l5.53 5.53.18.18 31.53 31.54 2.87 2.87 2.84 2.84 44.23-44.24-2.84-2.83-2.87-2.87-31.53-31.54-.18-.18-5.53-5.53zm41.13-29.7V1035H843zm0 34.22v25.19l-25.19-25.19zm8.07 20.77v-20.77H898zm24.29-28.87H877.2v-24.29zM912.32 0v60.74h62.55V0zm50.08 8.07l-18.49 18.5-18.5-18.5zm-24.2 24.21l-17.81 17.81V14.47zm-9 20.39L943.91 38l14.68 14.68zm37.57-3.22l-17.15-17.17 17.17-17.18zM900 118.58l5.53 5.53.18.18 31.53 31.54 2.87 2.87 2.84 2.84 44.23-44.24-2.84-2.83-2.87-2.87-31.53-31.54-.18-.18-5.53-5.53zm41.13-29.7V115H915zm0 34.22v25.19l-25.19-25.19zm8.07 20.77V123.1H970zM973.49 115H949.2V90.74zM912.32 176v60.74h62.55V176zm50.08 8.07l-18.49 18.5-18.5-18.5zm-24.2 24.21l-17.81 17.81v-35.62zm-9 20.39L943.91 214l14.68 14.68zm37.57-3.22l-17.17-17.17 17.17-17.18zM900 294.58l5.53 5.53.18.18 31.53 31.54 2.87 2.87 2.84 2.84 44.23-44.24-2.84-2.83-2.87-2.87-31.53-31.54-.18-.18-5.53-5.53zm41.13-29.7V291H915zm0 34.22v25.19l-25.19-25.19zm8.07 20.77V299.1H970zM973.49 291H949.2v-24.26zM912.32 352v60.74h62.55V352zm50.08 8.07l-18.49 18.5-18.5-18.5zm-24.2 24.21l-17.81 17.81v-35.62zm-9 20.39L943.91 390l14.68 14.68zm37.57-3.22l-17.17-17.17 17.17-17.18zM900 470.58l5.53 5.53.18.18 31.53 31.54 2.87 2.87 2.84 2.84 44.23-44.24-2.84-2.83-2.87-2.87-31.53-31.54-.18-.18-5.53-5.53zm41.13-29.7V467H915zm0 34.22v25.19l-25.19-25.19zm8.07 20.77V475.1H970zM973.49 467H949.2v-24.26zM912.32 528v60.74h62.55V528zm50.08 8.07l-18.49 18.5-18.5-18.5zm-24.2 24.21l-17.81 17.81v-35.62zm-9 20.39L943.91 566l14.68 14.68zm37.57-3.22l-17.17-17.17 17.17-17.18zM900 646.58l5.53 5.53.18.18 31.53 31.54 2.87 2.87 2.84 2.84 44.23-44.24-2.84-2.83-2.87-2.87-31.53-31.54-.18-.18-5.53-5.53zm41.13-29.7V643H915zm0 34.22v25.19l-25.19-25.19zm8.07 20.77V651.1H970zM973.49 643H949.2v-24.26zM912.32 704v60.74h62.55V704zm50.08 8.07l-18.49 18.5-18.5-18.5zm-24.2 24.21l-17.81 17.81v-35.62zm-9 20.39L943.91 742l14.68 14.68zm37.57-3.22l-17.17-17.17 17.17-17.18zM900 822.58l5.53 5.53.18.18 31.53 31.54 2.87 2.87 2.84 2.84 44.23-44.24-2.84-2.83-2.87-2.87-31.53-31.54-.18-.18-5.53-5.53zm41.13-29.7V819H915zm0 34.22v25.19l-25.19-25.19zm8.07 20.77V827.1H970zM973.49 819H949.2v-24.26zM912.32 880v60.74h62.55V880zm50.08 8.07l-18.49 18.5-18.5-18.5zm-24.2 24.21l-17.81 17.81v-35.62zm-9 20.39L943.91 918l14.68 14.68zm37.57-3.22l-17.17-17.17 17.17-17.18zM900 998.58l5.53 5.53.18.18 31.53 31.54 2.87 2.87 2.84 2.84 44.23-44.24-2.84-2.83-2.87-2.87-31.53-31.54-.18-.18-5.53-5.53zm41.13-29.7V995H915zm0 34.22v25.19l-25.19-25.19zm8.07 20.77v-20.77H970zM973.49 995H949.2v-24.26zM990.32 40v60.74h62.55V40zm50.08 8.07l-18.49 18.5-18.5-18.5zm-24.2 24.21l-17.81 17.81V54.47zm-9 20.39L1021.91 78l14.68 14.68zm37.57-3.22l-17.17-17.17 17.17-17.18zM978 158.58l5.53 5.53.18.18 31.53 31.54 2.87 2.87 2.84 2.84 44.23-44.24-2.84-2.83-2.87-2.87-31.53-31.54-.18-.18-5.53-5.53zm41.13-29.7V155H993zm0 34.22v25.19l-25.19-25.19zm8.07 20.77V163.1h20.8zm24.29-28.87h-24.29v-24.26zM990.32 216v60.74h62.55V216zm50.08 8.07l-18.49 18.5-18.5-18.5zm-24.2 24.21l-17.81 17.81v-35.62zm-9 20.39l14.71-14.67 14.68 14.68zm37.57-3.22l-17.17-17.17 17.17-17.18zM978 334.58l5.53 5.53.18.18 31.53 31.54 2.87 2.87 2.84 2.84 44.23-44.24-2.84-2.83-2.87-2.87-31.53-31.54-.18-.18-5.53-5.53zm41.13-29.7V331H993zm0 34.22v25.19l-25.19-25.19zm8.07 20.77V339.1h20.8zm24.29-28.87h-24.29v-24.26zM990.32 392v60.74h62.55V392zm50.08 8.07l-18.49 18.5-18.5-18.5zm-24.2 24.21l-17.81 17.81v-35.62zm-9 20.39l14.71-14.67 14.68 14.68zm37.57-3.22l-17.17-17.17 17.17-17.18zM978 510.58l5.53 5.53.18.18 31.53 31.54 2.87 2.87 2.84 2.84 44.23-44.24-2.84-2.83-2.87-2.87-31.53-31.54-.18-.18-5.53-5.53zm41.13-29.7V507H993zm0 34.22v25.19l-25.19-25.19zm8.07 20.77V515.1h20.8zm24.29-28.87h-24.29v-24.26zM990.32 568v60.74h62.55V568zm50.08 8.07l-18.49 18.5-18.5-18.5zm-24.2 24.21l-17.81 17.81v-35.62zm-9 20.39l14.71-14.67 14.68 14.68zm37.57-3.22l-17.17-17.17 17.17-17.18zM978 686.58l5.53 5.53.18.18 31.53 31.54 2.87 2.87 2.84 2.84 44.23-44.24-2.84-2.83-2.87-2.87-31.53-31.54-.18-.18-5.53-5.53zm41.13-29.7V683H993zm0 34.22v25.19l-25.19-25.19zm8.07 20.77V691.1h20.8zm24.29-28.87h-24.29v-24.26zM990.32 744v60.74h62.55V744zm50.08 8.07l-18.49 18.5-18.5-18.5zm-24.2 24.21l-17.81 17.81v-35.62zm-9 20.39l14.71-14.67 14.68 14.68zm37.57-3.22l-17.17-17.17 17.17-17.18zM978 862.58l5.53 5.53.18.18 31.53 31.54 2.87 2.87 2.84 2.84 44.23-44.24-2.84-2.83-2.87-2.87-31.53-31.54-.18-.18-5.53-5.53zm41.13-29.7V859H993zm0 34.22v25.19l-25.19-25.19zm8.07 20.77V867.1h20.8zm24.29-28.87h-24.29v-24.26zM990.32 920v60.74h62.55V920zm50.08 8.07l-18.49 18.5-18.5-18.5zm-24.2 24.21l-17.81 17.81v-35.62zm-9 20.39l14.71-14.67 14.68 14.68zm37.57-3.22l-17.17-17.17 17.17-17.18zM978 1038.58l5.53 5.53.18.18 31.53 31.54 2.87 2.87 2.84 2.84 44.23-44.24-2.84-2.83-2.87-2.87-31.53-31.54-.18-.18-5.53-5.53zm41.13-29.7V1035H993zm0 34.22v25.19l-25.19-25.19zm8.07 20.77v-20.77h20.8zm24.29-28.84h-24.29v-24.29zM1062.32 0v60.74h62.55V0zm50.08 8.07l-18.49 18.5-18.5-18.5zm-24.2 24.21l-17.81 17.81V14.47zm-9 20.39L1093.91 38l14.68 14.68zm37.57-3.22l-17.17-17.17 17.17-17.18zM1050 118.58l5.53 5.53.18.18 31.53 31.54 2.87 2.87 2.84 2.84 44.23-44.24-2.84-2.83-2.87-2.87-31.53-31.54-.18-.18-5.53-5.53zm41.13-29.7V115H1065zm0 34.22v25.19l-25.19-25.19zm8.07 20.77V123.1h20.8zm24.29-28.87h-24.29V90.74zM1062.32 176v60.74h62.55V176zm50.08 8.07l-18.49 18.5-18.5-18.5zm-24.2 24.21l-17.81 17.81v-35.62zm-9 20.39l14.71-14.67 14.68 14.68zm37.57-3.22l-17.17-17.17 17.17-17.18zM1050 294.58l5.53 5.53.18.18 31.53 31.54 2.87 2.87 2.84 2.84 44.23-44.24-2.84-2.83-2.87-2.87-31.53-31.54-.18-.18-5.53-5.53zm41.13-29.7V291H1065zm0 34.22v25.19l-25.19-25.19zm8.07 20.77V299.1h20.8zm24.29-28.87h-24.29v-24.26zM1062.32 352v60.74h62.55V352zm50.08 8.07l-18.49 18.5-18.5-18.5zm-24.2 24.21l-17.81 17.81v-35.62zm-9 20.39l14.71-14.67 14.68 14.68zm37.57-3.22l-17.17-17.17 17.17-17.18zM1050 470.58l5.53 5.53.18.18 31.53 31.54 2.87 2.87 2.84 2.84 44.23-44.24-2.84-2.83-2.87-2.87-31.53-31.54-.18-.18-5.53-5.53zm41.13-29.7V467H1065zm0 34.22v25.19l-25.19-25.19zm8.07 20.77V475.1h20.8zm24.29-28.87h-24.29v-24.26zM1062.32 528v60.74h62.55V528zm50.08 8.07l-18.49 18.5-18.5-18.5zm-24.2 24.21l-17.81 17.81v-35.62zm-9 20.39l14.71-14.67 14.68 14.68zm37.57-3.22l-17.17-17.17 17.17-17.18zM1050 646.58l5.53 5.53.18.18 31.53 31.54 2.87 2.87 2.84 2.84 44.23-44.24-2.84-2.83-2.87-2.87-31.53-31.54-.18-.18-5.53-5.53zm41.13-29.7V643H1065zm0 34.22v25.19l-25.19-25.19zm8.07 20.77V651.1h20.8zm24.29-28.87h-24.29v-24.26zM1062.32 704v60.74h62.55V704zm50.08 8.07l-18.49 18.5-18.5-18.5zm-24.2 24.21l-17.81 17.81v-35.62zm-9 20.39l14.71-14.67 14.68 14.68zm37.57-3.22l-17.17-17.17 17.17-17.18zM1050 822.58l5.53 5.53.18.18 31.53 31.54 2.87 2.87 2.84 2.84 44.23-44.24-2.84-2.83-2.87-2.87-31.53-31.54-.18-.18-5.53-5.53zm41.13-29.7V819H1065zm0 34.22v25.19l-25.19-25.19zm8.07 20.77V827.1h20.8zm24.29-28.87h-24.29v-24.26zM1062.32 880v60.74h62.55V880zm50.08 8.07l-18.49 18.5-18.5-18.5zm-24.2 24.21l-17.81 17.81v-35.62zm-9 20.39l14.71-14.67 14.68 14.68zm37.57-3.22l-17.17-17.17 17.17-17.18zM1050 998.58l5.53 5.53.18.18 31.53 31.54 2.87 2.87 2.84 2.84 44.23-44.24-2.84-2.83-2.87-2.87-31.53-31.54-.18-.18-5.53-5.53zm41.13-29.7V995H1065zm0 34.22v25.19l-25.19-25.19zm8.07 20.77v-20.77h20.8zm24.29-28.87h-24.29v-24.26zM1140.32 40v60.74h62.55V40zm50.08 8.07l-18.49 18.5-18.5-18.5zm-24.2 24.21l-17.81 17.81V54.47zm-9 20.39L1171.91 78l14.68 14.68zm37.57-3.22l-17.17-17.17 17.17-17.18zM1128 158.58l5.53 5.53.18.18 31.53 31.54 2.87 2.87 2.84 2.84 44.23-44.24-2.84-2.83-2.87-2.87-31.53-31.54-.18-.18-5.53-5.53zm41.13-29.7V155H1143zm0 34.22v25.19l-25.19-25.19zm8.07 20.77V163.1h20.8zm24.29-28.87h-24.29v-24.26zM1140.32 216v60.74h62.55V216zm50.08 8.07l-18.49 18.5-18.5-18.5zm-24.2 24.21l-17.81 17.81v-35.62zm-9 20.39l14.71-14.67 14.68 14.68zm37.57-3.22l-17.17-17.17 17.17-17.18zM1128 334.58l5.53 5.53.18.18 31.53 31.54 2.87 2.87 2.84 2.84 44.23-44.24-2.84-2.83-2.87-2.87-31.53-31.54-.18-.18-5.53-5.53zm41.13-29.7V331H1143zm0 34.22v25.19l-25.19-25.19zm8.07 20.77V339.1h20.8zm24.29-28.87h-24.29v-24.26zM1140.32 392v60.74h62.55V392zm50.08 8.07l-18.49 18.5-18.5-18.5zm-24.2 24.21l-17.81 17.81v-35.62zm-9 20.39l14.71-14.67 14.68 14.68zm37.57-3.22l-17.17-17.17 17.17-17.18zM1128 510.58l5.53 5.53.18.18 31.53 31.54 2.87 2.87 2.84 2.84 44.23-44.24-2.84-2.83-2.87-2.87-31.53-31.54-.18-.18-5.53-5.53zm41.13-29.7V507H1143zm0 34.22v25.19l-25.19-25.19zm8.07 20.77V515.1h20.8zm24.29-28.87h-24.29v-24.26zM1140.32 568v60.74h62.55V568zm50.08 8.07l-18.49 18.5-18.5-18.5zm-24.2 24.21l-17.81 17.81v-35.62zm-9 20.39l14.71-14.67 14.68 14.68zm37.57-3.22l-17.17-17.17 17.17-17.18zM1128 686.58l5.53 5.53.18.18 31.53 31.54 2.87 2.87 2.84 2.84 44.23-44.24-2.84-2.83-2.87-2.87-31.53-31.54-.18-.18-5.53-5.53zm41.13-29.7V683H1143zm0 34.22v25.19l-25.19-25.19zm8.07 20.77V691.1h20.8zm24.29-28.87h-24.29v-24.26zM1140.32 744v60.74h62.55V744zm50.08 8.07l-18.49 18.5-18.5-18.5zm-24.2 24.21l-17.81 17.81v-35.62zm-9 20.39l14.71-14.67 14.68 14.68zm37.57-3.22l-17.17-17.17 17.17-17.18zM1128 862.58l5.53 5.53.18.18 31.53 31.54 2.87 2.87 2.84 2.84 44.23-44.24-2.84-2.83-2.87-2.87-31.53-31.54-.18-.18-5.53-5.53zm41.13-29.7V859H1143zm0 34.22v25.19l-25.19-25.19zm8.07 20.77V867.1h20.8zm24.29-28.87h-24.29v-24.26zM1140.32 920v60.74h62.55V920zm50.08 8.07l-18.49 18.5-18.5-18.5zm-24.2 24.21l-17.81 17.81v-35.62zm-9 20.39l14.71-14.67 14.68 14.68zm37.57-3.22l-17.17-17.17 17.17-17.18zM1128 1038.58l5.53 5.53.18.18 31.53 31.54 2.87 2.87 2.84 2.84 44.23-44.24-2.84-2.83-2.87-2.87-31.53-31.54-.18-.18-5.53-5.53zm41.13-29.7V1035H1143zm0 34.22v25.19l-25.19-25.19zm8.07 20.77v-20.77h20.8zm24.29-28.84h-24.29v-24.29zM1212.32 0v60.74h62.55V0zm50.08 8.07l-18.49 18.5-18.5-18.5zm-24.2 24.21l-17.81 17.81V14.47zm-9 20.39L1243.91 38l14.68 14.68zm37.57-3.22l-17.17-17.17 17.17-17.18zM1200 118.58l5.53 5.53.18.18 31.53 31.54 2.87 2.87 2.84 2.84 44.23-44.24-2.84-2.83-2.87-2.87-31.53-31.54-.18-.18-5.53-5.53zm41.13-29.7V115H1215zm0 34.22v25.19l-25.19-25.19zm8.07 20.77V123.1h20.8zm24.29-28.87h-24.29V90.74zM1212.32 176v60.74h62.55V176zm50.08 8.07l-18.49 18.5-18.5-18.5zm-24.2 24.21l-17.81 17.81v-35.62zm-9 20.39l14.71-14.67 14.68 14.68zm37.57-3.22l-17.17-17.17 17.17-17.18zM1200 294.58l5.53 5.53.18.18 31.53 31.54 2.87 2.87 2.84 2.84 44.23-44.24-2.84-2.83-2.87-2.87-31.53-31.54-.18-.18-5.53-5.53zm41.13-29.7V291H1215zm0 34.22v25.19l-25.19-25.19zm8.07 20.77V299.1h20.8zm24.29-28.87h-24.29v-24.26zM1212.32 352v60.74h62.55V352zm50.08 8.07l-18.49 18.5-18.5-18.5zm-24.2 24.21l-17.81 17.81v-35.62zm-9 20.39l14.71-14.67 14.68 14.68zm37.57-3.22l-17.17-17.17 17.17-17.18zM1200 470.58l5.53 5.53.18.18 31.53 31.54 2.87 2.87 2.84 2.84 44.23-44.24-2.84-2.83-2.87-2.87-31.53-31.54-.18-.18-5.53-5.53zm41.13-29.7V467H1215zm0 34.22v25.19l-25.19-25.19zm8.07 20.77V475.1h20.8zm24.29-28.87h-24.29v-24.26zM1212.32 528v60.74h62.55V528zm50.08 8.07l-18.49 18.5-18.5-18.5zm-24.2 24.21l-17.81 17.81v-35.62zm-9 20.39l14.71-14.67 14.68 14.68zm37.57-3.22l-17.17-17.17 17.17-17.18zM1200 646.58l5.53 5.53.18.18 31.53 31.54 2.87 2.87 2.84 2.84 44.23-44.24-2.84-2.83-2.87-2.87-31.53-31.54-.18-.18-5.53-5.53zm41.13-29.7V643H1215zm0 34.22v25.19l-25.19-25.19zm8.07 20.77V651.1h20.8zm24.29-28.87h-24.29v-24.26zM1212.32 704v60.74h62.55V704zm50.08 8.07l-18.49 18.5-18.5-18.5zm-24.2 24.21l-17.81 17.81v-35.62zm-9 20.39l14.71-14.67 14.68 14.68zm37.57-3.22l-17.17-17.17 17.17-17.18zM1200 822.58l5.53 5.53.18.18 31.53 31.54 2.87 2.87 2.84 2.84 44.23-44.24-2.84-2.83-2.87-2.87-31.53-31.54-.18-.18-5.53-5.53zm41.13-29.7V819H1215zm0 34.22v25.19l-25.19-25.19zm8.07 20.77V827.1h20.8zm24.29-28.87h-24.29v-24.26zM1212.32 880v60.74h62.55V880zm50.08 8.07l-18.49 18.5-18.5-18.5zm-24.2 24.21l-17.81 17.81v-35.62zm-9 20.39l14.71-14.67 14.68 14.68zm37.57-3.22l-17.17-17.17 17.17-17.18zM1200 998.58l5.53 5.53.18.18 31.53 31.54 2.87 2.87 2.84 2.84 44.23-44.24-2.84-2.83-2.87-2.87-31.53-31.54-.18-.18-5.53-5.53zm41.13-29.7V995H1215zm0 34.22v25.19l-25.19-25.19zm8.07 20.77v-20.77h20.8zm24.29-28.87h-24.29v-24.26zM1290.32 40v60.74h62.55V40zm50.08 8.07l-18.49 18.5-18.5-18.5zm-24.2 24.21l-17.81 17.81V54.47zm-9 20.39L1321.91 78l14.68 14.68zm37.57-3.22l-17.17-17.17 17.17-17.18zM1278 158.58l5.53 5.53.18.18 31.53 31.54 2.87 2.87 2.84 2.84 44.23-44.24-2.84-2.83-2.87-2.87-31.53-31.54-.18-.18-5.53-5.53zm41.13-29.7V155H1293zm0 34.22v25.19l-25.19-25.19zm8.07 20.77V163.1h20.8zm24.29-28.87h-24.29v-24.26zM1290.32 216v60.74h62.55V216zm50.08 8.07l-18.49 18.5-18.5-18.5zm-24.2 24.21l-17.81 17.81v-35.62zm-9 20.39l14.71-14.67 14.68 14.68zm37.57-3.22l-17.17-17.17 17.17-17.18zM1278 334.58l5.53 5.53.18.18 31.53 31.54 2.87 2.87 2.84 2.84 44.23-44.24-2.84-2.83-2.87-2.87-31.53-31.54-.18-.18-5.53-5.53zm41.13-29.7V331H1293zm0 34.22v25.19l-25.19-25.19zm8.07 20.77V339.1h20.8zm24.29-28.87h-24.29v-24.26zM1290.32 392v60.74h62.55V392zm50.08 8.07l-18.49 18.5-18.5-18.5zm-24.2 24.21l-17.81 17.81v-35.62zm-9 20.39l14.71-14.67 14.68 14.68zm37.57-3.22l-17.17-17.17 17.17-17.18zM1278 510.58l5.53 5.53.18.18 31.53 31.54 2.87 2.87 2.84 2.84 44.23-44.24-2.84-2.83-2.87-2.87-31.53-31.54-.18-.18-5.53-5.53zm41.13-29.7V507H1293zm0 34.22v25.19l-25.19-25.19zm8.07 20.77V515.1h20.8zm24.29-28.87h-24.29v-24.26zM1290.32 568v60.74h62.55V568zm50.08 8.07l-18.49 18.5-18.5-18.5zm-24.2 24.21l-17.81 17.81v-35.62zm-9 20.39l14.71-14.67 14.68 14.68zm37.57-3.22l-17.17-17.17 17.17-17.18zM1278 686.58l5.53 5.53.18.18 31.53 31.54 2.87 2.87 2.84 2.84 44.23-44.24-2.84-2.83-2.87-2.87-31.53-31.54-.18-.18-5.53-5.53zm41.13-29.7V683H1293zm0 34.22v25.19l-25.19-25.19zm8.07 20.77V691.1h20.8zm24.29-28.87h-24.29v-24.26zM1290.32 744v60.74h62.55V744zm50.08 8.07l-18.49 18.5-18.5-18.5zm-24.2 24.21l-17.81 17.81v-35.62zm-9 20.39l14.71-14.67 14.68 14.68zm37.57-3.22l-17.17-17.17 17.17-17.18zM1278 862.58l5.53 5.53.18.18 31.53 31.54 2.87 2.87 2.84 2.84 44.23-44.24-2.84-2.83-2.87-2.87-31.53-31.54-.18-.18-5.53-5.53zm41.13-29.7V859H1293zm0 34.22v25.19l-25.19-25.19zm8.07 20.77V867.1h20.8zm24.29-28.87h-24.29v-24.26zM1290.32 920v60.74h62.55V920zm50.08 8.07l-18.49 18.5-18.5-18.5zm-24.2 24.21l-17.81 17.81v-35.62zm-9 20.39l14.71-14.67 14.68 14.68zm37.57-3.22l-17.17-17.17 17.17-17.18zM1278 1038.58l5.53 5.53.18.18 31.53 31.54 2.87 2.87 2.84 2.84 44.23-44.24-2.84-2.83-2.87-2.87-31.53-31.54-.18-.18-5.53-5.53zm41.13-29.7V1035H1293zm0 34.22v25.19l-25.19-25.19zm8.07 20.77v-20.77h20.8zm24.29-28.84h-24.29v-24.29zM1362.32 0v60.74h62.55V0zm50.08 8.07l-18.49 18.5-18.5-18.5zm-24.2 24.21l-17.81 17.81V14.47zm-9 20.39L1393.91 38l14.68 14.68zm37.57-3.22l-17.17-17.17 17.17-17.18zM1350 118.58l5.53 5.53.18.18 31.53 31.54 2.87 2.87 2.84 2.84 44.23-44.24-2.84-2.83-2.87-2.87-31.53-31.54-.18-.18-5.53-5.53zm41.13-29.7V115H1365zm0 34.22v25.19l-25.19-25.19zm8.07 20.77V123.1h20.8zm24.29-28.87h-24.29V90.74zM1362.32 176v60.74h62.55V176zm50.08 8.07l-18.49 18.5-18.5-18.5zm-24.2 24.21l-17.81 17.81v-35.62zm-9 20.39l14.71-14.67 14.68 14.68zm37.57-3.22l-17.17-17.17 17.17-17.18zM1350 294.58l5.53 5.53.18.18 31.53 31.54 2.87 2.87 2.84 2.84 44.23-44.24-2.84-2.83-2.87-2.87-31.53-31.54-.18-.18-5.53-5.53zm41.13-29.7V291H1365zm0 34.22v25.19l-25.19-25.19zm8.07 20.77V299.1h20.8zm24.29-28.87h-24.29v-24.26zM1362.32 352v60.74h62.55V352zm50.08 8.07l-18.49 18.5-18.5-18.5zm-24.2 24.21l-17.81 17.81v-35.62zm-9 20.39l14.71-14.67 14.68 14.68zm37.57-3.22l-17.17-17.17 17.17-17.18zM1350 470.58l5.53 5.53.18.18 31.53 31.54 2.87 2.87 2.84 2.84 44.23-44.24-2.84-2.83-2.87-2.87-31.53-31.54-.18-.18-5.53-5.53zm41.13-29.7V467H1365zm0 34.22v25.19l-25.19-25.19zm8.07 20.77V475.1h20.8zm24.29-28.87h-24.29v-24.26zM1362.32 528v60.74h62.55V528zm50.08 8.07l-18.49 18.5-18.5-18.5zm-24.2 24.21l-17.81 17.81v-35.62zm-9 20.39l14.71-14.67 14.68 14.68zm37.57-3.22l-17.17-17.17 17.17-17.18zM1350 646.58l5.53 5.53.18.18 31.53 31.54 2.87 2.87 2.84 2.84 44.23-44.24-2.84-2.83-2.87-2.87-31.53-31.54-.18-.18-5.53-5.53zm41.13-29.7V643H1365zm0 34.22v25.19l-25.19-25.19zm8.07 20.77V651.1h20.8zm24.29-28.87h-24.29v-24.26zM1362.32 704v60.74h62.55V704zm50.08 8.07l-18.49 18.5-18.5-18.5zm-24.2 24.21l-17.81 17.81v-35.62zm-9 20.39l14.71-14.67 14.68 14.68zm37.57-3.22l-17.17-17.17 17.17-17.18zM1350 822.58l5.53 5.53.18.18 31.53 31.54 2.87 2.87 2.84 2.84 44.23-44.24-2.84-2.83-2.87-2.87-31.53-31.54-.18-.18-5.53-5.53zm41.13-29.7V819H1365zm0 34.22v25.19l-25.19-25.19zm8.07 20.77V827.1h20.8zm24.29-28.87h-24.29v-24.26zM1362.32 880v60.74h62.55V880zm50.08 8.07l-18.49 18.5-18.5-18.5zm-24.2 24.21l-17.81 17.81v-35.62zm-9 20.39l14.71-14.67 14.68 14.68zm37.57-3.22l-17.17-17.17 17.17-17.18zM1350 998.58l5.53 5.53.18.18 31.53 31.54 2.87 2.87 2.84 2.84 44.23-44.24-2.84-2.83-2.87-2.87-31.53-31.54-.18-.18-5.53-5.53zm41.13-29.7V995H1365zm0 34.22v25.19l-25.19-25.19zm8.07 20.77v-20.77h20.8zm24.29-28.87h-24.29v-24.26zM1440.32 40v60.74h62.55V40zm50.08 8.07l-18.49 18.5-18.5-18.5zm-24.2 24.21l-17.81 17.81V54.47zm-9 20.39L1471.91 78l14.68 14.68zm37.57-3.22l-17.17-17.17 17.17-17.18zM1428 158.58l5.53 5.53.18.18 31.53 31.54 2.87 2.87 2.84 2.84 44.23-44.24-2.84-2.83-2.87-2.87-31.53-31.54-.18-.18-5.53-5.53zm41.13-29.7V155H1443zm0 34.22v25.19l-25.19-25.19zm8.07 20.77V163.1h20.8zm24.29-28.87h-24.29v-24.26zM1440.32 216v60.74h62.55V216zm50.08 8.07l-18.49 18.5-18.5-18.5zm-24.2 24.21l-17.81 17.81v-35.62zm-9 20.39l14.71-14.67 14.68 14.68zm37.57-3.22l-17.17-17.17 17.17-17.18zM1428 334.58l5.53 5.53.18.18 31.53 31.54 2.87 2.87 2.84 2.84 44.23-44.24-2.84-2.83-2.87-2.87-31.53-31.54-.18-.18-5.53-5.53zm41.13-29.7V331H1443zm0 34.22v25.19l-25.19-25.19zm8.07 20.77V339.1h20.8zm24.29-28.87h-24.29v-24.26zM1440.32 392v60.74h62.55V392zm50.08 8.07l-18.49 18.5-18.5-18.5zm-24.2 24.21l-17.81 17.81v-35.62zm-9 20.39l14.71-14.67 14.68 14.68zm37.57-3.22l-17.17-17.17 17.17-17.18zM1428 510.58l5.53 5.53.18.18 31.53 31.54 2.87 2.87 2.84 2.84 44.23-44.24-2.84-2.83-2.87-2.87-31.53-31.54-.18-.18-5.53-5.53zm41.13-29.7V507H1443zm0 34.22v25.19l-25.19-25.19zm8.07 20.77V515.1h20.8zm24.29-28.87h-24.29v-24.26zM1440.32 568v60.74h62.55V568zm50.08 8.07l-18.49 18.5-18.5-18.5zm-24.2 24.21l-17.81 17.81v-35.62zm-9 20.39l14.71-14.67 14.68 14.68zm37.57-3.22l-17.17-17.17 17.17-17.18zM1428 686.58l5.53 5.53.18.18 31.53 31.54 2.87 2.87 2.84 2.84 44.23-44.24-2.84-2.83-2.87-2.87-31.53-31.54-.18-.18-5.53-5.53zm41.13-29.7V683H1443zm0 34.22v25.19l-25.19-25.19zm8.07 20.77V691.1h20.8zm24.29-28.87h-24.29v-24.26zM1440.32 744v60.74h62.55V744zm50.08 8.07l-18.49 18.5-18.5-18.5zm-24.2 24.21l-17.81 17.81v-35.62zm-9 20.39l14.71-14.67 14.68 14.68zm37.57-3.22l-17.17-17.17 17.17-17.18zM1428 862.58l5.53 5.53.18.18 31.53 31.54 2.87 2.87 2.84 2.84 44.23-44.24-2.84-2.83-2.87-2.87-31.53-31.54-.18-.18-5.53-5.53zm41.13-29.7V859H1443zm0 34.22v25.19l-25.19-25.19zm8.07 20.77V867.1h20.8zm24.29-28.87h-24.29v-24.26zM1440.32 920v60.74h62.55V920zm50.08 8.07l-18.49 18.5-18.5-18.5zm-24.2 24.21l-17.81 17.81v-35.62zm-9 20.39l14.71-14.67 14.68 14.68zm37.57-3.22l-17.17-17.17 17.17-17.18zM1428 1038.58l5.53 5.53.18.18 31.53 31.54 2.87 2.87 2.84 2.84 44.23-44.24-2.84-2.83-2.87-2.87-31.53-31.54-.18-.18-5.53-5.53zm41.13-29.7V1035H1443zm0 34.22v25.19l-25.19-25.19zm8.07 20.77v-20.77h20.8zm24.29-28.84h-24.29v-24.29zM1512.32 0v60.74h62.55V0zm50.08 8.07l-18.49 18.5-18.5-18.5zm-24.2 24.21l-17.81 17.81V14.47zm-9 20.39L1543.91 38l14.68 14.68zm37.57-3.22l-17.17-17.17 17.17-17.18zM1500 118.58l5.53 5.53.18.18 31.53 31.54 2.87 2.87 2.84 2.84 44.23-44.24-2.84-2.83-2.87-2.87-31.53-31.54-.18-.18-5.53-5.53zm41.13-29.7V115H1515zm0 34.22v25.19l-25.19-25.19zm8.07 20.77V123.1h20.8zm24.29-28.87h-24.29V90.74zM1512.32 176v60.74h62.55V176zm50.08 8.07l-18.49 18.5-18.5-18.5zm-24.2 24.21l-17.81 17.81v-35.62zm-9 20.39l14.71-14.67 14.68 14.68zm37.57-3.22l-17.17-17.17 17.17-17.18zM1500 294.58l5.53 5.53.18.18 31.53 31.54 2.87 2.87 2.84 2.84 44.23-44.24-2.84-2.83-2.87-2.87-31.53-31.54-.18-.18-5.53-5.53zm41.13-29.7V291H1515zm0 34.22v25.19l-25.19-25.19zm8.07 20.77V299.1h20.8zm24.29-28.87h-24.29v-24.26zM1512.32 352v60.74h62.55V352zm50.08 8.07l-18.49 18.5-18.5-18.5zm-24.2 24.21l-17.81 17.81v-35.62zm-9 20.39l14.71-14.67 14.68 14.68zm37.57-3.22l-17.17-17.17 17.17-17.18zM1500 470.58l5.53 5.53.18.18 31.53 31.54 2.87 2.87 2.84 2.84 44.23-44.24-2.84-2.83-2.87-2.87-31.53-31.54-.18-.18-5.53-5.53zm41.13-29.7V467H1515zm0 34.22v25.19l-25.19-25.19zm8.07 20.77V475.1h20.8zm24.29-28.87h-24.29v-24.26zM1512.32 528v60.74h62.55V528zm50.08 8.07l-18.49 18.5-18.5-18.5zm-24.2 24.21l-17.81 17.81v-35.62zm-9 20.39l14.71-14.67 14.68 14.68zm37.57-3.22l-17.17-17.17 17.17-17.18zM1500 646.58l5.53 5.53.18.18 31.53 31.54 2.87 2.87 2.84 2.84 44.23-44.24-2.84-2.83-2.87-2.87-31.53-31.54-.18-.18-5.53-5.53zm41.13-29.7V643H1515zm0 34.22v25.19l-25.19-25.19zm8.07 20.77V651.1h20.8zm24.29-28.87h-24.29v-24.26zM1512.32 704v60.74h62.55V704zm50.08 8.07l-18.49 18.5-18.5-18.5zm-24.2 24.21l-17.81 17.81v-35.62zm-9 20.39l14.71-14.67 14.68 14.68zm37.57-3.22l-17.17-17.17 17.17-17.18zM1500 822.58l5.53 5.53.18.18 31.53 31.54 2.87 2.87 2.84 2.84 44.23-44.24-2.84-2.83-2.87-2.87-31.53-31.54-.18-.18-5.53-5.53zm41.13-29.7V819H1515zm0 34.22v25.19l-25.19-25.19zm8.07 20.77V827.1h20.8zm24.29-28.87h-24.29v-24.26zM1512.32 880v60.74h62.55V880zm50.08 8.07l-18.49 18.5-18.5-18.5zm-24.2 24.21l-17.81 17.81v-35.62zm-9 20.39l14.71-14.67 14.68 14.68zm37.57-3.22l-17.17-17.17 17.17-17.18zM1500 998.58l5.53 5.53.18.18 31.53 31.54 2.87 2.87 2.84 2.84 44.23-44.24-2.84-2.83-2.87-2.87-31.53-31.54-.18-.18-5.53-5.53zm41.13-29.7V995H1515zm0 34.22v25.19l-25.19-25.19zm8.07 20.77v-20.77h20.8zm24.29-28.87h-24.29v-24.26zM1590.32 40v60.74h62.55V40zm50.08 8.07l-18.49 18.5-18.5-18.5zm-24.2 24.21l-17.81 17.81V54.47zm-9 20.39L1621.91 78l14.68 14.68zm37.57-3.22l-17.17-17.17 17.17-17.18zM1578 158.58l5.53 5.53.18.18 31.53 31.54 2.87 2.87 2.84 2.84 44.23-44.24-2.84-2.83-2.87-2.87-31.53-31.54-.18-.18-5.53-5.53zm41.13-29.7V155H1593zm0 34.22v25.19l-25.19-25.19zm8.07 20.77V163.1h20.8zm24.29-28.87h-24.29v-24.26zM1590.32 216v60.74h62.55V216zm50.08 8.07l-18.49 18.5-18.5-18.5zm-24.2 24.21l-17.81 17.81v-35.62zm-9 20.39l14.71-14.67 14.68 14.68zm37.57-3.22l-17.17-17.17 17.17-17.18zM1578 334.58l5.53 5.53.18.18 31.53 31.54 2.87 2.87 2.84 2.84 44.23-44.24-2.84-2.83-2.87-2.87-31.53-31.54-.18-.18-5.53-5.53zm41.13-29.7V331H1593zm0 34.22v25.19l-25.19-25.19zm8.07 20.77V339.1h20.8zm24.29-28.87h-24.29v-24.26zM1590.32 392v60.74h62.55V392zm50.08 8.07l-18.49 18.5-18.5-18.5zm-24.2 24.21l-17.81 17.81v-35.62zm-9 20.39l14.71-14.67 14.68 14.68zm37.57-3.22l-17.17-17.17 17.17-17.18zM1578 510.58l5.53 5.53.18.18 31.53 31.54 2.87 2.87 2.84 2.84 44.23-44.24-2.84-2.83-2.87-2.87-31.53-31.54-.18-.18-5.53-5.53zm41.13-29.7V507H1593zm0 34.22v25.19l-25.19-25.19zm8.07 20.77V515.1h20.8zm24.29-28.87h-24.29v-24.26zM1590.32 568v60.74h62.55V568zm50.08 8.07l-18.49 18.5-18.5-18.5zm-24.2 24.21l-17.81 17.81v-35.62zm-9 20.39l14.71-14.67 14.68 14.68zm37.57-3.22l-17.17-17.17 17.17-17.18zM1578 686.58l5.53 5.53.18.18 31.53 31.54 2.87 2.87 2.84 2.84 44.23-44.24-2.84-2.83-2.87-2.87-31.53-31.54-.18-.18-5.53-5.53zm41.13-29.7V683H1593zm0 34.22v25.19l-25.19-25.19zm8.07 20.77V691.1h20.8zm24.29-28.87h-24.29v-24.26zM1590.32 744v60.74h62.55V744zm50.08 8.07l-18.49 18.5-18.5-18.5zm-24.2 24.21l-17.81 17.81v-35.62zm-9 20.39l14.71-14.67 14.68 14.68zm37.57-3.22l-17.17-17.17 17.17-17.18zM1578 862.58l5.53 5.53.18.18 31.53 31.54 2.87 2.87 2.84 2.84 44.23-44.24-2.84-2.83-2.87-2.87-31.53-31.54-.18-.18-5.53-5.53zm41.13-29.7V859H1593zm0 34.22v25.19l-25.19-25.19zm8.07 20.77V867.1h20.8zm24.29-28.87h-24.29v-24.26zM1590.32 920v60.74h62.55V920zm50.08 8.07l-18.49 18.5-18.5-18.5zm-24.2 24.21l-17.81 17.81v-35.62zm-9 20.39l14.71-14.67 14.68 14.68zm37.57-3.22l-17.17-17.17 17.17-17.18zM1578 1038.58l5.53 5.53.18.18 31.53 31.54 2.87 2.87 2.84 2.84 44.23-44.24-2.84-2.83-2.87-2.87-31.53-31.54-.18-.18-5.53-5.53zm41.13-29.7V1035H1593zm0 34.22v25.19l-25.19-25.19zm8.07 20.77v-20.77h20.8zm24.29-28.84h-24.29v-24.29zM1662.32 0v60.74h62.55V0zm50.08 8.07l-18.49 18.5-18.5-18.5zm-24.2 24.21l-17.81 17.81V14.47zm-9 20.39L1693.91 38l14.68 14.68zm37.57-3.22l-17.17-17.17 17.17-17.18zM1650 118.58l5.53 5.53.18.18 31.53 31.54 2.87 2.87 2.84 2.84 44.23-44.24-2.84-2.83-2.87-2.87-31.53-31.54-.18-.18-5.53-5.53zm41.13-29.7V115H1665zm0 34.22v25.19l-25.19-25.19zm8.07 20.77V123.1h20.8zm24.29-28.87h-24.29V90.74zM1662.32 176v60.74h62.55V176zm50.08 8.07l-18.49 18.5-18.5-18.5zm-24.2 24.21l-17.81 17.81v-35.62zm-9 20.39l14.71-14.67 14.68 14.68zm37.57-3.22l-17.17-17.17 17.17-17.18zM1650 294.58l5.53 5.53.18.18 31.53 31.54 2.87 2.87 2.84 2.84 44.23-44.24-2.84-2.83-2.87-2.87-31.53-31.54-.18-.18-5.53-5.53zm41.13-29.7V291H1665zm0 34.22v25.19l-25.19-25.19zm8.07 20.77V299.1h20.8zm24.29-28.87h-24.29v-24.26zM1662.32 352v60.74h62.55V352zm50.08 8.07l-18.49 18.5-18.5-18.5zm-24.2 24.21l-17.81 17.81v-35.62zm-9 20.39l14.71-14.67 14.68 14.68zm37.57-3.22l-17.17-17.17 17.17-17.18zM1650 470.58l5.53 5.53.18.18 31.53 31.54 2.87 2.87 2.84 2.84 44.23-44.24-2.84-2.83-2.87-2.87-31.53-31.54-.18-.18-5.53-5.53zm41.13-29.7V467H1665zm0 34.22v25.19l-25.19-25.19zm8.07 20.77V475.1h20.8zm24.29-28.87h-24.29v-24.26zM1662.32 528v60.74h62.55V528zm50.08 8.07l-18.49 18.5-18.5-18.5zm-24.2 24.21l-17.81 17.81v-35.62zm-9 20.39l14.71-14.67 14.68 14.68zm37.57-3.22l-17.17-17.17 17.17-17.18zM1650 646.58l5.53 5.53.18.18 31.53 31.54 2.87 2.87 2.84 2.84 44.23-44.24-2.84-2.83-2.87-2.87-31.53-31.54-.18-.18-5.53-5.53zm41.13-29.7V643H1665zm0 34.22v25.19l-25.19-25.19zm8.07 20.77V651.1h20.8zm24.29-28.87h-24.29v-24.26zM1662.32 704v60.74h62.55V704zm50.08 8.07l-18.49 18.5-18.5-18.5zm-24.2 24.21l-17.81 17.81v-35.62zm-9 20.39l14.71-14.67 14.68 14.68zm37.57-3.22l-17.17-17.17 17.17-17.18zM1650 822.58l5.53 5.53.18.18 31.53 31.54 2.87 2.87 2.84 2.84 44.23-44.24-2.84-2.83-2.87-2.87-31.53-31.54-.18-.18-5.53-5.53zm41.13-29.7V819H1665zm0 34.22v25.19l-25.19-25.19zm8.07 20.77V827.1h20.8zm24.29-28.87h-24.29v-24.26zM1662.32 880v60.74h62.55V880zm50.08 8.07l-18.49 18.5-18.5-18.5zm-24.2 24.21l-17.81 17.81v-35.62zm-9 20.39l14.71-14.67 14.68 14.68zm37.57-3.22l-17.17-17.17 17.17-17.18zM1650 998.58l5.53 5.53.18.18 31.53 31.54 2.87 2.87 2.84 2.84 44.23-44.24-2.84-2.83-2.87-2.87-31.53-31.54-.18-.18-5.53-5.53zm41.13-29.7V995H1665zm0 34.22v25.19l-25.19-25.19zm8.07 20.77v-20.77h20.8zm24.29-28.87h-24.29v-24.26zM1740.32 40v60.74h62.55V40zm50.08 8.07l-18.49 18.5-18.5-18.5zm-24.2 24.21l-17.81 17.81V54.47zm-9 20.39L1771.91 78l14.68 14.68zm37.57-3.22l-17.17-17.17 17.17-17.18zM1728 158.58l5.53 5.53.18.18 31.53 31.54 2.87 2.87 2.84 2.84 44.23-44.24-2.84-2.83-2.87-2.87-31.53-31.54-.18-.18-5.53-5.53zm41.13-29.7V155H1743zm0 34.22v25.19l-25.19-25.19zm8.07 20.77V163.1h20.8zm24.29-28.87h-24.29v-24.26zM1740.32 216v60.74h62.55V216zm50.08 8.07l-18.49 18.5-18.5-18.5zm-24.2 24.21l-17.81 17.81v-35.62zm-9 20.39l14.71-14.67 14.68 14.68zm37.57-3.22l-17.17-17.17 17.17-17.18zM1728 334.58l5.53 5.53.18.18 31.53 31.54 2.87 2.87 2.84 2.84 44.23-44.24-2.84-2.83-2.87-2.87-31.53-31.54-.18-.18-5.53-5.53zm41.13-29.7V331H1743zm0 34.22v25.19l-25.19-25.19zm8.07 20.77V339.1h20.8zm24.29-28.87h-24.29v-24.26zM1740.32 392v60.74h62.55V392zm50.08 8.07l-18.49 18.5-18.5-18.5zm-24.2 24.21l-17.81 17.81v-35.62zm-9 20.39l14.71-14.67 14.68 14.68zm37.57-3.22l-17.17-17.17 17.17-17.18zM1728 510.58l5.53 5.53.18.18 31.53 31.54 2.87 2.87 2.84 2.84 44.23-44.24-2.84-2.83-2.87-2.87-31.53-31.54-.18-.18-5.53-5.53zm41.13-29.7V507H1743zm0 34.22v25.19l-25.19-25.19zm8.07 20.77V515.1h20.8zm24.29-28.87h-24.29v-24.26zM1740.32 568v60.74h62.55V568zm50.08 8.07l-18.49 18.5-18.5-18.5zm-24.2 24.21l-17.81 17.81v-35.62zm-9 20.39l14.71-14.67 14.68 14.68zm37.57-3.22l-17.17-17.17 17.17-17.18zM1728 686.58l5.53 5.53.18.18 31.53 31.54 2.87 2.87 2.84 2.84 44.23-44.24-2.84-2.83-2.87-2.87-31.53-31.54-.18-.18-5.53-5.53zm41.13-29.7V683H1743zm0 34.22v25.19l-25.19-25.19zm8.07 20.77V691.1h20.8zm24.29-28.87h-24.29v-24.26zM1740.32 744v60.74h62.55V744zm50.08 8.07l-18.49 18.5-18.5-18.5zm-24.2 24.21l-17.81 17.81v-35.62zm-9 20.39l14.71-14.67 14.68 14.68zm37.57-3.22l-17.17-17.17 17.17-17.18zM1728 862.58l5.53 5.53.18.18 31.53 31.54 2.87 2.87 2.84 2.84 44.23-44.24-2.84-2.83-2.87-2.87-31.53-31.54-.18-.18-5.53-5.53zm41.13-29.7V859H1743zm0 34.22v25.19l-25.19-25.19zm8.07 20.77V867.1h20.8zm24.29-28.87h-24.29v-24.26zM1740.32 920v60.74h62.55V920zm50.08 8.07l-18.49 18.5-18.5-18.5zm-24.2 24.21l-17.81 17.81v-35.62zm-9 20.39l14.71-14.67 14.68 14.68zm37.57-3.22l-17.17-17.17 17.17-17.18zM1728 1038.58l5.53 5.53.18.18 31.53 31.54 2.87 2.87 2.84 2.84 44.23-44.24-2.84-2.83-2.87-2.87-31.53-31.54-.18-.18-5.53-5.53zm41.13-29.7V1035H1743zm0 34.22v25.19l-25.19-25.19zm8.07 20.77v-20.77h20.8zm24.29-28.84h-24.29v-24.29z"/></svg>