<svg id="Layer_2" data-name="Layer 2" xmlns="http://www.w3.org/2000/svg" viewBox="0 0 1664.67 1084.19"><defs><style>.cls-1{fill:#231f20}</style></defs><path class="cls-1" d="M0 0h41.4v234.61H0zM0 552.01h41.4v234.61H0zM0 263.93h41.4v39.68H0zM0 337.25h41.4v39.68H0zM0 410.56h41.4v39.68H0zM0 483.87h41.4v39.68H0zM0 824.57h41.4v39.68H0zM0 897.88h41.4v39.68H0zM0 971.2h41.4v39.68H0zM0 1044.51h41.4v39.68H0zM69 0h41.4v234.61H69zM69 552.01h41.4v234.61H69zM69 263.93h41.4v39.68H69zM69 337.25h41.4v39.68H69zM69 410.56h41.4v39.68H69zM69 483.87h41.4v39.68H69zM69 824.57h41.4v39.68H69zM69 897.88h41.4v39.68H69zM69 971.2h41.4v39.68H69zM69 1044.51h41.4v39.68H69zM138 0h41.4v234.61H138zM138 552.01h41.4v234.61H138zM138 263.93h41.4v39.68H138zM138 337.25h41.4v39.68H138zM138 410.56h41.4v39.68H138zM138 483.87h41.4v39.68H138zM138 824.57h41.4v39.68H138zM138 897.88h41.4v39.68H138zM138 971.2h41.4v39.68H138zM138 1044.51h41.4v39.68H138zM207 0h41.4v234.61H207zM207 552.01h41.4v234.61H207zM207 263.93h41.4v39.68H207zM207 337.25h41.4v39.68H207zM207 410.56h41.4v39.68H207zM207 483.87h41.4v39.68H207zM281.18 289.81h41.4v234.61h-41.4zM281.18 1.73h41.4v39.68h-41.4zM281.18 75.04h41.4v39.68h-41.4zM281.18 148.35h41.4v39.68h-41.4zM281.18 221.67h41.4v39.68h-41.4zM350.18 289.81h41.4v234.61h-41.4zM350.18 1.73h41.4v39.68h-41.4zM350.18 75.04h41.4v39.68h-41.4zM350.18 148.35h41.4v39.68h-41.4zM350.18 221.67h41.4v39.68h-41.4zM419.19 289.81h41.4v234.61h-41.4zM419.19 1.73h41.4v39.68h-41.4zM419.19 75.04h41.4v39.68h-41.4zM419.19 148.35h41.4v39.68h-41.4zM419.19 221.67h41.4v39.68h-41.4zM488.19 289.81h41.4v234.61h-41.4zM488.19 1.73h41.4v39.68h-41.4zM488.19 75.04h41.4v39.68h-41.4zM488.19 148.35h41.4v39.68h-41.4zM488.19 221.67h41.4v39.68h-41.4zM281.18 841.82h41.4v234.61h-41.4zM281.18 553.74h41.4v39.68h-41.4zM281.18 627.05h41.4v39.68h-41.4zM281.18 700.37h41.4v39.68h-41.4zM281.18 773.68h41.4v39.68h-41.4zM350.18 841.82h41.4v234.61h-41.4zM350.18 553.74h41.4v39.68h-41.4zM350.18 627.05h41.4v39.68h-41.4zM350.18 700.37h41.4v39.68h-41.4zM350.18 773.68h41.4v39.68h-41.4zM419.19 841.82h41.4v234.61h-41.4zM419.19 553.74h41.4v39.68h-41.4zM419.19 627.05h41.4v39.68h-41.4zM419.19 700.37h41.4v39.68h-41.4zM419.19 773.68h41.4v39.68h-41.4zM488.19 841.82h41.4v234.61h-41.4zM488.19 553.74h41.4v39.68h-41.4zM488.19 627.05h41.4v39.68h-41.4zM488.19 700.37h41.4v39.68h-41.4zM488.19 773.68h41.4v39.68h-41.4zM207 824.57h41.4v39.68H207zM207 897.88h41.4v39.68H207zM207 971.2h41.4v39.68H207zM207 1044.51h41.4v39.68H207zM567.54 0h41.4v234.61h-41.4zM567.54 552.01h41.4v234.61h-41.4zM567.54 263.93h41.4v39.68h-41.4zM567.54 337.25h41.4v39.68h-41.4zM567.54 410.56h41.4v39.68h-41.4zM567.54 483.87h41.4v39.68h-41.4zM567.54 824.57h41.4v39.68h-41.4zM567.54 897.88h41.4v39.68h-41.4zM567.54 971.2h41.4v39.68h-41.4zM567.54 1044.51h41.4v39.68h-41.4zM636.54 0h41.4v234.61h-41.4zM636.54 552.01h41.4v234.61h-41.4zM636.54 263.93h41.4v39.68h-41.4zM636.54 337.25h41.4v39.68h-41.4zM636.54 410.56h41.4v39.68h-41.4zM636.54 483.87h41.4v39.68h-41.4zM636.54 824.57h41.4v39.68h-41.4zM636.54 897.88h41.4v39.68h-41.4zM636.54 971.2h41.4v39.68h-41.4zM636.54 1044.51h41.4v39.68h-41.4zM705.54 0h41.4v234.61h-41.4zM705.54 552.01h41.4v234.61h-41.4zM705.54 263.93h41.4v39.68h-41.4zM705.54 337.25h41.4v39.68h-41.4zM705.54 410.56h41.4v39.68h-41.4zM705.54 483.87h41.4v39.68h-41.4zM705.54 824.57h41.4v39.68h-41.4zM705.54 897.88h41.4v39.68h-41.4zM705.54 971.2h41.4v39.68h-41.4zM705.54 1044.51h41.4v39.68h-41.4zM774.54 0h41.4v234.61h-41.4zM774.54 552.01h41.4v234.61h-41.4zM774.54 263.93h41.4v39.68h-41.4zM774.54 337.25h41.4v39.68h-41.4zM774.54 410.56h41.4v39.68h-41.4zM774.54 483.87h41.4v39.68h-41.4zM848.72 289.81h41.4v234.61h-41.4zM848.72 1.73h41.4v39.68h-41.4zM848.72 75.04h41.4v39.68h-41.4zM848.72 148.35h41.4v39.68h-41.4zM848.72 221.67h41.4v39.68h-41.4zM917.72 289.81h41.4v234.61h-41.4zM917.72 1.73h41.4v39.68h-41.4zM917.72 75.04h41.4v39.68h-41.4zM917.72 148.35h41.4v39.68h-41.4zM917.72 221.67h41.4v39.68h-41.4zM986.72 289.81h41.4v234.61h-41.4zM986.72 1.73h41.4v39.68h-41.4zM986.72 75.04h41.4v39.68h-41.4zM986.72 148.35h41.4v39.68h-41.4zM986.72 221.67h41.4v39.68h-41.4zM1055.73 289.81h41.4v234.61h-41.4zM1055.73 1.73h41.4v39.68h-41.4zM1055.73 75.04h41.4v39.68h-41.4zM1055.73 148.35h41.4v39.68h-41.4zM1055.73 221.67h41.4v39.68h-41.4zM848.72 841.82h41.4v234.61h-41.4zM848.72 553.74h41.4v39.68h-41.4zM848.72 627.05h41.4v39.68h-41.4zM848.72 700.37h41.4v39.68h-41.4zM848.72 773.68h41.4v39.68h-41.4zM917.72 841.82h41.4v234.61h-41.4zM917.72 553.74h41.4v39.68h-41.4zM917.72 627.05h41.4v39.68h-41.4zM917.72 700.37h41.4v39.68h-41.4zM917.72 773.68h41.4v39.68h-41.4zM986.72 841.82h41.4v234.61h-41.4zM986.72 553.74h41.4v39.68h-41.4zM986.72 627.05h41.4v39.68h-41.4zM986.72 700.37h41.4v39.68h-41.4zM986.72 773.68h41.4v39.68h-41.4zM1055.73 841.82h41.4v234.61h-41.4zM1055.73 553.74h41.4v39.68h-41.4zM1055.73 627.05h41.4v39.68h-41.4zM1055.73 700.37h41.4v39.68h-41.4zM1055.73 773.68h41.4v39.68h-41.4zM774.54 824.57h41.4v39.68h-41.4zM774.54 897.88h41.4v39.68h-41.4zM774.54 971.2h41.4v39.68h-41.4zM774.54 1044.51h41.4v39.68h-41.4zM1135.08 0h41.4v234.61h-41.4zM1135.08 552.01h41.4v234.61h-41.4zM1135.08 263.93h41.4v39.68h-41.4zM1135.08 337.25h41.4v39.68h-41.4zM1135.08 410.56h41.4v39.68h-41.4zM1135.08 483.87h41.4v39.68h-41.4zM1135.08 824.57h41.4v39.68h-41.4zM1135.08 897.88h41.4v39.68h-41.4zM1135.08 971.2h41.4v39.68h-41.4zM1135.08 1044.51h41.4v39.68h-41.4zM1204.08 0h41.4v234.61h-41.4zM1204.08 552.01h41.4v234.61h-41.4zM1204.08 263.93h41.4v39.68h-41.4zM1204.08 337.25h41.4v39.68h-41.4zM1204.08 410.56h41.4v39.68h-41.4zM1204.08 483.87h41.4v39.68h-41.4zM1204.08 824.57h41.4v39.68h-41.4zM1204.08 897.88h41.4v39.68h-41.4zM1204.08 971.2h41.4v39.68h-41.4zM1204.08 1044.51h41.4v39.68h-41.4zM1273.08 0h41.4v234.61h-41.4zM1273.08 552.01h41.4v234.61h-41.4zM1273.08 263.93h41.4v39.68h-41.4zM1273.08 337.25h41.4v39.68h-41.4zM1273.08 410.56h41.4v39.68h-41.4zM1273.08 483.87h41.4v39.68h-41.4zM1273.08 824.57h41.4v39.68h-41.4zM1273.08 897.88h41.4v39.68h-41.4zM1273.08 971.2h41.4v39.68h-41.4zM1273.08 1044.51h41.4v39.68h-41.4zM1342.08 0h41.4v234.61h-41.4zM1342.08 552.01h41.4v234.61h-41.4zM1342.08 263.93h41.4v39.68h-41.4zM1342.08 337.25h41.4v39.68h-41.4zM1342.08 410.56h41.4v39.68h-41.4zM1342.08 483.87h41.4v39.68h-41.4zM1416.26 289.81h41.4v234.61h-41.4zM1416.26 1.73h41.4v39.68h-41.4zM1416.26 75.04h41.4v39.68h-41.4zM1416.26 148.35h41.4v39.68h-41.4zM1416.26 221.67h41.4v39.68h-41.4zM1485.26 289.81h41.4v234.61h-41.4zM1485.26 1.73h41.4v39.68h-41.4zM1485.26 75.04h41.4v39.68h-41.4zM1485.26 148.35h41.4v39.68h-41.4zM1485.26 221.67h41.4v39.68h-41.4zM1554.26 289.81h41.4v234.61h-41.4zM1554.26 1.73h41.4v39.68h-41.4zM1554.26 75.04h41.4v39.68h-41.4zM1554.26 148.35h41.4v39.68h-41.4zM1554.26 221.67h41.4v39.68h-41.4zM1623.26 289.81h41.4v234.61h-41.4zM1623.26 1.73h41.4v39.68h-41.4zM1623.26 75.04h41.4v39.68h-41.4zM1623.26 148.35h41.4v39.68h-41.4zM1623.26 221.67h41.4v39.68h-41.4zM1416.26 841.82h41.4v234.61h-41.4zM1416.26 553.74h41.4v39.68h-41.4zM1416.26 627.05h41.4v39.68h-41.4zM1416.26 700.37h41.4v39.68h-41.4zM1416.26 773.68h41.4v39.68h-41.4zM1485.26 841.82h41.4v234.61h-41.4zM1485.26 553.74h41.4v39.68h-41.4zM1485.26 627.05h41.4v39.68h-41.4zM1485.26 700.37h41.4v39.68h-41.4zM1485.26 773.68h41.4v39.68h-41.4zM1554.26 841.82h41.4v234.61h-41.4zM1554.26 553.74h41.4v39.68h-41.4zM1554.26 627.05h41.4v39.68h-41.4zM1554.26 700.37h41.4v39.68h-41.4zM1554.26 773.68h41.4v39.68h-41.4zM1623.26 841.82h41.4v234.61h-41.4zM1623.26 553.74h41.4v39.68h-41.4zM1623.26 627.05h41.4v39.68h-41.4zM1623.26 700.37h41.4v39.68h-41.4zM1623.26 773.68h41.4v39.68h-41.4zM1342.08 824.57h41.4v39.68h-41.4zM1342.08 897.88h41.4v39.68h-41.4zM1342.08 971.2h41.4v39.68h-41.4zM1342.08 1044.51h41.4v39.68h-41.4z"/></svg>