<svg data-name="Layer 2" xmlns="http://www.w3.org/2000/svg" viewBox="0 0 1675.13 1019.44"><path d="M1673.29 860.73v-5.15l1.84-1.84-1.84-1.84v-20.43h-53.45l-63-63 66.45-66.47h50v-29.23h-44V524.35h44v-20.43l1.84-1.84-1.84-1.84v-5.15h-5.15l-64.72-64.73 64.72-64.71h5.15v-5.16l1.84-1.84-1.84-1.84v-20.43h-53.45l-63-63 66.45-66.45h50v-29.25h-44V29.26h44V0H0v29.26h30.22v148.42H0v29.26h15.5L82 273.39l-63 63H0v29.27h30.78l.15.14.14-.14h43.15l-44 44-20.72 20.7 20.69 20.7 44 44H0v29.26h30.22v148.45H0V702h15.5L82 768.47l-63 63H0v29.26h30.78l.15.15.14-.15h43.15l-44 44L9.5 925.45l20.69 20.69 44 44H0v29.27h1673.29V999l1.84-1.83-1.84-1.84v-5.16h-5.15l-64.72-64.72 64.72-64.72zm-94.84-29.26h-84.61l42.31-42.31zM144.9 618.39l54.38 54.38H90.52zm-85.42 44V533l64.73 64.73zm165.65-389l-50.9 50.89-50.9-50.89 50.9-50.9zM90.52 177.68l54.38-54.38 54.38 54.38zm915.22 158.7h-84.61l42.31-42.3zm-88.06-129.44h91.51l-45.75 45.76zm578.79 244.12l44 44h-44.87l-64.72-64.73 64.72-64.71h44.87l-44 44-20.69 20.69zM323.41 524.35h33.27v148.42h-33.27zM386 533l64.73 64.73-64.73 64.7zm48.75 169L389 747.78 343.24 702zM417 672.77l54.38-54.38 54.38 54.38zm75.07-75.07l63-63v126zM577.93 702l-45.76 45.75L486.42 702zM471.37 577l-52.66-52.65H524zm335.09-125.94l44 44h-44.84l-64.72-64.7 64.72-64.71h44.86l-44 44-20.7 20.69zm-86.26-41.39l-20.69 20.69 20.69 20.7 44 44h-44.84l-64.72-64.73 64.72-64.71h27.32l.14.14.12-.12.12.12.15-.14h17zm-86.25 0l-20.69 20.69 20.74 20.7 44 44h-44.89l-64.72-64.73 64.72-64.71H678zm-86.25 0L527 430.36l20.69 20.7 44 44h-44.83l-64.72-64.73 64.72-64.71h44.87zm-86.25 0l-20.69 20.69 20.69 20.7 44 44h-44.84l-64.72-64.73 64.7-64.69.12.12.14-.14h44.63zm122.88 114.68h36.29v148.42h-36.29zm98.82 0v148.42h-33.27V524.35zm38 177.68l-45.76 45.75L629.6 702zm-8.7-39.6V533l64.73 64.73zm85.42-44l54.38 54.38h-108.8zM864.29 702l-45.76 45.75L772.78 702zm-45.77-104.3l63-63v126zM797.83 577l-52.65-52.65h105.31zm113-52.65h36.29v148.42h-36.33zM1009.19 702l-45.75 45.75L917.68 702zm-32.85-29.26V524.35h33.27v148.42zm433.88-221.71l44 44h-44.87l-64.72-64.73 64.72-64.71h44.87l-44 44-20.69 20.69zM1324 409.67l-20.69 20.69 20.69 20.7 44 44h-44.87l-64.72-64.73 64.72-64.71H1368zm-86.25 0L1217 430.36l20.7 20.7 44 44h-44.87l-64.72-64.73 64.72-64.71h44.87zm-86.26 0l-20.69 20.69 20.69 20.7 44 44h-44.88l-64.72-64.73 64.72-64.71h27.32l.14.14.12-.12.13.12.14-.14h17zM1177 524.35L1124.3 577l-52.66-52.65zM1038.88 533l64.72 64.73-64.73 64.73zm31 139.8l54.38-54.38 54.38 54.38zm82.49 29.2l-45.76 45.75-45.75-45.75zM1145 597.7l63-63v126zM1295.55 702l-45.76 45.75L1204 702zm-22-29.26h-36.29V524.35h36.29zm29.27-148.42h33.27v148.45h-33.27zm62.53 8.62l64.73 64.73-64.73 64.73zM1438.72 702L1393 747.78 1347.22 702zm-42.34-29.26l54.38-54.38 54.38 54.38zm75.07-75.07l63-63v126zM1450.76 577l-52.65-52.65h105.3zm-37.1-303.61l50.9-50.9 50.9 50.9-50.9 50.89zm21.62 63h-84.62l42.31-42.3zm-113.9-12.1l-50.9-50.89 50.9-50.9 50.9 50.9zm-29.28 12.1h-84.61l42.3-42.3zm-113.9-12.1l-50.9-50.89 50.9-50.9 50.9 50.9zm-108.28-146.6l54.38-54.38 54.38 54.38zm82.45 29.26l-45.76 45.76-45.75-45.76zm-3.45 129.44h-84.61l42.3-42.3zm-84.55 29.27h44.87l-44 44-20.69 20.69 20.69 20.7 44 44h-44.87l-64.72-64.73zm-85.41 44l-20.69 20.69L979 451.06l44 44h-44.88l-64.72-64.7 64.72-64.71H1023zm-42.22-44l-44 44-20.74 20.7 20.69 20.7 44 44h-44.82l-64.72-64.73 64.72-64.71zm-160.51-29.28l42.3-42.3 42.31 42.3zm-3.45-129.44h91.51l-45.76 45.76zm-29.33-29.26l54.38-54.38 54.38 54.38zm3.49 44.81l50.9 50.9-50.9 50.89L696 273.39zm-29.28 113.89h-84.61l42.3-42.3zm-113.9-12.1l-50.89-50.89 50.89-50.9 50.9 50.9zm-29.28 12.1h-84.61l42.3-42.3zm-113.89-12.1l-50.9-50.89 50.9-50.9 50.89 50.9zm-25.84-117.34L389 252.7l-45.76-45.76zM417 177.68l54.38-54.38 54.38 54.38zm14.31 158.7h-84.62l42.31-42.3zm-56.94 29.27h44.86l-44 44-20.7 20.69 20.7 20.7 44 44h-44.87l-64.73-64.73zm-85.42 44l-20.69 20.69 20.69 20.7 44 44H288.1l-64.72-64.73 64.72-64.71h29l.14.14.13-.12.12.12.14-.14H333zm-85.43-73.29l42.31-42.3 42.3 42.3zm-3.45-129.44h91.51l-45.76 45.78zm1.79 158.71h44.87l-44 44L182 430.36l20.69 20.7 44 44h-44.84l-64.72-64.73zm92.3 158.7v148.44h-36.3V524.35zM291.57 702l-45.75 45.75L200.06 702zm-63-41.33l-63-63 63-63zm-3.47 107.77l-50.9 50.9-50.9-50.9 50.9-50.89zm20.69 20.69l42.3 42.31h-84.58zm20.69-20.69l50.9-50.89 50.89 50.89-50.89 50.9zM389 789.16l42.3 42.31h-84.61zm20.69-20.69l50.9-50.89 50.89 50.89-50.89 50.9zm122.48 20.69l42.31 42.31h-84.61zm20.7-20.69l50.89-50.89 50.9 50.89-50.9 50.9zm122.48 20.69l42.31 42.31h-84.61zM696 768.47l50.9-50.89 50.9 50.89-50.9 50.9zm122.49 20.69l42.31 42.31h-84.57zm20.69-20.69L891 716.71l51.76 51.76L891 820.23zm124.22 20.69l42.3 42.31h-84.57zm20.69-20.69l50.91-50.89 50.9 50.89-50.9 50.9zm122.48 20.69l42.31 42.31h-84.61zm20.69-20.69l50.9-50.89 50.9 50.89-50.9 50.9zm122.49 20.69l42.31 42.31h-84.61zm20.69-20.69l50.9-50.89 50.9 50.89-50.9 50.9zM1393 789.16l42.31 42.31h-84.62zm20.69-20.69l50.9-50.89 50.9 50.89-50.9 50.9zm122.49-20.69L1490.4 702h91.5zm63.86-75h-36.29V524.35H1600zm7.71-307.12l.14.14.15-.14h18.74l-44 44-20.78 20.7 20.69 20.7 44 44h-44.88l-64.72-64.73 64.72-64.71zm-29.27-29.27h-84.61l42.31-42.3zm-42.3-83.68l-45.75-45.76h91.5zm-139.77-75l54.38-54.38 54.38 54.38zm167.31-148.45H1600v148.42h-36.29zm-29.26 136.35l-63-63 63-63zm-31-136.35l-52.65 52.66-52.65-52.66zm-138.07 8.62l64.73 64.73-64.73 64.73zm73.38 169.06L1393 252.7l-45.75-45.76zM1302.81 29.26h33.27v148.42h-33.27zm-53 223.44L1204 206.94h91.51zm-12.56-223.44h36.29v148.42h-36.29zM1208 165.61l-63-63 63-63zm-31-136.35l-52.7 52.66-52.66-52.66zm-138.07 8.62l64.72 64.73-64.73 64.73zm47 235.51L1035 324.28l-50.89-50.89 50.89-50.9zM976.34 29.26h33.27v148.42h-33.27zm-65.55 0h36.29v148.42h-36.29zm32 244.13L891 325.15l-51.76-51.76L891 221.63zm-61.26-107.78l-63-63 63-63zm-31-136.35l-52.7 52.66-52.65-52.66zm-138.12 8.62l64.73 64.73-64.73 64.73zm-62.53-8.62h33.27v148.42h-33.27zm71.23 177.68l-45.76 45.76-45.75-45.76zM584.33 29.26h36.29v148.42h-36.29zM532.17 252.7l-45.75-45.76h91.51zm22.89-87.09l-63-63 63-63zM524 29.26l-52.63 52.66-52.66-52.66zm-138 8.62l64.73 64.73L386 167.34zm-62.54-8.62h33.27v148.42h-33.32zm44.84 244.13l-50.89 50.89-50.9-50.89 50.9-50.9zM257.86 29.26h36.29v148.42h-36.29zM228.6 165.61l-63-63 63-63zm-31-136.35l-52.7 52.66-52.65-52.66zM59.48 37.88l64.73 64.73-64.73 64.73zm-2.59 169.06h91.5l-45.75 45.76zm3.44 129.44l42.31-42.3 42.3 42.3zm-9.45 94l64.72-64.71h44.87l-44 44-20.72 20.69 20.69 20.7 44 44H115.6zm146.68 94L144.9 577l-52.65-52.65zM56.89 702h91.5l-45.75 45.75zm3.44 129.44l42.31-42.31 42.3 42.31zm55.27 158.7l-64.72-64.69 64.72-64.72h44.87l-44 44-20.72 20.72 20.69 20.69 44 44zm86.25 0l-64.72-64.72 64.72-64.72h44.87l-44 44L182 925.45l20.69 20.69 44 44zm86.25 0l-64.72-64.72 64.72-64.72h29l.14.15.13-.13.12.13.14-.15H333l-44 44-20.69 20.69L289 946.08l44 44zm86.26 0l-64.73-64.72 64.73-64.72h44.86l-44 44-20.7 20.69 20.7 20.69 44 44zm86.25 0l-64.72-64.72 64.7-64.7.12.13.14-.15h44.63l-44 44-20.69 20.69 20.69 20.69 44 44zm86.25 0l-64.72-64.72 64.72-64.72h44.87l-44 44L527 925.45l20.69 20.69 44 44zm86.25 0l-64.72-64.72 64.72-64.72H678l-44 44-20.69 20.69L634 946.14l44 44zm86.25 0l-64.72-64.72 64.72-64.72h27.32l.14.15.12-.13.12.13.15-.15h17l-44 44-20.69 20.69 20.69 20.69 44 44zm86.26 0l-64.72-64.69 64.72-64.72h44.86l-44 44-20.7 20.69 20.7 20.69 44 44zm86.25 0l-64.72-64.72 64.72-64.72h44.87l-44 44L872 925.45l20.69 20.69 44 44zm86.25 0l-64.72-64.69 64.72-64.72H1023l-44 44-20.69 20.69L979 946.14l44 44zm86.25 0l-64.72-64.72 64.72-64.72h44.87l-44 44-20.69 20.69 20.69 20.69 44 44zm86.25 0l-64.72-64.72 64.72-64.72h27.32l.14.15.12-.13.13.13.14-.15h17l-44 44-20.69 20.69 20.69 20.69 44 44zm86.26 0l-64.72-64.72 64.72-64.72h44.87l-44 44-20.75 20.75 20.7 20.69 44 44zm86.25 0l-64.72-64.72 64.72-64.72H1368l-44 44-20.69 20.69 20.69 20.75 44 44zm86.25 0l-64.72-64.72 64.72-64.72h44.87l-44 44-20.69 20.69 20.69 20.69 44 44zm86.25 0l-64.72-64.72 64.72-64.72h44.87l-44 44-20.69 20.69 20.69 20.69 44 44zm87.09-85.41L1562 925.45l20.69 20.69 44 44h-44.88l-64.72-64.72 64.72-64.72h25.84l.14.15.15-.15h18.74z" fill="#231f20" fill-rule="evenodd"/></svg>