<svg id="Layer_1" data-name="Layer 1" xmlns="http://www.w3.org/2000/svg" viewBox="0 0 1823.46 957.19"><defs><style>.cls-1{fill:#231f20}</style></defs><path class="cls-1" d="M40.75 91.05v-2.36C32 87 23.18 85.46 14.4 83.86c-4 4.37-7.86 7.54-14.4 9.57 4.11 5.09 8.35 6 12 12 13.1-4.7 11.15-13.43 28.75-14.38zM14.4 134.24v-2.38H9.56c2.44 1.92.6.87 4.84 2.38zM364.66 40.67h31.19a42.07 42.07 0 00-9.62-7.2c1.48-7.46.49-5.82 4.81-9.61v-2.38c-5.09 1.21-8.65 2.18-12 4.81-1.8 2.58-1.54 2.23-2.38 7.18-9.08-.5-12.31-3.61-16.8-4.78q-15.68 2.37-31.22 4.78c8.17 6.73 29.67 13.72 36.02 7.2zM902.13 26.29c17.25-1.25 4.14-3.47 14.4-9.6v-2.44h-31.19c-5 3.19-19 1.79-24 4.83-.82.78-1.59 1.6-2.4 2.4 7.22 2.38 14.4 4.81 21.58 7.21 6.48 1.68 11.48-8.22 21.61-2.4zM993.28 11.86c2.85 2 4 2 9.61 2.39-2.82-1.89-4.01-1.89-9.61-2.39zM21.58 112.65v-2.39h-4.81c2.48 1.93.58.85 4.81 2.39zM767.78 189.42c5.57-.79 11.16-1.58 16.81-2.41 1.55-4.77 3.16-9.57 4.76-14.36 4.81-.82 9.6-1.61 14.4-2.42v7.21h-2.37c-2.66 1.83-2.21 1.51-7.22 2.39.06 11.8 1 6.33 2.38 19.19 5.29-1.78 9.36-3.32 14.39 0 9.37-1.18 7.66-2.33 14.43-4.78-1.8-18.28-14.55-19.05-19.21-31.2.8-4 1.57-8 2.41-12-.64-2-3.62-2.69-4.81-7.19-6.38.8-12.82 1.62-19.16 2.38 2.49 6.71 6.5 7.24 2.32 14.39-3.65 7.5-11.21 9-16.72 14.43-1.25 1.9.38 7.58-2.41 12zM427 117.48v-.07l-.06.07zM165.52 388.57v4.76c4.26-2.23 2.69-.75 0-4.76z"/><path class="cls-1" d="M724.54 50.27c9.52-2.21 11.22-6.43 19.27-9.6 0-9.51.74-14.48 2.36-16.81 3.75-9.5 8.53-13.74 21.61-14.4C742.55-6.44 640.64 1.25 607 7.07c-9.55 1.69-14-3.46-19.13-4.79-18.63-4.86-54.6-.93-69.6 2.4-18.66 4.14-43.16-.89-55.17 9.57h-4.84c1.72 9.36 3.9 8.72 4.84 19.22H451c-.57-8.35-.83-10.1-4.77-14.39 0 0-12.35 6.15-19.21 0-6 .25-8.84.28-12 2.4h-2.43c1.86 1.67 5.35 3.17 7.21 4.81 14.11-.28 14.08-2.36 14.39 7.18h9.63v7.2c-10.17-1.27-32.58-6.54-40.85-12-1.51 4.1-.41 2.32-2.34 4.78v4.84a137.57 137.57 0 0028.79 2.36v7.18c-16.61 1.6-27.5 1-40.81 7.21 3.46 5 6.25 6.78 12 9.61v2.4c-14 6.92-23.3 16.36-43.18 16.79v-7.15c11.7-.81 11.86-3.19 21.58-4.83v-2.41c-3.21-.81-6.39-1.6-9.59-2.38.93-4.94.61-4.62 2.37-7.22 3-7.29.83-5.51 9.62-7.23v-2.35h-2.4c-3.91-3.21-32 11.8-48-4.78-24.85 0-28.65 7.39-45.55 12 .8 1.62 1.57 3.22 2.41 4.79 6.05-.21 8.9-.29 11.95-2.39 5.57.56 6.8.47 9.65 2.39-1.6 2.36.32 5.29-2.44 9.62v4.83c-19.81-.87-41.74-7.62-52.76-7.24-12.63.47-30.47 11.6-45.58 7.24C177.4 67.56 120.07 57.24 86.37 79h-4.81L84 95.87c-16.21-3-11.28-1-31.18 0l-2.41 2.39c1.54 4.15.47 2.35 2.41 4.79 1.59 1 9.06.21 16.79 0v7.21C51.33 112 39 120.7 24 124.66c.77 5.61 1.57 11.19 2.34 16.76A31.52 31.52 0 0136 139v9.57c13.22.84 21.22 4.42 28.79-2.39 1.83-3 .17-2.26 0-9.56 22.95-.1 52.51-13.21 72 0h4.83c3 15.81 9.18 29.38 12 40.78 2.92 11.89-5.7 17.08-4.81 24 .71 5.15 8.4 5.32 7.18 14.36-3.56 26.55-48.78 53.25-26.38 88.76v12a31 31 0 019.62-2.39c2.46 12.62 15.54 40 7.18 45.59 6.12 9.15 10.07 13.77 14.39 26.41l2.4 2.39h2.38c-1.89-13.64-6.51-19.47-7.22-33.63 12.15 1.22 40.72 46.71 33.6 57.61 2.66 12 30.53 29.77 40.81 33.63 8-.84 16-1.62 24-2.44 4.71 2.07 5.67 11.57 9.61 14.4l26.35 7.18c7.41 5 2.37 13.45 7.18 21.62 1.5 2.47 27.22 19.5 31.19 21.59a27.72 27.72 0 002.4-9.61h12c1.28 8.63 11.13 27.82 4.78 40.8 0 0-16.42 16.17-16.81 16.75-8.36 14.19 3.35 23.37 0 31.23-1.62 4-5.21-1-4.77 7.19 1.86 14.78 9.33 14.43 14.4 24 8.49 16.07 9.16 33.37 19.23 48 7.05 10.37 25.07 14.3 33.53 24 12.69 17.94-.67 56 4.84 81.57 4.72 21.91-1.72 74.73 9.55 98.39 2.41.77 4.84 1.6 7.22 2.38 3.87 7.21-6 22.36-4.81 24 4.39 6 15.35 26.2 16.83 33.55h7.15c2.47 18.05 19.91 17.69 31.22 26.4 4.78-.82 9.62-1.6 14.39-2.38v-2.4c-12.31-6-15.92-15.22-26.38-21.62.87-10.29 4.1-18.23 9.59-24v-7.18c-4-.82-8-1.6-12-2.39 3.08-21.76 15.55-33.65 16.79-55.2 7.22-1.62 14.4-3.19 21.58-4.79 2.5-10.67 5.1-14.16-2.41-24 3.69-2.5 9.87-2.53 16.84-2.39 7.59-14.88 20.54-29.85 26.38-45.6 3.4-9.22-3.21-12.89 0-19.19 4.55-13.93 19.1-20.23 36-21.57 5.34-10.87 11.15-22.84 14.38-36v-33.54c3.5-8.62 14.85-15.91 19.21-24 3.52-6.6 6.92-16.75 2.4-24-4.26-15-73.67-39.44-91.17-48 1.73-18.26-5.64-23.08-14.39-36-3.37-.67-10.62-4.79-12-4.79-2.7 0-8.72 5-14.43 2.39-8.43-3.93-15-18.35-23.95-24v-12c-6.54 0-11-.14-14.43-2.44-5.95 3.58-2.82-.57-4.77 7.18-8.33-.84-16.15-.92-24-4.74-1.54-.75-4.14-9.33-4.78-9.62-3.74-1.5-6.25 4-12 4.79v-7.17c-13.71 7.63-25.39 10.52-31.2 26.44-13.75-1.93-15.09-8.91-24.05-2.36-13.94-.79-13.52-4.25-21.57-9.62 0-10.15.55-20.29 4.78-26.4-2.38-18.69-15.23-10.93-28.75-14.36 2.3-16.27 9.61-26 11.95-40.84-5.58.82-11.18 1.6-16.76 2.42a190.61 190.61 0 01-9.56 19.24c-15 .6-18.63 2.11-28.85-2.4-7.12-16.94-9.24-43.69 2.41-60 8.94-20.84 28.33-16.75 50.39-14.39v-9.62c15.74.29 20.61 3.75 33.56 4.82a137.3 137.3 0 017.24 36l2.38-2.43c1.6-.78 3.24-1.61 4.81-2.4-.8-13.57-1.57-27.18-2.4-40.75 9.26-8.69 20.28-19.85 31.22-26.42 4-.79 7.92-1.6 11.92-2.42v-14.4c6.22-13.72 25.8-33.5 43.25-28.79-1.54-4.15-.51-2.36-2.44-4.79.52-6.25 1.09-8.14 2.44-12 10.71-3 16.19-8.12 28.76-9.62V247c8-4.9 24.9-9.65 31.18-16.8h4.81v-4.8l-2.4 2.42c-14 0-14.33-2.07-21.58-7.22v-7.18c13.8-.39 15.43-1.56 33.57-2.4v7.18c16.1.55 16 2.26 28.82 4.83l2.36-2.43c-.43-13.76-2.34-13-12-16.79.84-9.39 2.64-13.87 7.22-19.19C526.36 165.82 515.94 172 511 163c-1.44-2.69-4.19-26.44-4.74-28.8-9.55 3.64-10.64 7.33-26.38 7.18 1.41-7.47.38-5.82 4.77-9.56-2.85-5.34-9.39-9.09-14.4-12-1.88-1.13-6.82-.2-14.39 0v-7.18c-5.35 2.79-3.62 3.43-7.18 7.18-2.59 1.83-2.28 1.51-7.25 2.4-.18 20.1-9.45 43.56-26.35 48-.83 6.4-1.6 12.78-2.43 19.19h-12c-1.18-9-2.69-13.77 0-21.6-14-5.35-25.58-12.56-40.78-14.39-.28-6.08-.31-8.86-2.4-12 1.56-17.41 30.74-31.62 50.39-31.16v-7.21h7.18c-1 4.92-.61 4.63-2.43 7.21v2.39c9.45-.09 3.68-.46 14.39-2.39v7.15c4.39-2.36 4.69-5.57 14.39-7.15-2.65-5.58-2.21-4.36-7.18-7.21.94-4.94.59-4.62 2.38-7.18 3.08-5.08 16.86-13.45 21.61-16.83v-7.18c11.75 1.92 7.52 2.64 19.23 2.42-1.12 8.54 1.24 6.08-4.84 9.58a27.47 27.47 0 007.25 4.83c-.59 5.53-.52 6.75-2.41 9.57-3.36 2.18-13.43 2.64-16.82 4.79h-2.41c4.42 2.85 16.05-1 21.64 2.39 1.63 1 2.56 8.33 4.77 9.61 6.92 4 13.56 2.8 19.17 7.18 1.87-2.57 1.51-2.2 2.44-7.18h7.18l2.4-2.4c-1.31-10.06-3-8-4.84-16.78 9 .85 9 1.81 14.46 4.78l7.18-7.22h4.77c-3.23-6.07-10.57-9.18-16.79-12 1.76-7.5 1.6-5 4.84-9.6-11.51-6.3-24.3-10.47-31.23-21.59h-28.74v-7.15c31.76.14 25.81-8.61 43.21-16.8 7.85-3.75 11.38 0 16.8-4.81 11.82 1.29 14.4 6.93 19.17 14.39 14.77-.67 26.77-4.93 36 2.44 1.58.74 3.17 1.57 4.78 2.36-.77 14.18-5.77 29.4 0 33.61-1.64 9.18-3.37 10.37-9.58 14.41 1.09 14.86 5.12 25 9.58 36 8 3.19 14.65 6.26 21.57 9.58 25.58-44.53 68.7-47.56 117.56-67.17zm-285.47 98.34h2.36v-4.77h7.25v9.59h-2.43v4.79h-7.18zm-67.2 88.78h-7.21v-7.18h7.21zm-9.55-28.76l2.34 2.39a33.85 33.85 0 01-2.34 9.58h-.87c-.38 1.64-.83 2.65-1.54 4.8h-2.4v7.21h-2.44v4.78h-7.18v-7.18h2.38v-4.81h-2.38c-.8-4-1.64-8-2.4-12h3.33c-.22-1.42-.54-3-.93-4.79zm47.92-124.77h-2.34v4.83h-7.21v-7.23H403v-4.77h7.21zm158.38-69.61c-.81.11-1.58.18-2.38.29v4.54c-7.25.78-14.43 1.6-21.61 2.4v-7.23L547 14V9.46c7.18-.77 14.39-1.57 21.58-2.39zM513.44 935.62v-2.44h2.4v-2.39h-12c2.32 1.93 6.62 3.54 9.6 4.83z"/><path class="cls-1" d="M436.63 119.83c2.5 2 .61.9 4.8 2.4v-2.4zM417.46 119.83c4.84-.49 7.6-1.31 9.52-2.35h-9.52zM1741.87 594.89c.77-.8 1.61-1.61 2.41-2.37h-4.8c1.54 4.12.48 2.32 2.39 4.77zM1053.28 11.86v-2.4h-2.4c-3.33-1.7-3-.74-7.18 2.4-8.91-1.07-7.08-1.33-12-4.79-2.56 1.83-2.22 1.51-7.18 2.39 7.48 6.94 17.74 4.09 28.76 2.4zM1605.09 256.62c8.4-2.08 6.52-3.37 12-7.21-2.65-8.69-15.51-4.44-24-12h-2.43c.54 15.4 3.87 25.48 14.39 36 .19 7.42.35 15.1-2.37 19.17-2.59 1.83-2.25 1.51-7.18 2.41v9.57c-19.75.4-16.22 7.11-28.83 12 1.61 8.87 4.37 12.06 9.6 16.8v2.44h2.41v-12.05c12.36-2 31-9.78 40.77-16.78 5.65-13.54-13.07-33.6-14.36-50.35zM1595.54 544.5c-1.92 5.37-2.6 13.08-2.41 21.62 4.08-4.86 6.97-15.18 2.41-21.62zM1549.92 623.68v-2.39h-4.78c2.47 1.93.58.88 4.78 2.39zM1571.53 556.47h2.37v-2.35c-11-.26-17.89-1.51-24 0-5.49 13.65-4.87 36.41-7.21 40.77v4.78h4.8v-14.36h7.22c.77.78 1.57 1.6 2.38 2.39v12h7.18c-1.87-12.76-6.57-13.75-7.18-28.75h9.6v-4.8c-5.64.79-11.21 1.6-16.79 2.42.55-5.61.45-6.81 2.4-9.63 5.95-3.75 15.58-.69 19.23-2.47zM1737.1 602.11c-2.62-1.83-2.27-1.51-7.24-2.44-2.56 1.83-2.22 1.54-7.18 2.44v2.38c6.09-.2 8.88-.29 12-2.38zM1609.9 585.31c-4.68-3.17-15.67-2.71-24-2.39 2.81 4.45 11.99 2.82 24 2.39zM1645.87 575.69v7.23c-.77.78-1.57 1.57-2.37 2.39-12-2.65-11.1-8.64-14.43-19.19h-4.78c-3-1.82-2.27-.18-9.55 0 3.79 8.37 8.25 11.54 9.55 24 11.25-3 23.85 4 33.6 9.53.1 7 .13 13.11-2.4 16.83a51.72 51.72 0 0028.82 9.59v-7.18c.8-.81 1.57-1.62 2.41-2.41 22.43.5 14.51 9.79 26.38 16.8 3.62 2.15 7 .32 9.58 2.39h7.18c-4.74-7.91-10.84-6.32-14.37-16.78-2.78-4.19-2.85-7.79 0-12-9.13-15.22-49.43-32.77-69.62-31.2zM1581.11 616.5v7.18h4.81c-2.09-7.68 1.32-3.68-4.81-7.18zM1389.16 40.67H1406c-7.19-5.2-21.16-5.23-33.6-4.8 4.76 4.54 13.2 5.71 16.76 4.8zM381.49 419.77c-2.12 7.69 1.28 3.68-4.78 7.18 10.45 7.14 17.83 1.36 31.19 0v-2.4c-6.28-1.93-5.74-3-12-4.78-4.02-2.22-6.23-.5-14.41 0zM1590.7 225.4c-2.41-.81-4.78-1.59-7.15-2.37 3.17 3.83 1.44 2.75 7.15 4.79zM1091.66 31.08h-9.58c-2.47 1.94-.58.87-4.79 2.39v2.4h14.37zM1038.89 57.45c4 3.9 10.3 5.78 14.39 9.62h9.56a41.37 41.37 0 00-9.56-7.22c1-4.9.55-4.61 2.38-7.23 3.33-9.53 10.13-13.17 21.63-14.31-9.87-6.44-21.66.64-31.25 2.36-1.12 8.33-2.66 12.18-7.15 16.78zM1564.29 466.76v-6.22h-6.9a76.71 76.71 0 00-9.88-7.18c1.61-13.4 2.83-9.76 2.41-24-4.9-1-4.65-.64-7.21-2.43h-2.37C1540 458 1547 463 1559.5 484.55c2.6 4.45 2.41 21.57 2.41 21.57h7.21c2.25 2.12 2.79 7.33 4.78 9.62v2.39c5.61-1.78 5.42-2.5 9.65-4.82-.67-19.86-8.15-35.04-19.26-46.55zM1581.11 626.09c-2.59-1.83-2.24-1.51-7.21-2.41v4.83c.8-.82 1.6-1.61 2.41-2.42zM1537.94 381.39h-4.79c-1.61 4.1-.5 2.32-2.4 4.79v7.15c4.11 1.57 2.34.5 4.81 2.42h2.38zM1513.92 621.29h2.44c-2.64-1.82-2.28-1.51-7.25-2.38v-7.2c-15.9.11-29.13 1.44-38.4-7.22h-12c7.31 15.44 37.79 14.08 55.17 19.19zM1521.14 621.29c2.47 1.93.6.88 4.76 2.39 2.42 1.43 4.6.22 12 0-3.65-2.5-9.81-2.53-16.76-2.39z"/><path class="cls-1" d="M1420.38 467.75c16.85 1.05 20.41 7.68 26.41 19.19h7.21v9.62h2.35c3.66-8.8 11.59-14.65 19.23-19.19 1.57-22.73-12-37.09-26.42-50.42.64-8.36.86-10.12 4.84-14.4.77-2.39 1.58-4.79 2.35-7.21 7.43.13 12.33.82 16.82 2.42-.32 9.27 0 10.22-4.8 14.41l2.37 2.38c2.5 1.93.64.86 4.84 2.4.87-2.4 1.61-4.78 2.37-7.18.9-.76-2-6-2.37-14.43 24.13-3.66 33.34-16.69 48-28.78 2.61-37.69 5.83-45.31-21.62-67.17 1.51-9.83 2.5-12.33 12-14.39-7.79-5.76-17.15-4.48-26.35-4.8-.84-.82-1.64-1.6-2.4-2.38.83-9 1.86-8.95 4.77-14.4 8 .39 8.82-.26 12 4.77 6.15-2.18 9-7.2 16.8-2.41 9.52 5.21 23.59 20.32 24 36 4.8-1.58 9.61-3.15 14.4-4.78v-4.79c-8-8.32-11.07-17.8-24-21.55.84-7.81 3.24-18.3 7.19-24 3.94-6.25 10.8-3.65 16.77-7.21 11.41-14 5.22-35.63 2.39-52.78h7.21c1.87 8.14 3.92 8.25 7.19 14.39 1.6.79 3.24 1.57 4.82 2.4.79-.83 1.59-1.61 2.39-2.4-3.13-9-25.71-30.9-33.6-36-3.32-3.78-2.17 5.36-12 2.4-8.21-2.5-15-6.43-28.79-7.21.61-10.2 2.34-22.27 7.15-28.81 10.93-8.48 40.36-4 52.79 0V139c1.17-1.91.23-6.83 0-14.38.81-.82 1.61-1.61 2.41-2.43a37.67 37.67 0 0116.8 4.83c5.68.85 8.53-4 16.8-4.83 0 10.18-.54 20.33-4.83 26.38 5.15 25.4 34.61 25.14 38.39 50.41 14.62-21.9-8.39-48.7-16.79-57.6 1.69-7.87 2.46-5.57 4.8-12 6.58.06 11 .06 14.41 2.41 10.6-6.16 6.11-13.49 24-14.38v-2.43c-24.42-7.11-36.57-35.4-67.15-43.19-19.23.82-38.43 1.57-57.6 2.42-10.2-1.57-25.2-6.75-36-9.61-9.59.79-19.16 1.61-28.79 2.4-3.85-1.08-15.8-8.37-19.17-9.62-16.15-5.79-28.49 3.4-38.4-7.18h-4.81v12c-14.17 0-34.4 6-43.14 0-4.69-3.14-7.64-10-14.43-12-18.32-5.35-46 8.58-64.73 0-5.13-2.33-7.53-11.86-12-14.4-9-5-22.25 1.32-33.64-2.4-9.16-3-11.63-7.85-19.13-12-9.78-5.4-53.35-9.94-60-9.62 12.37 11.05 40.78 5.35 55.14 14.43 1.83 2.58 1.54 2.23 2.43 7.18h-2.43c-5.8.69-10.9 4.09-19.17 2.4-.35-.46 1.31-8.08-2.43-4.79-10 8.86-18.32 5.75-26.33 12-.83 2.4-1.66 4.76-2.44 7.18H1154c-.83.46-3 6.51-4.84 7.18-9.19 3.66-11-1.11-16.77 4.79-8.77-2.17-9.61-5.79-16.76-9.62v-2.26h-2.41c-2.68 11.8-3.17 13.08-2.43 26.42-10.36-1.62-20.73-3.26-31.16-4.83V79c-14.36.43-25-2-36 2.42-7.83 3.14-7.76 8.11-19.2 9.59-1.09-8.83-1.35-7-4.81-12h-4.84c2.46 5.33 3.91 6.81 4.84 14.39-16.77 1.58-21.77 7.27-38.4 9.62-2.48-1.94-.58-.89-4.79-2.4v-7.19h26.39v-7.18C965 75.88 921.09 50.09 885.34 79c-4.14 4.18 3.52 2.27 0 9.65-6 12.36-26.2 27.15-40.81 31.14-.13 7.51-.33 15.21 2.47 19.21v4.8c8.53 1.51 8.95 3.66 14.36-2.42 10 .5 11 1.69 16.84 4.8v12c-5-3.07-5.51-5.08-12-7.19-2.48 1.94-.56.89-4.82 2.4-.54 9.21 1.83 10.75 2.41 24-6.41.79-12.75 1.6-19.2 2.39-1 4.94-.6 4.62-2.34 7.18-6 12.15-32.73 18.66-43.24 26.41h-4.79c4.26 4.11 13.76 9.75 19.17 12 .1 9.16-.35 18.15-2.4 24-12.54-.48-28.43-4.84-36 0h-4.77c.6 18.75-1 25.32 0 43.18h14.4c1.53 4.15.41 2.37 2.32 4.84-3.26 23-8.77 14.86-19.13 26.32-5.9 6.51-1.45 22-7.18 28.81-3.9 4.56-12.12 3.25-16.79 7.21-3.73 3.16-22.77 36-24 40.8-4.79 17.47 9.16 39.85-4.84 52.83 2.7 5.15 1.35 11.75 4.81 19.19 6.34 6.39 12.76 12.82 19.14 19.19v9.56q15.68 13.24 31.26 26.45c19.16-2.5 42.76-2.18 55.17-12h23.92c1.68 4.78 3.25 9.57 4.84 14.36l14.39-2.35c4.79 2.32 1.1 5.14 9.63 7.18l-4.84 36c2.12 8.45 13.24 12.78 16.79 19.22 6.87 12.29 9.23 31.4 12 45.55 4.11 21-19.48 31.13-14.39 52.78 2.28 9.86 13.37 22.25 16.77 31.19q1.25 19.19 2.4 38.37l9.62 9.62c6.5 10.79 7.28 23.93 7.18 40.8 39.27 2.4 68.5-14.9 84-43.2 10.07-18.33-6-16.32 16.83-26.37 2.53-10.18 6.9-19.19 0-28.83 4.35-20.73 38.46-28.84 38.34-43.17 0-16.57-10.36-60.67-4.75-76.74 9-25.91 36.52-39.28 50.34-60 7.56-11.25 8-26.39 16.82-36 .07-7 .13-13-2.36-16.75-.68-1-29.83 10.15-38.41 4.74-2.67-1.53-31.33-34.65-33.6-38.37-3.46-5.64-1.22-11.69-4.84-16.79h-4.77c-1.58-8.79-3.21-17.62-4.78-26.38-6.86-12-17.09-20.14-19.21-38.4h12c5.12 2.79 6.18 16.29 9.61 21.6 2.38.79 4.81 1.63 7.15 2.41.84 6.4 1.67 12.79 2.44 19.16 3 6.28 13.07 9.17 16.79 14.43 3.18 9.61 6.41 19.18 9.62 28.76 11.8 2.18 4.53 4.46 9.59 7.22 11.16 6.14 13.75-5.26 19.18 7.18 11.18-3.64 53.5-32.44 60-40.76 4-5.12 3.36-12.15 7.21-16.83-2.4-12.91-12-16.51-21.67-21.57v-12c11.86 2.44 39.56 13.72 52.83 4.82 21.1 2.54 21.32 22.27 36 31.2 4 2.18 6.18.49 14.39 0 .67 22.84 22.85 79.47 33.6 91.16 4.39.09 4.77-4 12-7.18.54-12.05 4.8-26.14 0-33.6v-9.61c2.56-4.9 15.17-10 19.2-14.35 7.48-8 12.09-18.23 19.23-26.42v-2.42c6.81-5.23 13.66-1.08 19.17-7.18 19.69 2.88 22.42 30.93 31.2 45.58 5.48 2.44 5.64.58 9.58-4.79 5 1 4.65.61 7.18 2.4 11.71 15.54 11.23 40 9.62 62.39 8.5 1.57 8.15 1.63 12 7.18h2.41c-4.79-16.61-9.12-21.73-7.25-43.24zm-477.44-338.3h2.34v-4.79h12v7.2h-2.4v4.8h-12zm-52.22 36.16c2.44-7.79 7.15-7.93 11.26-11.57-.45-2.76-1.44-7.82.15-10.2V139h2.38v-4.8h4.8v-2.38h-7.18c-.82-.81-1.59-1.59-2.43-2.41a26 26 0 014-13.14c2.72-7.41 8.46-12.06 15.2-14.76v-3.25h2.37v-4.83h12v9.62h-2.38v4.8h-8.08a4.55 4.55 0 01-2.15 3.26c-.31 1.91-.45 2.7-1 3.4 2.36 5.15 4.73 7.79 6.44 14.94h9.58v7.21h-2.38v4.76h-4.94c-.39 7.51-1.41 14.66-4.65 19.19 0 0 0 .06-.07.15a19.87 19.87 0 01-2.33 4.68c-5.13 7.75-15 2.41-24 9.6a34.62 34.62 0 01-9.55-2.39 16.48 16.48 0 012.96-7.04zM885.34 235c.93.08 1.67.11 2.4.23v-5c5.52.54 6.73.46 9.55 2.4 10.94 3.11 17 11.93 28.86 16.8.77 4.78 1.57 9.6 2.34 14.39-1.29-.14-2.31-.25-3.24-.32.33 1.72.57 3.43.9 5.1-5.58-.53-6.8-.45-9.62-2.39-14.08-3.64-20.78-16.57-31.19-24zm141.57 319.09c-.27 6.07-.33 8.89-2.41 12v4.8h-2.4v4.77h-9.59c.19-6.07.26-8.85 2.34-12v-4.82h2.43v-4.79zm-9.63-218.31c-.82.74-1.59 1.57-2.43 2.38-7.08-.63-9.49-4.24-12-4.82-7.56-1.69-6.66 4-9.61 4.82-14.47 4.25-39.27-8.08-45.59-14.44-8.92 1.71-8.46 3.54-14.39 7.23v9.57c-24.66-1.43-33.57-15.41-55.14-21.58 1-4.9.57-4.61 2.34-7.22 0-7.94-.67-14.26-2.34-19.16q-26.49 2.39-52.8 4.84c-17.92 6.43-9.18 10.33-36 9.54 1-4.91.58-4.62 2.38-7.18 7.66-11.05 7.92.59 16.83-4.79 10.45-6.34 5.64-21.72 12-28.81 3.34-3.67 12-2.35 14.43-7.18v-9.6c11.67-1.33 19 1.11 26.38-7.2 10.87 1.11 8.72 2.23 14.4 7.2-2.31 1.93-6.54 3.53-9.58 4.78v24h4.8l2.38-2.41c-.77-7.2-1.61-14.38-2.38-21.59h12c6.51 7.12 14.65 12.55 24 16.82 0 15.7-5.58 17.3-16.8 14.37 2.95 6 5.45 5.46 9.59 9.62 6.63-3.15 10-9.33 12-16.81 1.79-2.56 1.51-2.2 2.38-7.18 18.56.4 24.78 14.72 31.18 26.42 4.88-2.58 8.7-8.05 12-12.05l-9.62-4.75v-7.21c9.91-.65 6.93-.54 16.8 0 1.73 14.1 8.27 14.92 12 26.37 11.51-3.69 30.56.24 36-4.79h9.59c3.09 16.71-2.55 25.11-4.8 40.84zm31.2-81.62c-.77 2.43-1.6 4.82-2.44 7.21h-.77c-.54 1.57-1 3.19-1.57 4.79-15.48 0-19.78-5-28.85-7.18-18.69-4.6-20.93 13.48-36 2.39-2.38-.82-4.74-1.6-7.18-2.39 1.67-12 5.67-21.3 9.59-31.19h.48c.67-1.6 1.31-3.18 1.92-4.79h14.42c.77 3.19 1.61 6.39 2.35 9.58 2.49 2.28 6 1.78 10.13.9-1-.29-1.9-.55-2.92-.9 1.35-5.69 1.57-5.61 3.05-7.3 1.15-4.41 1.41-3.13 4.13-7.11h9.65l2.41 2.4a36.34 36.34 0 01-2.41 9.61h-.84c-.15.61-.35 1.18-.48 1.74a19.78 19.78 0 013.73.69c9.36 2.82 13.75 11.43 24 14.4-.96 4.93-.61 4.65-2.4 7.18zm45.58 33.63c-.06-9.8.71-12.94 3.63-17.48a18.51 18.51 0 01.73-2c-13.24-7.18-14-18-23.53-28.55a22.88 22.88 0 013.5-9.18c1.95-5.85 4.84-6.89 8.46-12.44 10.2-.52 17.79-1.67 21.58 4.83h2.4a17.7 17.7 0 01-2.6 4.79h.2c-2.45 6.22-4.77 7.58-10.17 8.72 4 7.26 10.33 10.69 15 17.65h9.63v7.21h-2.41v4.79h-2.82c1.73 3.19 3.68 4.73 7.59 7.23 0 8-.7 14.25-2.36 19.17-.39 0-.81-.06-1.17-.06a38.51 38.51 0 01-1.24 4.9c-14.27-.63-17.76-4.44-26.42-9.55zm52.8 81.56c-.28 1.65-.57 2.94-.84 4l.84.84h-1.09a16.84 16.84 0 01-2.47 4.92c-.8 2.79-1.73 3.54-3.62 7.08h-16.79c-1.28-11.4-13.12-22.76-21.68-26.41v-14.4h2.45v-4.82h12c7.66 17.26 17.32 16.08 31.19 26.44.77.79 1.6 1.58 2.34 2.39zm4.78-280.69H1150c-.26 1.57-.54 3.17-.84 4.74h-7.15c.81-4.74 1.54-9.57 2.42-14.39h1.58c.24-1.57.56-3.19.81-4.76h7.18c-.76 4.75-1.53 9.61-2.36 14.44zM1537.94 527.75c-2-8.43-3.5-8.43-9.62-12-.81-.83-1.58-1.6-2.42-2.43-7.49 12.69-17.92 19.5-28.74 28.84-1.83 2.54-1.54 2.17-2.44 7.14-6.83.29-10.26 1-14.36 2.44 1.31 8.49 4.9 21.89 9.58 28.78 7.12 5.15 21.8 6.69 33.61 7.19.5-13.9 4.63-28.52 14.39-33.58-9.62-6.52-7.77-20.71 0-26.38zM371.87 412.55c-8.27-2.65-23.34-10.55-28.78-16.8-7.89-.2-17.18-.57-21.58 2.41h-2.41c4.66 2.35 15.63-2.3 24 2.41 4.13 2.33 8.66 7.51 14.42 9.59v7.21c6.09-.29 8.88-.32 12-2.43.79-.79 1.59-1.57 2.35-2.39zM1624.29 856.43c-.5 5.55-.48 6.72-2.37 9.62v7.18c7.12-3.37 12.47-5.78 16.78-12h2.42c-3.49-5.23-8.12-3.61-16.83-4.8zM1813.85 815.62h-2.4v-2.38c-2.83 4.61.16 12.5-2.4 19.19s-11.23 7.14-14.4 12c-.55.78 2 6.53 0 9.65v2.38c9-3.22 19.9-12.71 26.38-19.18h2.43v-2.39h-9.61c-.77-9.89-2.15-12.08 0-19.27zM1703.47 705.25c-1.82-2.64-10.54-4.31-12-7.18v-28.79c-4.66-10.14-11.28-5.72-12-28.8h-2.38c-4 14.86-10.44 34-14.4 48h-7.2v-7.18c-12.25-.69-13.73-3.3-21.55-7.23 1.1-13.5 5.39-13.89 7.18-26.36-16.89-.1-20.71.49-31.22 2.4v-7.23c-.57.22-11.06 18.57-12 26.41-10.94-.47-10.37-.25-14.34-7.2-2 .52-33.21 23.35-33.63 24-3.56 5.52-2 13.41-7.21 16.8-4.2 2.8-42.76 15.58-48 16.8q-3.57 13.23-7.15 26.4c-6.92 29.83 11 36.37-7.21 60 3.72 2.73 1.91 2.67 7.21 4.82 3.43 1.42 70.31-18.34 76.72-24 27.4-.93 32.6 12 36 33.54 4.11-1.42 7.54-2.2 14.43-2.38-.58 5.56-.54 6.78-2.46 9.57 8.13 21.62 34.52 6.54 52.82 4.83 10.17-19.87 29.14-28.7 40.75-45.56 7.72-11.16 6.73-26.16 14.46-38.37-1.2-6.03-13.6-38.64-16.82-43.29zm-96 100.78h-2.4v4.82h-2.37V806h2.37v-4.77h2.4zM1785 846.82c-6.12 7-11.35 16.44-19.17 21.59-14.59 9.65-33 10.14-43.18 24h-2.37v2.42c33.08-1.54 42.83-30.37 72-36-2.63-1.81-2.25-1.49-7.25-2.39z"/><path class="cls-1" d="M1458.75 602.11c1.44-7.73 2.21-17.19 7.21-21.6-2.75-3.74-2.62-2-4.8-7.21h-9.63c-1.44-12.32-5.41-12.36-7.17-24h7.17c-6.15-14.22-6.85-27.76-19.17-36v-2.39h-4.8c.61 17.87 6.7 22.79 9.61 36-12.69-2.79-23-14-28.81-24h-9.59c5.32 9.8 16.57 15.33 21.61 24 12.12 20.76 14.2 39.8 33.59 52.77v2.44zM1302.82 494.12c-.87 8.76-2.53 12.23 2.41 19.19 2.43 1.94.58.9 4.74 2.43l2.44-2.43c-1.22-10.21-2.95-14.57-9.59-19.19zM1084.48 678.88c-1.76 8.41 1.79 18.63 0 26.37-1.93 8.19-10.29 11.51-7.19 19.24.17 10.75 1.48 13.07 4.79 19.18 4-.83 8-1.6 12-2.4 8.72-17.65 33-76.28 19.2-91.17-6.04 14.71-12.07 24.74-28.8 28.78zM753.35 103.05v-4.79c-2-2.51-.85-.58-2.36-4.83-17.28 1.54-25.2 3.83-38.42 0-11.4 24.62 26.91 14.13 40.78 9.62zM1410.76 50.27c-2.56-1.83-2.22-1.49-7.22-2.42 2.61 1.81 2.24 1.49 7.22 2.42zM359.91 431.73c-1.6-1.56-3.2-3.17-4.84-4.78-3.23 3.33-1.63 6.97 4.84 4.78zM143.94 172.65h-4.77c1.51 4.12.44 2.32 2.39 4.79V175c.75-.78 1.61-1.56 2.38-2.35z"/></svg>