<svg id="Layer_1" data-name="Layer 1" xmlns="http://www.w3.org/2000/svg" viewBox="0 0 380.04 100"><defs><style>.cls-1{fill:#48ec3a}</style></defs><path class="cls-1" d="M31.63 48.35q3.6 2.79 10.61 4.82a16.35 16.35 0 015.65 2.6 4.57 4.57 0 011.61 3.65A4.29 4.29 0 0147.8 63a7.89 7.89 0 01-4.94 1.32 15.47 15.47 0 01-4.56-.63 9.64 9.64 0 01-3.23-1.61l-.84-5.61h-6.12v8.23a17.6 17.6 0 006.29 4.12 23 23 0 008.46 1.49q6.55 0 10.56-2.93a9.36 9.36 0 004-8 10 10 0 00-3.37-7.83q-3.37-3-9.9-4.79A25.38 25.38 0 0137.76 44a3.85 3.85 0 01-1.85-3.29 4.26 4.26 0 011.77-3.53 8.08 8.08 0 015-1.37 17.27 17.27 0 014.2.49 10.12 10.12 0 013 1.14l1 5.41h5.93v-8.04a19.22 19.22 0 00-6.28-3.68 23.75 23.75 0 00-8.29-1.38 17 17 0 00-10.2 3.13A9.37 9.37 0 0028 40.71a9.13 9.13 0 003.63 7.64zM91.73 58.93h-6.01l-.36 4.71H72.64V52.38h13.35v-6.09H72.64v-9.91h12.62l.35 4.71h6.06v-10.8H60.54v4.77l4.2.81v28.29l-4.2.81v4.74h31.19V58.93zM113.71 70.28a24.45 24.45 0 009.29-1.53 17.43 17.43 0 005.6-3.43V50.19h-13.54v5.55l5.63.43v6.69a8.51 8.51 0 01-2.31 1 15.07 15.07 0 01-3.86.4q-5.31 0-8.12-3.58T103.58 51v-1.38q0-6.16 2.87-10a9.48 9.48 0 018-3.81 13.7 13.7 0 014.08.55 8 8 0 012.85 1.48l1.11 5.27h5.85v-7.92a18.16 18.16 0 00-6.38-4 23.41 23.41 0 00-8.46-1.48 16.44 16.44 0 00-12.89 5.55q-5 5.55-4.94 14.41V51q0 8.55 5 13.9a17 17 0 0013.04 5.38zM162.22 58.69h-6.04l-.38 4.95h-11.12V35.87l4.22-.81v-4.77h-16.33v4.77l4.2.81v28.29l-4.2.81v4.74h29.65V58.69zM302.67 38h-1.18v.42h-.23v1.26a3.47 3.47 0 012.11 2.3H305a3.17 3.17 0 00.35-.62 1.4 1.4 0 00.24-.43h.11l-.09-.07a2.87 2.87 0 00.09-.35h.23l-.23-.2c-1.35-.94-2.29-.83-3.03-2.31zM293.08 57h-.24v.42a1.64 1.64 0 00-.23 1h.93V58h.24v-.41a1.67 1.67 0 00.23-1.05h-.93zM284.19 31.7c0-.14-.05-.29-.09-.44h.32c-.08-.41-.15-.83-.23-1.25-1.15-.42-1.75-1.19-2.81-1.46a1.65 1.65 0 00-.93-.21v.44h-.24v.62c1 .65 1.67 1.78 3 2.09a1.76 1.76 0 00.98.21zM303.26 33.79h.11a4.83 4.83 0 00.23-1.67 1.75 1.75 0 01-.74-.63h.28v-.41h.23v-.63h-.94c-.45-.61-1.07-.91-1.46-1.54a1.1 1.1 0 001-.76 1.37 1.37 0 00.25-.42H302c-.37-.56-1.11-.46-2.1-.42-.36.48-.64.57-.83 1.08a2 2 0 00-.34.81c.93.91 1 1.86 2.29 2.48a1.22 1.22 0 01-.07.17 2.14 2.14 0 00-.35 1.53 4.63 4.63 0 002.58.83q.02-.21.08-.42z"/><path class="cls-1" d="M292.61 34c-.53.44-2.39.1-3.51.42-.37-1-1-1.07-1.17-2.3a10 10 0 00-1.64 0v.63l.94.41a4.37 4.37 0 01-1.17 1.05c-.63-1-1.23-2.26-3-2.3-.09.44-.06.41-.24.63a2.09 2.09 0 01-1.21 1.46c-.4-.36-.64-.31-.93-.84 1.09.26 1.64.12 1.64-1.25a7.15 7.15 0 01-2.32-1.46h-1.16c.07.63.16 1.25.23 1.88l-.23.21h-.47v-2.09a4 4 0 00.93-.42c-.55-.43-.34-.53-1.4-.63-.71.73-1.43.51-2.57.63v.84c-.24.42-1.08.3-1.41.62-.61.62-.14 2-1.16 2.51s-.9-.54-1.64.42c-.18.22-.14.2-.23.63 2.61.06 1.76-.28 3.51-.84l5.14-.42a4.63 4.63 0 01.23 1.67c-.17.23-.13.2-.23.63 2.11.54 3 1.76 5.38 1.88v-.83c.58-.32.53-.48 1.4-.63.62.55 3 1.63 4.44 1.26.29-.08.2-.57.94-.42a3.4 3.4 0 001.17.42 2.41 2.41 0 01.24-.21c.21-1.37.76-2.1.46-3.56zM293.65 28.51a1.42 1.42 0 01.05-.16h.08a3.1 3.1 0 00.23-.84l-.23-.21h-.94c-.27.35-.29.24-.41.62-.14.15-.16.14-.29.64l.28.07a1.19 1.19 0 01-1-.07c-.08-.28-.16-.56-.23-.84h-1.39c-.06.14-.12.28-.19.42a9.92 9.92 0 00-.94 2.72c.24.07.47.13.7.21 1.47 1 1.69-.61 3.51-.21a8.46 8.46 0 002.81.62l.15-.41h.08l.24-.63c.17-.22.14-.2.23-.63-1-.26-1.42-1-2.34-1.25a1.51 1.51 0 00-.4-.05zM283.72 22.71a2 2 0 00.23-.4 3 3 0 00.46-1.67h.48v-.41h.23v-.63h-.93a5.08 5.08 0 00-.63-1.3c.06-.07.07-.13.1-.3a.41.41 0 00.21-.28h.79v-.42h.23v-.84h-1.17v.42h-.23v.29a2.34 2.34 0 00-1.49 1.26 2.12 2.12 0 00-.4 1.15l.24.21h.7V20h-.47v.41h-.23v.42c-.16.21-.06.65 0 .89-.4.32-.86.33-1.09 1a1.45 1.45 0 00-.29.61 3.69 3.69 0 00.93.21c.87-.62 1.83-.15 2.33-.83zM229.46 28.36h.7v.63h-.7zM237.41 21.67h.24v-.84h-.71v.42h-.23v.84h.7v-.42zM286.99 19.79h.24v-.63h-1.17v.42h-.23v.63h1.16v-.42zM247.23 9.52H247v.63l2.11-.21v-.37h.23v-.66c-.7.08-1.41.15-2.11.21zM227.91 26.89h-.32c.07.35.15.7.23 1.05h.23v.42h-.23V29h.7v-.41h.24v-.63h.24a3.15 3.15 0 00.15-.42h.09a3 3 0 00.23-.83l-.23-.21h-1.41c.03.13.06.27.08.39zM233.2 15.4h-.23v.63h.7v-.42h.23v-.63h-.7v.42zM305.63 15.19h-.16c-.08.42-.15.84-.23 1.25h.7c0-.14.05-.28.08-.41h.15l.24-1.26h-.7c-.03.14-.06.28-.08.42zM350.38 78.12h.23v.42h-.23zM350.15 78.53h.23v.42h-.23z"/><path class="cls-1" d="M190 0H0v100h380V0zm-8 91.7H8.3V8.3H182zm182-31.77l-.24.2v.21c-.19-.21-.08-.05-.23-.41zm-2.11.83c.48-.08.45 0 .7-.21.48.08.45.05.71.21h-.3a2.14 2.14 0 01-1.17.21zm-.7.42a.77.77 0 000 1c.34.91.94.77 1.4 1.46h-.7c-.25-.18-.58 0-.93-.21-1.16-.61-.39-1.42-2.58-1.46l-.23.21v.62a5.42 5.42 0 01-2.81-.83 2.48 2.48 0 00.23-1.47 5 5 0 00-3.27-.83 4.81 4.81 0 00-.93-2.09c.71 0 .64-.16.93 0h.46c.33.92.24 1.44 1.41 1.67l.23-.21v-.63c1.92-.09 5.85 1.44 6.74 2.77zm-10.34-1.88c-1.18 0-2.07.18-2.34-.21a5.42 5.42 0 012.34.21zm-1.4-3.56a1.58 1.58 0 01-.24 1.89 5 5 0 01.24-1.89zm-1.64-19.23v1.05h-.24v-.21a2.14 2.14 0 01-.93-1.47c1.22-.42.88-1 2.81-1V34c.48-.08.44 0 .7-.21a3 3 0 00.23-1.67A3.93 3.93 0 01349 29h.24c.83.66 2.08.29 2.34 1.05-.54.34-.35.45-1.17.63.12 1.46 1.95 3.21 1.4 4.39a12.26 12.26 0 01-4 1.44zm-1.17 21.12V58h-.94c.06 1.31.52 1.4.7 2.51h-.7v-1l-.23-.21h-.71v1.25h-.46v-.42c.22-.38.16-2.36.7-3.55a11.9 11.9 0 012.34 0v.21h-.23c-.36.15-1.3-.12-1.88.21-.19.24-.18.35-.23.84.54-.07 1.09-.15 1.64-.21zm-1.64 4.8v.21c-.41-.13-.23 0-.47-.21zm2.34.21c.48.08.45 0 .7.21h-.47l-.23.21zm0-9.19v-.21c-.2-.2-.25-.66-.47-.84h-.7a5.62 5.62 0 00-.24-1.88c-1.21-1.88-1.9-2.31-1.87-5h.24c.25.16.22.12.7.21a7.17 7.17 0 01-.24 2.09 8.07 8.07 0 011 .63h.67V49a5.65 5.65 0 011.85 4 3.74 3.74 0 01-.94.45zM348 62c.6.3.26-.05.47.62H348zm.24-34.29l.69.21v.21c-.51-.13-.34-.07-.65-.4zM331 11.84h-1.64a2.25 2.25 0 01-1.64-.42 6.77 6.77 0 013.28.42zm-32.05-.63c.42-.13.23 0 .47-.2h.94v.41h-1.41zm0 .43c-1.12.1-1.78.41-2.1 1.24-.18.23-.14.21-.24.63a4.17 4.17 0 01.94.63h-.94c-.39-.33-1-.5-1.4-.84a2.06 2.06 0 00.7-1.46c.9-.15 2.09-.77 3.01-.2zm-4.44-2.73c.48.31.3.33 1.17.42.4-.27.38-.36.7-.21h.23v.21c-1.07.15-2.07.4-2.8-.21.45-.07.42-.05.67-.21zm-2.81.63a1.65 1.65 0 01-.94-.21 1.8 1.8 0 01.91.21zm-13.8.42c.49-.26 1.86-.14 2.34-.42h3v.21c-1 .54.28.73-1.4.84-1-.51-1.47.35-2.11.21l-2.1-.63zm-7.25 12.33c.41-.62 0-.67-.23-1.25l1.87-.21c.11.39.41.46.47.63l-.24 1c.46 1.06 1.7 1.13 1.88 2.72a3.86 3.86 0 01-1.41.42 1.54 1.54 0 00-1.4 0 8.19 8.19 0 01-.24-1.67c.49-.08.45 0 .71-.21h.23v-.63l-1.4.21c-.16.42-.32.84-.47 1.25l-1.64.21v-.21c.27-.38.12-.87.24-1 .5-.48 1.24-.55 1.6-1.26zM229 10.8a5.53 5.53 0 001.64.41c.08-.43.06-.4.23-.62a2.83 2.83 0 011.17-.42v.21c-.42.33-.33.18-.47.83a4.41 4.41 0 01.94.63h-3c-.62.57-2.72 0-3.51-.63zm-35.08 5.64a3 3 0 001.4-.83c.86.13 1.72.27 2.57.42v.2c-1.72.09-1.53.85-2.8 1.26-.37-.49-.78-.61-1.18-1.05zm1.4 3.56c-.41-.14-.23-.05-.47-.21h.47zm.7-1.89c-.41-.13-.23 0-.47-.2h.45zm48.18 71.5h-.2v.21a4.47 4.47 0 01-.94-.42h1.17zM253.08 20c-.68-.29-1.32-.56-2.11-.84A8.92 8.92 0 01250 16a1.43 1.43 0 00.93-1.26c-.56-.37-.07-1.69 0-2.93l-.46-.2c-.9-.65-2.07-.27-3.51-.22a2.18 2.18 0 00-1.87-1.25c-.53.42-.87.09-1.64.42-1.69.71-1.11 1.47-4.21 1.46v.63h2.81c.67 1 1.92 1.33 3 1.88-.32.4-.3.18-.47.84a3.25 3.25 0 011.64 1h-.47l-.7.63a2.68 2.68 0 00-1.41-.42c.18.77.34.59.47 1.46l-.23.21h-.7c-.09.44-.06.4-.24.63-.55-.38-1.19-.28-1.87-.63-.21-.11-.3-.74-.46-.83-.55-.3-1.68 0-2.11-.21h.23c.33-.19 1.31-.23 1.64-.42s.18-.35.24-.83a2.72 2.72 0 01-.71-.42c.59-.31.36-.1.47-.84a6.29 6.29 0 01-1.87-.21v.63a10 10 0 00-2.11 1.46c-.17.23-.14.2-.23.63.48.25.44.14.7.63-.95.13-1 .41-1.4.62a2.44 2.44 0 01-.93.21v-.21h.94v-.62c-1 .16-.49.2-1.41.2v-.2c.18-.23.14-.2.24-.63h-.7v.63c-1.92 0-4.76 1.19-4.91 2.71a1.74 1.74 0 01.23 1.05 17.55 17.55 0 014 1.25 3.09 3.09 0 000 1.88h1.16l.24-1.67c1.65-.39 2.55-2.43 2.57-4.18-.41-.13-.23 0-.47-.21h.47V19c.48-.08.45-.05.71-.21.34-.33.17-.38.7-.63v.63a5 5 0 011.4 0 3.53 3.53 0 011.4 1.05c-.43.32-.33.18-.46.83a5.14 5.14 0 002.57-.62c.05.2.32 2.27.46 2.5.48.78 1.5.25 1.88 1.88a2.4 2.4 0 00-.71 1.68c.94.33 1.13.26 1.17 1.46l-.23.21a12.46 12.46 0 00-2.81-.42v-.62c-1.77.07-1.93.17-3.27.2v.63a2.63 2.63 0 002.1.63l.24-.21v.42h-.47c-.61.62-2.26 1-3 1.46V29a16.29 16.29 0 00-2.81.84 3.1 3.1 0 00-.23 1.05c.18.21.08.05.23.41-1.7-.41-3.61 1.32-4.21 2.51v1.26l-1.16.21a19.66 19.66 0 00-3.05 2.3l.24 3.55-.47.21-.23.21a11 11 0 00-.71-3.14c-1.26-.09-1.74-.39-3.27-.42v.84c-2.15-.21-4-.56-4.91 1.25-1.14 1.42-.93 3.76-.24 5.23a5.61 5.61 0 002.81.21 16.28 16.28 0 00.94-1.67l1.63-.21c-.23 1.29-.94 2.14-1.17 3.56 1.32.29 2.58-.38 2.81 1.25a3.86 3.86 0 00-.47 2.3c.79.47.74.77 2.1.84.88-.57 1 0 2.35.2.56-1.38 1.71-1.64 3-2.3v.63c.56-.07.8-.55 1.17-.42.06 0 .31.77.46.84a7.2 7.2 0 002.34.41c.19-.67-.11-.31.47-.62a2.77 2.77 0 001.41.21v1c.86.48 1.51 1.74 2.33 2.08.56.24 1.14-.21 1.41-.2s.84.35 1.17.41c.85 1.13 1.57 1.55 1.4 3.14 1.7.74 8.47 2.87 8.89 4.18a2 2 0 01-.24 2.09c-.42.7-1.53 1.34-1.87 2.09v2.93a15 15 0 01-1.4 3.14c-1.65.11-3.07.66-3.51 1.88-.31.54.33.86 0 1.67-.57 1.37-1.83 2.67-2.57 4a3.38 3.38 0 00-1.64.21c.73.86.48 1.16.23 2.09l-2.1.42c-.12 1.88-1.34 2.91-1.64 4.81l1.17.21v.62a3.16 3.16 0 00-.93 2.09c1 .56 1.37 1.36 2.57 1.89v.2l-1.41.21c-1.1-.76-2.8-.73-3-2.3h-.7a12.06 12.06 0 00-1.64-2.92c-.11-.15.85-1.46.47-2.09l-.7-.21c-1.1-2.06-.47-6.67-.93-8.57-.54-2.23.76-5.55-.47-7.11-.83-.85-2.59-1.19-3.27-2.09-1-1.28-1-2.78-1.88-4.18-.49-.84-1.22-.81-1.4-2.1 0-.71.31-.27.46-.62.33-.69-.81-1.49 0-2.72l1.64-1.46c.62-1.13-.34-2.81-.46-3.56h-1.18a2.24 2.24 0 01-.23.84 28 28 0 01-3-1.88c-.47-.71 0-1.45-.7-1.89l-2.57-.62c-.38-.25-.48-1.08-.94-1.26l-2.34.22c-1-.34-3.72-1.89-4-2.93.7-1-2.09-4.92-3.27-5a26 26 0 00.7 2.93c.26.35.42.22 0 .41v-.41h-.23l-.23-.21a7.94 7.94 0 00-1.41-2.3c.82-.49-.46-2.88-.7-4a3.69 3.69 0 00-.93.21v-1c-2.19-3.1 2.22-5.42 2.57-7.74.12-.78-.63-.8-.7-1.25-.09-.6.75-1.05.47-2.09s-.88-2.18-1.17-3.55h-.47c-1.9-1.15-4.78 0-7 0 0 .63.18.57 0 .83-.74.59-1.52.28-2.81.21v-.84a3.3 3.3 0 00-.93.21c-.08-.49-.16-1-.23-1.46 1.46-.34 2.66-1.1 4.44-1.25v-.63a8.33 8.33 0 01-1.64 0c-.19-.22-.08-.06-.23-.42l.23-.21c1.94-.09 1.46-.26 3 0-.08-.49-.15-1-.23-1.46h.47c3.28-1.9 8.87-1 11.93-.21 1.47.38 3.21-.59 4.44-.63 1.07 0 3.21.55 5.14.63v-.42c.27-.38.08-.63.24-.84a1.76 1.76 0 00-.94-.21 2.14 2.14 0 01-1.17.21l-.23-.42c1.65-.39 2-1 4.44-1 1.56 1.45 4.3.14 4.68.42h.24v.2c-.86.15-.65 0-.94.63-.17.23-.14.2-.23.63l.93.21v.21a14.4 14.4 0 01-2.1.42v.63c1.94 0 2.85-.86 4.21-1.47v-.21a2.39 2.39 0 01-1.17-.83 11.85 11.85 0 014-.63v-.63a14.46 14.46 0 01-2.8-.2v-.43c.19-.21.08-.05.23-.41a14.3 14.3 0 004 1v-.63h-.94c0-.83 0-.65-1.4-.62-.18-.14-.53-.27-.71-.42h.24a2.24 2.24 0 011.17-.21c.66.54 1.87 0 1.87 0 .38.37.41.53.46 1.25h1.18c-.09-.91-.3-.85-.47-1.67h.47c1.17-.91 3.56-.47 5.38-.83a21.11 21.11 0 016.78-.21c.5.11.94.56 1.87.41 3.28-.5 13.21-1.17 15.67.21-1.27.06-1.74.43-2.1 1.26a2.64 2.64 0 00-.23 1.46c-.79.28-.95.65-1.88.84v1.46c-4.81 1.67-9.01 1.93-11.5 5.82zm-19.41 25.29v.21c-1.3.12-2 .62-3 0 .59-.31.26 0 .47-.63.79 0 1-.19 1.4 0 .57.13.52.25 1.13.42zm-4.91-.62V44a9.05 9.05 0 01-1.41-.84c-.81-.41-1.88 0-2.34-.21h.24a4.75 4.75 0 012.1-.21 8.36 8.36 0 002.81 1.47l-.23.2a2.25 2.25 0 01-1.17.26zm.23 1.25c-.63.19-.78-.13-.47-.42zm-21.52-22.58h.47l-.23.21v.21c-.19-.22-.09-.06-.24-.42zm55.9-6.9a10.21 10.21 0 003.75 0c.14.37 0 .2.23.42v.42c-1.35.39-5.09 1.3-3.98-.84zm37.19 56.45l-1.17.21a2.56 2.56 0 01-.47-1.67c-.3-.68.52-1 .71-1.68s-.18-1.57 0-2.3a3.64 3.64 0 002.8-2.51c1.34 1.3-1.02 6.41-1.87 7.95zm21.05-19.65c-.41-.14-.23-.05-.46-.22-.49-.6-.32-.9-.24-1.67a1.87 1.87 0 01.93 1.67zM332.37 56c-.49-.75-1.59-1.23-2.11-2.09h.94A4.65 4.65 0 00334 56c-.29-1.15-.88-1.58-.94-3.13h-.23c-.38-.49-.35-.49-1.17-.63.15-1.95.2-4.08-.94-5.44-.25-.15-.22-.12-.7-.2-.39.46-.4.63-.94.41-.85-1.27-1.12-3.72-3-4-.53.53-1.2.17-1.86.63v.21c-.7.71-1.15 1.61-1.88 2.3-.39.37-1.62.82-1.87 1.25v.84c.47.65.05 1.88 0 2.93-.7.27-.74.63-1.17.62-1-1-3.21-6-3.27-7.94-.8 0-1 .19-1.41 0-1.43-.78-1.45-2.5-3.5-2.72-1.3.78-4-.21-5.15-.42v1.05c.94.44 1.87.75 2.11 1.88-.38.4-.32 1-.71 1.46a26.22 26.22 0 01-5.85 3.55c-.52-1.08-.78-.09-1.86-.62-.5-.24.21-.44-.94-.63-.31-.83-.63-1.67-.94-2.51-.36-.45-1.35-.71-1.63-1.25l-.27-1.64-.7-.21c-.33-.47-.44-1.64-.94-1.88h-1.16c.2 1.59 1.2 2.3 1.87 3.34.15.76.31 1.53.46 2.3h.47c.35.44.13 1 .47 1.46a45.38 45.38 0 003.28 3.35c.83.47 3.67-.5 3.74-.42a2.54 2.54 0 01.23 1.46c-.86.84-.9 2.16-1.64 3.14-1.35 1.81-4 3-4.91 5.23-.54 1.4.46 5.24.47 6.69 0 1.24-3.32 2-3.74 3.76.67.84.25 1.62 0 2.51-2.23.88-.66.7-1.64 2.3-1.51 2.46-4.36 4-8.19 3.76a6 6 0 00-.7-3.55l-.93-.84-.24-3.4c-.33-.77-1.41-1.85-1.63-2.71-.5-1.89 1.8-2.77 1.4-4.6a13.39 13.39 0 00-1.17-4c-.35-.56-1.43-.94-1.64-1.68.16-1 .32-2.09.47-3.13-.83-.18-.47-.42-.94-.63l-1.4.21c-.15-.42-.31-.84-.47-1.25h-2.33c-1.21.85-3.51.83-5.38 1L265.94 52v-.83l-1.87-1.68c-.33-.64-.2-1.22-.46-1.67 1.36-1.13 0-3.08.46-4.6a21.41 21.41 0 012.35-3.55c.45-.35 1.25-.23 1.63-.63.56-.59.13-2 .7-2.51 1-1 1.55-.29 1.87-2.3-.19-.21-.08-.06-.23-.42H269c-.1-1.55.06-2.13 0-3.76h.46c.74-.42 2.29 0 3.51 0a6.12 6.12 0 00.23-2.09 8.17 8.17 0 01-1.87-1.05h.47c1-.67 3.63-1.24 4.22-2.3.17-.22.13-.19.22-.62l1.88-.21c-.06-1.16-.29-1.29-.24-2.09.42-.13.23 0 .47-.21a4 4 0 011.17.62V21a2.94 2.94 0 00-1.64-.42c-.53.53-.57.34-1.4.21v-.42a3 3 0 01-.24-1.67 7.39 7.39 0 004-2.71c.35-.65-.4-.48 0-.84 3.49-2.53 7.76-.28 11.46.62v.63h-2.6v.63c.41.13.22 0 .47.21 1.62-.21 2.1-.7 3.74-.84a2.84 2.84 0 00-.47-1.25h.47c.34.43.36.27.47 1 1.11-.13 1.11-.56 1.87-.83a10.9 10.9 0 013.51-.21v-.63l3 .42a5.28 5.28 0 01.24-2.3h.24v.2c.69.34.77.65 1.63.84.56-.51.74-.1 1.64-.42.18-.05.39-.58.47-.62h1.4l.24-.63c.78-.54 1.59-.27 2.56-1 .37-.29.21.37.24.41a5 5 0 001.87-.21h.31c-.09-.43-.06-.4-.24-.62-1.4-.79-4.17-.3-5.38-1.26a25.77 25.77 0 015.85.84c.73.36 1 .78 1.87 1 1.11.33 2.4-.22 3.28.21.44.22.67 1.06 1.17 1.26 1.83.75 4.52-.47 6.31 0 .66.17.95.77 1.41 1 .85.52 2.82 0 4.2 0v-1c-.48-.08-.45 0-.7-.21.49.08.45 0 .7.21h.47c1 .92 2.17.12 3.75.62.32.11 1.49.75 1.86.84l2.81-.21c1.05.25 2.52.7 3.51.84l5.62-.21c3 .68 4.16 3.14 6.54 3.76v.21c-1.74.08-1.3.72-2.34 1.26a2.63 2.63 0 00-1.4-.21c-.23.55-.3.36-.47 1 .82.78 3.06 3.11 1.64 5-.37-2.2-3.24-2.18-3.75-4.39a3.86 3.86 0 00.48-2.3c-.81.07-1.09.49-1.64.42a4 4 0 00-1.64-.42l-.23.21c0 .66.11 1.09 0 1.25v.21c-1.22-.35-4.08-.74-5.15 0a4.78 4.78 0 00-.7 2.51 10.24 10.24 0 012.81.63c.95.26.84-.54 1.16-.21a12.14 12.14 0 013.2 3.28l-.23.2-.47-.2c-.32-.54-.52-.55-.7-1.26h-.71c.28 1.5.88 3.38-.23 4.6-.58.31-1.25.08-1.64.63a4.93 4.93 0 00-.7 2.09c1.26.33 1.56 1.15 2.34 1.88v.42l-1.4.41a4.28 4.28 0 00-2.26-3.13c-.77-.42-1 0-1.64.21-.31-.44-.38-.38-1.17-.42a2.06 2.06 0 00-.46 1.26l.23.2a4.74 4.74 0 012.57.42c-.93.18-1 .4-1.17 1.26 2.68 1.9 2.36 2.57 2.11 5.85-1.43 1-2.33 2.19-4.68 2.51 0 .73.32 1.19.23 1.25-.07.21-.15.42-.23.63-.41-.13-.23 0-.47-.21l-.23-.21c.47-.36.43-.44.46-1.25a5.4 5.4 0 00-1.64-.21l-.22.63c-.39.37-.41.52-.48 1.25 1.41 1.16 2.73 2.41 2.58 4.39a4.05 4.05 0 00-1.88 1.68h-.22v-.84H335a2.58 2.58 0 00-2.58-1.67c-.18 1.87.24 2.32.7 3.76h.47V53c1.2.72 1.27 1.9 1.87 3.14h-.7c.17 1 .56 1 .7 2.09h.94c.21.46.2.3.46.63-.48.38-.56 1.21-.7 1.88h-.46v-.21c-1.95-1.11-2.15-2.77-3.33-4.53zm11.46.63c-.95.44-1.35 1.72-1.4 2.93a7.82 7.82 0 01-3.28-.63 6.91 6.91 0 01-.93-2.51 5.11 5.11 0 011.4-.21c.08-.43.06-.4.24-.62a11.09 11.09 0 002.8-2.52l.23.22c.6.31.74.31.94 1a1.36 1.36 0 000 2.29zm0 6.06c-.73 0-.94.13-1.17 0-.41-.13-.23 0-.47-.21a3.38 3.38 0 011.64.16zm-.23-19.86c-.24-.17-.07-.07-.47-.21V42c.18-.22.08-.06.23-.42h.47v1.25zM336.11 61h1.17c.9.75 2.19.64 3.74.63v.63c.49.07.45 0 .71.2h-.24v.21c-1.69-.47-4.67-.35-5.38-1.67zm17.54 22.37a3.66 3.66 0 01-1.63 1v-.63c.18-.25.18-.35.23-.84.84.11 1.3 0 1.64.42zm2.58-2.51c-1.79.15-4.36 1.46-5.15-.42.18-.24.18-.35.24-.83a4.55 4.55 0 00-1.41.2c-.33-1.87-.84-3-3.51-2.92a39 39 0 01-7.48 2.11c-.52-.19-.34-.18-.7-.42 1.78-2.06 0-2.63.7-5.22.23-.77.47-1.54.7-2.31.51-.1 4.27-1.22 4.68-1.46s.35-1 .7-1.46c0-.06 3.08-2 3.28-2.09.38.6.33.58 1.39.63a8.12 8.12 0 011.18-2.31v.63a14.93 14.93 0 013-.21c-.18 1.09-.59 1.13-.7 2.3a4.11 4.11 0 002.1.63v.63h.7c.39-1.22 1-2.89 1.41-4.18h.23c.07 2 .72 1.62 1.17 2.51v2.5c.14.25 1 .4 1.17.63a25.41 25.41 0 011.64 3.77c-.75 1.06-.66 2.37-1.41 3.34-1.09 1.42-2.94 2.19-3.93 3.92zm5.38 5.44v-.21h.23c1-1.21 2.79-1.25 4.21-2.09a10.4 10.4 0 001.87-1.88v.83c.49.08.45 0 .7.21-2.84.46-3.79 2.97-7.01 3.11zm10.05-5h-.23a8.44 8.44 0 01-2.57 1.67v-.21c.19-.27-.06-.77 0-.84.3-.42 1.15-.47 1.4-1s0-1.27.23-1.67v.21h.24c-.21.62-.08.82 0 1.67h.93z"/></svg>