<svg data-name="Layer 1" xmlns="http://www.w3.org/2000/svg" viewBox="0 0 800 800"><path d="M429.7 554.4h-.7v1.14c-.58.73-.6 1.39-.66 2.82h2.69v-1.13h.67v-1.13c.58-.73.6-1.4.67-2.83h-2.67zM402.83 461.52a4.21 4.21 0 00.65-1.11 7.84 7.84 0 001.3-4.53h1.39v-1.12h.68V453h-2.69a13.62 13.62 0 00-1.8-3.52 1.6 1.6 0 00.28-.8 1.11 1.11 0 00.6-.78h2.26v-1.13h.67v-2.27h-3.36v1.14h-.67v.78a6.7 6.7 0 00-4.25 3.48 5.46 5.46 0 00-1.13 3.1l.68.57h2v.57h-1.34v1.13h-.67v1.13c-.45.56-.17 1.76 0 2.41-1.15.86-2.47.89-3.16 2.73a3.68 3.68 0 00-.83 1.66 10.81 10.81 0 002.67.56c2.51-1.67 5.28-.41 6.72-2.24zM428.36 492.1c-1.52 1.19-6.86.26-10.08 1.13-1-2.7-2.88-2.89-3.36-6.22a25.45 25.45 0 00-4.7 0v1.7l2.69 1.12a12.18 12.18 0 01-3.37 2.85c-1.79-2.76-3.53-6.15-8.73-6.24-.24 1.17-.16 1.09-.67 1.7a5.78 5.78 0 01-3.36 4c-1.16-1-1.86-.85-2.69-2.27 3.14.69 4.71.32 4.71-3.39a21 21 0 01-6.73-4h-3.34c.21 1.7.45 3.4.66 5.09l-.66.58h-1.35v-5.67a12.85 12.85 0 002.68-1.13c-1.58-1.17-1-1.44-4-1.7-2 2-4.12 1.39-7.38 1.7v2.27c-.69 1.14-3.11.83-4 1.69-1.77 1.67-.42 5.31-3.35 6.8-2.49 1.27-2.57-1.47-4.71 1.13-.51.61-.4.54-.67 1.7 7.51.18 5.07-.74 10.09-2.25l14.78-1.15a12.49 12.49 0 01.65 4.53c-.49.61-.39.54-.65 1.7 6 1.46 8.53 4.76 15.44 5.09v-2.26c1.66-.88 1.53-1.31 4-1.71 1.76 1.5 8.71 4.41 12.76 3.41.82-.2.57-1.54 2.69-1.14.69.14 1.37 1 3.35 1.14.23-.2.45-.39.68-.56.63-3.72 2.21-5.7 1.35-9.64z"/><path d="M404.18 485.87c-.09-.4-.16-.8-.25-1.21l.91.08-.66-3.4c-3.31-1.15-5-3.23-8.08-4-.79-.46-1.13-.44-2.67-.57V478c-.2 0-.41 0-.67-.05v1.69c2.91 1.75 4.79 4.8 8.73 5.66.79.46 1.13.44 2.69.57zM431.35 477.21c0-.13.09-.27.13-.41h.24a7.34 7.34 0 00.67-2.27l-.67-.57H429c-.76.94-.84.64-1.16 1.68-.41.4-.47.38-.85 1.73l.82.21c-1.16.21-2.14.32-2.84-.21-.21-.76-.44-1.51-.66-2.27h-4c-.17.38-.35.76-.53 1.13h-.14a27 27 0 00-2.68 7.37l2 .56c4.21 2.62 4.84-1.65 10.07-.56 2.54.51 3.74 1.68 8.08 1.69.15-.38.28-.76.44-1.13h.21c.24-.56.47-1.13.68-1.7.51-.6.41-.53.68-1.7-2.86-.7-4.1-2.73-6.72-3.39a5.63 5.63 0 00-1.05-.16zM458.94 491.52h.33a12.62 12.62 0 00.66-4.52 5 5 0 01-2.13-1.71h.79v-1.13h.68v-1.7h-2.7c-1.31-1.64-3.07-2.45-4.2-4.17a3.11 3.11 0 002.85-2.06h-.06a3.94 3.94 0 00.73-1.13h-.67c-1.06-1.53-3.19-1.26-6-1.14-1 1.31-1.83 1.56-2.37 2.94a4.83 4.83 0 00-1 2.17c2.66 2.48 2.88 5 6.59 6.74a3.82 3.82 0 00-.21.46c-.81 1.07-1 1.81-1 4.13 2.42 1.2 3.4 2.1 7.39 2.27a9.28 9.28 0 00.32-1.15zM246.98 476.81H249v1.69h-2.02zM457.25 502.85h-3.37V504h-.68v3.4c2.39.86 5.71 3.55 6.07 6.24H464a7.33 7.33 0 001-1.68 3.5 3.5 0 00.69-1.16h.31l-.24-.2a8.11 8.11 0 00.24-.93h.66c-.21-.19-.45-.38-.66-.56-3.91-2.46-6.61-2.18-8.75-6.26zM269.82 458.68h.68v-2.26h-2.03v1.13h-.66v2.26h2.01v-1.13zM242.54 472.85h-.93c.21.94.45 1.88.67 2.82h.72v1.14h-.67v1.69h2v-1.12h.67v-1.71h.68c.19-.5.32-.74.43-1.13h.24a7 7 0 00.66-2.26l-.66-.57h-4c.04.42.13.8.19 1.14zM412.24 453.59h.67v-1.7h-3.37v1.13h-.65v1.71h3.35v-1.14zM257.72 441.69h-.66v1.71h2.02v-1.14h.66v-1.69h-2.02v1.12zM298 425.78l-.68.05v1.71l6.05-.57v-1.07l.67-.07v-1.69l-6 .56z"/><path d="M400 0C179.09 0 0 179.09 0 400s179.09 400 400 400 400-179.09 400-400S620.91 0 400 0zm146.56 350.05l15.3-3V244l-15.3-3v-17.37h59.52V241l-15.4 3v101.22h40.56l1.38-18.06h22v40.16H546.56zm86.69 212.28l-.68.56v.57c-.53-.58-.24-.15-.67-1.13zM609.06 564c-2.73-1.32-6.26-3-9.41-2.25-.36-2.94-1.61-3.69-2.67-5.67 2 0 1.83-.43 2.67 0H601c.93 2.49.68 3.91 4 4.53l.66-.56v-1.71c5.66-.37 16.94 3.77 19.5 7.36a2 2 0 000 2.84c1 2.47 2.69 2.1 4 4h-2c-.72-.49-1.67 0-2.68-.56-3.33-1.66-1.11-3.85-7.39-4l-.67.57v1.7a16.28 16.28 0 01-8.07-2.27c.75-.86.74-2.3.71-3.98zm-13.44-3.39c-3.36.1-5.93.49-6.71-.56 2.33-.05 5.4-.17 6.71.58zm-4.69-4.53a12.93 12.93 0 01.67-5.1c1.28 1.54.47 4.02-.67 5.12zm-4-57.21v2.85h-.67v-.58a5.75 5.75 0 01-2.69-4c3.53-1.15 2.54-2.74 8.07-2.83v-2.21c1.38-.21 1.29-.13 2-.57.77-1 .72-2.77.67-4.52-2.95-2.49-3.88-4.87-4-8.51h.68c2.37 1.79 6 .79 6.71 2.84-1.54.91-1 1.21-3.36 1.7.36 4 5.6 8.69 4 11.89a36.12 36.12 0 01-11.45 3.96zm-3.36 57.21v1.13h-2.69c.17 3.54 1.49 3.78 2 6.79h-2v-2.83c-.22-.18-.45-.37-.66-.56h-2V564h-1.35v-1.13c.66-1 .48-6.4 2-9.62 1.7-.36 3.63-.06 6.71 0v.55h-.66c-1 .42-3.72-.3-5.38.58-.55.67-.52 1-.67 2.27zm-4.7 13v.57c-1.18-.36-.65-.11-1.34-.57zm6.71.57c1.4.21 1.3.13 2 .57h-1.34l-.68.57zm0-24.92v-.56c-.55-.54-.71-1.77-1.33-2.27h-2s0-4-.68-5.09c-3.49-5.08-5.47-6.26-5.36-13.6h.66c.72.42.65.34 2 .57.12 3.36-.22 2.5-.67 5.66a21.94 21.94 0 012.76 1.7h1.93v1.47a14.94 14.94 0 015.4 11 10.77 10.77 0 01-2.75 1.16zm2 23.22c1.72.82.76-.12 1.35 1.7h-1.35zm.69-92.88l2 .56v.57c-1.62-.44-1.14-.2-2.02-1.09zm39 90v-.56c1.39-.22 1.29-.15 2-.58 1.39.22 1.29.14 2 .58h-.68c-.9.58-1.68.6-3.39.65zM412.15 294.29q0-32.27 18-52.5t47-20.23a85.06 85.06 0 0130.85 5.38 66.48 66.48 0 0123.25 14.55v28.92H510l-4.05-19.25a29.62 29.62 0 00-10.41-5.38 50 50 0 00-14.85-2q-18.86 0-29.31 13.92t-10.47 36.41v5.14q0 21.9 10.27 35t29.61 13.08a54.46 54.46 0 0014.06-1.48 31 31 0 008.44-3.46V318l-20.53-1.58v-20.25h49.44v55.17q-7 6.9-20.42 12.48t-34 5.58q-29.11 0-47.37-19.5t-18.25-50.67zm126.38 137.78h-4.71a6.86 6.86 0 01-4.7-1.14c3.49-.1 7.4-.09 9.41 1.14zm-88-2.27v1.13h-4v-.56c1.18-.36.65-.11 1.34-.57zm-8.06 8.5h-2.68c-1.15-.91-2.91-1.35-4-2.27a5.49 5.49 0 002-4c2.69-.41 6-2.08 8.75-.56-3.22.27-5.12 1.13-6.05 3.38-.52.62-.39.55-.67 1.71a11.22 11.22 0 012.64 1.74zm-10.74-13.6c1.39-.21 1.29-.13 2-.56 1.38.81.87.87 3.37 1.13 1.15-.75 1.07-1 2-.57h.67v.57c-3.08.39-5.94 1.07-8.05-.57zm-6.05 1.13c-1.57-.1-1.89-.1-2.69-.56a5 5 0 012.68.56zm-24.18 0v.58c-2.87 1.44.8 2-4 2.26-2.84-1.37-4.23 1-6.06.57l-6-1.7.56-.54c1.41-.72 5.33-.39 6.73-1.14zm-117.56-75.78l15.3-3V244l-15.3-3v-17.37h113.5V263h-22.11l-1.28-17.18h-46V282h48.66v22.21h-48.65v41.06h46.39l1.28-17.27h21.91v39.28h-113.7zm81.94 113.17c-.45 1.13-.9 2.26-1.33 3.39l-4.71.57v-.57c.78-1 .33-2.38.68-2.83 1.54-1.28 3.66-1.63 4.68-3.4 1.17-1.69.05-1.81-.65-3.4l5.36-.56c.34 1.06 1.17 1.24 1.35 1.7-.24.94-.45 1.89-.67 2.83 1.3 2.87 4.87 3.05 5.38 7.37-1.9.58-1.42.85-4.05 1.12-1.4-.78-2.54-.42-4 0-.37-3-.64-1.74-.66-4.52 1.4-.21 1.28-.14 2-.57h.66v-1.7zM180.22 233.05Q195 222 217.43 221.65a86.47 86.47 0 0130.2 5 69.58 69.58 0 0122.89 13.42v29.41h-21.61l-3.75-19.74a38 38 0 00-11-4.14 63.38 63.38 0 00-15.29-1.78q-11.85 0-18.31 5a15.56 15.56 0 00-6.47 12.88q0 7.3 6.77 12t23.34 9.92q23.77 6.62 36.07 17.47t12.28 28.52q0 18.47-14.6 29.12T219.5 369.4a83.38 83.38 0 01-30.84-5.4 63.58 63.58 0 01-22.95-15v-30H188l3 20.43a35 35 0 0011.8 5.88 56 56 0 0016.63 2.31q11.83 0 18-4.83a15.59 15.59 0 006.17-12.93 16.67 16.67 0 00-5.87-13.32q-5.88-5-20.58-9.48-25.56-7.39-38.69-17.56t-13.12-27.84q.08-17.5 14.88-28.61zm75.49 199H247c-1.78 1.54-7.8-.11-10.07-1.7l8.74-1.13c1.25.28 2.16 1 4.7 1.13.24-1.17.16-1.09.67-1.7a8.63 8.63 0 013.34-1.13v.56c-1.21.89-.93.51-1.35 2.27a11.68 11.68 0 012.68 1.72zm-106.8 10.19c2.46.38 4.93.75 7.37 1.14v.62c-4.92.23-4.38 2.28-8 3.4-1-1.43-2.21-1.64-3.36-2.84a8.78 8.78 0 003.99-2.3zm0 11.9c-1.19-.36-.66-.12-1.36-.57h1.36zm2-5.1c-1.19-.36-.65-.11-1.35-.57h1.35zM289.3 642.75h-.67v.57a13.11 13.11 0 01-2.69-1.14h3.36zm25.52-188.59c-1.94-.79-3.8-1.51-6-2.27a22.5 22.5 0 01-2.68-8.49c1.74-.95 2.22-1.23 2.68-3.4-1.61-1-.21-4.59 0-7.93-.45-.19-.89-.39-1.34-.56-2.58-1.74-5.94-.73-10.08-.58-1.33-1.76-2.05-3.09-5.36-3.39-1.52 1.13-2.51.25-4.71 1.13-4.87 1.94-3.2 4-12.09 4v1.69h8.05c1.94 2.63 5.52 3.61 8.75 5.1-.91 1.08-.86.5-1.36 2.26 1.74.66 3.8 1.4 4.7 2.83H294l-2 1.7a7.9 7.9 0 00-4-1.15c.51 2.08 1 1.58 1.35 4l-.67.57h-2c-.26 1.17-.16 1.08-.68 1.69-1.57-1-3.43-.75-5.37-1.69-.62-.31-.88-2-1.34-2.27-1.56-.8-4.81.11-6.05-.57h.67c.95-.51 3.77-.61 4.71-1.13.53-.66.51-1 .67-2.26a7.55 7.55 0 01-2-1.14c1.7-.83 1-.24 1.35-2.26-3.28.05-2.09-.12-5.38-.57v1.69c-1.33.8-5.19 2.78-6.05 4-.51.6-.41.53-.67 1.69 1.39.68 1.27.39 2 1.7-2.72.38-2.8 1.14-4 1.69a8.06 8.06 0 01-2.66.55v-.55h2.66v-1.69c-3 .46-1.38.55-4 .57v-.57c.51-.61.41-.54.68-1.7h-2v1.7c-5.5-.11-13.67 3.25-14.11 7.36.59.74.6 1.4.68 2.83 4.25.44 7.5 2.14 11.41 3.4-.75 1.85-.33 3 0 5.1h3.35c.23-1.51.45-3 .68-4.53 4.74-1 7.33-6.59 7.38-11.33-1.17-.35-.64-.1-1.34-.57h1.34v.57c1.39-.21 1.3-.14 2-.57 1-.88.51-1 2-1.69v1.69c2.12-.05 3.5-.26 4 0 1.4.7 3.23 1.58 4 2.84-1.23.89-.94.5-1.34 2.26 4.41 0 4.72-.84 7.39-1.69.15.55.92 6.16 1.33 6.79 1.38 2.11 4.3.66 5.38 5.1a6.32 6.32 0 00-2 4.53c2.71.89 3.24.71 3.36 4l-.66.57c-3.58-.6-3.57-1-8.07-1.14v-1.69c-5.08.2-5.54.47-9.4.57v1.69c2 1.22 2.12 1.7 6 1.7l.67-.57v1.14h-1.34c-1.76 1.69-6.49 2.81-8.73 4v-2.41c-3.52.36-5.06 1.56-8.06 2.27a8.13 8.13 0 00-.68 2.84c.54.57.25.15.68 1.13-4.88-1.11-10.36 3.56-12.11 6.79v3.4l-3.33.57c-3.07 1.55-6.15 4.18-8.74 6.24q.34 4.8.67 9.62l-1.35.56-.66.58a28.1 28.1 0 00-2-8.51c-3.63-.25-5-1.07-9.4-1.14v2.27c-6.17-.55-11.6-1.52-14.11 3.4-3.26 3.85-2.67 10.17-.67 14.16 2.86 1.07 3.87.71 8.08.57a42.26 42.26 0 002.67-4.53l4.69-.57c-.65 3.5-2.7 5.8-3.34 9.64 3.79.81 7.38-1 8 3.39-1.19 1.44-1.33 3.84-1.34 6.23 2.25 1.27 2.14 2.08 6 2.27 2.51-1.54 2.88.1 6.73.56 1.63-3.76 4.91-4.44 8.73-6.23v1.7c1.61-.19 2.32-1.49 3.36-1.13.18.06.91 2.09 1.34 2.27 2.2.9 4.39.92 6.72 1.12.55-1.84-.33-.85 1.34-1.7 1 .54 2.21.57 4 .58v2.83c2.5 1.32 4.35 4.73 6.71 5.66 1.59.63 3.28-.57 4-.57.38 0 2.41 1 3.35 1.13 2.45 3.05 4.52 4.19 4 8.5 4.9 2 24.33 7.78 25.53 11.32 1.26 1.72.31 4.11-.67 5.67-1.23 1.91-4.4 3.63-5.38 5.66V585a38.5 38.5 0 01-4 8.5c-4.72.32-8.8 1.81-10.07 5.1-.9 1.48.95 2.35 0 4.53-1.64 3.72-5.26 7.25-7.39 10.76-1.95 0-3.68 0-4.71.57 2.1 2.32 1.37 3.14.67 5.66l-6 1.13c-.35 5.09-3.84 7.9-4.7 13l3.36.57v1.69a8.3 8.3 0 00-2.69 5.66c2.93 1.51 3.94 3.68 7.39 5.11v.56l-4 .56c-3.17-2-8.05-2-8.74-6.23h-2c-.41-1.73-3.48-6.5-4.71-7.92-.32-.39 2.43-4 1.35-5.66l-2-.57c-3.16-5.58-1.36-18-2.68-23.22-1.54-6 2.2-15-1.35-19.26-2.37-2.29-7.42-3.22-9.39-5.66-2.82-3.45-3-7.53-5.38-11.33-1.42-2.26-3.52-2.18-4-5.67-.13-1.94.88-.75 1.33-1.7.94-1.85-2.34-4 0-7.37.11-.13 4.71-4 4.71-4 1.77-3.06-1-7.59-1.34-9.63h-3.37a5.77 5.77 0 01-.67 2.27c-1.11-.5-8.31-4.52-8.74-5.1-1.34-1.93.07-3.92-2-5.1l-7.37-1.7c-1.11-.66-1.38-2.91-2.69-3.4l-6.73.58c-2.88-.91-10.68-5.1-11.43-7.94 2-2.57-6-13.31-9.4-13.6.2 3.34 1.49 4.72 2 7.94.75.95 1.19.6 0 1.12v-1.12h-.67l-.67-.56c-1.21-3-2.32-4.08-4-6.24 2.34-1.32-1.32-7.78-2-10.76a10 10 0 00-2.69.56v-2.83c-6.27-8.38 6.39-14.68 7.38-20.95.35-2.13-1.81-2.18-2-3.39-.25-1.64 2.17-2.86 1.35-5.67s-2.52-5.89-3.36-9.62h-1.35c-5.45-3.12-13.73 0-20.15 0 .05 1.72.51 1.55 0 2.25-2.12 1.61-4.36.76-8.06.57v-2.26a10 10 0 00-2.69.56c-.22-1.32-.44-2.63-.66-4 4.19-.93 7.65-3 12.75-3.4v-1.7c-2.16 0-4.25.24-4.7 0-.54-.57-.24-.15-.67-1.13l.67-.56c5.58-.24 4.2-.7 8.74 0-.23-1.33-.45-2.65-.68-4h1.35c9.43-5.14 25.49-2.71 34.26-.55 4.23 1 9.23-1.6 12.76-1.71 3.09-.09 9.23 1.5 14.78 1.71v-1.14c.77-1 .23-1.71.68-2.27-.8-.45-1.14-.43-2.71-.56-.85.49-1.65.51-3.34.56-.24-.37-.45-.75-.68-1.13 4.74-1.08 5.8-2.82 12.76-2.83 4.48 3.92 12.35.38 13.45 1.13h.67v.56c-2.46.4-1.84 0-2.69 1.71-.5.61-.41.53-.67 1.7l2.69.56v.57c-2.73.39-2.77.95-6.05 1.14v1.69c5.57-.1 8.18-2.33 12.09-4v-.57a7.08 7.08 0 01-3.36-2.27c3.72-1.46 6.77-1.32 11.42-1.7v-1.69a45.29 45.29 0 01-8.06-.56v-1.14c.54-.58.24-.16.66-1.13 2.31 1.28 8.59 2.53 11.43 2.83v-1.7h-2.69c-.09-2.25-.08-1.76-4-1.7-.52-.38-1.5-.74-2-1.13h.68c.88-.5 1.66-.51 3.35-.57 1.92 1.45 5.38 0 5.38 0 1.1 1 1.17 1.43 1.34 3.4h3.37c-.26-2.48-.87-2.33-1.35-4.54h1.35c3.36-2.47 10.22-1.28 15.45-2.26 4.2-.79 14.27-1.71 19.48-.57 1.45.32 2.69 1.53 5.36 1.14 9.43-1.38 38-3.19 45 .56-3.66.15-5 1.16-6 3.4-.45.55-.65 1.72-.66 4-2.25.75-2.73 1.74-5.39 2.26v4c-13.81 4.73-25.87 5.44-33.05 15.96zm-55.74 68.52v.57c-3.74.32-5.8 1.69-8.73 0 1.7-.83.74.12 1.34-1.7 2.29-.11 2.91-.52 4 0 1.79.45 1.63.68 3.39 1.13zM245 521v-1.7c-1.61-.5-2.88-1.72-4-2.27-2.35-1.11-5.42 0-6.72-.57h.67c1.23-.7 3.84-.61 6.05-.56 1.52 1.47 5.74 3.34 8.06 4-.22.19-.44.38-.67.56-.93.45-1.71.46-3.39.54zm.68 3.39c-1.82.51-2.26-.35-1.36-1.13zm-61.81-61.16h1.34c-.22.19-.46.37-.67.56v.57c-.54-.59-.28-.17-.7-1.14zm160.55-18.7c3.7.91 5.91.36 10.75 0 .42 1 .12.55.66 1.14v1.13c-3.91 1.06-14.64 3.53-11.44-2.28zM451.2 597.45l-3.36.56a6.55 6.55 0 01-1.34-4.53c-.87-1.82 1.47-2.6 2-4.54s-.49-4.24 0-6.22c4.69-1 6.38-3.32 8.06-6.8 3.86 3.52-2.92 17.36-5.36 21.53zm60.45-53.24c-1.17-.36-.65-.12-1.33-.58-1.38-1.64-.92-2.46-.67-4.52 1.86 1.09 2.34 2.11 2.68 4.52zm30.91 7.35c-1.41-2-4.56-3.34-6-5.66h2.68a13.36 13.36 0 008.07 5.66c-.81-3.11-2.52-4.27-2.69-8.49h-.67c-1.08-1.31-1-1.32-3.36-1.69.45-5.29.58-11.06-2.69-14.73-.71-.42-.62-.34-2-.57-1.11 1.27-1.15 1.71-2.69 1.13-2.46-3.45-3.22-10.08-8.73-10.76-1.54 1.44-3.46.46-5.37 1.7v.57c-2 1.93-3.29 4.35-5.38 6.24-1.13 1-4.66 2.23-5.38 3.38v2.27c1.35 1.76.15 5.09 0 7.93-2 .75-2.12 1.72-3.35 1.7-3-2.76-9.21-16.13-9.4-21.52-2.3.12-2.92.51-4 0-4.12-2.11-4.18-6.77-10.08-7.36-3.72 2.1-11.47-.57-14.79-1.14v2.84c2.7 1.19 5.39 2 6.06 5.09-1.08 1.1-.91 2.76-2 4-1.82 2-13.67 8.76-16.8 9.62-1.52-2.93-2.24-.24-5.37-1.69-1.41-.65.62-1.19-2.68-1.71q-1.35-3.39-2.69-6.79c-1.05-1.24-3.88-1.92-4.71-3.4-.21-1.5-.44-3-.68-4.52-.65-.19-1.33-.39-2-.57-1-1.26-1.26-4.44-2.69-5.1h-3.47c.59 4.31 3.46 6.24 5.38 9.06q.66 3.11 1.34 6.23h1.33c1 1.2.39 2.63 1.36 4a126.1 126.1 0 009.4 9.06c2.41 1.28 10.57-1.35 10.76-1.12.7.88.68 2.31.66 4-2.48 2.26-2.59 5.83-4.71 8.49-3.87 4.9-11.58 8.06-14.09 14.17-1.57 3.79 1.32 14.2 1.33 18.12 0 3.38-9.52 5.29-10.74 10.19 1.93 2.27.71 4.4 0 6.8-6.39 2.37-1.89 1.9-4.71 6.23-4.33 6.68-12.51 10.76-23.51 10.19 0-4-.19-7.08-2-9.63l-2.69-2.27q-.33-4.53-.67-9.06c-1-2.11-4.06-5-4.7-7.36-1.43-5.11 5.18-7.49 4-12.46-.78-3.34-1.44-7.85-3.37-10.75-1-1.52-4.11-2.54-4.7-4.54.46-2.83.91-5.67 1.36-8.49-2.39-.48-1.36-1.15-2.7-1.7l-4 .56c-.44-1.13-.88-2.26-1.35-3.39H376c-3.48 2.32-10.09 2.24-15.45 2.83l-8.76-6.24v-2.26c-1.78-1.5-3.58-3-5.35-4.53-1-1.75-.6-3.31-1.35-4.53 3.91-3.06 0-8.35 1.35-12.46.35-1.13 5.68-8.88 6.72-9.63 1.31-.93 3.61-.62 4.7-1.7 1.61-1.6.36-5.26 2-6.8 2.9-2.71 4.45-.79 5.36-6.21-.54-.59-.22-.17-.65-1.15h-4c-.29-4.21.17-5.76 0-10.19h1.33c2.11-1.14 6.56-.11 10.07 0a15.75 15.75 0 00.68-5.67 22.68 22.68 0 01-5.37-2.82h1.34c2.94-1.84 10.42-3.37 12.11-6.24.48-.6.38-.53.65-1.69l5.38-.57c-.16-3.13-.83-3.49-.68-5.67 1.2-.35.66-.11 1.35-.56 1.82.5 2 1 3.37 1.7V457a9.05 9.05 0 00-4.72-1.13c-1.51 1.43-1.63.93-4 .57v-1.13c-.77-1-.71-2.77-.68-4.54 4.09-.94 9.75-4.43 11.43-7.35 1-1.74-1.16-1.29 0-2.28 10-6.83 22.29-.74 32.91 1.71v1.69h-7.39v1.7c1.18.36.65.11 1.34.57 4.66-.55 6.06-1.9 10.75-2.27a7.57 7.57 0 00-1.35-3.4h1.35c1 1.18 1.05.75 1.35 2.84 3.2-.35 3.18-1.52 5.38-2.27 3.07-1.05 6-.46 10.07-.57v-1.69c2.92.37 5.82.76 8.72 1.14a13.53 13.53 0 01.68-6.24h.68v.56c2 .9 2.23 1.76 4.69 2.27 1.61-1.39 2.12-.27 4.7-1.13.51-.16 1.12-1.59 1.35-1.7h4c.22-.57.45-1.13.68-1.69 2.25-1.48 4.58-.74 7.37-2.84 1.05-.77.58 1 .68 1.13 2.32.4 3.75-.4 5.37-.56h.68c-.25-1.17-.17-1.09-.68-1.7-4-2.14-12-.8-15.44-3.4 1.86-.08 14.06 1 16.8 2.27 2.1 1 2.79 2.11 5.35 2.83 3.19.87 6.9-.62 9.42.56 1.27.6 1.94 2.85 3.37 3.4 5.26 2 13-1.26 18.13 0 1.9.48 2.72 2.09 4 2.83 2.44 1.41 8.11 0 12.08 0v-2.83c-1.4-.22-1.29-.14-2-.57 1.4.22 1.3.14 2 .57h1.34c2.78 2.5 6.23.33 10.76 1.7.94.29 4.28 2 5.36 2.27l8.06-.57c3 .68 7.23 1.9 10.09 2.27 5.36-.2 10.74-.38 16.12-.57 8.56 1.84 12 8.52 18.8 10.2v.57c-5 .21-3.75 1.94-6.71 3.39-1-.55-2.2-.55-4-.57-.65 1.51-.87 1-1.34 2.83 2.35 2.1 8.79 8.43 4.7 13.59-1.06-6-9.31-5.9-10.75-11.89 1.2-1.43 1.35-3.83 1.35-6.23-2.31.19-3.11 1.34-4.7 1.14a11.76 11.76 0 00-4.7-1.14l-.68.57c.07 1.78.33 2.95 0 3.4v.56c-3.48-.94-11.72-2-14.78 0-1.35 1.54-1.83 4.39-2 6.8 3.87.18 5.76 1.11 8.06 1.7 2.74.7 2.41-1.46 3.35-.57 2.2 1.2 8.53 6.38 9.4 8.5-.22.18-.45.37-.67.57-.44-.2-.9-.39-1.35-.57-.91-1.45-1.49-1.48-2-3.4h-2c.79 4.05 2.53 9.16-.67 12.46-1.67.84-3.59.23-4.69 1.7a12.33 12.33 0 00-2 5.67c3.6.89 4.47 3.12 6.7 5.09v1.13l-4 1.13c-.11-3.7-4-7.27-6.71-8.5-2.19-1.13-3 .06-4.71.58-.89-1.19-1.1-1-3.35-1.13a5.29 5.29 0 00-1.34 3.4l.67.56c2.58.08 5.2-.23 7.38 1.13-2.66.49-2.93 1.08-3.36 3.4 7.69 5.16 6.79 7 6.06 15.86-4.11 2.85-6.69 5.92-13.44 6.79.11 2 .91 3.23.66 3.4-.21.57-.42 1.13-.66 1.7-1.18-.36-.66-.11-1.36-.57l-.66-.56c1.35-1 1.25-1.21 1.34-3.4a16.61 16.61 0 00-4.71-.57c-.21.57-.44 1.14-.65 1.7-1.12 1-1.18 1.43-1.36 3.4 4 3.15 7.84 6.54 7.4 11.9-2.14 1.07-4.36 2.45-5.39 4.53H552v-2.27h-2c-1.68-2.72-2.68-4.28-7.4-4.53-.52 5.08.69 6.29 2 10.19h1.35v.56c3.44 1.94 3.64 5.14 5.36 8.5h-2c.5 2.75 1.61 2.76 2 5.67H554c.61 1.24.57.81 1.34 1.7-1.4 1-1.61 3.27-2 5.1H552V564c-5.46-3-6-7.54-9.44-12.44zm32.92 1.71c-2.74 1.19-3.89 4.64-4 7.92-3.31-.11-7.42-.48-9.41-1.69a17.77 17.77 0 01-2.69-6.8 14.51 14.51 0 014-.57c.26-1.17.17-1.09.69-1.69 3-2.2 6-3.81 8.05-6.81l.67.58c1.71.84 2.13.84 2.7 2.83a3.57 3.57 0 00-.01 6.23zm0 16.42c-2.09 0-2.7.34-3.37 0-1.17-.36-.65-.11-1.34-.57 1.95-.03 3.67-.02 4.71.57zm-.67-53.8c-.69-.46-.2-.21-1.35-.58v-1.68c.53-.59.23-.17.68-1.13h1.34v3.39zm-21.51 49.27h3.35c2.6 2 6.3 1.73 10.75 1.7v1.7c1.4.21 1.3.13 2 .56h-.68v.57c-4.83-1.21-13.37-.89-15.42-4.53zm50.39 60.6c-1.21 1.47-2.71 2-4.7 2.84v-1.7c.53-.68.52-1 .66-2.27 2.43.28 3.74-.11 4.72 1.13zm7.39-6.8c-5.13.41-12.51 4-14.79-1.14.54-.65.53-.94.69-2.26a13.83 13.83 0 00-4 .57c-1-5.09-2.42-8.14-10.09-7.92-1.79 1.33-20.52 6-21.48 5.66-1.48-.51-1-.49-2-1.14 5.12-5.57.08-7.11 2-14.15.67-2.08 1.34-4.15 2-6.24 1.47-.28 12.27-3.3 13.44-4 1.46-.8 1-2.66 2-4 .12-.15 8.85-5.53 9.42-5.66 1.11 1.64 1 1.59 4 1.7.27-1.85 3.2-6.18 3.36-6.23v1.7a42.39 42.39 0 018.75-.56c-.51 2.94-1.71 3-2 6.22 2.19.93 2.61 1.54 6 1.71V585h2c1.11-3.3 2.92-7.82 4-11.33h.66c.21 5.45 2.06 4.41 3.37 6.8v6.8c.4.68 2.84 1.07 3.35 1.69a67.13 67.13 0 014.72 10.21c-2.17 2.88-1.89 6.43-4 9.06-3.24 3.96-8.55 6.04-11.4 10.77zm15.46 14.73v-.57h.66c2.84-3.27 8-3.38 12.09-5.66 2.19-1.22 3.65-3.43 5.37-5.1v2.27c1.4.21 1.29.14 2 .56-8.13 1.33-10.86 8.14-20.12 8.5zm28.88-13.59h-.68c-1.82 1.53-4.87 3.77-7.39 4.53v-.56c.57-.74-.15-2.1 0-2.28.89-1.14 3.33-1.28 4-2.83s-.12-3.44.67-4.52v.56h.68c-.61 1.69-.22 2.22 0 4.54h2.69z"/><path d="M594.28 611.61h.67v1.12h-.67zM593.61 612.73h.66v1.14h-.66zM465.75 441.12h-.44c-.25 1.14-.45 2.28-.68 3.4h2c.08-.37.16-.75.23-1.12h.45c.23-1.14.45-2.28.67-3.4h-2c-.07.37-.16.75-.23 1.12z"/></svg>