<svg id="Layer_1" data-name="Layer 1" xmlns="http://www.w3.org/2000/svg" viewBox="0 0 799.24 800"><defs><style>.cls-1{fill:#48ec3a}</style></defs><path class="cls-1" d="M224.94 207q-14.79-13-43.42-21-20-6.3-28.1-11.94t-8.13-14.44a18.7 18.7 0 017.78-15.5q7.77-6 22-6a77 77 0 0118.42 2.14q8.67 2.14 13.18 5l4.55 23.74h26v-35.4a83.92 83.92 0 00-27.56-16.16 104.14 104.14 0 00-36.35-6.06q-27 .36-44.78 13.72t-17.82 34.4q0 21.25 15.8 33.5t46.56 21.14q17.7 5.35 24.77 11.41t7.07 16a18.77 18.77 0 01-7.42 15.57q-7.41 5.88-21.67 5.88a67.22 67.22 0 01-20-2.79q-9-2.79-14.2-7.07l-3.68-24.59h-26.87v36.11a76.67 76.67 0 0027.62 18.06q16.58 6.53 37.13 6.53 28.74 0 46.33-12.83t17.58-35q0-21.32-14.79-34.42zM362.33 260.14H306.5v-49.42h58.56v-26.73H306.5v-43.48h55.35l1.55 20.67h26.61v-47.4H253.39v20.91l18.42 3.56v124.14l-18.42 3.57v20.79h136.86v-47.28h-26.38l-1.54 20.67zM492.65 225.45l24.71 1.9v29.34a37.15 37.15 0 01-10.16 4.16 65.61 65.61 0 01-16.93 1.78q-23.28 0-35.64-15.74t-12.35-42.11v-6.18q0-27.09 12.59-43.84T490.15 138a60 60 0 0117.85 2.45 35.4 35.4 0 0112.53 6.47l4.88 23.17h25.69v-34.81q-11.18-11-28-17.52a102.44 102.44 0 00-37.1-6.48q-34.92 0-56.6 24.36t-21.68 63.2v5.94q0 37.54 22 61t57 23.46q24.71 0 40.86-6.71t24.59-15v-66.44h-59.52zM671.44 260.14h-48.83V138.25l18.53-3.56v-20.91h-71.63v20.91l18.41 3.56v124.14l-18.41 3.57v20.79h130.08V238.4H673.1l-1.66 21.74z"/><path class="cls-1" d="M0 0v800h799.24V0zm714.9 639.71c-.3.26-.62.54-.91.82v.84c-.72-.85-.32-.23-.9-1.66zm-32.51 2.49c-3.67-2-8.41-4.38-12.64-3.32-.49-4.35-2.17-5.46-3.6-8.37 2.74-.07 2.46-.64 3.6 0h1.79c1.26 3.67.92 5.76 5.43 6.68l.9-.83v-2.52c7.59-.55 22.76 5.57 26.19 10.87a3.17 3.17 0 000 4.19c1.33 3.65 3.63 3.1 5.41 5.85h-2.7c-1-.72-2.24-.08-3.61-.83-4.46-2.44-1.48-5.68-9.92-5.85-.32.27-.61.55-.91.83v2.51a20.56 20.56 0 01-10.85-3.34c.96-1.3.95-3.42.91-5.87zm-18.06-5c-4.52.16-8 .72-9-.83 3.11-.12 7.24-.28 9 .82zm-5.4-14.2c1.71 2.25.63 5.84-.91 7.54a20.71 20.71 0 01.91-7.54zm-6.33-77v4.2h-.91v-.85a8.57 8.57 0 01-3.61-5.85c4.75-1.71 3.42-4 10.85-4.19V536c1.85-.31 1.72-.2 2.7-.84 1-1.42 1-4.09.89-6.68-4-3.68-5.21-7.19-5.41-12.56h.89c3.19 2.64 8 1.16 9 4.19-2.08 1.34-1.37 1.79-4.53 2.51.49 5.84 7.53 12.83 5.42 17.55A45.56 45.56 0 01652.6 546zm-4.52 84.48v1.67h-3.61c.23 5.23 2 5.57 2.7 10h-2.7V638l-.9-.84h-2.71v5h-1.81v-1.67c.88-1.52.65-9.45 2.71-14.21 2.29-.52 4.88-.09 9 0v.82h-.89c-1.37.62-5-.44-7.22.85-.74 1-.7 1.4-.91 3.36 2.12-.24 4.26-.53 6.34-.8zm-6.32 19.22v.84c-1.58-.53-.87-.16-1.8-.84zm9 .84c1.88.31 1.74.2 2.72.84h-1.81l-.91.84zm0-36.79V613c-.74-.8-.95-2.62-1.79-3.35h-2.72s.08-6-.9-7.52c-4.69-7.5-7.36-9.24-7.21-20.08h.89c1 .62.87.5 2.71.85.16 4.95-.3 3.68-.9 8.36a28 28 0 013.71 2.5h2.6v2.16a23 23 0 017.25 16.23 13.57 13.57 0 01-3.62 1.63zm2.72 34.29c2.31 1.2 1-.19 1.81 2.5h-1.79zm.92-137.14l2.69.82v.84c-2.09-.67-1.48-.3-2.67-1.63zm52.35 133v-.83c1.87-.31 1.74-.21 2.7-.85 1.87.32 1.74.21 2.73.85h-.91c-1.16.71-2.21.74-4.5.81zM587.6 447.37h-6.33a8.54 8.54 0 01-6.27-1.67c4.64-.16 9.9-.14 12.6 1.67zM469.33 444v1.68h-5.41v-.84c1.58-.53.87-.16 1.8-.84zm-10.85 12.55h-3.59c-1.55-1.34-3.91-2-5.42-3.35 1.69-1.61 2.27-2.94 2.69-5.85 3.61-.6 8-3.07 11.76-.83-4.33.4-6.88 1.67-8.14 5-.69.91-.52.81-.89 2.52a15.51 15.51 0 013.59 2.53zm-14.43-20.08c1.87-.31 1.74-.2 2.71-.83 1.85 1.2 1.17 1.29 4.52 1.67 1.56-1.1 1.45-1.43 2.7-.84h.91v.84c-4.15.6-8 1.6-10.84-.82zm-8.13 1.67c-2.11-.15-2.54-.15-3.61-.83 2.11.19 2.55.19 3.61.85zm-32.49 0v.86c-3.86 2.14 1.07 2.91-5.42 3.35-3.81-2-5.69 1.42-8.14.83-2.7-.83-5.4-1.68-8.12-2.51l.91-.84c1.89-1.06 7.15-.57 9-1.68zm-47.86 55.21q-.9 2.5-1.79 5l-6.32.84v-.84c1-1.53.43-3.51.9-4.17 2.08-1.9 4.92-2.41 6.3-5 1.57-2.49.06-2.68-.88-5 2.39-.26 4.81-.54 7.21-.82.45 1.57 1.57 1.82 1.81 2.5-.32 1.4-.6 2.79-.9 4.19 1.75 4.23 6.55 4.5 7.22 10.87-2.54.86-1.9 1.26-5.43 1.67-1.89-1.16-3.42-.62-5.41 0-.51-4.48-.87-2.58-.9-6.69 1.89-.31 1.72-.2 2.72-.83h.9v-2.52zm-148.06-46h-11.74c-2.39 2.27-10.48-.17-13.53-2.51l11.76-1.65c1.69.41 2.91 1.49 6.32 1.67.32-1.73.22-1.61.9-2.5a11 11 0 014.5-1.68v.83c-1.63 1.32-1.26.75-1.82 3.35a15.42 15.42 0 013.61 2.51zm-149 18.39a11.57 11.57 0 005.49-3.32c3.31.56 6.63 1.11 9.92 1.68v.83c-6.62.34-5.89 3.37-10.82 5-1.41-2.09-3-2.4-4.55-4.17zM64 480c-1.59-.52-.89-.16-1.82-.83H64zm2.7-7.52c-1.59-.54-.87-.17-1.81-.84h1.81zm186 286h-.9v.85a17.71 17.71 0 01-3.62-1.68h4.52zM287 480c-2.6-1.16-5.1-2.23-8.12-3.34-1.67-3.83-3.19-7.36-3.6-12.54 2.34-1.4 3-1.82 3.6-5-2.17-1.47-.29-6.77 0-11.71-.6-.28-1.2-.57-1.79-.83-3.48-2.57-8-1.08-13.55-.84-1.8-2.61-2.77-4.57-7.21-5-2 1.68-3.37.37-6.33 1.68-6.55 2.85-4.3 5.9-16.25 5.85v2.5h10.82c2.61 3.88 7.42 5.33 11.76 7.53-1.22 1.59-1.16.73-1.82 3.34 2.33 1 5.1 2.06 6.31 4.18H259l-2.7 2.51c-2.08-1-2-1.37-5.45-1.66.69 3.07 1.33 2.34 1.82 5.85l-.9.83h-2.7c-.35 1.74-.22 1.61-.92 2.51-2.11-1.53-4.61-1.12-7.21-2.51-.83-.44-1.18-3-1.8-3.35-2.1-1.17-6.47.16-8.14-.83h.91c1.27-.75 5.06-.91 6.33-1.67.71-1 .68-1.41.9-3.34a10.51 10.51 0 01-2.72-1.68c2.29-1.22 1.4-.36 1.82-3.34-4.41.08-2.82-.17-7.24-.84v2.5c-1.79 1.18-7 4.09-8.13 5.87-.67.89-.54.78-.89 2.5 1.87 1 1.7.57 2.7 2.51-3.65.55-3.77 1.67-5.42 2.49a10.12 10.12 0 01-3.58.82v-.82h3.58v-2.49c-4 .67-1.86.8-5.41.84v-.84c.68-.9.54-.8.91-2.51H212v2.51c-7.39-.16-18.37 4.8-19 10.86.78 1.1.8 2.07.9 4.19 5.72.63 10.09 3.15 15.35 5-1 2.73-.45 4.39 0 7.53h4.5c.31-2.23.6-4.46.91-6.69 6.36-1.54 9.85-9.72 9.92-16.72-1.58-.53-.87-.15-1.81-.84h1.81v.84c1.87-.32 1.75-.21 2.73-.84 1.33-1.31.68-1.53 2.7-2.5V475c2.85-.07 4.7-.4 5.41 0 1.88 1 4.35 2.33 5.42 4.19-1.65 1.31-1.27.73-1.8 3.33 5.93 0 6.34-1.23 9.93-2.5.21.82 1.24 9.1 1.78 10 1.86 3.11 5.78 1 7.24 7.52-1.72 1.85-2.4 3.41-2.71 6.69 3.63 1.32 4.35 1 4.51 5.85l-.89.85c-4.81-.9-4.79-1.5-10.85-1.69v-2.5c-6.82.29-7.44.7-12.63.84v2.5c2.73 1.8 2.85 2.5 8.12 2.51l.9-.84v1.68h-1.8c-2.37 2.49-8.72 4.15-11.74 5.85v-3.35c-4.73.53-6.79 2.3-10.82 3.35a12.64 12.64 0 00-.92 4.19c.73.85.34.22.92 1.67-6.56-1.64-13.93 5.25-16.28 10v5l-4.48.85c-4.12 2.29-8.26 6.17-11.75 9.2.32 4.73.61 9.48.9 14.21l-1.8.83-.9.85a44.75 44.75 0 00-2.72-12.55c-4.88-.38-6.71-1.58-12.63-1.68v3.35c-8.3-.82-15.6-2.25-19 5-4.38 5.69-3.59 15-.91 20.91 3.85 1.58 5.2 1.05 10.86.84a64.28 64.28 0 003.59-6.69c2.1-.29 4.21-.56 6.31-.84-.88 5.16-3.63 8.56-4.5 14.23 5.09 1.2 9.93-1.51 10.82 5-1.59 2.13-1.79 5.66-1.8 9.2 3 1.87 2.88 3.08 8.12 3.35 3.37-2.28 3.87.15 9.05.82 2.18-5.54 6.6-6.55 11.72-9.19v2.5c2.18-.27 3.12-2.19 4.53-1.67.24.11 1.22 3.09 1.8 3.36 3 1.33 5.89 1.35 9 1.65.73-2.7-.45-1.26 1.8-2.5 1.28.8 3 .84 5.43.85v4.18c3.35 2 5.83 7 9 8.35 2.14.93 4.41-.84 5.43-.83.51 0 3.24 1.44 4.51 1.67 3.29 4.5 6.06 6.18 5.41 12.54 6.59 3 32.7 11.49 34.31 16.72 1.7 2.53.42 6.07-.9 8.37-1.65 2.82-5.92 5.36-7.23 8.36v11.71a59.4 59.4 0 01-5.42 12.55c-6.34.47-11.82 2.67-13.53 7.52-1.21 2.2 1.28 3.48 0 6.69-2.2 5.49-7.07 10.71-9.93 15.89-2.62 0-5 0-6.33.84 2.82 3.43 1.84 4.65.9 8.36l-8.12 1.67c-.47 7.51-5.16 11.66-6.32 19.24 1.51.28 3 .55 4.52.84v2.5a12.73 12.73 0 00-3.61 8.36c3.93 2.23 5.29 5.43 9.92 7.53v.92c-1.79.27-3.61.54-5.41.83-4.26-3-10.82-2.91-11.75-9.2H220c-.56-2.57-4.68-9.61-6.33-11.7-.44-.57 3.26-5.85 1.81-8.36-.9-.28-1.81-.57-2.72-.83-4.24-8.25-1.82-26.66-3.59-34.3-2.08-8.9 2.95-22.18-1.82-28.43-3.19-3.38-10-4.75-12.62-8.37-3.79-5.09-4-11.11-7.24-16.72-1.9-3.34-4.72-3.21-5.41-8.37-.17-2.86 1.18-1.11 1.79-2.5 1.26-2.74-3.15-5.94 0-10.89.15-.2 6.32-5.83 6.32-5.83 2.39-4.53-1.31-11.22-1.8-14.23H184a9 9 0 01-.9 3.35c-1.5-.72-11.17-6.66-11.74-7.52-1.81-2.85.09-5.79-2.7-7.54l-9.92-2.5c-1.48-1-1.84-4.3-3.61-5l-9 .85c-3.87-1.34-14.36-7.52-15.36-11.72 2.68-3.8-8.07-19.65-12.64-20.08.27 4.94 2 7 2.72 11.72 1 1.4 1.6.89 0 1.66v-1.66h-.9l-.9-.83c-1.63-4.41-3.12-6-5.42-9.2 3.15-2-1.77-11.5-2.7-15.89a12.35 12.35 0 00-3.62.83v-4.19c-8.43-12.37 8.59-21.68 9.93-30.93.46-3.15-2.44-3.21-2.7-5-.34-2.42 2.91-4.23 1.81-8.37-1.07-4-3.39-8.71-4.52-14.22H110c-7.32-4.6-18.44 0-27.08 0 .06 2.55.69 2.3 0 3.33-2.85 2.38-5.86 1.13-10.83.84v-3.34a13 13 0 00-3.62.83c-.29-1.94-.59-3.89-.88-5.84 5.63-1.38 10.28-4.4 17.14-5v-2.51c-2.91.07-5.72.34-6.32 0-.72-.85-.32-.22-.9-1.67l.9-.83c7.49-.36 5.64-1 11.74 0-.3-2-.61-3.91-.91-5.87h1.81c12.68-7.6 34.26-4 46.05-.82 5.69 1.52 12.4-2.36 17.15-2.52 4.15-.13 12.4 2.22 19.85 2.52v-1.68c1-1.51.32-2.53.92-3.35-1.07-.67-1.53-.64-3.63-.84-1.15.74-2.22.76-4.5.84-.31-.55-.6-1.11-.9-1.67 6.36-1.6 7.79-4.16 17.14-4.17 6 5.77 16.6.55 18.07 1.66h.9v.82c-3.3.6-2.47 0-3.62 2.52-.66.91-.54.8-.89 2.52 1.21.27 2.4.54 3.61.83v.84c-3.66.57-3.72 1.4-8.12 1.68v2.5c7.48-.15 11-3.44 16.25-5.85v-.84a9.5 9.5 0 01-4.53-3.35c5-2.16 9.11-1.95 15.36-2.51v-2.5a55.44 55.44 0 01-10.83-.83v-1.68c.72-.86.31-.24.88-1.67 3.11 1.9 11.54 3.73 15.37 4.18v-2.51H222c-.12-3.33-.11-2.6-5.42-2.5-.7-.58-2-1.1-2.71-1.68h.91c1.17-.74 2.24-.75 4.5-.84 2.58 2.15 7.23 0 7.23 0 1.48 1.5 1.58 2.11 1.8 5h4.53c-.35-3.66-1.17-3.44-1.82-6.7h1.82c4.52-3.65 13.74-1.89 20.76-3.34 5.65-1.16 19.18-2.53 26.19-.83 1.94.46 3.6 2.25 7.2 1.67 12.67-2 51-4.71 60.51.83-4.93.23-6.72 1.71-8.13 5-.62.81-.88 2.54-.89 5.86-3 1.1-3.67 2.57-7.25 3.34v5.86c-18.43 6.82-34.65 7.87-44.23 23.41zm-75 101.16v.84c-5 .47-7.8 2.49-11.74 0 2.28-1.22 1 .18 1.8-2.5 3.08-.18 3.91-.78 5.41 0 2.41.63 2.21.99 4.53 1.66zm-19-2.5v-2.51c-2.17-.73-3.87-2.53-5.43-3.34-3.14-1.65-7.27 0-9-.85h.9c1.66-1 5.15-.9 8.12-.83 2 2.17 7.72 4.93 10.83 5.85-.28.29-.59.56-.89.83-1.11.74-2.16.75-4.45.85zm.9 5c-2.43.76-3-.51-1.82-1.67zm-83.06-90.3h1.8c-.29.27-.62.54-.9.83v.81c-.65-.82-.25-.2-.82-1.63zm215.76-27.61c5 1.33 8 .53 14.46 0 .57 1.48.15.81.89 1.68v1.67c-5.14 1.58-19.56 5.24-15.27-3.34zm143.63 225.8l-4.51.84c-1.25-2.13-1.74-2.94-1.8-6.69-1.17-2.69 2-3.85 2.7-6.7s-.66-6.26 0-9.19c6.3-1.41 8.57-4.91 10.84-10 5.17 5.19-3.95 25.59-7.23 31.74zM551.47 613c-1.56-.54-.87-.18-1.78-.85-1.86-2.43-1.24-3.64-.91-6.69 2.5 1.61 3.15 3.13 3.61 6.69zM593 623.81c-1.9-3-6.13-4.95-8.13-8.36h3.6c2.18 3.49 6.07 7.39 10.85 8.36-1.1-4.6-3.39-6.31-3.62-12.54h-.91c-1.44-1.94-1.31-2-4.51-2.51.61-7.79.79-16.33-3.62-21.74-.95-.63-.83-.5-2.7-.84-1.48 1.87-1.54 2.52-3.6 1.67-3.29-5.1-4.36-14.85-11.72-15.85-2.08 2.13-4.66.69-7.22 2.51v.84c-2.69 2.86-4.42 6.43-7.23 9.21-1.52 1.5-6.27 3.29-7.23 5v3.35c1.81 2.6.21 7.51 0 11.71-2.7 1.11-2.84 2.54-4.5 2.5-4-4.07-12.39-23.81-12.64-31.77-3.09.17-3.92.76-5.41 0-5.53-3.11-5.61-10-13.55-10.87-5 3.1-15.42-.83-19.88-1.68v4.2c3.63 1.76 7.25 3 8.15 7.52-1.45 1.63-1.22 4.08-2.71 5.86-2.45 2.9-18.37 12.94-22.58 14.21-2-4.33-3-.36-7.22-2.5-1.9-1 .84-1.76-3.6-2.52-1.21-3.34-2.43-6.67-3.62-10-1.4-1.84-5.21-2.84-6.32-5q-.43-3.33-.92-6.68l-2.69-.84c-1.29-1.85-1.69-6.56-3.62-7.53h-4.51c.8 6.37 4.64 9.21 7.23 13.39.59 3.05 1.2 6.13 1.8 9.19h1.79c1.36 1.78.52 3.89 1.82 5.85.86 1.3 11.64 12.84 12.64 13.38 3.23 1.88 14.2-2 14.46-1.66.94 1.3.91 3.41.89 5.84-3.34 3.34-3.49 8.62-6.33 12.54-5.2 7.24-15.56 11.9-18.94 20.93-2.12 5.6 1.77 21 1.78 26.74 0 5-12.79 7.83-14.43 15 2.6 3.36 1 6.5 0 10.05-8.58 3.5-2.54 2.8-6.33 9.19-5.81 9.87-16.81 15.89-31.59 15.06 0-5.88-.25-10.46-2.7-14.22l-3.62-3.36q-.44-6.67-.9-13.37c-1.28-3.12-5.46-7.43-6.31-10.87-1.92-7.55 7-11.06 5.41-18.4-1.05-4.93-1.94-11.59-4.52-15.87-1.34-2.25-5.52-3.75-6.32-6.7q.91-6.28 1.82-12.54c-3.21-.72-1.82-1.7-3.62-2.51L380 618c-.6-1.67-1.19-3.34-1.82-5h-9c-4.67 3.42-13.55 3.31-20.76 4.18l-11.76-9.22v-3.33l-7.2-6.69c-1.3-2.59-.8-4.89-1.81-6.68 5.26-4.53 0-12.33 1.81-18.4.47-1.67 7.64-13.12 9-14.22 1.75-1.38 4.85-.93 6.31-2.52 2.16-2.36.48-7.77 2.71-10 3.89-4 6-1.16 7.2-9.17-.73-.86-.3-.24-.88-1.69h-5.42c-.39-6.22.23-8.51 0-15h1.8c2.83-1.69 8.82-.17 13.53 0 .77-2 .94-5.17.91-8.37a29.93 29.93 0 01-7.22-4.17h1.8c4-2.71 14-5 16.27-9.21.66-.89.52-.78.89-2.5l7.22-.83c-.22-4.62-1.11-5.16-.9-8.37 1.6-.53.88-.16 1.81-.84 2.45.74 2.65 1.44 4.52 2.51v-4.19c-2.2-1.08-2.57-1.49-6.33-1.67-2 2.12-2.2 1.37-5.41.85v-1.68c-1-1.42-1-4.09-.91-6.69 5.49-1.39 13.09-6.55 15.35-10.86 1.33-2.57-1.55-1.9 0-3.36 13.45-10.09 30-1.1 44.23 2.51v2.51H426v2.51c1.58.53.86.16 1.8.84 6.25-.82 8.14-2.8 14.45-3.35-.36-2.65-.9-3.16-1.82-5h1.82c1.3 1.73 1.4 1.11 1.8 4.19 4.31-.52 4.29-2.25 7.23-3.35 4.14-1.55 8.13-.69 13.53-.84v-2.5c3.93.55 7.83 1.12 11.73 1.68-.28-4.65-.1-5.1.92-9.21h.9v.82c2.69 1.34 3 2.6 6.31 3.36 2.16-2.06 2.85-.4 6.31-1.67.7-.24 1.51-2.34 1.82-2.51h5.41c.3-.84.61-1.66.92-2.5 3-2.18 6.16-1.1 9.91-4.19 1.41-1.14.78 1.51.91 1.68 3.12.58 5-.6 7.22-.84h.91c-.33-1.73-.23-1.61-.91-2.5-5.41-3.17-16.1-1.18-20.75-5 2.49-.12 18.89 1.47 22.57 3.35 2.82 1.44 3.75 3.12 7.2 4.18 4.28 1.29 9.26-.92 12.65.84 1.7.88 2.61 4.2 4.54 5 7 3 17.46-1.86 24.35 0 2.56.7 3.67 3.08 5.43 4.18 3.29 2.07 10.91 0 16.24 0v-4.18c-1.87-.32-1.74-.21-2.72-.84 1.88.32 1.75.21 2.72.84h1.81c3.73 3.69 8.37.49 14.45 2.51 1.26.43 5.76 3 7.21 3.35l10.83-.84c4.07 1 9.72 2.8 13.55 3.35q10.83-.43 21.68-.84c11.5 2.71 16.08 12.57 25.27 15.05v.85c-6.73.31-5 2.86-9 5-1.29-.82-2.95-.82-5.42-.84-.88 2.23-1.17 1.43-1.81 4.17 3.16 3.1 11.82 12.44 6.32 20.08-1.43-8.81-12.51-8.72-14.45-17.57 1.62-2.11 1.82-5.65 1.82-9.19-3.11.27-4.18 2-6.32 1.68a14.91 14.91 0 00-6.34-1.85c-.3.28-.61.55-.91.84.09 2.63.44 4.35 0 5v.83c-4.68-1.38-15.75-3-19.86 0-1.81 2.28-2.47 6.49-2.7 10 5.21.28 7.75 1.64 10.84 2.52 3.68 1 3.24-2.16 4.5-.84 3 1.77 11.46 9.41 12.64 12.54l-.9.84c-.6-.29-1.21-.57-1.82-.84-1.22-2.14-2-2.18-2.7-5h-2.71c1.06 6 3.39 13.53-.9 18.4-2.25 1.24-4.83.34-6.31 2.51-1.49 2-2.39 5.65-2.71 8.37 4.85 1.31 6 4.61 9 7.51v1.67c-1.8.57-3.61 1.12-5.42 1.67-.15-5.45-5.44-10.72-9-12.54-2.94-1.67-4 .08-6.32.84-1.19-1.75-1.48-1.53-4.51-1.66-1.09 1.9-1.48 1.88-1.79 5 .28.27.59.54.9.83 3.46.11 7-.34 9.92 1.67-3.58.72-4 1.59-4.52 5 10.33 7.62 9.12 10.27 8.14 23.41-5.52 4.21-9 8.75-18.06 10 .15 2.95 1.23 4.76.89 5-.29.83-.57 1.66-.89 2.5-1.58-.54-.88-.16-1.82-.84l-.9-.83c1.82-1.45 1.69-1.79 1.81-5a20.37 20.37 0 00-6.33-.84c-.29.84-.59 1.68-.88 2.51-1.5 1.49-1.58 2.11-1.82 5 5.43 4.65 10.53 9.65 9.94 17.57-2.88 1.58-5.86 3.62-7.24 6.69h-.88v-3.35H603c-2.26-4-3.6-6.32-9.94-6.69-.7 7.5.92 9.28 2.7 15h1.81v.83c4.63 2.86 4.9 7.59 7.21 12.54H602c.66 4.06 2.16 4.07 2.7 8.37h3.62c.82 1.83.77 1.21 1.81 2.51-1.88 1.54-2.17 4.83-2.71 7.53h-1.8v-.85c-7.26-4.34-8.04-11.02-12.62-18.21zm44.23 2.51c-3.67 1.77-5.22 6.86-5.41 11.71-4.45-.18-10-.71-12.65-2.51-1.76-2.4-3.11-7.07-3.6-10a17.74 17.74 0 015.4-.85c.34-1.73.23-1.6.92-2.49 4.07-3.25 8-5.63 10.82-10l.9.85c2.31 1.25 2.86 1.25 3.62 4.18-2.9 1.9-3.6 6.84.02 9.11zm0 24.25c-2.8.08-3.62.5-4.52 0-1.57-.53-.87-.16-1.8-.84 2.64-.04 4.95-.03 6.34.84zm-.89-79.44c-.93-.67-.27-.3-1.81-.85v-2.49c.71-.86.3-.24.9-1.67h1.8v5zm-28.9 72.75H612c3.48 3 8.46 2.55 14.45 2.52v2.5c1.87.31 1.73.2 2.72.83h-.91v.84c-6.58-1.78-18.05-1.31-20.8-6.69zm67.71 89.48c-1.62 2.17-3.64 3-6.32 4.19V735c.71-1 .71-1.41.9-3.35 3.26.42 5-.16 6.33 1.67zm9.93-10c-6.88.6-16.81 5.86-19.87-1.68.72-1 .71-1.39.92-3.33a16.81 16.81 0 00-5.43.83c-1.29-7.51-3.24-12-13.55-11.69-2.41 2-27.58 8.85-28.87 8.35-2-.75-1.31-.72-2.71-1.68 6.87-8.22.11-10.5 2.71-20.9.89-3.06 1.8-6.13 2.69-9.2 2-.42 16.48-4.88 18.06-5.85 2-1.19 1.37-3.94 2.71-5.86.16-.22 11.9-8.18 12.66-8.36 1.49 2.42 1.28 2.35 5.39 2.51.36-2.73 4.31-9.13 4.52-9.2v2.52a51.61 51.61 0 0111.75-.84c-.67 4.34-2.29 4.48-2.7 9.19 2.94 1.37 3.5 2.28 8.1 2.52v2.5h2.72c1.48-4.88 3.92-11.55 5.42-16.73h.89c.28 8.05 2.77 6.51 4.52 10v10c.54 1 3.83 1.58 4.51 2.5 1.21 1.62 5.88 13 6.34 15.07-2.91 4.26-2.54 9.49-5.44 13.38-4.35 5.91-11.49 8.99-15.32 15.91zm20.78 21.75v-.85h.89c3.82-4.82 10.76-5 16.25-8.36 2.94-1.79 4.91-5.06 7.21-7.52v3.35c1.88.31 1.74.2 2.73.83-10.94 1.92-14.62 11.97-27.06 12.51zM744.69 725h-.91c-2.44 2.26-6.54 5.57-9.93 6.69v-.83c.76-1.09-.21-3.09 0-3.36 1.19-1.69 4.47-1.9 5.42-4.18s-.16-5.08.9-6.68v.83h.91c-.81 2.5-.29 3.28 0 6.7h3.61zM34.84 33.19H764.4v333.62H34.84z"/><path class="cls-1" d="M439.54 536c-2.05 1.75-9.21.39-13.54 1.67-1.41-4-3.87-4.28-4.53-9.19a31.78 31.78 0 00-6.32 0V531l3.62 1.66c-1.25 1.39-2.69 3.3-4.52 4.2-2.41-4.08-4.75-9.07-11.74-9.21-.32 1.73-.22 1.61-.89 2.5-.77 2.61-2 4.76-4.52 5.86-1.56-1.45-2.5-1.26-3.61-3.35 4.22 1 6.32.46 6.32-5a27.63 27.63 0 01-9-5.86h-4.5c.29 2.51.61 5 .9 7.52l-.9.84h-1.8v-8.36a16.34 16.34 0 003.6-1.67c-2.13-1.73-1.32-2.12-5.41-2.51-2.77 2.9-5.54 2-9.93 2.51v3.35c-.93 1.68-4.17 1.22-5.43 2.5-2.38 2.47-.57 7.83-4.5 10-3.35 1.87-3.45-2.18-6.33 1.67-.68.89-.53.79-.9 2.5 10.1.28 6.81-1.08 13.55-3.32Q379 536 389 535.17a19.75 19.75 0 01.88 6.68c-.66.91-.52.81-.88 2.52 8.12 2.15 11.47 7 20.75 7.52v-3.34c2.23-1.28 2.06-1.92 5.41-2.52 2.38 2.22 11.71 6.52 17.16 5 1.11-.3.77-2.27 3.61-1.69.93.2 1.84 1.46 4.51 1.69.31-.29.6-.58.91-.84.84-5.48 3-8.41 1.81-14.22zM441.34 628h-.91v1.68c-.79 1.09-.81 2.06-.89 4.17h3.61v-1.66h.9v-1.67c.79-1.09.81-2.07.91-4.19h-3.62z"/><path class="cls-1" d="M407.05 526.8c-.13-.58-.22-1.18-.34-1.77.35 0 .73.06 1.22.11-.29-1.67-.59-3.35-.88-5-4.46-1.7-6.75-4.77-10.86-5.85-1.06-.68-1.52-.65-3.59-.84v1.76c-.28 0-.56-.05-.91-.08v2.5c3.92 2.58 6.44 7.09 11.74 8.36 1.06.66 1.57.63 3.62.81zM443.56 514c.05-.2.12-.4.18-.61h.31a11.46 11.46 0 00.91-3.35l-.91-.84h-3.62c-1 1.39-1.13.94-1.56 2.48-.56.59-.64.56-1.15 2.55.39.12.73.21 1.1.31-1.56.31-2.87.48-3.81-.31-.28-1.12-.59-2.23-.88-3.34h-5.43c-.23.56-.47 1.11-.72 1.66h-.18c-1.48 3.45-3 6.69-3.61 10.88.92.27 1.81.54 2.7.83 5.66 3.86 6.5-2.44 13.54-.83 3.41.76 5 2.49 10.85 2.5.21-.56.39-1.12.59-1.67h.29c.32-.83.63-1.67.92-2.51.67-.89.54-.79.9-2.51-3.84-1-5.5-4-9-5a6.42 6.42 0 00-1.42-.24zM478.36 551.89h-4.52v1.68h-.92v5c3.22 1.27 7.68 5.23 8.16 9.2h6.32a11.24 11.24 0 001.36-2.47 5.8 5.8 0 00.93-1.71h.41l-.32-.29c.1-.36.21-.81.32-1.38h.9c-.28-.29-.59-.56-.88-.84-5.24-3.59-8.88-3.18-11.76-9.19zM480.64 535.15h.44a20.5 20.5 0 00.89-6.68 6.79 6.79 0 01-2.86-2.52h1.06v-1.65h.91v-2.51h-3.62c-1.76-2.43-4.14-3.62-5.65-6.16 2-.39 2.91-.87 3.83-3h-.08a5.77 5.77 0 001-1.66h-.9c-1.43-2.27-4.29-1.87-8.12-1.69-1.37 1.94-2.45 2.3-3.19 4.34a7.62 7.62 0 00-1.31 3.2c3.57 3.66 3.87 7.45 8.85 10a7.1 7.1 0 00-.28.69c-1.09 1.58-1.38 2.67-1.36 6.09 3.26 1.78 4.57 3.11 9.94 3.35a13.27 13.27 0 00.45-1.8zM264.4 438.09l-.91.07v2.52l8.13-.84v-1.58l.89-.1v-2.5l-8.11.83zM195.77 513.43h2.71v2.5h-2.71zM210.21 461.58h-.88v2.52h2.71v-1.68h.88v-2.5h-2.71v1.66zM226.47 486.67h.91v-3.34h-2.72v1.66h-.89v3.35h2.7v-1.67zM405.23 490.85a6.5 6.5 0 00.87-1.63v-.05c1.22-1.58 1.6-4.07 1.75-6.69h1.86v-1.66h.91v-2.51h-3.6c-.64-2.49-1.54-3.41-2.43-5.21a2.31 2.31 0 00.38-1.18 1.59 1.59 0 00.8-1.14h3v-1.67h.9v-3.35h-4.51v1.68h-.9v1.15a9.24 9.24 0 00-5.71 5.14 8.56 8.56 0 00-1.52 4.58l.91.84h2.7v.85h-1.8v1.67H398v1.68c-.6.82-.23 2.59-.06 3.55-1.54 1.27-3.32 1.32-4.23 4a5.53 5.53 0 00-1.12 2.46 14.14 14.14 0 003.59.83c3.4-2.49 7.12-.63 9.05-3.34zM489.79 460.74h-.59c-.33 1.68-.61 3.36-.91 5H491c.11-.55.22-1.11.31-1.66h.61c.31-1.68.6-3.36.9-5h-2.7c-.12.55-.24 1.11-.33 1.66zM417.87 479.15h.9v-2.51h-4.52v1.67h-.88v2.51h4.5v-1.67zM189.81 507.58h-1.26c.29 1.39.61 2.79.91 4.17h.89v1.68h-.89v2.5h2.7v-1.66h.92v-2.52h.9a16.22 16.22 0 00.58-1.67h.33a11.18 11.18 0 00.88-3.34l-.88-.83h-5.43c.15.62.26 1.17.35 1.67zM661.63 714.12h.89v1.68h-.89zM662.52 712.46h.9v1.66h-.9z"/></svg>