<svg id="Layer_1" data-name="Layer 1" xmlns="http://www.w3.org/2000/svg" viewBox="0 0 200 200"><defs><style>.cls-1{fill:#e94036;}</style></defs><path class="cls-1" d="M160.11,139.12v-1.24c0-.39-.25-.62-.74-.62H157v2.52h2.35C159.76,139.78,160.11,139.63,160.11,139.12Z"/><polygon class="cls-1" points="141.28 142.69 144.07 142.69 142.66 137.59 141.28 142.69"/><path class="cls-1" d="M89.26,137.56H86.89v3.6h2.37c.91,0,1.26-.37,1.26-1.11v-1.43C90.52,137.91,90.17,137.56,89.26,137.56Z"/><path class="cls-1" d="M159.79,142.3H157v2.51h2.72c.69,0,.91-.32.91-.79v-1C160.6,142.54,160.33,142.3,159.79,142.3Z"/><path class="cls-1" d="M10,9.34v180H190V9.34ZM45.55,147.45l-.25-6.29-2,4.71H40.14l-2-4.68-.25,6.26H34.32L35,134.62h3.52l3.19,7.5,3.18-7.5h3.53l.66,12.83Zm18.23-9.91H58.15v1.94h5.18v2.92H58.15v2.14h5.63v2.91H54.5V134.62h9.28Zm15.09.24H75.15v9.67H71.5v-9.67H67.77v-3.16h11.1Zm12.41,9.67L89,144H86.89v3.43H83.24V134.62h6.12c3.57,0,4.71,1.39,4.71,3.83v1.73a3.27,3.27,0,0,1-1.53,3.08l2.81,4.19Zm12.16,0H99.79V134.62h3.65ZM108.38,120H93.47V86.71c0-2.28-1-3.63-3.62-3.63S82.19,85,79,86.71V120H64.07V86.71c0-2.28-1-3.63-3.62-3.63S52.79,85,49.58,86.71V120H34.67V69.62H45.74l1.56,3.83a51,51,0,0,1,20.08-4.86c4.46,0,7.46,1.76,9.22,4.86a48.38,48.38,0,0,1,20.19-4.86c8.59,0,11.59,6.42,11.59,16.15Zm5.84,24.55a21.42,21.42,0,0,0,3.85-.34l.37,3a20.64,20.64,0,0,1-4.22.44c-3.67,0-5.35-1.43-5.35-4.17v-5c0-2.74,1.68-4.17,5.35-4.17a22,22,0,0,1,4.22.44l-.37,3a23.89,23.89,0,0,0-3.85-.34c-1.21,0-1.7.44-1.7,1.45v4.2C112.52,144.15,113,144.59,114.22,144.59Zm18.18,2.86h-9V134.62H127v9.68h5.37Zm13,0-.54-1.92h-4.42l-.54,1.92h-3.58l4.07-12.83h4.49l4.1,12.83Zm18.7-3.15c0,1.85-.92,3.15-3.9,3.15h-6.91V134.62H160c2.86,0,3.63,1.16,3.63,3v1.13a2.19,2.19,0,0,1-1.41,2,2.48,2.48,0,0,1,1.93,2.42ZM165.68,120H122.75V51h15.56v55.26h27.37Z"/></svg>