<svg id="a9247728-36da-4c11-863a-04d1e68f69ec" data-name="Layer 1" xmlns="http://www.w3.org/2000/svg" viewBox="0 0 178.17 177.17"><defs><style>.a0082d49-827a-4366-9769-a46c0ee54827{fill:#fff;}</style></defs><path class="a0082d49-827a-4366-9769-a46c0ee54827" d="M95.3,75.88c6.94,0,9.94-4.89,9.94-10.88a12,12,0,0,0-2.71-8,7.34,7.34,0,0,0-2.5-1.81,18,18,0,0,0-6.94-.95H81.42V75.88H95.3Z"/><path class="a0082d49-827a-4366-9769-a46c0ee54827" d="M97.82,98H81.42V122.9H97.67a12.78,12.78,0,0,0,5.2-1,9.75,9.75,0,0,0,3.75-2.92,15.19,15.19,0,0,0,3-9.38C109.66,103,105.87,98,97.82,98Z"/><path class="a0082d49-827a-4366-9769-a46c0ee54827" d="M1,0V177.17H178.17V0ZM137.46,119a31.59,31.59,0,0,1-16.88,21.58,34.94,34.94,0,0,1-7.45,2.8c-6,1.42-10.73,1.57-16.88,1.57H40.56v-20.5H53.18V52.69H40.56V32.19H93.25c8.83,0,14.36.31,20.67,2.36a32.48,32.48,0,0,1,6.66,3.19A27,27,0,0,1,133.3,57a30,30,0,0,1,.34,4.5c0,9.64-4.46,19-13.06,23.92v.66A28.2,28.2,0,0,1,125.21,88c9.57,5.06,13,14.56,13,23.82A33.78,33.78,0,0,1,137.46,119Z"/></svg>