<svg id="eddc44c5-b4c2-4b88-8ea3-20fe7954f35a" data-name="Layer 1" xmlns="http://www.w3.org/2000/svg" viewBox="0 0 179.53 61.75"><defs><style>.e5e4513f-bfdc-4bcc-a16e-5d76604c5656{fill:#fff;}</style></defs><path class="e5e4513f-bfdc-4bcc-a16e-5d76604c5656" d="M20,21.8c3.39-.8,6.29-1.67,9.25-2.12,2.09-.32,4.28,0,6.41-.1a5.2,5.2,0,0,0,2.07-1c.23-.14.24-.61.45-.82,3.8-3.55,2-4.39-1.19-6.44-2.14-1.4-4.19-3.2-6.56-3.93-4.22-1.31-8.6-2.27-13,0-1.16.6-2.89.09-4.23.09.59-1.64.94-2.82,1.46-3.93.33-.68.8-1.57,1.42-1.8C18.81.7,21.53-.62,24.64.33c6.45,2,12.83,4,18.08,8.62C45.08,11,48,12.53,50.6,14.29c2.24-3,2.74-3.15,4.42-1.66,2.16,1.93,2.08,3.42-.28,5.79,1.8,3.48,6.77,4.06,7.83,8.49-5-2.75-9.73-4-14.23,1.4,2.43,1.08,4.51,2.06,6.63,2.94,1.8.75,2.37,1.8,1.16,3.51C54.54,37,53,39.38,51.37,41.6a4.53,4.53,0,0,0,1.15,6,10.18,10.18,0,0,1,1,.63c.11.08.12.29.35.9-3.46,1.52-6.67-.16-10.69-.42l8.53-14.36c-2.3-.35-4.27-.52-6.17-1-3.81-.94-7.64-1.87-10.48-5a3.35,3.35,0,0,0-2.83-.54c-5.39,1.55-11.16,2-15.76,5.86-1.18,1-3.34,1-5.07,1.12-2.6.17-5.22,0-7.83,0C.76,34.88-.78,33,.4,30.43c.9-1.92,2.46-3.52,3.65-5.31a61.74,61.74,0,0,0,3.72-6.05c1.33-2.65,2.59-5.22,5.81-6,3.7-.9,6.42,1.18,6.43,5Z"/><path class="e5e4513f-bfdc-4bcc-a16e-5d76604c5656" d="M153.09,12.45c4.56-.86,4.61-.88,6.39,3.47,1.86,4.57,3.61,9.18,5.42,13.76.29.74.62,1.45.95,2.21,2.42-5.59,4.74-11.07,7.18-16.49,1.66-3.68,1.76-3.66,6.5-2.86v32.3h-5.05V25.93l-.71-.18q-3.77,9.36-7.54,18.72l-.74.08-7-18.68-.28.05v19h-5.16Z"/><path class="e5e4513f-bfdc-4bcc-a16e-5d76604c5656" d="M150.12,45.53c-2.27-.47-4.75-.27-5.78-1.39-1.17-1.29-1.06-3.76-1.53-5.84h-7c-.34,1.15-.7,2.28-1,3.43-1,3.75-1,3.75-5.34,3q1.85-8.16,3.67-16.29,1.56-7,3.1-14c.28-1.26.41-2.54,2.33-2.31,1.63.18,3.24-.35,3.82,2.11,2.17,9.19,4.55,18.34,6.85,27.5C149.53,42.79,149.73,43.8,150.12,45.53ZM139.66,22.19l-.59-.05c-.68,3.66-1.35,7.31-2,11.06h4.74Z"/><path class="e5e4513f-bfdc-4bcc-a16e-5d76604c5656" d="M115.76,12.84c3.72-.21,7.19-.48,10.65-.52.62,0,1.52.88,1.8,1.56a8.84,8.84,0,0,1,.07,2.92l-7.51.71v8.41l2.58.23c3.66.33,3.82.57,2.82,4.62h-5.42v8.64h7a3.59,3.59,0,0,1,.3.77c.58,4.41.58,4.45-3.82,4.56-2.73.08-5.47,0-8.47,0Z"/><path class="e5e4513f-bfdc-4bcc-a16e-5d76604c5656" d="M92.43,11.52v5.2c-1.25.05-2.44.05-3.62.17-2.63.26-3.86,1.34-4,4q-.27,6.91-.16,13.84c.08,4.16,1.37,5.37,5.58,5.74l1.68.16v5.1c-3.35-.68-6.49-1-9.35-2-1.25-.47-2.5-2.43-2.72-3.87a72.21,72.21,0,0,1,.25-22,5,5,0,0,1,3.8-4.52C86.61,12.58,89.35,12.14,92.43,11.52Z"/><path class="e5e4513f-bfdc-4bcc-a16e-5d76604c5656" d="M101.43,44.87V17.1h-5.6V12.48h16.82v4.59a28.76,28.76,0,0,1-3.35,0c-2.11-.23-2.81.52-2.72,2.72.28,7.43.36,14.87.5,22.31,0,.88-.08,1.75-.13,2.79Z"/><path class="e5e4513f-bfdc-4bcc-a16e-5d76604c5656" d="M21.3,46.07c2.66-1.66,5.08-1.08,7.58-.32,2.28.69,4.62,2,7-.13.26-.23,1.39.5,2.12.78a8.75,8.75,0,0,1-1.44,1.53c-.39.27-1,.21-2.05.39,1,.83,1.56,1.42,2.22,1.86,2.25,1.49,4.54,2.92,6.8,4.38a5.59,5.59,0,0,0,6.3.08c.72,2.29.51,2.54-1.82,2.49.41.18,1,.23,1.2.54a7.42,7.42,0,0,1,1.39,2.55c.09.44-.78,1.56-1.14,1.52A5.54,5.54,0,0,1,47,60.67c-.88-.59-1.57-1.51-2.49-2C39.8,56.16,35,53.81,30.29,51.29,27.32,49.7,24.45,47.91,21.3,46.07Z"/></svg>