<svg id="f4724a68-fb62-4799-83b1-8a6c9c384ee9" data-name="Layer 1" xmlns="http://www.w3.org/2000/svg" viewBox="0 0 178.8 52.21"><defs><style>.bf419406-a8e4-4c0d-bccd-70b2f42b1821{fill:#fff;}</style></defs><path class="bf419406-a8e4-4c0d-bccd-70b2f42b1821" d="M110.86,23.87h0s-.12.75-.22,1.19l-.69,2.64h1.86l-.68-2.64C111,24.62,110.86,23.87,110.86,23.87Z"/><path class="bf419406-a8e4-4c0d-bccd-70b2f42b1821" d="M107.9,35.71h0s-.12.75-.22,1.19L107,39.54h1.86l-.68-2.64C108,36.46,107.9,35.71,107.9,35.71Z"/><path class="bf419406-a8e4-4c0d-bccd-70b2f42b1821" d="M101.85,35.54h-.94v3.28h.92a1.47,1.47,0,0,0,1.47-1.65A1.45,1.45,0,0,0,101.85,35.54Z"/><path class="bf419406-a8e4-4c0d-bccd-70b2f42b1821" d="M126.13,23.87h0s-.12.75-.23,1.19l-.69,2.64H127l-.67-2.64C126.26,24.62,126.13,23.87,126.13,23.87Z"/><path class="bf419406-a8e4-4c0d-bccd-70b2f42b1821" d="M115.17,35.77a1.42,1.42,0,0,0-.74-.22h-1v3h1A1.39,1.39,0,0,0,115.7,37,1.5,1.5,0,0,0,115.17,35.77Z"/><path class="bf419406-a8e4-4c0d-bccd-70b2f42b1821" d="M133.93,25.19a1.5,1.5,0,0,0-.53-1.26,1.38,1.38,0,0,0-.73-.22h-1v3h1A1.39,1.39,0,0,0,133.93,25.19Z"/><path class="bf419406-a8e4-4c0d-bccd-70b2f42b1821" d="M121,15c0-2.06-.87-3.16-2.23-3.16h-1.06v6.35h1.06C120.15,18.22,121,17.1,121,15Z"/><path class="bf419406-a8e4-4c0d-bccd-70b2f42b1821" d="M141.2,35.77a1.36,1.36,0,0,0-.73-.22h-1v3h1A1.39,1.39,0,0,0,141.74,37,1.47,1.47,0,0,0,141.2,35.77Z"/><path class="bf419406-a8e4-4c0d-bccd-70b2f42b1821" d="M174.12,0h-63.5C89.46,15.75,89.13,47.59,89.2,52.2h84.91c2.62,0,4.68-2.49,4.68-5.18V5.19C178.8,2.49,176.74,0,174.12,0ZM152.07,10.85h1.12v8.37h-1.12Zm-12.24,0h2.29a2.47,2.47,0,0,1,1.1.27,2.32,2.32,0,0,1,1.17,2.16,2.53,2.53,0,0,1-1.28,2.28v0a1.67,1.67,0,0,1,.21.4l1.42,3.23h-1.23l-1.36-3.33h-1.21v3.33h-1.11Zm-5.78,0h3.85v1h-2.73V14.5h2.21v1h-2.21v2.72H138v1h-4Zm-6.16,0,1.49,5.9c.1.45.21,1.13.21,1.13h0s.11-.68.23-1.13l1.5-5.9h1.19l-2.35,8.37H129l-2.34-8.37Zm-3.84,0h1.11v8.37h-1.11Zm-7.45,0h2.24c2,0,3.31,1.54,3.31,4.18s-1.3,4.19-3.31,4.19H116.6ZM102,39.82h-1.1V42.9H99.8V34.53H102a2.42,2.42,0,0,1,2.43,2.64A2.43,2.43,0,0,1,102,39.82Zm7.61,3.08L109,40.49h-2.25l-.61,2.41H105l2.25-8.37h1.21l2.27,8.37Zm.09-14.25-.61,2.41H108l2.25-8.37h1.21l2.27,8.37h-1.12L112,28.65ZM116,42.9l-1.36-3.32H113.4V42.9h-1.11V34.53h2.28a2.51,2.51,0,0,1,1.11.27A2.33,2.33,0,0,1,116.85,37a2.55,2.55,0,0,1-1.28,2.28v0a1.67,1.67,0,0,1,.21.4l1.42,3.23Zm0-11.84-1.57-8.37h1.11l1.05,6.12c.06.39.09.93.09.93h0s0-.52.12-.93L118,22.69h1.1l1.11,6.12c.06.41.09.93.09.93h0s0-.54.12-.93l1-6.12h1.09L121,31.06h-1.3l-1-5.4c-.09-.53-.15-1.17-.15-1.17h0s-.08.63-.17,1.17l-1.08,5.4Zm7.5,4.48H121.3V42.9h-1.1V35.54h-2.15v-1h5.4Zm.93-4.48h-1.13l2.25-8.37h1.21L129,31.06h-1.13l-.63-2.41H125Zm5.91,11.84h-1.15l-2.64-5.34a11.23,11.23,0,0,1-.44-1.19h0s.07.74.07,1.2V42.9H125V34.53h1.16l2.64,5.33c.21.46.44,1.18.44,1.18h0s-.07-.73-.07-1.2V34.53h1.06Zm1.35-11.84h-1.12V22.69h2.29a2.44,2.44,0,0,1,1.1.27,2.31,2.31,0,0,1,1.17,2.16,2.53,2.53,0,0,1-1.28,2.28v0a1.9,1.9,0,0,1,.22.4l1.42,3.23h-1.23l-1.37-3.33h-1.2Zm4.9,11.84h-4V34.53h3.85v1h-2.74v2.64h2.22v1h-2.22V41.9h2.88Zm.53-20.21h3.85v1h-2.74v2.64h2.22v1h-2.22v2.72h2.88v1h-4ZM142,42.9l-1.36-3.32h-1.21V42.9h-1.11V34.53h2.28a2.44,2.44,0,0,1,1.1.27A2.31,2.31,0,0,1,142.88,37a2.54,2.54,0,0,1-1.27,2.28v0a2.27,2.27,0,0,1,.21.4l1.42,3.23Zm1.91-17.17v5.33h-1.07V22.69H144L146.65,28c.21.46.44,1.18.44,1.18h0s-.07-.73-.07-1.2V22.69h1.06v8.37H147l-2.64-5.34a11.23,11.23,0,0,1-.44-1.19h0S143.92,25.27,143.92,25.73Zm2.52,17.32a3.17,3.17,0,0,1-2.08-.79l.54-1a2.14,2.14,0,0,0,1.5.71,1.15,1.15,0,0,0,1.21-1.24c0-1.76-3.06-1.65-3.06-4.09a2.21,2.21,0,0,1,2.37-2.28,3.08,3.08,0,0,1,1.75.53l-.4,1a2.38,2.38,0,0,0-1.34-.49,1.17,1.17,0,0,0-1.25,1.23c0,1.73,3.07,1.54,3.07,4A2.2,2.2,0,0,1,146.44,43.05Zm1.5-23.69a3.16,3.16,0,0,1-2.07-.78l.53-1a2.14,2.14,0,0,0,1.51.71,1.15,1.15,0,0,0,1.2-1.24c0-1.77-3.05-1.65-3.05-4.09a2.21,2.21,0,0,1,2.37-2.28,3.13,3.13,0,0,1,1.75.53l-.4,1a2.38,2.38,0,0,0-1.34-.49A1.18,1.18,0,0,0,147.18,13c0,1.73,3.07,1.54,3.07,4A2.2,2.2,0,0,1,147.94,19.36Zm2.43,3.33h3.85v1h-2.74v2.64h2.22v1h-2.22v2.72h2.88v1h-4Zm5.47,20.21h-1.1V39.22h-3.06V42.9h-1.11V34.53h1.11v3.7h3.06v-3.7h1.1Zm3.37,0H158.1V34.53h1.11Zm-1.5-11.7a3.14,3.14,0,0,1-2.07-.78l.53-1a2.14,2.14,0,0,0,1.5.71,1.15,1.15,0,0,0,1.21-1.24c0-1.77-3-1.65-3-4.09a2.2,2.2,0,0,1,2.36-2.28,3.14,3.14,0,0,1,1.76.53l-.4,1a2.38,2.38,0,0,0-1.34-.49A1.18,1.18,0,0,0,157,24.83c0,1.73,3.07,1.54,3.07,4A2.2,2.2,0,0,1,157.71,31.2Zm2.46-19.34H158v7.36h-1.1V11.86h-2.15v-1h5.4Zm1.35,13a2.21,2.21,0,0,1,2.37-2.28,3.11,3.11,0,0,1,1.75.53l-.4,1a2.38,2.38,0,0,0-1.34-.49,1.17,1.17,0,0,0-1.25,1.23c0,1.73,3.06,1.54,3.06,4a2.19,2.19,0,0,1-2.31,2.34,3.16,3.16,0,0,1-2.07-.78l.53-1a2.16,2.16,0,0,0,1.51.71,1.16,1.16,0,0,0,1.21-1.24C164.58,27.15,161.52,27.27,161.52,24.83Zm2.17,15h-1.1V42.9h-1.12V34.53h2.22a2.42,2.42,0,0,1,2.43,2.64A2.43,2.43,0,0,1,163.69,39.82Zm.57-24.14v3.54h-1.12V15.68L161,10.85h1.23l1.12,2.74c.19.48.36,1,.36,1h0s.18-.56.36-1l1.12-2.74h1.22Z"/><path class="bf419406-a8e4-4c0d-bccd-70b2f42b1821" d="M163.52,35.54h-.93v3.28h.92a1.65,1.65,0,0,0,0-3.28Z"/><path class="bf419406-a8e4-4c0d-bccd-70b2f42b1821" d="M143.24,13.35a1.5,1.5,0,0,0-.53-1.26,1.39,1.39,0,0,0-.74-.22h-1v3h1A1.39,1.39,0,0,0,143.24,13.35Z"/><path class="bf419406-a8e4-4c0d-bccd-70b2f42b1821" d="M38.46,29c0,.83.52,1.49,1.69,1.49a3.3,3.3,0,0,0,2.94-3.15V27h-.55C40.64,27,38.46,27.54,38.46,29Z"/><path class="bf419406-a8e4-4c0d-bccd-70b2f42b1821" d="M60.79,21.49c-1.8,0-3.5,1.31-3.5,4.39,0,2.14,1.14,4.25,3.5,4.25,1.86,0,3.49-1.52,3.49-4.25S62.86,21.49,60.79,21.49Z"/><path class="bf419406-a8e4-4c0d-bccd-70b2f42b1821" d="M4.53,0C2.05,0,0,2.54,0,5.19V47a5.23,5.23,0,0,0,5.23,5.23H77.05C77.41,48.8,81.46,15.09,101.81,0V0Zm25.9,34.65h-5.6V33.48c0-.55,0-1,0-1H24.8a6,6,0,0,1-5.15,2.59c-4.84,0-8-3.8-8-9.33s3.38-9.3,8.12-9.3c3.6,0,4.67,1.42,4.67,1.42h.07a7.84,7.84,0,0,1,0-.8V9.94h6Zm18.57,0H43.54V33.59a9.36,9.36,0,0,1,.07-1.11h-.07a5.54,5.54,0,0,1-5,2.59c-3.32,0-6.05-2.21-6.05-5.73,0-5.19,7.57-5.78,10.34-5.78H43v-.31c0-1.49-1.14-2-2.63-2a10.61,10.61,0,0,0-4.8,1.7l-2.08-4.22A13.47,13.47,0,0,1,41,16.44c5,0,8,2.73,8,7.26Zm13,.41a6.56,6.56,0,0,1-4.53-1.69H57.4a15,15,0,0,1,.07,1.52v6.67h-6V16.86h5.39v.9a10.47,10.47,0,0,1-.07,1.14h.07a6.49,6.49,0,0,1,5.39-2.46c4.84,0,8,3.8,8,9.33S66.73,35.07,62,35.07Z"/><path class="bf419406-a8e4-4c0d-bccd-70b2f42b1821" d="M21.13,21.49c-1.86,0-3.49,1.52-3.49,4.25s1.42,4.39,3.49,4.39c1.8,0,3.5-1.31,3.5-4.39C24.63,23.6,23.48,21.49,21.13,21.49Z"/></svg>