<?xml version="1.0" encoding="utf-8"?>
<!-- Generator: Adobe Illustrator 24.1.0, SVG Export Plug-In . SVG Version: 6.00 Build 0)  -->
<svg version="1.1" id="Layer_1" xmlns="http://www.w3.org/2000/svg" xmlns:xlink="http://www.w3.org/1999/xlink" x="0px" y="0px"
	 viewBox="0 0 135 135" style="enable-background:new 0 0 135 135;" xml:space="preserve">
<style type="text/css">
	.st0{fill:#FFFFFF;}
</style>
<path class="st0" d="M0,0v135h135V0H0z M125.8,41H98c-1.6,0-2,0.7-2.2,2.2c-0.5,4.6,0.3,7.8,5.4,9.8c8,3.2,11.2,10.2,11.8,18.5
	c1.1,14.1-6,23.8-17.1,31.2c-7.3,4.9-5.8,5.4-12.9-0.9c-1.7-1.5-3.2-3.1-4.7-4.7s-1.2-2.2,0.9-2.5c5.1-0.8,10-2.7,14.4-5.4
	c5.5-3.3,10.7-7.2,13.8-13.1c2.1-3.9,3.1-8.1,0.5-12.2c-2.3-3.7-6.2-5-10.1-5.3c-12.9-1.1-23.5,5.1-28,18.2c-0.5,1-0.8,2.1-1.1,3.3
	c-0.2,2.2-1.2,2.7-3.1,1.9c-3.3-1.3-6.6-2.6-9.7-4.1c-0.8-0.7-1.3-1.7-1.2-2.8c1.3-3.9,2.8-7.8,4.5-11.6c1.1-2.4,1-3.2-1.5-4.1
	c-9.4-2.9-19.7,0.9-24.8,9.3C28,77,30.7,85.7,37.5,92.8c3.7,3.9,7.8,7.5,11.7,11.3c0.2,0.2,0.4,0.5,1,1.2c-0.8,0-1.7-0.1-2.5-0.3
	c-9.2-4.3-18-9.2-24.5-17.3c-9.2-11.5-5.6-27.6,7.7-33.9c3.9-1.8,8.1-3.1,12.4-3.8c7.2-1.1,13.7,1.5,19.6,5.2c2.1,1.5,5,1.7,7.3,0.4
	c3.8-1.8,8.1-2.9,11.8-4.9c3.5-1.8,1.1-5.5,1.5-8.3c0.3-1.8-1.5-1.2-2.6-1.3c-0.7-0.1-1.3,0-2,0H9.2l0.5-6.5h116.1V41z"/>
</svg>
