<svg version="1.1" xmlns="http://www.w3.org/2000/svg" xmlns:xlink="http://www.w3.org/1999/xlink" x="0px" y="0px"
	 viewBox="0 0 91 19" style="enable-background:new 0 0 91 19;" xml:space="preserve">
<style type="text/css">
	.st0{fill:#FFFFFF;}
	.st1{fill-rule:evenodd;clip-rule:evenodd;fill:#FFFFFF;}
</style>
<g>
	<polygon class="st0" points="54.1,10.7 56.3,10.7 55.2,6.2 	"/>
	<polygon class="st0" points="77.9,10.7 80,10.7 78.9,6.2 	"/>
	<path class="st0" d="M0,0v19h91V0H0z M9.9,13.7l-0.1-3.3c0-0.8,0-1.5,0-2.2c0-0.5,0-0.9,0-1.1l-0.9,5.7H7.1L6.1,7
		c0,0.4,0,1.1,0,1.9c0,0.6,0,1.1,0,1.5l-0.1,3.3H4.3l0.5-8.3h2.3L8,11l0.8-5.7h2.4l0.5,8.3H9.9z M18,11.3c0,0.5-0.1,0.9-0.3,1.3
		c-0.2,0.4-0.5,0.7-0.9,0.9c-0.4,0.2-0.9,0.3-1.5,0.3c-0.9,0-1.6-0.2-2.1-0.7c-0.5-0.5-0.7-1.1-0.7-1.9V5.3h1.9v5.8
		c0,0.4,0.1,0.8,0.2,1c0.1,0.2,0.4,0.3,0.7,0.3s0.6-0.1,0.7-0.3c0.1-0.2,0.2-0.5,0.2-1V5.3H18V11.3z M23.5,12.6
		c-0.2,0.4-0.6,0.7-1,0.9c-0.4,0.2-0.9,0.3-1.5,0.3c-0.6,0-1.1-0.1-1.5-0.3c-0.4-0.2-0.8-0.5-1.2-0.9l0.9-1c0.3,0.3,0.6,0.5,0.8,0.6
		s0.5,0.2,0.8,0.2c0.3,0,0.6-0.1,0.7-0.3c0.2-0.2,0.3-0.5,0.3-0.8c0-0.3-0.1-0.6-0.3-0.8c-0.2-0.2-0.5-0.4-0.9-0.6
		C20,9.7,19.4,9.4,19.1,9c-0.3-0.4-0.5-0.9-0.5-1.5c0-0.5,0.1-0.9,0.3-1.3c0.2-0.4,0.5-0.6,0.9-0.8s0.8-0.3,1.3-0.3
		c0.5,0,1,0.1,1.4,0.3s0.8,0.4,1.1,0.8l-0.8,1c-0.5-0.4-1-0.7-1.4-0.7c-0.3,0-0.5,0.1-0.6,0.2c-0.2,0.2-0.2,0.4-0.2,0.6
		c0,0.3,0.1,0.5,0.3,0.6c0.2,0.2,0.5,0.4,1,0.6C22.3,8.8,22.7,9,23,9.2s0.5,0.5,0.7,0.8c0.1,0.3,0.2,0.7,0.2,1.2
		C23.9,11.7,23.8,12.2,23.5,12.6z M28.6,8.8v1.3h-2v2.2H29v1.4h-4.4V5.3H29l-0.2,1.3h-2.3v2.1H28.6z M35.3,11.3
		c0,0.5-0.1,0.9-0.3,1.3c-0.2,0.4-0.5,0.7-0.9,0.9c-0.4,0.2-0.9,0.3-1.5,0.3c-0.9,0-1.6-0.2-2.1-0.7c-0.5-0.5-0.7-1.1-0.7-1.9V5.3
		h1.9v5.8c0,0.4,0.1,0.8,0.2,1c0.1,0.2,0.4,0.3,0.7,0.3s0.6-0.1,0.7-0.3c0.1-0.2,0.2-0.5,0.2-1V5.3h1.9V11.3z M41.6,13.7l-0.1-3.3
		c0-0.8,0-1.5,0-2.2c0-0.5,0-0.9,0-1.1l-0.9,5.7h-1.8l-1-5.8c0,0.4,0,1.1,0,1.9c0,0.6,0,1.1,0,1.5l-0.1,3.3H36l0.5-8.3h2.3l0.9,5.7
		l0.8-5.7h2.4l0.5,8.3H41.6z M51.7,13.1c-0.7,0.5-1.4,0.7-2.2,0.7c-1.9,0-2.9-1.4-2.9-4.3c0-0.9,0.1-1.7,0.4-2.4
		C47.2,6.5,47.6,6,48,5.7s1-0.5,1.5-0.5c0.4,0,0.8,0.1,1.1,0.2c0.3,0.1,0.6,0.4,0.9,0.7L51,6.7c-0.3-0.2-0.5-0.4-0.7-0.5
		c-0.2-0.1-0.5-0.1-0.8-0.1c-0.6,0-1,0.3-1.4,0.8c-0.4,0.5-0.5,1.4-0.5,2.6c0,0.9,0.1,1.5,0.2,2.1c0.1,0.5,0.3,0.9,0.6,1.1
		s0.6,0.3,1,0.3c0.4,0,0.9-0.1,1.2-0.4V9.9h-1.2l-0.1-0.8h2.2V13.1z M57,13.7l-0.5-2.1h-2.5l-0.5,2.1h-1l2.2-8.3h1.2l2.2,8.3H57z
		 M62.4,6.2h-1.9v7.4h-1V6.2h-1.9V5.4h4.9L62.4,6.2z M67.3,13.7h-3.8V5.4h3.7l-0.1,0.8h-2.6V9h2.3v0.8h-2.3v3h2.8V13.7z M74.4,13.7
		h-1.3l-1.2-7.1l-1.2,7.1h-1.3l-1.3-8.3h1l1.1,7.4l1.3-7.4h1.1l1.3,7.4l1.1-7.4h0.9L74.4,13.7z M80.7,13.7l-0.5-2.1h-2.5l-0.5,2.1
		h-1l2.2-8.3h1.2l2.2,8.3H80.7z M84.5,10.5v3.2h-1v-3.2l-2.2-5.1h1.1L84,9.6l1.6-4.2h1L84.5,10.5z"/>
</g>
</svg>
