<svg id="ba41c764-aa3b-4e16-98de-3921353721fd" data-name="Layer 1" xmlns="http://www.w3.org/2000/svg" viewBox="0 0 174.54 174.54"><defs><style>.b4108f95-2f61-4a5e-8f42-98bc4b3878bd{fill:#fff;}</style></defs><path class="b4108f95-2f61-4a5e-8f42-98bc4b3878bd" d="M87.27,0a87.27,87.27,0,1,0,87.27,87.27A87.27,87.27,0,0,0,87.27,0Zm0,170.29a83,83,0,1,1,83-83A83,83,0,0,1,87.27,170.29Z"/><path class="b4108f95-2f61-4a5e-8f42-98bc4b3878bd" d="M110.33,91.13a52.36,52.36,0,0,0-8.72-4.29q-4.87-1.78-9.76-3.11c-3.84-1.18-7.69-2.07-11.38-3.1a88.91,88.91,0,0,1-8.87-2.81,30.78,30.78,0,0,1-7.84-4.14,13.2,13.2,0,0,1-4.29-5.47h-.15a13,13,0,0,0,3.85,6.21A29.9,29.9,0,0,0,71,79.15c3,1.18,6.07,2.22,9,3.1,3.85,1,7.54,1.93,11.39,3q4.88,1.33,9.76,3.11a55.64,55.64,0,0,1,8.57,3.84,19.86,19.86,0,0,1,8.73,9h.14A18.41,18.41,0,0,0,110.33,91.13Z"/><path class="b4108f95-2f61-4a5e-8f42-98bc4b3878bd" d="M111.37,99l-.15.15a17.38,17.38,0,0,1,5.47,11.68,16.11,16.11,0,0,0-6.06-9.17l-.15.15a16,16,0,0,1,5.18,11.09,14.25,14.25,0,0,0-5.62-8.28l-.15.15a13.45,13.45,0,0,1,4.58,10.2,10.65,10.65,0,0,0-5.17-7.69l-.15.15c2.81,2.37,4,4.88,4.29,9.46-.74-3.4-2.81-5.32-4.88-6.95l-.15.15c2.52,2.37,4,4.73,4,8.58a10.6,10.6,0,0,0-4.43-5.77l-.15.15a10.91,10.91,0,0,1,3.84,8.28,10.71,10.71,0,0,1-2.81,7.69l.15.15a18.7,18.7,0,0,0,9.17-16.42C118.17,107.54,116,102.07,111.37,99Z"/><path class="b4108f95-2f61-4a5e-8f42-98bc4b3878bd" d="M117.28,103.4h.15a17.27,17.27,0,0,0-7.84-9.61,43.55,43.55,0,0,0-8.42-4c-3.26-1.19-6.36-2.22-9.61-3.11-3.85-1.18-7.54-2.07-11.39-3.1-3.25-.89-6.36-1.93-9.46-3.11a31.1,31.1,0,0,1-7.84-4.29,13.89,13.89,0,0,1-4.43-5.62h-.15a14.5,14.5,0,0,0,4,6.36,24,24,0,0,0,7.84,4.88,74.07,74.07,0,0,0,9.61,3.4c3.84,1.18,7.69,1.92,11.38,3,3.25.89,6.36,1.92,9.47,3A53.39,53.39,0,0,1,109,94.82C112.55,96.74,115.8,99.55,117.28,103.4Z"/><path class="b4108f95-2f61-4a5e-8f42-98bc4b3878bd" d="M111.07,88.32A48.37,48.37,0,0,0,102.2,84c-3.25-1.18-6.65-2.22-10-3.25-3.85-1.19-7.84-2.07-11.68-3.11C77.66,76.78,74.85,76,72.19,75a36.42,36.42,0,0,1-7.54-3.84A14.65,14.65,0,0,1,60.36,66h-.15a13.25,13.25,0,0,0,3.84,5.91,25.88,25.88,0,0,0,7.55,4.44A62.53,62.53,0,0,0,80,79.15c4,1.18,7.84,2.07,11.68,3.1,3.4,1,6.66,2.07,10.06,3.26a49.75,49.75,0,0,1,8.72,3.84c3.85,2.07,7.39,5.32,9,9.46h.15C118.47,94.53,115.07,90.68,111.07,88.32Z"/><path class="b4108f95-2f61-4a5e-8f42-98bc4b3878bd" d="M57.1,66.14c0-7.4,2.81-14.79,9.47-19.22l-.15-.15C56.37,51.65,50.6,62,50.6,73.68c0,8.87,2.66,15.82,8.72,20.11l.15-.15a21.76,21.76,0,0,1-7.24-15.38,20.52,20.52,0,0,0,7.24,12.42l.15-.15c-4.14-3.69-6.06-9-6.51-14.34A19.39,19.39,0,0,0,60.21,88l.15-.15c-4-3.55-5.92-9.16-6.36-13.45a20.36,20.36,0,0,0,7,10.94l.15-.15a18.1,18.1,0,0,1-5.92-12.86,16.66,16.66,0,0,0,6.36,10.2l.15-.15a16.13,16.13,0,0,1-5.47-12.27,15.49,15.49,0,0,0,6.06,9.76l.15-.15C58.58,76.34,57.1,71.17,57.1,66.14Z"/><path class="b4108f95-2f61-4a5e-8f42-98bc4b3878bd" d="M113,83.14a48.48,48.48,0,0,0-9.17-4.58c-3.4-1.33-6.8-2.37-10.35-3.4C89.63,74,85.64,72.94,81.65,71.9c-2.51-.73-5.18-1.47-7.69-2.36a32.36,32.36,0,0,1-7.24-3.4,11.25,11.25,0,0,1-4.59-4.88H62A10.54,10.54,0,0,0,66,67a27.7,27.7,0,0,0,7.39,4,79.69,79.69,0,0,0,7.84,2.36c4,1,8,2.07,11.82,3.26,3.55,1,7,2.07,10.35,3.25a61.57,61.57,0,0,1,9,4.14,21.82,21.82,0,0,1,9.17,10.2h.15A20.17,20.17,0,0,0,113,83.14Z"/><path class="b4108f95-2f61-4a5e-8f42-98bc4b3878bd" d="M87.27,8.47a78.8,78.8,0,1,0,78.79,78.8A78.8,78.8,0,0,0,87.27,8.47Zm6.5,125.83c-18.77,0-31.34-11.09-31.49-11.09a101.34,101.34,0,0,0-11.83,10.35c-.59.59-1.18.3-1.18-.29a232,232,0,0,0-1-32.53.71.71,0,0,1,1.33-.3A71.34,71.34,0,0,0,63.46,120a42.25,42.25,0,0,0,30.46,12.57c6.51,0,10.94-1.78,13.31-4.14a9.18,9.18,0,0,0,2.66-6.95c0-6.07-5.17-10.21-22.77-14.49-16.71-4.14-25.88-8.14-30.75-12.87S49,84,49,73.68C49,55.79,61.54,42,82.24,42c16,0,26,10.05,26.76,10.05s7.54-7.1,10.8-11.53c.44-.59,1-.3,1,.29a290.61,290.61,0,0,0-.29,30c0,.59-.74.74-1.19.15-4.28-6.8-8.13-12-12-15.82C100,47.8,93,43.81,81.8,43.81c-7,0-12,2.07-14.64,4.73a8.61,8.61,0,0,0-2.51,6.51c0,5.32,4,8.72,16.26,12,25,6.66,32.82,10.06,38.44,15.53,4.59,4.44,7,10.35,7,19.67C126.3,118.92,114.92,134.3,93.77,134.3Z"/><path class="b4108f95-2f61-4a5e-8f42-98bc4b3878bd" d="M113.88,80.33a51,51,0,0,0-9-4.43c-3.55-1.33-7-2.52-10.5-3.55-4-1.18-8.13-2.22-12.12-3.26a72.72,72.72,0,0,1-7.54-2.36,30.62,30.62,0,0,1-7.1-3.11A9.83,9.83,0,0,1,63,59h-.15A10.46,10.46,0,0,0,67,64.66a33,33,0,0,0,7.25,3.55c2.51.88,5,1.62,7.54,2.36,4.14,1,8.13,2.07,12.12,3.26,3.4,1,7,2.07,10.35,3.4a59.84,59.84,0,0,1,8.87,4.14A21.49,21.49,0,0,1,122.61,92h.14A20.25,20.25,0,0,0,113.88,80.33Z"/><path class="b4108f95-2f61-4a5e-8f42-98bc4b3878bd" d="M112.11,85.65a50.67,50.67,0,0,0-9-4.28C99.69,80,96.29,79,92.89,78c-4-1.19-7.84-2.22-11.83-3.26-2.66-.74-5.32-1.33-8-2.36a34.76,34.76,0,0,1-7.39-3.7,11.68,11.68,0,0,1-4.44-5.17H61.1a11.3,11.3,0,0,0,4,6.06,29.12,29.12,0,0,0,7.54,4.14q4,1.54,8,2.66c4,1,8,2.07,11.83,3.1,3.4,1,6.8,2.07,10.21,3.26a67.49,67.49,0,0,1,8.87,4c3.84,2.22,7.39,5.62,9,9.91h.14A20.27,20.27,0,0,0,112.11,85.65Z"/></svg>