<svg id="ac2f143b-6654-4118-9763-6cf9aca2651a" data-name="Layer 1" xmlns="http://www.w3.org/2000/svg" viewBox="0 0 179.86 51.3"><defs><style>.bf1cdf03-ebe2-448c-a476-129d2579b141{fill:#fff;}</style></defs><path class="bf1cdf03-ebe2-448c-a476-129d2579b141" d="M0,0V51.3H179.86V0ZM33.7,29c0,5.74-4.16,9.64-10.33,9.64S13,34.77,13,29V12.6H33.7Zm20.1,9.42H39.58V12.82h8.27c2.78,0,4,.21,5.16.72a7.24,7.24,0,0,1,4.19,7,7.4,7.4,0,0,1-4.33,7v.07a6.16,6.16,0,0,1,.86,1.26L59,38.45Zm26.34,0H62l9-25.63h4.87l9,25.63Zm28.31,0h-20L82,12.82h33Zm16.8.44a12.39,12.39,0,0,1-8.84-3.51l2.53-3.5,3.56-5.22c-2.85-1.33-5.55-3.12-5.55-6.84,0-4.26,3.68-7.44,8.59-7.44a10.89,10.89,0,0,1,7.66,2.75l-2,3.79-2.81,5.59c2.77,1.29,5.33,3.08,5.33,6.86C133.7,35.46,130.6,38.89,125.25,38.89Zm38.46-.44H135.48l6.61-25.63h20l6.42,25.63Z"/></svg>