<svg id="bdccbd9c-ebe6-4a67-9887-8ff8cadab1bb" data-name="Layer 1" xmlns="http://www.w3.org/2000/svg" viewBox="0 0 179.78 200.21"><defs><style>.a9007384-2502-41c9-b745-2f9dad0f4eb9{fill:#333;}</style></defs><path class="a9007384-2502-41c9-b745-2f9dad0f4eb9" d="M60.63,41,60,40.85a22.77,22.77,0,0,1,7.8.51,6.28,6.28,0,0,1,2.71,1.37,15.7,15.7,0,0,1,1.85,2.21,1.52,1.52,0,0,1,.21,1.35,5.4,5.4,0,0,0,.07,1.49c0,.58,0,1.15-.06,1.73a.46.46,0,0,0,.11.27,1.46,1.46,0,0,1,.22,1.74c-.26.65-.64,1.25-.9,1.9a3.48,3.48,0,0,0-.27,1.3c0,1.47.7,2.81.92,4.24.15,1,.36,1.94.59,2.9.28,1.18.72,2.35.88,3.55.12.89.49,1.66.68,2.51.12.52.13,1.08.24,1.61,0,.25.3.45.35.7.25,1.13.44,2.27.69,3.4.14.67.37,1.32.49,2,.19,1,.3,2,.48,3.07s.39,2,.59,3.07c.08.41.18.82.24,1.24.22,1.53.44,3.07.64,4.61.16,1.12.33,2.25.41,3.39s.36,2,.39,3,.22,2.16.23,3.23c0,2.34,0,4.67,0,7,0,.83-.13,1.66-.18,2.49-.07,1.08-.09,2.17-.19,3.24s-.27,2-.37,3c-.08.71-.06,1.44-.15,2.15a10.9,10.9,0,0,1-.36,1.36s0,.1,0,.13c.4,1-.12,1.9-.44,2.79a3.86,3.86,0,0,0-.36,1.28,20.26,20.26,0,0,1-.25,2.89c-.31,1.73-1.23,3.26-1.34,5,0,.38-.33.74-.47,1.12a5.23,5.23,0,0,0-.12.57l-.3,1.38c-.09.43-.17.85-.26,1.28a4,4,0,0,1-.11.5c-.09.3-.19.6-.32,1-.43,0-.59.34-.63.9a6.28,6.28,0,0,1-.47,1.43l.44.19A4.28,4.28,0,0,0,72,139.53a7,7,0,0,1-.16.82,2.93,2.93,0,0,1-.31.7c-.47.81-1,1.62-1.43,2.42-.7-.11-.73-.07-.62.64a.54.54,0,0,1-.14.44c-.42.36-.22.6.12.86l-.55.59.54.11a8.49,8.49,0,0,1-.59.68,1.9,1.9,0,0,0-.83,1.14c0,.23-.34.42-.39.63a4.06,4.06,0,0,1-.2.78c-.3.64-.61,1.28-1,1.9A3.84,3.84,0,0,0,66,152l-.71.13-.24-.56c-.35,1.07-.65,2-1,3,0,0,0,.05,0,.06-.9,1.18-1.81,2.36-2.69,3.55-.24.32-.37.73-.61,1a1,1,0,0,1-.58.18,2.88,2.88,0,0,1-.59,0c0,.3-.09.79.06.88.33.2.13.3,0,.44L58.56,162c-.22.26-.42.54-.66.78-1.1,1.11-1.95,2.47-3.4,3.2a2.57,2.57,0,0,1-.55.12l.55.27c-1.74,1.18-3.36,2.28-5,3.39-.05,0,0,.19,0,.14-.38.06-.82,0-1,.19-.54.47-1.22.42-1.83.6-1.37.41-2.78.71-4.19,1a10.88,10.88,0,0,1-1.52.1c-.23,0-.47,0-.71,0s-.42,0-.63,0-.23-.09-.31-.06a5.88,5.88,0,0,1-2.36.17,12.18,12.18,0,0,1-2.54-.27,6.74,6.74,0,0,1-.9-.14,5.21,5.21,0,0,1-.81-.35c-.08,0-.15-.12-.23-.13-.65-.11-1.31-.16-1.95-.31a10.82,10.82,0,0,1-1.56-.58c-.77-.31-1.53-.61-2.28-.94-.44-.2-.85-.47-1.28-.68s-.79-.2-.94-.45c-.39-.66-1.44-.47-1.63-1.35,0-.07-.22-.09-.32-.16s-.45-.32-.69-.45-.36-.59-.76-.24c-.05,0-.32-.19-.52-.32a.76.76,0,0,1,1-.1c.45.27.65-.27,1-.61-1.47-.4-3-.47-3.92-2l.55-.26-1-.9c.22-.89-.06-1.2-1.55-1.53l.59.47c-.61.13-.87,0-.77-.59s-.3-.61-.48-.53c-.65.3-.68-.33-1-.5l.08-.18.85.37c.33.16.7.61.86-.17,0-.1.21-.16.32-.24a4.1,4.1,0,0,0-.71-.64,1.63,1.63,0,0,0-.67,0c-.09,0-.22,0-.27,0s0-.18-.05-.28,0-.33,0-.41a18.83,18.83,0,0,1-2.61-2.84c-.35-.59-1-.59-1.26-1.13L12,153c-.17-.05-.33-.16-.39-.12-.53.37-.66-.06-.9-.38s-.58-.57-.83-.89a2,2,0,0,1-.39-.77c-.14-.59-.89-.34-1.1-.86-.09-.24-.47-.36-.29-.75,0-.08-.23-.3-.41-.53l-.14.54-.39-.92-.69.07.88-.81c-.75,0-1.05-.49-1.37-1a22.06,22.06,0,0,0-1.33-1.86l.52,0c-.32-.93-.36-.95-.82-.51l-.8-1c.65,0,.29-.53.3-.84,0-.12-.21-.25-.41-.31a10.1,10.1,0,0,0-.36-1.1c-.08-.17-.31-.27-.42-.43-.33-.47-.64-.95-.95-1.42l.3-.22.21.53.2-.12-.59-1.76c.45.82,1.51,1.1,1.77,2.06.08.3.65.23,1-.15-.4-.37-.8-.74-1.19-1.12,0,0,.11-.13.07-.08l-.75-1c-.34-.43-.71-.85-1-1.31s-.36-.74-.58-1.09a2.1,2.1,0,0,0-.44-.4,1.06,1.06,0,0,1,1.19.47,3.28,3.28,0,0,0,1.43,1.4c.37.18.62.61.93.93.82.88,1.59,1.81,2.49,2.62a20.55,20.55,0,0,0,3.22,2.52c1,.59,1.8,1.46,2.88,2a18.24,18.24,0,0,1,2.26,1.52c.76.52,1.53,1,2.32,1.52,1.52,1,3,1.91,4.59,2.82.6.35,1.28.54,1.9.86,1.1.56,2.15,1.22,3.27,1.73a21.52,21.52,0,0,0,2.4.74c.16,0,.28.2.44.24a20.59,20.59,0,0,0,2.29.55c.64.08,1.31-.23,1.94.21.14.1.44,0,.71-.07l-.26.53a3,3,0,0,0,.66-.06,4.06,4.06,0,0,1,2.49-.26,4.62,4.62,0,0,0,1.79-.27c.37-.07.74-.15,1.1-.25.09,0,.15-.14.22-.22s.14-.2.15-.19c.89.43,1.43-.33,2-.69a21.92,21.92,0,0,0,2.43-1.57c.84-.71,1.58-1.53,2.36-2.31.2-.19.39-.39.61-.58l.61-.59,1.38-1.79,1.53-2,.47.22c-.51-1,.39-1.33.75-1.89a3.06,3.06,0,0,0,.47-.79c.11-.48.24-.86.84-.78l-.42-.09c.38-.52.74-1,1.06-1.47.1-.14,0-.37.13-.52s.38-.42.52-.66a6.44,6.44,0,0,1,.5-1,3.23,3.23,0,0,1,.86-.54c.23-.13.9.09.46-.61l1-.67-1-.43.81-1.37c.23-.4.44-.81.68-1.19a2.83,2.83,0,0,1,.55-.68,5.29,5.29,0,0,1,1.21-.8c.3-.13.71-.43,1,0l.56-.53-.66-.12c-.11-.16.39-.53-.16-.55l.11-.63a3.31,3.31,0,0,1-.64.1,1.85,1.85,0,0,1-.79-.14c-.08-.05,0-.44.05-.65a6,6,0,0,1,.32-.75c.15-.57.24-1,.38-1.43s.26-.61.38-.93a3.58,3.58,0,0,0,.43-.88A15.85,15.85,0,0,1,63,121a10.65,10.65,0,0,0,.47-2.55c0-.11,0-.23,0-.32a12.25,12.25,0,0,0,.84-3.25c.27-1.21.58-2.41.81-3.62.17-.93.22-1.88.38-2.81.06-.38.3-.72.37-1.09a3.1,3.1,0,0,0-.08-.85,1.5,1.5,0,0,1,0-.36,50.19,50.19,0,0,0,.45-5.33c.09-1.61.28-3.21.36-4.82a10.16,10.16,0,0,1,.17-2.38,9.52,9.52,0,0,0-.14-2.23c0-1.15.11-2.3.11-3.46s-.07-2.39-.1-3.59c0-.55.08-1.1,0-1.65,0-.9-.17-1.79-.23-2.69-.09-1.22-.14-2.46-.25-3.68-.17-1.82-.34-3.65-.58-5.46-.17-1.33-.48-2.64-.68-4,0-.37.16-.77.11-1.14a1.39,1.39,0,0,0-.45-.82c-.2-.16-.54-.13-.82-.18l-.36,0,.38-.73a1.33,1.33,0,0,0-1.25.88.61.61,0,0,1-.29.19l-.6.26s-.08.1-.09.09c-.89-.45-1.07.49-1.59.79a6.49,6.49,0,0,1-1.15.37c-.29-.55-.85-.32-1.43-.34-.41,0-.73.19-1.13.16a2.81,2.81,0,0,0-1.29.12,1.65,1.65,0,0,1-1.31-.09l.12-.53-.76.32-.47-.4c-.14.54-.45.58-.92.5-.26,0-.57.22-.86.29-.53.12-1.07.16-1.59.3a4.67,4.67,0,0,0-.91.42l-.63.34,1.07,1-.09.13H48c.14.7,0,1.19-.77,1.33-.24,0-.4.41-.64.55s-.61.23-.85.37-.6.41-.86.64-.41.51-.64.73a7.86,7.86,0,0,1-.9.74c-.86.6-1.71,1.19-2.59,1.75s-1.62,1-2.45,1.4A37,37,0,0,1,34.83,78c-1.6.65-3.24,1.18-4.88,1.71a13.7,13.7,0,0,1-2.5.64c-1.56.19-3.14.25-4.7.38-.76.06-1.51.16-2.26.22A1.72,1.72,0,0,1,19,80.44a2.47,2.47,0,0,0-.79-.41c-.08,0-.21,0-.24-.1a3.37,3.37,0,0,0-1.46-1.48c-.23-.12-.53-.18-.68-.36a22.26,22.26,0,0,1-2.32-3A2.73,2.73,0,0,1,13,73.61a19.38,19.38,0,0,1-.1-2.14,16.51,16.51,0,0,1,.87-3.07,36.57,36.57,0,0,1,1.9-4.24c.79-1.47,1.75-2.85,2.64-4.28a8.79,8.79,0,0,1,1-1.52,8.53,8.53,0,0,0,.92-1.27c.8-1.19,1.58-2.4,2.38-3.59.27-.4.6-.76.88-1.17s.51-.84.76-1.27a.88.88,0,0,0,1.32-.4l-.57-.18,0-.12.59-.19a9.72,9.72,0,0,0,2.06-1.4c.43-.27.82-1,1.66-.4l-.05-.29-.32-.26c.85-.27,1.72-.59,2.61-.81s2.1-.56,2.92.31c.4.42.93.4,1.28.69A4.6,4.6,0,0,1,37,49.64a50.41,50.41,0,0,1,1.78,5,11.6,11.6,0,0,1,.37,2.82,22.59,22.59,0,0,1-.91,7c-.39,1.33-.85,2.65-1.25,4a5.87,5.87,0,0,0-.09,1A21.8,21.8,0,0,0,39.1,69c1-.36,2-.81,3-1.22s1.77-.69,2.66-1c.14,0,.32,0,.47,0a5,5,0,0,0,1.24-.19c.11,0,0-.49.11-.74a1,1,0,0,1,.28-.45.4.4,0,0,1,.38.1c.33.51,1,.18,1.35.52l.5-.66-.59-.12.29-.32-1.71-.14.09-.62-1.14-.6v.15H44.62a10.28,10.28,0,0,1-.39-4.56,15.4,15.4,0,0,1,1-3.74c.47-.95.65-2.06,1.16-3,.39-.71.75-1.44,1.21-2.11A35.21,35.21,0,0,1,50,46.82a13.73,13.73,0,0,1,5.38-4.31c1.05-.4,2.06-.92,3.13-1.26.44-.14,1-.45,1.49-.08C60.13,41.24,60.38,41.08,60.63,41ZM26.74,71.79l.11.14a8.84,8.84,0,0,0,.87-.86,29.2,29.2,0,0,0,2.9-5.71c.09-.19.37-.31.42-.5.17-.53.24-1.08.39-1.61A5.05,5.05,0,0,1,32,61.42c.38-.51.26-1.07.47-1.59a8.3,8.3,0,0,0,.28-2.52c0-.22,0-.6-.11-.61a1.55,1.55,0,0,0-.73.09c-.14,0-.24.2-.37.26A12.56,12.56,0,0,0,26.49,62a39,39,0,0,0-2.6,4.85c-.54,1.14-.84,2.39-1.27,3.58-.22.6.12.8.6.87.81.11,1.63.17,2.45.28C26,71.62,26.38,71.72,26.74,71.79ZM62.66,51.07c.07,0-.11,0-.13,0-.23-.74-.62-.37-1-.14a2.61,2.61,0,0,0-.44.38,14.76,14.76,0,0,0-3.85,6.05c0,.11-.2.17-.34.28.37.91-.11,1.79-.55,2.72a7.68,7.68,0,0,0,4-1.15c1.07-.62,2-1.51,3-2.21.48-.33.63-.64.36-1.16-.06-.11,0-.28,0-.42a.29.29,0,0,0-.14.21s0,0,0,0c-.23-.94-.47-1.87-.67-2.81C62.78,52.26,62.74,51.71,62.66,51.07Z"/><path class="a9007384-2502-41c9-b745-2f9dad0f4eb9" d="M113.27,122.68l-.49-.09c.58.39.38.93.41,1.46a1.34,1.34,0,0,1-.76,1.55l.88.37c-.68.36-.68.56-.25.93s.2.8-.28,1.1l.47.68-.56-.05-.08.1.56.32-.06.14-.63.1c.87.52.4,1.19.39,1.85l-.39-.2v.21a8.4,8.4,0,0,0,.25,2.34c0,.11-.16.25-.26.4l.35.43a6.25,6.25,0,0,0-.69,1.25c-.08.23.17.55.19.83a4.41,4.41,0,0,1-.11.79c0,.18,0,.37-.08.72a2,2,0,0,0-.36,1.5c0,.2-.13.43-.15.64-.06.77-.07,1.53-.13,2.29s.3,1.38-.68,1.77l.51.1-.09.72-.81.2c.79.4.66.91.5,1.48,0,.18.16.43.27.69-.28.27-.75.45-.67,1.13,0,.44-.55.9,0,1.41,0,0-.06.31-.16.39-.47.38-.14.81-.17,1.26l-.39.21v.14l1,.06-.25.53-.55-.15c-.12.2-.34.41-.32.6,0,.68.12,1.31-.5,1.81-.12.11-.08.42-.1.64s.05.41,0,.49c-.46.39-.25.61.28.78l-.15.14-1.29-.48.12-.45c-.15,0-.35,0-.38.07-.14.34-.24.71-.33,1l1.4.19-.87,1.57-.09-.38-.27.42v-1.41l-.6.28-.41-.6-.31.79-.2-.3.46,1.15,1.42.8v.67c0,.47-.29.55-.65.57a1.11,1.11,0,0,1-.26-.07l-.21.23.59.47a1.3,1.3,0,0,0-.55-.16c-.17,0-.33.16-.5.26.12.11.24.31.37.31.62,0,.69.79.66.85a5.75,5.75,0,0,1-.93,1.51c-.24.27-.26.2-.24.67,0,.29-.23.58-.39.92l.62.42-.28,1-1,.24c.56.64.5,1-.14,1.41l.55.69a8.65,8.65,0,0,0-1.08.33c-.15.06-.25.24-.38.36l.74.49a1.81,1.81,0,0,1-1,1.66l-.27-.45c-.5.49,0,.66.19.85,0,.58-1.29.63-.63,1.5l-.46.62-.4,0-.36,1.67.56.32c-.42.46-.84.9-1.23,1.35-.13.14-.32.33-.29.46.14.57-.29.92-.44,1.38a3.09,3.09,0,0,0,0,1,1.26,1.26,0,0,0-1,1.33l-.76.25.25.55-.68.12c.71.44.1.8.1,1.17s-.47.64-.44,1.05c-.41-.07-.73-.13-.62.46.07.38.25.84-.3,1.13-.13.06-.07.48-.11.8l-.68.16v1.13l-.57.06.24.7-.9-.37.44.67c-.39.14-.35.27.18.34-.62.62-1.16,1.14-1.66,1.69-.14.16-.14.43-.23.64a9.64,9.64,0,0,1-2.57,3.34,10.84,10.84,0,0,0-.93,1.33c-.18.22-.5.51-.71.48-.63-.09-1.06.41-1.51.45-.79.08-1.24.93-2.13.69-.46-.12-1,.14-1.53.15-1.09,0-2.19-.06-3.29,0-.62,0-1.24.19-1.87.27-.16,0-.41,0-.47-.11a1.32,1.32,0,0,0-1.36-.57,2.59,2.59,0,0,1-.56-.13l-.61.43v-.2l-1.87-.11c.12-.17.2-.28.29-.39l-.7-.37,1.44-.54a.77.77,0,0,1,.34,0c.13.34.39.5.63.23s0-.52,0-.6c-1-.12-2-.25-2.85-.33a4.63,4.63,0,0,0-1.34,0,8.87,8.87,0,0,1-2.47-.09c-.09,0-.18-.1-.38-.22l.67-.3-1.37-.62.12-.41-1.27-.62c.52-.28,1.44.32,1.38-.54a10,10,0,0,0,1.15-.25,1.79,1.79,0,0,1,1.42-.08c.2.09.54-.13.81-.22l1.07-.38a9.84,9.84,0,0,0,1.37,0c.06,0,0-.47.07-.8,1.36-.24,2.34-1.39,3.47-2.26.35-.27.45-.86.66-1.3.06-.1.14-.3.17-.29.71.15.74-.62,1.23-.84l-.45-.41c0-.05.07-.12.08-.11,1,.35,1.15-.66,1.56-1.14.88-1,1.67-2.08,2.48-3.14a2.8,2.8,0,0,0,.23-.7l.93-.92c.68.26.82-.41,1.12-.86l-.57-.32.91-.7-.14-.54,1.39-.16-.6-.56c.23-.1.48-.13.55-.25s.35-.65.25-.82a1.18,1.18,0,0,1-.08-1c.11-.56.57-.66,1-.76s.65-.42.51-1l1,.07-.27-.86c.19-.26.46-.46.48-.69a2.21,2.21,0,0,1,.53-1.56c.06,0,0-.2,0-.36l-.49.1-.11-.16c.16-.1.31-.29.47-.29.47,0,.83-.09.9-.63,0,0,.08-.11.13-.13.75-.18.64-.77.66-1.34l.22.36c.19-.44.2-1,.92-1,.12,0,.26-.47.39-.73l-.17-.12-.82.27c.06-.41.54-.88-.39-1.12a5.63,5.63,0,0,1,1.44-.44,4.56,4.56,0,0,1,1.23.41l.14-.19-.33-.61-.57.21c0-.34-.59-.3-.42-.81,0-.15-.3-.42-.48-.66a1.44,1.44,0,0,0,.26-.08c.2-.11.49-.2.57-.37.31-.67.56-1.36.83-2,.11-.28.32-.56-.21-.63-.13,0-.24-.15-.37-.24.34-.22.64-.4.93-.6a2.72,2.72,0,0,0,.32-.35l-.44-.25a2.13,2.13,0,0,1-.44-.38,3.64,3.64,0,0,0,.47-.14c.46-.17.8-.39.42-1,0-.06.06-.34.09-.34.79,0,.67-.49.63-1l.49-.09a1.12,1.12,0,0,0,0-.13l.18-.83s.07-.1.06-.11c-.74-.74.49-1.41.09-2.16,0-.08.19-.36.34-.49s.38-.15.44.16c0,0,.23,0,.35,0a1.36,1.36,0,0,0,0-.5c-.06-.11-.31-.12-.37-.24a1.5,1.5,0,0,1-.15-.61c1-.39-.13-.6-.06-.89l.85-2.74.23,0L99,147l1-.35.3,1.4h.19l.38-.53c-.36-.8-.21-2.06-1.61-2.17.19-.65.77-1.08.55-1.78,0-.15.1-.37.17-.56a1.78,1.78,0,0,1,.21-.27l-.5,0-.08-.13a3,3,0,0,1,.47-.24c.31-.11.62-.18.94-.27l-.07-.24-.71.11-.07-.11,1.09-.76s.11,0,.16,0l.5.12a2.78,2.78,0,0,0,.08-.49,2.6,2.6,0,0,0-.1-.46c-.69.24-1.4,1.06-2.13.06l.75-.84-.4-.28a5.53,5.53,0,0,0,.59-.12A.33.33,0,0,0,101,139a.36.36,0,0,0-.13-.25l-.73-.55a3.1,3.1,0,0,0,.8-3c0-.18-.21-.56.27-.64.1,0,.15-.35.17-.56.31-.16.54-.34.2-.79-.1-.14-.13-.5,0-.56.49-.36.17-.53-.24-.74.24-.2.49-.32.59-.52a1.58,1.58,0,0,0,0-.65c.24,0,.61.21.69.12a3.13,3.13,0,0,0,.35-1l-1.1.4c-.14-.48.41-1.15-.32-1.4l.38-1h.33l-.19-1.32.4-.75-.49-.3,0-.18.91.09a1.26,1.26,0,0,0-.7-1.35l.38-.18-.38-.46c.35-.41.22-.38.08-1.08a5.31,5.31,0,0,1,.25-1.68,3.82,3.82,0,0,0,.12-.66.92.92,0,0,1,1.12-.88c-.25-.83-1-.19-1.41-.53.57-.38.71-1,.43-2-.09-.35-.24-.68.21-.9.06,0,.13-.23.09-.27-.73-.8-.13-1.74-.3-2.57-.1-.48.41-1-.1-1.43,0,0,.21-.44.41-.83l-.29-.56c.19-.16.87-.12.19-.63-.2-.16-.06-.78,0-1.19,0-.09.19-.18.29-.27l-.42-.22-.07,0,.17-2.36.32-.19c0-.08,0-.13-.07-.15-.54-.27-.61-.59-.27-1.05a.66.66,0,0,0,.1-.46,10.78,10.78,0,0,1-.26-1.23c0-.27.18-.54.2-.79s0-.71-.07-1.06c0-.55-.1-1.1-.09-1.64a5.32,5.32,0,0,1,.24-1.07,10.63,10.63,0,0,1-.24-1.65,10.74,10.74,0,0,0,.1-2.1c-.27-1.09,0-2.2-.26-3.27,0-.08-.06-.19,0-.25.43-.89-.23-1.77,0-2.66,0-.09-.12-.23-.08-.3.62-1.14-.19-2.24-.1-3.39a29.27,29.27,0,0,0-.15-4.28c-.09-1.39-.22-2.78-.36-4.17-.15-1.55-.31-3.09-.51-4.64-.07-.58-.29-1.14-.4-1.71a4.3,4.3,0,0,1,.07-.89c-.44.28-.73.48-1,.65a4.76,4.76,0,0,1-.53.19c-.41.19-.81.4-1.22.58s-.86.49-1.17.39a3.29,3.29,0,0,0-2.17.09c-.2.6-.33.62-.79.16a7.27,7.27,0,0,1-1.33.42,1.24,1.24,0,0,1-.91-.3c-.45-.47-.6.41-1,.16-.12-.07-.42.15-.61.22l-.32-1.28-.38.7a18,18,0,0,1-1.87-.78c-.56-.31-1.4-.12-1.74-.94-.85.25-1-.69-1.64-1,.86-.24.6-.68.25-1.13-.64.35-.83.25-1-.41-.06-.21-.34-.37-.54-.53a5.74,5.74,0,0,1-1.49-2.18c-.24-.55-.75-1-.6-1.69,0-.08-.25-.19-.3-.32a2.8,2.8,0,0,1-.22-.8c-.09-.3-.18-.6-.28-.9s-.31-.69-.41-1.06,0-1.13-.34-1.43c-.44-.46-.27-.93-.34-1.4a2,2,0,0,1,0-.25c0-.25,0-.51,0-.76l-.2,0,.44-.14c-.14-.28-.25-.56-.4-.82-.35-.6.18-1.27-.2-1.88-.12-.2-.1-.73,0-.79.59-.3.2-.77.26-1.14.13-.77.15-1.55.27-2.32s.26-1.59.44-2.37A10.51,10.51,0,0,1,80,44.12c.06-.15,0-.33.08-.49a3.26,3.26,0,0,1,.22-.69,7,7,0,0,1,.51-.67c.61.67-.14,1.42.2,2.26.12-.35.2-.6.29-.85.22-.63.41-1.28.69-1.88a2.34,2.34,0,0,1,2-.54c.81.51,1.78.39,2.6.75s1.45.89,2.21,1.26.82.89,1.18,1.37a1.33,1.33,0,0,1-.33,2.16c-1.13.6-1.27,1.6-1.45,2.65s-.47,2.36-.56,3.56c-.06.77.23,1.56.2,2.33a7.88,7.88,0,0,0,.5,2.57,30.58,30.58,0,0,0,1,2.93,15.77,15.77,0,0,0,2.14,3.53c.33.44.55,1.06,1.15.94A4.4,4.4,0,0,0,95,64.6c.55-.48,1.28-.75,1.85-1.21a10.29,10.29,0,0,0,2.28-2.33,7.65,7.65,0,0,0,1-1.56,12.09,12.09,0,0,0,.35-2.18c0-.15.11-.29.13-.44a1.34,1.34,0,0,0,0-.44c-.06-.36-.13-.71-.2-1.07a2.28,2.28,0,0,1-.1-.57c0-.67-.41-1.33-.06-2a.31.31,0,0,0,0-.25c-.3-.45-.31-.44,0-.87,0-.26-.8-.73.2-.72.08,0,.25-.27.22-.34a2.74,2.74,0,0,0-.45-.56l.47-.92.36.61a3.62,3.62,0,0,0,.42-.36c.41-.52.8-1.05,1.22-1.56a.68.68,0,0,1,.44-.19c1.18,0,1.23,0,1.14-1.19a1.74,1.74,0,0,1,0-.31c.31.27.63.59.77-.08,0,0,.14-.07.18-.13s.2-.32.29-.49l-.55.08-.2,0,.09-.93c.64-.53,1.43.34,2.22-.21l.34,1.18-.85.06c.65.24,1,.53,1.13,1.06a4.59,4.59,0,0,1,.1.51,11.17,11.17,0,0,0,.62,3.66c.15.33,0,.77.17,1.12.36,1.05-.14,1.93-.45,2.87a12.16,12.16,0,0,0-.28,1.6,9.85,9.85,0,0,1-.33,1.35,7.26,7.26,0,0,0-.31,3.43c.27,2,.42,4.06.69,6.08.21,1.55.55,3.09.82,4.64s.55,3.27.84,4.91c.15.81.39,1.62.52,2.44s.1,1.62.23,2.42.38,1.52.5,2.29q.48,3,.87,5.93c.28,2.19.55,4.39.78,6.59.16,1.6.34,3.21.34,4.82,0,.73.21,1.42.18,2.14,0,.36-.18.72-.17,1.09a9.12,9.12,0,0,0,.22,1,15.36,15.36,0,0,1,.19,1.78c0,1.42-.07,2.84,0,4.26,0,1.15.22,2.3.25,3.45s-.09,2.4-.11,3.6c0,.89.06,1.79.08,2.69C113.28,121.8,113.27,122.22,113.27,122.68Z"/><path class="a9007384-2502-41c9-b745-2f9dad0f4eb9" d="M143.21,63.37l-.59.21c.77.48.57,1.28.57,1.9a21.27,21.27,0,0,1-.43,3.45A20.44,20.44,0,0,1,142,72a8.56,8.56,0,0,1-1.18,2.43c-.33.47-1,.65-1.54,1a7.29,7.29,0,0,0-1.7,1.13,1.27,1.27,0,0,1-1.67.19c-.31.78-1,.46-1.57.64a1.84,1.84,0,0,1,.19.51.56.56,0,0,1-.16.44,2.41,2.41,0,0,1-.9.56c-1,.16-.81,1.06-.94,1.64a11,11,0,0,0,0,2.37l-.48.22c.13.13.33.24.37.39a2.7,2.7,0,0,1,0,.75c0,.27-.1.54-.11.81,0,1,0,1.92-.05,2.88s-.13,1.77-.21,2.65a2.37,2.37,0,0,0,0,.79,5.23,5.23,0,0,1,.13.87c0,1.07,0,2.14,0,3.22a2.6,2.6,0,0,1,0,.26c0,.85-.08,1.7-.14,2.55,0,.18-.18.34-.23.52-.17.56-.32,1.13-.48,1.71.77,0,.92.31.6.88a.55.55,0,0,0,0,.36c.09.58.24,1.15.28,1.73,0,.28-.24.58-.22.87,0,1.23.17,2.45.24,3.68,0,.59,0,1.19,0,1.79,0,.21.06.41,0,.62,0,.7-.08,1.41,0,2.1s-.41,1.48-.3,2-.32,1.3.29,1.83c.13.11,0,.48,0,.76.5.31.45.8.35,1.33,0,.21.07.45,0,.66-.18.89.33,1.79,0,2.68.43.46-.08.85-.08,1.24a5.19,5.19,0,0,0,.49,1.52c0,.13.19.31.15.38-.44.68.09,1.27.15,1.9s.08,1.3.1,1.73c.1.81.16,1.42.25,2,0,.38.15.74.21,1.12a6.59,6.59,0,0,1,.07,1,2.7,2.7,0,0,0,.14.88c.23.7.51,1.51-.1,2.19a3.33,3.33,0,0,1,.54.86,1.23,1.23,0,0,1-.12.93c-.25.31-.1.34.1.51s.48.51.43.68c-.32,1.11.19,2.09.35,3.12a4.44,4.44,0,0,0,.27,1.35,6.62,6.62,0,0,1,.25.62c-.54.4,0,1,.13,1.51s.12,1.08.77,1.25a.41.41,0,0,1,0,.36c-.28.57-.53,1.12.07,1.65a.21.21,0,0,1,0,.19c-.46.68.07,1.37,0,2.06,0,.44.32.92.53,1.46-.38.37-.25.85.1,1.31s.05.86.08,1.29a3.18,3.18,0,0,0,.19.75,3.91,3.91,0,0,1,.28.68c.09.68.14,1.37.2,2.06a4.91,4.91,0,0,0,0,.54c.21,1,.45,2,.67,3,.11.5.21,1,.31,1.53l.61.08v.16l-.49.1.13.54.14-.14.72.52-.85.13a3.53,3.53,0,0,1,.55,2.24.38.38,0,0,0,.07.29,2.91,2.91,0,0,1,.51,1.77c0,.14.3.27.42.35-.54.11-.36.42-.1.91a8.89,8.89,0,0,1,.51,1.71c.48-.19.79-.91,1.44-.29l-.43.51.68.94c-.22.13-.61.24-.74.49s0,.61.11.9.29.35.52.62l-.71.15a2.76,2.76,0,0,0,.07.49c.22.56.48,1.1.67,1.67a6.94,6.94,0,0,1,.19,1c0,.16,0,.36.1.48a7,7,0,0,1,.81,2.29.44.44,0,0,0,.21.25c.43.17.48.3.21.65.68.18.88.55.44,1s-.19.58,0,.67c0,.43.06.73.1,1,.1.85.21,1.7.3,2.55,0,.12-.11.31-.06.35.68.67.12,1.63.57,2.35a.46.46,0,0,1-.09.4c-.6.59-.26,1.06.18,1.48s.29.51,0,.77a1.46,1.46,0,0,1-1.86.14c-.69-.35-1.44-.58-2.16-.87.18-.22.16-.37-.21-.55a6.25,6.25,0,0,1-1.28-1c-.11-.09,0-.32-.17-.54-.83-1.25-1.52-2.59-2.33-3.85a5.27,5.27,0,0,0-1.1-1,2.14,2.14,0,0,0-1.09-2.16,4,4,0,0,0-.35-1.25c-.19-.27-.18-1-.86-.67,0,0-.09-.1-.15-.16l.49-.25-.74-.4a5.71,5.71,0,0,0,.52-.38.31.31,0,0,0,0-.28c-.31-.18-.65-.31-.94-.51s-.43-.42-.38-.54c.21-.56-.31-.8-.5-1.27l.55.14c-.22-.6-.41-1.22-.67-1.8-.07-.13-.36-.16-.63-.28a.81.81,0,0,0,.14-.32c0-.18,0-.5-.07-.55-.63-.32-.67-.77-.27-1.39H131c-.31-.61.21-.58.59-.81a5,5,0,0,1-.58-.21,3.18,3.18,0,0,1-.37-.27c.3-.22.09-.44.06-.69s.14-.75.13-1.12a1.54,1.54,0,0,0-.29-.82c-.25-.33-.65-.56-.87-.91a8.5,8.5,0,0,1-.54-1.27c.73-.74.78-.93.33-1.29a4,4,0,0,1-.35.36,4.19,4.19,0,0,1-.45.26c-.18-.48.77-.93-.13-1.37l.17-.14.78.14c-.31-.36.31-.92-.41-1.21-.12,0-.05-.52,0-.79a6.25,6.25,0,0,0-.24-.6c-.17-.37-.38-.72-.54-1.09a1.07,1.07,0,0,1-.13-.54,4.77,4.77,0,0,1,.2-.81h-1.12L127,157.5l.64-.08.13.44-.47.3c0,.08,0,.12,0,.12l1.16,0c-.07-.43-.15-.85-.22-1.27a4,4,0,0,1,0-.49,2.85,2.85,0,0,1,0-.51c.08-.23.2-.46.35-.78,0,0,0,0-.08-.12-.52-1-.52-1,.51-1.45l-1.22-.11.31-.41-.65,0,.12-.7-.2,0-.2.45-.17-.49.66-.65-.14-.16-1.12.12v-.09l1.52-.75a2.18,2.18,0,0,0-.24-.27.9.9,0,0,1-.2-1.29,1.33,1.33,0,0,0,.06-.64c0-.23,0-.46-.07-.85l-.46-.24c-.42.49.22.83.21,1.24l-1.28.11c.49-.54.05-.66-.3-.9a1.35,1.35,0,0,1-.48-.73c0-.1.31-.3.49-.47l-.2-.08,0-.15.82-.18a2.64,2.64,0,0,0-.42-2.51c-.06-.07.08-.28.12-.43l.15-.6c-.23,0-.46,0-.69,0a1.33,1.33,0,0,0-.3.05l.53-1.34-.17-.08.49-.23c-.4-.15-.48-.91-1.27-.29l.51-1-.24,0c-.09-.31-.35-.72-.24-.89s.6-.33.88-.6l-.46.08c-.09-.15-.12-.3-.21-.36-.46-.3-.47-.65,0-1s.25-.62-.33-1.11l.64-.69-.62-1.44h.59l0-.12-1-.25.5-.84-1.34-.64.21-.6c.26-.18.64-.31.71-.53.11-.38-.13-.64-.53-.86a1.33,1.33,0,0,1-.57-1.4,2.92,2.92,0,0,0-.2-.89l.46,0c0-.37-.11-.72-.15-1.08s0-.42,0-.63l.2-.12a1.65,1.65,0,0,1-.52-.12.68.68,0,0,1-.28-.43c0-.1.18-.25.31-.31.37-.17.76-.31,1.25-.51a11,11,0,0,1-1.37-1.32,1.44,1.44,0,0,1-.07-1c0-.12.33-.21.51-.28s.37-.12.64-.21a1.68,1.68,0,0,0-1.82-.66c.52-.46,1-.85.34-1.68.13,1.07-.74,1.09-1.25,1.5.14-.23.23-.54.43-.67a.62.62,0,0,0,.29-.77c0-.15,0-.3-.06-.44l.52.15a3.33,3.33,0,0,0-.37-.71.69.69,0,0,1,0-1c.58-.35.36-.81.25-1.19a3.81,3.81,0,0,0-.66-1l.67-.35c-.15-1.18,0-2.46-1.08-3.42.2-.17.47-.4.72-.63a.88.88,0,0,0,.12-1.39c-.08-.1,0-.29,0-.44a1.31,1.31,0,0,1,0-.28,1.53,1.53,0,0,1,.08-.49,4.48,4.48,0,0,1,.47-.59l.35.38.11-.06c-.12-.24-.18-.6-.37-.69-.47-.21-.48-.58-.45-1a3.83,3.83,0,0,0-.32-1.26,3.33,3.33,0,0,1,.18-1.3l-.53-1c.32-.34.76-.65.71-.77-.2-.53.09-1.42-.93-1.42,0-.48.11-.91.13-1.35s.36-1-.58-1c.78-.55.42-1.09.29-1.65a5.76,5.76,0,0,1-.09-1.25c0-.47.1-1,.06-1.43a.82.82,0,0,0-.43-.58c-.6-.26-.64-.61-.32-1.11,0-.06,0-.17,0-.3l.57.28c0-.09.09-.15.09-.2-.06-2,.9-4,.12-6-.08-.21.07-.5.08-.76,0-.43,0-.86,0-1.3,0,0,0-.08,0-.11.61-.81.09-1.58-.16-2.31a3.76,3.76,0,0,1,.12-2.25,13.63,13.63,0,0,0-1.29-1.2c-.74-.53-1.54-1-2.3-1.49-.16-.11-.23-.35-.39-.47-.49-.37-1-.7-1.5-1a2.5,2.5,0,0,1-.63-.53c-.27-.38-.84-.63-.65-1.26,0,0,0-.07-.09-.08-.85-.23-1.08-1-1.51-1.64s-1.06-1.25-1.57-1.9a1.74,1.74,0,0,1-.19-.57l.17-.06,1.88,1.82.23-.16c-.34-.47-.75-.93-.28-1.64l1.26,1.28c1.7,1.7,3.55,3.12,6.06,3.36.21,0,.42.07.7.12.19-.89.79-.58,1.22-.34l.25-1.76-.44-.09a3,3,0,0,0,.45-.17.66.66,0,0,0,.24-.28c.41-1,.77-2.1,1.23-3.12.66-1.45,1.37-2.87,2.08-4.3,0-.1.21-.14.28-.23s.16-.26.13-.35-.22-.11-.34-.17-.49-.13-.54-.26c-.23-.68-.38-.75-1-.35a.63.63,0,0,1-.26,0c.53-1.11.55-1.39,1.54-2,0,0,.15-.07.15-.1-.15-.87,1-1.37.66-2.31-.24-.75.56-.74.91-.93a4.38,4.38,0,0,1,1.95-.56c1.18,0,2.4-.43,3.57.31a4.14,4.14,0,0,0,1.72.22,7.2,7.2,0,0,1,3.09,1c.22.13.34.42.54.67l.31-.25s.09,0,.1.06c.12.57.76.52,1,.84.52.63,1.4.93,1.62,1.83,0,.09.31.09.46.18A4.09,4.09,0,0,1,143,62a3.56,3.56,0,0,1-.37.58Zm-9.39,8c.34-.21.82-.34,1-.64a9.76,9.76,0,0,0,.76-2.1c.31-1.15.56-2.32.83-3.48a.49.49,0,0,0-.45.21c-.54,1.21-1.05,2.43-1.6,3.63a1.19,1.19,0,0,1-.52.52.88.88,0,0,0-.4,1.35C133.51,71,133.63,71.09,133.82,71.33Z"/><path class="a9007384-2502-41c9-b745-2f9dad0f4eb9" d="M153.94,12.73c.11.12.21.24.33.35a3.83,3.83,0,0,0,.29.28l-.12.16-1.59-.83.2.85-.47.31.77.11a2.2,2.2,0,0,1-.3.13h-.21l.12.75-.65-.16-.12-1.48-.8-.36c.42-.49.31-.69-.47-.84.13.39.13.63-.35.84-.3.13-.34.77-.63,1-.45.34-.23.51,0,.75a2.74,2.74,0,0,0-.65.29c-.07,0,0,.3,0,.57l.5-.37.9,1.5-1-.21a4.48,4.48,0,0,0-.32.93,1,1,0,0,0,.24.6c.08.11.27.12.39.31l-.85-.13-.26.52,1.68-.19-.31-.62c.17-.26.34-.91,1.09-.35l.26-1.41c.76.13.83-.76,1.44-.91v.53l.16,0,.3-.65c.29.39.28.45-.3,1.8l-1.37-.13v1.12c.41.21.77.28.94.51s0,.51-.07.78c-.36,2.48-.84,4.95-1.07,7.45-.19,2-.08,3.94-.09,5.91a21.43,21.43,0,0,0,.07,2.66c.11,1,.39,1.9.56,2.86a4.73,4.73,0,0,1-.07.9,23.23,23.23,0,0,0,.91,5.35c.39,1.93.82,3.87,1.34,5.78.36,1.31.9,2.56,1.36,3.84.07.2.15.4.22.59a3.7,3.7,0,0,0,.69.18,4.48,4.48,0,0,0,.62-.06c.22,0,.45,0,.67,0a2.16,2.16,0,0,0,.35,0c1.28-.08,2.57-.17,3.85-.27.12,0,.22-.13.36-.22.84.31,2-.23,2.87.58l-.48.12a23.24,23.24,0,0,1-.6,2.55,3.36,3.36,0,0,1-.93,1,8.87,8.87,0,0,1-.9.71,9.1,9.1,0,0,0-4.68-.48l1.72,3-.23,0-.07.12.92.5c-.27.52-.08.94.58,1.19.09,0,.11.24.17.35s.09.27.18.32a1.3,1.3,0,0,1,.77,1.4c0,.2.16.43.2.53a7.17,7.17,0,0,1,1,1c.52.76.58.82,1.49.5.62-.22,1.22-.47,1.84-.69s1.05-.35,1.59-.53l-.22-.51c.68.82,1.25,0,1.76-.16a9.17,9.17,0,0,0,1.81-1.09,25.92,25.92,0,0,0,5.46-4.67c.26-.27.4-.67.68-.9a5.65,5.65,0,0,0,1.19-1.94c.07-.11.26-.15.39-.22,0,.15.1.33,0,.44-.18.33-.45.62-.23,1,0,.05-.19.23-.18.22,0,.5.14,1,0,1.26a14.65,14.65,0,0,1-1.45,1.8c-.57.68-1.15,1.36-1.74,2-.42.46-.85.92-1.29,1.36-.72.71-1.45,1.42-2.19,2.1a11.93,11.93,0,0,1-1,.72l-2.33,1.62a11.49,11.49,0,0,1-1.11.76c-1.36.73-2.74,1.43-4.11,2.14a12.61,12.61,0,0,1-5.06,1.27,7.27,7.27,0,0,1-3.29-.43,6,6,0,0,1-3.4-3.85c-.06-.17-.26-.3-.31-.47s0-.36-.07-.48c-.13-.28-.25-.57-.39-.84s-.32-.53-.48-.8a1.44,1.44,0,0,1-.21-.38,12.75,12.75,0,0,0-.18-1.4,8.75,8.75,0,0,0-.67-1.54,12.62,12.62,0,0,1-1.17-2.16c-.13-.48-.64-.77-.58-1.17s-.26-.89-.32-1.33-.39-.61-.73-.76-.47-.2-.81-.35c1.11-.77.26-1.5.08-2.22-.21-.88-.55-1.72-.8-2.59s-.48-1.85-.7-2.78-.48-2.12-.72-3.17c-.17-.76-.37-1.51-.51-2.27-.22-1.16-.44-2.32-.6-3.49-.19-1.41-.37-2.83-.48-4.24-.13-1.85-.22-3.71-.25-5.56A30.1,30.1,0,0,1,142,28a52.65,52.65,0,0,1,2.4-12,22,22,0,0,1,2.8-5.64,48.75,48.75,0,0,1,3.41-4.53A17.15,17.15,0,0,1,157.86.89a3,3,0,0,1,2.76.55,5.7,5.7,0,0,1,1.18,1.35c.25.33,0,.68-.39.82a3.34,3.34,0,0,0-.72.43c-.07,0-.1.16-.18.19-1.33.5-1.72,1.82-2.41,2.86-1,1.5-1.89,3.06-2.82,4.6-.11.19-.16.41-.27.59-.22.37-.44.79-1,.22Zm-5.17,12.5-.21,0,.28,1.3.29-.07Z"/><path class="a9007384-2502-41c9-b745-2f9dad0f4eb9" d="M150.34,15.13l.92-.45.13.09a1.86,1.86,0,0,1-.42.53c-.15.09-.39,0-.59,0Z"/></svg>