<svg id="b2e4049e-b2b5-4c5c-a9aa-94f55902ce28" data-name="Layer 1" xmlns="http://www.w3.org/2000/svg" viewBox="0 0 180 14.26"><defs><style>.a009cd40-2584-48ab-9a33-af445f11ed9d,.b3e4ea56-1c9f-4653-942c-1d087dcba144{fill:#a6a8aa;}.a009cd40-2584-48ab-9a33-af445f11ed9d,.a59bf122-ba3b-4cca-92aa-f1c0fb71096f,.ba0d311b-cec1-4c2d-a2e9-69374f2e75fb,.f899ab4c-504d-44ef-ae05-0db1ba6c470f{fill-rule:evenodd;}.ba0d311b-cec1-4c2d-a2e9-69374f2e75fb{fill:#dd4d4a;}.a59bf122-ba3b-4cca-92aa-f1c0fb71096f{fill:#0078bd;}.f899ab4c-504d-44ef-ae05-0db1ba6c470f{fill:#f5c169;}</style></defs><path class="a009cd40-2584-48ab-9a33-af445f11ed9d" d="M9.24,2.2,7.29,3.46a2.18,2.18,0,0,0-2.2-1.64,1.59,1.59,0,0,0-1.32.5A1.68,1.68,0,0,0,3.2,3.58,1.57,1.57,0,0,0,4,5a11,11,0,0,0,1.88,1,9.76,9.76,0,0,1,2.52,1.5A3.37,3.37,0,0,1,9.42,10a4.29,4.29,0,0,1-.37,1.82,3.92,3.92,0,0,1-1.2,1.45,5.21,5.21,0,0,1-3.26,1,5.39,5.39,0,0,1-3.14-.88,4.14,4.14,0,0,1-1.07-1A3.55,3.55,0,0,1,0,11.69l2.07-1.26a2.56,2.56,0,0,0,1,1.38,2.23,2.23,0,0,0,1.57.5,2.17,2.17,0,0,0,1.57-.56,1.76,1.76,0,0,0,.57-1.38,1.77,1.77,0,0,0-.51-1.32,12,12,0,0,0-2.13-1.2,7.13,7.13,0,0,1-2.39-1.5,3.39,3.39,0,0,1-1-2.52,3.66,3.66,0,0,1,1.13-2.7A4.63,4.63,0,0,1,5.15,0,5,5,0,0,1,8.23.88,5.5,5.5,0,0,1,9.24,2.2Z"/><polygon class="a009cd40-2584-48ab-9a33-af445f11ed9d" points="16.84 2.2 16.84 13.95 14.39 13.95 14.39 2.2 10.49 2.2 10.49 0.31 20.67 0.31 20.67 2.2 16.84 2.2"/><polygon class="a009cd40-2584-48ab-9a33-af445f11ed9d" points="24.57 0.31 24.57 12 29.84 12 29.84 13.95 22.11 13.95 22.11 0.31 24.57 0.31"/><path class="a009cd40-2584-48ab-9a33-af445f11ed9d" d="M37.45,0A6.51,6.51,0,0,1,42,1.57,6.45,6.45,0,0,1,43.6,3.83a10,10,0,0,1,.5,3.27,9.78,9.78,0,0,1-.5,3.27A6.68,6.68,0,0,1,42,12.69a6.91,6.91,0,0,1-4.65,1.57V12.31a3.55,3.55,0,0,0,3-1.32A6,6,0,0,0,41.4,7.16a6.3,6.3,0,0,0-1.13-4,3.71,3.71,0,0,0-3-1.25V0Zm-.13,14.26h0a6.86,6.86,0,0,1-4.59-1.57,6.09,6.09,0,0,1-1.63-2.32A10.47,10.47,0,0,1,30.6,7c0-2.45.69-4.28,2.13-5.47A6.57,6.57,0,0,1,37.32,0V2h0A3.47,3.47,0,0,0,34.43,3.2,6.29,6.29,0,0,0,33.3,7.1,6.12,6.12,0,0,0,34.43,11a3.53,3.53,0,0,0,2.89,1.32h0Z"/><path class="a009cd40-2584-48ab-9a33-af445f11ed9d" d="M46.62.31h2.45v8A11.19,11.19,0,0,0,49.13,10a2.57,2.57,0,0,0,1.07,1.82,4,4,0,0,0,3.89,0A2.54,2.54,0,0,0,55.16,10a9.61,9.61,0,0,0,.07-1.63v-8h2.45v8a9.22,9.22,0,0,1-.13,2.13,4.32,4.32,0,0,1-1.82,2.89,6.83,6.83,0,0,1-3.58.88c-2.45,0-4.09-.81-4.9-2.39a4.87,4.87,0,0,1-.63-2.13V.31Z"/><rect class="b3e4ea56-1c9f-4653-942c-1d087dcba144" x="61.07" y="0.31" width="2.39" height="13.63"/><path class="a009cd40-2584-48ab-9a33-af445f11ed9d" d="M74.83,2.2l-2,1.26a2.23,2.23,0,0,0-2.2-1.64,1.83,1.83,0,0,0-1.38.5,1.86,1.86,0,0,0-.5,1.26A1.65,1.65,0,0,0,69.49,5c.25.13.88.51,1.88,1A10.38,10.38,0,0,1,74,7.41,3.37,3.37,0,0,1,75,10a4.32,4.32,0,0,1-.44,1.82,3.35,3.35,0,0,1-1.13,1.45,5.45,5.45,0,0,1-3.33,1A5.58,5.58,0,0,1,67,13.38a3.8,3.8,0,0,1-1-1c-.13-.19-.25-.38-.44-.69l2.07-1.26a2.9,2.9,0,0,0,1,1.38,2.33,2.33,0,0,0,1.57.5,2.08,2.08,0,0,0,1.57-.56,1.63,1.63,0,0,0,.63-1.38,1.61,1.61,0,0,0-.57-1.32,10.67,10.67,0,0,0-2.07-1.2,6.81,6.81,0,0,1-2.45-1.5,3.39,3.39,0,0,1-1-2.52,3.47,3.47,0,0,1,1.2-2.7A4.49,4.49,0,0,1,70.74,0a4.65,4.65,0,0,1,3,.88A5.73,5.73,0,0,1,74.83,2.2Z"/><path class="ba0d311b-cec1-4c2d-a2e9-69374f2e75fb" d="M83.56.31,88.65,14H86L84.69,10.3H82.12V8.48h2l-1.95-5.4-.06.06V.31Zm-1.44,10H79.48L78.16,14H75.71L81,.31h1.14V3.14l-2,5.34h2Z"/><path class="a59bf122-ba3b-4cca-92aa-f1c0fb71096f" d="M94.68.31a5.86,5.86,0,0,1,2.7.44A2.7,2.7,0,0,1,98.7,2a4,4,0,0,1,.5,2,3.9,3.9,0,0,1-1,2.7,4.66,4.66,0,0,1-1.57,1.07L100.46,14H97.57L94.68,9V6.22A5.45,5.45,0,0,0,95.62,6a2.08,2.08,0,0,0,1-1.89A1.85,1.85,0,0,0,96,2.58a1.69,1.69,0,0,0-.94-.32h-.38ZM90.35,14V.31h4.33V2.26a.84.84,0,0,0-.38-.06,2.24,2.24,0,0,0-.56.06H92.8v4h1.13a3.17,3.17,0,0,0,.75-.06V9l-.5-.88H92.8V14Z"/><polygon class="f899ab4c-504d-44ef-ae05-0db1ba6c470f" points="106.87 2.2 106.87 13.95 104.42 13.95 104.42 2.2 100.59 2.2 100.59 0.31 110.76 0.31 110.76 2.2 106.87 2.2"/><polygon class="a009cd40-2584-48ab-9a33-af445f11ed9d" points="114.03 0.31 116.8 9.99 120.06 0.31 122.01 0.31 124.78 9.99 128.17 0.31 130.49 0.31 125.84 13.95 123.71 13.95 120.88 4.4 117.55 13.95 115.41 13.95 111.58 0.31 114.03 0.31"/><path class="a009cd40-2584-48ab-9a33-af445f11ed9d" d="M137.84,0a6.53,6.53,0,0,1,4.53,1.57,5.74,5.74,0,0,1,1.57,2.26,8.81,8.81,0,0,1,.56,3.27,8.59,8.59,0,0,1-.56,3.27,5.94,5.94,0,0,1-1.57,2.32,7,7,0,0,1-4.65,1.57V12.31A3.64,3.64,0,0,0,140.67,11a6.06,6.06,0,0,0,1.13-3.83,6.36,6.36,0,0,0-1.13-4A3.72,3.72,0,0,0,137.72,2V0Zm-.12,14.26a6.84,6.84,0,0,1-4.59-1.57,6,6,0,0,1-1.63-2.32A10.18,10.18,0,0,1,131,7c0-2.45.7-4.28,2.14-5.47A6.55,6.55,0,0,1,137.72,0V2h-.07a3.34,3.34,0,0,0-2.82,1.25,6.25,6.25,0,0,0-1.2,3.9,6.08,6.08,0,0,0,1.2,3.89,3.51,3.51,0,0,0,2.89,1.32Z"/><path class="a009cd40-2584-48ab-9a33-af445f11ed9d" d="M151.48.31a5.72,5.72,0,0,1,2.7.44A2.79,2.79,0,0,1,155.5,2a4.15,4.15,0,0,1,.5,2,3.87,3.87,0,0,1-1,2.7,4.46,4.46,0,0,1-1.57,1.07L157.26,14h-2.89l-2.89-5V6.22a4.46,4.46,0,0,0,.94-.25,2,2,0,0,0,1-1.89,1.88,1.88,0,0,0-.62-1.5,1.57,1.57,0,0,0-1-.32h-.37ZM147.14,14V.31h4.34V2.26a.51.51,0,0,0-.32-.06,2.8,2.8,0,0,0-.63.06h-.94v4h1.13a3.25,3.25,0,0,0,.76-.06V9L151,8.1h-1.38V14Z"/><polygon class="a009cd40-2584-48ab-9a33-af445f11ed9d" points="161.78 0.31 161.78 6.28 167 0.31 169.82 0.31 164.23 6.66 170.45 13.95 167.25 13.95 161.78 7.54 161.78 13.95 159.39 13.95 159.39 0.31 161.78 0.31"/><path class="a009cd40-2584-48ab-9a33-af445f11ed9d" d="M179.81,2.2l-1.88,1.26a2.24,2.24,0,0,0-2.2-1.64,1.8,1.8,0,0,0-1.38.5,1.87,1.87,0,0,0-.51,1.26A1.65,1.65,0,0,0,174.53,5c.26.13.88.51,1.89,1a8.69,8.69,0,0,1,2.51,1.5A3.15,3.15,0,0,1,180,10a4.29,4.29,0,0,1-.38,1.82,3.28,3.28,0,0,1-1.13,1.45,5.43,5.43,0,0,1-3.33,1,5.57,5.57,0,0,1-3.14-.88,5.7,5.7,0,0,1-1.07-1,4.07,4.07,0,0,0-.37-.69l2.07-1.26a2.89,2.89,0,0,0,1,1.38,2.26,2.26,0,0,0,1.58.5,2.08,2.08,0,0,0,1.57-.56,1.83,1.83,0,0,0,.62-1.38,1.6,1.6,0,0,0-.56-1.32,10.67,10.67,0,0,0-2.07-1.2,6.72,6.72,0,0,1-2.45-1.5,3.35,3.35,0,0,1-1-2.52,3.66,3.66,0,0,1,1.13-2.7A4.78,4.78,0,0,1,175.79,0a4.65,4.65,0,0,1,3,.88A4.12,4.12,0,0,1,179.81,2.2Z"/></svg>