<svg xmlns="http://www.w3.org/2000/svg" viewBox="0 0 351.6 191.7"><style>.st2{fill:#fff}</style><pattern x="133.5" y="269.8" width="69" height="69" patternUnits="userSpaceOnUse" id="Polka_Dot_Pattern" viewBox="2.1 -70.9 69 69" overflow="visible"><path fill="none" d="M2.1-70.9h69v69h-69z"/><path fill="#f7bc60" d="M2.1-70.9h69v69h-69z"/><path class="st2" d="M61.8-71.7v.2c-.1.1-.1.1-.2.1-.1.1-.1.3-.1.4-.2.1 0 .2 0 .3v.2c0 .1 0 .3.1.4.1.2.3.4.4.5.2.1.4.6.6.6.2 0 .4-.1.5-.1.2 0 .4 0 .6-.1.2-.1.1-.3.3-.5.1-.1.3 0 .4-.1.2-.1.3-.3.4-.5v-.2c0-.1.1-.2.1-.3 0-.1-.1-.1-.1-.2v-.3c0-.2 0-.4-.1-.5-.4-.7-1.2-.9-2-.8-.2 0-.3.1-.4.2-.2.1-.1.2-.3.2-.1 0-.2.1-.2.2v.3c0 .1 0 .1 0 0M54.1-71.7v.2c-.1.1-.1.1-.2.1-.1.1-.1.3-.1.4-.2.1 0 .2 0 .3v.2c0 .1 0 .3.1.4.1.2.3.4.4.5.2.1.4.6.6.6.2 0 .4-.1.5-.1.2 0 .4 0 .6-.1.2-.1.1-.3.3-.5.1-.1.3 0 .4-.1.2-.1.3-.3.4-.5v-.2c0-.1.1-.2.1-.3 0-.1-.1-.1-.1-.2v-.3c0-.2 0-.4-.1-.5-.4-.7-1.2-.9-2-.8-.2 0-.3.1-.4.2-.2.1-.1.2-.3.2-.1 0-.2.1-.2.2v.3c0 .1 0 .1 0 0M46.4-71.7v.2c-.1.1-.1.1-.2.1-.1.1-.1.3-.1.4-.2.1 0 .2 0 .3v.2c0 .1 0 .3.1.4.1.2.3.4.4.5.2.1.4.6.6.6.2 0 .4-.1.5-.1.2 0 .4 0 .6-.1.2-.1.1-.3.3-.5.1-.1.3 0 .4-.1.2-.1.3-.3.4-.5v-.2c0-.1.1-.2.1-.3 0-.1-.1-.1-.1-.2v-.3c0-.2 0-.4-.1-.5-.4-.7-1.2-.9-2-.8-.2 0-.3.1-.4.2-.2.1-.1.2-.3.2-.1 0-.2.1-.2.2v.3c0 .1 0 .1 0 0M38.8-71.7v.2c-.1.1-.1.1-.2.1-.1.1-.1.3-.1.4-.2.1 0 .2 0 .3v.2c0 .1 0 .3.1.4.1.2.3.4.4.5.2.1.4.6.6.6.2 0 .4-.1.5-.1.2 0 .4 0 .6-.1.2-.1.1-.3.3-.5.1-.1.3 0 .4-.1.2-.1.3-.3.4-.5v-.2c0-.1.1-.2.1-.3 0-.1-.1-.1-.1-.2v-.3c0-.2 0-.4-.1-.5-.4-.7-1.2-.9-2-.8-.2 0-.3.1-.4.2-.2.1-.1.2-.3.2-.1 0-.2.1-.2.2v.3c0 .1 0 .1 0 0M31.1-71.7v.2c-.1.1-.1.1-.2.1-.1.1-.1.3-.1.4-.2.1 0 .2 0 .3v.2c0 .1 0 .3.1.4.1.2.3.4.4.5.2.1.4.6.6.6.2 0 .4-.1.5-.1.2 0 .4 0 .6-.1.2-.1.1-.3.3-.5.1-.1.3 0 .4-.1.2-.1.3-.3.4-.5v-.2c0-.1.1-.2.1-.3 0-.1-.1-.1-.1-.2v-.3c0-.2 0-.4-.1-.5-.4-.7-1.2-.9-2-.8-.2 0-.3.1-.4.2-.2.1-.1.2-.3.2-.1 0-.2.1-.2.2v.3c0 .1 0 .1 0 0M23.4-71.7v.2c-.1.1-.1.1-.2.1-.1.1-.1.3-.1.4-.2.1 0 .2 0 .3v.2c0 .1 0 .3.1.4.1.2.3.4.4.5.2.1.4.6.6.6.2 0 .4-.1.5-.1.2 0 .4 0 .6-.1.2-.1.1-.3.3-.5.1-.1.3 0 .4-.1.2-.1.3-.3.4-.5v-.2c0-.1.1-.2.1-.3 0-.1-.1-.1-.1-.2v-.3c0-.2 0-.4-.1-.5-.4-.7-1.2-.9-2-.8-.2 0-.3.1-.4.2-.2.1-.1.2-.3.2-.1 0-.2.1-.2.2v.3c0 .1 0 .1 0 0M15.8-71.7v.2c-.1.1-.1.1-.2.1-.1.1-.1.3-.1.4-.2.1 0 .2 0 .3v.2c0 .1 0 .3.1.4.1.2.3.4.4.5.2.1.4.6.6.6.2 0 .4-.1.5-.1.2 0 .4 0 .6-.1.2-.1.1-.3.3-.5.1-.1.3 0 .4-.1.2-.1.3-.3.4-.5v-.2c0-.1.1-.2.1-.3 0-.1-.1-.1-.1-.2v-.3c0-.2 0-.4-.1-.5-.4-.7-1.2-.9-2-.8-.2 0-.3.1-.4.2-.2.1-.1.2-.3.2-.1 0-.2.1-.2.2v.3c0 .1 0 .1 0 0M8.1-71.7v.2l-.2.2c-.1.1-.1.3-.1.4-.2.1 0 .2 0 .3v.2c0 .1 0 .3.1.4.1.2.3.4.4.5.2.1.4.6.6.6.2 0 .4-.1.5-.1.2 0 .4 0 .6-.1.2-.1.1-.3.3-.5.1-.1.3 0 .4-.1.2-.1.3-.3.4-.5v-.2c0-.1.1-.2.1-.3 0-.1-.1-.1-.1-.2v-.3c0-.2 0-.4-.1-.5-.4-.7-1.2-.9-2-.8-.2 0-.3.1-.4.2-.2.1-.1.2-.3.2-.1 0-.2.1-.2.2v.2c0 .1 0 .1 0 0M.4-71.7v.2c-.1.1-.1.1-.2.1-.1.1-.1.3-.1.4-.2.1 0 .2 0 .3v.2c0 .1 0 .3.1.4.1.2.3.4.4.5.2.2.4.6.6.7.2 0 .4-.1.5-.1.2 0 .4 0 .6-.1.2-.1.1-.3.3-.5.1-.1.3 0 .4-.1.2-.1.3-.3.4-.5v-.2c0-.1.1-.2.1-.3 0-.1-.1-.1-.1-.2v-.3c0-.2 0-.4-.1-.5-.4-.7-1.2-.9-2-.8-.2 0-.3.1-.4.2-.2.1-.1.2-.3.2-.1 0-.2.1-.2.2v.2c0 .1 0 .1 0 0"/><g><path class="st2" d="M69.4-71.7v.2c-.1.1-.1.1-.2.1-.1.1-.1.3-.1.4-.2.1 0 .2 0 .3v.2c0 .1 0 .3.1.4.1.2.3.4.4.5.2.1.4.6.6.6.2 0 .4-.1.5-.1.2 0 .4 0 .6-.1.2-.1.1-.3.3-.5.1-.1.3 0 .4-.1.2-.1.3-.3.4-.5v-.2c0-.1.1-.2.1-.3 0-.1-.1-.1-.1-.2v-.3c0-.2 0-.4-.1-.5-.4-.7-1.2-.9-2-.8-.2 0-.3.1-.4.2-.2.1-.1.2-.3.2-.1 0-.2.1-.2.2v.3c0 .1 0 .1 0 0"/></g><path class="st2" d="M.5-71.7v.2c-.1.1-.1.1-.2.1-.1.1-.1.3-.1.4-.2.1 0 .2 0 .3v.2c0 .1 0 .3.1.4.1.2.3.4.4.5.2.2.3.6.6.7.2 0 .4-.1.5-.1.2 0 .4 0 .6-.1.2-.1.1-.3.3-.5.1-.1.3 0 .4-.1.2-.1.3-.3.4-.5v-.2c0-.1.1-.2.1-.3 0-.1-.1-.1-.1-.2v-.3c0-.2 0-.4-.1-.5-.4-.7-1.2-.9-2-.8-.2 0-.3.1-.4.2-.2.1-.1.2-.3.2-.1 0-.2.1-.2.2v.2c0 .1 0 .1 0 0"/><g><path class="st2" d="M69.4-64v.2c-.1.1-.1.1-.2.1-.1.1-.1.3-.1.4-.2.1 0 .2 0 .3v.2c0 .1 0 .3.1.4.1.2.3.4.4.5.2.1.4.6.6.6.2 0 .4-.1.5-.1.2 0 .4 0 .6-.1.2-.1.1-.3.3-.5.1-.1.3 0 .4-.1.2-.1.3-.3.4-.5v-.2c0-.1.1-.2.1-.3 0-.1-.1-.1-.1-.2v-.3c0-.2 0-.4-.1-.5-.4-.7-1.2-.9-2-.8-.2 0-.3.1-.4.2-.2.1-.1.2-.3.2-.1 0-.2.1-.2.2v.3M61.8-64v.2c-.1.1-.1.1-.2.1-.1.1-.1.3-.1.4-.2.1 0 .2 0 .3v.2c0 .1 0 .3.1.4.1.2.3.4.4.5.2.1.4.6.6.6.2 0 .4-.1.5-.1.2 0 .4 0 .6-.1.2-.1.1-.3.3-.5.1-.1.3 0 .4-.1.2-.1.3-.3.4-.5v-.2c0-.1.1-.2.1-.3 0-.1-.1-.1-.1-.2v-.3c0-.2 0-.4-.1-.5-.4-.7-1.2-.9-2-.8-.2 0-.3.1-.4.2-.2.1-.1.2-.3.2-.1 0-.2.1-.2.2v.3M54.1-64v.2c-.1.1-.1.1-.2.1-.1.1-.1.3-.1.4-.2.1 0 .2 0 .3v.2c0 .1 0 .3.1.4.1.2.3.4.4.5.2.1.4.6.6.6.2 0 .4-.1.5-.1.2 0 .4 0 .6-.1.2-.1.1-.3.3-.5.1-.1.3 0 .4-.1.2-.1.3-.3.4-.5v-.2c0-.1.1-.2.1-.3 0-.1-.1-.1-.1-.2v-.3c0-.2 0-.4-.1-.5-.4-.7-1.2-.9-2-.8-.2 0-.3.1-.4.2-.2.1-.1.2-.3.2-.1 0-.2.1-.2.2v.3M46.5-64v.2c-.1.1-.1.1-.2.1-.1.1-.1.3-.1.4-.2.1 0 .2 0 .3v.2c0 .1 0 .3.1.4.1.2.3.4.4.5.2.1.4.6.6.6.2 0 .4-.1.5-.1.2 0 .4 0 .6-.1.2-.1.1-.3.3-.5.1-.1.3 0 .4-.1.2-.1.3-.3.4-.5v-.2c0-.1.1-.2.1-.3 0-.1-.1-.1-.1-.2v-.3c0-.2 0-.4-.1-.5-.4-.7-1.2-.9-2-.8-.2 0-.3.1-.4.2-.2.1-.1.2-.3.2-.1 0-.2.1-.2.2v.3M38.8-64v.2c-.1.1-.1.1-.2.1-.1.1-.1.3-.1.4-.2.1 0 .2 0 .3v.2c0 .1 0 .3.1.4.1.2.3.4.4.5.2.1.4.6.6.6.2 0 .4-.1.5-.1.2 0 .4 0 .6-.1.2-.1.1-.3.3-.5.1-.1.3 0 .4-.1.2-.1.3-.3.4-.5v-.2c0-.1.1-.2.1-.3 0-.1-.1-.1-.1-.2v-.3c0-.2 0-.4-.1-.5-.4-.7-1.2-.9-2-.8-.2 0-.3.1-.4.2-.2.1-.1.2-.3.2-.1 0-.2.1-.2.2v.3M31.1-64v.2c-.1.1-.1.1-.2.1-.1.1-.1.3-.1.4-.2.1 0 .2 0 .3v.2c0 .1 0 .3.1.4.1.2.3.4.4.5.2.1.4.6.6.6.2 0 .4-.1.5-.1.2 0 .4 0 .6-.1.2-.1.1-.3.3-.5.1-.1.3 0 .4-.1.2-.1.3-.3.4-.5v-.2c0-.1.1-.2.1-.3 0-.1-.1-.1-.1-.2v-.3c0-.2 0-.4-.1-.5-.4-.7-1.2-.9-2-.8-.2 0-.3.1-.4.2-.2.1-.1.2-.3.2-.1 0-.2.1-.2.2v.3M23.5-64v.2c-.1.1-.1.1-.2.1-.1.1-.1.3-.1.4-.2.1 0 .2 0 .3v.2c0 .1 0 .3.1.4.1.2.3.4.4.5.2.1.4.6.6.6.2 0 .4-.1.5-.1.2 0 .4 0 .6-.1.2-.1.1-.3.3-.5.1-.1.3 0 .4-.1.2-.1.3-.3.4-.5v-.2c0-.1.1-.2.1-.3 0-.1-.1-.1-.1-.2v-.3c0-.2 0-.4-.1-.5-.4-.7-1.2-.9-2-.8-.2 0-.3.1-.4.2-.2.1-.1.2-.3.2-.1 0-.2.1-.2.2v.3M15.8-64v.2c-.1.1-.1.1-.2.1-.1.1-.1.3-.1.4-.2.1 0 .2 0 .3v.2c0 .1 0 .3.1.4.1.2.3.4.4.5.2.1.4.6.6.6.2 0 .4-.1.5-.1.2 0 .4 0 .6-.1.2-.1.1-.3.3-.5.1-.1.3 0 .4-.1.2-.1.3-.3.4-.5v-.2c0-.1.1-.2.1-.3 0-.1-.1-.1-.1-.2v-.3c0-.2 0-.4-.1-.5-.4-.7-1.2-.9-2-.8-.2 0-.3.1-.4.2-.2.1-.1.2-.3.2-.1 0-.2.1-.2.2v.3M8.2-64v.2c-.1.1-.2.1-.2.1-.1.1-.1.3-.1.4-.2.1 0 .2 0 .3v.2c0 .1 0 .3.1.4 0 .2.2.4.3.5.2.1.4.6.6.6.2 0 .4-.1.5-.1.2 0 .4 0 .6-.1.2-.1.1-.3.3-.5.1-.1.3 0 .4-.1.2-.1.3-.3.4-.5v-.2c0-.1.1-.2.1-.3 0-.1-.1-.1-.1-.2v-.3c0-.2 0-.4-.1-.5-.4-.7-1.2-.9-2-.8-.2 0-.3.1-.4.2-.2.1-.1.2-.3.2-.1 0-.2.1-.2.2.1.3.1.2.1.3-.1 0-.1 0 0 0M.5-64v.2c-.1.1-.1.1-.2.1-.1.1-.1.3-.1.4-.2.1 0 .2 0 .3v.2c0 .1 0 .3.1.4.1.2.3.4.4.5.2.1.4.6.6.6.2 0 .4-.1.5-.1.2 0 .4 0 .6-.1.2-.1.1-.3.3-.5.1 0 .3.1.4 0 .2-.1.3-.3.4-.5v-.2c0-.1.1-.2.1-.3 0-.1-.1-.1-.1-.2v-.3c0-.2 0-.4-.1-.5-.4-.7-1.2-.9-2-.8-.2 0-.3.1-.4.2-.2.1-.1.2-.3.2-.1 0-.2.1-.2.2v.2"/><g><path class="st2" d="M69.4-56.3v.2c-.1.1-.1.1-.2.1-.1.1-.1.3-.1.4-.2.1 0 .2 0 .3v.2c0 .1 0 .3.1.4.1.2.3.4.4.5.2.1.4.6.6.6.2 0 .4-.1.5-.1.2 0 .4 0 .6-.1.2-.1.1-.3.3-.5.1-.1.3 0 .4-.1.2-.1.3-.3.4-.5v-.2c0-.1.1-.2.1-.3 0-.1-.1-.1-.1-.2v-.3c0-.2 0-.4-.1-.5-.4-.7-1.2-.9-2-.8-.2 0-.3.1-.4.2-.2.1-.1.2-.3.2-.1 0-.2.1-.2.2v.3M61.8-56.3v.2c-.1.1-.1.1-.2.1-.1.1-.1.3-.1.4-.2.1 0 .2 0 .3v.2c0 .1 0 .3.1.4.1.2.3.4.4.5.2.1.4.6.6.6.2 0 .4-.1.5-.1.2 0 .4 0 .6-.1.2-.1.1-.3.3-.5.1-.1.3 0 .4-.1.2-.1.3-.3.4-.5v-.2c0-.1.1-.2.1-.3 0-.1-.1-.1-.1-.2v-.3c0-.2 0-.4-.1-.5-.4-.7-1.2-.9-2-.8-.2 0-.3.1-.4.2-.2.1-.1.2-.3.2-.1 0-.2.1-.2.2v.3M54.1-56.3v.2c-.1 0-.1 0-.2.1s-.1.3-.1.4c-.2.1 0 .2 0 .3v.2c0 .1 0 .3.1.4.1.2.3.4.4.5.2.1.4.6.6.6.2 0 .4-.1.5-.1.2 0 .4 0 .6-.1.2-.1.1-.3.3-.5.1-.1.3 0 .4-.1.2-.1.3-.3.4-.5v-.2c0-.1.1-.2.1-.3 0-.1-.1-.1-.1-.2v-.3c0-.2 0-.4-.1-.5-.4-.7-1.2-.9-2-.8-.2 0-.3.1-.4.2-.2.1-.1.2-.3.2-.1 0-.2.1-.2.2v.3M46.5-56.3v.2c-.1.1-.1.1-.2.1-.1.1-.1.3-.1.4-.2.1 0 .2 0 .3v.2c0 .1 0 .3.1.4.1.2.3.4.4.5.2.1.4.6.6.6.2 0 .4-.1.5-.1.2 0 .4 0 .6-.1.2-.1.1-.3.3-.5.1-.1.3 0 .4-.1.2-.1.3-.3.4-.5v-.2c0-.1.1-.2.1-.3 0-.1-.1-.1-.1-.2v-.3c0-.2 0-.4-.1-.5-.4-.7-1.2-.9-2-.8-.2 0-.3.1-.4.2-.2.1-.1.2-.3.2-.1 0-.2.1-.2.2v.3M38.8-56.3v.2c-.1.1-.1.1-.2.1-.1.1-.1.3-.1.4-.2.1 0 .2 0 .3v.2c0 .1 0 .3.1.4.1.2.3.4.4.5.2.1.4.6.6.6.2 0 .4-.1.5-.1.2 0 .4 0 .6-.1.2-.1.1-.3.3-.5.1-.1.3 0 .4-.1.2-.1.3-.3.4-.5v-.2c0-.1.1-.2.1-.3 0-.1-.1-.1-.1-.2v-.3c0-.2 0-.4-.1-.5-.4-.7-1.2-.9-2-.8-.2 0-.3.1-.4.2-.2.1-.1.2-.3.2-.1 0-.2.1-.2.2v.3M31.1-56.3v.2c-.1.1-.1.1-.2.1-.1.1-.1.3-.1.4-.2.1 0 .2 0 .3v.2c0 .1 0 .3.1.4.1.2.3.4.4.5.2.1.4.6.6.6.2 0 .4-.1.5-.1.2 0 .4 0 .6-.1.2-.1.1-.3.3-.5.1-.1.3 0 .4-.1.2-.1.3-.3.4-.5v-.2c0-.1.1-.2.1-.3 0-.1-.1-.1-.1-.2v-.3c0-.2 0-.4-.1-.5-.4-.7-1.2-.9-2-.8-.2 0-.3.1-.4.2-.2.1-.1.2-.3.2-.1 0-.2.1-.2.2v.3M23.5-56.3v.2c-.1.1-.1.1-.2.1-.1.1-.1.3-.1.4-.2.1 0 .2 0 .3v.2c0 .1 0 .3.1.4.1.2.3.4.4.5.2.1.4.6.6.6.2 0 .4-.1.5-.1.2 0 .4 0 .6-.1.2-.1.1-.3.3-.5.1-.1.3 0 .4-.1.2-.1.3-.3.4-.5v-.2c0-.1.1-.2.1-.3 0-.1-.1-.1-.1-.2v-.3c0-.2 0-.4-.1-.5-.4-.7-1.2-.9-2-.8-.2 0-.3.1-.4.2-.2.1-.1.2-.3.2-.1 0-.2.1-.2.2v.3M15.8-56.3v.2c-.1.1-.1.1-.2.1-.1.1-.1.3-.1.4-.2.1 0 .2 0 .3v.2c0 .1 0 .3.1.4.1.2.3.4.4.5.2.1.4.6.6.6.2 0 .4-.1.5-.1.2 0 .4 0 .6-.1.2-.1.1-.3.3-.5.1-.1.3 0 .4-.1.2-.1.3-.3.4-.5v-.2c0-.1.1-.2.1-.3 0-.1-.1-.1-.1-.2v-.3c0-.2 0-.4-.1-.5-.4-.7-1.2-.9-2-.8-.2 0-.3.1-.4.2-.2.1-.1.2-.3.2-.1 0-.2.1-.2.2v.3M8.2-56.3v.2c-.1 0-.2 0-.2.1-.1.1-.1.3-.1.4-.2.1 0 .2 0 .3v.2c0 .1 0 .3.1.4.1.2.3.4.4.5.2.1.4.6.6.6.2 0 .4-.1.5-.1.2 0 .4 0 .6-.1.2-.1.1-.3.3-.5.1-.1.3 0 .4-.1.2-.1.3-.3.4-.5v-.2c0-.1.1-.2.1-.3 0-.1-.1-.1-.1-.2v-.3c0-.2 0-.4-.1-.5-.4-.7-1.2-.9-2-.8-.2 0-.3.1-.4.2-.2.1-.1.2-.3.2-.1 0-.2.1-.2.2v.3c-.1 0-.1 0 0 0M.5-56.3v.2c-.1.1-.1.1-.2.1-.1.1-.1.3-.1.4-.2.1 0 .2 0 .3v.2c0 .1 0 .3.1.4.1.2.3.4.4.5.2.1.4.6.6.6.2 0 .4-.1.5-.1.2 0 .4 0 .6-.1.2-.1.1-.3.3-.5.1-.1.3 0 .4-.1.2-.1.3-.3.4-.5v-.2c0-.1.1-.2.1-.3 0-.1-.1-.1-.1-.2v-.3c0-.2 0-.4-.1-.5-.4-.7-1.2-.9-2-.8-.2 0-.3.1-.4.2-.2.1-.1.2-.3.2-.1 0-.2.1-.2.2v.3"/></g><g><path class="st2" d="M69.4-48.7v.2c-.1.1-.1.1-.2.1-.1.1-.1.3-.1.4-.2.1 0 .2 0 .3v.2c0 .1 0 .3.1.4.1.2.3.4.4.5.2.1.4.6.6.6.2 0 .4-.1.5-.1.2 0 .4 0 .6-.1.2-.1.1-.3.3-.5.1-.1.3 0 .4-.1.2-.1.3-.3.4-.5v-.2c0-.1.1-.2.1-.3 0-.1-.1-.1-.1-.2v-.3c0-.2 0-.4-.1-.5-.4-.7-1.2-.9-2-.8-.2 0-.3.1-.4.2-.2.1-.1.2-.3.2-.1 0-.2.1-.2.2v.3M61.8-48.7v.2c-.1.1-.1.1-.2.1-.1.1-.1.3-.1.4-.2.1 0 .2 0 .3v.2c0 .1 0 .3.1.4.1.2.3.4.4.5.2.1.4.6.6.6.2 0 .4-.1.5-.1.2 0 .4 0 .6-.1.2-.1.1-.3.3-.5.1-.1.3 0 .4-.1.2-.1.3-.3.4-.5v-.2c0-.1.1-.2.1-.3 0-.1-.1-.1-.1-.2v-.3c0-.2 0-.4-.1-.5-.4-.7-1.2-.9-2-.8-.2 0-.3.1-.4.2-.2.1-.1.2-.3.2-.1 0-.2.1-.2.2v.3M54.1-48.7v.2c-.1.1-.1.1-.2.1-.1.1-.1.3-.1.4-.2.1 0 .2 0 .3v.2c0 .1 0 .3.1.4.1.2.3.4.4.5.2.1.4.6.6.6.2 0 .4-.1.5-.1.2 0 .4 0 .6-.1.2-.1.1-.3.3-.5.1-.1.3 0 .4-.1.2-.1.3-.3.4-.5v-.2c0-.1.1-.2.1-.3 0-.1-.1-.1-.1-.2v-.3c0-.2 0-.4-.1-.5-.4-.7-1.2-.9-2-.8-.2 0-.3.1-.4.2-.2.1-.1.2-.3.2-.1 0-.2.1-.2.2v.3M46.5-48.7v.2c-.1.1-.1.1-.2.1-.1.1-.1.3-.1.4-.2.1 0 .2 0 .3v.2c0 .1 0 .3.1.4.1.2.3.4.4.5.2.1.4.6.6.6.2 0 .4-.1.5-.1.2 0 .4 0 .6-.1.2-.1.1-.3.3-.5.1-.1.3 0 .4-.1.2-.1.3-.3.4-.5v-.2c0-.1.1-.2.1-.3 0-.1-.1-.1-.1-.2v-.3c0-.2 0-.4-.1-.5-.4-.7-1.2-.9-2-.8-.2 0-.3.1-.4.2-.2.1-.1.2-.3.2-.1 0-.2.1-.2.2v.3M38.8-48.7v.2c-.1.1-.1.1-.2.1-.1.1-.1.3-.1.4-.2.1 0 .2 0 .3v.2c0 .1 0 .3.1.4.1.2.3.4.4.5.2.1.4.6.6.6.2 0 .4-.1.5-.1.2 0 .4 0 .6-.1.2-.1.1-.3.3-.5.1-.1.3 0 .4-.1.2-.1.3-.3.4-.5v-.2c0-.1.1-.2.1-.3 0-.1-.1-.1-.1-.2v-.3c0-.2 0-.4-.1-.5-.4-.7-1.2-.9-2-.8-.2 0-.3.1-.4.2-.2.1-.1.2-.3.2-.1 0-.2.1-.2.2v.3M31.1-48.7v.2c-.1.1-.1.1-.2.1-.1.1-.1.3-.1.4-.2.1 0 .2 0 .3v.2c0 .1 0 .3.1.4.1.2.3.4.4.5.2.1.4.6.6.6.2 0 .4-.1.5-.1.2 0 .4 0 .6-.1.2-.1.1-.3.3-.5.1-.1.3 0 .4-.1.2-.1.3-.3.4-.5v-.2c0-.1.1-.2.1-.3 0-.1-.1-.1-.1-.2v-.3c0-.2 0-.4-.1-.5-.4-.7-1.2-.9-2-.8-.2 0-.3.1-.4.2-.2.1-.1.2-.3.2-.1 0-.2.1-.2.2v.3M23.5-48.7v.2c-.1.1-.1.1-.2.1-.1.1-.1.3-.1.4-.2.1 0 .2 0 .3v.2c0 .1 0 .3.1.4.1.2.3.4.4.5.2.1.4.6.6.6.2 0 .4-.1.5-.1.2 0 .4 0 .6-.1.2-.1.1-.3.3-.5.1-.1.3 0 .4-.1.2-.1.3-.3.4-.5v-.2c0-.1.1-.2.1-.3 0-.1-.1-.1-.1-.2v-.3c0-.2 0-.4-.1-.5-.4-.7-1.2-.9-2-.8-.2 0-.3.1-.4.2-.2.1-.1.2-.3.2-.1 0-.2.1-.2.2v.3M15.8-48.7v.2c-.1.1-.1.1-.2.1-.1.1-.1.3-.1.4-.2.1 0 .2 0 .3v.2c0 .1 0 .3.1.4.1.2.3.4.4.5.2.1.4.6.6.6.2 0 .4-.1.5-.1.2 0 .4 0 .6-.1.2-.1.1-.3.3-.5.1-.1.3 0 .4-.1.2-.1.3-.3.4-.5v-.2c0-.1.1-.2.1-.3 0-.1-.1-.1-.1-.2v-.3c0-.2 0-.4-.1-.5-.4-.7-1.2-.9-2-.8-.2 0-.3.1-.4.2-.2.1-.1.2-.3.2-.1 0-.2.1-.2.2v.3M8.2-48.7v.2c-.1.1-.2.1-.2.1-.1.1-.1.3-.1.4-.2.1 0 .2 0 .3v.2c0 .1 0 .3.1.4.1.2.3.4.4.5.1.2.3.6.5.6s.4-.1.5-.1c.2 0 .4 0 .6-.1.2-.1.1-.3.3-.5.1-.1.3 0 .4-.1.2-.1.3-.3.4-.5v-.2c0-.1.1-.2.1-.3 0-.1-.1-.1-.1-.2v-.3c0-.2 0-.4-.1-.5-.4-.7-1.2-.9-2-.8-.2 0-.3.1-.4.2-.2.1-.1.2-.3.2-.1 0-.2.1-.2.2.1.3.1.2.1.3-.1 0-.1 0 0 0M.5-48.7v.2c-.1.1-.1.1-.2.1-.1.1-.1.3-.1.4-.2.1 0 .2 0 .3v.2c0 .1 0 .3.1.4.1.2.3.4.4.5.2.2.3.6.6.6.2 0 .4-.1.5-.1.2 0 .4 0 .6-.1.2-.1.1-.3.3-.5.1-.1.3 0 .4-.1.2-.1.3-.3.4-.5v-.2c0-.1.1-.2.1-.3 0-.1-.1-.1-.1-.2v-.3c0-.2 0-.4-.1-.5-.4-.7-1.2-.9-2-.8-.2 0-.3.1-.4.2-.2.1-.1.2-.3.2-.1 0-.2.1-.2.2v.3"/></g><g><path class="st2" d="M69.4-41v.2c-.1.1-.1.1-.2.1-.1.1-.1.3-.1.4-.2.1 0 .2 0 .3v.2c0 .1 0 .3.1.4.1.2.3.4.4.5.2.1.4.6.6.6.2 0 .4-.1.5-.1.2 0 .4 0 .6-.1.2-.1.1-.3.3-.5.1-.1.3 0 .4-.1.2-.1.3-.3.4-.5v-.2c0-.1.1-.2.1-.3 0-.1-.1-.1-.1-.2v-.3c0-.2 0-.4-.1-.5-.4-.7-1.2-.9-2-.8-.2 0-.3.1-.4.2-.2.1-.1.2-.3.2-.1 0-.2.1-.2.2v.3M61.8-41v.2c-.1.1-.1.1-.2.1-.1.1-.1.3-.1.4-.2.1 0 .2 0 .3v.2c0 .1 0 .3.1.4.1.2.3.4.4.5.2.1.4.6.6.6.2 0 .4-.1.5-.1.2 0 .4 0 .6-.1.2-.1.1-.3.3-.5.1-.1.3 0 .4-.1.2-.1.3-.3.4-.5v-.2c0-.1.1-.2.1-.3 0-.1-.1-.1-.1-.2v-.3c0-.2 0-.4-.1-.5-.4-.7-1.2-.9-2-.8-.2 0-.3.1-.4.2-.2.1-.1.2-.3.2-.1 0-.2.1-.2.2v.3M54.1-41v.2c-.1.1-.1.1-.2.1-.1.1-.1.3-.1.4-.2.1 0 .2 0 .3v.2c0 .1 0 .3.1.4.1.2.3.4.4.5.2.1.4.6.6.6.2 0 .4-.1.5-.1.2 0 .4 0 .6-.1.2-.1.1-.3.3-.5.1-.1.3 0 .4-.1.2-.1.3-.3.4-.5v-.2c0-.1.1-.2.1-.3 0-.1-.1-.1-.1-.2v-.3c0-.2 0-.4-.1-.5-.4-.7-1.2-.9-2-.8-.2 0-.3.1-.4.2-.2.1-.1.2-.3.2-.1 0-.2.1-.2.2v.3M46.5-41v.2c-.1.1-.1.1-.2.1-.1.1-.1.3-.1.4-.2.1 0 .2 0 .3v.2c0 .1 0 .3.1.4.1.2.3.4.4.5.2.1.4.6.6.6.2 0 .4-.1.5-.1.2 0 .4 0 .6-.1.2-.1.1-.3.3-.5.1-.1.3 0 .4-.1.2-.1.3-.3.4-.5v-.2c0-.1.1-.2.1-.3 0-.1-.1-.1-.1-.2v-.3c0-.2 0-.4-.1-.5-.4-.7-1.2-.9-2-.8-.2 0-.3.1-.4.2-.2.1-.1.2-.3.2-.1 0-.2.1-.2.2v.3M38.8-41v.2c-.1.1-.1.1-.2.1-.1.1-.1.3-.1.4-.2.1 0 .2 0 .3v.2c0 .1 0 .3.1.4.1.2.3.4.4.5.2.1.4.6.6.6.2 0 .4-.1.5-.1.2 0 .4 0 .6-.1.2-.1.1-.3.3-.5.1-.1.3 0 .4-.1.2-.1.3-.3.4-.5v-.2c0-.1.1-.2.1-.3 0-.1-.1-.1-.1-.2v-.3c0-.2 0-.4-.1-.5-.4-.7-1.2-.9-2-.8-.2 0-.3.1-.4.2-.2.1-.1.2-.3.2-.1 0-.2.1-.2.2v.3M31.1-41v.2c-.1.1-.1.1-.2.1-.1.1-.1.3-.1.4-.2.1 0 .2 0 .3v.2c0 .1 0 .3.1.4.1.2.3.4.4.5.2.1.4.6.6.6.2 0 .4-.1.5-.1.2 0 .4 0 .6-.1.2-.1.1-.3.3-.5.1-.1.3 0 .4-.1.2-.1.3-.3.4-.5v-.2c0-.1.1-.2.1-.3 0-.1-.1-.1-.1-.2v-.3c0-.2 0-.4-.1-.5-.4-.7-1.2-.9-2-.8-.2 0-.3.1-.4.2-.2.1-.1.2-.3.2-.1 0-.2.1-.2.2v.3M23.5-41v.2c-.1.1-.1.1-.2.1-.1.1-.1.3-.1.4-.2.1 0 .2 0 .3v.2c0 .1 0 .3.1.4.1.2.3.4.4.5.2.1.4.6.6.6.2 0 .4-.1.5-.1.2 0 .4 0 .6-.1.2-.1.1-.3.3-.5.1-.1.3 0 .4-.1.2-.1.3-.3.4-.5v-.2c0-.1.1-.2.1-.3 0-.1-.1-.1-.1-.2v-.3c0-.2 0-.4-.1-.5-.4-.7-1.2-.9-2-.8-.2 0-.3.1-.4.2-.2.1-.1.2-.3.2-.1 0-.2.1-.2.2v.3M15.8-41v.2c-.1.1-.1.1-.2.1-.1.1-.1.3-.1.4-.2.1 0 .2 0 .3v.2c0 .1 0 .3.1.4.1.2.3.4.4.5.2.1.4.6.6.6.2 0 .4-.1.5-.1.2 0 .4 0 .6-.1.2-.1.1-.3.3-.5.1-.1.3 0 .4-.1.2-.1.3-.3.4-.5v-.2c0-.1.1-.2.1-.3 0-.1-.1-.1-.1-.2v-.3c0-.2 0-.4-.1-.5-.4-.7-1.2-.9-2-.8-.2 0-.3.1-.4.2-.2.1-.1.2-.3.2-.1 0-.2.1-.2.2v.3M8.2-41v.2c-.1 0-.2 0-.2.1-.1.1-.1.3-.1.4-.2.1 0 .2 0 .3v.2c0 .1 0 .3.1.4.1.2.3.4.4.5.2.1.4.6.6.6.2 0 .4-.1.5-.1.2 0 .4 0 .6-.1.2-.1.1-.3.3-.5.1-.1.3 0 .4-.1.2-.1.3-.3.4-.5v-.2c0-.1.1-.2.1-.3 0-.1-.1-.1-.1-.2v-.3c0-.2 0-.4-.1-.5-.4-.7-1.2-.9-2-.8-.2 0-.3.1-.4.2-.2.1-.1.2-.3.2-.1 0-.2.1-.2.2v.3c-.1 0-.1 0 0 0M.5-41v.2c-.1.1-.1.1-.2.1-.1.1-.1.3-.1.4-.2.1 0 .2 0 .3v.2c0 .1 0 .3.1.4.1.2.3.4.4.5.2.1.4.6.6.6.2 0 .4-.1.5-.1.2 0 .4 0 .6-.1.2-.1.1-.3.3-.5h.4c.2-.1.3-.3.4-.5v-.2c0-.1.1-.2.1-.3 0-.1-.1-.1-.1-.2v-.3c0-.2 0-.4-.1-.5-.4-.7-1.2-.9-2-.8-.2 0-.3.1-.4.2-.2.1-.1.2-.3.2-.1 0-.2.1-.2.2v.2"/></g><g><path class="st2" d="M69.4-33.4v.2c-.1.1-.1.1-.2.1-.1.1-.1.3-.1.4-.2.1 0 .2 0 .3v.2c0 .1 0 .3.1.4.1.2.3.4.4.5.2.1.4.6.6.6.2 0 .4-.1.5-.1.2 0 .4 0 .6-.1.2-.1.1-.3.3-.5.1-.1.3 0 .4-.1.2-.1.3-.3.4-.5v-.2c0-.1.1-.2.1-.3 0-.1-.1-.1-.1-.2v-.3c0-.2 0-.4-.1-.5-.4-.7-1.2-.9-2-.8-.2 0-.3.1-.4.2-.2.1-.1.2-.3.2-.1 0-.2.1-.2.2v.3M61.8-33.4v.2c-.1.1-.1.1-.2.1-.1.1-.1.3-.1.4-.2.1 0 .2 0 .3v.2c0 .1 0 .3.1.4.1.2.3.4.4.5.2.1.4.6.6.6.2 0 .4-.1.5-.1.2 0 .4 0 .6-.1.2-.1.1-.3.3-.5.1-.1.3 0 .4-.1.2-.1.3-.3.4-.5v-.2c0-.1.1-.2.1-.3 0-.1-.1-.1-.1-.2v-.3c0-.2 0-.4-.1-.5-.4-.7-1.2-.9-2-.8-.2 0-.3.1-.4.2-.2.1-.1.2-.3.2-.1 0-.2.1-.2.2v.3M54.1-33.4v.2c-.1.1-.1.1-.2.1-.1.1-.1.3-.1.4-.2.1 0 .2 0 .3v.2c0 .1 0 .3.1.4.1.2.3.4.4.5.2.1.4.6.6.6.2 0 .4-.1.5-.1.2 0 .4 0 .6-.1.2-.1.1-.3.3-.5.1-.1.3 0 .4-.1.2-.1.3-.3.4-.5v-.2c0-.1.1-.2.1-.3 0-.1-.1-.1-.1-.2v-.3c0-.2 0-.4-.1-.5-.4-.7-1.2-.9-2-.8-.2 0-.3.1-.4.2-.2.1-.1.2-.3.2-.1 0-.2.1-.2.2v.3M46.5-33.4v.2c-.1.1-.1.1-.2.1-.1.1-.1.3-.1.4-.2.1 0 .2 0 .3v.2c0 .1 0 .3.1.4.1.2.3.4.4.5.2.1.4.6.6.6.2 0 .4-.1.5-.1.2 0 .4 0 .6-.1.2-.1.1-.3.3-.5.1-.1.3 0 .4-.1.2-.1.3-.3.4-.5v-.2c0-.1.1-.2.1-.3 0-.1-.1-.1-.1-.2v-.3c0-.2 0-.4-.1-.5-.4-.7-1.2-.9-2-.8-.2 0-.3.1-.4.2-.2.1-.1.2-.3.2-.1 0-.2.1-.2.2v.3M38.8-33.4v.2c-.1.1-.1.1-.2.1-.1.1-.1.3-.1.4-.2.1 0 .2 0 .3v.2c0 .1 0 .3.1.4.1.2.3.4.4.5.2.1.4.6.6.6.2 0 .4-.1.5-.1.2 0 .4 0 .6-.1.2-.1.1-.3.3-.5.1-.1.3 0 .4-.1.2-.1.3-.3.4-.5v-.2c0-.1.1-.2.1-.3 0-.1-.1-.1-.1-.2v-.3c0-.2 0-.4-.1-.5-.4-.7-1.2-.9-2-.8-.2 0-.3.1-.4.2-.2.1-.1.2-.3.2-.1 0-.2.1-.2.2v.3M31.1-33.4v.2c-.1.1-.1.1-.2.1-.1.1-.1.3-.1.4-.2.1 0 .2 0 .3v.2c0 .1 0 .3.1.4.1.2.3.4.4.5.2.1.4.6.6.6.2 0 .4-.1.5-.1.2 0 .4 0 .6-.1.2-.1.1-.3.3-.5.1-.1.3 0 .4-.1.2-.1.3-.3.4-.5v-.2c0-.1.1-.2.1-.3 0-.1-.1-.1-.1-.2v-.3c0-.2 0-.4-.1-.5-.4-.7-1.2-.9-2-.8-.2 0-.3.1-.4.2-.2.1-.1.2-.3.2-.1 0-.2.1-.2.2v.3M23.5-33.4v.2c-.1.1-.1.1-.2.1-.1.1-.1.3-.1.4-.2.1 0 .2 0 .3v.2c0 .1 0 .3.1.4.1.2.3.4.4.5.2.1.4.6.6.6.2 0 .4-.1.5-.1.2 0 .4 0 .6-.1.2-.1.1-.3.3-.5.1-.1.3 0 .4-.1.2-.1.3-.3.4-.5v-.2c0-.1.1-.2.1-.3 0-.1-.1-.1-.1-.2v-.3c0-.2 0-.4-.1-.5-.4-.7-1.2-.9-2-.8-.2 0-.3.1-.4.2-.2.1-.1.2-.3.2-.1 0-.2.1-.2.2v.3M15.8-33.4v.2c-.1.1-.1.1-.2.1-.1.1-.1.3-.1.4-.2.1 0 .2 0 .3v.2c0 .1 0 .3.1.4.1.2.3.4.4.5.2.1.4.6.6.6.2 0 .4-.1.5-.1.2 0 .4 0 .6-.1.2-.1.1-.3.3-.5.1-.1.3 0 .4-.1.2-.1.3-.3.4-.5v-.2c0-.1.1-.2.1-.3 0-.1-.1-.1-.1-.2v-.3c0-.2 0-.4-.1-.5-.4-.7-1.2-.9-2-.8-.2 0-.3.1-.4.2-.2.1-.1.2-.3.2-.1 0-.2.1-.2.2v.3M8.2-33.4v.2c-.1.1-.2.1-.2.1-.1.1-.1.3-.1.4-.2.1 0 .2 0 .3v.2c0 .1 0 .3.1.4.1.2.3.4.4.5.2.1.4.6.6.6.2 0 .4-.1.5-.1.2 0 .4 0 .6-.1.2-.1.1-.3.3-.5.1-.1.3 0 .4-.1.2-.1.3-.3.4-.5v-.2c0-.1.1-.2.1-.3 0-.1-.1-.1-.1-.2v-.3c0-.2 0-.4-.1-.5-.4-.7-1.2-.9-2-.8-.2 0-.3.1-.4.2-.2.1-.1.2-.3.2-.1 0-.2.1-.2.2v.3c-.1 0-.1 0 0 0M.5-33.4v.2c-.1.1-.1.1-.2.1-.1.1-.1.3-.1.4-.2.1 0 .2 0 .3v.2c0 .1 0 .3.1.4.1.2.3.4.4.5.2.1.4.6.6.6.2 0 .4-.1.5-.1.2 0 .4 0 .6-.1.2-.1.1-.3.3-.5.1-.1.3 0 .4-.1.2-.1.3-.3.4-.5v-.2c0-.1.1-.2.1-.3 0-.1-.1-.1-.1-.2v-.3c0-.2 0-.4-.1-.5-.4-.7-1.2-.9-2-.8-.2 0-.3.1-.4.2-.2.1-.1.2-.3.2-.1 0-.2.1-.2.2v.3"/></g><g><path class="st2" d="M69.4-25.7v.2c-.1.1-.1.1-.2.1-.1.1-.1.3-.1.4-.2.1 0 .2 0 .3v.2c0 .1 0 .3.1.4.1.2.3.4.4.5.2.1.4.6.6.6.2 0 .4-.1.5-.1.2 0 .4 0 .6-.1.2-.1.1-.3.3-.5.1-.1.3 0 .4-.1.2-.1.3-.3.4-.5v-.2c0-.1.1-.2.1-.3 0-.1-.1-.1-.1-.2v-.3c0-.2 0-.4-.1-.5-.4-.7-1.2-.9-2-.8-.2 0-.3.1-.4.2-.2.1-.1.2-.3.2-.1 0-.2.1-.2.2v.3M61.8-25.7v.2c-.1.1-.1.1-.2.1-.1.1-.1.3-.1.4-.2.1 0 .2 0 .3v.2c0 .1 0 .3.1.4.1.2.3.4.4.5.2.1.4.6.6.6.2 0 .4-.1.5-.1.2 0 .4 0 .6-.1.2-.1.1-.3.3-.5.1-.1.3 0 .4-.1.2-.1.3-.3.4-.5v-.2c0-.1.1-.2.1-.3 0-.1-.1-.1-.1-.2v-.3c0-.2 0-.4-.1-.5-.4-.7-1.2-.9-2-.8-.2 0-.3.1-.4.2-.2.1-.1.2-.3.2-.1 0-.2.1-.2.2v.3M54.1-25.7v.2c-.1.1-.1.1-.2.1-.1.1-.1.3-.1.4-.2.1 0 .2 0 .3v.2c0 .1 0 .3.1.4.1.2.3.4.4.5.2.1.4.6.6.6.2 0 .4-.1.5-.1.2 0 .4 0 .6-.1.2-.1.1-.3.3-.5.1-.1.3 0 .4-.1.2-.1.3-.3.4-.5v-.2c0-.1.1-.2.1-.3 0-.1-.1-.1-.1-.2v-.3c0-.2 0-.4-.1-.5-.4-.7-1.2-.9-2-.8-.2 0-.3.1-.4.2-.2.1-.1.2-.3.2-.1 0-.2.1-.2.2v.3M46.5-25.7v.2c-.1.1-.1.1-.2.1-.1.1-.1.3-.1.4-.2.1 0 .2 0 .3v.2c0 .1 0 .3.1.4.1.2.3.4.4.5.2.1.4.6.6.6.2 0 .4-.1.5-.1.2 0 .4 0 .6-.1.2-.1.1-.3.3-.5.1-.1.3 0 .4-.1.2-.1.3-.3.4-.5v-.2c0-.1.1-.2.1-.3 0-.1-.1-.1-.1-.2v-.3c0-.2 0-.4-.1-.5-.4-.7-1.2-.9-2-.8-.2 0-.3.1-.4.2-.2.1-.1.2-.3.2-.1 0-.2.1-.2.2v.3M38.8-25.7v.2c-.1.1-.1.1-.2.1-.1.1-.1.3-.1.4-.2.1 0 .2 0 .3v.2c0 .1 0 .3.1.4.1.2.3.4.4.5.2.1.4.6.6.6.2 0 .4-.1.5-.1.2 0 .4 0 .6-.1.2-.1.1-.3.3-.5.1-.1.3 0 .4-.1.2-.1.3-.3.4-.5v-.2c0-.1.1-.2.1-.3 0-.1-.1-.1-.1-.2v-.3c0-.2 0-.4-.1-.5-.4-.7-1.2-.9-2-.8-.2 0-.3.1-.4.2-.2.1-.1.2-.3.2-.1 0-.2.1-.2.2v.3M31.1-25.7v.2c-.1.1-.1.1-.2.1-.1.1-.1.3-.1.4-.2.1 0 .2 0 .3v.2c0 .1 0 .3.1.4.1.2.3.4.4.5.2.1.4.6.6.6.2 0 .4-.1.5-.1.2 0 .4 0 .6-.1.2-.1.1-.3.3-.5.1-.1.3 0 .4-.1.2-.1.3-.3.4-.5v-.2c0-.1.1-.2.1-.3 0-.1-.1-.1-.1-.2v-.3c0-.2 0-.4-.1-.5-.4-.7-1.2-.9-2-.8-.2 0-.3.1-.4.2-.2.1-.1.2-.3.2-.1 0-.2.1-.2.2v.3M23.5-25.7v.2c-.1.1-.1.1-.2.1-.1.1-.1.3-.1.4-.2.1 0 .2 0 .3v.2c0 .1 0 .3.1.4.1.2.3.4.4.5.2.1.4.6.6.6.2 0 .4-.1.5-.1.2 0 .4 0 .6-.1.2-.1.1-.3.3-.5.1-.1.3 0 .4-.1.2-.1.3-.3.4-.5v-.2c0-.1.1-.2.1-.3 0-.1-.1-.1-.1-.2v-.3c0-.2 0-.4-.1-.5-.4-.7-1.2-.9-2-.8-.2 0-.3.1-.4.2-.2.1-.1.2-.3.2-.1 0-.2.1-.2.2v.3M15.8-25.7v.2c-.1.1-.1.1-.2.1-.1.1-.1.3-.1.4-.2.1 0 .2 0 .3v.2c0 .1 0 .3.1.4.1.2.3.4.4.5.2.1.4.6.6.6.2 0 .4-.1.5-.1.2 0 .4 0 .6-.1.2-.1.1-.3.3-.5.1-.1.3 0 .4-.1.2-.1.3-.3.4-.5v-.2c0-.1.1-.2.1-.3 0-.1-.1-.1-.1-.2v-.3c0-.2 0-.4-.1-.5-.4-.7-1.2-.9-2-.8-.2 0-.3.1-.4.2-.2.1-.1.2-.3.2-.1 0-.2.1-.2.2v.3M8.2-25.7v.2c-.1.1-.2 0-.2.1-.1.1-.1.3-.1.4-.2.1 0 .2 0 .3v.2c0 .1 0 .3.1.4 0 .1.2.3.3.5.2.1.4.6.6.6.2 0 .4-.1.5-.1.2 0 .4 0 .6-.1.2-.1.1-.3.3-.5.1-.1.3 0 .4-.1.2-.1.3-.3.4-.5v-.2c0-.1.1-.2.1-.3 0-.1-.1-.1-.1-.2v-.3c0-.2 0-.4-.1-.5-.4-.7-1.2-.9-2-.8-.2 0-.3.1-.4.2-.2.1-.1.2-.3.2-.1 0-.2.1-.2.2.1.2.1.2.1.3-.1 0-.1 0 0 0M.5-25.7v.2c-.1.1-.1.1-.2.1-.1.1-.1.3-.1.4-.2.1 0 .2 0 .3v.2c0 .1 0 .3.1.4.1.2.3.4.4.5.2.1.3.5.6.6.2 0 .4-.1.5-.1.2 0 .4 0 .6-.1.2-.1.1-.3.3-.5.1-.1.3 0 .4-.1.2-.1.3-.3.4-.5v-.2c0-.1.1-.2.1-.3 0-.1-.1-.1-.1-.2v-.3c0-.2 0-.4-.1-.5-.4-.7-1.2-.9-2-.8-.2 0-.3.1-.4.2-.2.1-.1.2-.3.2-.1 0-.2.1-.2.2v.3"/></g><g><path class="st2" d="M69.4-18.1v.2c-.1.1-.1.1-.2.1-.1.1-.1.3-.1.4-.2.1 0 .2 0 .3v.2c0 .1 0 .3.1.4.1.2.3.4.4.5.2.1.4.6.6.6.2 0 .4-.1.5-.1.2 0 .4 0 .6-.1.2-.1.1-.3.3-.5.1-.1.3 0 .4-.1.2-.1.3-.3.4-.5v-.2c0-.1.1-.2.1-.3 0-.1-.1-.1-.1-.2v-.3c0-.2 0-.4-.1-.5-.4-.7-1.2-.9-2-.8-.2 0-.3.1-.4.2-.2.1-.1.2-.3.2-.1 0-.2.1-.2.2v.3c0 .1 0 0 0 0M61.8-18.1v.2c-.1.1-.1.1-.2.1-.1.1-.1.3-.1.4-.2.1 0 .2 0 .3v.2c0 .1 0 .3.1.4.1.2.3.4.4.5.2.1.4.6.6.6.2 0 .4-.1.5-.1.2 0 .4 0 .6-.1.2-.1.1-.3.3-.5.1-.1.3 0 .4-.1.2-.1.3-.3.4-.5v-.2c0-.1.1-.2.1-.3 0-.1-.1-.1-.1-.2v-.3c0-.2 0-.4-.1-.5-.4-.7-1.2-.9-2-.8-.2 0-.3.1-.4.2-.2.1-.1.2-.3.2-.1 0-.2.1-.2.2v.3c0 .1 0 0 0 0M54.1-18.1v.2c-.1.1-.1.1-.2.1-.1.1-.1.3-.1.4-.2.1 0 .2 0 .3v.2c0 .1 0 .3.1.4.1.2.3.4.4.5.2.1.4.6.6.6.2 0 .4-.1.5-.1.2 0 .4 0 .6-.1.2-.1.1-.3.3-.5.1-.1.3 0 .4-.1.2-.1.3-.3.4-.5v-.2c0-.1.1-.2.1-.3 0-.1-.1-.1-.1-.2v-.3c0-.2 0-.4-.1-.5-.4-.7-1.2-.9-2-.8-.2 0-.3.1-.4.2-.2.1-.1.2-.3.2-.1 0-.2.1-.2.2v.3c0 .1 0 0 0 0M46.5-18.1v.2c-.1.1-.1.1-.2.1-.1.1-.1.3-.1.4-.2.1 0 .2 0 .3v.2c0 .1 0 .3.1.4.1.2.3.4.4.5.2.1.4.6.6.6.2 0 .4-.1.5-.1.2 0 .4 0 .6-.1.2-.1.1-.3.3-.5.1-.1.3 0 .4-.1.2-.1.3-.3.4-.5v-.2c0-.1.1-.2.1-.3 0-.1-.1-.1-.1-.2v-.3c0-.2 0-.4-.1-.5-.4-.7-1.2-.9-2-.8-.2 0-.3.1-.4.2-.2.1-.1.2-.3.2-.1 0-.2.1-.2.2v.3c0 .1 0 0 0 0M38.8-18.1v.2c-.1.1-.1.1-.2.1-.1.1-.1.3-.1.4-.2.1 0 .2 0 .3v.2c0 .1 0 .3.1.4.1.2.3.4.4.5.2.1.4.6.6.6.2 0 .4-.1.5-.1.2 0 .4 0 .6-.1.2-.1.1-.3.3-.5.1-.1.3 0 .4-.1.2-.1.3-.3.4-.5v-.2c0-.1.1-.2.1-.3 0-.1-.1-.1-.1-.2v-.3c0-.2 0-.4-.1-.5-.4-.7-1.2-.9-2-.8-.2 0-.3.1-.4.2-.2.1-.1.2-.3.2-.1 0-.2.1-.2.2v.3c0 .1 0 0 0 0M31.1-18.1v.2c-.1.1-.1.1-.2.1-.1.1-.1.3-.1.4-.2.1 0 .2 0 .3v.2c0 .1 0 .3.1.4.1.2.3.4.4.5.2.1.4.6.6.6.2 0 .4-.1.5-.1.2 0 .4 0 .6-.1.2-.1.1-.3.3-.5.1-.1.3 0 .4-.1.2-.1.3-.3.4-.5v-.2c0-.1.1-.2.1-.3 0-.1-.1-.1-.1-.2v-.3c0-.2 0-.4-.1-.5-.4-.7-1.2-.9-2-.8-.2 0-.3.1-.4.2-.2.1-.1.2-.3.2-.1 0-.2.1-.2.2v.3c0 .1 0 0 0 0M23.5-18.1v.2c-.1.1-.1.1-.2.1-.1.1-.1.3-.1.4-.2.1 0 .2 0 .3v.2c0 .1 0 .3.1.4.1.2.3.4.4.5.2.1.4.6.6.6.2 0 .4-.1.5-.1.2 0 .4 0 .6-.1.2-.1.1-.3.3-.5.1-.1.3 0 .4-.1.2-.1.3-.3.4-.5v-.2c0-.1.1-.2.1-.3 0-.1-.1-.1-.1-.2v-.3c0-.2 0-.4-.1-.5-.4-.7-1.2-.9-2-.8-.2 0-.3.1-.4.2-.2.1-.1.2-.3.2-.1 0-.2.1-.2.2v.3c0 .1 0 0 0 0M15.8-18.1v.2c-.1.1-.1.1-.2.1-.1.1-.1.3-.1.4-.2.1 0 .2 0 .3v.2c0 .1 0 .3.1.4.1.2.3.4.4.5.2.1.4.6.6.6.2 0 .4-.1.5-.1.2 0 .4 0 .6-.1.2-.1.1-.3.3-.5.1-.1.3 0 .4-.1.2-.1.3-.3.4-.5v-.2c0-.1.1-.2.1-.3 0-.1-.1-.1-.1-.2v-.3c0-.2 0-.4-.1-.5-.4-.7-1.2-.9-2-.8-.2 0-.3.1-.4.2-.2.1-.1.2-.3.2-.1 0-.2.1-.2.2v.3c0 .1 0 0 0 0M8.2-18.1v.2c-.1.1-.2.1-.2.1-.1.1-.1.3-.1.4-.2.1 0 .2 0 .3v.2c0 .1 0 .3.1.4 0 .2.2.4.3.5.2.1.4.6.6.6.2 0 .4-.1.5-.1.2 0 .4 0 .6-.1.2-.1.1-.3.3-.5.1-.1.3 0 .4-.1.2-.1.3-.3.4-.5v-.2c0-.1.1-.2.1-.3 0-.1-.1-.1-.1-.2v-.3c0-.2 0-.4-.1-.5-.4-.7-1.2-.9-2-.8-.2 0-.3.1-.4.2-.2.1-.1.2-.3.2-.1 0-.2.1-.2.2.1.3.1.2.1.3-.1.1-.1 0 0 0M.5-18.1v.2c-.1.1-.1.1-.2.1-.1.1-.1.3-.1.4-.2.1 0 .2 0 .3v.2c0 .1 0 .3.1.4.1.2.3.4.4.5.2.1.4.6.6.6.2 0 .4-.1.5-.1.2 0 .4 0 .6-.1.2-.1.1-.3.3-.5.1 0 .3.1.4.1.2-.1.3-.3.4-.5v-.2c0-.1.1-.2.1-.3 0-.1-.1-.1-.1-.2v-.3c0-.2 0-.4-.1-.5-.4-.7-1.2-.9-2-.8-.2 0-.3.1-.4.2-.2.1-.1.2-.3.2-.1 0-.2.1-.2.2v.1c0 .1 0 0 0 0"/></g><g><path class="st2" d="M69.4-10.4v.2c-.1.1-.1.1-.2.1-.1.1-.1.3-.1.4-.2.1 0 .2 0 .3v.2c0 .1 0 .3.1.4.1.2.3.4.4.5.2.1.4.6.6.6.2 0 .4-.1.5-.1.2 0 .4 0 .6-.1.2-.1.1-.3.3-.5.1-.1.3 0 .4-.1.2-.1.3-.3.4-.5v-.2c0-.1.1-.2.1-.3 0-.1-.1-.1-.1-.2v-.3c0-.2 0-.4-.1-.5-.4-.7-1.2-.9-2-.8-.2 0-.3.1-.4.2-.2.1-.1.2-.3.2-.1 0-.2.1-.2.2v.3M61.8-10.4v.2c-.1.1-.1.1-.2.1-.1.1-.1.3-.1.4-.2.1 0 .2 0 .3v.2c0 .1 0 .3.1.4.1.2.3.4.4.5.2.1.4.6.6.6.2 0 .4-.1.5-.1.2 0 .4 0 .6-.1.2-.1.1-.3.3-.4.1-.1.3 0 .4-.1.2-.1.3-.3.4-.5v-.2c0-.1.1-.2.1-.3 0-.1-.1-.1-.1-.2v-.3c0-.2 0-.4-.1-.5-.4-.7-1.2-.9-2-.8-.2 0-.3.1-.4.2-.2.1-.1.2-.3.2-.1 0-.2.1-.2.2v.2M54.1-10.4v.2c-.1.1-.1.1-.2.1-.1.1-.1.3-.1.4-.2.1 0 .2 0 .3v.2c0 .1 0 .3.1.4.1.2.3.4.4.5.2.1.4.6.6.6.2 0 .4-.1.5-.1.2 0 .4 0 .6-.1.2-.1.1-.3.3-.5.1-.1.3 0 .4-.1.2-.1.3-.3.4-.5v-.2c0-.1.1-.2.1-.3 0-.1-.1-.1-.1-.2v-.3c0-.2 0-.4-.1-.5-.4-.7-1.2-.9-2-.8-.2 0-.3.1-.4.2-.2.1-.1.2-.3.2-.1 0-.2.1-.2.2v.3M46.5-10.4v.2c-.1.1-.1.1-.2.1-.1.1-.1.3-.1.4-.2.1 0 .2 0 .3v.2c0 .1 0 .3.1.4.1.2.3.4.4.5.2.1.4.6.6.6.2 0 .4-.1.5-.1.2 0 .4 0 .6-.1.2-.1.1-.3.3-.5.1-.1.3 0 .4-.1.2-.1.3-.3.4-.5v-.2c0-.1.1-.2.1-.3 0-.1-.1-.1-.1-.2v-.3c0-.2 0-.4-.1-.5-.4-.7-1.2-.9-2-.8-.2 0-.3.1-.4.2-.2.1-.1.2-.3.2-.1 0-.2.1-.2.2v.3M38.8-10.4v.2c-.1.1-.1.1-.2.1-.1.1-.1.3-.1.4-.2.1 0 .2 0 .3v.2c0 .1 0 .3.1.4.1.2.3.4.4.5.2.1.4.6.6.6.2 0 .4-.1.5-.1.2 0 .4 0 .6-.1.2-.1.1-.3.3-.4.1-.1.3 0 .4-.1.2-.1.3-.3.4-.5v-.2c0-.1.1-.2.1-.3 0-.1-.1-.1-.1-.2v-.3c0-.2 0-.4-.1-.5-.4-.7-1.2-.9-2-.8-.2 0-.3.1-.4.2-.2.1-.1.2-.3.2-.1 0-.2.1-.2.2v.2M31.1-10.4v.2c-.1.1-.1.1-.2.1-.1.1-.1.3-.1.4-.2.1 0 .2 0 .3v.2c0 .1 0 .3.1.4.1.2.3.4.4.5.2.1.4.6.6.6.2 0 .4-.1.5-.1.2 0 .4 0 .6-.1.2-.1.1-.3.3-.5.1-.1.3 0 .4-.1.2-.1.3-.3.4-.5v-.2c0-.1.1-.2.1-.3 0-.1-.1-.1-.1-.2v-.3c0-.2 0-.4-.1-.5-.4-.7-1.2-.9-2-.8-.2 0-.3.1-.4.2-.2.1-.1.2-.3.2-.1 0-.2.1-.2.2v.3M23.5-10.4v.2c-.1.1-.1.1-.2.1-.1.1-.1.3-.1.4-.2.1 0 .2 0 .3v.2c0 .1 0 .3.1.4.1.2.3.4.4.5.2.1.4.6.6.6.2 0 .4-.1.5-.1.2 0 .4 0 .6-.1.2-.1.1-.3.3-.5.1-.1.3 0 .4-.1.2-.1.3-.3.4-.5v-.2c0-.1.1-.2.1-.3 0-.1-.1-.1-.1-.2v-.3c0-.2 0-.4-.1-.5-.4-.7-1.2-.9-2-.8-.2 0-.3.1-.4.2-.2.1-.1.2-.3.2-.1 0-.2.1-.2.2v.3M15.8-10.4v.2c-.1.1-.1.1-.2.1-.1.1-.1.3-.1.4-.2.1 0 .2 0 .3v.2c0 .1 0 .3.1.4.1.2.3.4.4.5.2.1.4.6.6.6.2 0 .4-.1.5-.1.2 0 .4 0 .6-.1.2-.1.1-.3.3-.4.1-.1.3 0 .4-.1.2-.1.3-.3.4-.5v-.2c0-.1.1-.2.1-.3 0-.1-.1-.1-.1-.2v-.3c0-.2 0-.4-.1-.5-.4-.7-1.2-.9-2-.8-.2 0-.3.1-.4.2-.2.1-.1.2-.3.2-.1 0-.2.1-.2.2v.2M8.2-10.4v.2c-.1.1-.2 0-.2.1-.1.1-.1.3-.1.3-.2.1 0 .2 0 .3v.2c0 .1 0 .3.1.4 0 .2.2.4.3.6.2.1.4.6.6.6.2 0 .4-.1.5-.1.2 0 .4 0 .6-.1.2-.1.1-.3.3-.5.1-.1.3 0 .4-.1.2-.1.3-.3.4-.5v-.2c0-.1.1-.2.1-.3 0-.1-.1-.1-.1-.2v-.3c0-.2 0-.4-.1-.5-.4-.7-1.2-.9-2-.8-.2 0-.3.1-.4.2-.2.1-.1.2-.3.2-.1 0-.2.1-.2.2.1.2.1.2.1.3-.1 0-.1 0 0 0M.5-10.4v.2c-.1.1-.1.1-.2.1 0 .1-.1.3-.1.3-.2.1 0 .2 0 .3v.2c0 .1 0 .3.1.4.1.2.3.4.4.5.2.2.3.6.6.7.2 0 .4-.1.5-.1.2 0 .4 0 .6-.1.2-.1.1-.3.3-.4.1-.1.3 0 .4-.1.2-.1.3-.3.4-.5v-.2c0-.1.1-.2.1-.3 0-.1-.1-.1-.1-.2v-.3c0-.2 0-.4-.1-.5-.4-.7-1.2-.9-2-.8-.2 0-.3.1-.4.2-.2.1-.1.2-.3.2-.1 0-.2.1-.2.2v.2"/></g></g><g><path class="st2" d="M69.4-2.8v.2c-.1.1-.1.1-.2.1-.1.1-.1.3-.1.4-.2.1 0 .2 0 .3v.2c0 .1 0 .3.1.4.1.2.3.4.4.5.2.2.4.6.6.7.2 0 .4-.1.5-.1.2 0 .4 0 .6-.1.2-.1.1-.3.3-.5.1-.1.3 0 .4-.1.2-.1.3-.3.4-.5v-.2c0-.1.1-.2.1-.3 0-.1-.1-.1-.1-.2v-.3c0-.2 0-.4-.1-.5-.4-.7-1.2-.9-2-.8-.2 0-.3.1-.4.2-.2.1-.1.2-.3.2-.1 0-.2.1-.2.2v.2c0 .1 0 0 0 0M61.8-2.8v.2c-.1.1-.1.1-.2.1-.1.1-.1.3-.1.4-.2.1 0 .2 0 .3v.2c0 .1 0 .3.1.4 0 .2.2.4.4.5.2.1.4.6.6.6.2 0 .4-.1.5-.1.2 0 .4 0 .6-.1.2-.1.1-.3.3-.5.1-.1.3 0 .4-.1.2-.1.3-.3.4-.5v-.2c0-.1.1-.2.1-.3 0-.1-.1-.1-.1-.2v-.3c0-.2 0-.4-.1-.5-.4-.7-1.2-.9-2-.8-.2 0-.3.1-.4.2-.2.1-.1.2-.3.2-.1 0-.2.1-.2.2v.3c0 .1 0 0 0 0M54.1-2.8v.2c-.1.1-.1.1-.2.1-.1.1-.1.3-.1.4-.2.1 0 .2 0 .3v.2c0 .1 0 .3.1.4.1.2.2.4.4.5.2.1.4.6.6.6.2 0 .4-.1.5-.1.2 0 .4 0 .6-.1.2-.1.1-.3.3-.5.1-.1.3 0 .4-.1.2.1.3-.1.4-.3v-.2c0-.1.1-.2.1-.3 0-.1-.1-.1-.1-.2v-.3c0-.2 0-.4-.1-.5-.4-.7-1.2-.9-2-.8-.2 0-.3.1-.4.2-.2.1-.1.2-.3.2-.1 0-.2.1-.2.2v.1c0 .1 0 0 0 0M46.5-2.8v.2c-.1.1-.1.1-.2.1-.1.1-.1.3-.1.4-.2.1 0 .2 0 .3v.2c0 .1 0 .3.1.4.1.2.3.4.4.5.1.2.3.6.5.7.2 0 .4-.1.5-.1.2 0 .4 0 .6-.1.2-.1.1-.3.3-.5.1-.1.3 0 .4-.1.2-.1.3-.3.4-.5v-.2c0-.1.1-.2.1-.3 0-.1-.1-.1-.1-.2v-.3c0-.2 0-.4-.1-.5-.4-.7-1.2-.9-2-.8-.2 0-.3.1-.4.2-.2.1-.1.2-.3.2-.1 0-.2.1-.2.2.1.2.1.1.1.2M38.8-2.8v.2c-.1.1-.1.1-.2.1-.1.1-.1.3-.1.4-.2.1 0 .2 0 .3v.2c0 .1 0 .3.1.4 0 .2.2.4.4.5.2.1.4.6.6.6.2 0 .4-.1.5-.1.2 0 .4 0 .6-.1.2-.1.1-.3.3-.5.1-.1.3 0 .4-.1.2-.1.3-.3.4-.5v-.2c0-.1.1-.2.1-.3 0-.1-.1-.1-.1-.2v-.3c0-.2 0-.4-.1-.5-.4-.7-1.2-.9-2-.8-.2 0-.3.1-.4.2-.2.1-.1.2-.3.2-.1 0-.2.1-.2.2v.3c0 .1 0 0 0 0M31.1-2.8v.2c-.1.1-.1.1-.2.1-.1.1-.1.3-.1.4-.2.1 0 .2 0 .3v.2c0 .1 0 .3.1.4.1.2.2.4.4.5.2.1.4.6.6.6.2 0 .4-.1.5-.1.2 0 .4 0 .6-.1.2-.1.1-.3.3-.5.1-.1.3 0 .4-.1.2-.1.3-.3.4-.5v-.2c0-.1.1-.2.1-.3 0-.1-.1-.1-.1-.2v-.3c0-.2 0-.4-.1-.5-.4-.7-1.2-.9-2-.8-.2 0-.3.1-.4.2-.2.1-.1.2-.3.2-.1 0-.2.1-.2.2v.3c0 .1 0 0 0 0M23.5-2.8v.2c-.1.1-.1.1-.2.1-.1.1-.1.3-.1.4-.2.1 0 .2 0 .3v.2c0 .1 0 .3.1.4.1.2.3.4.4.5.1.2.3.6.6.7.2 0 .4-.1.5-.1.2 0 .4 0 .6-.1.2-.1.1-.3.3-.5.1-.1.3 0 .4-.1.2-.1.3-.3.4-.5v-.2c0-.1.1-.2.1-.3 0-.1-.1-.1-.1-.2v-.3c0-.2 0-.4-.1-.5-.4-.7-1.2-.9-2-.8-.2 0-.3.1-.4.2-.2.1-.1.2-.3.2-.1 0-.2.1-.2.2v.2c0 .1 0 0 0 0M15.8-2.8v.2c-.1.1-.1.1-.2.1-.1.1-.1.3-.1.4-.2.1 0 .2 0 .3v.2c0 .1 0 .3.1.4.1.2.2.4.4.5.2.1.4.6.6.6.2 0 .4-.1.5-.1.2 0 .4 0 .6-.1.2-.1.1-.3.3-.5.1-.1.3 0 .4-.1.2-.1.3-.3.4-.5v-.2c0-.1.1-.2.1-.3 0-.1-.1-.1-.1-.2v-.3c0-.2 0-.4-.1-.5-.4-.7-1.2-.9-2-.8-.2 0-.3.1-.4.2-.2.1-.1.2-.3.2-.1 0-.2.1-.2.2v.3c0 .1 0 0 0 0M8.2-2.8v.2c-.1.1-.2.1-.2.1-.1.1-.1.3-.1.4-.2.1 0 .2 0 .3v.2c0 .1 0 .3.1.4 0 .2.2.4.3.5.2.2.4.6.6.7.2 0 .4-.1.5-.1.2 0 .4 0 .6-.1.2-.1.1-.3.3-.5.1-.1.3 0 .4-.1.2-.1.3-.3.4-.5v-.2c0-.1.1-.2.1-.3 0-.1-.1-.1-.1-.2v-.3c0-.2 0-.4-.1-.5-.4-.7-1.2-.9-2-.8 0 .1-.2.2-.3.2-.2.1-.1.2-.3.3-.1 0-.2.1-.2.2v.1c-.1.1-.1 0 0 0M.5-2.8v.2c-.1.1-.1.1-.2.1 0 .1-.1.3-.1.4-.2.1 0 .2 0 .3v.2c0 .1 0 .3.1.4 0 .2.2.4.4.5.2.2.3.6.6.7.2 0 .4-.1.5-.1.2 0 .4 0 .6-.1.2-.1.1-.3.3-.5.1-.1.3 0 .4-.1.2 0 .3-.2.4-.4v-.2c0-.1.1-.2.1-.3 0-.1-.1-.1-.1-.2v-.3c0-.2 0-.4-.1-.5-.4-.7-1.2-.9-2-.8-.1 0-.2.1-.4.1-.1.1-.1.2-.3.3-.1 0-.2.1-.2.2v.1c0 .1 0 0 0 0"/></g></pattern><g id="Layer_1"><g id="XMLID_1_"><path d="M351.6 132.9c.2.6-.5.5-1.1.5.1-.2.4-.3.4-.5h.7z"/><path d="M222.3 137.1c-.4 0-.3 0 0 0zm0 0H222.5h-.2zm108.4-41.7s-.1-.1-.3-.2c-.2-.2-.8-1.5-1.1-.8 1.1-.1-.9.8.4.8-.1-.6.9.1 1 .2zm0 0zm-22.6 17.8c-.2.2-.5.4-.7.6.2.5.6-.2.7-.6zm-66 25.2zm59.5-15.9c-.4 1-1.1.1-1.1 1.3-1.4-.4-.6.2-1.8.3v-.8c-.4 0-.3.5-.4.8-.8.1-.4-.8-1.1-.8-1.2.9-1.5.6-3.3.8v-1c-.3.8-1.4.9-2.6 1 .2-1.3.8-2.3.7-3.7h1.8c.4-1.2-1.6-.6-1.1-1.8.3-.8 2.1-.6 1.5-2.1h1.1c0-.8-1.3-.6-1.1-1.6.4.2.4.6 1.1.5-.1-.6 1.6-1.5.7-2.6 1 .2.8 0 1.5.8.8 0 .2-1.1.4-1.6-.6 1.4-1.8-1.8 0-1.3-.1-.9-1 0-1.1-.5 1.1-.6-.5-1.7 1.5-1.8-1.4 0 .1-1.9-.7-1.3.5-5.3 7-7.6 18.3-6.6 1.5.9 2.5 2.2 3.7 3.4-.3.2-.2.7-.7.8 1.2 1.3.2 1.8 1.5 2.9-.7 1.3.1 2.4 0 4.5-.6-1.1-.7-2.5-1.1-3.7-1.1 1.5 1.8 3.4-.4 5 .2.6.6-.3 1.1.3-.4.8 0 .6 0 1.6-.5.1-.9.4-1.5.5 1.2 1.6.4 1.8 1.1 3.1-1.1-.7 0 2-.7 2.9-.5-.1-.3-.7-.4-1.1-1 .3.1 1.1 0 1.6.3-.1.7-.2.7-.5.7 1.2-.2 2.1-1.1 2.7v.1c-.3.2-.5.3-.7.5.6.1.7-.2.7-.5.5 1-.7 3-1.5 3.9.7.3.8.7 0 1 .1.3.4.1.4 0 1 .4-.2 1.4-1.1 1.3.8.6-.2 1.2-.7 1.6.1.3.6.7.7.3.9.3-.3 1.2-1.1 1-.1-.4.3-.5.4-.8-.8.2-.9.9-1.5 1.3.5.1.9-1 1.1-.3-1 1.4-1.9 2.7-2.2 3.7-1.7.1-3 2.3-5.8 2.4.1.3.7.2 1.1.3-1.3.8-2.2.7-2.6 1.8-2.4 0-4.9-.3-7.7-.5-4.2-.4-7.2-1.3-10.2-2.4-2-.7-3.7-1-5.5-2.1-1.7-1.1-4.1-2.8-5.8-4.2-1.6-1.2-2.4-2.9-4.7-3.9-2.1-4.3-6.6-8.2-6.6-13.1-.4-.4-.6-.8-1.1-1.1 1 0 .6-.5.4-1.6 2.1 1.1-.3-2 .7-3.2.1-.1.2-.2.4-.2-.2-.4-.4 0-.4.2-1.8-.8-.7-5.8-2.2-6.6-.8 0-.2-1.1-.4-1.6-.8.2-.1 1.5-.4 2.1-.5-.3-.7-.9-.7-1.6-.3-.8.9-.5 1.1-1-1.9.9-.9-3-.4-4.2 1.7 1.3.3-3.4 2.6-3.4 0-.6-.6-.8-.4-1.6 1.9-.7 1.2-3.4 3.6-3.7-.3-.9 1.6-1.6.7-2.1 1.6-.7 1.7-1.6 3.3-1.8.2-1.2 1-3 2.6-2.4-.7-.5.2-.8.4-1.3-2.1-.3-1.6 1.3-3.3 1.3.6-1.1 2.6-1.1 2.6-2.6 2.1-.6 2.8-1.3 6.2-2.4 12.1-3.9 31.7-4.7 43.5 0 3.7 1.5 8.3 4.3 9.9 6 .4.4.2.4 0 .8h1.1c1.3 2.2 5 4.1 5.1 6.3.1.2.4.3.4.5.5-1.2 2.4 2.1 1.8 2.9.6.1 3.7 2.9 2.2 3.7 2.5.4 2.7 4.3 4.4 6-.2.7-1.2 0-.7-.5-.8.8-.5 1.3-1.1 2.6-1.1 0-.6-.4-2.2-.5.7.9 2.9.7 3.3 1.8 1-.5-.9-1.3-.7-2.1 1.1.5 1.3 1.7 1.8 2.6-.4.4-2.6-.2-2.2-1.3-1.1.3.4.9 0 1.6-.5-.4-1.6-2-2.2-.8-.9-.8-.6-1.6 0-2.4 1 .4 1.4.2 2.2-.5-.9-.4-1.4-.3-.7-1.3-.5-.4-.8-.1-1.8 0 .8-.8 1.1-.4 1.8-1 1.4-.4.1 1.1 1.1 1 1.2-.6-.8-1.2-.4-2.1-.3.2-.7.3-.7 0-1.1-.1.9.8-.4.8-2.1-.1-1.4-2.2-2.6-2.9-.7.4.5 1.2-1.1 1.3.3.3 1.1 0 1.8.5.1 1.2.8 2.2-1.1 2.4.1-.3-.1-.5-.4-.5 0-.9.5-.1 1.5-.5-.3-1-1.1.1-1.8-.5-.7-1.6-1.9-2.8-2.6-4.5 1.2 3.4 4 8.2 5.1 11.8 1.1-.2-.5-.7 0-1.3 1.5.4.8 1.1 2.6 1-1.9 1.2.6.4.4 1.8-.9-.5-2-1.3-2.6-1.3-1.4.6.2.8 0 1.8.9.1-.2-1.2 1.1-.8-.3 1 .6 1.2 1.8 1-1.8 1 1.5 1.3-.4 2.1.4 0 .7.1.7.3.5-.1.3-.7.4-1 .6.3.4 1.1.7 1.6-.9-.5-1.4.4-1.5-.5-1.1.5.9 1.8-.7 2.1 0 .7 1-.6.7.5.6 0 .9-.2 1.1-.5.2.3 1 1 .7 2.4-.4-.5-.7-1-1.1-1.6-.9 0-.6 1-1.1 1.3-.7-.1-.7-.7-1.5-.8-.1.4.6.7 0 .8.1.5 1.6.1 1.5.8.3-.4 1.2-.4 1.1-1 .6-.2.6 1.2 0 1 .1.6 1.1-.4 1.5-.5.5.7-1.3 1.2-1.8 1.6.1.2 1.4.9 1.5.3.8 0 .2.9.4 1.3-.4 0-.3-.5-.4-.8-2.4.9-.9 1.4-1.1 3.7.6-1.1 1.1.8 1.1-.8.7 0 .2.8.3 1.2-.3-.5-2.5.8-2.5.6-.2.4 1 .5.7.3.9 1 .6 3.1-.4 3.9.6 0 .5.5 1.8.5-.4 1.2 1.7 1.5.7 2.4-1.4.3-.6-1-1.8-.8.2-.3.8-.3.7-.8-.1-.4-.6.2-.7-.3-.5.1-.3.7-.4 1-.5-.1-.7-1.1-.7 0-1 .2.3-1.2-.7-1-.8 0-.2.9-.4 1.3 1 .8 2.3 1 2.9.8 1.1.6-.4 2.1 1.8 2.1-.7.5-.7.2 0 .8.1 1-.3.1-1.1.3.4.1 1.5 1.1 0 1 1.1.4-.1.9 1.1 1.3-.2 2.2-2.1 2.4-1.5 4.2-.6.1-.3.8-1.5.5 1.1 3.2-3 5.6-2.6 8.4h-.7c.3 1.6-.4 2.2 0 4.2-1.1.2-1.9 1.9-1.5 2.4-.2.4-.3 0-.7 0 .7.9-1.2 1.9-2.6 3.4-1.2 1.4-1.9 2.9-3.3 4.2-.3.3-1.2.5-1.5.8-2.4 2.4-4.2 4.9-6.9 6.8-1.4.9-3.9 1.4-3.7 2.6-.5-.1 0-.2 0-.5-1.7 1-4.3 1.5-5.8 2.6-9.2 2.2-17.9 2.5-28.5.8-3.9-.6-7.7-1.6-11-2.6-1.4-.4-3-.7-3.7-1-.6-.3-1-1.1-1.8-1.6-1.6-.9-3.8-1.5-5.1-2.4-5-3.4-10.1-7.7-14.2-12.3-2.5-2.8-5.2-5.7-6.6-8.1-.2-.3.2-.8 0-1.1-.5-.8-1.2-3.1-2.9-4.2-.4-2.8-3.4-3.9-4.4-6.3-.4 7 .3 15.3-2.2 22.5-4.9-.4-8.9.2-15.7-.8-2.1.8-4.1 1.6-5.8 2.6 0-1.9 5-2.6 6.2-4.5-1.1-11.8-1.6-24.1-4.4-34.6-3.6-3-7.2-6.6-12.4-8.9-1.6-.7-4.2-.8-5.1-2.4 4.9.6 8.6 2 11.3 4.2-1.2.2-1.1-.4-1.8-.5 1.9 2.1 6.1 4.7 8.8 7.1-2-13.2-5.9-24.9-11.7-35.9 5.2-.7 9.9-2.9 15.3-2.6 4.6 9.8 8.8 19.9 10.6 31.7 1.7.3 1.4-.7 2.9-.5 10.7 7.2 15 19.1 23 28.3.2.8-.8 1 0 1.6.5-.1-.1-.3 0-.8 1.1.1.7 1.2 1.5 1.6-.2-.1-2 1-1.1 0-.6.1-.8.5-.7 1.1h.7c-.5.4.5 1.2 1.1 1.6-.2-.7-.5-1.2-1.1-1.6.5 0 1-.1 1.1-.5.8-.1.4.8 1.1.8-.8.8-1.1.3-.4 1.8-.6-.6-.6-.2-1.5-.5.4 1.5 2 .7 2.6 1.3.3.3.1.7.4 1 .6.8 1.8 1.3 2.2 2.9-.5-.1-.6-.5-1.1-.5.3 1.2 1 .8 2.2 1 .1.7-1.4.2-1.1 1 .2.2.3.5.7.5 1.1-.2-.3-.6 0-1 1.2.8 1.9 2 2.6 3.1-1.1-.2-.7-1.4-1.8-1.6-.3 1.3 2.9 2.1 3.7 2.4.6.5.3 1.7 1.1 2.1.5-.1-.1-.3 0-.8 3.9 3.7 8.2 7 12.4 10.5-.3-.1-.4-.3-.7-.3 2.7.9 5.9 3.4 9.1 4.7 1.9 0 4.3 0 6.2-.3 21.6-3.4 34.8-23.9 38-42.2 1.3-7.5 1.5-16.3-.7-24.1-3.9-13.2-18.2-28.7-36.5-32-5.3-.9-13.1 4.2-15.7 6.8-10.8 11-6.7 30.3.7 41.7 1 1.6 3 2.9 3.3 4.7-1.1-.9-1.7-.8-3.3-1 .4.7 2.9 1.3 3.3 1 .6.4.9.9 1.1 1.6-.5-.4-1.9-.5-1.1-1-.9 0-.5 1.2-1.5.5.3.9.7.1 1.8.3.4.8.2.7-.4 1.3 1.5-1 1.8 1.4 2.6.8 1.1.7-.8.4-1.1 0 0 .6.7.8 0 1.3 2.4-.3 1-.7 1.8.8.3-.1.6-.3 1.1-.3-.2-.2-.3-.5-.7-.5 1.7.3 2.4 2.2 4.7 3.1 13.4-3.4 22.2-18.1 16.1-30.7-1.8 1.6-2.3 4.1-3.9 5.8h-.1v.2l.2-.2c.8.2-.4.8-.1 1.3-.8.1-1.4 0-1.8-.3.2.2.4.5 0 .5.1.7.6-.4 1.5 0-.5 1.4-.9 3.7-2.2 3.7-.1.5.3.5.4.3.5.5-.5 2.2-.7 3.1 0 .7-.4.4-.4 0 .4-.6.2-1.6.7-2.1-1.4-.1-.5.9-.7 1.3-.6 1-2.3 1.5-2.6 2.6-.6.1-.8-.3-.7-.8zm-60 15s0 .1.1.1l-.1-.1zm107.4-4.6v-.5h-.7v.5h.7zm-.3.5c-1.2-.7-1.1 1 0 0zm-1.8-.2c1.8-.4.5-1.3 0 0zm.3 11.5v-.5h-.7v.5h.7zm-.3-24.6c-.6-.1.3-.8-.7-1-.3.5 0 1.9.7 1zm-1.1-7.6c-.5-.8 1.2-.2.7-1-.6 0-1.1-.1-1.5-.3 0 .6 0 1.2.8 1.3zm.7 24.6v-.5h-.7v.5h.7zm-.7-22.5c-.5.3-.3 1.1.7 1.1-.1-.6-.3-1-.7-1.1zm-.8-1.1c.5 0 .5.3 1.1.3-.1-.5-.2-.9-.7-1.1-.7 0-1.6 1.8-.7 1.3 0-.2 0-.5.3-.5zm.4-14.4v-.8c-.4 0-1 0-1.1.3.4.1.2.3 0 .5h1.1zm-2.2 12.6c-.4-.7 2.1-.7.7-1.3.1.5-1.8.9-.7 1.3zm.7 3.7v-.5h-.7v.5h.7zm-1.1-4.5c0-.3.3-.3.4-.5-.5 0-.5-.3-1.1-.3v.8h.7zm-.3-2.9c.1-.7-.8-.6-1.1-1-.1.6.5.8 1.1 1zm-.4 6.6c-1 1.3 1.3 1 0 0zm0-9.5c.5-.3.2-.8-.4-1 .1.4-.1 1 .4 1zm-.7-.5c-1.1-.1-1.3.9-2.2-.5-.1 1 .1 1.8 1.1 2.1-.5-1.3 1.1-.3 1.1-.8-1.1-.3-.5-.4 0-.8zm-.4 5c.1-.3.7-.6 0-.8 0 .3-.6.6 0 .8zm0-1.1c-.2-.5.5-1.6-.7-1.3-.1.7.2 1.1.7 1.3zm-1.4 3.7c-.1-.4.1-1-.4-1-.5.3-.5.9.4 1zm-.4-5.5c-.1-.5.4-1.3-.7-1 0 .4.2.8.7 1zm-.7-5.8c.9.4 1.1-.9.4-.8 0 .2-.1.3-.4.3v.5zm.3 7.9c0-.4 0-.9-.7-.8v.5c.4 0 .4.3.7.3zm0-6c-.6-1.2-.8-2.6-1.8-3.4.7 1.6.5 2.5 1.8 3.4zm-1.4 2.3c-1 1 1.3 1.2 0 0zm-.8-1.8c-.6.4-.4 1.4.7 1.3-.1-.5-.1-1.1-.7-1.3zm0-.5c.3-.7-.8-.5-1.1-.8-.2.7.8.5 1.1.8zm.4-3.7c-.1-.5-.2-.9-.7-1 0 .4-.2.6-.4.8.5-.1.8.1 1.1.2zm-1.5 0c-.1.4.6 1.4.7.8-.1-.3-.3-.6-.7-.8zm-1.1 4.7c.3.5 1.9.1.7-.3 0 .2-.1.3-.4.3.1-.1-.2-.3-.3 0zm0-3.6c.9.4 1.1-.9.4-.8 0 .2-.1.3-.4.3v.5zM333 97c.6 1.5 1.8.6 0 0zm.3-.5c-.4 0-.7-1.1-1.1-.3.6-.1.9 1 1.1.3zm-1.4-5.5h-.7c-.2 0-.4 0-.4.3.5 0 .7 1.3 1.1.5-.6-.1-.3-.6 0-.8zm-2.2 2.3c1.1-.4 1 1.3 1.5.5-.3-.5-1.1-1.5-1.5-.5zm-1.8-3.1c.4 1.6 1.7.6 0 0zm-31.1 24.6c0-.2.1-.3.4-.3 0-.3-.1-.6-.7-.5 0 .4-.1.8.3.8zm-1.1 2.9c-.3-.7 1.1-1.4 0-1.8 0 .7-.2 1.3-.7 1.6-.1-.2 0-.5-.4-.5 0 .5.3.8 1.1.7zm-1.4 3.9c.4-.1.3-2.5 0-.8-.4 0-.4.2-.7.3-.5 0-.3-.5-.7-.5-.3.2-.8 1.5 0 1.6-.5-1.1.9-.9 1.4-.6zm-10.2 6.9c1.1.1 1-.9 1.8-.3 0-.9-1.2-.9-1.1-1.8-.7 0-1.2.2-1.5.5 1.2-.2 1.2.5 1.8.8-.5.1-.6.4-1.1.5-.1-.2 0-.5-.4-.5.1.3.3.6.5.8zm-18.3-16.8c-.6-2.4-1.2.3 0 0zm-1.1-3.4c.1-.2-.1-1.5-.4-.8-.3 1 .2 1.3.4.8zm0-2.6c-1 .1.3-1.4-.7-1.3-.8.2.1 2.1.7 1.3zm-.7 47.4c.2-.8-1-1-1.1-.3.5 0 .8.2 1.1.3zm-1.9-1.3c.5 0 .8.1 1.1.3-.2-.7-.5-1.2-1.1-1.6v1.3zm0-52.2c.3-.2 1-1.8-.4-1.6.3.5-.4 1.6.4 1.6zm-4.3 45.1c-.4.5.6 1.3.7.5-.5 0-.3-.4-.7-.5zm-.4-.5c.1-.7-.6-.8-1.1-1-.1.6.6.8 1.1 1zm-35.1-2.4c-.1.7 1.9 1 1.8.3-.5-.1-.6-.4-1.1-.5 0 .2-.2.3-.7.2zm1.1-1.8c.2 0 .4 0 .4-.3-.5 0-.3-.5-.7-.5 0 .4-.2.6-.4.8h.7zm-2.9-21c-.7.6.2.6.4 0-.3-.8-1.2-.8-.4 0zm-1.8-7.1c-.3 1.6 1.7.2 0 0zM350.5 28.3c-.2 1.3-.8-.6-1.8-.3-.3.8.6.8.4 1.6-1.3 1-4.7.4-5.8-.3 3.6 9 2.4 21.6-4 27.8 0 .9 1.2.9 1.1 1.8 0 1.4-2.7 2.5-4 1.3-2.6 2.1-8.3 2.1-13.1 1-1.6-.4-3.1-1.3-4.7-1.6-5.3-.9-10.5-3.3-11.7-5.8.8-.1-.1-1.6 1.1-.8.1-.9-.7-1.3-.7-2.1 1.2-.2 1.3.4 1.5 1 .4-.7.4-1.8 0-2.9.5.1.6.5 1.1.5-.2-2-1.2-4 0-5.5 1-.2-.3 1.2.7 1 1.1-.2-.4-.6 0-1 2.1-.4 1.5-2.8 2.2-4.2.1-.3 1-.4 1.1-.5.3-.5-.5-1.8.7-1 .2-2.4 1.5-4.1 2.9-5-.8-.9.5-2.2 1.5-2.6-.3-1-1.7.1-2.2.5-.2-1.2 2.7-2.4 3.7-3.7-.6-.7-2.6-.1-2.9.3-.6-.1 1.1-.8 1.1-1.3-1.3.1.5-.8-1.5-.8 1.7-2 7.2-2.3 11.7-2.4 8.3.3 17.8 1.8 21.6 5zm-12.4 7.4c-.2-1.9.4-3.3.7-5-1.4-.8-2.3-2.1-4.4-1.8-7.1 1-16.2 8.1-17.2 15.5-.7 5.4 1.7 8.7 4.7 11.5 3.9-2.7 5.9-6.7 7.7-11 .1.3-.1.7.4.8v-.8c.8-.1.4.8 1.1.8 1.3-.9.6-3.3 1.8-4.2-.2.9-.9 2.8 0 3.7-.1-1.3.1-1.4.7-.5 0-1.7 1.1-2.7 1.1-4.5h1.5c.9-1.8-.2-5.8 1.9-4.5z"/><path d="M349.4 127.9c1-.2-.3 1.2.7 1.1-.6.9-1.6-.7-.7-1.1zM348.7 124.3c1.7-.5 1.1 1.6 1.1 2.9-.3.4-.7-1.2-1.1-1.6.8-.4.4-.7 0-1.3zM349.7 123.9c.1.1.1.1 0 0 .1.1.1.1 0 0zM349.4 120.9c1 .2-.1 2.7 0 .8 0-.3-.4-.2-.7-.3.1-.3.7-.2.7-.5zM348.7 109.1c.8 0 .8.7.7 1.3-.5-.2-.8-.7-.7-1.3zM349 132.4v.5h-.7v-.5h.7zM348.7 108v.5c-1 .1-1.8.1-1.5-.8.5.7 1.1-.4 1.5.3zM347.6 109.6c.8-1 .8.8.7 1.3-.6-.1-.3-.8-1.5-.5 0-.4 1.9-.5.8-.8zM348.7 133.4c-1.1 1-1.2-.7 0 0zM346.9 133.2c.5-1.3 1.8-.4 0 0zM347.2 144.2v.5h-.7v-.5h.7zM346.1 119c1.1.2.1 1 .7 1-.6 1-.9-.4-.7-1zM346.5 111.4c.4.8-1.2.2-.7 1-.8 0-.8-.7-.7-1.3.3.3.8.3 1.4.3zM346.5 136.6v.5h-.7v-.5h.7zM346.5 115.6c-1 0-1.2-.7-.7-1.1.4.2.6.6.7 1.1zM346.1 113.8c-.6.1-.6-.2-1.1-.3-.4 0-.3.3-.4.5-.9.5.1-1.3.7-1.3.6.2.8.6.8 1.1zM345.4 98.3v.8h-1.1c.2-.2.4-.5 0-.5.1-.3.7-.2 1.1-.3zM343.6 103.3c.9-.1 1.4-.4 1.5.5-.3-.2-1.3-.6-1.1.3-1.3.2-1.3-.9-.7-1.3.3 0 .2.3.3.5zM344.7 95.4c-.6.7-.8-1-1.5-1 .6-.7 1 .8 1.5 1zM343.9 110.4c1.3.6-1.1.6-.7 1.3-1.1-.4.8-.8.7-1.3zM343.9 114.8v.5h-.7v-.5h.7zM344.3 80.5c-.5 1-.3 2.4-1.1 3.1h-2.9c-3.9-1.7 1-5.7 4-3.1zM343.2 77.6c-.1.2-.4.3-.4.5h-.7v-.8c.6 0 .6.3 1.1.3zM343.2 110.4c-.1.2-.4.3-.4.5h-.7v-.8c.6-.1.6.3 1.1.3zM341.4 107c.3.4 1.2.4 1.1 1-.6-.2-1.2-.4-1.1-1zM342.1 114.6c1.3 1-1 1.3 0 0zM341.7 104.1c.6.3.8.7.4 1-.5 0-.3-.6-.4-1zM339.2 104.1c.9 1.4 1.1.4 2.2.5-.5.4-1.1.5 0 .8 0 .5-1.6-.6-1.1.8-1-.3-1.2-1.1-1.1-2.1zM341 108.8c.7.2.1.5 0 .8-.6-.2 0-.5 0-.8zM340.3 107.2c1.2-.3.6.8.7 1.3-.5-.2-.8-.6-.7-1.3zM339.2 111.2c.5.1.3.7.4 1-.9-.1-.9-.7-.4-1zM338.5 105.7c1.1-.3.6.6.7 1-.5-.2-.7-.6-.7-1zM338.8 100.2c.7-.1.5 1.2-.4.8v-.5c.4 0 .4-.2.4-.3z"/><path d="M338.5 82.3v1c-1.5.3-1.5-1.2 0-1zM338.1 108c.8-.1.7.4.7.8-.3-.1-.4-.3-.7-.3v-.5zM337 99.4c1 .8 1.3 2.2 1.8 3.4-1.3-.9-1.1-1.8-1.8-3.4zM337.4 105.1c1.3 1.2-1 1 0 0zM337.4 104.6c-1.1.1-1.3-.9-.7-1.3.5.2.5.8.7 1.3zM335.5 102c.3.3 1.3.1 1.1.8-.3-.3-1.3-.1-1.1-.8zM336.3 98.1c.5.2.7.6.7 1-.3-.1-.6-.3-1.1-.3.2-.2.4-.4.4-.7zM336.6 70.8c-.2.2-.4.4-.4.8-1 .1-1.6-.1-1.5-.8.6-.4 1.5-.4 1.9 0zM336.3 99.9c-.2.7-.8-.4-.7-.8.3.2.5.5.7.8zM335.5 76.3c1 3-3.8 3.6-5.5 1.8-1.1-2.8 2.8-3.5 5.1-2.4 0 .4.1.5.4.6zM335.2 103.6c1.1.3-.4.8-.7.3.1-.3.4-.1.4 0 .2 0 .2-.2.3-.3zM334.8 99.4c.7-.1.5 1.2-.4.8v-.5c.3 0 .4-.2.4-.3zM334.1 22.5v.5h-.7v-.5h.7zM333 97c1.8.6.6 1.5 0 0zM332.2 96.2c.4-.9.7.3 1.1.3-.2.7-.5-.4-1.1-.3zM331.2 91h.7c-.3.2-.6.7 0 .8-.4.8-.6-.6-1.1-.5-.1-.3.1-.3.4-.3zM331.2 93.9c-.4.8-.3-1-1.5-.5.4-1.1 1.2-.1 1.5.5zM330.7 95.4zM330.4 95.2c.2.1.2.2.3.2-.1-.1-1.1-.7-1-.2-1.3 0 .8-.9-.4-.8.4-.7.9.5 1.1.8zM327.9 90.2c1.7.6.4 1.6 0 0zM318 135.5c-.9-.5.9-1.2 2.2-1-.1.8-1.7.5-2.2 1zM320.6 135.8c-1.2 1.3-3.5 1.9-6.2 2.1 1.1-1.3 3.9-1.6 6.2-2.1zM318 124.3zM320.9 141.3c-1.5 1.2-4.9 1-7.7 1.3.9-1.6 5.4-.7 7.7-1.3zM318 124.3c0 .3-.1.5-.7.5.2-.1.4-.3.7-.5zM316.2 139.5c.1-.5.6-.6 1.5-.5-.3.3-.8.4-1.5.5zM310.3 139.5c.8-.3 4.7-2.8 2.2-1.1-.5.4-.7 1-2.2 1.1zM308.2 113h.1l-.2.2c.1-.1.1-.1.1-.2zM304.5 28.6c1.9.3 4.6.5 5.1 2.1-1.7 1-3.8.3-5.8.5-5 .5-12.5 2.5-19.7 2.4.7 5.6-.1 13.6 1.1 19.7 4.2-3.6 5.6-9.2 10.6-12.3 0 .9 0 1.7 1.5 1.6-.7 2 .6 1.9 1.1 2.9.4.4 1.5-.7 1.8-.5.9.1-.4.7-.4 1 .6 0 1.7-1 3.3-.5 0 .5-.4.6-.4 1 1.5-.9 1.1-.3 1.5.8 1 .1.3-1 1.5-.8.1 3.2-2.6 6-4.4 8.9-1.3 2.1-2 3.2-3.7 5-2.7 2.8-5.7 6.1-9.1 8.7-1 .1-1.6.6-2.6.8-1-.1.3 1.4-.7 1.3-2.2-.2-2.5-1.7-2.9-3.1 7.5 3.3 9.9-4.1 13.9-6.6-1.7.3-3.4 2.8-6.2 3.1-3-.4-7.7-3.1-10.2-1.3.2 1 1.7-.6 1.8.3-.9 2.8-7.3 1.3-8.8 0-.4 0-.3.5-.4.8-.6-.2-.7-.9-1.1-1.3-1.3.6-1.9.2-3.3.5.9 1.1 1.6 3.5 1.1 4.7-2.1-.6-4-2.7-3.3-4.5-3.3-.2-5.5 1.1-9.9.5-3.4-4.1-5.9-8.9-8.8-13.4-1.3 1.3-1 2.9-1.5 4.2-1 2.6-2.4 4.8-4.4 6.8-1.5 1.5-2.8 3.3-5.5 3.9-4.3 1-13.4-.2-17.9.5-1.1.2.8.4.4 1-1.4.3-.9-.8-1.8-.8-.5.1.1.3 0 .8-4.8-1.9-8.8-6.1-12.4-9.2-3.3-2.9-5.7-6-9.5-8.4 0-1.4-1.5-2-2.6-2.9-1.2-1-1-1.6-2.2-2.9-.6-.6-1.6-1-2.2-1.6-.6-.6-.9-1.3-1.5-1.8-1.6-1.5-3.3-3.1-5.5-4.7.3 3.5.8 7 2.6 9.4-.4 1.1-1.1 2-1.8 2.9.6 2.4.3 5.3-.4 7.6-.7-.4-3.2-.9-4.4 0-1.3-.4-3.8-1-4 .3-3-.2-5-.2-7.3 0-.7-5.4-1.2-11-1.8-16.5-.3-.8-1.3-1.1-1.8-1.8-.2-1.5.2-2.7 1.1-3.4-1-7.1-3.1-14.7-3.3-21.5 5.8-.2 9-2.3 15-2.4.7.9 1.1 2 1.1 3.4 0 .8 1.7.3 2.2.8 12.8 11.5 23.8 23.9 36.5 36.4 1.9 1.9 3.1 3.4 5.8 5.8 1.5 1.3 6 5.3 6.6 5.2 2.7-.2.3-3.1 1.5-4.7-3.9-3.9-6.3-9.2-7.3-14.9-.5-3 .2-6.1-.7-8.7.1-1.3.2-1.2.7-2.4-.9 0-1.8 0-1.8.5-.5-.1 1.3-1.6-1.1-1.3 4.9-4.1 16.5-3.3 23-6.3 5.3 3.7 9.4 8.4 13.1 13.1 3.8 4.8 7.6 9.7 10.6 14.9 2 0 2.3-.3 3.3 1 .7-.1.7-.8 1.5-.3-1.1-6.7-.7-15-1.1-20.2-2-1.2-5.6-1.2-7.3-2.6-.3-1.3.4-1.8 1.1-2.4 1.7.6 3.4 1.2 5.8 1.3 1.4-9.9-1.8-22.9 4.7-29.1.6-.2 2.1.3 2.2-.3h3.7c-.3.4 1.7.4 1.5 0h1.5c2.7.7 5.5.9 7.3 1.6-.8 2.7-3.5 4.2-4 7.3-.9 6.1-.2 13.2-.7 19.7 6.8-.6 12.9-.6 20.4.4zm-25.2 33.3c-1 .2-2-.8-2.6 0 .7.5 2.3 1.3 2.6 0zm-5.8 1c0-.7-.2-1.3-.7-1.6-.3.3-.5.7-.4 1.3.5 0 .8.2 1.1.3zm-42.8-7.6c1.5-7.1 2.4-18.2-1.8-23.6-.8.1-1 .6-2.2.5-4.6 6.8-1.1 18.4 4 23.1zM307.4 113.8c.3-.2.5-.4.7-.6-.1.4-.5 1.1-.7.6zM297.2 114.6c-.3 0-.3.1-.4.3-.4 0-.3-.5-.4-.8.7-.1.8.2.8.5zM295.7 115.9c1.1.4-.3 1.1 0 1.8-.8 0-1.2-.2-1.1-.8.4 0 .3.3.4.5.5-.3.7-.8.7-1.5zM294.3 120.9c.3-1.7.4.6 0 .8-.5-.4-1.9-.5-1.5.5-.8-.1-.3-1.4 0-1.6.4.1.2.5.7.5.3 0 .4-.2.8-.2zM289.9 122.2c1.1.6-.3 1.5 0 2.4-.7-.4-.4-2.1 0-2.4zM287.7 130c-.4.2-2.9-.4-3.3-1 1.6.2 2.2.2 3.3 1zM285.2 127.7c-.6-.2-.6-1-1.8-.8.2-.4.8-.5 1.5-.5-.1.9 1.1 1 1.1 1.8-.9-.6-.7.4-1.8.3-.2-.2-.4-.4-.4-.8.4 0 .3.3.4.5.3-.1.4-.5 1-.5z"/><path d="M280 0c.3.4-1.7.4-1.5 0h1.5zM276.8 61.9c.6-.8 1.6.2 2.6 0-.4 1.3-2 .5-2.6 0zM274.2 65.8c-.4.3-.4 1-.7 1.3-1.1.1-1.4-.4-2.2-.5-.3-1 .9-.9 1.1-1.6.7.2 1.1.6 1.8.8zM272.7 61.3c.5.3.7.9.7 1.6-.3-.1-.6-.3-1.1-.3 0-.5.1-.9.4-1.3zM265.8 111.7c-1.2.3-.6-2.4 0 0zM264.7 109.8c0-.3.2-.6.4-.2-.2 0-.3.1-.4.2zM264.8 151.7zM264.3 107.5c.2-.7.4.6.4.8-.2.5-.7.2-.4-.8zM264.7 109.8c0 .1 0 0 0 0zM264 104.3c1-.1-.3 1.4.7 1.3-.6.9-1.5-1-.7-1.3zM264.3 150.9c0 .1 0 .1 0 0 0 .1 0 .1 0 0zM262.9 152.8c.1-.7 1.3-.6 1.1.3-.3-.1-.6-.3-1.1-.3zM262.5 148.7c.7.2 1 .7 1.1 1.3-.6-.3-1.3-.5-1.1-1.3zM262.5 105.4c-1 .8 1 1.1.4 2.4-1.2-.4.3-1.4-1.1-1.3.1-.5-.4-1.4.7-1.1zM262.1 94.9c1.8-.2-1.7 1.7 0 .3.1-.1 0-.3 0-.3zM263.2 152.1c-.3-.1-.6-.3-1.1-.3v-1.3c.6.4 1 .9 1.1 1.6zM262.1 104.1c.6-.2.6 1.2 0 1h-.7v-1c.3.1.7.3.7 0zM261.8 98.1c1.3-.2.7 1.4.4 1.6-.9-.1-.2-1.2-.4-1.6zM260 147.4c.6.4.9.9 1.1 1.6-.7-.5-1.6-1.2-1.1-1.6zM260 147.3s0 .1 0 0c0 .1 0 .1 0 0-.1.1 0 0 0 0zM258.5 145.2c-.2.7-1.2 0-.7-.5.4.1.2.5.7.5zM256.3 143.1c.5.2 1.2.4 1.1 1-.5-.1-1.2-.3-1.1-1zM242.1 138.4zM241.7 137.6c0-.1-.1-.1-.1-.1l.1.1zM224.2 142.1c0 .7-1.9.5-1.8-.3.4 0 .7-.1.7-.3.5.2.6.5 1.1.6zM223.8 139.7c.1.2-.1.2-.4.3h-.7c.2-.2.4-.4.4-.8.4.1.2.5.7.5zM222.7 137.1h-.1.1zM222.5 137.1h.1-.1zM222.5 137.1h-.1.1zM222.3 137.1c-.3 0-.4 0 0 0zM220.9 119c-.2.6-1.1.6-.4 0-.8-.8.1-.8.4 0zM218.7 111.9c1.7.2-.3 1.6 0 0zM86.8 101.9c.1 0 .1-.1.1-.2-.1-.3-.2-.1-.1.2zm0 0c-.2.1-.6.1-.6.3 1 .3 1.2 1 2.2 1.3.6-.4-.9-.6-1.5-1.3-.1 0-.1-.1-.1-.3zm80 15.7c0 .1 0 .1 0 0 0 .1 0 .1 0 0zm12.8 34.2c-.7.8-.9 2-1.5 2.9-.4 0-.3-.3-.4-.5-4 2.7-.6 5.9-7.3 6.6.7 1.5-2.4 2.2-4.9 1.3h.1-.2c-.2-.1-.4-.1-.5-.2 0 .2.3.2.5.2h.1c-2 .1-5.3 0-6.1 1.8-.6.1-.6-.2-1.1-.3-.8.1.4.4-.4.8-4.2-.2-4.9-2.8-7.3-4.2.8 1.2-.3 2.7 0 3.4.6 1.2 1.9.8 2.6 2.1-2.7-.6-6.1-.7-7.3-2.4 1.2-.2 1.7.2 2.6.3-.7-.8-3.1-.4-2.9-1.8-2.4 1.2-6.8 1.3-9.5.3 2-.6 5.7 0 7.3-.8 0-.9-1.5-.7-1.8-1.3-4.2 1.6-9.8.9-13.9-.3-2.1 2.7-2.8 6.7-6.9 7.9-3.1.9-7.1 1.3-11 1.8-1.4.2-2.8 1-4 1-7.7.4-10.4-5.2-15-7.3-.8 1.7-1.8 3.3-3.3 4.5-4.6.7-11 2-15.7 2.6-4.7.6-6-2.7-9.5-3.4 0-.7.6-.5 0-1.1-2.4-1.9-4.1-4.2-5.8-6.6.7-.4 2.1.9 2.6 1.6.8 0-2-2 0-1.3-.5-.8-1.3-.1-1.8-1 .6-.5 1.3.1 2.2.5-.5-1.1-1.7-1.8-1.8-3.1.7 1.3 2.3 2 2.9 3.4-.2-2.1-3.7-4.4-3.7-7.1.9.6 1.1.8.7 1.8.9-1.2 1.3.9 2.2 1.3-.1-.8-.2-2.8-1.5-3.9.3-.2 1.3-.1 1.8-.8-.2-1-1.6.3-1.8-.8-.3-.9.8-.4 1.1-.3-.1-1.3-2.1-2.4-1.1-3.7-.2-.6-.6.3-1.1-.3-.5-3-3.4-4.2-3.7-7.3-.8 0-.2 1.1-.4 1.6-.9-1.8-1.1-4.1-1.8-6-.6.6-.8 1.1-.7-.3-.4.2-.4.6-1.1.5v-1c-.4.2-.4.6-1.1.5.3-1.3-.5-1.8-1.1-1.8-.3-2.7 1.6-2.8 4.4-4.2 4.1-2 9.9-4.7 16.8-4.2 0 .7.7.8 0 1.3.3.4.9.6 1.8.5 6.8 5.7 12.1 12.3 18.3 18.4 6.1 6.1 12.2 12 19 17.6 2 .6 2.9 1.9 4.4 2.9 2.4-2.5 2.3-6.2 2.6-10.7-6.5-4.7-13.9-8.9-19-14.7.8-.2 1.8-.1 2.9.3-.4-.6-1.3-.8-2.6-.8 0-1.9-1.7-3.5-2.9-5.2 1.1 1.1 2.9 1.8 3.7 3.1.5-1.2-2.6-2-2.9-3.4 1.2.1.8 1.3 1.8 1-.6.2-3.5-3.9-4-3.7 1.7-2.2-3.1-4.2-4.4-6 .3-.7.8.6 1.5.5-.6-2.1-3.9-3.3-3.7-5.2-.6-.7-3.2-1.9-1.8-2.4-1.6-.4-1.1-1-1.5-1.8-.4 0-.2.3 0 .3-.3.6-1.7-.7-.7-1-2.2-1.2-2.7-3.2-4.4-5.2 0-.7.3-.3.7-.3-.3-.6-1.5-2.1-1.8-1.8-.6-1.6-2.3-2.9-1.8-3.9-2.6-1.6-2.7-4.6-4.4-7.3-2.1-1.6-2.4-2.8-5.1-2.9-.7 0-1.5.7-3.3.3.4-1.3 2.3-1.5 3.7-2.1 3.5-1.6 6.8-4.1 9.9-5.2 1-.4 3.6-.4 5.1 0 6.2 1.5 12.3 5.6 16.8 9.2 7.7 6.1 16 15.6 21.5 23.9 5.4 8.2 9.9 19.2 11 30.7 3.2 1 8.5 5.7 11.7 6-.1 0 1.4-.4 1.1-.3 2.3-1.1.4-3.3.7-5.8-.9 6.3-1-1.9-1.1-3.9-.1-.3-.7-.2-.7-.5-1.1-6.7-.9-14.4-3.7-20.2-.4-.9-1.5-1.5-1.1-3.1 4-.9 9.3-3.5 14.2-3.1 1.7 1.8 1.7 4.7 2.9 6.8.2.6-.7.4-.7.8.5.1.6.2 1.1.8-.3 3.6 2.9 8 4.7 12.1 1.3 2.8 2.3 5.7 3.7 8.4.7 1.4 1.7 2.2 1.8 4.2 1.9-.9 1.2-3 1.8-4.5 2.2-5.2 2-13.8 1.5-21 .4 0 .3.5.4.8 1.7-1.6.7-4.8-.7-6.3.2-.4.3 0 .7 0 .2-1.2-.5-.3-1.1-.8.1-.3-.1-1.6-.4-.8-.5 0 .4-1.7 1-1.1-.2-.2-.3-.6-.3-1 3.3-1.3 5.4-3.4 9.1-4.7.2-.1 1.4-.5 1.5-.5.2 0 .8.5.7.5 4.2-1.5 5.8-5.7 11.7-5.5-.2.9 2.2 1.7 0 1.8 1.3.8.8 1.5 2.6 2.1 0 .3-.4.2-.7.3 5.3 4.6 11.3 8.9 14.6 14.9 1.2.4 2.1.9 1.8 2.4 1.2.6 1.8 1.7 2.2 2.9 2.1.7 2.6 2.5 2.9 4.5.8 0 .2-.9.4-1.3.5 0 .5 1.6.7.3.3 2 3.5 3.5 2.6 5.5.4.7.9 1.3 1.5 1.8 2.1 5-1.8 14.1-9.9 15.2-4.1.6-9.6.6-13.5.3-.2.3-.5 1.5 0 2.4 1.5-.2 1.5-.2 2.9 0 .1.9-1.9 1-2.6.5 0 1.3 1.4 3 .4 4.2 1.6.5 2 5.7 2.9 9.4.8 3.4 1.7 6.5 2.6 8.9-.8 1.5.6 1.6 0 3.1 1.3 2 2.6 3.9 4 5.8-2.4.3-9.3.6-11.3-.3-.3.7-3.6.3-3.7-.8-.6.1-.3.8-1.5.5-4.8-7.7-5.3-18.4-8-27.5.5.3.7.7 1.1 1 .4-.1.1-1 .7-1.6-.6.1-.8.5-.7 1-.7-.3-.3-1.4-.7-1.8h1.1c-1-.5-.5-2.1-1.1-2.9 2.1-2.3-.4-3.8-1.8-4.7 1.9-.2 1.7 1.1 2.9 1.3-.7-.5 1.2-2.5.4-3.9-1.1.2.2.8 0 1.3-1.1.2-.4-.9-1.8-.5.9.7.6.7 1.1 1.8-2.1.4-.8-1.1-.7-1.1-.3-.8-1.8-.9-1.2-1.9zm25.6-7.6c1.3-.1.5-1.3 1.5-1-1.1-.9-.5-1.9-.7-2.4-1.6.8-.6 1.9-1.8 2.6.1-6.2-.5-11.1-2.6-15.5-3-6.5-8.9-12.4-18.3-13.6-3.1 7.9 1.1 14.8 3.7 21.5.4 1 .3 2.1.7 3.1.9 2.2 2.7 4.1 4.4 6 3 3.5 5.5 6.3 10.2 7.6.4-.1.9-.4.4-.5 0 .2-.1.3-.4.3.3-1.2 1.4 0 .7-1.3.6.3 2.5-1.8 2.2-2.1 0 .3-.5.2-.4-.3 1.3 0 0-.5 1.1-.8-1.6-.5 1.6-2.4-.7-3.6zM199 184c-1 2.5 1.5.2 0 0zm-2.6 3.7c.8.2 1.6-.7.7-.8-.1.9-1-.9-1.1 0 .5.1.5.4.4.8zm.8-3.9c.4-1-2-.6-1.8 0 .8 0 1.1-.5 1.8 0zm-.8-4.5c1.9-.6-1.2-.6 0 0zm-1.8 4.5c.9-.6-1.2-.7-1.1-.3 0 0 1.2.2 1.1.3zm-1.5-5c0-.2.1-.3.4-.3 0-.3-.1-.6-.7-.5 0 .3-.1.8.3.8zm-.3-9.2c1.2.8 1.1-.9 0 0zm-1.5 4.2c.1.6 1.2.7 1.1.3 0-.2-1.2-.9-1.1-.3zm-2.2-11.5c-.1-.5.4-1.3-.7-1.1-.1.6.1 1 .7 1.1zm-1.1 2.3c1.2 1.4-.2-.9-.4 0 .1.1.4 0 .4 0zm0-13.1c0-.2.1-.3.4-.3 0-.3-.1-.6-.7-.5 0 .4-.1.8.3.8zm-1.8 14.7c-.3.5.3 1.6.7.8-.6 0-.2-.7-.7-.8zm-1.1-5.5c-.3-.5-.1-1.3-.7-1.6 0 .7-.2 1.6.7 1.6zm-2.2-4.7c.9 1.3 1-.9 0 0zm.4-.8c.1-.4-.2-1-.4-.5-.1.3.2 1 .4.5zm-1.8-3.7c.1-.2.9-1 0-1-.2 0-2.8.4-1.8 1 .6-1.2.8 1.3 1.1.3-.3-.4.7-1.1.7-.5-.2 0-.5.2 0 .2zm0-1.5c.1-.8-.1-1.3-.7-1.6-.1.7 0 1.3.7 1.6zm-34.4 10.5c2 .1 3-.4 2.9-1.8-1.4-.7-3.4.1-2.9 1.8zm-4-12.6c-.1-.3.1-.7-.4-.8-.1.2 0 .5-.4.5 0-.2-.1-.3-.4-.3.1.5.5.7 1.2.6zm-25.5-13.4c0-.5-.3-.7-.7-.8-.1.5.2.7.7.8zm-10.6-1.6c-.8.4-1.4-.7-1.5 0 .2.1 1.4.7 1.5 0zm-2.2-.2v-.5h-.7v.5h.7zm5.5 2.6c-3.6-10.5-11.2-18.2-17.9-26.5.2 0 .4-.2 0-.3-1.3-.4-2.5-3.3-4.7-3.9-.3-2.4-3.1-2.9-4.4-3.9.4 0 .4.2.7.3-3.4-2.2-6.7-4.6-10.6-6.6 3.2 8.5 10.1 15.2 16.4 21.8 6.4 6.6 13.3 12.9 20.5 19.1zm-12.1 27c-.6.1-1.1-1.2-1.5-.5.5 0 1 1.4 1.5.5zm-2.5.2c.8 0 1.4.5 1.8.3-1.8-1.4-3.8-1.9-4.4-3.1.1.7-1.2.6-1.5 0 2.5.3-.1-2.1-.4-1.3.4.1.2.3 0 .5.6 0 .9.2 1.1.5h-1.1c-.1 1.1 1.7 2.1 2.2 1.8-.3-.4-1.2-.4-1.1-1 1.2 1 2.8.8 2.9 1.8.3-.6 1.2.3.5.5zm-1.1 1.4c-1.1.8 1.3.8 0 0zM92.7 130c-.1.7 1.7 1.4 1.8 1-.4-.1-.2-.3 0-.5-.4-.2-1.3-.2-1.8-.5zm1.1 33.1c.4-1.1-1.5-.5-1.8-1 1.3-.4-.1-.5-.7-1.3.1 1.2.1 1.7 1.5 2.4 0 .3-.5.4 0 .5.1-.4.4-.6 1-.6zm-2.5-7.1c-.4 1.7 1.6 3 2.6 2.9-.6-.5-2.3-1.7-1.8-2.1-.1.9 1.7.2.7 0-.6.8-.3-1.2-1.5-.8zm.3-1.1c.1-.3.4-.2.7 0-.2-.6-1.2-1.9-1.8-1.3.9.1.4 1.2 1.1 1.3zm-7.3-54.2c.8.2 1 .9 1.8 1.1-.2-.5-1.3-1.7-1.8-1.1zm-1.1-.5c.1-.3.4-.2.7 0-.8-1.1-2.6-2.8-4-2.6 1.7.4 3.2 1.8 3.3 2.6zm-4.7-6.6c1.1.6 1.2.5.4-.3.2 0 .4 0 .4-.3-1.3-.4-.1.1-.8.6zm-.4-.3c.1-.5-.5-.5-.7-.8 1.2-.1-1.6-1.2-.4-.5 0 .3.5.4 0 .5-.3-.6-1.7-.3-1.8-1 .6-.1.9.4 1.1 0-.5 0-1.4-.9-1.5-.3.9.6-1.2-.1-1.5-.3 1.2 1.2 3.5 1.5 4.8 2.4zm-1.8.6c-.4.6 1.6.9 1.5.5-.8 0-.5-.7-1.5-.5zm-1.1 66c-.1 0 .4 1.7 1.1.5-1.8-11.1-7.8-19.3-15.3-26.2-.2.4-.4.5-.4 1 .5 9.4 8.2 19.4 14.6 24.7zM215.8 161.8c.3.9-.5 1.6-.7 2.4-.2.6.1 1.9-1.1 2.1.2-1.7.7-3.2 1.1-4.7.4-.1.6 0 .7.2z"/><path d="M210.7 166.5c.9.4-.6 1.3-.7 1.8-1-.4.6-1.2.7-1.8zM204.1 148.7c.1-.5.5.2.4.5-.2.5-.5-.2-.4-.5zM202.6 163.9c.2-.3.5-.5 1.1-.5-.1.3-.4.5-1.1.5zM199 184c1.5.2-1 2.5 0 0zM198.6 160.5c.3.9-1.4.4-2.2.5v-.5h2.2zM197.2 186.9c.9.1 0 1-.7.8 0-.4.1-.7-.4-.8.1-.9.9 1 1.1 0zM195.3 183.8c-.2-.6 2.2-1 1.8 0-.6-.5-.9 0-1.8 0zM196.4 179.3c-1.2-.6 1.9-.6 0 0zM193.5 183.5c-.1-.4 2-.4 1.1.3.1-.1-1.1-.3-1.1-.3zM193.5 178.5c-.3 0-.3.1-.4.3-.4 0-.3-.5-.4-.8.7-.1.8.2.8.5zM192.8 169.6c1.1-.9 1.2.8 0 0zM192.4 174.1c.1.4-1 .3-1.1-.3-.1-.6 1.1.1 1.1.3zM188.4 161.2c1.1-.3.6.6.7 1.1-.6-.1-.8-.5-.7-1.1zM187.7 164.6c.2-.9 1.5 1.4.4 0-.1 0-.4.1-.4 0zM188.4 151.3c-.3-.1-.3.1-.4.3-.4 0-.3-.5-.4-.8.7-.1.8.2.8.5zM186.9 167c-.4.8-1-.3-.7-.8.5.1.1.8.7.8zM184.4 159.1c.6.3.4 1.1.7 1.6-.9 0-.7-.9-.7-1.6zM182.9 156c1-.9.9 1.3 0 0zM182.9 154.7c.1-.5.5.2.4.5-.2.5-.5-.2-.4-.5zM181.5 150.5c.9 0 .1.9 0 1-.4 0-.2-.3 0-.3 0-.6-1 .1-.7.5-.3 1-.5-1.5-1.1-.3-1.1-.5 1.6-.9 1.8-.9zM180.7 148.4c.6.2.8.8.7 1.6-.6-.3-.7-.9-.7-1.6zM180 156c-.8-.6 1.1.4.7 1-.4 0-.6.1-.7.3-.8 0 .5-.7 0-1.3zM178.2 155.2h1.1c-1.1.4-.2.8-.7 1.3-.9.1-.2-.9-.4-1.3zM177.1 111.4zM170.9 63.2c2.9 2 6.7 3.6 5.8 7.6-2.7 4.4-19.9 1.9-19.7-3.4.1-3 5.9-3.2 8.8-3.4 2.1-.2 2.8-.6 5.1-.8zm-2.2 6.8c.9-1.3-.8-2.7-1.5-3.7-1.1 0-1.4.6-2.2.8-.2 2 1.4 2.7 3.7 2.9z"/><path d="M174.9 100.7c-1.2 2.1.9 4.3 0 6.8-15.6-.8-39.3.8-51.5.3.4-1.7-2.8-1.8-3.6-3.4 1.1-5.8-.7-9.8-.7-14.2-.1-4-.7-7.9-1.1-12.6 2.1 0 5.5.2 7.3-1.3 2 1.8 1.8 4.9 2.9 7.6 1.5 3.8 3.7 7.1 8 8.9 6.3-7.3 3.8-18.5 6.2-27.3 2.1 0 5.6-.2 6.9-1.6 1.4-.2.8 1 1.8 1-1 5.6-.3 10.9 1.1 16 1 3.8 1.4 7.8 4.7 10.5 3.5-5 3.7-8.8 5.1-14.4 2.9.9 5-.4 7.7-1 1.6 7.7 1.2 17.4 5.2 24.7zm-8.4-9.7c.6-.1.3 1.9 1.1.8-.5-.2.1-1.6-1.1-.8zm.7 10.2c-1.2-1.7.1-2.9-1.1-4.7-.3-.8-.3-.5.4-1-1.2-1-1.1-1.3-.7-2.6-1.8.5-1.8 1.7-3.3 2.4-1.8.8-5.6 1-7.7.5-4.4-1.1-5.2-5.2-7.3-7.9-1.6 3.3-1.6 7-5.5 8.4-3.8 1.4-9.6 0-12.1-1.3-.9-.5-2.3-2-2.6-1 .4 2.8 1.3 5.2 1.1 8.4 7.6.4 13.6-.3 21.2-.5 5.7-.3 12 .2 17.6-.7z"/><path d="M167.6 91.8c-.8 1.1-.5-.8-1.1-.8 1.2-.8.6.6 1.1.8zM166.9 117.7c-.1 0-.1 0 0 0-.1 0-.1 0 0 0zM165.8 162h-.1-.1.2zM165.6 162c-.3 0-.5 0-.5-.2.1.1.3.1.5.2zM150.1 158.6c.1 1.4-.9 2-2.9 1.8-.6-1.6 1.4-2.4 2.9-1.8zM148.6 47.5c5.3 4.8 2.1 10.8-7.3 10-4.5-.4-6.3-2.5-6.2-6.8 2.7-2.5 7.3-2.3 12.1-2.9.4 0 .3-.3.4-.5.5-.2.5.1 1 .2zm-5.8 6c.6-.8.9-1.8.4-2.1-.3.5-1.1 1.9-.4 2.1zM142.8 147.1c.4 0 .3.5.4.8-.7.1-1.1-.1-1.1-.5.3 0 .3.1.4.3.2-.1.2-.4.3-.6zM127.1 63.4c3.2 1.8 3.3 5.8 0 7.3-2.9 1.3-12.7 1.2-13.5-1.8.5-1.3.5-3.4 2.2-3.9.1-.4-.3-.5-.7-.5 3.1-.9 5.7-.9 9.1-1.8 1.1 1.1 1.9.2 2.9.7zm-4.1 5.3c.9-.8.9-2.8 0-3.1-1.3.7-3.2 1-3.6 2.4.9.4 1.8.9 3.6.7zM116.8 133.7c.5.1.7.3.7.8-.4-.1-.7-.3-.7-.8zM105.5 132.9c.1-.7.6.4 1.5 0-.1.7-1.3.1-1.5 0zM104.8 132.1v.5h-.7v-.5h.7zM96.8 161.8c.3-.7.8.6 1.5.5-.6.9-1.1-.5-1.5-.5zM97.5 162.8c-.5.3-1.1-.3-1.8-.3.7-.2-.2-1.1-.4-.5-.1-1-1.7-.8-2.9-1.8-.1.7.8.6 1.1 1-.5.2-2.3-.8-2.2-1.8h1.1c-.2-.3-.5-.5-1.1-.5.2-.2.4-.5 0-.5.3-.7 2.9 1.6.4 1.3.2.6 1.5.7 1.5 0 .5 1.2 2.5 1.7 4.3 3.1zM94.9 136.3c2 1.5-2.1-1.4 0 0zM94.6 163.9c1.3.8-1.1.8 0 0zM94.6 131.1c-.1.3-1.9-.3-1.8-1 .5.3 1.3.3 1.8.5-.3.2-.5.4 0 .5zM92 162c.3.6 2.3 0 1.8 1-.6 0-.9.2-1.1.5-.5-.1 0-.2 0-.5-1.4-.7-1.3-1.1-1.5-2.4.7.9 2.1 1 .8 1.4z"/><path d="M93.8 158.9c-.9.1-3-1.2-2.6-2.9 1.2-.4.9 1.6 1.5.8 1 .2-.8.9-.7 0-.4.4 1.2 1.6 1.8 2.1zM92.4 154.9c-.3-.2-.6-.3-.7 0-.7-.2-.2-1.2-1.1-1.3.5-.5 1.6.8 1.8 1.3zM86.9 102.2c.5.7 2.1.9 1.5 1.3-1-.3-1.2-1-2.2-1.3.1-.2.4-.2.6-.3 0 .2 0 .3.1.3zM86.8 101.9c0-.3 0-.6.1-.2 0 .1 0 .2-.1.2zM86.2 101.7c-.9-.2-1-.9-1.8-1.1.4-.5 1.5.7 1.8 1.1zM84 100.2c-.3-.2-.7-.3-.7 0-.2-.7-1.7-2.1-3.3-2.6 1.3-.3 3.2 1.5 4 2.6zM78.9 93.3c.8.8.8.8-.4.3.7-.5-.5-1 .7-.5.1.2-.1.2-.3.2zM77.4 92.5c.2.3.8.3.7.8-1.3-1-3.7-1.2-4.7-2.4.3.2 2.4.8 1.5.3.1-.6 1 .3 1.5.3-.2.4-.5-.1-1.1 0 .1.7 1.5.5 1.8 1 .5-.1 0-.2 0-.5-1.3-.6 1.5.4.3.5zM77.8 94.4c.2.3-1.8.1-1.5-.5 1-.2.7.5 1.5.5zM66.4 175.4c.1.7-.1 1.1-1.1 1-.3-.7-.4-1.1 1.1-1zM65.4 172c1 .8-.3 2.2-.4 3.1-1.7-1.2-1.8-3.4-3.3-4.7.1-.4.6 0 .7.3 1.2-.5-.7-3.3 1.1-3.4-.4 1.2-.4 3.2.7 4.5.6-.4 1 1.3 1.2.2zM60.2 89.7c.5-.7 2.4-.2 1.8.8-1.3.2-1.1-.6-1.8-.8zM60.6 168.3c.8.2 1.1.8 1.1 1.6-.6-.4-.9-.9-1.1-1.6zM55.1 146.6c-1.5 2.1.7 3.6 1.5 5.5-2-2.2-3.3-5-5.5-7.1-.7.6-2.4.5-3.3 1-4.1-.5-6.8 2.2-11.3 2.9-6.8-4.5-12.2-10.1-21.9-12.6-1.9 1.5-1.8 5.7-1.1 8.4 2.5 9.7 11.5 20.4 19 25.4 4.4-4.6 5.3-11.7 6.9-18.4 1.1 0 .9 1.5.4 1.8 1.1.2.7-.7 1.8-.5-.1.9-.9 1.5 1.1 1.3.3 1.1-.6 1.3-.4 2.4 1.1-.4.5-1.9 1.1-2.6 1 1.7-1 2.9.4 4.2 1.1.1.6-2.3 1.5-1.6 1.7 0-.6.5-.4 1 1.2-.4 2.5-1.1 1.8-2.1.9.3 1.7.4 1.8-.8.9.4.1 1.6 0 2.1 1.2-.8 2 .3 2.9-.8.3 2.2-.3 4.7-1.1 6.8-.5 1.2-1.6 2.3-2.2 3.4-.8 1.5-1 2.7-2.2 3.9-.3.3-.8.5-1.1.8-.7.6-.9 1.4-1.5 1.8-2.3 1.8-4.2 1.6-7.7 1.6-5.4 0-11.8 1.4-15.7 0-1.6-.5-3.9-2.2-5.5-3.4-4.3-3.5-7.3-7.7-9.9-11.5 2 .5 1.8 2.6 4.4 2.6-.5.3-.5 1 0 1.3 1.8-.7-1-1.7-.7-2.9 1.9 2.1 3.6 4.2 5.5 6.3-1.2-2.1-3.9-5.4-5.8-7.9 1.2 0 1.6 1.3 2.2 2.1 1.7 2.2 5.4 7.1 7.7 7.6.7-.7-2.8-2-1.8-2.9-.6-.1-1.6-.8-1.8-1.8.4.3.9.1.4 0 .8-.4 1.6 1.3 2.2 1.8-2.2-3.7-5.6-7.4-7.7-11.8 1.2.7 1.7 1.9 2.2 3.1.2-.4 1.4 0 1.5-.5.4.4 1.1.6 1.1 1.3.8-.3-.8-2.5-1.8-1.6-.9-.1 0-1 .7-.8-.3-1.2-1.4 0-.7-1.3-.3.1-.6.2-.7.4.3-.8 1-2.7-.4-3.8-.7.5 1 1.4.7 2.4-1-1.7-2.9-3.6-2.6-4.7-1.7 1.4.6-1.4-1.5-.8.3-.2.2-.7.7-.8-1.5.3-.5-4-1.8-4.7-1 0 .3-1.6-.7-1.6-1 .2.5.8 0 1.6-.7 0-.8-.3-1.5-.3 1.3-1-.2-.8 0-2.4-.7 1.2-.8.5-.7-.8-.6.2-.8.8-.7 1.6-1.2-.4-.2-1.1-.7-1.6-.5.2-.5.8-.7 1.3-1.1-.5.6-1.1.4-1.8-.6-.5-1.6 1-1.8 1.6.4-6.7 15-5.5 17.2-11.8.4 0 .6-.1.7-.3 1.3-.1 2.4 0 3.3.3 2.9-1.4 5.1-3.4 8-4.7 4.4.9 6.9 4.6 9.9 7.1 4.7 3.9 10.9 8.4 14.2 13.6.1.4-.3.5-.7.5.1 1.3 1.3 1.7 2.4 2.2zm-35.4 21.5c-.5.1-.9-1-1.1-.3.4 0 .8 1.1 1.1.3zm-2.5-5.8c.1.1.1 0 0 0 .2-1-1.3-1.2-1.5-1.3-.3-.4.8-.7-.4-.3-1.3-1 .7-1.2-.7-1.8-.1.2 0 .5-.4.5.4-1-1.1-.8-.7-1.8-1.3-.4-.2.9-1.1.8.5-.7-1.4-.9-.4-.5-.2 1.7 2.1 1.5 2.6 2.6-.6 0-1.6-.4-.7 0 .1.4.8.2 1.1 0 0 .6 1.7 1.5 2.2 1.8zm-4.4-7.6c.2.6 1 2.2 1.5 1.8-.7-.5-.5-1.6-1.5-1.8zm-2.6 10.2c1 0 1.4 1.8 2.2 1-.9 0-1.4-1.7-2.2-1zm-3.3-23.3c.1-.4-.2-1-.4-.5 0 .3.3 1 .4.5zM55.1 159.7c-.7-.2-1-.7-1.1-1.3 1.1-.1.8.8 1.1 1.3z"/><path d="M18.6 167.8c.2-.8.6.4 1.1.3-.3.8-.7-.3-1.1-.3zM17.2 162.2c.1.1.1.2 0 0 0 .1 0 .1 0 0z"/><path d="M15.7 161c.1.1 1.7.4 1.5 1.3-.5-.3-2.2-1.1-2.2-1.8-.3.2-1 .4-1.1 0-.9-.4.1 0 .7 0-.5-1.2-2.8-1-2.6-2.6-1.1-.4.8-.2.4.5.9.1-.2-1.2 1.1-.8-.4 1 1.1.8.7 1.8.4 0 .3-.3.4-.5 1.5.7-.6.8.7 1.8 1.2-.4.1-.1.4.3zM13.5 164.4c1.4 1.2 2.5 2.6 3.7 3.9-1.6-1.1-2.8-2.4-3.7-3.9zM10.2 158.6c1.2.9 4.2 3.2 4 5.5-.7-1-1.6-1.1-1.8-2.6-.6-.1-.7.2-.7.5-.6-.4-.9-.9-1.1-1.6-.8-.6 1 .4.7 1.1.3-.1.4-.3.7-.3-.6-.8-1.2-1.7-1.8-2.6zM14.2 156.5c-.4.4-1.2-1.2-1.5-1.8 1.1.2.9 1.3 1.5 1.8zM12.4 166c-.8.7-1.2-1.1-2.2-1 .8-.8 1.3.9 2.2 1zM11.3 154.9s0-.1.1-.1l-.1.1zM10.2 151.5c-.2 1.3-1-.8-1.1-1.3-.5-.7.9 1 1.1 1.3zM7.7 150.2c-.3 1-.8-.9-1.1-1.6-.3-.8-.9-1.9-.7-2.6.8 1.2.8 3.1 1.8 4.2zM6.6 141c.1-.5.5.2.4.5-.2.6-.5-.1-.4-.5z"/></g></g></svg>