<svg id="bd7ebf27-3781-4cfb-8ff9-b8f44718a6e7" data-name="Layer 1" xmlns="http://www.w3.org/2000/svg" viewBox="0 0 179.53 179.87"><path d="M177.9,33.65l-7.63-24.8L89.76,1.63,9.26,8.85,1.63,33.65,9.26,58.44,60.14,63,57.75,89.69,64.86,169l.11,1.24,24.66,8.05,24.93-8.05,7.22-80.5L119.38,63l50.89-4.56ZM91.43,6.81l42.81,28.93-42.81-4ZM87.72,31.7l-42,3.65,42-28.53Zm-2.65,4-23,23L42.5,39.36Zm2.65,2.6V71.69L65.24,60.74Zm3.71-.37,22.86,22.85L91.43,71.87Zm3.11-2.15,42.13,4L117.45,58.65ZM96.87,6l67.83,6.08L140.76,35.67ZM38.71,35.62,14.82,12.08,82.26,6ZM57.14,59,16.29,55.34l22-14.93Zm6.63,5.15,21.75,10.6L61.78,86.32ZM87.72,77.81V128L62.22,90.23Zm3.71-.18,25.87,12.6L91.43,128.5ZM94,74.75l21.76-10.6,2,22.17Zm47.2-34.29,22,14.88L122.38,59Zm5.1-1,27-3.41-5.51,17.92Zm27.27-7.19L146,35.71l22-21.65Zm-162-18.17L33.18,35.38,6,32.17ZM6.22,35.94l27.27,3.22L11.76,53.93ZM62.11,96.7l25.41,37.59L68.06,163.07Zm7.32,71,18.29-27.05v32.68Zm22-27.6,18.66,27.6-18.66,5.74Zm20,23L92,134.29,117.42,96.7Z"/></svg>