<svg id="af823532-eee8-4800-acbd-050746c7b4f0" data-name="Layer 1" xmlns="http://www.w3.org/2000/svg" viewBox="0 0 178.13 21.78"><defs><style>.b3fab5a5-5353-4f39-8040-0998d40e8cdb{fill:#333;}</style></defs><path class="b3fab5a5-5353-4f39-8040-0998d40e8cdb" d="M119.14.11c0,1.69,0,3.35,0,5a1.07,1.07,0,0,1-.34.62c-1.71,1.77-3.44,3.53-5.21,5.34.16.17.3.34.46.5,1.56,1.55,3.13,3.08,4.67,4.65a1.57,1.57,0,0,1,.38.92c0,1.5,0,3,0,4.57-1.72,0-3.36,0-5,0-.24,0-.49-.29-.69-.49-2.21-2.16-4.41-4.35-6.63-6.5a1.55,1.55,0,0,0-.91-.38c-.73-.06-1.46,0-2.26,0v7.44H96.3V.11Z"/><path class="b3fab5a5-5353-4f39-8040-0998d40e8cdb" d="M159,21.78V0h.71c4.81,0,9.62,0,14.44,0a3.7,3.7,0,0,1,4,4c0,4.6,0,9.2,0,13.81a3.77,3.77,0,0,1-4,4H159ZM166.39,7.4v7h4.33v-7Z"/><path class="b3fab5a5-5353-4f39-8040-0998d40e8cdb" d="M39,0h.7c4.81,0,9.63,0,14.44,0a3.66,3.66,0,0,1,4,4V18a3.7,3.7,0,0,1-3.71,3.78c-5,0-9.92,0-14.88,0a4.75,4.75,0,0,1-.51,0ZM46.37,7.4v7h4.41v-7Z"/><path class="b3fab5a5-5353-4f39-8040-0998d40e8cdb" d="M72.71,21.78V0h.77C78.23,0,83,0,87.73,0A3.71,3.71,0,0,1,91.8,4.13V17.75a3.77,3.77,0,0,1-4,4h-15Zm11.71-7.34v-7H80v7Z"/><path class="b3fab5a5-5353-4f39-8040-0998d40e8cdb" d="M142.71,10.91c0,2.41,0,4.81,0,7.22a3.54,3.54,0,0,1-3.66,3.64q-5.87,0-11.73,0A3.59,3.59,0,0,1,123.57,18q0-7.1,0-14.18A3.63,3.63,0,0,1,127.44,0c3.93,0,7.86,0,11.79,0a3.55,3.55,0,0,1,3.52,3.59c0,2.43,0,4.86,0,7.28ZM131,14.43h4.37v-7H131Z"/><path class="b3fab5a5-5353-4f39-8040-0998d40e8cdb" d="M22.76,21.71c-1.68,0-3.33,0-5,0-.17,0-.36-.18-.5-.32-2.21-2.16-4.42-4.34-6.64-6.49a1.33,1.33,0,0,0-.81-.33c-.83-.05-1.66,0-2.55,0v7.2H0V.07H7.28V7.18c1,0,1.85,0,2.74,0,.19,0,.38-.23.54-.38,2.12-2.12,4.23-4.24,6.36-6.34a1.52,1.52,0,0,1,.92-.39c1.48,0,3,0,4.55,0V1.13c0,1.17,0,2.34,0,3.51a1.63,1.63,0,0,1-.41,1c-1.54,1.63-3.11,3.22-4.67,4.83-.1.1-.19.21-.39.43.57.52,1.13,1,1.67,1.54q1.92,1.89,3.83,3.81a1.12,1.12,0,0,1,.35.62C22.77,18.43,22.76,20,22.76,21.71Z"/><path class="b3fab5a5-5353-4f39-8040-0998d40e8cdb" d="M27.26.08h7.26V21.72H27.26Z"/><path class="b3fab5a5-5353-4f39-8040-0998d40e8cdb" d="M147.28.07h7.23V21.72h-7.23Z"/></svg>