<svg id="b0ac6dac-423f-472b-8f9b-17f5169f9838" data-name="Layer 1" xmlns="http://www.w3.org/2000/svg" viewBox="0 0 179.29 67.95"><defs><style>.bbe503c0-86fc-48ee-90b6-eef4e6f28a54{fill:#333;}</style></defs><path class="bbe503c0-86fc-48ee-90b6-eef4e6f28a54" d="M53,30.27a3.26,3.26,0,0,1-.73-2.08,3.16,3.16,0,0,0,.26.52.42.42,0,0,0,.3.18c.08,0,.21-.25.19-.27-.25-.25,0-.58-.17-.84s-.29-.51-.4-.78a2.69,2.69,0,0,1-.13-.64s.1-.06.07-.05a7.71,7.71,0,0,1-.24-.82c-.08-.48-.1-1-.18-1.45,0-.12-.16-.23-.19-.26a7.49,7.49,0,0,0,0-2.41l-.19,0c.09-.28,0-.64.36-.76-.1-.26.13-.55-.08-.8,0,0-.08-.12-.07-.15.27-.45,0-1,.37-1.47l0,.37.35-.56.08-.07.25-1.22c.43,0,.65-.16.73-.63,0-.15.31-.25.46-.37.18.05.28.45.52.06.07-.13.4.17.52-.13.36.26.73.06,1.1.05.09,0,.2,0,.24-.07.16-.22.35-.37.62-.26s.62.34.61.71c0,.83-.12,1.65-.2,2.47-.07.62-.21,1.25-.24,1.88,0,.79,0,1.59,0,2.38A18.62,18.62,0,0,0,58,27.54a8.13,8.13,0,0,0,2.05,3.53.4.4,0,0,0,.31.1c.3-.07,1-.59,1-1a2.13,2.13,0,0,0,0-.55h.13v.2l.06,0L62,29,62,29l-.17.08s0-.05,0-.06c.27-.75.55-1.5.83-2.24,0-.05.1-.07.08-.06.13-.29.25-.53.36-.78a1,1,0,0,0,0-.17c.18-1.06.37-2.12.52-3.18s.24-2,.3-3c.1-1.49.18-3,.2-4.47,0-1-.08-2.08-.16-3.12-.05-.51-.21-1-.27-1.52a6.57,6.57,0,0,1,0-1.47c0-.17.3-.36.51-.44a2,2,0,0,1,.69,0c.54,0,1.08,0,1.62,0,.1,0,.19.1.29.16l.6.35.34-.42.26.3L68,8.61l.6.11c.15-.08.63.09.41-.51l.17.11.05.56.35-.16a2.69,2.69,0,0,1,.22.28c.1.14.37.23.16.48,0,0,0,.07,0,.08.59.69.28,1.61.6,2.36A11,11,0,0,1,71,13a.19.19,0,0,1,0,.12c-.36.42,0,.85,0,1.27a3.62,3.62,0,0,0,0,1.18c.08.25-.19.61.2.78a.89.89,0,0,1-.07.29l.11,1.12-.09.05-.31-.36a3.79,3.79,0,0,1,.09.52,6.25,6.25,0,0,0-.08.86c0,.64.11,1.28.17,1.92L71.13,23a.57.57,0,0,0,0,.13,11,11,0,0,1,.29,2.8c.07,1.74.39,3.47.36,5.22,0,1,.11,1.94.14,2.91,0,1.27.08,2.55.08,3.83,0,1,0,1.89-.06,2.84a.45.45,0,0,1-.2.33l-.15-.56c-.38.09-.48.84-.2,1.93.41-.36.32-.82.42-1.28,0,.06.11.13.11.2-.05.82-.1,1.64-.14,2.46,0,.37,0,.73,0,1.1a3.87,3.87,0,0,1-.09,1.37c-.34.78,0,1.61-.27,2.35a3.45,3.45,0,0,0-.32.92,13.75,13.75,0,0,1-.3,2.11c-.14.57-.09,1.22-.55,1.7-.09.09-.07.28-.1.42a17.25,17.25,0,0,1-.68,2.49c-.13.31-.16.62-.27.92-.18.52-.43,1-.62,1.55,0,.16-.32.37,0,.54,0,0,0,.2-.08.21-.6.16-.54.73-.64,1.15s0,.38-.41.47A1.08,1.08,0,0,1,67,62.23c-.15.1-.14.44-.24.64a3.17,3.17,0,0,1-.36.46c-.11.14-.31.29-.29.42.08.58-.39.87-.68,1.17a14.71,14.71,0,0,1-3.12,2.43,5.1,5.1,0,0,1-.7.16c-.26.1-.49.28-.74.39a1,1,0,0,1-.38,0c-.21,0-.42,0-.63,0-.67,0-1.34.08-2,.09a9.66,9.66,0,0,1-3.46-.39,25.23,25.23,0,0,1-3.29-1.29,9.57,9.57,0,0,1-1.89-1.55c-.51-.46-1-1-1.44-1.46,0,0,0-.11-.07-.19l.35-.13v-.08l-.31,0,.17-.22c-.38-.49-.76-1-1.11-1.44-.06-.08,0-.24,0-.36v-.54l-.48.1L46,60.12h.75l-.38-.44a.87.87,0,0,0-.13-1.25.38.38,0,0,1-.09-.32c.14-.33,0-.43-.18-.4-.07-.25-.06-.54-.2-.66a.67.67,0,0,1-.17-.84c.06-.19.15-.37-.2-.36,0,0-.17-.24-.15-.33a.86.86,0,0,0-.29-.83.89.89,0,0,1,0-1,1.54,1.54,0,0,0,.06-.75c0-.1-.05-.19,0-.31l.49,1,.15-.05L45,50.34l0,0,.31.54a2.42,2.42,0,0,0,0-.36c-.22-1.57-.44-3.14-.67-4.71-.06-.42-.15-.84-.18-1.27a1.35,1.35,0,0,1,.14-.46l0,0,.4.09c0-.88,0-1.71,0-2.55,0,0,.13-.05.23-.1,0-.23,0-.51-.06-.79s-.09-.6.31-.73c0,0,.05-.14.05-.21s0-.41,0-.73a3.6,3.6,0,0,1,.66,2.2c.31,2.28.56,4.57.9,6.85.26,1.69.58,3.39,1,5.06.23,1,.68,2,1,2.94a17.3,17.3,0,0,0,2.22,4.37,26.47,26.47,0,0,0,2.51,3.09A13.73,13.73,0,0,0,56,65.06a.47.47,0,0,0,.35,0c.35-.1.68-.23,1-.32.08,0,.23.14.28.11a7.17,7.17,0,0,0,1.07-.56c.44-.42,1.09-.5,1.45-1s.79-1,1.15-1.45a23.3,23.3,0,0,0,3-6.16c.3-.84.61-1.66.84-2.51.28-1,.52-2.11.71-3.18.26-1.55.51-3.1.68-4.65s.29-3.18.4-4.77c0-.78,0-1.56,0-2.35,0-1.52,0-3.05-.08-4.58,0-.16,0-.32-.07-.63a9.48,9.48,0,0,1-1.17,1.14,7.6,7.6,0,0,1-1.86,1,7.71,7.71,0,0,1-3.1.16,15.64,15.64,0,0,1-2.23-.51c-.25-.06-.49-.14-.52.28,0,.19-.21.37-.34.54s-.35.39-.49.6a1.29,1.29,0,0,1-1.5.35.6.6,0,0,1-.88.36c-.4-.19-.64.18-1,.25-.06,0-.12.11-.18.1-.79,0-1.57-.17-2.35-.18-1.29,0-1.88-1-2.63-1.79a27.49,27.49,0,0,1-2.37-2.79c-.64-.84-1.19-1.74-1.76-2.63-.23-.37-.38-.79-.57-1.17-.68-1.34-1.37-2.67-2.05-4-.34-.65-.7-1.29-1-1.94s-.72-1.5-1.1-2.24a10.32,10.32,0,0,0-.67-1c-.33.75-.63,1.42-.92,2.09-.4.94-.83,1.87-1.2,2.82-.3.79-.55,1.61-.81,2.43s-.57,1.72-.78,2.6a7.68,7.68,0,0,1-.72,1.5,1.25,1.25,0,0,1-1.39.79,8.24,8.24,0,0,0-1.41,0,.76.76,0,0,0-.71.42,6.23,6.23,0,0,1-1.84,1.7,1.33,1.33,0,0,1-.53.18A11.16,11.16,0,0,1,25,34c-.73-.16-1.47-.26-2.21-.37a5.35,5.35,0,0,1-2.29-1.09,14.65,14.65,0,0,1-3.75-3.9,18.93,18.93,0,0,1-1-1.89c0-.06-.11-.1-.19-.18-.47.44-.89.89-1.37,1.27-.69.55-1.39,1.08-2.12,1.56a16,16,0,0,1-2.18,1.29,10.34,10.34,0,0,1-2.26.68,7.15,7.15,0,0,1-2.11.14,5.46,5.46,0,0,1-1.8-.67,24.07,24.07,0,0,1-2.08-1.37,1.47,1.47,0,0,1-.76-1.06,2.4,2.4,0,0,0-.31-.91l-.09.63a3.7,3.7,0,0,1-.37-2.57c.17-.83.26-1.68.38-2.51a2.89,2.89,0,0,1,.07-.49l.08.17c.13-.15.41-.35.38-.45-.15-.47.26-.68.46-.93s.33-.53.13-.8l1.22-1.39c.16-.17.33-.33.47-.51A9.9,9.9,0,0,1,5.9,16.4a6.49,6.49,0,0,1,1.54-.76,6.87,6.87,0,0,1,2-.58c.54,0,1.07,0,1.61,0s.82.07,1.23.11a1.88,1.88,0,0,1,.33.05,4.17,4.17,0,0,0,1.5.35,6.62,6.62,0,0,1,1.5.29,4.38,4.38,0,0,0,.51,0c.4,0,.8-.08,1.12.32a2.07,2.07,0,0,0,.88.6l1,.13c.08,0,.19.1.24.07.56-.28.87.2,1.23.42.15.1.18.46.19.7,0,.51-.1,1-.06,1.53.08.84.21,1.69.37,2.52a14.29,14.29,0,0,0,.57,2.16c.37,1,.86,1.87,1.28,2.81a8.17,8.17,0,0,0,1.92,2.29,2.08,2.08,0,0,0,.35.23l1.1-2,.07.33.81-1.68.18.11a2.21,2.21,0,0,0,.35-1.88c-.06-.77,0-1.55,0-2.32,0-1-.05-2.1,0-3.15,0-.68.23-1.36.33-2.05a1.41,1.41,0,0,0-.1-.43l-.21-1,.11,0,.09.21c.08-.42.15-.84.26-1.24a.43.43,0,0,1,.26-.25c.38-.06.7-.52,1.17-.15.1.07.41-.14.63-.2a6,6,0,0,1,.83-.23c.59-.11,1.19-.17,1.78-.28a7.58,7.58,0,0,0,.77-.24.36.36,0,0,1,.25,0c.23.18.45.38.68.57a1.73,1.73,0,0,1,1.39-.53c.57,0,1.15.1,1.73.1s1.37-.06,2.05-.12A14.12,14.12,0,0,1,41.14,13a1.36,1.36,0,0,1,.84.33A8,8,0,0,1,43.78,15c.48.86,1.12,1.64,1.62,2.5.34.59.56,1.26.87,1.88.1.22.32.39.44.61s.34.74.52,1.11c.09.21.24.39.33.6a.78.78,0,0,1,.07.42c-.06.21,0,.35.24.36H48c0,.39.42.59.42,1.07a3.9,3.9,0,0,0,.6,1.49c.23.48.5,1,.76,1.43.16.28.11.76.66.7,0,0,.15.27.16.42s-.05.47.37.58c.26.06.43.51.61.82.31.53.56,1.11.9,1.63a4.37,4.37,0,0,0,.77.7c.26-.13.12-.34,0-.53L53,30.27c.13.13.25.26.39.38a.45.45,0,0,0,.23.08s.08-.08.09-.13-.47-.68-.63-.7ZM9.47,25,11,23.18a20.36,20.36,0,0,0,1.42-1.68c.48-.71,1.17-1.34,1.16-2.31,0-.25-.08-.4-.35-.32a4.88,4.88,0,0,0-.7.32,12.43,12.43,0,0,0-1.68.93c-.87.64-1.65,1.39-2.5,2.05a10.45,10.45,0,0,0-3.09,3.77,2.33,2.33,0,0,0-.3,1.6c.15.56.35.71.87.51s.94-.34,1.41-.53a.66.66,0,0,0,.27-.2c.14-.15.25-.32.39-.47s.22-.15.3-.24c.22-.27.43-.56.65-.84l.08.08,0,.46.1.06.38-.3-.12,0a3.71,3.71,0,0,1,.09-.49c.46,0,.43-.31.51-.62ZM70,51.68a3.22,3.22,0,0,0,.55-2.81Zm.77-3.12A2.28,2.28,0,0,0,71.06,47h-.13ZM71,46.34l.15,0,.15-1.05-.24,0Z"/><path class="bbe503c0-86fc-48ee-90b6-eef4e6f28a54" d="M133,15.81l.3.24.48-.11c.68-.21,1.42,0,2.11-.31.25-.12.6-.07.84-.32a.22.22,0,0,1,.21,0,2.79,2.79,0,0,1,.65.78c.09.24,0,.56-.11.85,0,.08-.12.16-.11.23a4.88,4.88,0,0,1-.45,1.95c-.28.9-.47,1.83-.7,2.75s-.41,1.65-.68,2.45c-.37,1.11-.61,2.24-.87,3.38-.21.94-.51,1.86-.7,2.8-.13.63-.08,1.29-.2,1.92a10.64,10.64,0,0,1-.49,1.64,1.76,1.76,0,0,1-.71,1.1c-.22.13-.39.39-.62.49a1.72,1.72,0,0,1-.68,0c-.2,0-.43-.17-.54.15,0,0,0,0,0,0-.57,0-1.14,0-1.71,0a8.67,8.67,0,0,1-1.35,0,5,5,0,0,1-.91-.28s0,0-.08,0c-.87.06-1-.73-1.43-1.23-.53-.69-1-1.44-1.48-2.18s-1-1.6-1.46-2.4c-.12-.19-.26-.36-.43-.6-.21.76-.4,1.43-.58,2.1-.4,1.42-.79,2.85-1.21,4.27-.06.2-.16.45-.5.29-.1,0-.29,0-.42.09-.28.14-.56.27-.82,0a.31.31,0,0,0-.22,0,4.86,4.86,0,0,1-2.89-.32c-.44-.16-.88-.32-1.31-.5s-.54-.56-.68-1c-.38-1.09-.82-2.16-1.19-3.25-.3-.9-.54-1.82-.79-2.73-.31-1.14-.59-2.29-.88-3.44l-.13-.4c0,.2-.09.31-.11.42-.15.91-.27,1.83-.46,2.74a8,8,0,0,1-1.22,2.88,16.67,16.67,0,0,1-1.77,2.23,21.53,21.53,0,0,1-2.22,1.8,4.14,4.14,0,0,1-.93.55c-.45.2-.93.33-1.4.5a2.77,2.77,0,0,1-.67.22,2.37,2.37,0,0,1-.68-.21c0,.07.06.11,0,.1a6.1,6.1,0,0,1-1.28,0,7.88,7.88,0,0,1-1.93-.6c-.73-.37-1.37-.92-2.07-1.36a4.89,4.89,0,0,1-1.69-1.63.44.44,0,0,0-.21-.15.92.92,0,0,0,0-.3,2.14,2.14,0,0,1-.23-1.23c0-.27-.12-.6-.08-.94s0-.47,0-.71A8.56,8.56,0,0,1,93.67,26a5.42,5.42,0,0,0,.19-1.52l-.14,0,.25-.23-.1,0a9.37,9.37,0,0,0,.26-1c.07-.43.48-.74.35-1.24,0-.14.13-.33.17-.59l-.43.24-.1-.05.29-.44L94.22,21c-.36.08-.63.15-.91.19-.61.09-1.21.2-1.82.23s-1.42,0-2.13,0c-.47,0-.93-.05-1.39-.05q-1.05,0-2.1.06c-.37,0-.73.07-1.2.11,0,.19.1.36.13.54.11.71.21,1.42.31,2.13s.12,1.28.26,1.9.39,1.35.59,2c.26.86.52,1.72.77,2.59.09.32.3.62.11,1,0,.06.17.22.22.36.22.63.43,1.26.64,1.91-.15.27-.26.64-.51.81a2.56,2.56,0,0,1-1,.16l0-.14-.3.6c-.26-.26-.5-.2-.82-.16s-.72.31-1.09.05a.11.11,0,0,0-.08,0c-.56.26-1.07-.07-1.6-.12a1.43,1.43,0,0,0-.26,0c-.22-.18-.36-.37-.53-.41-.59-.15-.61-.67-.73-1.1-.21-.77-.35-1.55-.55-2.32-.31-1.21-.67-2.42-.94-3.64s-.53-2.68-.76-4c-.1-.58-.12-1.17-.19-1.79l-1.6-.12a8.15,8.15,0,0,1-1.94-.34,3.18,3.18,0,0,1-1.34-.8.35.35,0,0,0,.06-.14c0-.34-.18-.74.3-.93a4.55,4.55,0,0,1,.93-.38c.87-.11,1.75-.15,2.63-.22.33,0,.59-.06.54-.53-.1-1-.12-1.94-.21-2.9-.12-1.43-.28-2.85-.4-4.28,0-.27.06-.56,0-.83-.09-.89-.22-1.77-.32-2.65-.06-.65-.1-1.3-.15-1.95s-.17-1.48-.19-2.22a8.42,8.42,0,0,1,.11-1.5c0-.1.22-.18.32-.28a.52.52,0,0,0,.13-.17.31.31,0,0,1,.53-.14.29.29,0,0,0,.19.06l1.09-.38v.19l.83.11,0-.14.07.23.26-.21.16.31c.62-.16,1.18-.61,1.84-.21a.22.22,0,0,0,.21,0c.41-.35.7,0,.89.22a1.47,1.47,0,0,1,.25.86c0,1.08,0,2.15,0,3.22,0,.56,0,1.12,0,1.68,0,.73.06,1.45.08,2.17s0,1.64.07,2.46a10.61,10.61,0,0,1,0,1.49A1.8,1.8,0,0,0,84,14.72a3.14,3.14,0,0,1,.17,1.21c.06.67.11,1.35.16,2s.2.72.85.66a18.75,18.75,0,0,1,2.24-.1c1.53.05,3,.16,4.58.26a15.28,15.28,0,0,0,1.77.22,3.69,3.69,0,0,0,2.19-.31.49.49,0,0,1,.42-.07c.3.14.48.06.73-.16s.52-.15.87-.24L97.47,18l1.19-.36a4,4,0,0,1,.49-.16,7.2,7.2,0,0,1,3,0c.73.17,1.47.26,2.2.38a1.62,1.62,0,0,0,.44-.06c.4.36.65.3.88-.32l.22.33.24-.64.19.46a.55.55,0,0,0,.8.35,1.39,1.39,0,0,1,.35-.07,3.09,3.09,0,0,1,0-.31c0-.14.07-.27.14-.55.12.31.2.49.27.68s.16.27.37.08.22-.1.34.15.22.21.33.3l.37-.85.16.2.45-.23.27.3.48-.4c.41.31.56.28.73-.13l1.57.21,0-.21a5,5,0,0,0,1-.25c.84-.4,1.53.32,1.68,1.13s.24,1.41.39,2.11c.21.93.46,1.86.71,2.84l2-4H120a6.42,6.42,0,0,1,.76,0c.57.07,1.14.38,1.73.09a.35.35,0,0,1,.22,0,.48.48,0,0,0,.54-.08c.21-.15.55-.1.88-.15-.07.56-.15,1.06-.18,1.56a1.11,1.11,0,0,0,.1.6c.57,1.12,1.15,2.25,1.77,3.35a11.94,11.94,0,0,0,.91,1.24L128,27.24c.31-1,.63-2.11.93-3.17s.53-1.85.75-2.78c.35-1.4.67-2.81,1-4.22a1.36,1.36,0,0,1,.75-.84,2,2,0,0,1,1.07-.13C132.64,16.09,132.79,15.94,133,15.81ZM102.58,29.57l1-1.51-.19-.1-.75,1.62-.84.7.09.09A1.14,1.14,0,0,0,102.58,29.57Zm-2.4,2.2-.08-.08a10.76,10.76,0,0,0,1-.94c.41-.51,1.05-.89,1.07-1.67a.26.26,0,0,1,.16-.18.45.45,0,0,0,.36-.3c.09-.42.16-.84.28-1.24a16.62,16.62,0,0,0,.7-2.21c.2-1.42.27-2.85.37-4.27,0-.1-.23-.31-.31-.29a4.23,4.23,0,0,0-1,.31c-.45.22-.87.49-1.29.75s-1.11.69-1.63,1.08a4.72,4.72,0,0,0-.82.85c-.35.44-.65.9-1,1.36a4.06,4.06,0,0,0-.64,1,11.77,11.77,0,0,0-.52,2.48A3.41,3.41,0,0,0,98,31.68c.44.33.83,1,1.59.52,0,0,.07,0,.11,0a.59.59,0,0,0,.3,0,3.73,3.73,0,0,0,.48-.33l.07.09.07-.41h.1l.14.29-.09-.09.9-1.06-.06-.06Z"/><path class="bbe503c0-86fc-48ee-90b6-eef4e6f28a54" d="M166.25,9c0-.29.07-.59.13-.89s.23-.82.27-1.24a2,2,0,0,1,.28-.85c.36-.62.73-1.22,1.12-1.81.09-.14.3-.2.41-.33.24-.29.46-.61.68-.92.42-.57.81-1.15,1.24-1.71a.85.85,0,0,0,.22-.66c0-.15.28-.42.49-.49a2.8,2.8,0,0,1,1,0c.13,0,.26.11.4.05s.43,0,.64,0l1,.09c.06,0,.14,0,.17,0,.38.38.85.18,1.29.22.2,0,.41,0,.66,0l.12-.24.33.41L177,.12a3.79,3.79,0,0,1,.56.78,17.81,17.81,0,0,1,.77,2.19,15.63,15.63,0,0,1,.23,1.55c.05.35.16.7.22,1.05,0,.13-.06.27,0,.38.05.3.1.59.13.88s0,.54,0,.88c0,0,.12,0,.12.06,0,.44,0,.88,0,1.32s-.3.78.14,1.1c0,0,.07.13.05.15-.32.34.12.61.07.92a6.86,6.86,0,0,0-.21,1.08c0,.58.06,1.17.09,1.75,0,.24,0,.47,0,.7a8.74,8.74,0,0,1,.12,1.11c-.06,1.73-.13,3.45-.25,5.17-.11,1.44-.25,2.88-.45,4.31s-.47,2.94-.78,4.39a29.66,29.66,0,0,1-.87,3.2,19.72,19.72,0,0,1-2.72,5.52,27.66,27.66,0,0,1-2.24,2.6,9.08,9.08,0,0,1-1.65,1.39,3.68,3.68,0,0,1-2.45.64,13.16,13.16,0,0,0-1.65.1,11,11,0,0,1-3.95-.6c-.87-.32-1.73-.71-2.56-1.11a3.34,3.34,0,0,1-1.12-.79c-.34-.43-.8-.71-1.15-1.13a8.25,8.25,0,0,0-1-.81c-.73-.6-1.46-1.19-2.16-1.83-.21-.19-.26-.55-.46-.77-.47-.53-1-1-1.47-1.54-.23-.26-.39-.57-.61-.83s-.33-.14-.44-.26c-.47-.55-.92-1.12-1.38-1.67l-.07.14s-.07-.06-.06-.08c.16-.55-.29-.8-.55-1.15s-.72-1-1.11-1.46-.75-.89-1.13-1.33l-.23-.31-1.13-1.53-.18,0c0,.49,0,1,0,1.46.06,1.07.12,2.14.21,3.21.07.89.18,1.78.27,2.67s.13,1.6.21,2.39a16.8,16.8,0,0,0,.3,2.13c.16.66-.29,1-.52,1.54s-.65.53-1.1.55c-.09-.5-.1-.5-.56-.23a.32.32,0,0,1-.14,0l-1.58-.14c-.06,0-.12-.08-.19-.1l-.68-.23c-.07,0-.19,0-.21,0-.22-.46-.72-.43-1.08-.58a1.22,1.22,0,0,1-.86-1.26c-.11-1.85-.28-3.69-.41-5.54C139,31,139,29.81,139,28.61c0-.92-.1-1.84-.14-2.77,0-.18.08-.37.08-.55s0-.61-.06-.91a4.62,4.62,0,0,1-.11-.61c0-.88,0-1.77,0-2.65a7.23,7.23,0,0,0,.11-1.37c-.11-.56.15-1.05.1-1.58a8.37,8.37,0,0,1,0-1.66,8.86,8.86,0,0,1,.34-1.19c.09-.32.17-.64.27-1a5.73,5.73,0,0,0,.63,0,.93.93,0,0,0,.34-.15c.31-.19.5,0,.74.2l.2-.45.33.27.07-.33a1.26,1.26,0,0,0,1.53.06,1.1,1.1,0,0,1,.37-.06l.88-.16v-.14c.2.14.41.26.6.4.54.43.4,1,.29,1.56s-.17,1-.24,1.5c-.2,1.36.8,2.14,1.49,3.07.37.51.8,1,1.19,1.47.86,1.07,1.73,2.14,2.58,3.22.7.9,1.35,1.82,2.06,2.7s1.44,1.69,2.16,2.53c.56.64,1.1,1.29,1.68,1.9s1.46,1.41,2.18,2.13,1.28,1.24,1.91,1.85,1.43,1.11,2.1,1.71a13.45,13.45,0,0,0,2.67,1.65.8.8,0,0,0,1-.16A11.25,11.25,0,0,0,168.67,36a22.74,22.74,0,0,0,1.17-2.31,9.74,9.74,0,0,0,.89-2.8,5.33,5.33,0,0,1,.35-.91c.16-.55.29-1.1.43-1.66a2.37,2.37,0,0,0,0-.33l-1.56,1.19a2.33,2.33,0,0,1-.35.27l-2.17,1.27c-.47.26-.84,0-1.21-.23,0,0-.07-.09-.1-.09a2.91,2.91,0,0,1-1.3-.29c-.15,0-.24-.24-.36-.38l-.18.22-.32-.41-.38.06-.41-.7-.21-1.09-.46.49-.24-1,.15-.62.27.55c.48-.24.19-.64.21-1,0-.53,0-1.07,0-1.61s.17-1.15.27-1.83l.2.46.25-1.58-.4.28.13-.65.28.09v-1l.15,0,.23-1.62.19-.12c-.27-.28-.11-.47.13-.67l-.12,0a11.72,11.72,0,0,1,.43-1.67c.12-.3.12-.68.49-.91.13-.09.07-.53,0-.8s-.1-.37.18-.45c0,0,.05-.17.06-.27a1.05,1.05,0,0,0,0-.5c-.14-.25-.38-.49-.4-.75s-.08-.72.51-.51c-.07-.28.44-.57,0-.76.28-.71.54-1.4.81-2.1Zm4.67,10.53c.59.23.13-.58.53-.53-.19-.4.16-.74.12-1.13a2.29,2.29,0,0,1,.1-.62l.21,0c.26,1.31-.21,2.58-.37,3.88a7.09,7.09,0,0,0,.45-1.32c.12-.5.21-1,.28-1.51s0-.94.14-1.41a.7.7,0,0,1,.24-.43s0-.12,0-.18l-.24.16a10,10,0,0,1,.09-1.06c0-.16.21-.29.21-.44,0-1.41,0-2.82-.05-4.23a15.36,15.36,0,0,0-.22-1.64.87.87,0,0,0-.47.35c-.59,1.18-1.16,2.36-1.73,3.55a9.07,9.07,0,0,0-.48,1.11c-.16.42-.27.86-.39,1.29-.34,1.18-.68,2.36-1,3.55-.15.58-.24,1.18-.37,1.76s-.32,1.17-.43,1.76a8.37,8.37,0,0,0,0,2.69l.82-.67h0a6.17,6.17,0,0,1,.54-.48c.26-.17.43-.35.35-.69s.41-.63.55-1a1,1,0,0,1,.3,0l-.06-1a1.42,1.42,0,0,0-.2.41l-.15.39-.09,0v-.47c-.6.13-.78.36-.65.76h-.35l.45-1.25.44.31a2.57,2.57,0,0,1,0-.49c.36-.09.15-.4.24-.59s0-.24,0-.36l.17,0,.11.77c.08-.24.15-.38.18-.52.13-.63.25-1.25.38-1.87,0-.08.1-.14.16-.21l.16.15-.32,1.16Zm6-8.13-.08-1.4C176.52,10.14,176.57,11.12,176.92,11.36Z"/><path class="bbe503c0-86fc-48ee-90b6-eef4e6f28a54" d="M44.65,44l0,0c-.09-.1-.27-.19-.27-.29a3.45,3.45,0,0,1,.13-.7l.18,0Z"/><path class="bbe503c0-86fc-48ee-90b6-eef4e6f28a54" d="M166.25,9l0,.39-.39.06c.06-.17.11-.35.17-.51Z"/><path class="bbe503c0-86fc-48ee-90b6-eef4e6f28a54" d="M52.6,17.91l-.08.07-.24-.27.3-1.05.08,0Z"/><path class="bbe503c0-86fc-48ee-90b6-eef4e6f28a54" d="M51.23,20.75l.16-1.42v1.44Z"/><path class="bbe503c0-86fc-48ee-90b6-eef4e6f28a54" d="M51.78,26.86l-.13-1,.15,0,.21,1Z"/><path class="bbe503c0-86fc-48ee-90b6-eef4e6f28a54" d="M51.37,21.16l.08,1H51.3l-.12-1Z"/><path class="bbe503c0-86fc-48ee-90b6-eef4e6f28a54" d="M44.63,52.6l.26,1-.19,0-.23-1Z"/><path class="bbe503c0-86fc-48ee-90b6-eef4e6f28a54" d="M170.9,19.5l0-.73c0-.12,0-.23,0-.35l.25-.58A2.39,2.39,0,0,1,170.9,19.5Z"/><path class="bbe503c0-86fc-48ee-90b6-eef4e6f28a54" d="M170.8,16.18c.34.7,0,1.29,0,1.89h-.13Z"/></svg>