<svg id="ae775d33-5cac-4c09-8f1e-534ca119eea2" data-name="Layer 1" xmlns="http://www.w3.org/2000/svg" viewBox="0 0 179 158.93"><defs><style>.a956d036-9e4a-44f4-8492-8229b231c0ae{fill:#019084;}.a36af2f2-7a49-40c1-93ae-642270f837f8{fill:#4e4e4e;}</style></defs><path class="a956d036-9e4a-44f4-8492-8229b231c0ae" d="M47.37,11.16H168.73c7.3,0,10.27,3,10.27,10.24V126.72H99.61V115.13c2.41,0,4.9,0,7.38,0,3.92,0,5.35-1.48,5.38-5.41v-2.51c0-4.06-.92-5.14-4.92-5.6a2.21,2.21,0,0,1-2.1-1.76,7.19,7.19,0,0,1,0-4.06,2.59,2.59,0,0,1,2.94-2.2c2.67.15,5.34.07,8,0,4.33,0,7.12-2.59,7.17-6.9q.15-14.62,0-29.26c0-4.21-2.68-6.75-6.89-7l-1.56-.07c-.64-.79-.38-1.66-.38-2.47,0-7.09,0-14.18,0-21.26a4.55,4.55,0,0,0-4.4-4.87c-2.54-.08-4.41,1.77-4.65,4.62-.06.68,0,1.37,0,2.06V50.34H78.2c-.55-.74-.28-1.61-.29-2.41,0-6.86,0-13.72,0-20.58,0-3.39-1.69-5.45-4.46-5.52S68.76,24,68.75,27.39c0,6.79,0,13.57,0,20.35v2.37c-.32.19-.44.33-.56.33-5.78-.32-8.41,3.38-8.28,8.7C60.14,68.05,60,77,60,85.89c0,5.2,2.52,7.73,7.69,7.74,2.21,0,4.43.08,6.63,0a2.29,2.29,0,0,1,2.45,1.58c1.41,3.2.45,5.53-2.76,6.64-2.68.93-3.67,4.08-2.93,9.25.37,2.56,2,4,4.71,4,2,0,4,0,6,0H84v11.56H0V8.27C0,2.67,2.63,0,8.26,0q15,0,30,0C44.48,0,46.91,2.46,47,8.74A3.58,3.58,0,0,0,47.37,11.16Z"/><path class="a956d036-9e4a-44f4-8492-8229b231c0ae" d="M92.09,57.88A15.55,15.55,0,1,1,91.73,89a15.55,15.55,0,1,1,.36-31.1Z"/><path class="a36af2f2-7a49-40c1-93ae-642270f837f8" d="M57.35,141.86l-2.1-.34V138h9.56v3.5l-2.15.36c0,2.67,0,5.32,0,8,0,3.29-.75,6.28-4,7.83a10.35,10.35,0,0,1-10.46-.55c-2.45-1.54-3-4.06-3.09-6.75s0-5.48,0-8c-.58-1.07-1.61-.35-2.22-1.07v-3.22h9.63v3.44l-2.14.34c0,3.18-.07,6.28,0,9.39.06,2.05,1.47,2.9,3.35,3,2,.13,3.52-1,3.61-3C57.46,148.2,57.35,145.09,57.35,141.86Z"/><path class="a36af2f2-7a49-40c1-93ae-642270f837f8" d="M88.71,144.82H84.54c-.15-1.72-.87-2.86-2.87-2.87-2.57,0-5,.24-6.17,2.9a7,7,0,0,0,.76,7.35c1.65,2.22,4.1,2.45,6.61,2.06,1.61-.25,1.79-.62,1.7-2.6l-2.88-.14a9.89,9.89,0,0,1-.12-3.64h7.61a40.85,40.85,0,0,1,.11,7.17A2.55,2.55,0,0,1,88,156.88c-5.31,4.14-15,1.68-17.66-4.47-3.37-7.8,2.76-15.78,11.41-14.84.75.09,1.51.22,2.25.37C88.3,138.82,89.22,140.14,88.71,144.82Z"/><path class="a36af2f2-7a49-40c1-93ae-642270f837f8" d="M175.54,146.05v3.74c-1.86.67-3.8,0-5.75.48v3.9c1.21.45,2.51.11,3.74.19.8-.46.13-1.34.73-2h3.84c.52,1.93.13,3.86.23,5.92h-16c-.47-1.11-.08-2.24-.23-3.2.6-.81,1.43-.33,2.15-.82V141.88l-2-.37a9.2,9.2,0,0,1,0-3.47h15.61v5.72a11.61,11.61,0,0,1-3.94.13c-.63-.49-.17-1.22-.63-1.81H169.9a8.49,8.49,0,0,0-.08,4Z"/><path class="a36af2f2-7a49-40c1-93ae-642270f837f8" d="M7.77,154.38l1.91.37a7.35,7.35,0,0,1,0,3.55H.29a8.78,8.78,0,0,1-.19-3.21c.56-.85,1.55-.21,2.17-.88V141.9l-2.11-.41V138c4.09,0,8.12-.2,12.12.07,3.38.22,5.64,3.39,5.51,7s-2.53,6.34-6,6.6c-1.29.1-2.58,0-3.78,0A3.06,3.06,0,0,0,7.77,154.38ZM7.7,147.7c1.78-.08,3.54.53,4.5-1.26a3.21,3.21,0,0,0-.14-3.46c-1.15-1.55-2.79-1-4.36-.82Z"/><path class="a36af2f2-7a49-40c1-93ae-642270f837f8" d="M105.28,141.4V138h15.1v5.9c-1.69-.32-3.55,1-4.67-1.44-.26-.58-1.85-.21-2.87-.09-.46,1.27-.06,2.57-.25,3.94,2,.59,4,0,6,.37v3.86h-5.78v3.85l2.39.34a8.34,8.34,0,0,1-.06,3.55h-9.68a9.92,9.92,0,0,1-.19-3.19c.54-.93,1.57-.21,2.18-1v-12C106.82,141.4,106,141.89,105.28,141.4Z"/><path class="a36af2f2-7a49-40c1-93ae-642270f837f8" d="M30.25,154.27h4.17l.2-2.61c1.33-.58,2.68-.12,4.15-.31v7H22.93c-.55-1.11-.29-2.28-.19-3.56l2.07-.39V142.14l-2-.29a9.35,9.35,0,0,1-.08-3.8h9.58v3.77l-2.09.3Z"/><path class="a36af2f2-7a49-40c1-93ae-642270f837f8" d="M141.08,158.34v-3.59l2.12-.32V142.3c-.51-.7-1.46,0-2.12-.62V138h9.47v3.64c-.41.7-1.42,0-2.05.67v11.87h4.35v-2.55a10.55,10.55,0,0,1,4.27-.19v6.86Z"/><path class="a36af2f2-7a49-40c1-93ae-642270f837f8" d="M135.12,138.06a8.7,8.7,0,0,1,.14,3.16c-.49.85-1.53.12-2.14.92v12.23l2,.37a7.43,7.43,0,0,1,0,3.57h-9.37c-.54-1.07-.07-2.21-.27-3.14.61-.93,1.59-.29,2.23-.95V142.07c-.58-.65-1.38-.19-2-.61a9.16,9.16,0,0,1-.06-3.4Z"/></svg>