<svg id="b750d6b5-62e7-47e4-b33d-1e99534d81bc" data-name="Layer 1" xmlns="http://www.w3.org/2000/svg" viewBox="0 0 179 184"><defs><style>.bef455bc-1bcf-47bb-83c4-3d50178c0e51{fill:#040303;}.f50969b7-5061-47bb-934a-32a0dfb1f4ac{fill:#c5011c;}</style></defs><path class="bef455bc-1bcf-47bb-83c4-3d50178c0e51" d="M30.35,42.86A48.47,48.47,0,0,1,19.24,30.22c-2.65-4.13-2.61-7.22.26-11.32a6.64,6.64,0,0,1-.82-5.27,6.19,6.19,0,0,1,8.44-4.4,1.23,1.23,0,0,0,1.41-.06C33.6,5.84,39.31,5.24,45.17,5.44,49.58,5.59,54,6,58.4,5.9a31.14,31.14,0,0,0,4.53-.42c2.38-.39,3.55.09,4.78,2.15a12,12,0,0,0,2.34,3.49,6.85,6.85,0,0,0-2.89,6.56,8.9,8.9,0,0,1,3.09-.44A6,6,0,0,1,76,10.5c3.15-.06,5.31,1.63,6.22,5a5.77,5.77,0,0,1,4,1.6c.92.89,1.71-.44,2.66,0-.53-2.19,0-3.82,2-4.79a1,1,0,0,0,.48-.51c1.71-3.15,4.58-4,7.54-2a4.72,4.72,0,0,0,3.16.73,84.16,84.16,0,0,1,8.88-.3A15.67,15.67,0,0,1,111.37,8a5.89,5.89,0,0,1,4.3-3.64,56.93,56.93,0,0,1,9.06-1.69c2.1-.21,4.14-.58,5.78-2.19.93-.91,4.08-.3,5.53.83a7.64,7.64,0,0,1,2.78,4.88c.71,4.07,2.51,8,2,12.33,4.4-5.9,9.82-10.86,14.26-16.87,2.43,2.23,5,1.36,7.58.41,1.24-.46,2.46-1,3.73-1.32a5.83,5.83,0,0,1,6.87,2.67,11.18,11.18,0,0,0,2.85,3.05c3.58,2.67,3.89,7.21.86,9.9a6.52,6.52,0,0,1-3.09,1.22,1.16,1.16,0,0,0-1,1c-.23.95-.56,1.88-.87,2.8-.57,1.68-1.34,3-3.4,3.33s-3.41,2-4.72,3.56C162.32,30,161.28,32.07,160,34a8.44,8.44,0,0,0,2.86,1.82c2.61,1.21,4.7,2.84,5,6,5.12-.28,7.87,1,8.83,4.11s-.37,5.88-3.45,7.73c.9,3.71,1,7.65,2.55,11.23a3.37,3.37,0,0,1-2.84,4.58c-.73,0-1.46,0-2.08,0-3.35,4.28-3.69,9.36-4.2,14.49,4.52-.66,4.53,3.7,6.7,5.68-.67.77-1.34,1.47-1.91,2.24a6.12,6.12,0,0,0-.84,2.92,7,7,0,0,1,4.9,3.8,5.33,5.33,0,0,1-3,8c-.46.17-1,.21-1.05.86a9.51,9.51,0,0,1-3.06,5.74,13.57,13.57,0,0,0,6.13,3c3.12.8,4.55,2.32,3.68,6.35a4,4,0,0,0-.28,1.42,3.88,3.88,0,0,1-1.77,3.8,2.53,2.53,0,0,0-1,1.95c-.38,3.57-1.33,6.92-3.78,9.69a2.36,2.36,0,0,0-.45.91c-2.22,7.91-5.14,15.61-7.26,23.56-.27,1-.14,1.58.79,2.11a14.65,14.65,0,0,1,3.81,3,5.44,5.44,0,0,1,1.11,6c-1,2.4-3.06,3.33-5.47,3.62a8.38,8.38,0,0,1-3.31-.24c-.22,1.93-.44,3.82-.67,5.8h-5.65c1.23-3.56.23-6.92-.66-10.28-.82-3.09-1.12-6.18.11-9.24a3.57,3.57,0,0,0-.21-2.43c-1-3.13-2.64-6-3.54-9.49-1,1.24-2,2-1.85,3.7.26,2.4-.37,4.77-.77,7.14a11.49,11.49,0,0,0,.06,5c-.17.18-.22.28-.3.31-3.74,1.51-4.18,1.64-6-2.72a34,34,0,0,1-2-8.86c-.71-5.33-3.69-8.79-8.41-11-.49-.23-1-.38-1.47-.65a2.78,2.78,0,0,0-3.27.07c-3.31,2-6.4.2-6.58-3.6,0-.19,0-.39-.25-.54-.69,0-.64.72-.81,1.15a69.33,69.33,0,0,0-2.17,7.77,34.57,34.57,0,0,1-2.46,6.73c-.68,1.28-.19,2.7-.14,4a12.05,12.05,0,0,1-1.12,6.42,1.54,1.54,0,0,1-2,.87,5.45,5.45,0,0,1-4.32-5.12,11.13,11.13,0,0,1,0-2.94c.63-3.78-.24-7.39-1.17-11-.4-1.57-1-3-2.72-3.56-.74-.26-.64-1-.78-1.47a74.5,74.5,0,0,1-1.77-11.61c0-.23,0-.46-.07-.59-2.51,4.12-6.15,7.42-8.81,11.48a6.23,6.23,0,0,0-1.32,3.11c-.18,2.56-1.08,3.52-3.22,3.88-1,.17-1.46,0-3-1a6.32,6.32,0,0,0-1.06,3.28c-.26,2.92-.25,5.92-2.78,8.1-.28.24-.24.92-.28,1.39-.07.88-.06,1.77-.13,2.65-.24,3.08-1.32,4.34-4.55,5.23-1.34-5.9-5.35-10.57-7.4-16.34a13.76,13.76,0,0,0-1,4.1,15.55,15.55,0,0,1-2.53,7,1.76,1.76,0,0,0-.2,1.39c.27,3.83-.42,7.59-.75,11.46a13.9,13.9,0,0,1-6-7.54c-1-2.94-1.42-6.11-3.05-8.86a1.38,1.38,0,0,1-.08-.71c.41-9-3.82-15.54-10.61-20.82-.35-.27-.72-.51-1.09-.76-.2-.13-.42-.24-.67-.39-1.06.65-1.16,1.74-1.23,2.81s0,2.16,0,3.23c-.1,2.28-.82,4.16-3.28,4.81-.6.16-.68.63-.87,1.07a14.43,14.43,0,0,0-.71,6.8C35.06,161.32,36,165.11,36,169c0,1.43-.84,2-1.8,2.56a3.91,3.91,0,0,1-3.4.22c-.43-.15-.4-.54-.46-.85-1.74-10-5.1-19.49-7.83-29.19-.21-.75-.43-1.5-.72-2.5a18.63,18.63,0,0,0-.93,5.85,54.91,54.91,0,0,0,0,5.88,2.77,2.77,0,0,1-2,2.94,4,4,0,0,1-5.5-3.21c-.57-3.59-.36-7.25-1.13-10.81a9.14,9.14,0,0,0-1.17-3.61c-1.56-2.11-1.46-4.42-1.36-6.83.32-7.65.32-15.3.31-23v-15c-.2-.06-.34-.15-.46-.13-3.44.69-6.15-1.74-6.42-5.53a1.91,1.91,0,0,0-.93-1.75c-2.36-1.53-3.1-6-1-8.39C4,72.49,7.66,71.82,11.6,71.93c.64,0,1.27.12,1.89.18,2-4.91,6.41-6.7,10.48-4.27a4.08,4.08,0,0,1,1.23,1c.77,1,.78,1,2.18.79L27.82,68c-1.52-.69-3-1.34-4.44-2a10.59,10.59,0,0,1-3.33-2.38,5.11,5.11,0,0,1-1.38-3.44c-.05-4.37-.12-8.73.13-13.09.18-3.21,2.16-5,5.42-5a15.23,15.23,0,0,1,5.88,1.13c.15,0,.32.28.47.06S30.5,42.94,30.35,42.86Zm14-17.94,0,.07.07,0c.09.29.35.28.59.33s.23.36.51.11L45,25.32C44.92,25,44.48,25.17,44.37,24.92Zm2.49,1.41.65,0c-.26-.3-.46,0-.65,0,0-.71-.6-.39-.65-.45A1.29,1.29,0,0,1,46.86,26.33ZM38.6,89.63c-2.44-4.28-2.31-9.31-3.77-14a10.12,10.12,0,0,1-3.72,1.25,2.35,2.35,0,0,1-2.26-.77,13.73,13.73,0,0,1-1.36-2.57c-.25-.6-.56-.91-1.19-.73a2.82,2.82,0,0,1-3-.94l-.73,1.47c-.22-1.07-.39-1.77-.51-2.49a1.12,1.12,0,0,0-1-1c-2-.41-4.64.79-4.5,3,.06,1-.58,1.57-1.47,2-1.16.52-2.31.16-3.48.09-2.59-.14-5.11.11-7.25,1.78-1.57,1.22-1.57,2.38-.11,3.76,1,1,2.32,1,3.84.89-.26.41-.4.61-.51.81a3.57,3.57,0,0,0,.18,4.15c.86,1.12,1.95,2,3.53,1.23a.48.48,0,0,1,.66.12,3.21,3.21,0,0,0,2.67,1.17A8.18,8.18,0,0,0,13,94.4c0,3.63,0,7.27,0,10.9,0,3.14.18,6.29,0,9.42-.28,3.75,1.74,7.07,1.64,10.82,0,1.55-.48,3.2,0,4.76a29.67,29.67,0,0,1,1.05,6.62c.08.79.32,1.36,1.23,1.27S18,137.47,18,136.7c0-.93-.06-1.86-.11-2.79a1.1,1.1,0,0,1,.63-1.19,8.25,8.25,0,0,0,3.8-4.51,1.64,1.64,0,0,1,2.45-1,3,3,0,0,1,1.86,2.28,34,34,0,0,0,.89,3.4,18,18,0,0,1,1.09,8.53,13.84,13.84,0,0,0,.91,6.71c.3.89.6,2.44,2.08,1.85,1.64-.65.45-1.78.08-2.69a3.08,3.08,0,0,1,.2-3.05c.77-1.41,1.94-2.65,2.31-4.3a19.36,19.36,0,0,0,.55-4.21c0-2.4,2.4-3.24,3.3-5.06.06-.1.49-.12.7,0a5.33,5.33,0,0,0,2-.05c1,0,2.23-.46,3.09.35a3.46,3.46,0,0,0,2.08.88,8.55,8.55,0,0,1,2.69.66,1.73,1.73,0,0,0,2.58-.89,10.92,10.92,0,0,0,1.17-3.45,2.34,2.34,0,0,1,1-1.89,14.23,14.23,0,0,0,4.28-5.16,4.54,4.54,0,0,1,3.15-2.57,7.4,7.4,0,0,0,2.62-1.3c2-1.38,2.49-2.63,1.51-4.89-1.67-3.87-5-6.22-8.11-9.08l-.44,2.29H50.82c1.29-3.82.07-7.34-.82-10.9a13.79,13.79,0,0,1,.27-8.68,1.88,1.88,0,0,0,.1-1.15c-.82-3.68-2.87-6.9-4-11-.63,1.35-1.88,1.84-1.76,3,.45,4.48-1.65,8.78-.76,13.28a13.94,13.94,0,0,0-1.62.65c-.46.25-1.07.12-1.44.56.08.77.65.62,1.11.66a2,2,0,0,1,1.64,3.14,6.86,6.86,0,0,1-9.22,2.56,3,3,0,0,1-1.69-2.73c0-.74,0-1.48,0-2.21a3,3,0,0,1,3.13-3.08ZM64.74,60.15c3.1-4.62,3.93-6.63,4.07-9.92A43.38,43.38,0,0,0,68.33,42a2.72,2.72,0,0,0-1-1.73,39.08,39.08,0,0,0-8.27-5.57c-5.26-2.79-10.92-4.65-16.34-7.06-1.37-.61-2.59-1.24-2.31-3.08a1.25,1.25,0,0,0-.42-.91c-1.54-1.45-1.17-3.25-1.15-5l4.36-.62c.48-.07,1-.22,1.32.32,1,1.77,2.76,2.36,4.72,2.63,0,1.47.52,2.59,2,2.78a2.6,2.6,0,0,0,2.93-1.88c2.33,1.17,2.5,1.35,3.61,3.35a2.09,2.09,0,0,0,.77.86c1.26.55,2.34,1.4,3.53,2,1.69.9,3.18-.12,3.11-2a44,44,0,0,0-.7-5.24c-.51-3.28-.77-6.55,1.14-9.56.61-1-.26-1.64-.64-2.38s-.89-.73-1.62-.59a29.56,29.56,0,0,1-5,.47c-4,0-8-.16-11.92-.38-4.67-.25-9.33-.16-13.74,1.75a6.78,6.78,0,0,0-2.52,1.47c-1.69,1.89-1.75,1.92-4,.59a3.12,3.12,0,0,0-4.76,1.89A3.76,3.76,0,0,0,22.62,18c-.49.82-1.48,1.07-1.81,1.85.2.62.89.16,1.08.6,0,.48-.77.81-.33,1.2.75.69.24,1.31,0,1.86-1.22,2.74-.21,4,3,4.76,1.18.26,1.53.68,1.51,1.82a4.41,4.41,0,0,0,4,4.68c.3.06.71-.11.9.3-1.09,2.54-.91,3.87.61,4.65s2.45.16,3.61-2c.67.15,1.23.45,1.19,1.23a2.46,2.46,0,0,0,2,2.83c.27.07.36.3.5.5,1.31,1.94,2.29,2.09,4.15.67a2,2,0,0,1,3.15,1.25,25.28,25.28,0,0,0,1,4.43A3.05,3.05,0,0,1,44.48,53a10.6,10.6,0,0,1-7.13-1.75c-1.93-1.17-3.72-2.56-5.61-3.79A13.25,13.25,0,0,0,24.46,45c-2.07,0-2.62.46-2.74,2.5-.27,4.2-.09,8.39-.06,12.58,0,1.83,2,3,3.4,2A2.43,2.43,0,0,1,28,61.92a11.66,11.66,0,0,0,2.07.76c.67.17.86.52,1,1.2.92,4.4,2.65,5.51,5.69,5.09.12,0,.26.09.4.14a15.64,15.64,0,0,0,.36,2.47c.48,1.16,1.62.13,2.29.73-.1.52-.85.67-.8,1.28,2.11.37,4.67-1.2,6-3.7a26.48,26.48,0,0,0,4.52-.3,1.18,1.18,0,0,1,.85.08c1,.65,2.21,3.78,2,5.06a12.18,12.18,0,0,0-.13,5.1,2,2,0,0,0,2.39,1.83,2.37,2.37,0,0,0,2.23-2.31c0-.69,0-1.38-.05-2.06a4.22,4.22,0,0,1,1.86-3.92c1.17-.8,1.23-2.08.38-3.36a3.44,3.44,0,0,1-.52-3.27c.56-1,2-.77,3.1-.45,1.86.52,3-.06,3.55-2,.36-1.23.51-2.53.75-3.8Zm102.31,6.51c.39,0,.58-.06.77-.06,3.23,0,4.58-1.74,3.88-4.93s-1.37-6.62-2.08-9.92a1.72,1.72,0,0,1,.93-2.08c.86-.48,1.64-1.07,2.48-1.58,1.07-.63.9-1.4.27-2.21a4.44,4.44,0,0,0-4.72-1.12c-.7.2-1.45,1.12-2.16,0-.44-.7-1.49-1.11-1.49-1.93,0-2.56-1.72-3.56-3.64-4.48a10,10,0,0,1-4.2-3.12,2.78,2.78,0,0,1-.16-3.22c1.82-3.47,3.56-7,5.27-10.52a1.93,1.93,0,0,1,1.1-1A15.09,15.09,0,0,0,169.93,15c.69-1,1.3-1.78,2.71-1.79,1.15,0,2.86-1.79,2.8-2.72-.09-1.21-1.11-1.78-2-2.33a10.91,10.91,0,0,0-1.5-.6c-.37-.14-.67-.28-.73-.79-.33-2.82-2-3.9-4.65-3.08-1,.3-1.92.75-2.89,1.09-2.37.84-4.74,1.69-7.3.9-.66-.2-.88.25-1.18.62-5.41,6.56-11.85,12.33-15.59,20.68A37.8,37.8,0,0,1,138,21.21c-.36-3.94-.25-7.92-1.48-11.76-.51-1.57-.55-3.3-1.42-4.77a2.51,2.51,0,0,0-3.92-1,9.76,9.76,0,0,1-2.68,1.19,22,22,0,0,1-5.5.91c-2.46,0-4.6,1.46-7,1.51a2.07,2.07,0,0,0-1.36.83c-1.16,1.31-.88,2.27.79,2.67a11.74,11.74,0,0,1,7.49,5.3,21.93,21.93,0,0,0,2.27,3.07,4.43,4.43,0,0,0,3.7,1.79c.81-.07,1.09.31,1.25,1.07a38.27,38.27,0,0,1,.87,9,10,10,0,0,1,1,.32A7,7,0,0,1,136,39c-.41,2.71-2.87,5.41-5.46,5.07a24.6,24.6,0,0,0-10.15,1,1.45,1.45,0,0,1-.3,0c-1.71.18-1.78.29-1.27,2a6.07,6.07,0,0,0,.85.06c4.71-.4,10.37,5.46,8.14,11.08-.21.54-.36,1.12-.58,1.66-1,2.47-1.69,4.86.14,7.37a2.73,2.73,0,0,0,2.33,1.41,6.75,6.75,0,0,0,2.39-.68c1.09-.42,2.09-.9,3.28,0,.84.63,1.9-.11,1.92-1.19a7.53,7.53,0,0,0-.19-1.31c-.38-2.22-.88-4.49-.12-6.68a10.76,10.76,0,0,0,.53-4.31,31.44,31.44,0,0,1,2.25-13.2c3.36,9.39,10.5,15.5,16.77,22.28l1.87-.53c.38,1.26,1.78,2,1.55,3.42a10.56,10.56,0,0,0,.34,4.93c.31,1,.73,2.12.16,3.15a4.48,4.48,0,0,0-.25,3c.14,1,.84,1.31,1.71.83a5.43,5.43,0,0,0,3-3.47C165.48,72.12,167.57,69.75,167.05,66.66ZM128.47,112c.28.33.46.56.66.78,1,1.08,1.75,2.5,3.49,2.66a3.65,3.65,0,0,1,2.85,1.75,4.41,4.41,0,0,0,5.58,1.15c.82-.4,3.73.19,4.14,1a14.91,14.91,0,0,0,5.54,5.36,1.52,1.52,0,0,1,.82,1.69,4.65,4.65,0,0,0,.81,3.77c.89,1.11-.22,1.55-.69,2.18a1.09,1.09,0,0,1-1.77.14,2.6,2.6,0,0,0-2.08-.87,10.38,10.38,0,0,1-7-1.74c-2-1.25-4-2.67-6-4a13.4,13.4,0,0,0-7.18-2.32c-1.63,0-2.48.67-2.52,2.28-.07,2.21-.1,4.42-.16,6.63,0,.47,0,.89-.5,1.26-1.19.82-1.49,2.19-1.78,3.5-.21.91.08,1.62,1.18,1.66-.14.56-.55,1,0,1.43a2.28,2.28,0,0,0,2.34.44,7.7,7.7,0,0,0,2.17-1.49,1.36,1.36,0,0,1,1.8-.22,14.25,14.25,0,0,1,4.85,3.43,8.94,8.94,0,0,0,3.24,2.26c1.1.5,2.31.85,2.14,2.46a.91.91,0,0,0,.41.75c2,.82,1.31,2.46,1.24,3.93a12.06,12.06,0,0,0,0,1.9c.09.85.55,1.41,1.47,1.25a1.25,1.25,0,0,0,1.13-1.58,9.53,9.53,0,0,1,.65-4.75c.12-.36.15-.89.62-.91,1.57-.06,1.56-1.18,1.56-2.37a48,48,0,0,0,7.58-3,13.19,13.19,0,0,1,.15,3.89,2,2,0,0,1-.5.06c-.92-.09-1.77.11-1.94,1.12s.58,1.39,1.43,1.54c.57.1.78.48,1,.95.83,1.94,1.72,3.85,2.53,5.8,1.25,3,1.89,6.05.67,9.27-.51,1.34,0,1.82,1.42,1.62a62.92,62.92,0,0,1,2.19-8.25c.6-1.89.74-3.64-.59-5.4.94-.06,1.83,0,2.13-1,.34-1.19-.78-1.4-1.4-2a18.16,18.16,0,0,0,2.28-6.19,18.38,18.38,0,0,1,2.27-6.34c1.34-2.27,1.95-4.88,3.39-7.11a4.89,4.89,0,0,0,.67-2.53,4.91,4.91,0,0,1,1.47-3.37,7.92,7.92,0,0,0,.91.22c1.69.21,2-.24,1.47-1.88a10.11,10.11,0,0,0-1.76-3.22c-.67-.78-1.36-1.7-2.45-1.74a3.75,3.75,0,0,1-2.09-.9c-.84-.6-1.68-1.19-2.55-1.74a78.08,78.08,0,0,0-12-5.82c-.48-.2-1-.27-1.18-.94a1.84,1.84,0,0,0-2.79-1.22,1.2,1.2,0,0,1-1.21.08,34.88,34.88,0,0,1-5.38-2.65A30.39,30.39,0,0,0,144,98c1.35.3,2.58-.4,3.53.4,2.31,2,5.12,2.59,7.95,3.23,1.6.36,3.29.41,4.76,1.34,2.72,1.72,4.33,1.64,6.95-.26.88-.64,1.67-1.21,2.91-.59,1,.51,1.87-.14,2.47-1s.13-1.42-.39-2.09a4.23,4.23,0,0,0-2.78-1.47c-.56-.11-1.18.1-1.75-.31-.18-2.3-.24-4.66,1.07-6.67.92-1.39.2-2.27-.42-3.29-.35-.56-.91-.5-1.46-.39s-.46.65-.5,1.06c-.2,2.4-.35,4.8-.62,7.18a13.15,13.15,0,0,1-1.46,5.21,3.17,3.17,0,0,1-3,1.81,2.91,2.91,0,0,1-2.41-2.3,18.27,18.27,0,0,1-.79-4.93q-.17-3.72-.33-7.4c-2.22-.66-4.49.85-6.62-.67,1-.66,1.89-1.3,2.82-1.9a3.69,3.69,0,0,0,1.46-1.62,1.13,1.13,0,0,0-.21-1.35c-1.23-1.25-4.15-.63-4.76,1-.92,2.48-1.45,2.67-3.94,2-2.33-.6-4.28-.85-5.46,2.21-.56,1.46-1.39,2.82-2,4.28a18,18,0,0,1-4.93,7.7,25.4,25.4,0,0,0-1.85,1.89l-7.85,8.31c1.17,1,1.62,2.43,2.76,3.32Zm-13.77-36a5,5,0,0,1,1.85,2c.51.85,1,1.83,2.22,1.53s1.5-1.26,1.71-2.34c.35-1.81.23-3.72,1.11-5.44a1.68,1.68,0,0,0-.23-1.54,2,2,0,0,1,.31-2.66,2.5,2.5,0,0,0,.7-1.1c.92-3.39,1.74-6.81,2.86-10.14a3.24,3.24,0,0,0-.24-2.58c-1.55-3-3.74-4-7-3.48-2.32.38-4.63.78-7,1-2.77.22-4.06-1.86-5.82-3.26a.65.65,0,0,1-.19-.53c.41-2.36-.29-4.69-.12-7a1.15,1.15,0,0,1,.64-1.16,17.37,17.37,0,0,1,13.91-1.56,10.59,10.59,0,0,0,5.93.28,15.78,15.78,0,0,1,5.5-.75c.75.06,1.85,0,1.9-.93s-.82-1.72-1.8-2.08a3.2,3.2,0,0,0-.88,0c-1.7,0-2.05-.39-2-2.12a47.62,47.62,0,0,0-.15-5.73c-.14-1.56-.46-2.74-2.24-3a3.06,3.06,0,0,1-1.11-.69A15.8,15.8,0,0,1,120.64,18a9.16,9.16,0,0,0-6.47-4.44,42.74,42.74,0,0,0-15.52.54c-.54-1.3-1.46-2.49-3.28-2.33-2,.18-.9,2.22-1.78,3.09-.66.15-1.49-.28-2,.64,1,.88,2.23,1.56,2.73,2.89-2.37,1.29-2.37,1.29-2,4,0,.14,0,.29.06.44.32,1.81-1.5,3.24-1,5a21.37,21.37,0,0,1,1.16,5.28c.09,10.15-1.49,20.13-2.83,30.15A2.07,2.07,0,0,0,90,65q2.7,3.4,5.3,6.88a1.21,1.21,0,0,0,1.22.62,2.65,2.65,0,0,1,3,1.57,4.22,4.22,0,0,0,1,1.08c1.24,1.14,2,1.12,3.09-.14a2.08,2.08,0,0,1,1.8-.78,4.61,4.61,0,0,1,4.35,3.46,1.89,1.89,0,0,0,1.56,1.56,1.68,1.68,0,0,0,1.79-1A6.2,6.2,0,0,1,114.7,75.94ZM66.88,142.66a3.93,3.93,0,0,1,3.19,2.56,13.59,13.59,0,0,1,1.32,4.49c.07.77.32,1.63,1,1.84,1.61.5,1.67,1.63,1.67,3a2,2,0,0,0,2.27,2.28,2.09,2.09,0,0,0,2.27-2.3,24,24,0,0,0-.7-6.27,6.6,6.6,0,0,1,.26-3.53c2.43.54,3.13.14,4-2.23a3,3,0,0,1,3.44-1.79A2.08,2.08,0,0,0,88.3,139c.29-1,.61-2,.86-3a1.7,1.7,0,0,1,1.37-1.32c3.57-1,7.08-6,7.1-9.72,0-1.32.21-2.69,1.64-3.52a3.47,3.47,0,0,0,1.67-3.12,3.54,3.54,0,0,1,1.42-3,2.26,2.26,0,0,0,.61-2.78,17.09,17.09,0,0,0-2.91-4.74c-1.37-1.67-2.83-3.27-4.09-5-1.75-2.41-3.09-5-3-8.14a1.28,1.28,0,0,0-.49-1.15c-2.37-1.91-4.49-4.12-7-5.88-.3-.21-.55-.6-1.1-.36,0,.66.08,1.34.14,2A30,30,0,0,1,84.18,97c-.08.52-.23.94-.79,1.11A6.4,6.4,0,0,1,78.93,98c-1.57-.68-2-1.59-1.54-3.23.73-2.8.07-6.66-1.46-8.37a5.06,5.06,0,0,0-.14,1c.2,3.59.93,7.22-.78,10.67a.89.89,0,0,0,0,.29c-.18,3.33-.2,6.68-.62,10a2.9,2.9,0,0,0,1.76,3.24c.59.35,1.27.69,1.23,1.51a2.44,2.44,0,0,0,1.25,2.15,8.27,8.27,0,0,1,1,12.23,13.9,13.9,0,0,1-10.14,4.65c-3.35.18-6.41-1-9.62-2.29-1.94,4.81-6.86,5.28-11,7.3,1.32,1.14,2.48,2.11,3.59,3.12a6.54,6.54,0,0,1,2.24,2.84,57.65,57.65,0,0,1,1.79,9.95c.22,2.07.65,4.16,2.61,5.48-.17.63-.35,1.24-.49,1.86a1,1,0,0,0,.74,1.26.93.93,0,0,0,1.29-.62,10.93,10.93,0,0,0,.38-1.27c1-3.52,2-7.05,3-10.57a2.06,2.06,0,0,0-.09-1.81c-.38-.67-.49-1.46.31-2A8.12,8.12,0,0,0,66.88,142.66Zm48.38-49.08A1.32,1.32,0,0,1,114,93a3.34,3.34,0,0,0-3.3-1.37c-.95.15-1.53-.54-2.07-1.18a7.43,7.43,0,0,1-1.5-3.17,6.41,6.41,0,0,0-1.58-2.93c-.7-.77-1.51-1.48-1.5-2.7a19.72,19.72,0,0,1-2.19,1.61A2.44,2.44,0,0,1,98.08,82a30.46,30.46,0,0,0-2.92-5.27c-.25-.35-.43-.7-1-.69a9.58,9.58,0,0,0-9,6.45,1.25,1.25,0,0,0,.56,1.74c3.55,2.22,6.43,5.29,9.69,7.89A1.31,1.31,0,0,1,96,93.33c-.47,3.51,1.17,6.25,3.18,8.88,1.52,2,3.34,3.73,4.75,5.82,2.3,3.41,3.17,7,1.62,11a43.73,43.73,0,0,1-2.75,6.18,2.8,2.8,0,0,0-.52,1.35,55.55,55.55,0,0,0,.48,7.61c.62-.11,1.29-.09,1.29.6,0,1.43.9,2.37,1.6,3.39.84,1.23,1.83,2.38,2.74,3.53a6.38,6.38,0,0,1,1.16,5.71c-.21.74-.2,1.55.82,1.7s1.17-.68,1.26-1.43c.13-1.12-.17-2.37,1.32-3,.47-.18.57-.91.64-1.43.16-1.41.59-2.91.29-4.23-.59-2.57.53-4.48,1.75-6.45,2.94.57,4.26-.76,3.74-3.72a7.47,7.47,0,0,0-.64-2.25,2.47,2.47,0,0,1,0-2.23c.86-2.29,1.65-4.58,1.18-7.12a10.93,10.93,0,0,1-.08-3.23c.24-2,.14-4.19,1.66-5.82,3.75-4,7.55-8,11.35-12a11.87,11.87,0,0,0,2.57-3.71,77.84,77.84,0,0,1,7.35-14.22c.62-.94,2.13-1.81,1.58-2.88s-2.18-.31-3.29-.56c-1.39-.31-2,.35-2.53,1.47s-1,2.26-2.48,2.48c-2.1.33-3-.35-4.05-3.09a4.49,4.49,0,0,0-2.13,0,21.17,21.17,0,0,0,0,2.76,35.6,35.6,0,0,1,.26,4.84c0,3-1.59,5-4.53,5.44a1.82,1.82,0,0,0-1.73,1.59A86.81,86.81,0,0,0,122,99.73a12.77,12.77,0,0,1-3.5-3.49c-.84-1.41-1.14-3-1.89-4.67ZM85,73.84c.09-.45.21-.87.27-1.3,1.57-10.82,3.33-21.61,4-32.53.29-4.34.83-8.75-1.55-12.78-.37-.62,0-1,.35-1.38a4.16,4.16,0,0,0,.93-4.5c-.28-.81-.67-1.36-1.73-1a2.34,2.34,0,0,1-3.07-1,2.62,2.62,0,0,0-2.19-1c-1.94-.16-2.41-.59-2.86-2.48a3,3,0,0,0-3.39-2.47,3.05,3.05,0,0,0-2.65,3.17c0,1.3.3,2.61-.09,4-.6-.05-1.14-.07-1.67-.15-3.34-.49-3.78-.06-3.43,3.34l0,.29a13.06,13.06,0,0,1-1.22,8.28,3.19,3.19,0,0,0,1,4.43c1.92,1.51,3.43,3.08,3.62,5.84.31,4.57.77,9.13-.94,13.51-.65,1.68-1.06,3,0,4.78a6.91,6.91,0,0,1,.56,5.64c-.41,1.43.07,3.16-1.21,4.46,1.85,1.73,3.71,3.19,4.85,5.32a2.4,2.4,0,0,0,2.46,1,7.6,7.6,0,0,0,5.13-2.23C83,74.44,83.67,73.46,85,73.84Zm62.43,8.37c1.64-3.77,4.86-4.59,9.86-2.66a33.86,33.86,0,0,0-.7-6.13c-.86-4.61-2.47-8.79-6.18-12a58.34,58.34,0,0,1-7.31-8.06c-.82-1-1.58-2.13-2.55-3.45-.71,7.54,1.74,14.75-.16,22l1,.06a8.84,8.84,0,0,1,4.31.66,3.41,3.41,0,0,1,1.18,5.14,23,23,0,0,0-2.54,3.77C145.37,82,146.47,81.58,147.44,82.21ZM62.68,85.49a44.52,44.52,0,0,1-4.38,15l6.61,6.15c1.19-1.22,2.63-.53,4.11-.46a22.24,22.24,0,0,0-.1-6.77c-.82-4.08-1.77-8.13-2.62-12.21-.5-2.41-.62-2.52-3.12-2A3.23,3.23,0,0,0,62.68,85.49ZM67,108.79l-.34.33a11.54,11.54,0,0,1,1.62,5.11c0,2.18-.1,4.26-2.46,5.46-1.43.73-2.2,2.18-3,3.67a11.14,11.14,0,0,0,7,0c.79-.3,1.8-.71,1.83-1.53.11-2.42,1.38-4.35,2.4-6.39a1.36,1.36,0,0,0-.55-2.06c-.94-.61-1.65-1.55-2.57-2.19C69.74,110.33,68.37,109.59,67,108.79Zm55.73,5.33a28.17,28.17,0,0,0,.83,7.67c3.41-2.25,6.78-1,10.18-.27A53.36,53.36,0,0,1,128,116c-.09-.1-.25-.25-.34-.22C125.8,116.29,124.45,115.06,122.77,114.12Zm37.58,52.63c-1,.86-1,2.06-1.7,2.93a2.72,2.72,0,0,0,.26,3.75,3,3,0,0,0,3.88.56,13.87,13.87,0,0,0,2.65-2.31c.6-.6.38-1.11-.2-1.61A54.46,54.46,0,0,0,160.35,166.75ZM63.51,74.67c-.67,2.56-2.75,5-.46,7.65L66.23,82A19.8,19.8,0,0,1,63.51,74.67ZM44.31,49.89c-2.5-3.23-6.54-2.83-9.79-4.3C37.48,47.73,40.17,50.47,44.31,49.89Zm103.39,78.5c-2.41-3.19-6.31-2.8-9.5-4.15C141,126.38,143.68,129,147.7,128.39Zm-32.32-83c-4.62-.28-5.21-.09-5.94,2.53,2.1.65,4.09,0,6.11-.3A4.33,4.33,0,0,0,115.38,45.4ZM92.67,73.24l-3.79-4.89c-.34,2.25-.63,4.21-.94,6.27ZM35.33,93.16a4.07,4.07,0,0,0,3-.25C37.21,92.51,36.38,92.29,35.33,93.16ZM48.25,26.62s-.06-.06-.09-.07a.57.57,0,0,0-.13,0,.45.45,0,0,0,.1.13S48.21,26.64,48.25,26.62Zm85.82,95s-.09.06-.09.09a.77.77,0,0,0,.08.19s.1-.07.09-.09A.64.64,0,0,0,134.07,121.63Zm-103-78.18-.1-.19s-.09.08-.08.1a.64.64,0,0,0,.08.19Z"/><path class="f50969b7-5061-47bb-934a-32a0dfb1f4ac" d="M38.6,89.63H35.78a3,3,0,0,0-3.13,3.08c0,.73,0,1.47,0,2.21a3,3,0,0,0,1.69,2.73,6.86,6.86,0,0,0,9.22-2.56A2,2,0,0,0,41.94,92c-.46,0-1,.11-1.11-.66.37-.44,1-.31,1.44-.56a13.94,13.94,0,0,1,1.62-.65c-.89-4.5,1.21-8.8.76-13.28-.12-1.13,1.13-1.62,1.76-3,1.09,4.06,3.14,7.28,4,11a1.88,1.88,0,0,1-.1,1.15A13.79,13.79,0,0,0,50,94.62c.89,3.56,2.11,7.08.82,10.9h5.55l.44-2.29c3.09,2.86,6.44,5.21,8.11,9.08,1,2.26.54,3.51-1.51,4.89a7.4,7.4,0,0,1-2.62,1.3,4.54,4.54,0,0,0-3.15,2.57,14.23,14.23,0,0,1-4.28,5.16,2.34,2.34,0,0,0-1,1.89,10.92,10.92,0,0,1-1.17,3.45,1.73,1.73,0,0,1-2.58.89,8.55,8.55,0,0,0-2.69-.66,3.46,3.46,0,0,1-2.08-.88c-.86-.81-2-.37-3.09-.35a5.33,5.33,0,0,1-2,.05c-.21-.08-.64-.06-.7,0-.9,1.82-3.3,2.66-3.3,5.06a19.36,19.36,0,0,1-.55,4.21c-.37,1.65-1.54,2.89-2.31,4.3a3.08,3.08,0,0,0-.2,3.05c.37.91,1.56,2-.08,2.69-1.48.59-1.78-1-2.08-1.85a13.84,13.84,0,0,1-.91-6.71,18,18,0,0,0-1.09-8.53,34,34,0,0,1-.89-3.4,3,3,0,0,0-1.86-2.28,1.64,1.64,0,0,0-2.45,1,8.25,8.25,0,0,1-3.8,4.51,1.1,1.1,0,0,0-.63,1.19c.05.93.08,1.86.11,2.79,0,.77-.16,1.39-1.05,1.49s-1.15-.48-1.23-1.27a29.67,29.67,0,0,0-1.05-6.62c-.52-1.56-.08-3.21,0-4.76.1-3.75-1.92-7.07-1.64-10.82.22-3.13,0-6.28,0-9.42,0-3.63,0-7.27,0-10.9a8.18,8.18,0,0,1,1.66-5.6A3.21,3.21,0,0,1,12,87.63a.48.48,0,0,0-.66-.12c-1.58.77-2.67-.11-3.53-1.23a3.57,3.57,0,0,1-.18-4.15c.11-.2.25-.4.51-.81-1.52.15-2.8.1-3.84-.89-1.46-1.38-1.46-2.54.11-3.76,2.14-1.67,4.66-1.92,7.25-1.78,1.17.07,2.32.43,3.48-.09.89-.39,1.53-.91,1.47-2-.14-2.2,2.53-3.4,4.5-3a1.12,1.12,0,0,1,1,1c.12.72.29,1.42.51,2.49l.73-1.47a2.82,2.82,0,0,0,3,.94c.63-.18.94.13,1.19.73a13.73,13.73,0,0,0,1.36,2.57,2.35,2.35,0,0,0,2.26.77,10.12,10.12,0,0,0,3.72-1.25C36.29,80.32,36.16,85.35,38.6,89.63Zm6.06,23.22c-.55-.54-1.47-.37-1.59-1.3-.22-1.68-1.46-2.45-2.86-3a10.71,10.71,0,0,0-4.35-.47,2.73,2.73,0,0,0-3.1,2.62c-.09.52,0,1.09-.48,1.49-2.22,1.8-.41,3.76-.2,5.65.16,1.48,1.45,1,2.32,1.35,2.26.82,4.38,0,6.35-.79C43.06,117.44,44,115.2,44.66,112.85Z"/><path class="f50969b7-5061-47bb-934a-32a0dfb1f4ac" d="M64.74,60.15l1.14.39c-.24,1.27-.39,2.57-.75,3.8-.54,1.89-1.69,2.47-3.55,2-1.14-.32-2.54-.6-3.1.45A3.44,3.44,0,0,0,59,70c.85,1.28.79,2.56-.38,3.36a4.22,4.22,0,0,0-1.86,3.92c0,.68.09,1.37.05,2.06a2.37,2.37,0,0,1-2.23,2.31,2,2,0,0,1-2.39-1.83,12.18,12.18,0,0,1,.13-5.1c.26-1.28-.91-4.41-2-5.06a1.18,1.18,0,0,0-.85-.08,26.48,26.48,0,0,1-4.52.3c-1.35,2.5-3.91,4.07-6,3.7,0-.61.7-.76.8-1.28-.67-.6-1.81.43-2.29-.73a15.64,15.64,0,0,1-.36-2.47c-.14,0-.28-.16-.4-.14-3,.42-4.77-.69-5.69-5.09-.14-.68-.33-1-1-1.2A11.66,11.66,0,0,1,28,61.92a2.43,2.43,0,0,0-2.91.17c-1.38,1-3.38-.17-3.4-2,0-4.19-.21-8.38.06-12.58.12-2,.67-2.5,2.74-2.5a13.25,13.25,0,0,1,7.28,2.46c1.89,1.23,3.68,2.62,5.61,3.79A10.6,10.6,0,0,0,44.48,53a3.05,3.05,0,0,0,2.65-4.31,25.28,25.28,0,0,1-1-4.43A2,2,0,0,0,43,43c-1.86,1.42-2.84,1.27-4.15-.67-.14-.2-.23-.43-.5-.5a2.46,2.46,0,0,1-2-2.83c0-.78-.52-1.08-1.19-1.23-1.16,2.12-2.21,2.69-3.61,2s-1.7-2.11-.61-4.65c-.19-.41-.6-.24-.9-.3a4.41,4.41,0,0,1-4-4.68c0-1.14-.33-1.56-1.51-1.82-3.23-.73-4.24-2-3-4.76.25-.55.76-1.17,0-1.86-.44-.39.32-.72.33-1.2-.19-.44-.88,0-1.08-.6.33-.78,1.32-1,1.81-1.85a3.76,3.76,0,0,1-1.05-3.87,3.12,3.12,0,0,1,4.76-1.89c2.2,1.33,2.26,1.3,4-.59a6.78,6.78,0,0,1,2.52-1.47c4.41-1.91,9.07-2,13.74-1.75,4,.22,7.94.42,11.92.38a29.56,29.56,0,0,0,5-.47c.73-.14,1.29-.06,1.62.59s1.25,1.42.64,2.38c-1.91,3-1.65,6.28-1.14,9.56a44,44,0,0,1,.7,5.24c.07,1.9-1.42,2.92-3.11,2-1.19-.64-2.27-1.49-3.53-2a2.09,2.09,0,0,1-.77-.86c-1.11-2-1.28-2.18-3.61-3.35a2.6,2.6,0,0,1-2.93,1.88c-1.5-.19-2.06-1.31-2-2.78-2-.27-3.68-.86-4.72-2.63-.31-.54-.84-.39-1.32-.32l-4.36.62c0,1.74-.39,3.54,1.15,5a1.25,1.25,0,0,1,.42.91c-.28,1.84.94,2.47,2.31,3.08,5.42,2.41,11.08,4.27,16.34,7.06a39.08,39.08,0,0,1,8.27,5.57,2.72,2.72,0,0,1,1,1.73,43.38,43.38,0,0,1,.48,8.21C68.67,53.52,67.84,55.53,64.74,60.15Z"/><path class="f50969b7-5061-47bb-934a-32a0dfb1f4ac" d="M167.05,66.66c.52,3.09-1.57,5.46-2.17,8.27a5.43,5.43,0,0,1-3,3.47c-.87.48-1.57.21-1.71-.83a4.48,4.48,0,0,1,.25-3c.57-1,.15-2.13-.16-3.15a10.56,10.56,0,0,1-.34-4.93c.23-1.44-1.17-2.16-1.55-3.42l-1.87.53c-6.27-6.78-13.41-12.89-16.77-22.28a31.44,31.44,0,0,0-2.25,13.2,10.76,10.76,0,0,1-.53,4.31c-.76,2.19-.26,4.46.12,6.68a7.53,7.53,0,0,1,.19,1.31c0,1.08-1.08,1.82-1.92,1.19-1.19-.91-2.19-.43-3.28,0a6.75,6.75,0,0,1-2.39.68,2.73,2.73,0,0,1-2.33-1.41c-1.83-2.51-1.13-4.9-.14-7.37.22-.54.37-1.12.58-1.66,2.23-5.62-3.43-11.48-8.14-11.08a6.07,6.07,0,0,1-.85-.06c-.51-1.74-.44-1.85,1.27-2a1.45,1.45,0,0,0,.3,0,24.6,24.6,0,0,1,10.15-1c2.59.34,5-2.36,5.46-5.07a7,7,0,0,0-4-7.62,10,10,0,0,0-1-.32,38.27,38.27,0,0,0-.87-9c-.16-.76-.44-1.14-1.25-1.07a4.43,4.43,0,0,1-3.7-1.79,21.93,21.93,0,0,1-2.27-3.07,11.74,11.74,0,0,0-7.49-5.3c-1.67-.4-2-1.36-.79-2.67A2.07,2.07,0,0,1,116,7.33c2.44,0,4.58-1.46,7-1.51a22,22,0,0,0,5.5-.91,9.76,9.76,0,0,0,2.68-1.19,2.51,2.51,0,0,1,3.92,1c.87,1.47.91,3.2,1.42,4.77,1.23,3.84,1.12,7.82,1.48,11.76A37.8,37.8,0,0,0,139.57,27c3.74-8.35,10.18-14.12,15.59-20.68.3-.37.52-.82,1.18-.62,2.56.79,4.93-.06,7.3-.9,1-.34,1.91-.79,2.89-1.09,2.69-.82,4.32.26,4.65,3.08.06.51.36.65.73.79a10.91,10.91,0,0,1,1.5.6c.92.55,1.94,1.12,2,2.33.06.93-1.65,2.71-2.8,2.72-1.41,0-2,.75-2.71,1.79a15.09,15.09,0,0,1-6.63,5.42,1.93,1.93,0,0,0-1.1,1c-1.71,3.53-3.45,7.05-5.27,10.52a2.78,2.78,0,0,0,.16,3.22,10,10,0,0,0,4.2,3.12c1.92.92,3.64,1.92,3.64,4.48,0,.82,1,1.23,1.49,1.93.71,1.15,1.46.23,2.16,0a4.44,4.44,0,0,1,4.72,1.12c.63.81.8,1.58-.27,2.21-.84.51-1.62,1.1-2.48,1.58a1.72,1.72,0,0,0-.93,2.08c.71,3.3,1.37,6.62,2.08,9.92s-.65,4.92-3.88,4.93C167.63,66.6,167.44,66.63,167.05,66.66Z"/><path class="f50969b7-5061-47bb-934a-32a0dfb1f4ac" d="M128.47,112l-1.27.74c-1.14-.89-1.59-2.32-2.76-3.32l7.85-8.31a25.4,25.4,0,0,1,1.85-1.89,18,18,0,0,0,4.93-7.7c.56-1.46,1.39-2.82,2-4.28,1.18-3.06,3.13-2.81,5.46-2.21,2.49.64,3,.45,3.94-2,.61-1.65,3.53-2.27,4.76-1a1.13,1.13,0,0,1,.21,1.35,3.69,3.69,0,0,1-1.46,1.62c-.93.6-1.84,1.24-2.82,1.9,2.13,1.52,4.4,0,6.62.67q.17,3.68.33,7.4a18.27,18.27,0,0,0,.79,4.93,2.91,2.91,0,0,0,2.41,2.3,3.17,3.17,0,0,0,3-1.81,13.15,13.15,0,0,0,1.46-5.21c.27-2.38.42-4.78.62-7.18,0-.41-.12-.92.5-1.06s1.11-.17,1.46.39c.62,1,1.34,1.9.42,3.29-1.31,2-1.25,4.37-1.07,6.67.57.41,1.19.2,1.75.31A4.23,4.23,0,0,1,172.18,99c.52.67.95,1.25.39,2.09s-1.47,1.56-2.47,1c-1.24-.62-2,0-2.91.59-2.62,1.9-4.23,2-6.95.26-1.47-.93-3.16-1-4.76-1.34-2.83-.64-5.64-1.26-7.95-3.23-.95-.8-2.18-.1-3.53-.4a30.39,30.39,0,0,1-.77,6.55,34.88,34.88,0,0,0,5.38,2.65,1.2,1.2,0,0,0,1.21-.08,1.84,1.84,0,0,1,2.79,1.22c.19.67.7.74,1.18.94a78.08,78.08,0,0,1,12,5.82c.87.55,1.71,1.14,2.55,1.74a3.75,3.75,0,0,0,2.09.9c1.09,0,1.78,1,2.45,1.74a10.11,10.11,0,0,1,1.76,3.22c.58,1.64.22,2.09-1.47,1.88a7.92,7.92,0,0,1-.91-.22,4.91,4.91,0,0,0-1.47,3.37,4.89,4.89,0,0,1-.67,2.53c-1.44,2.23-2,4.84-3.39,7.11a18.38,18.38,0,0,0-2.27,6.34,18.16,18.16,0,0,1-2.28,6.19c.62.61,1.74.82,1.4,2-.3,1-1.19,1-2.13,1,1.33,1.76,1.19,3.51.59,5.4a62.92,62.92,0,0,0-2.19,8.25c-1.39.2-1.93-.28-1.42-1.62,1.22-3.22.58-6.26-.67-9.27-.81-1.95-1.7-3.86-2.53-5.8-.2-.47-.41-.85-1-.95-.85-.15-1.58-.59-1.43-1.54s1-1.21,1.94-1.12a2,2,0,0,0,.5-.06,13.19,13.19,0,0,0-.15-3.89,48,48,0,0,1-7.58,3c0,1.19,0,2.31-1.56,2.37-.47,0-.5.55-.62.91a9.53,9.53,0,0,0-.65,4.75,1.25,1.25,0,0,1-1.13,1.58c-.92.16-1.38-.4-1.47-1.25a12.06,12.06,0,0,1,0-1.9c.07-1.47.8-3.11-1.24-3.93a.91.91,0,0,1-.41-.75c.17-1.61-1-2-2.14-2.46a8.94,8.94,0,0,1-3.24-2.26,14.25,14.25,0,0,0-4.85-3.43,1.36,1.36,0,0,0-1.8.22,7.7,7.7,0,0,1-2.17,1.49,2.28,2.28,0,0,1-2.34-.44c-.59-.42-.18-.87,0-1.43-1.1,0-1.39-.75-1.18-1.66.29-1.31.59-2.68,1.78-3.5.54-.37.49-.79.5-1.26.06-2.21.09-4.42.16-6.63,0-1.61.89-2.33,2.52-2.28a13.4,13.4,0,0,1,7.18,2.32c2,1.34,3.94,2.76,6,4a10.38,10.38,0,0,0,7,1.74,2.6,2.6,0,0,1,2.08.87,1.09,1.09,0,0,0,1.77-.14c.47-.63,1.58-1.07.69-2.18a4.65,4.65,0,0,1-.81-3.77,1.52,1.52,0,0,0-.82-1.69,14.91,14.91,0,0,1-5.54-5.36c-.41-.76-3.32-1.35-4.14-1a4.41,4.41,0,0,1-5.58-1.15,3.65,3.65,0,0,0-2.85-1.75c-1.74-.16-2.48-1.58-3.49-2.66C128.93,112.54,128.75,112.31,128.47,112Z"/><path class="f50969b7-5061-47bb-934a-32a0dfb1f4ac" d="M114.7,75.94a6.2,6.2,0,0,0-1.62,2.29,1.68,1.68,0,0,1-1.79,1,1.89,1.89,0,0,1-1.56-1.56,4.61,4.61,0,0,0-4.35-3.46,2.08,2.08,0,0,0-1.8.78c-1.1,1.26-1.85,1.28-3.09.14a4.22,4.22,0,0,1-1-1.08,2.65,2.65,0,0,0-3-1.57,1.21,1.21,0,0,1-1.22-.62Q92.7,68.4,90,65a2.07,2.07,0,0,1-.39-1.75c1.34-10,2.92-20,2.83-30.15a21.37,21.37,0,0,0-1.16-5.28c-.47-1.77,1.35-3.2,1-5,0-.15,0-.3-.06-.44-.32-2.67-.32-2.67,2-4-.5-1.33-1.71-2-2.73-2.89.52-.92,1.35-.49,2-.64.88-.87-.2-2.91,1.78-3.09,1.82-.16,2.74,1,3.28,2.33a42.74,42.74,0,0,1,15.52-.54A9.16,9.16,0,0,1,120.64,18a15.8,15.8,0,0,0,3.89,4.57,3.06,3.06,0,0,0,1.11.69c1.78.28,2.1,1.46,2.24,3A47.62,47.62,0,0,1,128,32c-.06,1.73.29,2.08,2,2.12a3.2,3.2,0,0,1,.88,0c1,.36,1.85,1.07,1.8,2.08s-1.15,1-1.9.93a15.78,15.78,0,0,0-5.5.75,10.59,10.59,0,0,1-5.93-.28,17.37,17.37,0,0,0-13.91,1.56,1.15,1.15,0,0,0-.64,1.16c-.17,2.35.53,4.68.12,7a.65.65,0,0,0,.19.53c1.76,1.4,3.05,3.48,5.82,3.26,2.36-.18,4.67-.58,7-1,3.31-.56,5.5.5,7,3.48a3.24,3.24,0,0,1,.24,2.58c-1.12,3.33-1.94,6.75-2.86,10.14a2.5,2.5,0,0,1-.7,1.1,2,2,0,0,0-.31,2.66,1.68,1.68,0,0,1,.23,1.54c-.88,1.72-.76,3.63-1.11,5.44-.21,1.08-.55,2.06-1.71,2.34s-1.71-.68-2.22-1.53A5,5,0,0,0,114.7,75.94Z"/><path class="f50969b7-5061-47bb-934a-32a0dfb1f4ac" d="M66.88,142.66a8.12,8.12,0,0,1-2.68,2.79c-.8.49-.69,1.28-.31,2a2.06,2.06,0,0,1,.09,1.81c-1,3.52-2,7-3,10.57a10.93,10.93,0,0,1-.38,1.27.93.93,0,0,1-1.29.62,1,1,0,0,1-.74-1.26c.14-.62.32-1.23.49-1.86-2-1.32-2.39-3.41-2.61-5.48a57.65,57.65,0,0,0-1.79-9.95,6.54,6.54,0,0,0-2.24-2.84c-1.11-1-2.27-2-3.59-3.12,4.18-2,9.1-2.49,11-7.3,3.21,1.29,6.27,2.47,9.62,2.29a13.9,13.9,0,0,0,10.14-4.65,8.27,8.27,0,0,0-1-12.23,2.44,2.44,0,0,1-1.25-2.15c0-.82-.64-1.16-1.23-1.51a2.9,2.9,0,0,1-1.76-3.24c.42-3.29.44-6.64.62-10a.89.89,0,0,1,0-.29c1.71-3.45,1-7.08.78-10.67a5.06,5.06,0,0,1,.14-1c1.53,1.71,2.19,5.57,1.46,8.37-.42,1.64,0,2.55,1.54,3.23a6.4,6.4,0,0,0,4.46.06c.56-.17.71-.59.79-1.11a30,30,0,0,0,.39-7.62c-.06-.68-.09-1.36-.14-2,.55-.24.8.15,1.1.36,2.48,1.76,4.6,4,7,5.88A1.28,1.28,0,0,1,93,94.7c-.11,3.12,1.23,5.73,3,8.14,1.26,1.74,2.72,3.34,4.09,5a17.09,17.09,0,0,1,2.91,4.74,2.26,2.26,0,0,1-.61,2.78,3.54,3.54,0,0,0-1.42,3,3.47,3.47,0,0,1-1.67,3.12c-1.43.83-1.63,2.2-1.64,3.52,0,3.77-3.53,8.75-7.1,9.72a1.7,1.7,0,0,0-1.37,1.32c-.25,1-.57,2-.86,3a2.08,2.08,0,0,1-2.65,1.66,3,3,0,0,0-3.44,1.79c-.91,2.37-1.61,2.77-4,2.23a6.6,6.6,0,0,0-.26,3.53,24,24,0,0,1,.7,6.27,2.09,2.09,0,0,1-2.27,2.3,2,2,0,0,1-2.27-2.28c0-1.34-.06-2.47-1.67-3-.69-.21-.94-1.07-1-1.84a13.59,13.59,0,0,0-1.32-4.49A3.93,3.93,0,0,0,66.88,142.66Z"/><path class="f50969b7-5061-47bb-934a-32a0dfb1f4ac" d="M115.26,93.58l1.38-2c.75,1.62,1,3.26,1.89,4.67a12.77,12.77,0,0,0,3.5,3.49,86.81,86.81,0,0,1,1.85-9.32,1.82,1.82,0,0,1,1.73-1.59c2.94-.49,4.48-2.43,4.53-5.44a35.6,35.6,0,0,0-.26-4.84,21.17,21.17,0,0,1,0-2.76,4.49,4.49,0,0,1,2.13,0c1,2.74,2,3.42,4.05,3.09,1.48-.22,1.95-1.43,2.48-2.48s1.14-1.78,2.53-1.47c1.11.25,2.75-.5,3.29.56s-1,1.94-1.58,2.88a77.84,77.84,0,0,0-7.35,14.22,11.87,11.87,0,0,1-2.57,3.71c-3.8,4-7.6,7.94-11.35,12-1.52,1.63-1.42,3.8-1.66,5.82a10.93,10.93,0,0,0,.08,3.23c.47,2.54-.32,4.83-1.18,7.12a2.47,2.47,0,0,0,0,2.23,7.47,7.47,0,0,1,.64,2.25c.52,3-.8,4.29-3.74,3.72-1.22,2-2.34,3.88-1.75,6.45.3,1.32-.13,2.82-.29,4.23-.07.52-.17,1.25-.64,1.43-1.49.58-1.19,1.83-1.32,3-.09.75-.21,1.57-1.26,1.43s-1-1-.82-1.7a6.38,6.38,0,0,0-1.16-5.71c-.91-1.15-1.9-2.3-2.74-3.53-.7-1-1.61-2-1.6-3.39,0-.69-.67-.71-1.29-.6a55.55,55.55,0,0,1-.48-7.61,2.8,2.8,0,0,1,.52-1.35,43.73,43.73,0,0,0,2.75-6.18c1.55-4,.68-7.6-1.62-11-1.41-2.09-3.23-3.83-4.75-5.82-2-2.63-3.65-5.37-3.18-8.88a1.31,1.31,0,0,0-.61-1.24c-3.26-2.6-6.14-5.67-9.69-7.89a1.25,1.25,0,0,1-.56-1.74,9.58,9.58,0,0,1,9-6.45c.58,0,.76.34,1,.69A30.46,30.46,0,0,1,98.08,82a2.44,2.44,0,0,0,3.82,1.26,19.72,19.72,0,0,0,2.19-1.61c0,1.22.8,1.93,1.5,2.7a6.41,6.41,0,0,1,1.58,2.93,7.43,7.43,0,0,0,1.5,3.17c.54.64,1.12,1.33,2.07,1.18A3.34,3.34,0,0,1,114,93,1.32,1.32,0,0,0,115.26,93.58Zm-15.2-1c-.83-2.31-1.61-4.65-2.53-6.93A18.51,18.51,0,0,0,100.06,92.55Z"/><path class="f50969b7-5061-47bb-934a-32a0dfb1f4ac" d="M85,73.84c-1.34-.38-2.06.6-2.72,1.33a7.6,7.6,0,0,1-5.13,2.23,2.4,2.4,0,0,1-2.46-1c-1.14-2.13-3-3.59-4.85-5.32,1.28-1.3.8-3,1.21-4.46a6.91,6.91,0,0,0-.56-5.64c-1-1.76-.63-3.1,0-4.78,1.71-4.38,1.25-8.94.94-13.51-.19-2.76-1.7-4.33-3.62-5.84a3.19,3.19,0,0,1-1-4.43A13.06,13.06,0,0,0,68,24.1l0-.29c-.35-3.4.09-3.83,3.43-3.34.53.08,1.07.1,1.67.15.39-1.37,0-2.68.09-4a3.05,3.05,0,0,1,2.65-3.17,3,3,0,0,1,3.39,2.47c.45,1.89.92,2.32,2.86,2.48a2.62,2.62,0,0,1,2.19,1,2.34,2.34,0,0,0,3.07,1c1.06-.4,1.45.15,1.73,1a4.16,4.16,0,0,1-.93,4.5c-.4.42-.72.76-.35,1.38,2.38,4,1.84,8.44,1.55,12.78-.72,10.92-2.48,21.71-4,32.53C85.22,73,85.1,73.39,85,73.84Z"/><path class="f50969b7-5061-47bb-934a-32a0dfb1f4ac" d="M62.68,85.49a3.23,3.23,0,0,1,.5-.21c2.5-.56,2.62-.45,3.12,2,.85,4.08,1.8,8.13,2.62,12.21a22.24,22.24,0,0,1,.1,6.77c-1.48-.07-2.92-.76-4.11.46l-6.61-6.15A44.52,44.52,0,0,0,62.68,85.49Z"/><path class="f50969b7-5061-47bb-934a-32a0dfb1f4ac" d="M160.35,166.75a54.46,54.46,0,0,1,4.89,3.32c.58.5.8,1,.2,1.61a13.87,13.87,0,0,1-2.65,2.31,3,3,0,0,1-3.88-.56,2.72,2.72,0,0,1-.26-3.75C159.31,168.81,159.3,167.61,160.35,166.75Z"/><path class="bef455bc-1bcf-47bb-83c4-3d50178c0e51" d="M44.66,112.85c-.66,2.35-1.6,4.59-3.91,5.51-2,.79-4.09,1.61-6.35.79-.87-.31-2.16.13-2.32-1.35-.21-1.89-2-3.85.2-5.65.49-.4.39-1,.48-1.49a2.73,2.73,0,0,1,3.1-2.62,10.71,10.71,0,0,1,4.35.47c1.4.59,2.64,1.36,2.86,3C43.19,112.48,44.11,112.31,44.66,112.85Zm-8.9-1.9c-.15.64-.27,1.43.38,1.42a10.94,10.94,0,0,0,3.93-.61A6.1,6.1,0,0,0,35.76,111Z"/><path class="bef455bc-1bcf-47bb-83c4-3d50178c0e51" d="M100.06,92.55a18.51,18.51,0,0,1-2.53-6.93C98.45,87.9,99.23,90.24,100.06,92.55Z"/></svg>