<svg id="b23e3c8a-a279-4397-a85b-b142e5ac649d" data-name="Layer 1" xmlns="http://www.w3.org/2000/svg" viewBox="0 0 179.58 114.62"><defs><style>.fdc9d6d9-67c4-4c06-99be-ecc8a97a1459{fill:#0c2939;}.f5b1047b-5c37-4141-b00b-8a6352d2be83{fill:#3d99d8;}.ee918cf8-2f25-47dc-aad0-53ff773bfd9f{fill:#76b1e3;}.e36f823a-328e-4e66-a7dc-b24af8a8f07a{fill:#bed7e9;}.a15c855e-d33f-49cd-8ce2-9065b4e8a943{fill:#fff;}</style></defs><rect class="fdc9d6d9-67c4-4c06-99be-ecc8a97a1459" x="-0.4" y="-0.02" width="180.18" height="115" rx="7.47"/><polygon class="f5b1047b-5c37-4141-b00b-8a6352d2be83" points="44.38 75.83 12.28 87.69 167.11 87.69 135 75.83 157.39 48.88 122.86 54.8 128.78 20.27 101.83 42.66 89.69 9.8 77.55 42.66 50.61 20.27 56.52 54.8 22 48.88 44.38 75.83"/><polygon class="ee918cf8-2f25-47dc-aad0-53ff773bfd9f" points="61.1 87.69 118.23 87.69 135 75.83 114.07 73.88 122.86 54.78 103.79 63.62 101.83 42.66 89.67 59.82 77.55 42.66 75.58 63.6 56.52 54.78 65.28 73.91 44.38 75.83 61.1 87.69"/><polygon class="e36f823a-328e-4e66-a7dc-b24af8a8f07a" points="73.35 83.54 61.13 87.68 118.2 87.69 106.04 83.59 114.07 73.88 101.66 76.08 103.79 63.62 94.09 71.58 89.67 59.82 85.33 71.56 75.58 63.6 77.74 75.94 65.28 73.91 73.35 83.54"/><path class="a15c855e-d33f-49cd-8ce2-9065b4e8a943" d="M17,96.08H10.32a2.21,2.21,0,0,0-2.2,2.27v6.81h2.27v-2.27H17v2.27h2.27V98.35A2.25,2.25,0,0,0,17,96.08Zm0,4.54H10.39V98.35H17Z"/><path class="a15c855e-d33f-49cd-8ce2-9065b4e8a943" d="M30.42,96.08H23.73a2.21,2.21,0,0,0-2.21,2.27v6.81h2.27V98.35h6.63v6.81h2.26V98.35A2.24,2.24,0,0,0,30.42,96.08Z"/><path class="a15c855e-d33f-49cd-8ce2-9065b4e8a943" d="M43.82,96.08H37.14a2.21,2.21,0,0,0-2.21,2.27v6.81H37.2V98.35h6.62v6.81h2.27V98.35A2.25,2.25,0,0,0,43.82,96.08Z"/><path class="a15c855e-d33f-49cd-8ce2-9065b4e8a943" d="M84,96.08H77.36a2.22,2.22,0,0,0-2.21,2.27v6.81h2.27V98.35H84v6.81h2.27V98.35A2.25,2.25,0,0,0,84,96.08Z"/><path class="a15c855e-d33f-49cd-8ce2-9065b4e8a943" d="M57.23,96H50.54a2.21,2.21,0,0,0-2.2,2.26v4.54h0v0a2.21,2.21,0,0,0,2.2,2.26h6.69a2.26,2.26,0,0,0,2.27-2.27v0h0V98.3A2.26,2.26,0,0,0,57.23,96Zm0,6.81h.05l-.05,0H50.61l0,0h0V98.3h6.62Z"/><path class="a15c855e-d33f-49cd-8ce2-9065b4e8a943" d="M70.64,96.08v6.81H64V96.08H61.74v6.81A2.21,2.21,0,0,0,64,105.15h6.69a2.25,2.25,0,0,0,2.26-2.27V96.08Z"/><path class="a15c855e-d33f-49cd-8ce2-9065b4e8a943" d="M90.83,98.3h8.85V96H90.76a2.21,2.21,0,0,0-2.2,2.26v4.54h0v0a2.21,2.21,0,0,0,2.2,2.26h8.92v-2.27H90.83l0,0h0Z"/><path class="a15c855e-d33f-49cd-8ce2-9065b4e8a943" d="M104.19,101.72h8.91V99.45h-8.91V98.3H113V96h-8.91a2.21,2.21,0,0,0-2.21,2.26v4.54h0v0a2.21,2.21,0,0,0,2.21,2.26H113v-2.27h-8.85l0,0h0Z"/><path class="f5b1047b-5c37-4141-b00b-8a6352d2be83" d="M124.24,96.08h-6.69a2.21,2.21,0,0,0-2.2,2.27v6.81h2.27V98.35h2.14v6.81H122V98.35h2.21v6.81h2.27V98.35A2.25,2.25,0,0,0,124.24,96.08Z"/><path class="f5b1047b-5c37-4141-b00b-8a6352d2be83" d="M169,96.08h-6.68a2.22,2.22,0,0,0-2.21,2.27v6.81h2.27v-2.27H169v2.27h2.27V98.35A2.25,2.25,0,0,0,169,96.08Zm0,4.54h-6.62V98.35H169Z"/><rect class="f5b1047b-5c37-4141-b00b-8a6352d2be83" x="155.59" y="96.02" width="2.27" height="9.14"/><path class="f5b1047b-5c37-4141-b00b-8a6352d2be83" d="M151.08,96h-8.89v9.14h8.89a2.26,2.26,0,0,0,2.27-2.27v0h0V98.3A2.26,2.26,0,0,0,151.08,96Zm0,6.81h0l0,0h-6.62v-4.6h6.62Z"/><path class="f5b1047b-5c37-4141-b00b-8a6352d2be83" d="M131,101.72h8.91V99.45H131V98.3h8.84V96H131a2.21,2.21,0,0,0-2.2,2.26v4.54h0v0a2.21,2.21,0,0,0,2.2,2.26h8.91v-2.27H131l-.05,0H131Z"/></svg>