<svg id="a8823231-a813-4f65-8fff-737661fd95e3" data-name="Layer 1" xmlns="http://www.w3.org/2000/svg" viewBox="0 0 179.37 83.92"><defs><style>.ac53a5ff-69d3-49d4-b426-04a4747a9012{fill:#414141;}</style></defs><path class="ac53a5ff-69d3-49d4-b426-04a4747a9012" d="M53.54,29.33A16.07,16.07,0,1,0,69.61,45.4,16.06,16.06,0,0,0,53.54,29.33Zm0,25.75a9.68,9.68,0,1,1,9.69-9.68A9.68,9.68,0,0,1,53.54,55.08Z"/><path class="ac53a5ff-69d3-49d4-b426-04a4747a9012" d="M149.47,48.24h-4.08V58.3h4c2,0,2.9-1,2.9-2.74v-4.7C152.31,49,151.32,48.24,149.47,48.24Z"/><path class="ac53a5ff-69d3-49d4-b426-04a4747a9012" d="M151.14,38.54V34.15c0-1.59-.62-2.32-2.17-2.32h-3.58v9.33h3.21C150.46,41.16,151.14,40.13,151.14,38.54Z"/><path class="ac53a5ff-69d3-49d4-b426-04a4747a9012" d="M175.05,0H4.32A4.31,4.31,0,0,0,0,4.32V79.6a4.31,4.31,0,0,0,4.32,4.32H175.05a4.32,4.32,0,0,0,4.32-4.32V4.32A4.32,4.32,0,0,0,175.05,0ZM87.82,62.87a3.32,3.32,0,0,1-3.32,3.32H22.58a3.32,3.32,0,0,1-3.31-3.32V27.93a3.32,3.32,0,0,1,3.31-3.32H40.51l2.81-4.87a4,4,0,0,1,3.49-2H60.27a4,4,0,0,1,3.49,2l2.81,4.87H84.5a3.32,3.32,0,0,1,3.32,3.32Zm37-12.44V65.38h-8.66V50.43l-9.46-25.68h9.53l4.26,16.53,4.27-16.53h9.52ZM161,55.68c0,5.8-3.28,9.7-11.07,9.7H136.73V24.75h13.85c6.25,0,9.15,2.75,9.15,8.48v4a7,7,0,0,1-5.07,7.07c4.27.8,6.31,3.3,6.31,7.39Z"/></svg>