<svg id="e635ba75-ae73-4dc0-9a34-b0c6223b9db4" data-name="Layer 1" xmlns="http://www.w3.org/2000/svg" viewBox="0 0 179.04 209.61"><defs><style>.bb42f512-06fd-42db-bd3e-0a33cef31d16{fill:#e71e79;fill-rule:evenodd;}</style></defs><polygon class="bb42f512-06fd-42db-bd3e-0a33cef31d16" points="74 35.08 84.47 11.38 84.47 0.45 53.78 0.45 43.4 23.94 32.45 19.1 40.69 0.45 0.66 0.45 0.66 60.45 30.9 60.45 39.18 41.72 50.13 46.56 43.99 60.45 84.47 60.45 84.47 39.71 74 35.08"/><polygon class="bb42f512-06fd-42db-bd3e-0a33cef31d16" points="158.71 74.78 139.12 119.14 128.29 114.36 145.78 74.78 95.8 74.78 95.8 134.07 178.63 134.07 178.63 74.78 158.71 74.78"/><polygon class="bb42f512-06fd-42db-bd3e-0a33cef31d16" points="75.64 121.16 64.81 116.38 83.21 74.73 83.21 74.55 0.38 74.55 0.38 105.42 8.21 87.7 19.03 92.48 0.76 133.85 83.21 133.85 83.21 104.02 75.64 121.16"/><polygon class="bb42f512-06fd-42db-bd3e-0a33cef31d16" points="0.53 149.86 0.53 209.16 10.04 209.16 28.52 167.33 39.35 172.11 22.98 209.16 44.47 209.16 62.95 167.33 73.77 172.11 57.4 209.16 83.36 209.16 83.36 149.86 0.53 149.86"/><path class="bb42f512-06fd-42db-bd3e-0a33cef31d16" d="M95.83,149.58v19.08l8.42-19.08Zm21.36,0L95.83,197.94v10.94h67s15.81,2.83,15.81-21.11V149.58Z"/><path class="bb42f512-06fd-42db-bd3e-0a33cef31d16" d="M95.68.45v60h19.95L122,45.86,132.71,51l-4.12,9.43h50.07V.45Zm42.17,39.79L127,35.15l8.66-19.59,11,4.84Z"/></svg>