<svg id="a27b0b62-65f1-4333-af6f-5120421935e9" data-name="Layer 1" xmlns="http://www.w3.org/2000/svg" viewBox="0 0 178.17 177.17"><defs><style>.a28d19d2-41c8-4add-a7f4-0d3a286f2c7d{fill:#efe9e5;}.b6fe4d18-0b47-4c82-81a3-e49e489b02c2{fill:#603913;}.fea60665-3737-42e2-8f7c-77bc2548e8a4{fill:#301d0a;}.b5d29dc0-a910-43dd-806e-6ee9583f7c70{fill:#773512;}.b22e84e4-940c-4b14-947b-1c571f96d166{fill:#806142;}.b91309d0-70d3-4405-a3ad-a67829fffb97{fill:#d9d1ca;}.ec74c5bf-2a25-46b3-8a4d-36c9cdd5eaec{fill:#56402b;}.bb89a87a-ca0a-44d4-a1f9-868c22391231{fill:#b7804e;}.e391a34e-379b-4f8c-824a-d90efe943ef7{fill:#b56f25;}.a645b695-2677-4261-8e04-54f8643aab11{fill:#a78033;}.a941b81a-eea7-4dc8-9d23-d8582b9e3947{fill:#6d5b2b;}.ed8168d1-d882-4ea4-b914-b2e2c68ef2e3{fill:#846056;}.affdbe22-29cc-47d3-b487-631bd3aed206{fill:#dcd8cf;}.b894bffb-97e1-4059-92d3-a61feed0f5c4{fill:#180e05;}.b2537507-53b1-43c4-b1c4-5c7ab12f16d3{fill:#563311;}.f2915d8b-29cc-41bc-ad02-e56d168c417a{fill:#7a5b3c;}.a8f0b056-6bf4-4801-945c-322d1203fabe{fill:#c8b080;}</style></defs><rect class="a28d19d2-41c8-4add-a7f4-0d3a286f2c7d" x="1" width="177.17" height="177.17"/><polygon class="b6fe4d18-0b47-4c82-81a3-e49e489b02c2" points="58.59 32.19 40.56 32.19 40.56 52.69 53.18 52.69 53.18 57.03 58.59 57.03 58.59 32.19"/><polygon class="fea60665-3737-42e2-8f7c-77bc2548e8a4" points="81.42 57.03 81.42 54.27 89.58 54.27 89.58 32.19 58.59 32.19 58.59 57.03 81.42 57.03"/><path class="b5d29dc0-a910-43dd-806e-6ee9583f7c70" d="M93.25,32.19H89.58V54.27h3.51a18,18,0,0,1,6.94.95,7.34,7.34,0,0,1,2.5,1.81h18V37.74a32.48,32.48,0,0,0-6.66-3.19C107.61,32.5,102.08,32.19,93.25,32.19Z"/><path class="b22e84e4-940c-4b14-947b-1c571f96d166" d="M133.3,57a27,27,0,0,0-12.72-19.29V57Z"/><rect class="b91309d0-70d3-4405-a3ad-a67829fffb97" x="53.18" y="57.03" width="5.41" height="31"/><polygon class="ec74c5bf-2a25-46b3-8a4d-36c9cdd5eaec" points="81.42 57.03 58.59 57.03 58.59 88.03 89.58 88.03 89.58 75.88 81.42 75.88 81.42 57.03"/><path class="bb89a87a-ca0a-44d4-a1f9-868c22391231" d="M120.23,86l.35.13v-.66l-.35.22Z"/><path class="bb89a87a-ca0a-44d4-a1f9-868c22391231" d="M102.53,57a12,12,0,0,1,2.71,8c0,6-3,10.88-9.94,10.88H89.58V88h31V86.11l-.35-.13v-.31l.35-.22V57Z"/><path class="e391a34e-379b-4f8c-824a-d90efe943ef7" d="M125.21,88a28.2,28.2,0,0,0-4.63-1.92V88Z"/><path class="e391a34e-379b-4f8c-824a-d90efe943ef7" d="M120.58,85.45c8.6-5,13.06-14.28,13.06-23.92a30,30,0,0,0-.34-4.5H120.58Z"/><rect class="a645b695-2677-4261-8e04-54f8643aab11" x="53.18" y="88.03" width="5.41" height="31"/><polygon class="a941b81a-eea7-4dc8-9d23-d8582b9e3947" points="58.59 119.03 81.42 119.03 81.42 97.97 89.58 97.97 89.58 88.03 58.59 88.03 58.59 119.03"/><path class="ed8168d1-d882-4ea4-b914-b2e2c68ef2e3" d="M97.82,98c8.05,0,11.84,5,11.84,11.68a15.19,15.19,0,0,1-3,9.38h14V88h-31V98Z"/><path class="affdbe22-29cc-47d3-b487-631bd3aed206" d="M120.58,119h16.88a33.78,33.78,0,0,0,.75-7.18c0-9.26-3.43-18.76-13-23.82h-4.63Z"/><polygon class="b894bffb-97e1-4059-92d3-a61feed0f5c4" points="53.18 119.03 53.18 124.47 40.56 124.47 40.56 144.98 58.59 144.98 58.59 119.03 53.18 119.03"/><polygon class="b2537507-53b1-43c4-b1c4-5c7ab12f16d3" points="81.42 122.9 81.42 119.03 58.59 119.03 58.59 144.98 89.58 144.98 89.58 122.9 81.42 122.9"/><path class="f2915d8b-29cc-41bc-ad02-e56d168c417a" d="M106.62,119a9.75,9.75,0,0,1-3.75,2.92,12.78,12.78,0,0,1-5.2,1H89.58V145h6.67c6.15,0,10.88-.15,16.88-1.57a34.94,34.94,0,0,0,7.45-2.8V119Z"/><path class="a8f0b056-6bf4-4801-945c-322d1203fabe" d="M120.58,140.61A31.59,31.59,0,0,0,137.46,119H120.58Z"/></svg>