<svg id="bc2c1a8e-8e5d-4827-b07e-c1ee14dfd3e2" data-name="Layer 1" xmlns="http://www.w3.org/2000/svg" viewBox="0 0 179.22 64.64"><defs><style>.a36c1a5b-03db-4911-bbb5-ad9443f937e4{fill:#333;}</style></defs><path class="a36c1a5b-03db-4911-bbb5-ad9443f937e4" d="M61,28.68c-5-.36-8.56,3.71-8.33,9.42.21,5,2.82,8.56,6.67,9,4.9.54,8.36-3.19,8.36-9C67.69,32.7,65,29,61,28.68Z"/><path class="a36c1a5b-03db-4911-bbb5-ad9443f937e4" d="M26.28,0,0,32.32,26.28,64.64H179.22V0ZM24.06,38.1a5.78,5.78,0,1,1,5.78-5.78A5.78,5.78,0,0,1,24.06,38.1ZM165.47,52.81a63.63,63.63,0,0,1-7.69-.1c-1-.12-2.06-1.27-2.66-2.22q-2.6-4.07-4.79-8.38c-1-2-2.43-2.84-4.84-2.27V47l2.8.28v5.45H122c0-1.47,0-3,0-4.51-.06-4.95,0-9.92-.26-14.86-.24-4.12-3.51-5.86-6.94-3.52a10,10,0,0,0-3.91,5.5c-.83,3.74-.72,7.69-1,11.66l4.54.29v5.4H102.77c0-.83-.11-1.74-.12-2.66-.09-5.65,0-11.31-.29-16.95-.2-3.74-3.06-5.17-6.5-3.54a8.14,8.14,0,0,0-4.54,6.63c-.5,3.5-.52,7.06-.77,10.8l4.44.3V52.9H86.72c-4.8,0-9.6,0-14.41,0-3,0-3.83-.73-4.2-3.13-2.64,1.17-5.3,3-8.18,3.5-6.86,1.07-12.59-2.78-14-9.59a28.32,28.32,0,0,1,0-11.56C48.06,22,60.1,18.85,67.44,25.31V16.92L63,16.69V11.2h12.1v2.73c0,10,.07,20,0,30,0,2.51.74,3.52,3.29,3.23a45.55,45.55,0,0,1,4.87,0V39c0-2.52-.1-5,0-7.57.11-2.24-.45-3.58-3-3.2a9.28,9.28,0,0,1-1.59-.1v-5.6c3.06,0,6-.15,8.94,0,2.61.17,2.9,2.36,3.06,4.86,2.89-3,5.66-5.4,9.78-5.49,4.3-.1,7.19,1.69,8.77,6,.57-.7,1-1.26,1.47-1.79a12,12,0,0,1,12.08-3.88c4.26.89,6.71,4.46,6.78,9.62.07,5,0,9.9,0,15.05h8v-30l-4.34-.25V11.25h12V33.69c4.93,1.68,5.73-2.82,8.55-5.1l-3-.51V22.7H165v5.48c-5.83-.76-6.52,5-9.91,7.32,1.69,2.83,3.34,5.36,4.76,8,1.2,2.24,2.32,4.39,5.62,3.53Z"/></svg>