<svg xmlns="http://www.w3.org/2000/svg" viewBox="0 0 181.32 181.32"><defs><style>.b9183e99-a4a7-401b-8e7f-362af735e287{isolation:isolate;}.af4025a1-1546-4089-b96f-14d8a380d56e{fill:#e568a0;}.fa05e732-7941-4d47-8eb6-3b30e2c8626f{fill:#981f63;}.e847a938-539e-4f8f-a686-abb94f863f92{fill:#5e113b;}.bd33a823-888e-4775-8418-7e2fdaf8c54b{fill:#eeabc9;}.e903882e-fcdf-4b25-8d31-bd2887d8796b{fill:#00a096;mix-blend-mode:color;}</style></defs><g class="b9183e99-a4a7-401b-8e7f-362af735e287"><g id="fe108e12-e661-4153-bc27-e8121460958a" data-name="Layer 1"><path class="af4025a1-1546-4089-b96f-14d8a380d56e" d="M90.66,17.15a73.51,73.51,0,1,0,72.87,83.27h-16.9a56.81,56.81,0,1,1,0-19.53h16.9A73.53,73.53,0,0,0,90.66,17.15Z"/><path class="fa05e732-7941-4d47-8eb6-3b30e2c8626f" d="M90.66,130.26A39.6,39.6,0,1,1,129,80.89h17.59a56.82,56.82,0,1,0,0,19.53H129A39.61,39.61,0,0,1,90.66,130.26Z"/><path class="e847a938-539e-4f8f-a686-abb94f863f92" d="M90.66,51.06A39.6,39.6,0,1,0,129,100.42H111.27a22.81,22.81,0,1,1,0-19.53H129A39.61,39.61,0,0,0,90.66,51.06Z"/><path class="bd33a823-888e-4775-8418-7e2fdaf8c54b" d="M180.79,80.89a90.22,90.22,0,1,0,.53,9.77A90.67,90.67,0,0,0,180.79,80.89Zm-90.13-13a22.81,22.81,0,1,0,20.61,32.57h52.26a73.51,73.51,0,1,1,0-19.53H111.27A22.8,22.8,0,0,0,90.66,67.85Z"/><circle class="e903882e-fcdf-4b25-8d31-bd2887d8796b" cx="90.66" cy="90.66" r="90.66"/></g></g></svg>