<svg id="f3b3ab02-0d37-43b8-85d1-4646d4903dac" data-name="Layer 1" xmlns="http://www.w3.org/2000/svg" viewBox="0 0 180.64 129.15"><defs><style>.b7aad6bd-8af4-47ec-87b8-0b07df10594e{fill:#333;}</style></defs><path class="b7aad6bd-8af4-47ec-87b8-0b07df10594e" d="M42.36,33.85c-1.92,5.24-.41,10.39-.29,15.93.77,11.51-.84,23.43-6,33.85l.54.2c-3.85,5.94-7.47,14.37-15.36,15.53C13.86,100.48,3,97.13,1.83,88.92l.53.17c.69-1.22.57-2.5.72-3.78.33-.66,1.35-.41,1.69-1.24C18.45,123.15,42.61,64,37.45,46.62c-3.18,5-11.26,8-16,6-3.83,1.62-4.63-5.07-6-7.71a11.78,11.78,0,0,1-12.8,6c-4.28,1.34-2.56-4.89-1.12-7C5.2,37.34,13,34.15,20,34.52c-1,3.18,2,7.66,3.09,11.44C27.56,39.69,33,31.58,41.58,31.8c-1.13-2.92,1.7-2.21,3.52-2.71,2.45-.91,3.67.37,3.9,2.77A106.17,106.17,0,0,0,54.88,46c2,4.13,4.62,8.49,7.31,2.15,1.13-1.83-1.6-3.87-1.85-5.83-3.68-8.21-8.61-33.62-3-40.57,19.15-9.12,20.74,19,17.11,31.46-2.06,10.46-9.32,15.87,3.18,23,5.84,2.92,3.64-2,3.12-5.61C79.61,40,82.73,26.2,96.4,31.22c4.88,2.61,3.27,8.88,3.84,13.26-1,5.7-5.63,10.2-10.23,13.35-1.84,1.76,1.65,6.49,3.44,7.84,2.37.17,7.46-7.8,7.08-2.09.44.05.71,1.26.47,1.79.3,3.25-6.93,3.08-9.56,2.2-4.78-.11-7.66-3.52-8.91-7.85-4.4-1-9.31-1.75-13.17-4.44C68,54.84,67,52.19,65.69,52.79c-2.6,3.05-6.28,1.57-9.78,2.4-9.2-1.06-9.69-16.53-14.15-21.95ZM66.2,39.79c3.7-11.32,6-26.89-2.86-36.28C58.83,13.87,62,28.93,66.2,39.79ZM88.14,52.87c5-4.53,10.35-15,3.6-20.11-1.34-1-2.54-.64-3.1.94C86.36,39.43,87.26,46.74,88.14,52.87ZM35.69,36.69C32.3,39.88,28,44.77,27.45,49.76,31.54,47,35.86,41.88,35.69,36.69Zm-29,10.39.17.08c2.18-2.76,4.83-6,5-9.56-1.28.66-2.14,2-3.21,2.95C8.29,41,6.51,45.16,6.72,47.08Z"/><path class="b7aad6bd-8af4-47ec-87b8-0b07df10594e" d="M88.88,80c-.49,2.59.32,4.94.14,7.46a45.83,45.83,0,0,1,.43,9.7c-.11,1.91-3.12.55-4.26,1.88-1.56.14-.66-2.78-.85-3.78,0-5.41-1.4-10.71-2.41-15.94,0-.88-1.4-1.1-.79-2.07.29-.49.22-.63-.36-.64-2.62,0-1.4,9.75-3.3,12.36-2.21,9.23-10.65,14.38-18.27,7.77C53.6,87.4,57.32,72.08,69.79,72c4.77-1.62,9.44-.73,13.83.88,3.58-.85,2.64-.75,4.54,1.54,20.63,5.06,29.72,37.6,53.54,36.35-.15-9.59-5.09-24.83,3.8-31.88,18.7-6.43,22.69,14.19,13.42,26.41-2,3.73-6.89,5.4-9.69,7.2,1.8,4.51,3.32,14.46,9.52,13.56,8.1-1.27,14-8.53,18-15.18.59-1,3.47-.13,2.53,1l1.28.31c-.49,1.2-.43,2.68-1.37,3.95L180,116c-8.5,17.31-33.09,18.65-37.14-2.42C119.3,115.25,105.6,92.94,88.88,80Zm59.52,28.5c9.12-5.08,13.39-24.44,1.39-28.11C146.11,89.09,146.74,99.29,148.4,108.45ZM63.52,83.21c-.3,3.77-.6,11.28,2.9,12.9C71.68,90.79,74,79.86,72.7,73.56c-5.35-.83-6.58,2.22-8.71,5.14l.2.45C63.46,79.79,62.92,82.59,63.52,83.21Z"/><path class="b7aad6bd-8af4-47ec-87b8-0b07df10594e" d="M180.12,115.76c0-.55,0-.58.52-.41Z"/><path class="b7aad6bd-8af4-47ec-87b8-0b07df10594e" d="M67.53,87.16c-.27-.32-.35-.56,0-.67C67.91,86.64,67.83,86.86,67.53,87.16Z"/></svg>