<svg id="e3c98bab-5fd8-4393-9296-18dfa3da42bf" data-name="Layer 1" xmlns="http://www.w3.org/2000/svg" viewBox="0 0 180 67.73"><defs><style>.a3abaca4-9461-44eb-921f-8c5efdd4b028{fill:#333;}</style></defs><path class="a3abaca4-9461-44eb-921f-8c5efdd4b028" d="M180,67.7H163.25V17.33H146.88V67.7H129.8V17.36H114.13V67.57H97.05c-.08-1.35-.24-2.65-.24-3.95,0-14.43-.09-28.85.09-43.27a9.26,9.26,0,0,1,2.3-5.57c4.08-4.48,8.45-8.7,12.84-12.88A6.15,6.15,0,0,1,115.78.15c20.91-.1,41.81-.06,62.72,0a10.24,10.24,0,0,1,1.5.26Z"/><path class="a3abaca4-9461-44eb-921f-8c5efdd4b028" d="M83,67.73H66.41V51.27H17V67.63H.2C.14,66.44,0,65.16,0,63.88c0-14.55-.1-29.1.1-43.65a10,10,0,0,1,2.5-5.83C6.1,10.47,10.1,7,13.65,3.13A8.91,8.91,0,0,1,21,0C40.09.14,59.23.07,78.37.07H83ZM66,33.84V17.39H17.17V33.84Z"/></svg>