<svg id="b641c121-a03a-4d69-b1a2-3d39682cfc6f" data-name="Layer 1" xmlns="http://www.w3.org/2000/svg" viewBox="0 0 177.82 177.82"><defs><style>.a3922cb7-438f-4082-9436-e4c0eddb9351{fill:#00245f;}</style></defs><path class="a3922cb7-438f-4082-9436-e4c0eddb9351" d="M47.57,43c8.65,6.82,15.9,2,16.09,2.15S56.7,35.6,47.57,43Z"/><path class="a3922cb7-438f-4082-9436-e4c0eddb9351" d="M27.13,88.94c.19-10.93-9.48-15.12-9.67-15.18S15.61,87.55,27.13,88.94Z"/><path class="a3922cb7-438f-4082-9436-e4c0eddb9351" d="M42.75,109.48c.17-.15-10.28,5.92-3.82,15.77C46.63,117.35,42.57,109.67,42.75,109.48Z"/><path class="a3922cb7-438f-4082-9436-e4c0eddb9351" d="M39.48,99.46c.23-.13-11.3,3.64-7,14.61C41.61,108,39.3,99.6,39.48,99.46Z"/><path class="a3922cb7-438f-4082-9436-e4c0eddb9351" d="M38.38,88.94c.26-.07-11.79,1.23-9.91,12.85C38.7,97.72,38.21,89.05,38.38,88.94Z"/><path class="a3922cb7-438f-4082-9436-e4c0eddb9351" d="M48,118.63c.14-.19-8.8,7.91-.46,16.22C53.46,125.53,47.92,118.82,48,118.63Z"/><path class="a3922cb7-438f-4082-9436-e4c0eddb9351" d="M28.47,101.79C26.37,91.05,16.12,89,15.87,88.94S16.9,102.8,28.47,101.79Z"/><path class="a3922cb7-438f-4082-9436-e4c0eddb9351" d="M38.93,125.25c-6.3-8.94-16.54-6.67-16.74-6.6C21.8,118.75,28.8,130.9,38.93,125.25Z"/><path class="a3922cb7-438f-4082-9436-e4c0eddb9351" d="M52.39,152.18c-.26.3,12.54,6,17.43-4.48C59.47,144.16,52.5,152,52.39,152.18Z"/><path class="a3922cb7-438f-4082-9436-e4c0eddb9351" d="M82.45,150.38c-.74-11-9.13-13.17-9.16-13.38S70.81,148.57,82.45,150.38Z"/><path class="a3922cb7-438f-4082-9436-e4c0eddb9351" d="M69.82,147.7c1.58-10.9-6.19-14.75-6.16-15S58.81,143.52,69.82,147.7Z"/><path class="a3922cb7-438f-4082-9436-e4c0eddb9351" d="M52.39,25.7c-.12-.35-11.5,7.83-4.82,17.33C55.82,35.85,52.48,25.88,52.39,25.7Z"/><path class="a3922cb7-438f-4082-9436-e4c0eddb9351" d="M66.34,158.4c-.18.32,13.54,3.31,16.11-8C71.6,149.06,66.42,158.22,66.34,158.4Z"/><path class="a3922cb7-438f-4082-9436-e4c0eddb9351" d="M55.1,126.49c.12-.24-7,9.59,2.92,16C61.84,132.12,55.05,126.7,55.1,126.49Z"/><path class="a3922cb7-438f-4082-9436-e4c0eddb9351" d="M47.57,134.85c-8-7.45-17.56-3.09-17.74-3S38.82,142.47,47.57,134.85Z"/><path class="a3922cb7-438f-4082-9436-e4c0eddb9351" d="M58,142.44c-9.39-5.6-17.82.6-18,.77S51,151.73,58,142.44Z"/><path class="a3922cb7-438f-4082-9436-e4c0eddb9351" d="M32.47,114.07c-4.32-10-14.78-10-15-10S21.36,117.5,32.47,114.07Z"/><path class="a3922cb7-438f-4082-9436-e4c0eddb9351" d="M39.48,78.42c.23,0-11.75-1.24-12.35,10.52C38,87.07,39.28,78.47,39.48,78.42Z"/><path class="a3922cb7-438f-4082-9436-e4c0eddb9351" d="M138.89,52.63c6.29,8.93,16.54,6.67,16.74,6.6C156,59.13,149,47,138.89,52.63Z"/><path class="a3922cb7-438f-4082-9436-e4c0eddb9351" d="M130.25,43c8,7.45,17.56,3.09,17.73,3C148.31,45.85,139,35.4,130.25,43Z"/><path class="a3922cb7-438f-4082-9436-e4c0eddb9351" d="M145.35,63.81c4.32,10,14.77,10,15,10S156.46,60.38,145.35,63.81Z"/><path class="a3922cb7-438f-4082-9436-e4c0eddb9351" d="M135.07,68.39c-.18.16,10.28-5.91,3.82-15.76C131.19,60.53,135.25,68.21,135.07,68.39Z"/><path class="a3922cb7-438f-4082-9436-e4c0eddb9351" d="M138.34,78.42c-.24.12,11.3-3.64,7-14.61C136.2,69.93,138.52,78.28,138.34,78.42Z"/><path class="a3922cb7-438f-4082-9436-e4c0eddb9351" d="M122.71,51.39c-.11.23,7-9.59-2.91-16C116,45.76,122.77,51.17,122.71,51.39Z"/><path class="a3922cb7-438f-4082-9436-e4c0eddb9351" d="M129.79,59.25c-.14.19,8.8-7.91.46-16.22C124.36,52.34,129.89,59.06,129.79,59.25Z"/><path class="a3922cb7-438f-4082-9436-e4c0eddb9351" d="M42.75,68.39c.23,0-11.26-3.68-14.28,7.7C39.47,76.51,42.52,68.4,42.75,68.39Z"/><path class="a3922cb7-438f-4082-9436-e4c0eddb9351" d="M28.47,76.09c2.45-10.65-6.1-16.77-6.28-16.86S17.47,72.34,28.47,76.09Z"/><path class="a3922cb7-438f-4082-9436-e4c0eddb9351" d="M32.47,63.81C37.06,53.89,30,46.14,29.83,46S22.51,57.84,32.47,63.81Z"/><path class="a3922cb7-438f-4082-9436-e4c0eddb9351" d="M40,34.67c-.18-.31-9.61,10-1.11,18C45.49,43.88,40.18,34.84,40,34.67Z"/><path class="a3922cb7-438f-4082-9436-e4c0eddb9351" d="M119.8,35.44c9.39,5.6,17.81-.61,18-.77S126.78,26.15,119.8,35.44Z"/><path class="a3922cb7-438f-4082-9436-e4c0eddb9351" d="M55.1,51.39c.22.13-8.8-7.94-16.17,1.24C48.8,57.51,54.9,51.31,55.1,51.39Z"/><path class="a3922cb7-438f-4082-9436-e4c0eddb9351" d="M48,59.25c.23.08-10.26-6-15.56,4.56C43.14,66.54,47.79,59.2,48,59.25Z"/><path class="a3922cb7-438f-4082-9436-e4c0eddb9351" d="M135.07,109.48c-.23,0,11.26,3.69,14.28-7.69C138.35,101.37,135.3,109.48,135.07,109.48Z"/><path class="a3922cb7-438f-4082-9436-e4c0eddb9351" d="M122.71,126.49c-.21-.13,8.81,7.94,16.18-1.24C129,120.37,122.91,126.56,122.71,126.49Z"/><path class="a3922cb7-438f-4082-9436-e4c0eddb9351" d="M104.53,137c-.15-.2,4.8,10.85,15.27,5.44C112.75,134,104.69,137.18,104.53,137Z"/><path class="a3922cb7-438f-4082-9436-e4c0eddb9351" d="M129.79,118.63c-.23-.08,10.26,6,15.56-4.56C134.68,111.34,130,118.67,129.79,118.63Z"/><path class="a3922cb7-438f-4082-9436-e4c0eddb9351" d="M137.78,143.21c.18.3,9.61-10.05,1.11-18C132.33,134,137.64,143,137.78,143.21Z"/><path class="a3922cb7-438f-4082-9436-e4c0eddb9351" d="M114.16,132.7c-.17-.16,7,9.58,16.09,2.15C121.6,128,114.35,132.83,114.16,132.7Z"/><path class="a3922cb7-438f-4082-9436-e4c0eddb9351" d="M125.43,152.18c.12.35,11.5-7.83,4.82-17.33C122,142,125.34,152,125.43,152.18Z"/><path class="a3922cb7-438f-4082-9436-e4c0eddb9351" d="M145.35,114.07c-4.59,9.92,2.47,17.66,2.63,17.8S155.31,120,145.35,114.07Z"/><path class="a3922cb7-438f-4082-9436-e4c0eddb9351" d="M149.35,76.09c2.1,10.74,12.35,12.84,12.6,12.85S160.92,75.08,149.35,76.09Z"/><path class="a3922cb7-438f-4082-9436-e4c0eddb9351" d="M139.44,88.94c-.26.07,11.79-1.23,9.91-12.85C139.11,80.15,139.61,88.83,139.44,88.94Z"/><path class="a3922cb7-438f-4082-9436-e4c0eddb9351" d="M88.91,0a88.91,88.91,0,1,0,88.91,88.91A88.91,88.91,0,0,0,88.91,0Zm3.2,170.08V121.22h17.31a5,5,0,0,0,5-5V59.48a5,5,0,0,0-5-5h-41a5,5,0,0,0-5,5v56.77a5,5,0,0,0,5,5H85.74v48.86a81.23,81.23,0,1,1,6.37,0Zm.22-55.86V62h4.35v52.22Zm11.19,0V62h4.35v52.22ZM85.49,62v52.22H81.14V62ZM74.3,62v52.22H70V62Z"/><path class="a3922cb7-438f-4082-9436-e4c0eddb9351" d="M138.34,99.46c-.23,0,11.75,1.24,12.35-10.52C139.82,90.81,138.54,99.41,138.34,99.46Z"/><path class="a3922cb7-438f-4082-9436-e4c0eddb9351" d="M66.34,19.47c0-.38-12.89,5.29-8.32,16C67.55,30.09,66.39,19.68,66.34,19.47Z"/><path class="a3922cb7-438f-4082-9436-e4c0eddb9351" d="M150.69,88.94c-.19,10.93,9.47,15.12,9.66,15.18S162.21,90.33,150.69,88.94Z"/><path class="a3922cb7-438f-4082-9436-e4c0eddb9351" d="M149.35,101.79c-2.45,10.65,6.1,16.76,6.28,16.86S160.35,105.54,149.35,101.79Z"/><path class="a3922cb7-438f-4082-9436-e4c0eddb9351" d="M111.48,19.47c.17-.31-13.54-3.3-16.11,8C106.21,28.82,111.4,19.66,111.48,19.47Z"/><path class="a3922cb7-438f-4082-9436-e4c0eddb9351" d="M82.45,27.49c3,10.61,11.68,11,11.75,11.2S94.2,26.86,82.45,27.49Z"/><path class="a3922cb7-438f-4082-9436-e4c0eddb9351" d="M69.82,30.18c5.12,9.74,13.67,8.33,13.79,8.51S81.17,27.06,69.82,30.18Z"/><path class="a3922cb7-438f-4082-9436-e4c0eddb9351" d="M96.53,16.3c.1-.32-13.88-.41-14.08,11.19C93.34,26.54,96.49,16.52,96.53,16.3Z"/><path class="a3922cb7-438f-4082-9436-e4c0eddb9351" d="M58,35.44c7,8.46,15.11,5.26,15.27,5.44S68.48,30,58,35.44Z"/><path class="a3922cb7-438f-4082-9436-e4c0eddb9351" d="M81.29,16.3c0-.35-13.71,2.47-11.47,13.88C80.26,26.93,81.3,16.55,81.29,16.3Z"/><path class="a3922cb7-438f-4082-9436-e4c0eddb9351" d="M125.43,25.7c.26-.3-12.55-6.06-17.43,4.48C118.34,33.72,125.31,25.87,125.43,25.7Z"/><path class="a3922cb7-438f-4082-9436-e4c0eddb9351" d="M94.2,139.19c-.1-.26,2.44,11.62,13.8,8.51C102.88,138,94.33,139.37,94.2,139.19Z"/><path class="a3922cb7-438f-4082-9436-e4c0eddb9351" d="M96.53,161.58c0,.35,13.71-2.47,11.47-13.88C97.56,150.94,96.51,161.33,96.53,161.58Z"/><path class="a3922cb7-438f-4082-9436-e4c0eddb9351" d="M95.37,27.49c.73,11,9.13,13.17,9.16,13.39S107,29.31,95.37,27.49Z"/><path class="a3922cb7-438f-4082-9436-e4c0eddb9351" d="M108,30.18c-1.59,10.9,6.19,14.75,6.16,15S119,34.36,108,30.18Z"/><path class="a3922cb7-438f-4082-9436-e4c0eddb9351" d="M111.48,158.4c0,.39,12.89-5.29,8.32-16C110.26,147.79,111.42,158.19,111.48,158.4Z"/></svg>