<svg id="a464882c-a02c-453c-93c6-bcd5cd01ff7a" data-name="Layer 1" xmlns="http://www.w3.org/2000/svg" viewBox="0 0 179.45 65"><defs><style>.f87b0ea8-de7e-4411-8db5-37506c4678b9{fill:#29a5dc;}</style></defs><rect class="f87b0ea8-de7e-4411-8db5-37506c4678b9" x="30.12" y="24.8" width="2.5" height="15.33"/><path class="f87b0ea8-de7e-4411-8db5-37506c4678b9" d="M170.13,0H9.32A9.32,9.32,0,0,0,0,9.32V55.68A9.32,9.32,0,0,0,9.32,65H170.13a9.32,9.32,0,0,0,9.32-9.32V9.32A9.32,9.32,0,0,0,170.13,0ZM46.38,50.65h-30V13.85h30Zm32.15.1H64.78V24.3h-2.5V50.75H48.52V14h30Zm32-26.28h-19V27h19V37.45h-19V40h19v10.8h-30V14h30Zm40.94,20c-5.06,3.62-8,5.5-9.39,6.69-1.36-1.19-4.33-3.07-9.4-6.69s-11.58-10.14-11.58-18.89c0-10.72,14.6-16.44,21-5.35,6.38-11.09,21-5.37,21,5.35C163.08,34.32,156.69,40.75,151.49,44.46Z"/></svg>