<svg id="e9b36b44-ffed-43a2-8414-e52d0265e010" data-name="Layer 1" xmlns="http://www.w3.org/2000/svg" viewBox="0 0 179.97 211.14"><defs><style>.b0f1b11f-e5f2-4698-8c9a-6602849ecb77{fill:#333;}</style></defs><path class="b0f1b11f-e5f2-4698-8c9a-6602849ecb77" d="M0,0V211.14H180V0ZM132.91,41.07l2.54-8c1,2.94,1.73,5.3,2.57,7.9l8.2-1.8c-2.23,2.44-3.93,4.29-5.7,6.21l5.82,6.3-8.37-2c-.74,2.48-1.46,4.86-2.47,8.23-1-3.19-1.68-5.49-2.49-8.16l-8.3,1.83,5.64-6.08-5.86-6.47ZM96.14,39.54,103.53,41c.79-2.37,1.53-4.58,2.61-7.78,1,3.19,1.65,5.34,2.44,7.88l8.51-1.92-5.94,6.25,5.8,6.27-8.25-1.84-2.59,7.78-2.55-7.69-7.71,1.49,5.41-6.22-6-4.45C95.55,40.33,95.84,39.93,96.14,39.54ZM74.12,41l2.52-7.93,2.53,7.84,7.76-1.37-5.19,5.72,5.68,6.23-8.25-1.6-2.46,7.76c-1-3.13-1.73-5.28-2.56-7.84l-8.22,1.86c2.28-2.45,3.9-4.18,5.73-6.13l-5.92-6.31ZM44.76,41c.76-2.47,1.49-4.86,2.49-8.16,1,3.15,1.68,5.49,2.49,8.13l8-1.59-5.51,6,5.7,6.16-8.08-1.75-2.59,7.91L44.73,49.8l-8,1.77c2.25-2.42,3.87-4.16,5.63-6.07-1.77-1.9-3.49-3.72-5.89-6.27ZM153.3,180.21H139.44c-.88-8.9-1.47-17.69-2.68-26.4-2.39-17.33-6.59-34.21-15.38-49.51a72.59,72.59,0,0,0-11.26-15C99,78.16,85.64,78.14,74,88.9c-9.16,8.45-14.44,19.35-18.64,30.83-7.08,19.35-9.94,39.47-10.56,60.32H29.89c.78-8.35,1.17-16.71,2.4-24.94,3.08-20.56,9.4-40,22.07-56.82,7.1-9.45,15.72-17.06,27.37-20.24,15.75-4.3,29,1,40.26,11.86,13.39,12.85,21.24,29.07,25.49,46.72,3.08,12.82,4.11,26.13,6,39.24A25,25,0,0,1,153.3,180.21Z"/></svg>