<svg id="f230434d-a6a7-4366-a29a-d17ab49311af" data-name="Layer 1" xmlns="http://www.w3.org/2000/svg" viewBox="0 0 180.56 278.29"><defs><style>.bd9e0595-9116-42f5-84e9-c09f8ca7a09a{fill:#152a4e;}</style></defs><path class="bd9e0595-9116-42f5-84e9-c09f8ca7a09a" d="M139.09,1.9c-.72.23-1.45.42-2.15.7-3.56,1.44-5.47,4.4-6.83,7.77a24.29,24.29,0,0,0-1.84,9.36c.07,8.42,0,16.83,0,25.24v1.21H103.51V26.56c-.34-.39-.67-.27-1-.27H47.83c-5,0-9.8,1-13.89,4.11-4.64,3.57-7.19,8.41-8.49,14a6.7,6.7,0,0,0-.05,1.49v105.9c0,11.72,6.06,19.65,17.39,22.76a29.77,29.77,0,0,0,5.85,1c1.17.08,2.35,0,3.63,0v-1.33q0-50.53,0-101.08a22,22,0,0,0-3.7-12,11.07,11.07,0,0,0-7.26-5h1.36c30.52,0,61-.2,91.56.1,12.15.12,23.37,3.89,32.67,12.16,6.4,5.7,10,13,11.6,21.32a53.51,53.51,0,0,1,.86,9.79c0,32,.22,64-.1,96-.13,13.3-4.68,25.23-14.61,34.59-5.8,5.47-12.86,8.5-20.63,10a59,59,0,0,1-10.94,1q-26.91,0-53.81,0H78c-.33.41-.18.85-.18,1.25,0,7.07.1,14.15-.06,21.22a9.74,9.74,0,0,0,3.75,8A24.32,24.32,0,0,0,89.7,276a4.89,4.89,0,0,1,1.14.53H38.66c1.07-.39,1.91-.69,2.74-1A22.69,22.69,0,0,0,48.9,271a10.27,10.27,0,0,0,3.37-7.74V198.05c0-.19,0-.37-.05-.64-2.11,0-4.16.05-6.22,0a50.22,50.22,0,0,1-20.94-4.68c-10.16-5-16.64-13.15-20.49-23.59A54.91,54.91,0,0,1,1.15,150c0-35.37,0-70.75.05-106.12,0-9,2.28-17.38,7.76-24.69,5.13-6.82,12-11.19,20-14a59.42,59.42,0,0,1,20-3.38q45.09.06,90.18,0ZM77.54,219.3h1.32q25.53,0,51.05,0a28.64,28.64,0,0,0,8.35-1.21c6.18-1.88,11.28-5.18,14.36-11.09a25.78,25.78,0,0,0,2.53-12.19q0-47.39,0-94.76a5.47,5.47,0,0,0-.08-1.15c-1.28-5.72-3.9-10.65-8.67-14.25-4.08-3.09-8.82-4-13.81-4H78.79a1.39,1.39,0,0,0-1.13.23v94.64h24.56a2.39,2.39,0,0,0,.14-1.28q0-34.82,0-69.64a10.11,10.11,0,0,0-3-7.4,24.17,24.17,0,0,0-9.63-5.53c-.24-.08-.56,0-.6-.34H129V92.9q0,45.78,0,91.55a9.77,9.77,0,0,0,2.25,6.33,18.17,18.17,0,0,0,6.56,4.89c1.22.58,2.48,1.05,3.73,1.58l0,.16H77.54Z"/></svg>