<svg id="b7340731-1f8d-4d42-b584-1c7d5f6fabda" data-name="Layer 1" xmlns="http://www.w3.org/2000/svg" viewBox="0 0 180 181.33"><defs><style>.a57fbae3-d51b-4b64-891a-477b7c781887{fill:#bb272d;fill-rule:evenodd;}</style></defs><g id="a80a0034-80d3-45ed-911d-ed830fa6ec7b" data-name="f5 star1.psd"><path class="a57fbae3-d51b-4b64-891a-477b7c781887" d="M82.32,0c3.38,4.26,6.07,9.19,9.45,13.44Q89.39,26.7,87,40c1.45.85,3.74.88,5.67,1.25-.47,4-1.41,7.55-1.88,11.57-2.06-.16-3.75-.67-5.68-.94-1.53,5.77-2.32,12.28-3.46,18.45C72,69.06,63.07,67,53.34,65.66c.32-4.16,1.25-7.72,1.89-11.57,5.82.68,11.16,1.84,16.7,2.81,1-1.82.83-4.8,1.57-6.87-5.4-1.31-11.36-2.06-17-3.13.75-3.85,1.22-8,2.21-11.57,5.55,1,10.9,2.1,16.69,2.81C77.92,25.64,79.93,12.63,82.32,0Z"/><path class="a57fbae3-d51b-4b64-891a-477b7c781887" d="M142.8,14.38c1.38,10.93,3.45,21.17,4.72,32.2-4.19-1.88-8.12-4-12.6-5.62-1.18-7.48-2.38-14.93-3.46-22.51-3.08,0-5.16.93-8.19.93.41,7,2.39,15.13,3.15,22.83-9.75,1.27-19.33,2.69-28.67,4.37A143.25,143.25,0,0,1,94.92,31C94.1,25.7,93.28,20.35,92.71,15c3.82-1.12,7.9-3.61,11.35-4.07,1,7.62,2.24,15.07,3.46,22.51a41.09,41.09,0,0,0,6.61-.94c-1.2-7.55-2.44-15.07-3.46-22.82C116.18,8.81,123,7.52,128,7.19,133.18,9.34,137.77,12.08,142.8,14.38Z"/><path class="a57fbae3-d51b-4b64-891a-477b7c781887" d="M65.94,17.51c1,.3-.92,1.81-1.57,2.5-2.32,2.44-5.33,5.85-8.19,7.82-6.93-1.67-14.72-2.48-21.74-4.07-.09,3-.93,5.33-1.26,8.13,6.86,1.85,14.63,2.78,22,4.06-.87,9-3.43,19.1-4.72,28.77C39.73,63.22,29.63,61.05,19,59.4c0-4.25-.4-8.14-.63-12.19,7.72,1.3,15.46,2.58,23,4.06.58-2,.75-4.47,1.26-6.56-7.51-1.51-15.31-2.72-23-4.07.79-4.53,1.39-8.08,2.21-12.81a21.71,21.71,0,0,1,.62-4.07c.64-1.47,3.52-3.53,5.68-5.63,2.56-2.5,4.62-4.42,6.61-6.25C44.91,14,55.71,15.47,65.94,17.51Z"/><path class="a57fbae3-d51b-4b64-891a-477b7c781887" d="M128,44.71c.88,5.58,1.92,11,2.52,16.88,13.1-1.9,26.16-3.84,39.06-5.94-3.15,4.69-6.69,9-10.08,13.44-9.05,1.34-18,2.78-27.09,4.07.38,1.82.54,3.85.95,5.63a98.66,98.66,0,0,1-11.66,1.87c-.37-1.81-.53-3.85-.94-5.63-6.31.83-12.45,1.82-18.59,2.82q-2.4-14-4.41-28.45c3.63-.78,7.72-1.09,11.34-1.88,1.31,5.27,1.78,11.37,2.84,16.89,2.48-.15,4.49-.76,6.93-.94-.57-5.9-1.6-11.34-2.52-16.89C120.08,45.82,124.18,45.4,128,44.71Z"/><path class="a57fbae3-d51b-4b64-891a-477b7c781887" d="M45.47,75.35a29.28,29.28,0,0,0,2.83-5c3.72,1.31,6.59,3.46,10.08,5-.46,2-1.62,3.39-2.52,5,5.12,3.47,11,6.12,16.69,9.07-4.36,8.38-9.09,16.4-13.22,25-4-1.15-6.73-3.54-10.4-5,2.42-5.21,5.35-9.92,7.88-15A24.16,24.16,0,0,0,50.51,91c-3.06,4.57-5.32,9.94-8.19,14.69-3.61-1.42-6.43-3.62-10.08-5,2.37-5.25,5.3-10,7.87-15-5.35-3.54-11.23-6.29-17-9.37S11.59,70.13,5.78,67.22c4.88-1.71,10.73-3.65,15.12-4.69,1-.24,4.89,2.22,6.61,3.13C33.4,68.75,40.11,72.31,45.47,75.35Z"/><path class="a57fbae3-d51b-4b64-891a-477b7c781887" d="M168.94,80c-7,3.23-13.93,6.6-20.79,10A63.78,63.78,0,0,1,151,96c7.78-2.7,14-7,21.42-10,1.38,2.4,2.34,5,3.78,7.81,1.21,2.42,3.5,5.07,3.77,7.82.25,2.43-.82,5.49-1.26,8.13s-.86,5.06-1.25,7.82c-10,4.48-19.16,9.74-29.3,14.06.75-4.36,1.11-9.11,1.89-13.44,6.73-3.43,13.76-6.56,20.48-10-1.05-2.82-2.56-5.18-3.79-7.82-6.89,3.26-13.93,6.38-20.47,10-4.59-8.36-8.69-17.21-12.91-25.95,9.23-4.69,18.79-9.07,28-13.75H162c1.54,2.42,3.76,4.75,5.67,7.19C168.12,78.41,169.38,79.18,168.94,80Z"/><path class="a57fbae3-d51b-4b64-891a-477b7c781887" d="M135.24,96c-5.23,2.42-10.34,5-15.44,7.51a70.88,70.88,0,0,1,3.15,6.56c5.22-2.42,10.48-4.82,15.44-7.5,2,3.09,3.32,6.91,5.35,10-4.93,2.82-10.32,5.18-15.43,7.82,5.71,11.63,11.39,23.29,17.32,34.7-4.74-.81-10.16-3.66-15.43-5-4.17-8.16-8.08-16.58-12.29-24.7a48.62,48.62,0,0,1-5.35,2.5c-1.63-3.39-3.49-6.54-4.72-10.31a28.08,28.08,0,0,1,5-2.19q-4-8.72-8.51-16.89c8.16-4.61,17.37-8.18,25.51-12.82C132.05,88.72,133.59,92.4,135.24,96Z"/><path class="a57fbae3-d51b-4b64-891a-477b7c781887" d="M17.12,87.54c2.49,3.67,4.44,7.89,6.62,11.88-3.13,7-7.12,13.16-10.4,20,2.11,1.66,4.79,2.74,7.24,4.07,1.43-1.18,2.28-3,3.16-4.7,2.55-4.79,5.21-10,7.87-15,8.65,4.33,17.06,8.9,25.51,13.44Q50,131.31,42.32,144.75c-4.09-.63-7.5-1.93-11.34-2.81,3.33-7,7.23-13.45,10.71-20.32-1.56-1.48-4-2.11-5.67-3.44-4,6.48-7.49,13.41-11,20.32-5.54-2.21-10.14-5.36-15.43-7.82C7,125.82,4.73,120.68,2,116,7.07,106.54,12.37,97.31,17.12,87.54Z"/><path class="a57fbae3-d51b-4b64-891a-477b7c781887" d="M128.31,151c-2,3.51-4.33,6.75-6.3,10.31q-8.39-7.94-16.38-16.26a8.91,8.91,0,0,0-2.84,2.19c-.28.29-2.5,2.18-2.51,2.5,0,1,3,3,4.09,4.07,3.89,3.87,9,9.37,12.28,12.19-1.39,2.41-3.94,4.23-6.3,6.57-1.86,1.85-4,5.32-6.29,6.25a27.27,27.27,0,0,1-3.78.63c-3.64.61-7.25.88-11.34,1.87a315.81,315.81,0,0,1-23-22.82c4.1-1,8.72-1.55,12.6-2.81,6.06,4.82,10.89,10.86,16.7,15.94.89-1,1.61-1.92,2.83-3.12.59-.59,3.12-2.09,3.15-2.82s-3.12-3.1-4.1-4.06c-3.7-3.68-9-8.87-11.65-12.19,7-6.49,13.41-13.58,20.16-20.33C113.69,135.92,120.51,144,128.31,151Z"/><path class="a57fbae3-d51b-4b64-891a-477b7c781887" d="M61.85,128.5c.39-1.67-4-3-4.1-4.38,0-1.06,3-3,4.1-4.06,1.56-1.56,2.81-3,3.77-4.07,1.47-.43,3.27,4,4.42,4.07,1.34,0,4.47-4.58,6.61-6.88.17-.19,6.14-6.55,6.62-6.57s4.68,4.34,5.35,5l12.6,12.51a22.83,22.83,0,0,1,2.52,2.5c0,.94-3.16,3.14-4.1,4.06-1.63,1.63-2.61,2.79-3.78,4.07-4.54-3.52-8.26-7.84-12.28-11.88-2.23,1.23-3.65,3.25-5.36,5,3.76,4.41,8.48,7.84,12,12.51a70.61,70.61,0,0,0-6,5.94c-.24.23-2,1.88-1.89,1.87-1,.05-5.24-5.19-6-5.94-2.43-2.4-4.36-3.87-6-5.94-9.79,8.73-18.77,18.27-28,27.51.89-4.71-1.23-11.19,0-15.63.74-2.68,7.69-7.94,9.76-10C55.81,134.48,58.7,131.17,61.85,128.5Z"/></g></svg>