<svg id="af646e8d-275a-4fea-b01d-266546ac53c0" data-name="Layer 1" xmlns="http://www.w3.org/2000/svg" viewBox="0 0 179.92 179.92"><defs><style>.aa111878-fdb3-4371-941e-d9fd760f9b17{fill:#f5aa3b;}</style></defs><path class="aa111878-fdb3-4371-941e-d9fd760f9b17" d="M165.71,102.73H179a89.9,89.9,0,1,1,.92-12.84H166.78a76.83,76.83,0,1,0-1.07,12.84ZM65.31,89.89V90a24.65,24.65,0,0,0,45.74,12.77H125.5A37.76,37.76,0,0,1,52.21,90v-.07h-13s0,0,0,.07a50.8,50.8,0,0,0,100,12.77h13.41a63.9,63.9,0,1,1,1.28-12.84H65.31Zm45.51-13.06a24.65,24.65,0,0,0-41.72,0Zm-56.26,0a37.76,37.76,0,0,1,70.8,0H139a50.79,50.79,0,0,0-98.12,0Z"/></svg>