<svg id="e690434c-746a-4080-b67b-615016bf8ff0" data-name="Layer 1" xmlns="http://www.w3.org/2000/svg" viewBox="0 0 181.21 59.42"><defs><style>.e3bb8d5b-290f-401a-b107-1ae4a21dccd2{fill:#414042;}</style></defs><path class="e3bb8d5b-290f-401a-b107-1ae4a21dccd2" d="M157.51,47.2c.32,0,.39.25.45.5a12.45,12.45,0,0,0,.5,1.68c-.54-3.62-1.19-7.22-1.88-10.82a4.15,4.15,0,0,0,.32,2.6h0c-.3.05-.4-.13-.45-.38s-.12-.56-.22-1a3.16,3.16,0,0,0-.24.51,57.82,57.82,0,0,0-1.08,9.55c0,.48-.07.95-.07,1.42a3.69,3.69,0,0,1-1,2.44c-.42.48-.49.53-1.26.52l-.21-.67-.27.47c0-.05-.08-.08-.08-.12l.12-2.61c0-.2.07-.46-.2-.46s-.35.19-.4.34a12.46,12.46,0,0,0-.34,1.37c-.13.53-.24,1.06-.35,1.56a1,1,0,0,1-.29.07c-1.09-.12-1.26-.3-1.31-1.44a1.71,1.71,0,0,0-.12-.72l-.62,1.73a3.07,3.07,0,0,1-2.14-1.3c-.73.05-.73.05-1.17-1.06l-.6.1c-.45-.26-1.24-7.39-1-8.81l.81.53c0-.31,0-.54,0-.78-.08-1.17-.15-2.35-.26-3.52,0-.27,0-.7-.61-.59,0,.69-.64,1-.78,1.69-.23,1.14-.62,2.26-.82,3.4q-.54,3-.92,6c-.26,2-.42,4-.64,6.08a4.36,4.36,0,0,1-.2.79c-.1.3-.22.59-.7.42.22.77-.27,1.06-.72,1.35s-.94-.05-1.38-.27c.08-.81.17-1.62.22-2.44a.5.5,0,0,0-.18-.41c-.23-.12-.37.05-.44.26s-.19.62-.28.93-.15.63-.25.94c-.23.76-.37.9-.82.86-.82-.08-1-.29-1.15-1.09l-.06-.36c-.08,0-.14,0-.16.06-.58.91-.66.93-1.56.34-.32-.21-.63-.47-.94-.7-.1-.08-.21-.2-.31-.21-.52,0-.75-.28-.95-.75a3.21,3.21,0,0,1-.42-1.23c0-.64-.18-1.28-.26-1.92-.11-.93-.19-1.87-.3-2.8a3.25,3.25,0,0,0-.24-.58l-.21.63c-.07-.11-.13-.17-.13-.23,0-.8-.08-1.59-.09-2.39,0-3.38-.05-6.76-.08-10.15,0-.49-.07-1-.1-1.47l-4.39.15a1.77,1.77,0,0,0,0,.41,23.15,23.15,0,0,1,.13,6.7A51.18,51.18,0,0,1,123,50.49a11.25,11.25,0,0,1-3.4,5.6A5.35,5.35,0,0,1,116,57.57a2.48,2.48,0,0,1-1.68-.47,2.18,2.18,0,0,0-1.38-.48,2.8,2.8,0,0,1-1.46-.51,16.84,16.84,0,0,1-4.37-3.22l-.62.61c-1,1-1.89,2-2.87,2.93a8.47,8.47,0,0,1-1.34.94,1.11,1.11,0,0,1-.63.19,1.14,1.14,0,0,1-.54-.27c.15-.43-.5-.79-.08-1.28-.74.6-1.4,1.27-2.51.73l-.27-.58c-.91.62-1.5-.12-2.18-.5,0,0-.07-.18-.1-.18-.9,0-1.11-.81-1.46-1.38-.58-1-1.12-1.93-1.61-2.93s-1-2.29-1.53-3.42c-.4-.85-.88-1.66-1.33-2.48a5.46,5.46,0,0,0-.81.39,1.21,1.21,0,0,0-.37.52c-.3.76-.56,1.53-.84,2.3a8.2,8.2,0,0,1-2.67,3.61,4.47,4.47,0,0,1-4.15.79c-.29-.08-.58-.18-.87-.23a15.1,15.1,0,0,1-8.38-4.54,7.69,7.69,0,0,1-1-1.24,18.83,18.83,0,0,1-1.28-2.27,8.15,8.15,0,0,1-.36-5.27,17.55,17.55,0,0,1,3.1-6.49,15.48,15.48,0,0,1,4.12-3.74,23,23,0,0,1,4.61-2.42c.61-.22,1.24-.37,1.86-.56s.72-.29.64-.95c-.21-1.88-.43-3.75-.64-5.63a7.79,7.79,0,0,1,0-1c0-.22.15-.29.36-.24h0a9.75,9.75,0,0,1,.23,2.26,4.18,4.18,0,0,0,.18,1.51c.08.35.13.72.2,1.08.13.65.24,1.31.4,1.95,0,.19.25.33.41.54a1,1,0,0,0,.12-.93c-.15-1.2-.35-2.41-.48-3.62-.17-1.6-.28-3.21-.4-4.82a4.63,4.63,0,0,1,.12-.89c.3,0,.74,0,.68.4A5.43,5.43,0,0,0,85,17.09c0,1.09.08,2.18.21,3.26.17,1.5.42,3,.65,4.49,0,.21.06.45.41.49a7.79,7.79,0,0,0,0-1c-.2-1.7-.43-3.4-.64-5.1,0-.19-.1-.4.26-.48s.17-.4,0-.6c-.42-.39-.48-.72-.11-1.11s.09-.53,0-.77a2.55,2.55,0,0,0-.26-.3L85.8,16a7.58,7.58,0,0,1,0-2.81c.19.06.38.17.6-.12l-.59-.14c.06-.42-.26-.51-.5-.66l-.57.47,1.09.17v.3l-.81.1c0,.46-.4.91,0,1.32l-.84.86a3,3,0,0,0,0-.74c-.1-.35.11-.49.4-.63l-.36-.68.37-.33a4.19,4.19,0,0,1-.1-2.49l-.77.45a4.44,4.44,0,0,1,.7-2.51.75.75,0,0,1,.08-1c.34-.48.67-1,1-1.49a2.71,2.71,0,0,0,.38-.85,4.83,4.83,0,0,1,.87-1.53.91.91,0,0,1,.75-.36c.52.12.72-.24,1-.5a2.14,2.14,0,0,0,.51-.62,1.19,1.19,0,0,1,1-.71.64.64,0,0,0,.46-.29,1.24,1.24,0,0,1,.83-.67A11.33,11.33,0,0,1,92.44.08,4.51,4.51,0,0,1,93.76,0c.58.05,1.15.21,1.73.28a3.49,3.49,0,0,1,2.12,1.27A10.14,10.14,0,0,1,99.55,5a28,28,0,0,1,1,4.34,8.5,8.5,0,0,1,.08,2.08c-.06,1.61-.08,3.23-.29,4.82-.24,1.89-.67,3.76-1,5.64A14.61,14.61,0,0,1,98.73,24c-.25.69-.35,1.41-.57,2.1s-.41,1.44-.62,2.15-.42,1.43-.66,2.14A2.66,2.66,0,0,0,96.8,32c.45,2,.87,3.93,1.29,5.9.17.85.28,1.71.49,2.55.28,1.18.61,2.34.93,3.51a2.67,2.67,0,0,0,.21.4c1.27-1.61,1.84-3.59,3.21-5l.16.09a11.34,11.34,0,0,1-.54,1.24c-.8,1.47-1.61,2.92-2.43,4.37a1,1,0,0,0-.08,1.15,1.66,1.66,0,0,0,.2-.26c.75-1.41,1.5-2.81,2.23-4.23.28-.54.51-1.12.78-1.67a2.67,2.67,0,0,1,1-1.21,1.9,1.9,0,0,0,.5-.72c.76-1.34,1.48-2.7,2.26-4a11.62,11.62,0,0,1,5.35-4.49,14.41,14.41,0,0,1,3.84-1.15c1.25-.21,2.5-.45,3.76-.59a6,6,0,0,1,4,.82c.16.11.36.16.53.26a1.69,1.69,0,0,0,2-.16,8.74,8.74,0,0,1,3-1.44,1,1,0,0,1,.63,0,1.8,1.8,0,0,0,1.63-.07A6.93,6.93,0,0,1,133.6,27a9.69,9.69,0,0,1,1.32,0,2.12,2.12,0,0,1,1.33.62,3,3,0,0,0,1.24.78,2.2,2.2,0,0,1,.82.61c.49.49.47.49,1.06.23a5.19,5.19,0,0,1,2.86-.66c.07,0,.17,0,.22,0,.58-.41,1.29-.25,1.93-.46a4.16,4.16,0,0,1,3.51.46c.32.19.68.32,1,.52.7.46,1.38.95,2.15,1.47.21-.22.48-.49.74-.78a3.73,3.73,0,0,1,3-1.3,7.32,7.32,0,0,0,1.19-.28c1.4-.25,2.8-.8,4.16.18.6.43,1.31.72,1.88,1.18a5.89,5.89,0,0,1,1.51,2.19,34.9,34.9,0,0,1,2.2,8.65c.54,3.11,1,6.24,1.83,9.3.08.3.19.6.35,1.09.26-.45.45-.73.61-1a30.63,30.63,0,0,0,2.21-5.78,62.82,62.82,0,0,0,1.81-8.68c0-.17.1-.33.19-.63.27.82-.23,4.07-1.13,7.74a45.46,45.46,0,0,1-2.47,7.33l.14.06.43-.8a34.71,34.71,0,0,0,2.49-7.34,56.87,56.87,0,0,0,1.34-7.79,49.65,49.65,0,0,0,.16-8.27,24.25,24.25,0,0,0-.74-3.87,3.2,3.2,0,0,0-1-1.72c-.12-.1-.09-.36-.15-.65a1.59,1.59,0,0,1-.88-1.14c-.2-.13-.42-.2-.52-.35a3,3,0,0,0-1.49-1.16c-.79-.33-1.63-.55-2.44-.82a2.84,2.84,0,0,0-2.44.28,12.46,12.46,0,0,0-3.88,3.56c-.18.25-.39.5-.62.8l-.39-.58-.64.91-.53-.33c-.33.27-.68.51-1.06,0-.05-.07-.27,0-.44,0a1.21,1.21,0,0,1,.15-1.59A17.31,17.31,0,0,1,159.1,16a12.78,12.78,0,0,1,3.28-2,14,14,0,0,1,2.67-.92,8.8,8.8,0,0,1,5.38.48c.1,0,.23,0,.35,0A1.59,1.59,0,0,1,172,14c.23.22.48.41.81.68a.43.43,0,0,1,.28,0,12.15,12.15,0,0,1,1.55.84,17.47,17.47,0,0,1,1.81,1.4,11.08,11.08,0,0,1,3,4.31,23.59,23.59,0,0,1,1.13,4.07,35.73,35.73,0,0,1,.64,8.69,52.57,52.57,0,0,1-.92,7.69,43,43,0,0,1-2.21,7.73,28.68,28.68,0,0,1-3.12,6.18,10.87,10.87,0,0,1-3,3.1,3.52,3.52,0,0,1-3.33.48,1.78,1.78,0,0,0-.51-.1,11.36,11.36,0,0,1-6.54-3,6.67,6.67,0,0,1-1.91-2.73c-.13-.33-.4-.62-.55-.95a12.45,12.45,0,0,1-.63-1.67c-.28-1-.5-2-.75-3a5,5,0,0,0-.21-.54ZM85.07,11.86c.31-.15.77.07,1-.39-.14-.2-.29-.37-.52-.15a4.94,4.94,0,0,0-.44.56c-.12-.12-.24-.18-.32,0,0,0,0,.11.07.17Zm2.22,34.55c.23-.09.23-.09.18-.39l-.18.22a2.1,2.1,0,0,0,0-1.11,21,21,0,0,0-1.94,3.31,1.51,1.51,0,0,0-.11.52l.16.09a7.49,7.49,0,0,0,.76-.84C86.55,47.63,86.91,47,87.29,46.41Zm67.32-7.56a4.24,4.24,0,0,0-.14,1.91L155,38.3l-.1,0-.2.31a7.5,7.5,0,0,1,.14-1c.15-.65.34-1.29.5-1.94a1,1,0,0,0-.1-1c-.81,1.16-1.41,4.17-1,5.15ZM94.4,15c-.31-.05-.21-.31-.21-.47,0-.54.14-1.08.14-1.62,0-1.26,0-2.53-.15-3.79a6.52,6.52,0,0,0-.51-2.42l-.16,0,.22,3.1-.2,0-.15-1a8.9,8.9,0,0,0,0,4.38l-.63.22c.45.14.89.2.79.65a6.35,6.35,0,0,0,.13,2c0,.12.11.23.21.41L94.4,15a11.43,11.43,0,0,1-.22,2.8,2.09,2.09,0,0,0,.48,1.94c.16-1.54.8-2.94.44-4.48l-.1.48a3.84,3.84,0,0,1,.25-1.22,1.24,1.24,0,0,0-.1-1.26c.62-.59.29-1.32.26-2l-.11.42-.16,0c.08-.29.18-.57.25-.87s.06-.41,0-.44c-.35-.21-.27-.55-.32-.85-.12-.73-.26-1.47-.4-2.2a2.22,2.22,0,0,0-.2-.45,2.86,2.86,0,0,0,0,1,27.45,27.45,0,0,1,.07,7.13S94.46,14.93,94.4,15ZM89,19.08l-.07,1.21h.2L89,19.09c-.06-.79-.14-1.58-.18-2.37a14.75,14.75,0,0,1-.15-2.32,8.15,8.15,0,0,0-.41-2.3c-.08.09-.13.12-.13.16,0,.47.1,1-.44,1.29-.07,0-.05.23-.06.35q-.06.47-.09.93c0,.22-.1.51,0,.64.39.46.15,1,.2,1.47,0,.14-.09.32,0,.42a8.58,8.58,0,0,1,.42,2.56c.26,1.41.44,2.84.66,4.26a1,1,0,0,0,.52.9c0-1.51-.39-2.87-.52-4.26s-.35-2.78-.53-4.18l.16,0c.11.7.21,1.4.34,2.09C88.79,18.85,88.92,19,89,19.08Zm90.4,8.64a1.69,1.69,0,0,1-.19-.38c-.11-.61-.2-1.22-.31-1.83a5.41,5.41,0,0,0-.19-.69l-.15,0c.9,10.27-.49,20.12-5.25,29.38a7.18,7.18,0,0,0,1.55-2.15A44.49,44.49,0,0,0,177,46.93a48.1,48.1,0,0,0,1.44-5.55,50.18,50.18,0,0,0,1-10.45V30h.14v2a13.5,13.5,0,0,0-.33-5.37l.09,1.11ZM114.68,48.17l.17.06a3.69,3.69,0,0,0,.58-.61,17.63,17.63,0,0,0,1.32-2.25,24.85,24.85,0,0,0,2.16-8.94,4.79,4.79,0,0,0-.1-.66c-.38.53-.66.89-.91,1.28a23.94,23.94,0,0,0-2.35,5.15,18.07,18.07,0,0,0-.92,5C114.62,47.55,114.66,47.86,114.68,48.17Zm-16-41.6c-.48.24-.3.62-.27.95,0,.17.11.35.07.51a4.11,4.11,0,0,0-.06,2.06c.06.22.21.47.17.67a4.16,4.16,0,0,0-.06,1.57,4.2,4.2,0,0,1,0,1.54,14.64,14.64,0,0,0-.21,1.62c0,.07.05.14.05.22A10.38,10.38,0,0,1,98.18,17c-.31,1.57-.64,3.14-1,4.7-.28,1.34-.58,2.67-.88,4-.12.53-.27,1.06-.39,1.59a.94.94,0,0,0,.2,1,3.74,3.74,0,0,0,.29-.63c.34-1.2.66-2.4,1-3.6.12-.44.08-1,.59-1.21a.19.19,0,0,0,.07-.13c.12-.55.25-1.09.36-1.64,0-.12,0-.33,0-.35-.35-.17-.16-.31,0-.49a1,1,0,0,0,.24-.44c.25-1.59.56-3.18.73-4.78a22.62,22.62,0,0,0,0-5.87A8.56,8.56,0,0,0,98.65,6.57ZM80.87,45c.23-.26.45-.48.63-.73a16.92,16.92,0,0,0,1.66-3.08,25.53,25.53,0,0,0,1.73-5.85,6.07,6.07,0,0,0,0-.74C82.36,36.38,79.87,42.77,80.87,45ZM91.12,8.87l-.14,0a1.81,1.81,0,0,0-.29.47,11.32,11.32,0,0,0-.43,3.07c0,.59-.08,1.19-.08,1.79,0,.8,0,1.61,0,2.41.45.28.32.75.38,1.17,0,.07,0,.17,0,.2.34.26.34.62.4,1a4.26,4.26,0,0,0,.41,1l-.54.15a7,7,0,0,1,.78,1.55l-.39.44,0,.26c.46-.39.63-.08.85.19a4.72,4.72,0,0,0,0-2.18l.44.15c0-.32,0-.59,0-.85-.1-.79-.22-1.57-.32-2.35s-.22-1.8-.34-2.7c-.15-1.21-.56-2.39-.63-3.62,0-.31,0-.63,0-.94S91.16,9.27,91.12,8.87Zm5.39-2-.14,0c0,.36,0,.73.08,1.1a31.24,31.24,0,0,1,.14,6c-.11,1.13-.25,2.26-.41,3.39-.2,1.37-.43,2.73-.66,4.1-.11.68-.24,1.35-.37,2.1l.36-.14-.06.6a.62.62,0,0,0,.16-.28,53.11,53.11,0,0,0,1.53-7.81,22,22,0,0,0,.16-2.3,5.1,5.1,0,0,0-.19-2.25,1.79,1.79,0,0,1,.09-1.57Zm77.56,30c1-5.24.89-12.13-.4-15,.21,1.76.48,3.4.6,5s.13,3.38.09,5.07S174.17,35.18,174.07,36.82Zm2.67-3.06c0-.5.13-1,.13-1.48,0-1.44,0-2.89,0-4.33,0-.94-.23-1.88-.25-2.82a11.62,11.62,0,0,0-.61-2.67c0-.06-.07-.12-.1-.19l-.17.07A62.71,62.71,0,0,1,176.74,33.76Zm-34.38,1.3c-1.45,1.83-2.34,4.76-1.89,6.15.68-2,1.35-3.87,2-5.79C142.5,35.35,142.43,35.24,142.36,35.06Zm-60.3,9.3a17.13,17.13,0,0,0,3.34-9.79A31.37,31.37,0,0,1,82.06,44.36ZM72.65,34c-1.46,1.28-2.76,4.57-2.43,6.07C70.93,38.05,72,36.18,72.65,34Zm46.56,3.56c-.21,1.12-.36,2.25-.63,3.36a29.87,29.87,0,0,1-1,3.34c-.39,1.05-.91,2.05-1.37,3.07l.15.06C118.47,44.49,119,41.08,119.21,37.59Zm2.71,9.74c-.51,1.06-.91,2-1.41,2.93A17.31,17.31,0,0,0,119,53.09C120.34,52.69,121.62,49.8,121.92,47.33Zm-14.17-13a9,9,0,0,0-2.3,4.82A22,22,0,0,0,107.75,34.28ZM105.4,50.83l-.25-.09c-.8,1-1.61,2-2.4,3.09a1.64,1.64,0,0,0-.17.49c.14,0,.24,0,.27,0,.82-.93,1.65-1.85,2.44-2.81C105.41,51.33,105.36,51.05,105.4,50.83ZM86,36.37l-2.22,7A17.69,17.69,0,0,0,86,36.37Zm27.54,3.77a11.11,11.11,0,0,0,1.85-4C114.12,37.21,113.92,38.71,113.55,40.14Zm-34.84-.27a16.9,16.9,0,0,0,1.62-3.7A4.53,4.53,0,0,0,78.71,39.87Zm38.71,7.61a16.15,16.15,0,0,0,2-5.77c-.12.09-.18.11-.19.14Zm12.23-7.79a9.91,9.91,0,0,0-.07-4.17l-.43,1.11C130,37.5,129.4,38.66,129.65,39.69ZM69.86,40.75h-.17A4.18,4.18,0,0,0,70,44.11Zm49.28,7.5.16.06a13.52,13.52,0,0,0,1.42-4.24l-.15,0ZM73.36,36c-1,1.06-1.39,2-1.15,2.89C72.57,37.85,73.09,37.05,73.36,36Zm33.86,2.61a5.28,5.28,0,0,0,1.16-2.37A3.61,3.61,0,0,0,107.22,38.59Zm-6.91,9.69a6.44,6.44,0,0,0,1.46-2.72A9.41,9.41,0,0,0,100.31,48.28Zm76.8-15.17a21.47,21.47,0,0,0,0-5.13ZM87.19,39.44,87,39.37l-.75,2.49A4.65,4.65,0,0,0,87.19,39.44ZM86.06,19.75l-.13,0,.36,3.1.18,0Zm55,21-.17-.05a3.26,3.26,0,0,0-.28,1.93Zm-27.15-.34.15.08a4.93,4.93,0,0,0,.81-1.58l-.15-.08Zm15.87,3c.12-1.06.12-1.06-.23-1.28C129.6,42.54,129.28,43,129.78,43.39ZM79.66,38.87l-.72,1.54.13.06A2.3,2.3,0,0,0,79.66,38.87ZM92.51,23.21a.6.6,0,0,0,0,1Zm37.26,21.63c-.15.29-.56.41-.52.92C129.59,45.47,129.92,45.3,129.77,44.84Zm14.89,5.53.19,0-.17-1.19-.17,0ZM75.38,38.62l.17.09.38-.84-.17-.08Zm35.66-.7-.16-.08-.41.79.16.08Zm18.25,3.15.12.2.41-.21c0-.07-.13-.22-.15-.21A3.72,3.72,0,0,0,129.29,41.07Zm.35,6.47-.23-.76C129.2,47.19,129.13,47.43,129.64,47.54ZM89.14,4.33l.15.22c.13-.11.27-.21.39-.32s-.1-.15-.11-.14Zm40.8,39.9-.18-.16c0,.24-.42.21-.32.64ZM93.72,16.66c-.15.23-.21.39,0,.6C94,17.05,93.93,16.88,93.72,16.66Zm50.67,27.61h0v-.7l-.11,0Zm33.76-21.85.18,0-.12-.53-.14,0ZM129.68,48.34l.11-.09-.27-.29-.11.1Zm14.61-.84.15,0-.11-.4-.08,0ZM85.73,8.18,85.84,8l-.32-.14a.3.3,0,0,0-.06.11A2.78,2.78,0,0,0,85.73,8.18Zm7,14.28h.12v-.73H92.7Zm85.7.5-.11,0a2.21,2.21,0,0,0,.05.25,1.38,1.38,0,0,0,.14.27l.08,0Zm-5.52-6.49c0-.39,0-.39-.39-.29Zm-75.73-6,0,.71C97.4,10.86,97.59,10.67,97.15,10.45ZM174.82,25l-.1,0,.05.45Zm-88.25-.57.12,0-.08-.31-.12,0Zm91.15-1.68c.07-.08.13-.13.13-.18s-.06-.12-.1-.17-.12.09-.13.15S177.67,22.62,177.72,22.71ZM175,26.29h-.08c0,.09,0,.18,0,.26l0,0Zm.62-5.27c-.06.14-.11.2-.09.22a1,1,0,0,0,.14.17Zm-44,13.58c-.12-.11-.2-.22-.24-.2s-.13.11-.17.19.08.12.13.12A1,1,0,0,0,131.56,34.6Zm-2.17,2.94-.09-.15s-.11.06-.1.08a.41.41,0,0,0,.07.17Z"/><path class="e3bb8d5b-290f-401a-b107-1ae4a21dccd2" d="M9.5,40.11c-.65-.12-.66-.14-.59-.8a.69.69,0,0,0,0-.35,2,2,0,0,1-.16-1.45A3.72,3.72,0,0,0,8.41,36a1.57,1.57,0,0,1-.07-.61,3.49,3.49,0,0,0,0-1.29,3.58,3.58,0,0,1-.18-1.17c.09-2.06.18-4.12.34-6.17.13-1.71.33-3.42.54-5.12.13-1.05.33-2.1.49-3.15.09-.59.18-1.18.25-1.77,0-.31.15-.51.69-.41-.45-.39-.1-.89-.56-1.22a7.23,7.23,0,0,0-.37.84c-.24.88-.51,1.75-.67,2.64-.25,1.34-.44,2.69-.62,4-.2,1.59-.38,3.19-.53,4.79-.1,1.06-.11,2.12-.22,3.17a6,6,0,0,1-.33,1.15l-.15,0c0-.63,0-1.27,0-1.9.06-1,.13-2.08.23-3.12s.24-1.81.35-2.72c.06-.54.06-1.09.16-1.62.19-1,.45-1.93.65-2.9a7.73,7.73,0,0,1,.14-1.09c.59-1.43.46-3,1-4.46s.81-2.93,1.28-4.37a15.19,15.19,0,0,1,1.11-2.59,6.57,6.57,0,0,1,1.25-1.44c.37-.35.81-.62,1.27-.13l1.49-1a.37.37,0,0,1,.27,0,.75.75,0,0,0,1-.35,1.07,1.07,0,0,1,1.33-.49l.47.08-.21,1.83a5.45,5.45,0,0,0,1.29-1.42,1.43,1.43,0,0,1,1.33,1.35,7.11,7.11,0,0,1-.08,2.52c-.41,2.3-.89,4.59-1.29,6.9-.29,1.64-.51,3.29-.72,4.94-.17,1.28-.33,2.57-.43,3.85-.14,1.84-.28,3.67-.32,5.51,0,2,0,4.07.07,6.11a14.93,14.93,0,0,0,.23,2.2,13.85,13.85,0,0,1,.29,3.21.63.63,0,0,0,.14.44c.63.64.49,1.56.85,2.31.44.92.73,1.89,1.13,2.83.18.44.44.46.8.11s.94-.89,1.35-1.37a1.37,1.37,0,0,0,.18-1.47,20.32,20.32,0,0,1-1.05-4.42,31.54,31.54,0,0,1,1.7-15.43,12.33,12.33,0,0,1,5.2-6C30.7,16.72,32,16,33.27,15.31a7.44,7.44,0,0,1,4.36-.71l1.11.12a4.53,4.53,0,0,1,3.95,2.88,8.51,8.51,0,0,1-.79,7.8,10.23,10.23,0,0,1-6.27,4.51,6.7,6.7,0,0,1-1.16.26.58.58,0,0,0-.56.65c0,.82-.07,1.64,0,2.46A28.52,28.52,0,0,0,35,41.39a12.18,12.18,0,0,0,1.43,3.19,4.17,4.17,0,0,0,3.13,2.05,2.25,2.25,0,0,0,2.53-2.13,33,33,0,0,1,.9-6.4c.3-1.17.76-2.28,1.09-3.43a6.35,6.35,0,0,1,.86-2.27c.25-.34.18-.9.32-1.34a17.42,17.42,0,0,1,1.89-3.88c.31-.5.5-1.09,1.06-1.42.11-.07.1-.32.2-.45a2.94,2.94,0,0,1,.79-.74l.09-.61.62-.07c-.32-.52.32-.61.41-.93.31-1,1.3-1.38,1.83-2.17a1,1,0,0,1,.28-.23c.42-.24.34-.31.88-.89.32-.34.52-.87,1.1-1,.31-.07.56-.39.86-.55a7.83,7.83,0,0,1,.79-.34,1.91,1.91,0,0,0,.6-.26,13.67,13.67,0,0,1,2.18-1.28,3.15,3.15,0,0,1,1.65-.53,6.58,6.58,0,0,1,2,.21c.83.24.95,1.54.24,2.17l-.84.69a3,3,0,0,1,.63,1.95q.43,3.56.94,7.1c.61,4.24,1.25,8.47,1.87,12.7q.86,5.7,2.15,11.29c0,.19.13.37.24.71a5.51,5.51,0,0,0,.39-.64c.22-.55.4-1.12.63-1.67a5.06,5.06,0,0,1,.67-1.53c.16-.2.47-.6.07-.93l.51-1,.23.43.54-.5.33.39a1.68,1.68,0,0,1,.2-.5.63.63,0,0,1,.42-.19c.06,0,.2.22.19.34a9.58,9.58,0,0,1-.17,1.18c-.1.55-.24,1.1-.31,1.66A2.72,2.72,0,0,0,71.88,48a2.65,2.65,0,0,1,.45-1.34.75.75,0,0,1,.4.89A13,13,0,0,1,72.39,49a22.48,22.48,0,0,1-2.27,5,1.37,1.37,0,0,0-.22,1.12,1.93,1.93,0,0,1-1.71,2.15,1,1,0,0,0-.36.06,5.21,5.21,0,0,1-3.42.15,2,2,0,0,1-1.56-1.25c-.29-.68-.69-1.31-1-2s-.48-1.25-.73-1.87c-.19-.44-.19-1-.71-1.25a3.35,3.35,0,0,0-.66-2.52c.06-.62.06-.62-.4-1l.41,1a5.78,5.78,0,0,0,.67,2.53c-.19.25-.3.08-.36-.09-.17-.47-.32-.94-.46-1.42s-.28-.94-.46-1.53a2.25,2.25,0,0,0-.33.44c-.28.71-.56,1.43-.79,2.17a9,9,0,0,1-1.25,2.53,2.75,2.75,0,0,1-2.47,1.26,1.94,1.94,0,0,0-.59.05,11.21,11.21,0,0,1-7.13-.76,4.06,4.06,0,0,1-2.12-2,.64.64,0,0,0-.77-.4,25.81,25.81,0,0,1-12.57-1.12,12.83,12.83,0,0,1-4.26-2.25,3,3,0,0,0-.36-.22c-.17.24-.32.47-.48.68-.47.58-.92,1.17-1.44,1.71a3.37,3.37,0,0,1-2.49,1c-.52,0-1,.11-1.56.07a19.91,19.91,0,0,1-2.43-.3,11.13,11.13,0,0,1-6-3,10.08,10.08,0,0,1-1-1.39l-.17-.21c-.16-.27-.47-.55-.45-.8,0-.59-.52-1-.31-1.62-.48-.22-.45-.73-.65-1.11a1.45,1.45,0,0,1-.25-1.26c0-.11-.06-.28-.11-.42a.86.86,0,0,1,.33-1.1l.45,0c-.07.2-.14.41-.2.61-.14.5-.09.56.49.66l-.46.41c.45,0,.45,0,.45-.41,0-.08-.07-.2,0-.23a3.61,3.61,0,0,1,.42-.32l-.68-.7c0-.32-.14-.46-.51-.52Zm6.8-13c.31.47.07,1,0,1.44a34.81,34.81,0,0,0-.24,4.33,2.3,2.3,0,0,0,.12.43,1,1,0,0,0,.21-.58c.08-1.3.13-2.61.22-3.91.14-1.78.31-3.56.45-5.34a4.43,4.43,0,0,0,0-.63.81.81,0,0,0-.24.48c-.09.91-.16,1.83-.28,2.74a7.8,7.8,0,0,1-.26,1.06l.21-2.23a43.25,43.25,0,0,1,.89-7c.05-.19-.11-.45,0-.6.24-.43.14-1,.31-1.34.41-1-.07-2.11.56-3,0-.05,0-.14,0-.22A15.33,15.33,0,0,1,18.87,9a5,5,0,0,0,.22-1.66,2.18,2.18,0,0,0-.65,1.38c-.17.74-.36,1.49-.55,2.23-.24.94-.55,1.86-.74,2.8-.26,1.28-.45,2.58-.63,3.87-.2,1.53-.39,3.05-.53,4.58-.11,1.22-.17,2.44-.2,3.65a5.17,5.17,0,0,0,0,1.84c.12.37-.18.57-.55.64.56.66.56.66,0,1.52l.66.62c.08-.05.16-.07.16-.1ZM54,47.17c.23-.32.39-.48.49-.66a46.67,46.67,0,0,0,2.12-4.39c0-.07.13-.19.17-.19.39.06.33-.22.33-.43a8.75,8.75,0,0,0-.05-1.62,48,48,0,0,1-.86-8.29,3.37,3.37,0,0,0-.12-.6c-.13.3-.21.42-.25.56-.52,1.81-1.11,3.61-1.53,5.44a25.72,25.72,0,0,0-.52,9.25C53.84,46.5,53.92,46.74,54,47.17Zm-3.11-2.61.16,0s.06-.08.06-.12a40.2,40.2,0,0,1,.71-6.18c.24-.9.31-1.85.46-2.77a1,1,0,0,0-.11-.82,1.55,1.55,0,0,0-.31.35A13.41,13.41,0,0,0,51,37.43a20.15,20.15,0,0,0-.32,5.85C50.76,43.71,50.85,44.13,50.91,44.56ZM34.5,26.92a.89.89,0,0,0,.26-.12,5.88,5.88,0,0,0,1.91-3.61A1.76,1.76,0,0,0,36,21.42C35.15,22.67,34.25,26,34.5,26.92ZM10.55,20.35l-.17,0a5.52,5.52,0,0,0-.16.54c-.21,1.17-.4,2.34-.6,3.51a40.07,40.07,0,0,0-.41,7.74,3.19,3.19,0,0,0,.12.6c.25-.26.14-.68.57-.75a1.46,1.46,0,0,0,0-.25c-.48.07-.38-.3-.36-.53.24-2.67.49-5.35.75-8C10.35,22.22,10.45,21.28,10.55,20.35Zm2.76,1.36c-.63,1.21-1.38,9-1,10.24.61-.06.58-.07.69-.6a16,16,0,0,1,.15-2,.63.63,0,0,0-.11-.56c-.28-.19-.21-.43-.19-.66q.09-1.25.21-2.49c.1-1.08.22-2.17.33-3.26A4.79,4.79,0,0,0,13.31,21.71ZM24,27c-1,2-1.31,9.19-.51,11.67C23.22,34.73,23.91,30.9,24,27Zm20.25,9L44,36c-.24.89-.54,1.77-.71,2.67-.26,1.33-.47,2.68-.62,4a3,3,0,0,0,.18,1.88,1.09,1.09,0,0,0,.5-1,37.93,37.93,0,0,1,.75-6.64A8.2,8.2,0,0,0,44.24,36Zm18.12-3.71c-.08-.8-.14-1.47-.2-2.13-.17-1.82-.38-3.64-.51-5.47-.11-1.43-.12-2.87-.18-4.31,0-.23,0-.49-.22-.67C60.78,21.35,61.57,30.77,62.36,32.33ZM56.89,29a1.77,1.77,0,0,0-.3,1.29c0,1.34.08,2.69.2,4s.32,2.81.5,4.21c0,.12.11.22.17.33l.11,0C57.35,35.57,57.12,32.33,56.89,29Zm.92-1.56c-.42,2.27-.13,8.13.44,8.94C58.1,33.35,58,30.38,57.81,27.42ZM24.72,35a54.73,54.73,0,0,0,.49-6A12.58,12.58,0,0,0,24.72,35Zm19.64,9.51a1.72,1.72,0,0,0,.42-1.27L44.9,42c0-.42.07-.84.11-1.26.07-.79.07-.79-.11-1.21C44.59,41.18,44,42.74,44.36,44.54Zm3.16.7a19.24,19.24,0,0,0,.36-5,7,7,0,0,0-.43,2.11C47.45,43.25,47.49,44.18,47.52,45.24ZM59.64,27.05A13.41,13.41,0,0,0,60,32.2,38.73,38.73,0,0,0,59.64,27.05ZM31.24,33.6a1.59,1.59,0,0,0,.15-.41c.08-.81.15-1.63.21-2.44,0-.2,0-.43-.26-.45s-.32.2-.31.4c0,.94.08,1.87.12,2.8C31.15,33.52,31.18,33.54,31.24,33.6Zm-18.44.74.22,0a2.67,2.67,0,0,0,0-.4c0-.07-.16-.13-.16-.19,0-.44.08-.89.12-1.32-.76-.19-.76-.19-.8.44l.51-.24-.43,1ZM41.51,21.76a2.44,2.44,0,0,0-.12-2.43A3,3,0,0,0,41.51,21.76ZM27.79,32.64a6.62,6.62,0,0,0,.4-3A6.49,6.49,0,0,0,27.79,32.64ZM51.42,44.5a7.23,7.23,0,0,0,.32-3.36h-.16Zm-19.35-14h-.19a7.38,7.38,0,0,0,0,2.85c.13-.86.22-1.71.29-2.57A.94.94,0,0,0,32.07,30.52ZM9.78,34.27l.26-.66L9.4,33l-.16.08a3.55,3.55,0,0,0,.16,1.11Zm1.21-16c-.59.71-.64.88-.52,1.45.21-.26.45-.5.65-.78A.43.43,0,0,0,11,18.26Zm21,7.4h-.17c-.38.71-.48,1-.34,1.3,0,.06.2.06.39.12ZM11.51,17l-.11-.12-.81.19a2.09,2.09,0,0,1,.37.44,2.53,2.53,0,0,1,0,.6C11.6,17.81,11.19,17.27,11.51,17ZM62,25.87h-.11c0,.36,0,.73,0,1.09s.1.68.16,1,.13.68.2,1h.07ZM24.14,43a2.65,2.65,0,0,0-.64-1.8A5.25,5.25,0,0,0,24.14,43ZM13.53,24.25l.11,0,.16-2.08a2.85,2.85,0,0,0-.26,1C13.51,23.52,13.53,23.89,13.53,24.25ZM10.08,35c-.48.43-.5.66-.19,1.09ZM37,22.73h.21a.92.92,0,0,0-.29-1ZM48.34,41.56h.07V40h-.07Zm-38.06-3.3-.26.87C10.48,38.84,10.48,38.84,10.28,38.26Zm2.45-3.16c-.34.45-.32.75,0,.85Zm2.58-2.5.56,0-.3-.67ZM38,22.42c.09-.45.09-.45-.22-.72ZM10.24,37.54l-.14-.17c0,.05-.13.11-.12.13a1.15,1.15,0,0,0,.14.19ZM9,38.8l.24,0c0-.14-.07-.28-.11-.42H9.05C9,38.5,9,38.65,9,38.8Zm53.35-5.12.11,0,0-.46h-.07Zm-46.77,1,.1-.06-.2-.33-.12.07Zm.77,1.11.14-.09a1.31,1.31,0,0,0-.17-.24s-.11.05-.16.08ZM13.85,20.41h0v-.35h0Zm-2.61-5-.11.15s.07.08.1.07.1-.06.16-.09ZM9.69,39.23c0-.06,0-.14-.06-.14l-.19,0,.07.16Zm6.66-4.69c0,.05-.09.1-.08.11a1.58,1.58,0,0,0,.12.15l.11-.13Zm43.7-6.88h0V28h0Z"/><path class="e3bb8d5b-290f-401a-b107-1ae4a21dccd2" d="M31.11,13.1A1.23,1.23,0,0,0,30,12.72c-4.29.35-8.58.69-12.87,1-4.14.3-8.29.56-12.44.82-.82.05-1.64,0-2.46,0-.49,0-1,0-1.49.08l-.14-.82a11.5,11.5,0,0,1,2.87-.94,2.67,2.67,0,0,0-1.51,0L.31,13.1c0-.48,0-.86.06-1.24s.25-.32.48-.36c1-.18,2.05-.4,3.08-.56,2.16-.31,4.33-.62,6.49-.89,2.74-.34,5.49-.63,8.23-1l6.89-.8a.82.82,0,0,0,.22-.12,1.53,1.53,0,0,0-.36-.09L13.09,9.45c-2.57.28-5.14.54-7.71.86-1.06.13-2.1.38-3.14.6-.51.1-1,.26-1.52.36a3.17,3.17,0,0,1-.72,0c.17-.23.23-.41.34-.46a8.59,8.59,0,0,1,1.57-.47c2.67-.44,5.35-.86,8-1.24,2.91-.41,5.82-.77,8.73-1.15,2.17-.28,4.34-.56,6.52-.81C26.13,7,27.07,7,28,6.93l.87-.07,0-.16a3.17,3.17,0,0,0-.77-.18,77.45,77.45,0,0,0-10.09,1c-2,.31-4.1.53-6.14.8l-3.85.52L6.1,9c0-.1.05-.17.07-.17,1.66-.29,3.32-.58,5-.83,1.82-.28,3.65-.53,5.47-.79a69.12,69.12,0,0,1,9.62-1.11c1.29,0,2.58.15,3.87.24a.46.46,0,0,1,.31.19l-.7.15c.54.37,1.28.06,1.72.68l-.83.5c1,.22,1.17,1.3,2.07,1.59l-.07.15-1.27.53v.12L33,10.21l0,.11-.47.16,0,.09,1,.07a8.46,8.46,0,0,1,.12.86.67.67,0,0,1-.5.74,3,3,0,0,0-.79.45c.41,0,.63.54,1.16.29a2,2,0,0,1-1.3,1.83,28.83,28.83,0,0,1-3.17.8,40.26,40.26,0,0,1-6.39.57q-9,.27-17.91.48A25.2,25.2,0,0,1,2,16.51a.8.8,0,0,1-.52-.34.71.71,0,0,1,0-.59c0-.1.3-.14.46-.12a2.11,2.11,0,0,1,.59.21,1.19,1.19,0,0,1,1.35-.57A22.3,22.3,0,0,0,7.18,15c5.46-.29,10.93-.59,16.39-.94,2.06-.13,4.11-.38,6.16-.6A9.72,9.72,0,0,0,31.11,13.1Zm-.11.44v-.15l-.95.2,0,.12Z"/></svg>