<svg id="a9e4175f-3626-48ec-9c40-dc874a7185ca" data-name="Layer 1" xmlns="http://www.w3.org/2000/svg" xmlns:xlink="http://www.w3.org/1999/xlink" viewBox="0 0 179.1 105.54"><defs><style>.b017bca2-ec87-46ac-b592-671888235c2f{fill:#fff;}.a1c7415d-8c7c-44da-9f08-696c89b772bc,.a395f91f-9ed6-481a-a9bf-b6f0a0fd962c,.a5eed530-11e1-4f34-89cf-8a7ec7eea52a,.a5fbd2ca-74be-4cc1-94fe-05e21bc44174,.a9ca6e19-aed6-4acb-adea-34c7a781ce9c,.ab9c0a1b-3d2b-455f-823b-1ec6cbb2418e,.ae70927d-97c6-446a-90f3-d40766385b6d,.b017bca2-ec87-46ac-b592-671888235c2f,.b37eb065-42d3-4f69-bc0d-4f628c87737a,.b55aabca-cecf-41ba-88aa-f27cd79117b5,.b6546990-9876-4e1a-906b-12fa4f32657a,.bf245628-4caf-4663-a893-532468f8515d,.f4e26252-f607-4836-bd13-a9edd5660892{fill-rule:evenodd;}.b55aabca-cecf-41ba-88aa-f27cd79117b5{fill:#121314;}.eeb75122-fcb0-484b-b1e1-da21ff01ca87{mask:url(#e7c5ca4d-2c94-4ad1-a98e-5aa0ca5773cc);}.a0f1ef1f-b80b-4f70-8541-04d050c7e79a{mask:url(#ba7dbcb0-2947-45bf-a2fb-05e544e028a8);}.a395f91f-9ed6-481a-a9bf-b6f0a0fd962c{fill:#a57e3b;}.a1c7415d-8c7c-44da-9f08-696c89b772bc{fill:#e8c174;}.ae70927d-97c6-446a-90f3-d40766385b6d{fill:#b9332f;}.f4e26252-f607-4836-bd13-a9edd5660892{fill:#dcad44;}.a5fbd2ca-74be-4cc1-94fe-05e21bc44174{fill:#a5743d;}.bf245628-4caf-4663-a893-532468f8515d{fill:#131413;}.a9ca6e19-aed6-4acb-adea-34c7a781ce9c{fill:#211e1f;}.ab9c0a1b-3d2b-455f-823b-1ec6cbb2418e{fill:#a67e3b;}.ae786b59-3ac8-451a-8ab6-4535864222bf,.b447a2ec-db15-473c-9b86-83a62dfa3c26{fill:none;stroke:#211e1f;stroke-linejoin:round;}.ae786b59-3ac8-451a-8ab6-4535864222bf{stroke-width:1.44px;}.b447a2ec-db15-473c-9b86-83a62dfa3c26{stroke-width:2.4px;}.a5eed530-11e1-4f34-89cf-8a7ec7eea52a{fill:#a4753d;}.b6546990-9876-4e1a-906b-12fa4f32657a{fill:#e7d4a2;}.b37eb065-42d3-4f69-bc0d-4f628c87737a{fill:#221f20;}</style><mask id="e7c5ca4d-2c94-4ad1-a98e-5aa0ca5773cc" x="54.32" y="90.58" width="11.91" height="14.96" maskUnits="userSpaceOnUse"><g id="b6bac365-dd61-49e5-8ea8-1481af3d649f" data-name="mask-2"><polygon id="ec22dae6-aef8-488c-9b41-edb18ba9d32c" data-name="path-1" class="b017bca2-ec87-46ac-b592-671888235c2f" points="54.32 90.58 66.22 90.58 66.22 105.54 54.32 105.54 54.32 90.58"/></g></mask><mask id="ba7dbcb0-2947-45bf-a2fb-05e544e028a8" x="0" y="0" width="179.1" height="105.54" maskUnits="userSpaceOnUse"><g id="ac5eccae-74c1-4cf7-8a52-11d5648fe245" data-name="mask-4"><polygon id="b0419d49-d67d-409a-82fa-9b2524ed1fb4" data-name="path-3" class="b017bca2-ec87-46ac-b592-671888235c2f" points="0 105.54 179.1 105.54 179.1 0 0 0 0 105.54"/></g></mask></defs><g id="ad92b82a-342c-47bd-8f02-54d6a010ae56" data-name="logo/stacked-color"><path id="bf3cce71-99f1-4f04-a961-d8a97254de4e" data-name="Fill-1" class="b55aabca-cecf-41ba-88aa-f27cd79117b5" d="M4.66,90.58,0,105.2H4.49l.5-1.88H9.21l.5,1.88h4.5L9.55,90.58ZM7.1,95.49,8.31,100H5.89Z"/><polygon id="eec58fac-293a-4221-bf63-69c6edce0ae3" data-name="Fill-2" class="b55aabca-cecf-41ba-88aa-f27cd79117b5" points="22.98 90.58 27.16 90.58 27.16 105.2 23.82 105.2 19.22 98.52 19.22 105.2 15.04 105.2 15.04 90.58 18.38 90.58 22.98 97.27 22.98 90.58"/><polygon id="ef8cfaba-658e-4c9e-8383-9fe8dc2a45cf" data-name="Fill-3" class="b55aabca-cecf-41ba-88aa-f27cd79117b5" points="36.98 90.58 41.16 90.58 41.16 105.2 36.98 105.2 36.98 99.81 33.42 99.81 33.42 105.2 29.25 105.2 29.25 90.58 33.42 90.58 33.42 95.76 36.98 95.76 36.98 90.58"/><polygon id="bfee470d-1ae3-46fa-89cd-404547db072d" data-name="Fill-4" class="b55aabca-cecf-41ba-88aa-f27cd79117b5" points="47.42 101.36 52.85 101.36 52.85 105.2 43.24 105.2 43.24 90.58 52.75 90.58 52.75 94.38 47.42 94.38 47.42 95.97 52.23 95.97 52.23 99.73 47.42 99.73 47.42 101.36"/><g id="e5699d2b-3c6e-43e1-983a-8d40f0fd3d2a" data-name="Group-92"><g id="e7b69266-fa0c-4c2e-95ef-7ed9c534a06a" data-name="Group-7"><g class="eeb75122-fcb0-484b-b1e1-da21ff01ca87"><path id="ae4f9040-ecf6-4401-ab35-c1f5979bee74" data-name="Fill-5" class="b55aabca-cecf-41ba-88aa-f27cd79117b5" d="M54.32,90.58h4.17v9.28c0,1.08.59,1.63,1.78,1.63s1.78-.55,1.78-1.63V90.58h4.17v9.74a4.74,4.74,0,0,1-1.65,3.78,7.14,7.14,0,0,1-8.6,0,4.74,4.74,0,0,1-1.65-3.78Z"/></g></g><path id="b0b9cdb0-bd2a-4dce-83e5-6a25ebb4b2c0" data-name="Fill-8" class="b55aabca-cecf-41ba-88aa-f27cd79117b5" d="M67.27,101.86l3.57-2.07a2.63,2.63,0,0,0,2.63,1.86c.94,0,1.42-.25,1.42-.75a.67.67,0,0,0-.5-.67c-.19-.08-.37-.14-.52-.19s-.4-.12-.75-.23l-.82-.23c-2.9-.87-4.36-2.44-4.36-4.7a4.32,4.32,0,0,1,1.44-3.32,5.49,5.49,0,0,1,3.82-1.31,5.69,5.69,0,0,1,5.5,3.4l-3.47,2a2.08,2.08,0,0,0-2-1.55c-.73,0-1.1.34-1.1.77a.76.76,0,0,0,.48.71,12.42,12.42,0,0,0,1.9.65,9.31,9.31,0,0,1,3.11,1.4,3.62,3.62,0,0,1,1.46,3.2c0,3-2.19,4.68-5.7,4.68-3.18,0-5.37-1.42-6.1-3.68"/><polygon id="fc14e61a-cea4-4aee-88cf-a705c88dfae1" data-name="Fill-10" class="b55aabca-cecf-41ba-88aa-f27cd79117b5" points="84.4 101.36 89.83 101.36 89.83 105.2 80.22 105.2 80.22 90.58 89.73 90.58 89.73 94.38 84.4 94.38 84.4 95.97 89.2 95.97 89.2 99.73 84.4 99.73 84.4 101.36"/><path id="b371d2c2-ab23-4506-bce2-14ed682ed80e" data-name="Fill-12" class="b55aabca-cecf-41ba-88aa-f27cd79117b5" d="M95.68,94.4v2.72h1.59a1.26,1.26,0,0,0,1.44-1.34,1.3,1.3,0,0,0-1.44-1.38ZM99,105.18l-2.32-4.59h-1v4.59H91.5V90.56h5.85a5.7,5.7,0,0,1,4,1.42,4.73,4.73,0,0,1,1.57,3.72,4.59,4.59,0,0,1-2.26,4l2.88,5.45Z"/><g class="a0f1ef1f-b80b-4f70-8541-04d050c7e79a"><polygon id="b3a7d2be-cad6-49e9-8d43-298f6cad635e" data-name="Fill-14" class="b55aabca-cecf-41ba-88aa-f27cd79117b5" points="103.93 100.67 112.29 100.67 112.29 97.03 103.93 97.03 103.93 100.67"/></g><g class="a0f1ef1f-b80b-4f70-8541-04d050c7e79a"><path id="a729ad01-9960-45c4-9fa6-191aa896c830" data-name="Fill-16" class="b55aabca-cecf-41ba-88aa-f27cd79117b5" d="M120.31,101.61a1.08,1.08,0,0,0,1.17-1,1,1,0,0,0-.94-1l-2,0v2.09Zm-1.75-7.44v2l1.6,0c.61-.09.9-.4.9-1a1,1,0,0,0-1.13-1Zm7.1,6.73c0,2.67-1.78,4.3-5.1,4.3h-6.18V90.58h5.81c3.28,0,5,1.46,5,4.12a3.43,3.43,0,0,1-1.46,3A3.5,3.5,0,0,1,125.66,100.9Z"/></g><g class="a0f1ef1f-b80b-4f70-8541-04d050c7e79a"><path id="f60839c7-6217-42e9-ac84-0c92e2d18b4b" data-name="Fill-17" class="b55aabca-cecf-41ba-88aa-f27cd79117b5" d="M126.7,90.58h4.18v9.28c0,1.08.59,1.63,1.78,1.63s1.77-.55,1.77-1.63V90.58h4.18v9.74A4.74,4.74,0,0,1,137,104.1a7.16,7.16,0,0,1-8.61,0,4.78,4.78,0,0,1-1.65-3.78Z"/></g><g class="a0f1ef1f-b80b-4f70-8541-04d050c7e79a"><path id="e4313e13-7c44-4e5d-8aed-f5b2b8f894bc" data-name="Fill-18" class="b55aabca-cecf-41ba-88aa-f27cd79117b5" d="M139.66,101.86l3.57-2.07a2.63,2.63,0,0,0,2.63,1.86c.94,0,1.42-.25,1.42-.75a.67.67,0,0,0-.5-.67c-.19-.08-.38-.14-.52-.19s-.4-.12-.75-.23l-.82-.23c-2.9-.87-4.37-2.44-4.37-4.7a4.29,4.29,0,0,1,1.45-3.32,5.49,5.49,0,0,1,3.82-1.31,5.68,5.68,0,0,1,5.49,3.4l-3.47,2a2.06,2.06,0,0,0-2-1.55c-.73,0-1.11.34-1.11.77a.77.77,0,0,0,.48.71,12.84,12.84,0,0,0,1.9.65,9.46,9.46,0,0,1,3.12,1.4,3.62,3.62,0,0,1,1.46,3.2c0,3-2.19,4.68-5.7,4.68-3.18,0-5.37-1.42-6.1-3.68"/></g><g class="a0f1ef1f-b80b-4f70-8541-04d050c7e79a"><path id="bde9590d-a794-4998-b665-69dc43b12167" data-name="Fill-19" class="b55aabca-cecf-41ba-88aa-f27cd79117b5" d="M154.26,103.34a7.93,7.93,0,0,1,0-10.9,7.73,7.73,0,0,1,11.89,1.36l-3.64,2.09a3.06,3.06,0,0,0-2.78-1.55,3.31,3.31,0,0,0-2.5,1,3.84,3.84,0,0,0,0,5.1,3.31,3.31,0,0,0,2.5,1,3,3,0,0,0,2.78-1.56l3.64,2.09a7.7,7.7,0,0,1-11.89,1.37"/></g><g class="a0f1ef1f-b80b-4f70-8541-04d050c7e79a"><polygon id="bd24a876-e213-4f77-9275-b932e67f2202" data-name="Fill-20" class="b55aabca-cecf-41ba-88aa-f27cd79117b5" points="174.92 90.58 179.1 90.58 179.1 105.2 174.92 105.2 174.92 99.81 171.37 99.81 171.37 105.2 167.19 105.2 167.19 90.58 171.37 90.58 171.37 95.76 174.92 95.76 174.92 90.58"/></g><g class="a0f1ef1f-b80b-4f70-8541-04d050c7e79a"><path id="a020af77-0937-4a72-bf7d-b52a5ef3dc91" data-name="Fill-21" class="a395f91f-9ed6-481a-a9bf-b6f0a0fd962c" d="M96.48,45.17H86.94l4.77-14.12Zm28,21.5a5.7,5.7,0,0,0,.33-1.17,5.5,5.5,0,0,0-2.59-5.85,5.29,5.29,0,0,0-6.1.66,3.07,3.07,0,0,0-.51.51,17.08,17.08,0,0,1-2.17-4l-13.3-35.95a4.22,4.22,0,0,0,2.59-1.59,5.19,5.19,0,0,0,.09-6.53l.83-1.25H94.05A2.46,2.46,0,0,1,91.71,14h0a2.45,2.45,0,0,1-2.34-2.47H79.76l.83,1.26a5.18,5.18,0,0,0,.09,6.52,4.17,4.17,0,0,0,2.59,1.59L70,56.79a17.08,17.08,0,0,1-2.17,4c-.17-.17-.34-.42-.51-.5a5.28,5.28,0,0,0-6.1-.67,5.51,5.51,0,0,0-2.59,5.85,5.7,5.7,0,0,0,.33,1.17l-5.52,5.52H68.3v0a2.82,2.82,0,0,1,2.18-2.66l.07,0h0a2.65,2.65,0,0,1,.58-.06l.27,0A2.83,2.83,0,0,1,74,72.13l0,.05H88l.75-2.84-6.6-3.68a3.38,3.38,0,0,1-1.74-2.82,8.23,8.23,0,0,1,1.32-5l9.93,0h.19l9.94,0a8.21,8.21,0,0,1,1.32,5,3.38,3.38,0,0,1-1.74,2.82l-6.6,3.68.75,2.84h14l0,0a2.84,2.84,0,0,1,2.55-2.7h.27a2.65,2.65,0,0,1,.58.06h0l.07,0a2.82,2.82,0,0,1,2.18,2.66v0H130Z"/></g><g class="a0f1ef1f-b80b-4f70-8541-04d050c7e79a"><path id="ba1c6090-d781-4d39-a723-e77f7fc4c48a" data-name="Fill-23" class="a1c7415d-8c7c-44da-9f08-696c89b772bc" d="M92.09,46.8h-.76l-6.64,0C87.93,37.32,90.36,30,91.35,27l.36-1.09h0L92.07,27c1,3,3.42,10.29,6.66,19.73ZM122.55,67a4.26,4.26,0,0,0,.73-1.73A3.92,3.92,0,0,0,121.4,61a3.8,3.8,0,0,0-4.36.42,4,4,0,0,0-1.23,1.86c-1.44-1.09-3.06-3.82-3.85-6L97.89,19.19a3.23,3.23,0,0,0,3.64-.9,3.32,3.32,0,0,0,.41-3.42A3.51,3.51,0,0,0,98.51,13h-.14l5.11-1.51H94.05v.1L95.15,13h0l-.11.26a3.37,3.37,0,0,1-3.32,2.25h0a3.37,3.37,0,0,1-3.32-2.25L88.26,13h0l1.12-1.38v-.1H79.94L85.05,13h-.14a3.51,3.51,0,0,0-3.43,1.89,3.34,3.34,0,0,0,.4,3.42,3.25,3.25,0,0,0,3.65.9L71.46,57.31c-.79,2.17-2.41,4.9-3.85,6a4,4,0,0,0-1.23-1.86A3.8,3.8,0,0,0,62,61a3.92,3.92,0,0,0-1.88,4.2A4.26,4.26,0,0,0,60.87,67l-3.72,3.72H67.49l.55-1A3.52,3.52,0,0,1,71.22,68a3.88,3.88,0,0,1,3.18,1.69l.57,1H88L81.45,67a4.66,4.66,0,0,1-2.82-4.18c.15-2.18.78-3.8,1.9-6.6h22.36c1.12,2.8,1.75,4.42,1.9,6.6A4.66,4.66,0,0,1,102,67L95.4,70.67h13l.57-1A3.88,3.88,0,0,1,112.2,68a3.52,3.52,0,0,1,3.18,1.64l.55,1h10.34Z"/></g><g class="a0f1ef1f-b80b-4f70-8541-04d050c7e79a"><path id="f25c9638-39cf-4972-93cb-851d61d8e5d6" data-name="Fill-24" class="ae70927d-97c6-446a-90f3-d40766385b6d" d="M88.53,26.31c.67-1.92,1.67-3.67,3.18-3.67s2.51,1.75,3.18,3.67c.16.51,4.59,13.43,8.35,24H80.18C83.94,39.74,88.36,26.82,88.53,26.31ZM119.81,66.7c2.09-.33,2.51-3.09,1-3.93-1.67-.92-3.51.76-2.76,2.85-3.84,1.08-7-6-7.61-7.61L96.64,20.8c-.58-1.51-.66-2.76.42-3.35,1.59-.83,2.34.75,3.26-.42.42-.5.59-2.09-1.5-2.09h-2s-.75,2.51-5.1,2.51-5.1-2.51-5.1-2.51h-2c-2.09,0-1.92,1.59-1.5,2.09.92,1.17,1.67-.41,3.26.42,1.08.59,1,1.84.42,3.35L73,58c-.59,1.59-3.77,8.69-7.61,7.61.75-2.09-1.09-3.77-2.76-2.85-1.51.84-1.09,3.6,1,3.93l-2,2H66A5.56,5.56,0,0,1,70.89,66a6.11,6.11,0,0,1,4.93,2.68h4.35a7.32,7.32,0,0,1-3.85-5.94c0-1.44,2.3-7.93,2.5-8.49H104.6c.2.56,2.5,7,2.5,8.49a7.32,7.32,0,0,1-3.85,5.94h4.35A6.11,6.11,0,0,1,112.53,66a5.56,5.56,0,0,1,4.94,2.68h4.35Z"/></g><g class="a0f1ef1f-b80b-4f70-8541-04d050c7e79a"><polygon id="aa2690f3-5717-4ef1-88d0-4ee98790d0d1" data-name="Fill-25" class="a395f91f-9ed6-481a-a9bf-b6f0a0fd962c" points="87.9 13.11 91.67 10.64 95.48 13.06 95.02 8.62 98.5 5.26 93.43 4.92 91.58 0.08 89.91 4.92 84.89 5.33 88.77 8.44 87.9 13.11"/></g><g class="a0f1ef1f-b80b-4f70-8541-04d050c7e79a"><polygon id="ee9993b0-2be1-46c7-9998-300e45e5defc" data-name="Fill-26" class="f4e26252-f607-4836-bd13-a9edd5660892" points="87.9 13.11 91.67 7.12 88.77 8.44 87.9 13.11"/></g><g class="a0f1ef1f-b80b-4f70-8541-04d050c7e79a"><polygon id="a3ff29cc-42b1-48af-a632-5978b333289b" data-name="Fill-27" class="f4e26252-f607-4836-bd13-a9edd5660892" points="93.54 4.87 91.78 7.07 98.61 5.21 93.54 4.87"/></g><g class="a0f1ef1f-b80b-4f70-8541-04d050c7e79a"><path id="be3740c6-61d1-4bee-a03e-bbe2d4ce3b3f" data-name="Fill-28" class="f4e26252-f607-4836-bd13-a9edd5660892" d="M95,8.61s-3.35-1.4-3.35-1.49l3.81,5.94Z"/></g><g class="a0f1ef1f-b80b-4f70-8541-04d050c7e79a"><polygon id="a74aab77-f2a9-49c6-9cc3-03b138c3fb6a" data-name="Fill-29" class="f4e26252-f607-4836-bd13-a9edd5660892" points="90.02 4.87 85 5.28 91.78 7.07 91.69 0.03 90.02 4.87"/></g><g class="a0f1ef1f-b80b-4f70-8541-04d050c7e79a"><path id="abf9a4e8-9f4a-4337-960e-19f5a666867d" data-name="Fill-30" class="a5fbd2ca-74be-4cc1-94fe-05e21bc44174" d="M91.67,10.56s0,0,0,0l3.64,2.28-.42-4.23a.07.07,0,0,1,0-.08l3.32-3.21L93.43,5a.08.08,0,0,1-.07,0L91.59.31,90,5a.08.08,0,0,1-.07,0l-5,.34,3.88,3a.11.11,0,0,1,0,.08L88,12.91l3.58-2.34h0m3.81,2.58h0l-3.76-2.39L88,13.17a.07.07,0,0,1-.09,0,.06.06,0,0,1,0-.08l.85-4.62L84.84,5.39a.08.08,0,0,1,0-.09.11.11,0,0,1,.07-.06l5-.4L91.51.05a.08.08,0,0,1,.07,0,.08.08,0,0,1,.08.05l1.83,4.79,5,.34a.07.07,0,0,1,.07.06.08.08,0,0,1,0,.08L95.1,8.65l.46,4.4a.09.09,0,0,1,0,.08h0"/></g><g class="a0f1ef1f-b80b-4f70-8541-04d050c7e79a"><path id="be64a830-7eaf-460c-9b03-866891bbfc0f" data-name="Fill-31" class="bf245628-4caf-4663-a893-532468f8515d" d="M81.4,25.91a22.72,22.72,0,0,0-2-1.34,10.48,10.48,0,0,0-3.92-1.26c-.44-.28-1.26-.94-2.09-1.57a8.57,8.57,0,0,0-2.69-1.55,5.34,5.34,0,0,0-3-1.2,11.69,11.69,0,0,0-5.15-1.2h-.07a12.79,12.79,0,0,0-5.18-1.35h-.1A13.57,13.57,0,0,0,54,16a6.67,6.67,0,0,0-3.38.76l-.29.08a7.17,7.17,0,0,0-3.44,1l-.09.05-.14.09c-.15.1-.83.42-1.52.78a3.74,3.74,0,0,0-1.79,1.68,2,2,0,0,0-.25.94A1.63,1.63,0,0,0,44,22.89a2.79,2.79,0,0,0,1.23.29h0l.49,0a.18.18,0,0,0,.17-.09l.22-.41c.28-.32.43-.4,1.17-.58A11.7,11.7,0,0,1,50,21.84a12.78,12.78,0,0,1,4.53.71l.06,0,.06,0a19.5,19.5,0,0,1,7.62,4,55.78,55.78,0,0,1,6,6c.48.93,3.09,5.82,8,7.21Z"/></g><g class="a0f1ef1f-b80b-4f70-8541-04d050c7e79a"><path id="b611d48b-dd25-4a29-8714-2fe9e35b8f37" data-name="Fill-32" class="a5fbd2ca-74be-4cc1-94fe-05e21bc44174" d="M74.76,36.9,76,36.33l-.36-.21a11.58,11.58,0,0,1-5.7-6.21,13.1,13.1,0,0,1,2.23,2.38l.26-.41c-1-1.45-3.83-4.61-4.51-5.38a8.1,8.1,0,0,0,1.73,3.86l-1.09-.59C71.82,35.46,74.76,36.9,74.76,36.9Zm.18-6.78a5.59,5.59,0,0,1,2.38.72s-3.38-3.9-6.75-4.78A24.66,24.66,0,0,1,74.94,30.12Zm2,4,.17-.4a25.94,25.94,0,0,0-5.65-4.21,38.6,38.6,0,0,0,5,5.76l.13-.3a9.58,9.58,0,0,1-2.07-2.9A5.13,5.13,0,0,1,76.9,34.15ZM71,28.72l1.25.64a9.56,9.56,0,0,0-1.84-1.83A9.32,9.32,0,0,1,73.78,30l.52.21a9.82,9.82,0,0,0-2.13-2.23,15.12,15.12,0,0,0-4.7-2.37A8.86,8.86,0,0,0,71,28.72Zm-7-5.89c.62.71,1.58,1.76,2.12,2.31a8.58,8.58,0,0,1,1.9.32C67.34,24.65,64.9,23.33,63.94,22.83Zm15.53,5.26a10.38,10.38,0,0,0-3.92-1.74A28.75,28.75,0,0,1,79.32,29Zm-8.09-2.17a10.19,10.19,0,0,1,1.86.38c-1-1.2-4.61-3.24-4.61-3.24a9.59,9.59,0,0,0,.62,1.11A16.06,16.06,0,0,1,71.38,25.92Zm7.92,3.76S76,27,73.84,26.71A26.27,26.27,0,0,1,78,30.66h.41A6.81,6.81,0,0,0,77,28.5,5.7,5.7,0,0,1,79,30.23h0ZM57.39,20.62l1,.34s-.14-.9-1.86-1.52Zm-.91-.17L55.42,19c-6.68-1.25-9.25.84-10.12,1.52C49.88,18.38,55.28,20.11,56.48,20.45Zm-4.7-2.32,2.63.14A2.93,2.93,0,0,0,51.78,18.13Zm1.79-.37a16.11,16.11,0,0,1,7.69,4.44l.36.35c-.36-1.28-2.25-2.6-2.87-3-.8-.55,2.3.91,2.89,1.53l-.22-.6C60,18.8,54.58,17.76,53.57,17.76ZM67,21l1.6,1.21,1.11.05A5.62,5.62,0,0,0,67,21ZM69.12,32a56.24,56.24,0,0,0-6.21-6.13,21,21,0,0,0-8-4.44c-2.22-1-8.6-1.55-9.63.25-.63,0-1,0-.59-1s1.7-1.42,2.57-1.87c1.4-.63,1.86-.45,3.5-.36,1.39-1.14,4.28-1.54,6.34-1A10.54,10.54,0,0,1,62,18.62l.34.36a15.65,15.65,0,0,0-3.71-.8,31.3,31.3,0,0,1,3.58,1.51,26.31,26.31,0,0,1,3.39,2.42l.14-.93a6.2,6.2,0,0,0-2.42-1.55l-.68-.41s2.72-.17,3.93,1.09c0,0,1.64-.2,5.22,2.32A5,5,0,0,1,75,24.08a8.35,8.35,0,0,1,5,2.66s.26.54-.17.78l.06-.37a7.35,7.35,0,0,0-4-2.11c3,1.25,3.42,2.54,3.42,2.54A6.26,6.26,0,0,0,77,26.26a6,6,0,0,0-1.4.09,4.87,4.87,0,0,0-4-2.69l1.31,1s1.2.86,1.09,1-.21.35-.39.24c0,0-2.61-1.77-5-3.05l.21,1a12.67,12.67,0,0,0-2.47-1.24l-.74-.13a14.86,14.86,0,0,1,5.06,3.38s-1-.05-1.28.2a12.57,12.57,0,0,0-5.81-3.78l.1.39a.79.79,0,0,0,0,.12,11.67,11.67,0,0,0,2.18,2.54l1.65,1.16a17.92,17.92,0,0,1,.38,2.71,45.54,45.54,0,0,0-4.06-4.26s-2.71-2.61-5.42-3a33.59,33.59,0,0,1,4.2,2.62,38.29,38.29,0,0,1,6.2,6.67Zm7.08-.76a5.57,5.57,0,0,1,1.34,2l-.16.31A18.07,18.07,0,0,0,74,30.26a8.91,8.91,0,0,1,4,1.84l-.11.22A5.73,5.73,0,0,0,76.2,31.2Z"/></g><g class="a0f1ef1f-b80b-4f70-8541-04d050c7e79a"><path id="b26ff0e8-7eb5-42e2-b514-1efe9903f8e3" data-name="Fill-33" class="a9ca6e19-aed6-4acb-adea-34c7a781ce9c" d="M76.6,43.84a14.25,14.25,0,0,0,5,.92v-.17a13.55,13.55,0,0,1-5.1-1.25Z"/></g><g class="a0f1ef1f-b80b-4f70-8541-04d050c7e79a"><path id="ba5cb58b-45c8-481b-a401-7e58dfcf73c2" data-name="Fill-34" class="a9ca6e19-aed6-4acb-adea-34c7a781ce9c" d="M76.94,44.51c.41.16,1.84.5,1.84.5s1.08,0,.08-.17a19.78,19.78,0,0,1-2-.58Z"/></g><g class="a0f1ef1f-b80b-4f70-8541-04d050c7e79a"><path id="e8cdd3f1-e7b6-4f1c-9e9c-3dab0243c3f2" data-name="Fill-35" class="a9ca6e19-aed6-4acb-adea-34c7a781ce9c" d="M76.77,48.94c-.59-.59-1.67-2-2.93-2.09-.42.08-.25.33.08.5a4.88,4.88,0,0,1,2.51,1.5Z"/></g><g class="a0f1ef1f-b80b-4f70-8541-04d050c7e79a"><path id="ac189eab-dc63-496e-bf4b-b7c738522586" data-name="Fill-36" class="a9ca6e19-aed6-4acb-adea-34c7a781ce9c" d="M77.1,49.77a5.14,5.14,0,0,0-2.25-1.42c-.42-.08-.59.25,0,.42s1.5,1,2.17,1.25c.25.09.08-.25.08-.25"/></g><g class="a0f1ef1f-b80b-4f70-8541-04d050c7e79a"><path id="e5c09f63-5e6b-44af-92fa-a7d56d270b55" data-name="Fill-37" class="a9ca6e19-aed6-4acb-adea-34c7a781ce9c" d="M75.51,50.19a13.72,13.72,0,0,1,2.93,2c.5.42.75.33,0-.25s-2.17-2-2.67-2.26c0,0-1.09.33-.26.5"/></g><g class="a0f1ef1f-b80b-4f70-8541-04d050c7e79a"><path id="a321da35-cf86-4f80-9f19-250a289e850d" data-name="Fill-38" class="a9ca6e19-aed6-4acb-adea-34c7a781ce9c" d="M78,49.86c-.42,0-.08.33.59.75s1.67,1,1.92,1.17.17-.25.17-.25A5.18,5.18,0,0,1,78.61,50a.55.55,0,0,0-.59-.16"/></g><g class="a0f1ef1f-b80b-4f70-8541-04d050c7e79a"><path id="bb643189-aa78-47fe-af69-ee9eb5aa9cd1" data-name="Fill-39" class="a9ca6e19-aed6-4acb-adea-34c7a781ce9c" d="M78.78,51.78a21.71,21.71,0,0,0,2.92,1.34c.76.33,0-.25,0-.25A9.51,9.51,0,0,1,79,51.28s-.92.08-.25.5"/></g><g class="a0f1ef1f-b80b-4f70-8541-04d050c7e79a"><path id="ff6206f3-f794-4021-9d2d-4e9edcdce5f1" data-name="Fill-40" class="a9ca6e19-aed6-4acb-adea-34c7a781ce9c" d="M80.36,53.37c.34.08,1.68.58,2.1.75s.75,0,.33-.17a23.17,23.17,0,0,0-2.43-1c-.25,0-.33.34,0,.42"/></g><g class="a0f1ef1f-b80b-4f70-8541-04d050c7e79a"><path id="b18d8757-25eb-42cc-a77e-d6d441224977" data-name="Fill-41" class="a9ca6e19-aed6-4acb-adea-34c7a781ce9c" d="M83,53.2c.67.09,1.92.42,1.92.42-.41-.17-1.84-.67-2.17-.84,0,0-.42.26.25.42"/></g><g class="a0f1ef1f-b80b-4f70-8541-04d050c7e79a"><path id="e2e176d3-29bc-453d-9f7a-2b024346e3b5" data-name="Fill-42" class="a9ca6e19-aed6-4acb-adea-34c7a781ce9c" d="M82.87,52.12a2.51,2.51,0,0,0-.92-.67c-.58-.34-.58.16-.25.25Z"/></g><g class="a0f1ef1f-b80b-4f70-8541-04d050c7e79a"><path id="afb3f7f1-7796-4e87-ac98-26040d8e55a7" data-name="Fill-43" class="a9ca6e19-aed6-4acb-adea-34c7a781ce9c" d="M77.35,46.18l-.25-.25A11,11,0,0,1,73.59,44c-.5-.41-.67-.75-1-.92s-.67.09-.92-.08a.49.49,0,0,1-.17-.5,1.85,1.85,0,0,1-.5-.08,1.86,1.86,0,0,1-.5-1,1.8,1.8,0,0,0,.92,2.09c-.34.92.08,1.34.67,1.42a.85.85,0,0,0,.83-.25l.17.34a4.07,4.07,0,0,1,2.59.67,2.85,2.85,0,0,0,1.67.5"/></g><g class="a0f1ef1f-b80b-4f70-8541-04d050c7e79a"><path id="a96bca25-07d1-42dd-ac4c-64f5c582ecc4" data-name="Fill-44" class="a9ca6e19-aed6-4acb-adea-34c7a781ce9c" d="M69.49,41.33c-.33.25.25,1.09.59,1.25a1.89,1.89,0,0,1-.25-1c-.09-.25-.25-.34-.34-.25"/></g><g class="a0f1ef1f-b80b-4f70-8541-04d050c7e79a"><path id="a6f7fb49-6a79-4c02-ad73-4e80bca34c29" data-name="Fill-45" class="bf245628-4caf-4663-a893-532468f8515d" d="M103.5,63a38.09,38.09,0,0,0-1.43-5.19H87.61c-3.09,1.84-10.53,6.27-12,7.69a12.48,12.48,0,0,1,6.69,6.11c2.6,1.25,5.78,4.1,6.44,6,1.76-.67,13.06-7.55,14.71-13.47a2.83,2.83,0,0,0,0-1.16"/></g><g class="a0f1ef1f-b80b-4f70-8541-04d050c7e79a"><path id="f89278cb-199e-490b-93b9-d64408a83a10" data-name="Fill-46" class="a5fbd2ca-74be-4cc1-94fe-05e21bc44174" d="M98.23,60.19c-.33-.25-.58-.33-.75-.92.67.34.75.17,1.51.25.08,0,2,.76,2,.67-.33-.33-2.67-1.17-3-1.67.17-.17.51-.08.67-.08.37,0,.09-.38.13-.59h-3.7A5.68,5.68,0,0,1,95.22,59c.42.84.17,1.84.76,2.51a7.67,7.67,0,0,0,4.51,1.67c-.25-.33-1.67-.92-1.84-1.17l-.75-.92c.5,0,3.93,1.17,4.43,1-.75-.34-3.76-1.26-4.1-1.93"/></g><g class="a0f1ef1f-b80b-4f70-8541-04d050c7e79a"><path id="aa5061cc-f330-4b4e-935e-d30e14d4a832" data-name="Fill-47" class="a395f91f-9ed6-481a-a9bf-b6f0a0fd962c" d="M82.34,71.65c2.6,1.25,5.78,4.1,6.44,6l-.08,2.42c-2.09-3.26-5.35-5.18-6.77-5.43Z"/></g><g class="a0f1ef1f-b80b-4f70-8541-04d050c7e79a"><path id="efd0b2ca-770e-4e31-a433-008c350c61ac" data-name="Fill-48" class="ab9c0a1b-3d2b-455f-823b-1ec6cbb2418e" d="M102.67,65c-3.18,5.19-12.13,12-13.89,12.63l-.08,2.42c.67-.25,10.62-5.35,16.06-14.46Z"/></g><g class="a0f1ef1f-b80b-4f70-8541-04d050c7e79a"><path id="af3e52c7-4f28-474a-aa73-a5fdc24f726d" data-name="Fill-49" class="a9ca6e19-aed6-4acb-adea-34c7a781ce9c" d="M96.56,69.89,96,69.56l-.84.67.59.5a3.17,3.17,0,0,0-.59.67,19.74,19.74,0,0,0,3.76,1.17c.17-.42-1.67-2.76-1.92-3-.08,0-.25.17-.42.33"/></g><g class="a0f1ef1f-b80b-4f70-8541-04d050c7e79a"><path id="eb078eed-5bae-4da6-b595-e27de497587c" data-name="Stroke-50" class="ae786b59-3ac8-451a-8ab6-4535864222bf" d="M96.56,69.89,96,69.56l-.84.67.59.5a3.17,3.17,0,0,0-.59.67,19.74,19.74,0,0,0,3.76,1.17c.17-.42-1.67-2.76-1.92-3C96.9,69.56,96.73,69.73,96.56,69.89Z"/></g><g class="a0f1ef1f-b80b-4f70-8541-04d050c7e79a"><path id="e97b2563-504e-48f2-a391-14e8e2f4450f" data-name="Fill-51" class="f4e26252-f607-4836-bd13-a9edd5660892" d="M96.56,69.89,96,69.56l-.84.67.59.5a3.17,3.17,0,0,0-.59.67,19.74,19.74,0,0,0,3.76,1.17c.17-.42-1.67-2.76-1.92-3-.08,0-.25.17-.42.33"/></g><g class="a0f1ef1f-b80b-4f70-8541-04d050c7e79a"><path id="b54454ea-1753-41d1-b856-1eb4896a20b3" data-name="Fill-52" class="a9ca6e19-aed6-4acb-adea-34c7a781ce9c" d="M95.24,71.38a22.15,22.15,0,0,0,3.6,1.11A11.8,11.8,0,0,0,97,69.64a2.27,2.27,0,0,0-.34.31l-.05,0L96,69.65l-.72.58.58.5-.06,0A4.38,4.38,0,0,0,95.24,71.38ZM99,72.64H98.9A14.67,14.67,0,0,1,97,72.15a9.66,9.66,0,0,1-1.88-.7l0,0,0,0a3.65,3.65,0,0,1,.54-.63l-.59-.5,1-.76.58.33c.2-.2.33-.32.43-.32h0l0,0A17.68,17.68,0,0,1,98.16,71c.94,1.33.85,1.56.81,1.64Z"/></g><g class="a0f1ef1f-b80b-4f70-8541-04d050c7e79a"><path id="f33e5662-fd09-47d7-9d60-11bbcd961a3e" data-name="Fill-53" class="a9ca6e19-aed6-4acb-adea-34c7a781ce9c" d="M101.16,65.8a4,4,0,0,1-.17.75l-1.17-.34-.5.67,1.42.17a6,6,0,0,0-.25.59,33.7,33.7,0,0,0,4,0,16,16,0,0,0-3.35-1.84"/></g><g class="a0f1ef1f-b80b-4f70-8541-04d050c7e79a"><path id="a2ca9240-b709-4775-8587-dc7ffd3a2442" data-name="Stroke-54" class="ae786b59-3ac8-451a-8ab6-4535864222bf" d="M101.16,65.8a4,4,0,0,1-.17.75l-1.17-.34-.5.67,1.42.17a6,6,0,0,0-.25.59,33.7,33.7,0,0,0,4,0A16,16,0,0,0,101.16,65.8Z"/></g><g class="a0f1ef1f-b80b-4f70-8541-04d050c7e79a"><path id="a22a8bd9-a1cb-4aa1-9c02-31a20d64752a" data-name="Fill-55" class="f4e26252-f607-4836-bd13-a9edd5660892" d="M101.16,65.8a4,4,0,0,1-.17.75l-1.17-.34-.5.67,1.42.17a6,6,0,0,0-.25.59,33.7,33.7,0,0,0,4,0,16,16,0,0,0-3.35-1.84"/></g><g class="a0f1ef1f-b80b-4f70-8541-04d050c7e79a"><path id="b03f8158-bcfb-4da2-80f2-30c2dbc99ec0" data-name="Fill-56" class="a9ca6e19-aed6-4acb-adea-34c7a781ce9c" d="M100.6,67.56l.53,0a29.07,29.07,0,0,0,3.23,0,18.91,18.91,0,0,0-3.13-1.69,3.5,3.5,0,0,1-.1.42c0,.07,0,.16-.06.25l0,.07-1.2-.34-.39.52,1.4.17,0,.09c-.1.21-.17.38-.21.48m2.78.23c-.65,0-1.47,0-2.26-.06l-.63,0h-.1l0-.1a3.87,3.87,0,0,1,.21-.5l-1.45-.17.61-.81,1.15.32c0-.06,0-.12,0-.17a2.74,2.74,0,0,0,.1-.48v-.11l.1,0a16.1,16.1,0,0,1,3.38,1.87l.06.08-.09,0a5.33,5.33,0,0,1-1.16.08"/></g><g class="a0f1ef1f-b80b-4f70-8541-04d050c7e79a"><polygon id="f8662550-8679-4765-980c-09a4a154cf6d" data-name="Fill-57" class="a9ca6e19-aed6-4acb-adea-34c7a781ce9c" points="88.62 63.96 88.62 63.12 86.78 60.78 87.03 59.94 85.61 57.94 85.19 59.19 84.1 58.94 85.52 61.03 86.36 61.03 88.62 63.96"/></g><g class="a0f1ef1f-b80b-4f70-8541-04d050c7e79a"><polygon id="a67d452c-e0da-4a23-9f92-7b6d1b07983d" data-name="Stroke-58" class="ae786b59-3ac8-451a-8ab6-4535864222bf" points="88.62 63.96 88.62 63.12 86.78 60.78 87.03 59.94 85.61 57.94 85.19 59.19 84.1 58.94 85.52 61.03 86.36 61.03 88.62 63.96"/></g><g class="a0f1ef1f-b80b-4f70-8541-04d050c7e79a"><polygon id="efc21298-0110-4252-9c2e-aa5ce4751c37" data-name="Fill-59" class="f4e26252-f607-4836-bd13-a9edd5660892" points="88.62 63.96 88.62 63.12 86.78 60.78 87.03 59.94 85.61 57.94 85.19 59.19 84.1 58.94 85.52 61.03 86.36 61.03 88.62 63.96"/></g><g class="a0f1ef1f-b80b-4f70-8541-04d050c7e79a"><path id="b75921b6-20a3-408e-8148-01a3ed70a2f7" data-name="Fill-60" class="a9ca6e19-aed6-4acb-adea-34c7a781ce9c" d="M85.56,61h.84l2.14,2.78v-.58l-1.85-2.36.25-.83L85.63,58.1l-.39,1.18-1-.22Zm3,3-2.24-2.89h-.84L84,59l.08-.12,1,.24.44-1.33,1.53,2.16-.25.83,1.83,2.33V64Z"/></g><g class="a0f1ef1f-b80b-4f70-8541-04d050c7e79a"><path id="fdc3065b-5c8d-453f-a537-c358f940887a" data-name="Fill-61" class="a9ca6e19-aed6-4acb-adea-34c7a781ce9c" d="M93.05,63.12a.48.48,0,0,0-.59-.17c-.08.25-1.42.67-1.75.84V64a.62.62,0,0,0-.42-.34,13.47,13.47,0,0,1-.59-1.92l-.83-.25a3.53,3.53,0,0,1,.08.42c.34.83.59,2.17,0,2.42-.75.25-3.18.08-3.43.5,0,.17-.33.42-.16.42.33-.08,1.92-.25,2.17-.33.42-.17.67,0,1,0a.84.84,0,0,1-.58.33c-.25,0-.34.5-.67.25a4,4,0,0,0-2.09.5A2.33,2.33,0,0,0,84,67.72c.25-.75,1.25-.34,1.59-.67.58-.67,1.5-.59,2.17-1,.5-.17.92-.59,1.34-.67-.08.42-.5.58-.67.83-.84.09-1.42.92-2.09,1.26a3.31,3.31,0,0,0-.42,1.5c.17.59.08.67.84-.75a5.05,5.05,0,0,0,2.42-1.84,1.82,1.82,0,0,0,1.42-.84c0-.16.26-.58.26-.83.33,0,.75-.34,1.08-.5s.84-.09,1.09-.42a1,1,0,0,0,0-.67"/></g><g class="a0f1ef1f-b80b-4f70-8541-04d050c7e79a"><path id="ac2b2b83-4085-49de-b4e0-c097ad850a21" data-name="Stroke-62" class="b447a2ec-db15-473c-9b86-83a62dfa3c26" d="M93.05,63.12a.48.48,0,0,0-.59-.17c-.08.25-1.42.67-1.75.84V64a.62.62,0,0,0-.42-.34,13.47,13.47,0,0,1-.59-1.92l-.83-.25a3.53,3.53,0,0,1,.08.42c.34.83.59,2.17,0,2.42-.75.25-3.18.08-3.43.5,0,.17-.33.42-.16.42.33-.08,1.92-.25,2.17-.33.42-.17.67,0,1,0a.84.84,0,0,1-.58.33c-.25,0-.34.5-.67.25a4,4,0,0,0-2.09.5A2.33,2.33,0,0,0,84,67.72c.25-.75,1.25-.34,1.59-.67.58-.67,1.5-.59,2.17-1,.5-.17.92-.59,1.34-.67-.08.42-.5.58-.67.83-.84.09-1.42.92-2.09,1.26a3.31,3.31,0,0,0-.42,1.5c.17.59.08.67.84-.75a5.05,5.05,0,0,0,2.42-1.84,1.82,1.82,0,0,0,1.42-.84c0-.16.26-.58.26-.83.33,0,.75-.34,1.08-.5s.84-.09,1.09-.42A1,1,0,0,0,93.05,63.12Z"/></g><g class="a0f1ef1f-b80b-4f70-8541-04d050c7e79a"><path id="ba22b377-7494-4bae-b7ae-764ecf2c275f" data-name="Fill-63" class="f4e26252-f607-4836-bd13-a9edd5660892" d="M101.91,65.73l3.38.15a12,12,0,0,0-2.78-1.42,2.64,2.64,0,0,1-.21.46l0,0-1.78-.19a1.5,1.5,0,0,1-.36.24l2,.22,0,.09a1.74,1.74,0,0,1-.17.41"/></g><g class="a0f1ef1f-b80b-4f70-8541-04d050c7e79a"><path id="fe3ce519-e012-4be3-a703-cc7467eb69a8" data-name="Fill-64" class="a9ca6e19-aed6-4acb-adea-34c7a781ce9c" d="M102,65.65l3,.14a14,14,0,0,0-2.47-1.25,2.37,2.37,0,0,1-.19.41l-.05.09-1.79-.19-.15.11,1.83.2,0,.18A2.22,2.22,0,0,1,102,65.65Zm3.26.3-3.5-.15.06-.11a2.21,2.21,0,0,0,.16-.4l-1.87-.21,0-.14a2,2,0,0,0,.34-.23l0,0,1.75.19a2.32,2.32,0,0,0,.21-.45l0-.06h.06a12.35,12.35,0,0,1,2.82,1.44Z"/></g><g class="a0f1ef1f-b80b-4f70-8541-04d050c7e79a"><path id="e6143128-2efc-4fb8-a45c-66533a812ac2" data-name="Fill-65" class="f4e26252-f607-4836-bd13-a9edd5660892" d="M97.62,64.46v.26l1,.11.39-.12a.3.3,0,0,1,0-.1Z"/></g><g class="a0f1ef1f-b80b-4f70-8541-04d050c7e79a"><path id="a75d115c-6508-4059-b6f3-196ad993e5b1" data-name="Fill-66" class="a9ca6e19-aed6-4acb-adea-34c7a781ce9c" d="M97.7,64.66l.87.09.28-.08-1.15-.13Zm.88.25-1-.12v-.42l1.53.17,0,.09a.24.24,0,0,0,0,.09v0Z"/></g><g class="a0f1ef1f-b80b-4f70-8541-04d050c7e79a"><path id="a38dcc44-a2b5-4dee-aa16-3fd6c7604d47" data-name="Fill-67" class="a5fbd2ca-74be-4cc1-94fe-05e21bc44174" d="M89.87,58.63s1-.42,1.42-.25,1.43-.09,1.51-.42a4.48,4.48,0,0,1-1.51,0,3.77,3.77,0,0,0-.69-.11H87.93c-.07.66,0,2.41,1.44,2.95s4.52,1.25,3.09.59c0,0-2-.67-2.25-1.51a11.57,11.57,0,0,0,3.59.5s-3.59-1-3.93-1.75"/></g><g class="a0f1ef1f-b80b-4f70-8541-04d050c7e79a"><path id="b598ca5f-0983-4a19-aed1-720a00663e16" data-name="Fill-68" class="f4e26252-f607-4836-bd13-a9edd5660892" d="M94.19,73.89,80.9,62.2,80.71,62c-.79.5-1.59,1.06-2.31,1.48a19.56,19.56,0,0,0-2.75,2,12.79,12.79,0,0,1,6.69,6.11c2.41,1.19,5.58,4,6.44,6a31.35,31.35,0,0,0,5.41-3.78"/></g><g class="a0f1ef1f-b80b-4f70-8541-04d050c7e79a"><path id="eedc2dc0-c729-414e-a450-d0b1b9f80db9" data-name="Fill-69" class="a395f91f-9ed6-481a-a9bf-b6f0a0fd962c" d="M93.05,63.12a.48.48,0,0,0-.59-.17c-.08.25-1.42.67-1.75.84V64a.62.62,0,0,0-.42-.34,13.47,13.47,0,0,1-.59-1.92l-.83-.25a3.53,3.53,0,0,1,.08.42c.34.83.59,2.17,0,2.42-.75.25-3.18.08-3.43.5,0,.17-.33.42-.16.42.33-.08,1.92-.25,2.17-.33.42-.17.67,0,1,0a.84.84,0,0,1-.58.33c-.25,0-.34.5-.67.25a4,4,0,0,0-2.09.5A2.33,2.33,0,0,0,84,67.72c.25-.75,1.25-.34,1.59-.67.58-.67,1.5-.59,2.17-1,.5-.17.92-.59,1.34-.67-.08.42-.5.58-.67.83-.84.09-1.42.92-2.09,1.26a3.31,3.31,0,0,0-.42,1.5c.17.59.08.67.84-.75a5.05,5.05,0,0,0,2.42-1.84,1.82,1.82,0,0,0,1.42-.84c0-.16.26-.58.26-.83.33,0,.75-.34,1.08-.5s.84-.09,1.09-.42a1,1,0,0,0,0-.67"/></g><g class="a0f1ef1f-b80b-4f70-8541-04d050c7e79a"><path id="b4a45407-b9ca-4d98-b775-7e842bedc1ba" data-name="Fill-70" class="bf245628-4caf-4663-a893-532468f8515d" d="M86,69l0,.13a1.25,1.25,0,0,0,.06.18,7.72,7.72,0,0,0,.44-.78l.17-.33h0a5,5,0,0,0,2.38-1.8l0,0h0a1.79,1.79,0,0,0,1.36-.79,1.64,1.64,0,0,1,.11-.34,1.44,1.44,0,0,0,.14-.47v-.08h.08a1.72,1.72,0,0,0,.73-.31l.31-.18a1,1,0,0,1,.52-.18.78.78,0,0,0,.54-.21.88.88,0,0,0,0-.6.4.4,0,0,0-.46-.13,3.52,3.52,0,0,1-1.28.63l-.46.19V64l-.14,0a.53.53,0,0,0-.37-.3h0l0,0a6.23,6.23,0,0,1-.41-1.28c-.06-.23-.11-.45-.17-.62l-.67-.2h0a.82.82,0,0,1,.06.28c.33.83.6,2.23,0,2.51a7.8,7.8,0,0,1-1.57.18c-.74,0-1.66.08-1.81.28a.66.66,0,0,1-.15.27l0,0c.2,0,.57-.09.94-.14a9.43,9.43,0,0,0,1.14-.18,1.3,1.3,0,0,1,.72,0,1.54,1.54,0,0,0,.3,0l.06.13a.91.91,0,0,1-.64.36c-.07,0-.13.06-.19.13s-.27.29-.53.1a4.35,4.35,0,0,0-2,.5v0h0a1.36,1.36,0,0,0-.68.62,2.66,2.66,0,0,0-.38.72,1.31,1.31,0,0,1,.84-.24,1,1,0,0,0,.57-.14,2.44,2.44,0,0,1,1.32-.68,3.5,3.5,0,0,0,.87-.34h0a3.31,3.31,0,0,0,.65-.33,2.32,2.32,0,0,1,.69-.34l.12,0,0,.11a1.13,1.13,0,0,1-.44.63,1.81,1.81,0,0,0-.24.24l0,0h0a2.62,2.62,0,0,0-1.32.72,4.7,4.7,0,0,1-.73.52A3.27,3.27,0,0,0,86,69m.08.49h0c-.09,0-.12-.12-.17-.32a.57.57,0,0,1,0-.14v0a3.41,3.41,0,0,1,.42-1.54v0h0a3.93,3.93,0,0,0,.71-.51,2.82,2.82,0,0,1,1.37-.75,1.81,1.81,0,0,1,.24-.24,1.29,1.29,0,0,0,.36-.41,2.42,2.42,0,0,0-.52.28,3.63,3.63,0,0,1-.68.35,3.16,3.16,0,0,1-.9.34,2.39,2.39,0,0,0-1.25.64,1,1,0,0,1-.67.19c-.38,0-.76,0-.9.45h-.15a2.13,2.13,0,0,1,.45-1.16c.13-.18.45-.61.77-.68a4,4,0,0,1,2.16-.49c.14.1.2,0,.32-.08a.43.43,0,0,1,.31-.19.61.61,0,0,0,.41-.19l-.16,0a1,1,0,0,0-.64,0c-.15,0-.64.11-1.17.18l-1,.15h0a.15.15,0,0,1-.12-.06c0-.07,0-.14.09-.23a.51.51,0,0,0,.12-.21v0c.15-.26.84-.31,1.94-.37a7.78,7.78,0,0,0,1.53-.16c.51-.22.27-1.52-.05-2.33h0a1.09,1.09,0,0,0,0-.26.62.62,0,0,1,0-.16v-.11l1,.3,0,0c.06.18.12.42.18.68a6,6,0,0,0,.38,1.21.81.81,0,0,1,.31.17h0l.52-.21a4,4,0,0,0,1.2-.58v0h0a.56.56,0,0,1,.68.21h0a1,1,0,0,1,0,.72h0a.86.86,0,0,1-.64.28.77.77,0,0,0-.45.15h0l-.31.18a2.09,2.09,0,0,1-.74.33,2,2,0,0,1-.15.45,1.31,1.31,0,0,0-.1.31v0h0a1.91,1.91,0,0,1-1.44.87,5.19,5.19,0,0,1-2.42,1.83l-.14.28c-.39.73-.47.89-.59.89"/></g><g class="a0f1ef1f-b80b-4f70-8541-04d050c7e79a"><polygon id="b38e255e-0961-44f3-ab15-3b54a452464d" data-name="Fill-71" class="f4e26252-f607-4836-bd13-a9edd5660892" points="88.74 63.41 84.35 62.95 84.02 62.37 81.34 61.87 81.76 62.7 81.09 63.54 83.85 63.79 84.27 63.37 88.66 63.83 88.74 63.41"/></g><g class="a0f1ef1f-b80b-4f70-8541-04d050c7e79a"><path id="ba28f341-b519-4f8a-a828-459861f06870" data-name="Fill-72" class="a9ca6e19-aed6-4acb-adea-34c7a781ce9c" d="M84.24,63.29l4.36.46.05-.27L84.31,63,84,62.44,81.48,62l.37.74-.61.76,2.58.24Zm4.48.62-4.42-.46-.42.42-2.94-.27.73-.91-.47-.93,2.87.54.33.58,4.43.46Z"/></g><g class="a0f1ef1f-b80b-4f70-8541-04d050c7e79a"><path id="b74c8f99-3609-4ee3-8836-f9b4f9e0da31" data-name="Fill-73" class="a395f91f-9ed6-481a-a9bf-b6f0a0fd962c" d="M100.49,64.21a.66.66,0,0,0-.75-.25c-.17.33-.67.33-.67.83l-1.34.42c-.5-.33-.42-1.25-.33-1.84l-.92-.25a6.91,6.91,0,0,1,.08,2c-.25.58-3.59,0-4,.16-.34,0-1.84.92-1.76,1.51l1.76-.67c.08.25,1.42.5,2.34.25A4.26,4.26,0,0,1,96,66.13c-.42.59-1.26.42-1.43,1.17l-.25-.17c-.25-.16-1.92.42-2,.34s-.5.08-.76.17c-.41.25-1.25,1.33-1.08,1.58a3.63,3.63,0,0,1,2-.66c.26-.09.51,0,.67-.26,1-.41,2-1,3-1.42-.16.5-.75.59-1,1.09-.84.33-1.42,1.25-2.34,1.5,0,.26-.75.67-.59,1.34.51-.58,1.09-.75,1.17-.5.51.25.51-.58.92-.58a20.78,20.78,0,0,0,3.6-3.1c.25-.92,1.09-.92,1.67-1.34.25-.33.59-.33.92-.67.5-.75.34-.58,0-.41"/></g><g class="a0f1ef1f-b80b-4f70-8541-04d050c7e79a"><path id="b3c6f37c-e5df-4d0a-aa57-1893a47cdfec" data-name="Fill-74" class="a5fbd2ca-74be-4cc1-94fe-05e21bc44174" d="M81.93,74.66a11.2,11.2,0,0,0-6.31-6.76l0-2.36a12.38,12.38,0,0,1,6.7,6.12Z"/></g><g class="a0f1ef1f-b80b-4f70-8541-04d050c7e79a"><path id="ad7053bd-2e07-4bba-bccf-d83eec96eae4" data-name="Fill-75" class="bf245628-4caf-4663-a893-532468f8515d" d="M139.91,52.2c-.5-2.43-6.11-8.78-6.11-8.78.42,0,.59.08.51-.09-.92-1.83-6.61-6.94-6.61-6.94l.33-.16c-.58-.5-11.37-10.46-18.81-10.46-9.37,0-13,11.21-13.55,12.46a1.2,1.2,0,0,1-.13.21,12.68,12.68,0,0,0-2.38-3A12.68,12.68,0,0,1,91.07,33l-.92,2.67-.75,2.18-2.26,3.26a10.21,10.21,0,0,0-.92.75c-.59.2-1.62.63-2.57,1a9.27,9.27,0,0,1-3.2.17c-3.6-.5-4.69-1.09-6.86-2.76A3.26,3.26,0,0,0,69.91,40a2.13,2.13,0,0,0-1.67-.42,2.33,2.33,0,0,0-2-.92,1.84,1.84,0,0,0-1.92,1.93,2.1,2.1,0,0,0,.75,1.58,1.42,1.42,0,0,1,1.46-.43c.8.21,1.07.69,1.48,1.43a6.25,6.25,0,0,1,1.91,1.93,5.59,5.59,0,0,1-3.13-1.45l-.38-.14-1.51-.58c-.08.67.17,2.84,3.93,4.6s3.93,2.09,4.52,2.76a35.37,35.37,0,0,0,2.51,2.5,14.74,14.74,0,0,1,3.59,1.84,5.79,5.79,0,0,1,1.74.33c.43.22.86.42,1.15.58a3.59,3.59,0,0,1,.79.77c.59.16.76-.25,1.34.16a2.49,2.49,0,0,0,1.34.59c.67.08.67-.17,1.34.08a4.65,4.65,0,0,0,1.42.25v-.13c1.54.55,1.42-.62,1.42-.62,3.43.59,4.69-.84,4.69-.84,1.58,4.27,2.84.84,2.84.84a.92.92,0,0,0,1.67,0,1,1,0,0,0,1.76-.08,1.16,1.16,0,0,0,2.09-.5c1.09.75,1.67-.59,1.67-.59,1.42.92,1.59-.75,1.59-.75,1.09.67,1.34-1.51,1.34-1.51,1.92.59,1.5-1.25,1.5-1.25.59.42,1.43-.17,1.43-.17l.55-1.38c.86,2.4,1.79,5,1.79,5a6.65,6.65,0,0,1,1.34,0s.92.42,1.17.58l.84.42c2.09,2.09,3.26,1.92,3.26,1.92l-.17-.92,1.26.51a5,5,0,0,0-.25-1.43,12.38,12.38,0,0,0,1.92,1.26c.17-.42-2.59-5.1-4.43-6.69a.58.58,0,0,1-.25-.25,29.1,29.1,0,0,0-3.52-3.21,1.47,1.47,0,0,0,2-1.53,2,2,0,0,0,2.34-.33c2.84,2.26,3.51.75,3.51.75,5.44,2.68,4.68-.08,4.68-.08,3.43,3,3.68,2.09,3.68,2.09,4.52,4.35,5.27,2.51,5.27,2.51.75.75,4.77,3.68,4.35,1.17"/></g><g class="a0f1ef1f-b80b-4f70-8541-04d050c7e79a"><path id="fbd46dc5-8148-4cb2-88e2-2f05999b46c3" data-name="Fill-76" class="a5eed530-11e1-4f34-89cf-8a7ec7eea52a" d="M112.65,49.91c.34-.25,1.51.75,2.09,1.25,3.85,3.35,5.44,4.6,5.44,4.6a54.91,54.91,0,0,0-4.1-4.35,12.67,12.67,0,0,0-1.72-1.5c-1.12-.8-.41-1.6-.41-1.6,1.67,1.51,2.38,2.1,3.47,2.94v.16a26,26,0,0,1,2.34,2.51,15,15,0,0,1,1.17,2.34c-.33.09-.84-.25-1.17-.41a2,2,0,0,1,.25.58l.08.59a1.48,1.48,0,0,1-.41-.17c-.42-.5-3.35-2.93-4-4a26.45,26.45,0,0,0,3,3.51,7.57,7.57,0,0,1,.25,1.5l-4.76-3.43c4.51,2.43,1.17-.33.16-1.17s-2.09-3.17-1.67-3.34"/></g><g class="a0f1ef1f-b80b-4f70-8541-04d050c7e79a"><path id="eece238c-3c8e-42f0-8dd7-091410678d1e" data-name="Fill-77" class="a5eed530-11e1-4f34-89cf-8a7ec7eea52a" d="M90.23,35.41s.86-1,1.45,0l.5.25-2,.5,2.68.08.34.59-.76.25,1.42.34.34.58h-.92l.08.34,1.17.16a3,3,0,0,1-2.42.84L90.68,39l2-.66L92.1,38s-1.26,0-2.09.09c0,0,1.84-.67,2.34-.75H90.68l.92-.76s-1.33.1-3,2.36l.8-1.15Zm3,7.73c-1.26,1.92-2.76,3.76-4,3.76-.58,0-.75.08-1.08-.34l-.92-1.25c-.09-1.09,2-2.17,2-2.17a4.48,4.48,0,0,0-2.59.66,1.86,1.86,0,0,1,.84-1.75c.17-.5,2.26-.59,2.26-.59a3.45,3.45,0,0,0-.84-.25L90,41s.67-.17,1.5-.33C92.6,40.79,93.85,41.3,93.27,43.14Zm-2.84-.67c2.42-.34,1.42,1.75,1.42,1.75,1.5-1.84.16-2.17-.34-2.17A1.92,1.92,0,0,0,90.43,42.47Zm-1.51,3.76c1.42.17,2.26-1.51,2.26-1.51-1.42,1.18-2.68-.16-2.51-.5C88.5,44.39,87.5,46.06,88.92,46.23ZM90,41.71a3.49,3.49,0,0,1,2.84.59c.17-1.09-1-1.34-1.67-1.26Zm21.83-13c-1-1.59-2.6-1.34-3.43-1.5C110,27.83,111.84,28.75,111.84,28.75Zm.25-.75a21.34,21.34,0,0,1,3.26,1.42c-.5-.92-2.59-1.59-2.59-1.59ZM95.86,39.87s4.68-13.12,12.63-13.12a3.33,3.33,0,0,1,2.68.66,1.16,1.16,0,0,1,1-.16c.67.16,3.43,1.08,4.18,2.42l.34-.25a3.79,3.79,0,0,1,2.42,1.76l.5-.17a30.18,30.18,0,0,1,6.11,4.35L123.46,35s-2.76-2.34-3.68-3a2.54,2.54,0,0,1,.25.84s-4.77-2.43-7.27-4a5,5,0,0,0,1.25,1.5l-.67-.17a6.45,6.45,0,0,0-5.1-.92,1.81,1.81,0,0,0,.5.92l-1.17-.5s0-.75-1.17-.16a10.47,10.47,0,0,0-3.93,3.59s-.84.5-1.34.34l.08.41s.67.09.26.42-1.09,1-1.84.67c.16.75,1.08.75,1.5.59l-.67.83c-.33.25-1.17-.42-1.17-.42l.17.51a.58.58,0,0,0,.75.16l-.25.59c-.25.42-1.17.08-1.17.08.5.42.75.67.75.92-.08.5-1.17.17-1.17.17l-.08.17c.16.41.75.58.67,1s-1.09.17-1.09.17L97.7,40c.25.08.92.58.34,1a1.27,1.27,0,0,1-1.17.17l-.17.17.83.41-.16.51A1,1,0,0,1,96,42.3l-.17.33c.09.34.92.25.92.25l-.17.34a.75.75,0,0,1-1,0l-.17.42c.09.33,1,.25,1,.25l-.17.25c-.42.58-.75.25-1.17.08.42,1.59-.25,1.93-.25,1.93a1,1,0,0,1-1.09,1c-.92,0-1.09-1.17-.92-1.59s0,1.42,1,.84c.76-.5-1.58-1.34-.33-2,0,.33,0,1.17.75.92,0,0-.92-1.25-.16-1.92,0,0,.08.83.66.5,0,0-1.08-1.84.17-2.18,0,0-.17-1.08.67-1.17A1,1,0,0,0,95.86,39.87Zm-2.67,15a5.7,5.7,0,0,1-1.93.34s.59-.25.17-.59a4.52,4.52,0,0,0-1.92-.42,6.53,6.53,0,0,1,5.18,0Zm-4.27,1.34s1.17-1.09-.59-1.34c0,0,2.18-.33,2.51.17C91.6,55.93,88.92,56.18,88.92,56.18Zm0-4.35a5.35,5.35,0,0,0,1.67.84l1.09.33s-2.09.84-2.93.59C89,53.25,90.09,53.59,88.92,51.83Zm4.18-1.92.42-.42.42.42s-.67.58-.59,1.09a1.19,1.19,0,0,0,.5.75,3.65,3.65,0,0,1-4.68-.5A8.3,8.3,0,0,0,93.1,49.91Zm-3.26-1.17a8.81,8.81,0,0,1,3.68-.84l.5.5a7.59,7.59,0,0,1-3,1.43c-1.25.16.08-.26.08-.67S90.09,49.41,89.84,48.74Zm-1.51-.84a15.68,15.68,0,0,0,2.35-.83s.58.41-.17,1.08A3.75,3.75,0,0,1,88.33,47.9Zm7,5.35a5.31,5.31,0,0,1-2.43,0l-1.25-.58c.41-.09,2.25.08,2.59-.25A4.67,4.67,0,0,0,95.28,53.25ZM103,40.38a3.41,3.41,0,0,1,1.26.25l.33-.42a21.6,21.6,0,0,1-3-1.34c.58.59,1.5,1.59,1.09,1.51a7.82,7.82,0,0,1-2-.92,4.38,4.38,0,0,0,2.84,1.92l.42-.34A5.85,5.85,0,0,1,103,40.38Zm2-2.85a4.3,4.3,0,0,0,1.5-.42A4,4,0,0,1,103,35.86a1.52,1.52,0,0,1-.08.42l1.08,1a4,4,0,0,1-1.5-.42.39.39,0,0,1-.42.25,5.85,5.85,0,0,0,3.68.92,1.22,1.22,0,0,0,.33-.25A1.3,1.3,0,0,1,105,37.53Zm2.34-3.09c.08.17.08.25,0,.33a.41.41,0,0,1-.59-.08.56.56,0,0,1-.16-.59A7.27,7.27,0,0,1,105,33c-.17.75.83,1.34.83,1.34a4,4,0,0,1-1.58-.34A3,3,0,0,0,107,35.28l1.43-.42S107.9,34.69,107.32,34.44Zm5.77-2.34a.28.28,0,0,1-.08.16.41.41,0,0,1-.59-.08c-.17-.17-.25-.42-.08-.58a2.31,2.31,0,0,0-1.26-.34l.67.84a7.89,7.89,0,0,1-2.26-.84h-.16a4.34,4.34,0,0,0,4.34,1.59A4.76,4.76,0,0,0,113.09,32.1ZM104.31,35c.25.26.83.84.67.92a2.38,2.38,0,0,1-1.26-.5.65.65,0,0,1-.16-.42l-.51.51c.59.75,1.93,1.42,3.93.83l.17-.5A4.92,4.92,0,0,1,104.31,35Zm6.27-1.67h.34l-1.43-.83Zm1.42.17-1.42.42A9.16,9.16,0,0,1,108,31.51l1.17.25A16.49,16.49,0,0,0,112,33.52ZM103.56,39l1.42-.42a6.81,6.81,0,0,1-3-.92.45.45,0,0,1-.34.42,5.83,5.83,0,0,0,2.85,1.59,4.32,4.32,0,0,0,.66-.25Zm-3.43.92c0,.25-.09.42-.09.67s.59,1.25,1,1.33a3.36,3.36,0,0,1-1.51-.5c-.08,0-.17.09-.25.17a2.89,2.89,0,0,0,3.68.42A4.62,4.62,0,0,1,100.13,40Zm7-7.78a1.51,1.51,0,0,0,.5,1.51,10.68,10.68,0,0,1-2.17-1.26c.08.59,1.34,1.17,2,1.76a6,6,0,0,0,2.59.42l.42-.34A9.91,9.91,0,0,1,107.15,32.18Zm-8.7,10a.84.84,0,0,1,.09.34,2.24,2.24,0,0,0,1.09,1.08L98,43.39a2.48,2.48,0,0,0,1.93.75l.83-.17S101.13,42.72,98.45,42.13Zm1.84,2.34h-.83a3.86,3.86,0,0,0,3,3.35l.08-1.42a4,4,0,0,1-.58-.25c-.25.83-.84.5-.84.5a.68.68,0,0,0,.5-.75,2.67,2.67,0,0,1-.67-.67.41.41,0,0,1-.58-.09A.68.68,0,0,1,100.29,44.47Zm3.43.34c0,.17-.16,1.17-1.08.83.5-.16.66-.5.75-1.08A4.94,4.94,0,0,1,101.72,43l-.51.17,1.51,1.92c-.5,0-1.67-1.26-1.67-1.26l-.25-.58h-.09A3.8,3.8,0,0,0,104,46.56l.09-1.67A.67.67,0,0,1,103.72,44.81Zm1.93-1.17a.85.85,0,0,1-.42-.09c0,.25-.17,1.17-1.09.92a1.18,1.18,0,0,0,.75-1,2.45,2.45,0,0,1-1.59-1.09l-.41.09a3.94,3.94,0,0,0,1.42,1.42l-1.59-.5c.58.83,1.67,2,3.18,1.5ZM107.07,38l-.42.09.75,1-1.25-.83V39c.42.42,1.59.84,1.17.92a4.58,4.58,0,0,1-1.59-.16,1.26,1.26,0,0,1-.5.33,5.89,5.89,0,0,0,3.09.42S109.33,39.29,107.07,38Zm15.14-3.09a4.79,4.79,0,0,0-1.68-.92c.17.17.76,1.17.34.67a5.75,5.75,0,0,0-1.51-.92L119,33.6a7.37,7.37,0,0,0-1.59-.16c2.34,1,2.93,1.5,3.34,1.92l1.51.5ZM99.79,46.06a1.08,1.08,0,0,1-1.5.92,1.35,1.35,0,0,0,1-1.34A4.21,4.21,0,0,0,97.45,45a2.13,2.13,0,0,1,.25,1.08,1.29,1.29,0,0,1-.75-.58l-.67.33a3.33,3.33,0,0,0,4,1.84A2.49,2.49,0,0,0,99.79,46.06Zm12.46-12.37c-.41.67,1.42,1.75.76,1.59a7.24,7.24,0,0,1-1.93-.92c-.16,0-.33.08-.5.08,2.34,2.84,3.6,2.17,4.27,1.92C114.43,35.28,112.34,33.77,112.25,33.69Zm-2.09,1.25s0,.17-.33.34c.17.16.83,1.17.5,1.08a6.24,6.24,0,0,1-1.51-.92c-.33-.08-.66-.08-1-.16.34.41,2.34,2.25,3.76,2.17C111.58,37.45,111.75,36.45,110.16,34.94Zm-2.51.75v.42c.25.34,1.17,1.92.92,1.67a4.65,4.65,0,0,0-1.33-.75v-.17c-.17.17-.42.34-.51.42,2.18,1.93,2.68,1,2.68,1C109.41,37,107.65,35.69,107.65,35.69ZM96.2,47.32a.45.45,0,0,1,.41-.25,1.64,1.64,0,0,0-.33-.51l-.5.25a2.39,2.39,0,0,0,.25.76C96,47.48,96.11,47.32,96.2,47.32Zm1.67.5a1.46,1.46,0,0,1-.92-.5l-.08.25c-.17,0-.26,0-.34.08s-.08.17-.08.34h-.17a1.44,1.44,0,0,0,2,.58Zm17.65-14.55h-.17A8.75,8.75,0,0,1,117.1,35l-2.67-1.5c.58.67,2.59,1.92,3.26,2.93l1,.66.09-.92A15.41,15.41,0,0,0,115.52,33.27ZM94.69,47.9l.67-.08a3.38,3.38,0,0,0,2.09,1.34l-.17,1C95.78,50.66,94.61,48.4,94.69,47.9Zm9-6,.34-.17c1.75,1.51,2.84.51,2.84.51a2.05,2.05,0,0,1,.84,1.75A4.07,4.07,0,0,1,103.72,41.88Zm4.1.25c-1.92.25-3-.5-3.34-1.25l.33-.42a2.83,2.83,0,0,0,2.17.33A2.49,2.49,0,0,1,107.82,42.13Zm9.2-5.77-.25.75-.92-.58a18.34,18.34,0,0,0-2.93-2.76l.92-.08A17.35,17.35,0,0,1,117,36.36Zm3.93.34a4.35,4.35,0,0,1-1.84-.42,8,8,0,0,0-3.18-2.93C119.53,34.52,120.7,36.28,121,36.7Zm-9.28,5.43a4.94,4.94,0,0,1-.59-.5v.08a1.41,1.41,0,0,1-.33,1.09.27.27,0,0,1-.34,0,.26.26,0,0,1,0-.33c.25-.17.25-.42.17-.76v-.16a.18.18,0,0,1,.17-.17,9.29,9.29,0,0,1-.75-.92h-.09a.46.46,0,0,0-.42.25c-.16.17-.16.5-.08.92a.18.18,0,0,1-.17.17c-.08,0-.16,0-.16-.17a1.4,1.4,0,0,1,.16-1.17c.09-.17.34-.25.5-.33a7.3,7.3,0,0,1-.5-1.34l-.33.25a5.45,5.45,0,0,1,0,1.17.57.57,0,0,1-.59.33c.17.42,1.17,2.51,3.18,2.6A.87.87,0,0,0,111.67,42.13Zm3.93-1.34-1.09-1.08-.84.33c.59-.25.34-.67.34-.67v-.25l-.59-.58c-.08.16-.41.58-1.42.25a1.06,1.06,0,0,0,1-.76,4.45,4.45,0,0,1-.59-.83l-.25-.25c.08.58.17.83-.08,1.17s-1.43.17-1.43.17a16.62,16.62,0,0,0,2.26,1.92,4,4,0,0,0,3,1.42Zm1.5-.58c-.33.5-1.5-.42-1.5-.42.92.34.92-.08.83-.33A18.51,18.51,0,0,0,115,38.12a.59.59,0,0,1-.92.33c.59.09.42-.5.34-.75a3,3,0,0,0-.84-.59c.17.51-.5.34-.75.26.25.58,3.51,4.34,5.85,4.51A22.53,22.53,0,0,0,117.1,40.21Zm2.09-.17c-.33.5-1.5-.42-1.5-.42,1.17.51.84-.41.84-.41A4.58,4.58,0,0,0,117.27,38a.89.89,0,0,1-.92.34c.42-.17.5-.34.5-.59a8.48,8.48,0,0,0-.92-.5c.17.75-.92,0-1.33,0,.5.83,3.26,3,5.26,4.6A5.11,5.11,0,0,0,119.19,40Zm1.93-1.84a.93.93,0,0,1-.92.25c.5-.16.5-.33.5-.67-.17-.16-.42-.33-.59-.5-.41-.25,0,.92-1.25.34.5.67,3.51,3.93,5.94,4.6a16.54,16.54,0,0,0-1.59-1.93c-.17.75-1.59-.25-1.59-.25,1.17.42.84-.42.84-.42Zm-8.87,2.26a6.67,6.67,0,0,0-.67-.84c-.08.25-.41.51-1.08.34.58-.17.75-.09.83-.59-.41-.42-.83-.75-1.08-1.08l-.09.66h-.67a3.27,3.27,0,0,0,.76,1.26c1.08,1.5,4.43,1.92,4.43,1.92A24.47,24.47,0,0,1,112.25,40.46Zm8.87,0c-.17.42-.84.08-1.17-.17a1.76,1.76,0,0,0,.33.5c1,1.43,1.51.59,1.51.59A8.76,8.76,0,0,0,121.12,40.46Zm-.75-.84a5.33,5.33,0,0,0-2.68-2,12.89,12.89,0,0,1,2.17,2.59C120.7,40.46,120.37,39.62,120.37,39.62Zm-9.71,3.52A6.59,6.59,0,0,1,108,40.63l-.34.58a5.13,5.13,0,0,0,.59,1.17v-.25c0-.08.08-.17.08-.25a.22.22,0,0,1,.25-.25.26.26,0,0,1,.25.25v.25a.51.51,0,0,0,.09.59c0,.16,0,.25-.09.33a6.43,6.43,0,0,0,1.43,1.09s.75,0,.75-.25S110.66,43.14,110.66,43.14Zm-2.09,2.5c0,.34,0,.76-.5.67l.5-.75a2.16,2.16,0,0,1-.92-1l-.41.25-.76-.34a3.78,3.78,0,0,0,1.34,2.34h1.09l.25-.75S108.91,45.9,108.57,45.64Zm-.75,1.68a1,1,0,0,0-.33-.34c0,.34-.09.84-.42.92l.42-1a3.75,3.75,0,0,1-.76-.84v.09l-.25.25c-.25.25-.33.33-.33.5a.16.16,0,0,1-.09.25,1.9,1.9,0,0,0,1.76,1.34Zm-1.76-1.26.26-.25a.25.25,0,0,1,.16-.08,3.1,3.1,0,0,1-.25-.92l-.25-.09a2.21,2.21,0,0,0-.08,1.59C105.9,46.23,106,46.15,106.06,46.06Zm.92,2.76c.09.42,0,1.09-.75,1.09Zm-1.08-1.25c0,.08-.17.16-.25.08-.25,0-.34.08-.59.25V48c0,.08.08.33.08.5s0,.16-.08.16a4.8,4.8,0,0,0,1.26,1.76s.5.59.75-.08l.17-1.42C106.82,48.82,106.32,48.24,105.9,47.57Zm-1.26,0a4.49,4.49,0,0,1-.16-2l.66.08a4.52,4.52,0,0,0,.59,1.51,1.25,1.25,0,0,0-1,.33A.09.09,0,0,1,104.64,47.57Zm.25,2.84c.25.08.34-.08.51-.33Zm-1.08-1.92.16-.25.17-.42c.09-.09.09-.09.17-.09,0-.16-.08-.33-.08-.5l-.51-.25a3.64,3.64,0,0,0,.09,1.59Zm1.25,2.59a5.17,5.17,0,0,1-1.17-2.34.29.29,0,0,0,.25-.09l.17-.25.08-.33h.09a13,13,0,0,0,1.33,2.51C106,51.58,105.06,51.08,105.06,51.08Zm-3-.08h.33c.09,0,.09-.17.09-.26Zm.92-.09-.25.84c-1.17-.09-1.34-1.51-1.34-2.59.09.08.25,0,.25,0s0-.09.25-.09h.17a.17.17,0,1,0,0-.33h-.17c-.08,0-.33,0-.41.08a1.69,1.69,0,0,1,.25-.92l.58.17A4.58,4.58,0,0,0,103,50.91Zm.75-.17H104c.09,0,.09-.08.09-.25Zm1,.26-.17.92-.75-.17a4.3,4.3,0,0,1-1.17-2.68V49c.08-.08.41-.08.58-.08a.19.19,0,0,0,.17-.17c0-.17-.09-.25-.17-.25a1.43,1.43,0,0,0-.58.08,2.45,2.45,0,0,1,.33-1.25h.17C103.47,50.24,104.73,51,104.73,51Zm-6.28-2.6c0-.41-.41.34-.58,1.43.08-.09.25-.09.5,0l-.17.5c-.08-.09-.16,0-.25,0v.25l-.16.08a3.3,3.3,0,0,0,.92,2.59l.08-1.5A8.87,8.87,0,0,1,98.45,48.4Zm1.26.09-.25-.17A2.62,2.62,0,0,0,99,49.57a1.1,1.1,0,0,1,.5-.08V50a.67.67,0,0,0-.42.17L99,50c-.08,1.09.08,2.34.84,2.76l.33-.83A22.28,22.28,0,0,1,99.71,48.49Zm1.09-.25-.34-.09a4,4,0,0,0-.25,1.42.83.83,0,0,1,.59-.16h.08v.33h-.17c-.17,0-.17,0-.25.09l-.25-.17c0,1.08.25,2.42,1.17,2.67l.25-.83A10.86,10.86,0,0,1,100.8,48.24Zm-4,2.09a3.28,3.28,0,0,0,.92,2l-.08.84C96.11,52.33,96.78,49.74,96.78,50.33Zm-2.17-.67c.75,1.25,1.5,1.08,1.5,1.08a7.09,7.09,0,0,0,.42,2.76C93.85,52.33,94.44,49.41,94.61,49.66Zm25.92-14-.08-.5c4.1,1.67,7.94,5.85,9.45,7l-1,.25a2.67,2.67,0,0,1-1.34-.51A75.05,75.05,0,0,0,120.53,35.69Zm.76,1.93a29.54,29.54,0,0,1,5.43,3.93l.5,1.25C125.05,42.88,121.79,38.37,121.29,37.62Zm-13.47,6.1.42.25-.42-1.25.34-.17c2.5,2.26,1.17,3.35,1.17,3.35A2.53,2.53,0,0,1,107.82,43.72ZM127.31,37c1.92,1.59,5.93,5.1,6.19,6.36-4.19-1.09-10.37-7.45-10.71-8l2,1.17a15.91,15.91,0,0,0,3.51,2.68c-.25-.42-1.84-2.35-1.84-2.35Zm-17.23,9.62A3.43,3.43,0,0,0,112.67,48s.34-1-1.09-2.93a1.33,1.33,0,0,1-.5.25,1.4,1.4,0,0,0,.25.67c.59.67.17.75-.33.33s-.75-.25-.84-.08Zm-1.17,1.59a2.23,2.23,0,0,0,1.34,1.25s1.33-.58-.25-2.42A4.69,4.69,0,0,0,108.91,48.24Zm6.27-5.69a1.73,1.73,0,0,1-.58.33c-.09.34.83.84.58,1.09s-1.59-.58-2.34-.83a2.54,2.54,0,0,1-.75-.17v.08c.67.5,2.76,2.43,5.35,2.18C117.44,45.23,117.77,44.39,115.18,42.55Zm-1.51,2.26c1,.92.17,1.17-.33.5-.42-.5-1-1-1.34-1a1.22,1.22,0,0,0-.25.33c.42.84,1.26,2.26,2.93,2.09,0,0,1.17-.08,0-1.5A9.68,9.68,0,0,1,113.67,44.81ZM107,51.41a1.43,1.43,0,0,0,1.18,1.09s.92-.33-.42-3.18C107.74,49.66,107.74,51.41,107,51.41Zm1.26-2.5a9.78,9.78,0,0,1,.33,1.75,1.2,1.2,0,0,0,1.17.67s.42-.67-1-2.76C108.66,49.07,108.32,49,108.24,48.91Zm-3.6,3.93c.34-.42-.5-.59-.5-.59a2,2,0,0,0,.92,2.34,8.27,8.27,0,0,0,0-2.34A2.84,2.84,0,0,1,104.64,52.84Zm-.83-.92c-.42,1-1.09.83-1.26.83-.17,2.26,1,2.43,1,2.43.33-.25.41-1,.33-1.76l-.5.17s-.25.25.08-.17a2.66,2.66,0,0,0,.34-1.34Zm-1.84.5c-.25.58-.84.75-1.09.58-.17,2.51.75,3.1.75,3.1.42-.34.5-1.17.5-2a1,1,0,0,1-.66.08c.41-.25.5-1.5.5-1.5Zm-1.43,1a1.41,1.41,0,0,1-1.17.34c-.16,2.34.59,2.34.59,2.34a2.29,2.29,0,0,0,.58-1.68c-.08.09-.5.26-.66-.08a1.12,1.12,0,0,0,.66-.75Zm17.07-11.54a1.56,1.56,0,0,1-.25.17c-.51.42.92,1.25.25,1.17s-1.51-1.26-1.93-1.51l-.25.25A11.37,11.37,0,0,0,118,44.64c.67.25,1.76.67,2.26.25a3.05,3.05,0,0,1-1,.5,6.4,6.4,0,0,0,2.26.42l.16-.58A10.66,10.66,0,0,1,117.61,41.88ZM97.37,53.59c0,.33,0,2,.67,2.59,0,0,.58-.08.58-2.34,0,0-.17.08-.42.17a1.87,1.87,0,0,0-.16.83,1.73,1.73,0,0,0-.59-1.08Zm-.34.08a2.45,2.45,0,0,1-.5.42,2.47,2.47,0,0,0-.5.84c0-.34-.34-.59-.5-.76a.86.86,0,0,1-.34-.41c-.08,1.67.5,3.09.92,3.26C97,56.18,97.12,54.17,97,53.67Zm26.35-11.45c.5.83-.92.75-2.09.5A17.89,17.89,0,0,1,127.56,47s1.84,1.17,2.34,1.09C129.9,48.07,129.15,44.47,123.38,42.22Zm.67.66,1.75,1-2.26-.75Zm9.53,3.6-.67-.67-1-.25C132.83,46.73,133.58,46.48,133.58,46.48Zm-1.92-1.84-1.34-1.5-.76.33ZM139,52.75c-2.18-.5-10.12-9.28-11.71-10.37,2,1,2.67.09,2.67.09,2.09,1.33,9.37,10.11,9.37,10.11Zm-9-5.18s.76-.09.59-.34a23.84,23.84,0,0,0-5.69-4.85l2.34.67a15.66,15.66,0,0,1,3.18,2.43c1.67,1.75,4.18,4.51,4.27,5.1A9.69,9.69,0,0,1,130,47.57Zm-3.93-.76c-1.75.59-4-1.08-4-1.08.5,0,2.09.08,2.09.08a21,21,0,0,1-5.6-3.59,5.13,5.13,0,0,1,2,.58C126.89,45.48,126.05,46.81,126.05,46.81Zm-19.73,7.28c-1.09-.25-.84-2.34-.84-2.68a.72.72,0,0,0,1-.25C106.9,53.84,106.32,54.09,106.32,54.09ZM138.68,51v.33s-6.27-7.27-7.27-8.11,1,0,1,0C132.91,43.55,135.34,45.06,138.68,51Z"/></g><g class="a0f1ef1f-b80b-4f70-8541-04d050c7e79a"><path id="bfc81a8c-e24d-4542-9e83-652bb9b2dd1f" data-name="Fill-78" class="b6546990-9876-4e1a-906b-12fa4f32657a" d="M83.36,55.06l.52.24h.05a2.24,2.24,0,0,1,.29.08c0-.09,0-.23-.38-.34a1.82,1.82,0,0,1,1.93.5c1.08,1,1.33.42,1.17.09s-.51-.25-.84-.42-.25-.25-.84-.75c0,0,.34.25,1.43.08L88,54.37s-.41-.16-.41-.41.66-.17.92-.26-.76-.58-1.18-1.08c0,0,1.16.5,1.26.1v-.14c-.08-.55-.25-.64-.74-1s-.17-.59-.17-.59a2.25,2.25,0,0,0,1.42,0,3.73,3.73,0,0,0,.6-.3l.68-.64a4.65,4.65,0,0,1-2.53.11c-.59-.42-.09-.34.08-.67s0-.34-.08-.67-.09-.9.64-1.16v-.24a5.42,5.42,0,0,1-1.31-.44c-.5-.33.16-.92-.25-1.42s-.76,0-.92-.42.41-2.51-.17-2.09a5.25,5.25,0,0,1-3.67.57,8.18,8.18,0,0,1-1.85,0,14.81,14.81,0,0,1-7.23-2.81,3.6,3.6,0,0,0-2.81.12,4.29,4.29,0,0,0-2-.44s-1-1-1.76-.79a1.28,1.28,0,0,0-1.14,1.66,2.68,2.68,0,0,1,1.4-.26c.62.15,1.77.93,1.71,1.82,0,0,2.44,1.18,2.5,2.79,0,0-1.75.63-5-2,0,0,.14,2.25,5.09,3.77,0,0,3.07,2.48,4.19,3.7s2.91,1.31,3.61,1.95,2.91.94,4,1.59a4.76,4.76,0,0,1,.53.35"/></g><g class="a0f1ef1f-b80b-4f70-8541-04d050c7e79a"><path id="e4c14113-2830-4038-a047-6650aad45056" data-name="Fill-79" class="a9ca6e19-aed6-4acb-adea-34c7a781ce9c" d="M76.6,43.84a14.28,14.28,0,0,0,5,.92v-.17a13.61,13.61,0,0,1-5.1-1.25Z"/></g><g class="a0f1ef1f-b80b-4f70-8541-04d050c7e79a"><path id="a2906cf4-e0d6-4629-b789-76305af4f504" data-name="Fill-80" class="a9ca6e19-aed6-4acb-adea-34c7a781ce9c" d="M76.94,44.51c.42.16,1.84.5,1.84.5s1.08,0,.08-.17a19.78,19.78,0,0,1-2-.58Z"/></g><g class="a0f1ef1f-b80b-4f70-8541-04d050c7e79a"><path id="a7f63bd1-77a7-4a55-8cda-7960a36755af" data-name="Fill-81" class="a9ca6e19-aed6-4acb-adea-34c7a781ce9c" d="M76.77,48.94c-.59-.59-1.67-2-2.93-2.09-.42.08-.25.33.09.5a4.93,4.93,0,0,1,2.51,1.51Z"/></g><g class="a0f1ef1f-b80b-4f70-8541-04d050c7e79a"><path id="a7d55a60-55f5-4f54-987f-1401343b65e3" data-name="Fill-82" class="a9ca6e19-aed6-4acb-adea-34c7a781ce9c" d="M77.1,49.78a5.08,5.08,0,0,0-2.25-1.43c-.42-.08-.59.25,0,.42s1.5,1,2.17,1.26c.25.08.08-.25.08-.25"/></g><g class="a0f1ef1f-b80b-4f70-8541-04d050c7e79a"><path id="a42b08f9-906a-479a-8fc7-6a692f8cb7ed" data-name="Fill-83" class="a9ca6e19-aed6-4acb-adea-34c7a781ce9c" d="M75.52,50.19a13.91,13.91,0,0,1,2.92,2c.5.42.76.33,0-.25s-2.17-2-2.67-2.26c0,0-1.09.34-.25.5"/></g><g class="a0f1ef1f-b80b-4f70-8541-04d050c7e79a"><path id="bb9cc0e3-28ad-49bb-9fbf-d5e1b6658cce" data-name="Fill-84" class="a9ca6e19-aed6-4acb-adea-34c7a781ce9c" d="M78,49.86c-.41,0-.08.33.59.75s1.67,1,1.92,1.17.17-.25.17-.25A5.29,5.29,0,0,1,78.61,50a.56.56,0,0,0-.59-.17"/></g><g class="a0f1ef1f-b80b-4f70-8541-04d050c7e79a"><path id="acd96e48-4438-4db1-9373-07bf650be08a" data-name="Fill-85" class="a9ca6e19-aed6-4acb-adea-34c7a781ce9c" d="M78.78,51.78a22.91,22.91,0,0,0,2.92,1.34c.76.33,0-.25,0-.25A9.51,9.51,0,0,1,79,51.28s-.92.08-.25.5"/></g><g class="a0f1ef1f-b80b-4f70-8541-04d050c7e79a"><path id="babbb503-bc36-4203-83aa-123de164466b" data-name="Fill-86" class="a9ca6e19-aed6-4acb-adea-34c7a781ce9c" d="M80.37,53.37c.33.08,1.67.59,2.09.75s.75,0,.33-.16a23.72,23.72,0,0,0-2.42-1c-.25,0-.34.34,0,.42"/></g><g class="a0f1ef1f-b80b-4f70-8541-04d050c7e79a"><path id="a4d125ba-a20a-46c6-9c11-9eef5935775f" data-name="Fill-87" class="a9ca6e19-aed6-4acb-adea-34c7a781ce9c" d="M83,53.2c.67.09,1.93.42,1.93.42-.42-.17-1.84-.67-2.18-.83,0,0-.42.25.25.41"/></g><g class="a0f1ef1f-b80b-4f70-8541-04d050c7e79a"><path id="ae4d74a1-2971-44e9-9c78-fd13e62f1a78" data-name="Fill-88" class="a9ca6e19-aed6-4acb-adea-34c7a781ce9c" d="M82.88,52.12a2.62,2.62,0,0,0-.92-.67c-.59-.34-.59.16-.26.25Z"/></g><g class="a0f1ef1f-b80b-4f70-8541-04d050c7e79a"><path id="f3144772-5d4b-47c1-a7d3-17c903ee25d3" data-name="Fill-89" class="a9ca6e19-aed6-4acb-adea-34c7a781ce9c" d="M77.36,46.18l-.26-.25A11.29,11.29,0,0,1,73.59,44c-.5-.42-.67-.76-1-.92s-.67.08-.92-.09a.49.49,0,0,1-.17-.5,1.85,1.85,0,0,1-.5-.08,1.86,1.86,0,0,1-.5-1,1.8,1.8,0,0,0,.92,2.09c-.34.92.08,1.34.67,1.43a.87.87,0,0,0,.83-.26l.17.34a4.13,4.13,0,0,1,2.59.67,2.87,2.87,0,0,0,1.68.5"/></g><g class="a0f1ef1f-b80b-4f70-8541-04d050c7e79a"><path id="a62d3785-fe73-4391-9208-cc059523d2e5" data-name="Fill-90" class="a9ca6e19-aed6-4acb-adea-34c7a781ce9c" d="M69.49,41.33c-.33.25.26,1.09.59,1.25a1.87,1.87,0,0,1-.25-1c-.08-.25-.25-.33-.34-.25"/></g><g class="a0f1ef1f-b80b-4f70-8541-04d050c7e79a"><path id="aa09f66a-d792-49ff-8d44-486f9ae5e02b" data-name="Fill-91" class="b37eb065-42d3-4f69-bc0d-4f628c87737a" d="M119.69,49.51v.28h.13c.11,0,.17,0,.17-.14s0-.14-.17-.14Zm.34.43.21.38H120l-.17-.34h-.15v.34h-.21v-1h.34c.24,0,.38.14.38.32A.32.32,0,0,1,120,49.94Zm.4.51a.88.88,0,0,0,.26-.63.9.9,0,0,0-.26-.64.89.89,0,0,0-1.51.64.84.84,0,0,0,.26.63.88.88,0,0,0,1.25,0Zm-.62-1.61a.94.94,0,0,1,.68.29,1,1,0,0,1,0,1.38,1,1,0,0,1-1.37,0,1,1,0,0,1,0-1.38A.94.94,0,0,1,119.81,48.84Z"/></g></g></g></svg>