<svg id="Layer_1" data-name="Layer 1" xmlns="http://www.w3.org/2000/svg" viewBox="0 0 200 200"><defs><style>.cls-1{fill:#126837;}</style></defs><path class="cls-1" d="M38.49,52.84Q42,55.6,49,57.6a16.21,16.21,0,0,1,5.58,2.57,4.53,4.53,0,0,1,1.59,3.61,4.23,4.23,0,0,1-1.67,3.51A7.82,7.82,0,0,1,49.6,68.6,15.08,15.08,0,0,1,45.09,68a9.55,9.55,0,0,1-3.2-1.59l-.83-5.54H35V69A17.12,17.12,0,0,0,41.24,73a22.6,22.6,0,0,0,8.36,1.47q6.46,0,10.43-2.89a9.23,9.23,0,0,0,4-7.89A9.82,9.82,0,0,0,60.66,56q-3.33-2.94-9.78-4.74a25,25,0,0,1-6.33-2.69,3.81,3.81,0,0,1-1.83-3.25,4.21,4.21,0,0,1,1.75-3.49,8,8,0,0,1,5-1.35,17.27,17.27,0,0,1,4.14.48,10.3,10.3,0,0,1,3,1.13l1,5.35h5.86v-8a19.06,19.06,0,0,0-6.21-3.63A23.45,23.45,0,0,0,49,34.46,16.8,16.8,0,0,0,39,37.55a9.28,9.28,0,0,0-4,7.75A9,9,0,0,0,38.49,52.84Z"/><polygon class="cls-1" points="97.89 63.3 91.95 63.3 91.6 67.96 79.03 67.96 79.03 56.83 92.22 56.83 92.22 50.81 79.03 50.81 79.03 41.02 91.49 41.02 91.84 45.67 97.83 45.67 97.83 35 71.21 35 67.07 35 67.07 39.71 71.21 40.51 71.21 68.47 67.07 69.27 67.07 73.95 97.89 73.95 97.89 63.3"/><path class="cls-1" d="M119.61,74.51A24.16,24.16,0,0,0,128.82,73a17.27,17.27,0,0,0,5.53-3.38v-15H121v5.49l5.57.42v6.61a8.5,8.5,0,0,1-2.29.94,14.7,14.7,0,0,1-3.81.4q-5.25,0-8-3.54t-2.78-9.49V54.1q0-6.1,2.83-9.87a9.36,9.36,0,0,1,8-3.78,13.73,13.73,0,0,1,4,.55,8.31,8.31,0,0,1,2.82,1.46l1.09,5.22h5.78V39.84a18,18,0,0,0-6.3-4,23.11,23.11,0,0,0-8.36-1.46,16.27,16.27,0,0,0-12.75,5.49q-4.87,5.49-4.88,14.23v1.34q0,8.46,5,13.74A16.8,16.8,0,0,0,119.61,74.51Z"/><polygon class="cls-1" points="167.56 63.06 161.59 63.06 161.22 67.96 150.22 67.96 150.22 40.51 154.39 39.71 154.39 35 150.22 35 142.41 35 138.26 35 138.26 39.71 142.41 40.51 142.41 68.47 138.26 69.27 138.26 73.95 167.56 73.95 167.56 63.06"/><path class="cls-1" d="M102.9,137.47c0-.11,0-.21-.07-.32l.26,0c-.06-.31-.12-.62-.19-.92-1-.31-1.45-.87-2.34-1.07a1.59,1.59,0,0,0-.78-.15v.32h-.2v.45c.85.47,1.4,1.3,2.54,1.53A1.59,1.59,0,0,0,102.9,137.47Z"/><path class="cls-1" d="M72.06,121.27h-.19v.46l1.76-.15v-.29l.19,0v-.46c-.59.05-1.17.11-1.76.15Z"/><polygon class="cls-1" points="105.24 128.77 105.44 128.77 105.44 128.31 104.46 128.31 104.46 128.61 104.27 128.61 104.27 129.07 105.24 129.07 105.24 128.77"/><path class="cls-1" d="M109.93,139.15c-.45.32-2,.07-2.93.31-.31-.73-.84-.78-1-1.68a7.72,7.72,0,0,0-1.36,0v.46l.78.3a3.45,3.45,0,0,1-1,.77,2.87,2.87,0,0,0-2.54-1.68c-.07.31,0,.29-.19.45a1.61,1.61,0,0,1-1,1.07c-.34-.26-.54-.23-.78-.61.91.19,1.37.09,1.37-.91a6.09,6.09,0,0,1-2-1.08h-1c.06.46.13.92.2,1.38l-.2.15H98v-1.53a3.42,3.42,0,0,0,.78-.3c-.46-.32-.29-.39-1.17-.46-.6.53-1.2.38-2.15.46v.61c-.2.31-.9.23-1.17.46-.51.45-.12,1.43-1,1.83s-.75-.4-1.37.31c-.15.16-.12.14-.19.46,2.18.05,1.47-.2,2.92-.61L99,139a3.18,3.18,0,0,1,.19,1.22c-.14.17-.11.15-.19.46,1.75.39,2.48,1.28,4.48,1.37v-.61a2.69,2.69,0,0,1,1.18-.46,6,6,0,0,0,3.7.92c.24-.05.17-.41.79-.3a3.12,3.12,0,0,0,1,.3l.2-.15c.18-1,.64-1.53.39-2.6Z"/><path class="cls-1" d="M110.32,156h-.2v.3c-.17.2-.18.38-.19.76h.78v-.3h.19v-.31c.17-.19.18-.37.2-.76h-.78Z"/><path class="cls-1" d="M118.32,142.05h-1v.31h-.2v.92c.7.23,1.66.95,1.77,1.68h1.36a2,2,0,0,0,.3-.45,1.32,1.32,0,0,0,.2-.32h.09l-.07-.05c0-.06,0-.15.07-.25h.19l-.19-.15C119.73,143.08,118.94,143.15,118.32,142.05Z"/><path class="cls-1" d="M110.8,135.14a.36.36,0,0,1,0-.11h.06a1.81,1.81,0,0,0,.2-.61l-.2-.16h-.78c-.22.26-.24.18-.34.46-.12.1-.14.1-.25.46l.24.06a1.1,1.1,0,0,1-.82-.06l-.19-.61h-1.18l-.15.31h0a6.77,6.77,0,0,0-.78,2l.58.15c1.23.71,1.41-.44,2.93-.15a7.92,7.92,0,0,0,2.35.46l.12-.31h.07c.06-.15.13-.3.19-.46s.12-.14.2-.45c-.83-.19-1.19-.74-2-.92A1.65,1.65,0,0,0,110.8,135.14Z"/><path class="cls-1" d="M120.79,125.4h-.13c-.07.31-.13.62-.19.92h.58c0-.1,0-.2.07-.3h.13c.06-.31.13-.62.19-.92h-.58C120.84,125.2,120.81,125.3,120.79,125.4Z"/><path class="cls-1" d="M118.81,139h.1a3.18,3.18,0,0,0,.19-1.22,1.43,1.43,0,0,1-.62-.46h.23V137h.2v-.46h-.79c-.38-.44-.89-.66-1.22-1.12a.9.9,0,0,0,.83-.55h0a1.3,1.3,0,0,0,.22-.31h-.2c-.31-.41-.93-.34-1.75-.31-.3.36-.53.42-.69.8a1.35,1.35,0,0,0-.29.58c.78.67.84,1.36,1.92,1.82a.67.67,0,0,0-.06.12,1.42,1.42,0,0,0-.3,1.12,4.36,4.36,0,0,0,2.15.61A2.81,2.81,0,0,0,118.81,139Z"/><path class="cls-1" d="M102.51,130.9a1,1,0,0,0,.19-.29h0a2,2,0,0,0,.38-1.22h.4v-.31h.2v-.46h-.78a3.86,3.86,0,0,0-.52-1s.05-.09.08-.21.15-.11.17-.21h.66v-.31h.19v-.61h-1v.31h-.19v.21a1.92,1.92,0,0,0-1.24.94,1.37,1.37,0,0,0-.33.83l.2.16h.58v.15h-.39v.3H101v.31c-.13.15,0,.47,0,.65-.34.23-.72.24-.92.74a1,1,0,0,0-.24.44,3.38,3.38,0,0,0,.78.16C101.29,131.06,102.09,131.4,102.51,130.9Z"/><polygon class="cls-1" points="63.87 130.14 64.06 130.14 64.06 129.53 63.47 129.53 63.47 129.83 63.28 129.83 63.28 130.44 63.87 130.44 63.87 130.14"/><rect class="cls-1" x="57.23" y="135.03" width="0.59" height="0.46"/><rect class="cls-1" x="158.13" y="171.38" width="0.19" height="0.3"/><path class="cls-1" d="M10,9.37V189.54H190V9.37ZM28.74,128.92c-.35-.1-.2,0-.4-.15h.4Zm-1.18-2.6a2.59,2.59,0,0,0,1.18-.61l2.14.31v.15c-1.43.06-1.27.61-2.34.91C28.24,126.7,27.9,126.64,27.56,126.32Zm1.76,1.22c-.34-.09-.19,0-.39-.15h.39Zm40.21,52.24h-.2v.16a4.23,4.23,0,0,1-.78-.31h1Zm7.41-50.86c-.56-.21-1.1-.41-1.75-.61a5.6,5.6,0,0,1-.78-2.29c.5-.26.64-.33.78-.92-.47-.27-.07-1.24,0-2.14l-.39-.15c-.75-.47-1.73-.2-2.93-.15a1.82,1.82,0,0,0-1.56-.92c-.44.31-.73.07-1.37.31-1.41.52-.93,1.07-3.51,1.07v.45h2.34A6.21,6.21,0,0,0,70.31,125c-.26.29-.25.13-.39.61a2.74,2.74,0,0,1,1.36.76h-.39l-.58.46a2.37,2.37,0,0,0-1.18-.3c.15.56.29.42.4,1.06l-.2.16h-.58c-.08.31,0,.29-.2.45-.46-.28-1-.2-1.56-.45-.18-.08-.26-.55-.39-.62-.45-.21-1.4,0-1.76-.15H65c.27-.13,1.09-.16,1.36-.3s.15-.26.2-.61a2.35,2.35,0,0,1-.59-.31c.5-.22.3-.07.39-.61a5.94,5.94,0,0,1-1.56-.15v.45a8.54,8.54,0,0,0-1.76,1.08c-.14.16-.11.14-.19.45.4.18.37.11.58.46a2.49,2.49,0,0,0-1.17.46h0a2.39,2.39,0,0,1-.78.15v-.15h.78v-.46a4.36,4.36,0,0,1-1.17.15v-.15c.15-.16.12-.14.2-.46h-.58v.46c-1.6,0-4,.88-4.1,2,.17.2.17.37.19.76a16.62,16.62,0,0,1,3.32.92,2,2,0,0,0,0,1.37h1c.07-.41.13-.81.2-1.22a3.07,3.07,0,0,0,2.14-3.06c-.34-.09-.18,0-.39-.15h.39v.15c.41-.05.38,0,.59-.15s.15-.28.59-.46V128a5.25,5.25,0,0,1,1.17,0,3,3,0,0,1,1.17.77c-.36.24-.27.13-.39.61a4.84,4.84,0,0,0,2.15-.46,18.07,18.07,0,0,0,.38,1.83c.4.57,1.25.18,1.57,1.38a1.61,1.61,0,0,0-.59,1.22c.79.24.94.19,1,1.07l-.2.15a12,12,0,0,0-2.34-.31v-.45c-1.48.05-1.61.12-2.73.15v.46a2.48,2.48,0,0,0,1.75.46l.2-.16V135h-.39a13.84,13.84,0,0,1-2.54,1.07v-.61a13.52,13.52,0,0,0-2.34.61,1.89,1.89,0,0,0-.2.76c.16.16.08,0,.2.31-1.42-.3-3,1-3.52,1.83v.92l-1,.15a17.19,17.19,0,0,0-2.54,1.68c.07.87.13,1.73.2,2.6l-.39.15-.2.15a7.15,7.15,0,0,0-.58-2.29c-1.06-.07-1.45-.29-2.73-.31v.62c-1.8-.15-3.38-.41-4.1.91a3.47,3.47,0,0,0-.2,3.82,5.2,5.2,0,0,0,2.35.15,10.2,10.2,0,0,0,.77-1.22l1.37-.15c-.19.94-.79,1.56-1,2.6,1.1.22,2.14-.28,2.33.91a2.62,2.62,0,0,0-.38,1.68,2.63,2.63,0,0,0,1.75.62c.73-.42.84,0,2,.15.47-1,1.42-1.2,2.53-1.68v.45c.47,0,.67-.4,1-.3.05,0,.26.56.39.61a6.73,6.73,0,0,0,2,.3c.16-.49-.1-.23.39-.45a2.69,2.69,0,0,0,1.17.15V152c.73.35,1.27,1.27,2,1.52.47.17,1-.15,1.18-.15s.7.26,1,.3c.71.83,1.31,1.13,1.17,2.3,1.42.54,7.07,2.09,7.42,3,.36.46.09,1.11-.2,1.53s-1.28,1-1.56,1.52v2.14a10.36,10.36,0,0,1-1.17,2.3c-1.37.08-2.56.48-2.93,1.37-.26.4.28.63,0,1.22a29.23,29.23,0,0,1-2.14,2.9,3.31,3.31,0,0,0-1.37.16c.61.62.4.85.19,1.53l-1.75.3c-.1,1.37-1.12,2.13-1.37,3.52l1,.15v.45a2.2,2.2,0,0,0-.78,1.53c.85.41,1.14,1,2.14,1.38v.15l-1.17.15c-.92-.55-2.34-.53-2.54-1.68H62.5a8.58,8.58,0,0,0-1.37-2.13c-.09-.11.71-1.07.39-1.53l-.58-.16c-.92-1.5-.4-4.86-.78-6.26-.45-1.62.64-4.05-.39-5.19-.69-.62-2.16-.87-2.73-1.53-.82-.93-.88-2-1.57-3.06-.41-.61-1-.58-1.17-1.52,0-.53.26-.21.39-.46.27-.5-.68-1.09,0-2,0,0,1.37-1.07,1.37-1.07.51-.82-.29-2-.39-2.59h-1a1.46,1.46,0,0,1-.19.61A23.61,23.61,0,0,1,52,151.37c-.39-.52,0-1.05-.59-1.37l-2.14-.46c-.32-.18-.4-.79-.78-.92l-2,.16c-.83-.25-3.1-1.38-3.32-2.14.58-.7-1.74-3.59-2.73-3.67a17.36,17.36,0,0,0,.59,2.14c.22.26.35.16,0,.3v-.3h-.19l-.2-.15a5.53,5.53,0,0,0-1.17-1.68c.68-.36-.38-2.1-.58-2.91a3,3,0,0,0-.79.16v-.77c-1.82-2.26,1.86-4,2.15-5.65.1-.57-.53-.58-.59-.91s.63-.77.4-1.53-.74-1.59-1-2.6h-.39c-1.59-.84-4,0-5.86,0,0,.47.15.42,0,.61-.61.43-1.26.21-2.34.15v-.61a2.92,2.92,0,0,0-.78.16c-.06-.36-.13-.71-.19-1.07a25.64,25.64,0,0,1,3.7-.92v-.46a6.37,6.37,0,0,1-1.36,0c-.16-.15-.07,0-.2-.3l.2-.15a8.19,8.19,0,0,1,2.53,0c-.06-.36-.13-.72-.19-1.08h.39c2.74-1.38,7.41-.73,9.95-.15,1.23.28,2.69-.43,3.71-.46s2.68.41,4.29.46V125c.23-.28.07-.47.2-.62a1.71,1.71,0,0,0-.78-.15,1.92,1.92,0,0,1-1,.15l-.2-.3c1.37-.29,1.68-.76,3.71-.76,1.3,1,3.58.1,3.9.3h.2v.15c-.72.11-.54,0-.78.46-.15.17-.12.15-.2.46l.78.15V125a13.73,13.73,0,0,1-1.75.3v.46a8.54,8.54,0,0,0,3.51-1.07v-.15a2.06,2.06,0,0,1-1-.61,11.24,11.24,0,0,1,3.32-.46V123a14.51,14.51,0,0,1-2.34-.15v-.31c.16-.15.07,0,.19-.3a13.53,13.53,0,0,0,3.32.76v-.46h-.78c0-.6,0-.47-1.17-.45-.15-.11-.44-.2-.59-.31h.2a1.92,1.92,0,0,1,1-.15c.56.39,1.57,0,1.57,0,.32.27.34.38.38.91h1c-.07-.67-.25-.62-.39-1.22h.39c1-.67,3-.35,4.49-.61a20.33,20.33,0,0,1,5.66-.15,3.28,3.28,0,0,0,1.56.3c2.74-.37,11-.86,13.08.15-1.06,0-1.45.32-1.76.92a1.79,1.79,0,0,0-.19,1.07,9.18,9.18,0,0,1-1.57.61v1.07C82.53,125.89,79,126.08,76.94,128.92ZM60.75,147.4v.15c-1.09.09-1.69.46-2.54,0,.49-.22.21,0,.39-.45.66,0,.84-.14,1.17,0C60.28,147.21,60.24,147.28,60.75,147.4Zm-4.1-.46v-.46a7.58,7.58,0,0,1-1.18-.61c-.68-.3-1.57,0-1.95-.15h.2a4.4,4.4,0,0,1,1.75-.15,7.34,7.34,0,0,0,2.35,1.07l-.2.15A2,2,0,0,1,56.65,146.94Zm.19.92c-.52.14-.65-.09-.39-.31Zm-18-16.5h.38l-.19.16v.15C38.92,131.51,39,131.63,38.89,131.36ZM59.77,123H57.23c-.52.42-2.27,0-2.93-.46l2.54-.3a5.37,5.37,0,0,0,1.37.3c.07-.31,0-.29.19-.45a2.7,2.7,0,0,1,1-.31v.15c-.35.24-.27.14-.39.61A3.81,3.81,0,0,1,59.77,123Zm31.62,6.72,1.56-.15c.09.29.34.33.39.46s-.13.51-.2.76c.38.78,1.42.82,1.56,2a3.73,3.73,0,0,1-1.17.3,1.49,1.49,0,0,0-1.17,0c-.11-.82-.19-.47-.19-1.22.4-.06.37,0,.58-.15H93v-.46l-1.17.15c-.14.31-.27.61-.39.92l-1.37.15v-.15c.23-.28.09-.64.2-.76.44-.35,1.06-.45,1.36-.92S91.59,130.11,91.39,129.68Zm-5.86-3.36a9.55,9.55,0,0,0,3.12,0c.13.27,0,.15.2.31v.3C87.72,127.22,84.6,127.89,85.53,126.32Zm31,41.25-1,.15a1.67,1.67,0,0,1-.39-1.22c-.25-.5.43-.71.58-1.23s-.14-1.14,0-1.68a2.92,2.92,0,0,0,2.34-1.83C119.24,162.71,117.27,166.44,116.56,167.57Zm17.57-14.36c-.34-.1-.19,0-.39-.16-.4-.44-.27-.66-.2-1.22a1.34,1.34,0,0,1,.78,1.22Zm9,2c-.41-.55-1.33-.9-1.76-1.53h.78a3.89,3.89,0,0,0,2.34,1.53c-.23-.84-.73-1.15-.78-2.29h-.2c-.31-.35-.28-.36-1-.46.13-1.42.17-3-.78-4-.21-.11-.18-.09-.59-.15-.32.34-.33.46-.78.3-.71-.93-.93-2.72-2.53-2.9-.45.39-1,.13-1.56.46v.15c-.58.52-1,1.18-1.57,1.68-.33.28-1.35.61-1.56.92v.61c.39.47,0,1.37,0,2.14-.58.2-.62.46-1,.46a13.35,13.35,0,0,1-2.74-5.81c-.66,0-.84.14-1.17,0-1.19-.57-1.21-1.82-2.92-2-1.08.56-3.34-.16-4.3-.31v.77c.78.32,1.56.55,1.76,1.37-.31.3-.26.74-.59,1.07a23,23,0,0,1-4.88,2.59c-.44-.79-.65-.06-1.56-.45-.41-.18.18-.32-.78-.46l-.78-1.83c-.3-.34-1.13-.52-1.37-.92-.06-.41-.13-.81-.19-1.22l-.59-.15c-.27-.34-.36-1.2-.78-1.38h-1c.17,1.16,1,1.68,1.56,2.44l.39,1.68h.39c.29.33.11.71.39,1.07a36.12,36.12,0,0,0,2.73,2.45c.7.34,3.07-.37,3.13-.31a1.72,1.72,0,0,1,.19,1.07c-.72.61-.75,1.57-1.37,2.29-1.12,1.32-3.36,2.17-4.09,3.82-.46,1,.38,3.83.38,4.89,0,.91-2.76,1.43-3.12,2.75.56.61.21,1.19,0,1.83-1.85.64-.55.52-1.37,1.68-1.25,1.8-3.63,2.9-6.83,2.75a4,4,0,0,0-.58-2.6l-.78-.61c-.06-.81-.13-1.63-.2-2.44-.27-.57-1.18-1.36-1.36-2-.42-1.37,1.5-2,1.17-3.36a9,9,0,0,0-1-2.9c-.29-.41-1.19-.68-1.36-1.22l.39-2.29c-.69-.13-.39-.31-.78-.46l-1.17.15c-.13-.3-.26-.61-.4-.91h-2c-1,.62-2.92.6-4.48.76l-2.55-1.68v-.61l-1.55-1.22c-.28-.48-.18-.9-.39-1.22,1.13-.83,0-2.26.39-3.37a16,16,0,0,1,1.95-2.59c.38-.26,1.05-.17,1.37-.46s.1-1.42.58-1.84c.84-.73,1.29-.21,1.56-1.67-.16-.16-.07-.05-.19-.31H90.22c-.09-1.14,0-1.56,0-2.75h.38c.62-.31,1.91,0,2.93,0a4,4,0,0,0,.2-1.53,6.64,6.64,0,0,1-1.56-.76h.39c.85-.49,3-.91,3.51-1.68.14-.17.12-.14.19-.46l1.57-.15a14.05,14.05,0,0,1-.2-1.53c.35-.1.19,0,.39-.15a3.3,3.3,0,0,1,1,.46v-.77a2.75,2.75,0,0,0-1.37-.3c-.44.38-.47.25-1.17.15v-.31a2,2,0,0,1-.2-1.22,6.15,6.15,0,0,0,3.32-2c.29-.47-.33-.35,0-.62,2.91-1.84,6.48-.2,9.57.46v.46H107v.46c.34.1.19,0,.39.15,1.35-.15,1.76-.51,3.12-.61a1.94,1.94,0,0,0-.39-.92h.39c.28.32.3.21.39.77.93-.1.93-.41,1.57-.61a10.37,10.37,0,0,1,2.92-.16V125l2.54.3a3.47,3.47,0,0,1,.19-1.68h.2v.15c.58.25.65.48,1.36.61.47-.37.62-.07,1.37-.3.15,0,.32-.43.39-.46h1.17c.06-.15.13-.3.2-.45.65-.4,1.33-.21,2.14-.77.31-.21.17.28.2.31a4.83,4.83,0,0,0,1.56-.16h.2c-.08-.31,0-.29-.2-.45-1.17-.58-3.48-.22-4.49-.92a24.73,24.73,0,0,1,4.88.61,8.09,8.09,0,0,0,1.56.76c.93.24,2-.16,2.74.16.36.16.56.76,1,.91,1.52.55,3.77-.34,5.26,0,.55.13.79.56,1.17.76.72.38,2.36,0,3.51,0v-.76c-.4-.06-.37,0-.58-.15.4.06.38,0,.58.15h.4c.8.68,1.81.09,3.12.46.27.08,1.25.54,1.56.61l2.34-.15c.88.18,2.1.51,2.93.61l4.69-.15c2.48.49,3.47,2.29,5.46,2.75v.15c-1.46.06-1.09.52-1.95.92a2.69,2.69,0,0,0-1.18-.16c-.19.41-.25.26-.39.77.69.56,2.56,2.27,1.37,3.66-.31-1.61-2.7-1.59-3.12-3.21a2.53,2.53,0,0,0,.39-1.68c-.67,0-.91.37-1.37.31a3.68,3.68,0,0,0-1.36-.31l-.2.16c0,.48.09.79,0,.91v.16c-1-.26-3.4-.54-4.29,0a3.1,3.1,0,0,0-.59,1.83,9.6,9.6,0,0,1,2.35.46c.79.19.7-.39,1-.15a9.49,9.49,0,0,1,2.73,2.29L156,134l-.4-.15c-.26-.39-.43-.4-.58-.92h-.59c.23,1.09.74,2.47-.19,3.36-.49.23-1,.06-1.37.46a3.2,3.2,0,0,0-.58,1.53c1.05.24,1.3.84,1.95,1.37v.31l-1.17.3c0-1-1.18-2-1.95-2.29s-.87,0-1.37.15c-.26-.32-.32-.28-1-.3a1.34,1.34,0,0,0-.39.92l.19.15a4.53,4.53,0,0,1,2.15.3c-.78.13-.86.29-1,.92,2.23,1.39,2,1.88,1.76,4.28-1.19.77-1.94,1.6-3.91,1.83,0,.54.27.87.2.92a4.43,4.43,0,0,1-.2.45c-.34-.09-.19,0-.39-.15l-.19-.15c.39-.27.36-.33.39-.92a5.47,5.47,0,0,0-1.37-.15c-.06.15-.13.3-.19.46-.32.27-.34.38-.39.91,1.17.85,2.27,1.77,2.14,3.21A3.28,3.28,0,0,0,146,152h-.19v-.62h-.58a2.18,2.18,0,0,0-2.15-1.22,4.53,4.53,0,0,0,.58,2.75h.39v.15c1,.53,1.06,1.39,1.56,2.29h-.58c.14.74.46.75.58,1.53h.78c.18.34.17.22.39.46-.4.28-.46.88-.58,1.38h-.39v-.16C144.26,157.72,144.09,156.51,143.11,155.19ZM97.43,121.74l.2-.15c.41-.2,1.55-.11,2-.31h2.54v.15c-.83.4.23.54-1.17.62-.82-.37-1.23.26-1.76.15Zm10.93-.61a1.61,1.61,0,0,1,.79.15A1.63,1.63,0,0,1,108.36,121.13Zm5.66,3.51h-.78c-.33-.24-.84-.36-1.17-.61a1.44,1.44,0,0,0,.59-1.07c.78-.11,1.73-.56,2.54-.15-.94.07-1.49.31-1.76.91-.15.17-.11.15-.2.46A3.28,3.28,0,0,1,114,124.64Zm-.78-3.51c-.89.1-1.72.29-2.34-.16.41,0,.38,0,.59-.15a1.44,1.44,0,0,0,1,.31c.33-.2.31-.26.58-.16h.19Zm2,1.53v-.16c.34-.09.19,0,.39-.15h.78v.31Zm24,0a6.29,6.29,0,0,1,2.74.3h-1.37A2.15,2.15,0,0,1,139.2,122.66Zm27.91,37.11c.29.67.79.57,1.17,1.07h-.58c-.21-.13-.49,0-.78-.15-1-.44-.32-1-2.15-1.07l-.19.15v.46a5.05,5.05,0,0,1-2.35-.61,1.58,1.58,0,0,0,.2-1.07,4.77,4.77,0,0,0-2.74-.61c-.1-.79-.46-1-.77-1.53.59,0,.53-.11.77,0h.39c.27.68.2,1.06,1.18,1.23l.19-.16V157c1.64-.1,4.92,1,5.66,2A.51.51,0,0,0,167.11,159.77Zm.59-.91v-.15c.4-.06.37,0,.58-.16.41.06.38,0,.59.16h-.19A2.25,2.25,0,0,1,167.7,158.86Zm-9.18-1.22c-1,0-1.72.13-2-.16A5,5,0,0,1,158.52,157.64Zm-1.16-2.6a1,1,0,0,1-.2,1.37A3.1,3.1,0,0,1,157.36,155ZM156,141v.77h-.2v-.15a1.6,1.6,0,0,1-.78-1.07c1-.31.74-.74,2.35-.77v-.61c.4-.05.37,0,.58-.15a1.92,1.92,0,0,0,.19-1.22,2.74,2.74,0,0,1-1.17-2.29h.2c.69.48,1.73.21,2,.76-.45.25-.29.33-1,.46.11,1.07,1.63,2.34,1.17,3.21A11,11,0,0,1,156,141Zm-1,15.43v.31h-.78c.05.95.43,1,.58,1.83h-.58v-.76l-.19-.15h-.59v.91h-.39v-.3a19.85,19.85,0,0,1,.58-2.6,10.35,10.35,0,0,1,2,0v.15h-.19c-.3.11-1.08-.08-1.56.16-.16.17-.15.25-.2.61Zm-1.37,3.52v.15c-.34-.1-.18,0-.38-.15Zm2,.15c.41.06.38,0,.59.15h-.39l-.2.16Zm0-6.72v-.15c-.16-.15-.2-.48-.38-.62h-.59a3.54,3.54,0,0,0-.2-1.37c-1-1.37-1.59-1.69-1.56-3.67h.2c.21.12.19.1.58.16a4.6,4.6,0,0,1-.19,1.53,5.67,5.67,0,0,1,.8.45h.56v.4a3.9,3.9,0,0,1,1.57,3A3,3,0,0,1,155.59,153.36Zm.59,6.26c.5.22.22,0,.39.46h-.39Zm.2-25.05.58.15v.16C156.5,134.75,156.64,134.81,156.38,134.57Zm-3.71,21.08a2.3,2.3,0,0,0-1.17,2.14,7.09,7.09,0,0,1-2.73-.46,4.37,4.37,0,0,1-.78-1.83,4.54,4.54,0,0,1,1.16-.16c.08-.31,0-.29.2-.45a9,9,0,0,0,2.34-1.84l.2.16c.49.22.61.22.78.76A.93.93,0,0,0,152.67,155.65Zm0,4.43c-.61,0-.78.09-1,0s-.19,0-.39-.15A3.17,3.17,0,0,1,152.67,160.08Zm-.19-14.51c-.2-.12-.06-.06-.39-.16V145c.15-.16.06-.05.19-.31h.39v.92Zm-6.25,13.29h1c.75.55,1.83.46,3.12.46v.45c.41.06.38,0,.59.16h-.19v.15C149.3,159.75,146.82,159.84,146.23,158.86Zm14.64,16.34a3.1,3.1,0,0,1-1.37.77v-.46c.15-.19.15-.26.19-.61.71.07,1.09,0,1.37.3Zm2.14-1.83c-1.49.11-3.63,1.07-4.29-.31.15-.18.15-.25.2-.61a4.35,4.35,0,0,0-1.18.15c-.28-1.37-.7-2.19-2.93-2.13a35.26,35.26,0,0,1-6.24,1.52c-.43-.13-.28-.13-.58-.3,1.48-1.5,0-1.92.58-3.82.2-.56.39-1.12.58-1.68.43-.08,3.57-.89,3.91-1.07s.3-.72.58-1.07c0,0,2.58-1.49,2.74-1.53.32.45.28.43,1.17.46a5.61,5.61,0,0,1,1-1.68v.46a13.24,13.24,0,0,1,2.54-.15c-.14.79-.49.82-.58,1.68a3.86,3.86,0,0,0,1.75.46v.45h.59c.32-.89.85-2.11,1.17-3h.19c.06,1.47.6,1.19,1,1.83v1.83c.12.19.83.29,1,.46a17.3,17.3,0,0,1,1.37,2.76c-.63.77-.55,1.73-1.18,2.44C165.38,171.54,163.84,172.1,163,173.37Zm4.5,4v-.15h.19c.82-.88,2.32-.92,3.51-1.53a8.24,8.24,0,0,0,1.56-1.37v.61c.41,0,.38,0,.59.15C171,175.41,170.2,177.24,167.51,177.34Zm1.55-19.24h.39a1.25,1.25,0,0,0-.19.15v.15C169.1,158.24,169.19,158.36,169.06,158.1Zm6.84,15.58h-.2a7.52,7.52,0,0,1-2.15,1.22v-.15c.17-.2,0-.57,0-.62.26-.31,1-.34,1.17-.76s0-.93.2-1.22v.15h.19c-.17.46-.06.6,0,1.22h.79ZM182.15,92l-80.33,18-84-18V16.85h164.3Z"/><rect class="cls-1" x="157.94" y="171.69" width="0.19" height="0.31"/><polygon class="cls-1" points="60.35 125.56 60.16 125.56 60.16 126.02 60.75 126.02 60.75 125.71 60.94 125.71 60.94 125.25 60.35 125.25 60.35 125.56"/><path class="cls-1" d="M55.94,134h-.27c.06.25.13.51.19.76h.2V135h-.2v.46h.59v-.31h.2v-.46h.19a2.27,2.27,0,0,0,.13-.3H57a1.91,1.91,0,0,0,.19-.61l-.19-.16H55.86A2.86,2.86,0,0,1,55.94,134Z"/></svg>