<svg id="Layer_1" data-name="Layer 1" xmlns="http://www.w3.org/2000/svg" viewBox="0 0 200 200"><defs><style>.cls-1{fill:#126837;}</style></defs><path class="cls-1" d="M150.65,100.69h-.09v.18a.71.71,0,0,0-.09.45h.38v-.19h.09V101a.69.69,0,0,0,.09-.44h-.38Z"/><path class="cls-1" d="M154.58,92.61h-.48v.19H154v.53a1.47,1.47,0,0,1,.87,1h.66a.93.93,0,0,0,.15-.27.4.4,0,0,0,.1-.18h0l0,0a.47.47,0,0,0,0-.14h.09l-.09-.09C155.27,93.2,154.88,93.26,154.58,92.61Z"/><path class="cls-1" d="M150.46,90.93c-.22.18-1,0-1.44.18-.15-.42-.41-.46-.49-1a2.43,2.43,0,0,0-.66,0v.26l.38.17a1.93,1.93,0,0,1-.49.45c-.26-.44-.51-1-1.24-1,0,.19,0,.17-.09.27a.83.83,0,0,1-.49.61c-.17-.16-.26-.13-.38-.35.45.1.67,0,.67-.54a2.63,2.63,0,0,1-.95-.63h-.48c0,.26.07.54.1.8l-.1.09h-.19v-.89a1.48,1.48,0,0,0,.38-.18c-.22-.18-.15-.22-.58-.26-.29.3-.59.22-1.06.26v.35c-.1.19-.44.13-.57.26s-.07.84-.47,1.06-.37-.23-.67.19c-.08.09,0,.08-.09.26,1.07,0,.72-.12,1.44-.35l2.1-.19a2.08,2.08,0,0,1,.09.71c-.06.09-.05.09-.09.26.87.22,1.22.75,2.2.8V92.2c.24-.13.22-.21.58-.27a2.59,2.59,0,0,0,1.82.54c.11,0,.07-.23.38-.18a1.43,1.43,0,0,0,.48.18.76.76,0,0,0,.09-.09,3.84,3.84,0,0,0,.2-1.51h-.38Z"/><path class="cls-1" d="M150.89,88.6s0,0,0-.07h0a.93.93,0,0,0,.09-.35l-.09-.09h-.38c-.1.14-.12.1-.17.26s-.06.06-.12.27l.12,0c-.17,0-.3.06-.4,0a3.58,3.58,0,0,1-.09-.35h-.58l-.08.18h0a4.16,4.16,0,0,0-.38,1.16l.29.09c.6.4.69-.26,1.44-.09a3.63,3.63,0,0,0,1.15.26l.06-.19h0c0-.09.06-.18.09-.26s.05-.08.09-.26c-.4-.1-.59-.43-.95-.54Z"/><path class="cls-1" d="M154.83,90.84h0a2.08,2.08,0,0,0,.09-.71.78.78,0,0,1-.3-.26h.12v-.19h.09v-.26h-.38c-.18-.26-.44-.38-.6-.65a.43.43,0,0,0,.4-.33h0a.7.7,0,0,0,.11-.18h-.1c-.15-.24-.45-.2-.86-.19-.14.21-.26.25-.34.46a1,1,0,0,0-.14.34c.38.4.4.79.94,1.06,0,0,0,0,0,.08a1,1,0,0,0-.14.64,1.85,1.85,0,0,0,1.06.36A.41.41,0,0,1,154.83,90.84Z"/><path class="cls-1" d="M147,90c0-.07,0-.13,0-.18h.13c0-.18-.07-.35-.09-.54-.47-.18-.72-.51-1.16-.61-.11-.07-.15-.07-.37-.09v.18h-.1V89c.42.27.68.76,1.25.89A.83.83,0,0,0,147,90Z"/><path class="cls-1" d="M146.82,86.14a.56.56,0,0,0,.09-.17h0a1.27,1.27,0,0,0,.18-.71h.2v-.17h.09v-.26H147a1.56,1.56,0,0,0-.26-.55s0,0,0-.13a.26.26,0,0,0,.09-.12h.33v-.18h.09v-.38h-.48v.18h-.09v.12a1,1,0,0,0-.61.55.83.83,0,0,0-.15.48s.06.07.09.09h.29V85h-.2v.18h-.09v.18c-.07.09,0,.28,0,.38-.17.13-.36.15-.45.43a.56.56,0,0,0-.11.27,1.24,1.24,0,0,0,.37.09C146.22,86.23,146.61,86.43,146.82,86.14Z"/><polygon class="cls-1" points="126.12 83.04 126.03 83.04 126.03 83.3 126.31 83.3 126.31 83.11 126.41 83.11 126.41 82.85 126.12 82.85 126.12 83.04"/><path class="cls-1" d="M131.88,80.54h-.1v.26c.29,0,.58-.06.87-.09v-.17h.09v-.26c-.29,0-.58.06-.86.09Z"/><path class="cls-1" d="M124,87.92h-.13l.09.44H124v.19h-.09v.26h.29v-.17h.09v-.26h.09c0-.08,0-.12.07-.19h0a1.09,1.09,0,0,0,.09-.35l-.09-.09h-.58S124,87.86,124,87.92Z"/><polygon class="cls-1" points="127.85 85.69 127.94 85.69 127.94 85.34 127.65 85.34 127.65 85.51 127.56 85.51 127.56 85.88 127.85 85.88 127.85 85.69"/><rect class="cls-1" x="124.59" y="88.53" width="0.29" height="0.26"/><polygon class="cls-1" points="148.16 84.89 148.26 84.89 148.26 84.63 147.78 84.63 147.78 84.8 147.68 84.8 147.68 85.08 148.16 85.08 148.16 84.89"/><rect class="cls-1" x="174.13" y="109.65" width="0.09" height="0.17"/><rect class="cls-1" x="174.02" y="109.84" width="0.09" height="0.18"/><path class="cls-1" d="M155.8,82.94h-.07c0,.19-.06.36-.09.54h.29a1,1,0,0,1,0-.17H156a4.68,4.68,0,0,0,.09-.54h-.28A.35.35,0,0,0,155.8,82.94Z"/><path class="cls-1" d="M100,73H10v47.3H190.08V73Zm79.65,28.93s-.07,0-.09.09v.09c-.08-.09,0,0-.09-.17h.18Zm-.86.35c.19,0,.18,0,.28-.09s.19,0,.29.09h-.09a1,1,0,0,1-.48.1Zm-.29.19a.31.31,0,0,0,0,.44c.14.4.38.33.57.62h-.28c-.11-.08-.24,0-.38-.09-.47-.27-.16-.61-1.06-.62a.75.75,0,0,0-.09.09v.26a2.18,2.18,0,0,1-1.16-.35,1,1,0,0,0,.1-.63,2,2,0,0,0-1.35-.35c0-.46-.24-.58-.38-.89.29,0,.26-.07.38,0h.19c.14.39.1.62.58.71l.09-.09v-.27A4.29,4.29,0,0,1,178.54,102.47Zm-4.23-.8c-.48,0-.85.08-.95-.09A2.1,2.1,0,0,1,174.31,101.67Zm-.56-1.5a.69.69,0,0,1-.09.79A1.87,1.87,0,0,1,173.75,100.17ZM173.07,92v.44H173v-.09a.85.85,0,0,1-.38-.61c.5-.19.36-.43,1.15-.45v-.36a.65.65,0,0,0,.29-.09,1.4,1.4,0,0,0,.09-.71,1.72,1.72,0,0,1-.58-1.34h.09c.35.28.86.12,1,.45-.22.14-.14.2-.48.26,0,.62.79,1.36.57,1.86A4.62,4.62,0,0,1,173.07,92Zm-.47,9v.19h-.38c0,.55.21.59.29,1.06h-.29v-.45l-.09-.09h-.29v.54h-.2V102a12.31,12.31,0,0,1,.29-1.5,5,5,0,0,1,1,0v.09h-.1c-.14.07-.53,0-.77.09-.08.11-.08.15-.09.35Zm-.68,2v.1c-.17-.06-.09,0-.2-.1Zm1,.08a.6.6,0,0,1,.28.09H173l-.09.1Zm0-3.9v-.09c-.08-.08-.11-.27-.2-.35h-.29a2.63,2.63,0,0,0-.09-.8,2.91,2.91,0,0,1-.76-2.13h.09a.65.65,0,0,0,.29.09,3.74,3.74,0,0,1-.09.89c.14.08.26.17.39.26h.28v.24a2.45,2.45,0,0,1,.77,1.72A1.76,1.76,0,0,1,172.89,99.18Zm.28,3.64c.25.13.11,0,.2.26h-.2Zm.1-14.55.28.09v.09C173.32,88.38,173.4,88.41,173.27,88.27Zm-7.1-6.75h-.66a.85.85,0,0,1-.67-.18A2.69,2.69,0,0,1,166.17,81.52Zm-13.12-.26c.17-.06.09,0,.19-.09h.38v.18h-.57Zm0,.18c-.46,0-.73.18-.87.52-.07.1-.05.1-.09.27a1.16,1.16,0,0,1,.38.26h-.38c-.17-.15-.42-.21-.57-.36a1,1,0,0,0,.29-.61C152.18,81.45,152.66,81.19,153.05,81.44Zm-1.82-1.16a.65.65,0,0,0,.48.18c.17-.12.16-.16.29-.09h.09v.09c-.44.06-.85.17-1.15-.09A.52.52,0,0,0,151.23,80.28Zm-1.15.27c-.22,0-.28,0-.38-.09C149.92,80.47,150,80.47,150.08,80.55Zm-5.65.17c.19-.12.75-.07.95-.18h1.24v.09c-.4.22.12.31-.57.35-.41-.21-.6.16-.87.09l-.86-.26A.87.87,0,0,0,144.43,80.72Zm-3,5.23c.17-.26,0-.28-.1-.53.25,0,.51,0,.76-.09,0,.17.17.19.2.26a3.43,3.43,0,0,0-.09.44c.18.45.69.49.77,1.15a1.58,1.58,0,0,1-.58.19.61.61,0,0,0-.57,0,3.83,3.83,0,0,1-.09-.71.51.51,0,0,0,.28-.09h.1v-.26c-.2,0-.38.06-.58.09l-.2.54c-.22,0-.44.06-.66.09v-.09c.1-.16.05-.37.09-.45C141,86.29,141.31,86.24,141.46,86ZM124.4,81.07a3,3,0,0,0,.67.19c0-.19,0-.17.09-.26a1.25,1.25,0,0,1,.47-.19v.09c-.17.15-.13.08-.19.36a1.7,1.7,0,0,1,.38.26h-1.25c-.24.23-1.11,0-1.43-.26ZM96.11,116.38H13.93V76.93H96.11l10.47,19.73ZM110,83.47a1.25,1.25,0,0,0,.58-.36l1.05.19v.09c-.71,0-.63.35-1.15.54C110.36,83.69,110.19,83.66,110,83.47ZM110.6,85c-.17-.06-.09,0-.2-.1h.2Zm.29-.8c-.17,0-.09,0-.2-.09h.2Zm19.73,30.34h-.09v.09a1.48,1.48,0,0,1-.38-.18h.48v.09ZM134.27,85c-.27-.12-.54-.24-.86-.36A3.46,3.46,0,0,1,133,83.3a.61.61,0,0,0,.38-.54c-.24-.16,0-.72,0-1.24a1.76,1.76,0,0,0-.2-.09c-.37-.28-.85-.12-1.44-.09-.19-.28-.29-.49-.76-.54-.22.18-.35,0-.66.18-.7.3-.46.63-1.73.62v.26h1.15a3.1,3.1,0,0,0,1.24.8c-.13.17-.11.08-.19.35a1.25,1.25,0,0,1,.66.45h-.18l-.29.26a1.12,1.12,0,0,0-.57-.19c.08.33.14.25.19.62l-.09.09h-.29c0,.18,0,.17-.09.26-.22-.16-.48-.12-.76-.26-.09,0-.13-.31-.19-.35-.23-.13-.7,0-.87-.09h.1c.13-.08.53-.1.66-.19s.08-.14.09-.35a.84.84,0,0,1-.28-.18c.24-.14.14,0,.19-.36a2,2,0,0,1-.77-.09v.26c-.18.13-.75.43-.86.63s-.06.08-.09.26c.19.11.18.07.28.26-.39.06-.4.19-.57.27h0a1.93,1.93,0,0,1-.38.09v-.09h.38V84a2.82,2.82,0,0,1-.58.1V84c.08-.09,0-.07.09-.26h-.28V84c-.79,0-1.95.51-2,1.16a.74.74,0,0,1,.09.44,7,7,0,0,1,1.62.54,1.45,1.45,0,0,0,0,.8h.49c0-.24.06-.48.09-.71a1.79,1.79,0,0,0,1-1.78c-.17,0-.09,0-.2-.09h.2v.09a.6.6,0,0,0,.28-.09c.15-.15.08-.16.29-.26v.26a1.73,1.73,0,0,1,.58,0,1.46,1.46,0,0,1,.57.44c-.17.15-.13.08-.19.36a2.15,2.15,0,0,0,1.06-.27c0,.1.13,1,.18,1.06.2.33.62.11.77.8a1,1,0,0,0-.28.71c.37.14.45.12.48.61l-.09.1a5,5,0,0,0-1.15-.19v-.26c-.72,0-.79.08-1.34.09v.26a1,1,0,0,0,.87.27l.09-.1v.19h-.2a6,6,0,0,1-1.24.61v-.35a7.07,7.07,0,0,0-1.15.35,1.2,1.2,0,0,0-.1.45c.08.09,0,0,.1.18-.7-.17-1.48.56-1.73,1.06v.54c-.16,0-.32.06-.47.09a8.43,8.43,0,0,0-1.25,1c0,.5.07,1,.1,1.5l-.2.1-.09.09a5.52,5.52,0,0,0-.29-1.34c-.52,0-.71-.17-1.33-.18v.35c-.88-.09-1.67-.23-2,.54a2.31,2.31,0,0,0-.09,2.22,2.26,2.26,0,0,0,1.15.1c.13-.23.26-.45.38-.71.22,0,.44-.07.67-.09-.09.55-.38.9-.47,1.5.53.13,1.06-.16,1.15.54a1.7,1.7,0,0,0-.2,1c.33.2.3.33.86.35.36-.23.41,0,1,.09.24-.58.71-.69,1.24-1v.27c.24,0,.33-.24.49-.19s.13.33.19.36a2.9,2.9,0,0,0,1,.17c.08-.29-.05-.14.2-.27a1.1,1.1,0,0,0,.57.1v.44c.35.21.62.75,1,.89s.47-.09.57-.09.34.16.49.18c.35.47.64.66.57,1.34.7.31,3.47,1.21,3.64,1.78a.92.92,0,0,1-.09.89c-.17.3-.63.56-.77.89v1.24a6.68,6.68,0,0,1-.58,1.33c-.67.06-1.26.29-1.44.8-.13.24.13.37,0,.71a14.92,14.92,0,0,1-1.06,1.69,1.45,1.45,0,0,0-.67.09c.3.36.2.49.1.89l-.87.18c-.05.8-.55,1.24-.67,2l.49.09v.27a1.31,1.31,0,0,0-.38.89c.42.23.56.57,1.06.79v.09l-.58.1c-.45-.33-1.15-.32-1.24-1h-.29a5.37,5.37,0,0,0-.67-1.25c0-.06.34-.61.2-.89l-.29-.09c-.44-.88-.19-2.83-.38-3.64s.32-2.35-.19-3c-.34-.35-1.06-.51-1.34-.89a15.91,15.91,0,0,1-.77-1.78c-.2-.35-.5-.34-.58-.89,0-.3.14-.12.2-.26s-.34-.63,0-1.15c0,0,.67-.62.67-.62.25-.48-.15-1.19-.2-1.5h-.48a1.09,1.09,0,0,1-.09.35A11.77,11.77,0,0,1,122,98c-.19-.3,0-.61-.28-.8l-1-.26c-.16-.1-.2-.45-.38-.53l-1,.09c-.4-.15-1.51-.8-1.63-1.24.29-.41-.85-2.09-1.35-2.14a9.9,9.9,0,0,0,.29,1.25c.1.14.17.09,0,.17v-.17h-.09l-.09-.1a3.22,3.22,0,0,0-.58-1c.34-.21-.18-1.21-.29-1.69a1.09,1.09,0,0,0-.38.1v-.45c-.89-1.31.92-2.3,1.06-3.28,0-.34-.26-.34-.29-.54s.32-.44.2-.89a14.91,14.91,0,0,1-.48-1.5h-.2c-.77-.49-2,0-2.88,0,0,.27.08.24,0,.35-.3.25-.63.12-1.15.09v-.35a1.06,1.06,0,0,0-.38.09c0-.21-.07-.42-.09-.62a10.33,10.33,0,0,1,1.82-.53V83.8a3.46,3.46,0,0,1-.67,0c-.08-.1,0,0-.09-.19l.09-.09a3.65,3.65,0,0,1,1.24,0c0-.21-.06-.42-.09-.63h.2c1.35-.81,3.64-.42,4.88-.09.6.16,1.32-.25,1.82-.26s1.32.23,2.1.26v-.18c.11-.16,0-.28.1-.36a1,1,0,0,0-.38-.09.85.85,0,0,1-.47.09.77.77,0,0,1-.1-.18,4.9,4.9,0,0,1,1.82-.44c.64.61,1.77,0,1.93.18h.09v.09c-.36.07-.26,0-.38.26-.07.09-.05.08-.09.26l.38.1v.09a7.77,7.77,0,0,1-.87.18v.26a3.71,3.71,0,0,0,1.73-.61v-.09a1,1,0,0,1-.48-.36,4.57,4.57,0,0,1,1.63-.26v-.26a6.31,6.31,0,0,1-1.15-.09V81.2c.08-.09,0,0,.09-.18a6.2,6.2,0,0,0,1.64.45V81.2h-.38c0-.35,0-.27-.58-.26-.08-.06-.21-.11-.29-.18h.1a.85.85,0,0,1,.47-.09c.27.22.77,0,.77,0,.16.16.17.22.19.53h.49a3.39,3.39,0,0,0-.2-.7h.2c.48-.39,1.45-.2,2.2-.36a8.75,8.75,0,0,1,2.77-.09,1.39,1.39,0,0,0,.76.19c1.35-.21,5.42-.5,6.43.09-.53,0-.72.18-.87.53a1.33,1.33,0,0,0-.09.63c-.33.12-.39.28-.77.36v.61C137,83.22,135.29,83.34,134.27,85Zm-8,10.73v.09c-.54,0-.83.26-1.25,0,.24-.13.11,0,.2-.26.33,0,.42-.08.57,0S126.07,95.65,126.32,95.72Zm-2-.27v-.26a4.22,4.22,0,0,1-.58-.35c-.34-.17-.77,0-1-.09h.09a2,2,0,0,1,.86-.09,3.39,3.39,0,0,0,1.16.61l-.1.09A.87.87,0,0,1,124.3,95.45Zm.1.54c-.26.08-.32,0-.19-.18Zm-8.81-9.59h.19s-.06,0-.09.09v.09C115.6,86.49,115.64,86.56,115.59,86.4Zm22.89-2.93a4.17,4.17,0,0,0,1.54,0c.06.16,0,.09.09.18v.18C139.56,84,138,84.38,138.48,83.47Zm15.24,24-.49.09a1.1,1.1,0,0,1-.19-.7c-.12-.29.2-.41.28-.71s-.06-.67,0-1a1.53,1.53,0,0,0,1.15-1.06C155,104.61,154.07,106.79,153.72,107.44Zm8.62-8.35c-.17,0-.09,0-.18-.09-.2-.26-.13-.38-.1-.71a.77.77,0,0,1,.38.71A.41.41,0,0,1,162.34,99.09Zm4.41,1.15c-.2-.31-.66-.52-.86-.89h.37a2,2,0,0,0,1.16.89,4.3,4.3,0,0,1-.38-1.33H167c-.16-.21-.15-.21-.49-.26a3.34,3.34,0,0,0-.38-2.31c-.1-.06-.09,0-.29-.09-.15.2-.17.26-.38.19-.35-.54-.45-1.59-1.24-1.69-.22.22-.5.08-.77.26v.09c-.29.3-.47.68-.77,1s-.67.36-.77.54V97c.19.28,0,.8,0,1.25-.29.11-.31.27-.48.26A8.59,8.59,0,0,1,160,95.1c-.33,0-.42.08-.58,0-.59-.33-.59-1.06-1.44-1.15-.52.33-1.63-.09-2.11-.18v.44c.38.18.78.32.87.8-.16.17-.13.43-.29.63a10.74,10.74,0,0,1-2.39,1.5c-.23-.46-.32,0-.78-.26-.19-.1.09-.18-.38-.26-.13-.35-.26-.71-.38-1.06s-.55-.3-.66-.54-.07-.47-.09-.7l-.29-.1c-.13-.19-.19-.69-.38-.79h-.49c.08.68.5,1,.78,1.42l.19,1h.2c.14.19.05.42.19.62a16.57,16.57,0,0,0,1.35,1.41c.34.2,1.51-.21,1.53-.17a1.07,1.07,0,0,1,.1.62c-.36.35-.37.91-.67,1.33-.55.77-1.65,1.26-2,2.23-.22.59.19,2.22.19,2.84s-1.36.82-1.54,1.59c.28.36.11.7,0,1.08-.91.36-.27.3-.66,1a3.46,3.46,0,0,1-3.35,1.59,2.62,2.62,0,0,0-.29-1.5l-.38-.36-.09-1.41c-.13-.33-.58-.78-.67-1.15-.21-.8.73-1.18.58-2a6.09,6.09,0,0,0-.49-1.69c-.14-.23-.59-.39-.66-.7l.19-1.34c-.34-.08-.19-.18-.38-.26s-.38,0-.57.09l-.2-.54H143a5.19,5.19,0,0,1-2.2.45l-1.25-1v-.36l-.76-.7c-.14-.28-.07-.53-.19-.71.56-.48,0-1.31.19-2a10.08,10.08,0,0,1,1-1.5c.18-.15.51-.09.67-.26s.05-.83.29-1.06c.41-.42.62-.12.75-1-.07-.09,0,0-.09-.19h-.57c0-.65,0-.9,0-1.59H141c.3-.19.95,0,1.44,0a2.42,2.42,0,0,0,.09-.89,3.16,3.16,0,0,1-.77-.45h.2c.42-.29,1.49-.52,1.73-1,.06-.09,0-.08.09-.26.26,0,.51-.07.77-.09a5.89,5.89,0,0,1-.09-.89c.17-.05.09,0,.19-.09a1.73,1.73,0,0,1,.49.26v-.5a1.19,1.19,0,0,0-.67-.18c-.22.22-.23.14-.57.09v-.18a1.29,1.29,0,0,1-.1-.71,3,3,0,0,0,1.64-1.15c.14-.28-.17-.2,0-.36,1.43-1.07,3.18-.11,4.7.27v.26H149.1v.26c.17,0,.09,0,.19.09.67-.09.87-.3,1.53-.35a1.32,1.32,0,0,0-.19-.54h.19c.15.18.15.12.2.45.46-.06.46-.24.77-.36a4.17,4.17,0,0,1,1.44-.09v-.26c.42,0,.83.12,1.24.18a2.45,2.45,0,0,1,.1-1h.09V82c.29.15.31.28.67.36.23-.23.3,0,.66-.19.08,0,.16-.25.2-.26h.57c0-.09.07-.18.1-.26.31-.24.65-.12,1-.44.15-.12.08.15.09.18a2.29,2.29,0,0,0,.78-.09h.09c0-.19,0-.17-.09-.26-.58-.35-1.72-.14-2.2-.54a10.87,10.87,0,0,1,2.39.35,4,4,0,0,0,.76.45c.46.13,1-.09,1.35.09.18.09.27.44.48.53.75.32,1.86-.19,2.59,0,.28.08.4.33.58.45.35.22,1.15,0,1.73,0v-.45c-.2,0-.19,0-.29-.09a.65.65,0,0,1,.29.09h.19c.4.4.89.06,1.54.27.13,0,.61.31.77.35l1.15-.09c.43.1,1,.3,1.44.35.77,0,1.53-.06,2.3-.09,1.22.29,1.7,1.33,2.68,1.6v.09c-.72,0-.53.3-1,.53a1.05,1.05,0,0,0-.58-.09c-.09.24-.12.16-.19.45.34.32,1.25,1.32.66,2.13-.15-.93-1.32-.93-1.53-1.86a1.7,1.7,0,0,0,.2-1c-.33,0-.45.21-.67.18a1.54,1.54,0,0,0-.67-.18l-.09.09c0,.28.06.46,0,.54v.09a3.35,3.35,0,0,0-2.1,0,2,2,0,0,0-.29,1.06,4.28,4.28,0,0,1,1.15.26c.39.11.34-.22.47-.09a5.06,5.06,0,0,1,1.35,1.34.26.26,0,0,0-.09.09,1.76,1.76,0,0,0-.2-.09c-.13-.23-.21-.24-.29-.54h-.29c.12.63.37,1.44-.09,1.95-.23.13-.51,0-.66.26a2.13,2.13,0,0,0-.29.89c.51.14.64.48.95.8v.18l-.57.18a1.86,1.86,0,0,0-1-1.33c-.31-.18-.42,0-.66.09-.14-.18-.16-.16-.49-.17a.9.9,0,0,0-.2.54.41.41,0,0,1,.1.09,1.75,1.75,0,0,1,1,.18c-.38.08-.42.17-.48.54,1.1.81,1,1.09.86,2.49A3.67,3.67,0,0,1,169.05,95c0,.31.13.51.09.53a1.58,1.58,0,0,1-.09.26c-.17,0-.09,0-.19-.09l-.1-.09c.2-.16.19-.2.2-.54a2.78,2.78,0,0,0-.67-.09,1.58,1.58,0,0,1-.09.26c-.16.16-.17.23-.19.54a2.3,2.3,0,0,1,1.06,1.87,1.68,1.68,0,0,0-.78.71h-.09v-.35h-.29a1,1,0,0,0-1.06-.71,3.21,3.21,0,0,0,.29,1.6h.2V99c.5.3.52.81.76,1.33h-.29c.06.43.23.43.29.89h.38c.09.2.07.13.19.26-.19.16-.23.51-.29.8h-.19v-.09C167.31,101.72,167.23,101,166.75,100.24Zm4.7.28c-.4.18-.55.73-.58,1.24a3.15,3.15,0,0,1-1.35-.26,3.2,3.2,0,0,1-.38-1.06,2,2,0,0,1,.58-.09c0-.18,0-.17.09-.26A4.55,4.55,0,0,0,171,99a.41.41,0,0,1,.09.1c.25.13.3.13.38.44A.58.58,0,0,0,171.45,100.52Zm0,2.56c-.3,0-.38.06-.49,0s-.09,0-.19-.09A1.47,1.47,0,0,1,171.45,103.08Zm-.1-8.42c-.1-.07,0,0-.19-.1V94.3c.08-.09,0,0,.09-.18h.2v.54Zm-3.07,7.72h.48a2.31,2.31,0,0,0,1.54.26v.26a.51.51,0,0,1,.28.09h-.09v.09C169.78,102.9,168.57,103,168.28,102.38Zm7.18,9.5a1.48,1.48,0,0,1-.66.44v-.26a.59.59,0,0,0,.09-.35c.34,0,.53,0,.67.18h-.1Zm1.06-1.08c-.73.07-1.78.62-2.1-.18.08-.1.08-.14.1-.35a2,2,0,0,0-.57.09c-.14-.8-.34-1.27-1.44-1.24a16.7,16.7,0,0,1-3.07.89c-.2-.08-.14-.08-.28-.19.73-.87,0-1.11.28-2.22.1-.33.2-.66.29-1,.21,0,1.76-.53,1.91-.62s.15-.42.29-.61c0,0,1.26-.87,1.35-.89.16.26.13.24.57.26a3.36,3.36,0,0,1,.49-1V104a5.75,5.75,0,0,1,1.24-.09c-.06.45-.25.47-.29,1a1.76,1.76,0,0,0,.87.26v.26h.29c.15-.52.41-1.23.57-1.78h.09c0,.85.29.7.49,1.06v1.06c.05.11.4.17.48.26a9.82,9.82,0,0,1,.67,1.6c-.32.46-.28,1-.58,1.41C177.69,109.74,176.93,110.07,176.52,110.8Zm2.2,2.32V113h.09c.41-.51,1.14-.54,1.73-.89a4.86,4.86,0,0,0,.77-.8v.35c.2,0,.19,0,.29.09C180.44,112,180,113.05,178.72,113.12Zm4.12-2.13h-.09a3.38,3.38,0,0,1-1.06.7v-.09c.08-.12,0-.33,0-.35.13-.18.47-.2.58-.45s0-.53.09-.7v.09h.09c-.09.26,0,.35,0,.71h.38V111Z"/><path class="cls-1" d="M37.4,97.42a11.74,11.74,0,0,0-4.68-2.27,11.76,11.76,0,0,1-3-1.28,1.81,1.81,0,0,1-.87-1.56,2,2,0,0,1,.83-1.67A3.86,3.86,0,0,1,32,90a8.46,8.46,0,0,1,2,.23,5,5,0,0,1,1.43.54l.49,2.56h2.8V89.51a9.22,9.22,0,0,0-3-1.74,11.29,11.29,0,0,0-3.91-.65A8.08,8.08,0,0,0,27,88.6a4.43,4.43,0,0,0-1.92,3.7,4.29,4.29,0,0,0,1.7,3.61,15.21,15.21,0,0,0,5,2.28,7.77,7.77,0,0,1,2.67,1.23,2.14,2.14,0,0,1,.75,1.73,2,2,0,0,1-.79,1.67,3.74,3.74,0,0,1-2.35.63,7.55,7.55,0,0,1-2.15-.3,4.7,4.7,0,0,1-1.54-.76L28,99.73H25.14v3.89a8.44,8.44,0,0,0,3,1.95,10.85,10.85,0,0,0,4,.71,8.27,8.27,0,0,0,5-1.39A4.42,4.42,0,0,0,39,101.11,4.75,4.75,0,0,0,37.4,97.42Z"/><polygon class="cls-1" points="52.21 103.14 46.19 103.14 46.19 97.81 52.51 97.81 52.51 94.93 46.19 94.93 46.19 90.25 52.16 90.25 52.33 92.47 55.2 92.47 55.2 87.37 42.45 87.37 40.48 87.37 40.48 89.62 42.45 90 42.45 103.38 40.48 103.76 40.48 106.01 55.22 106.01 55.22 100.91 52.38 100.91 52.21 103.14"/><path class="cls-1" d="M66.27,99.41l2.67.21v3.16a4.15,4.15,0,0,1-1.1.45,7,7,0,0,1-1.82.19,4.58,4.58,0,0,1-3.85-1.7,7.11,7.11,0,0,1-1.33-4.54v-.67a7.6,7.6,0,0,1,1.36-4.72A4.49,4.49,0,0,1,66,90a6.59,6.59,0,0,1,1.92.27,3.72,3.72,0,0,1,1.35.69l.52,2.5h2.76V89.68a8.53,8.53,0,0,0-3-1.88,10.91,10.91,0,0,0-4-.69,7.74,7.74,0,0,0-6.1,2.63,9.75,9.75,0,0,0-2.34,6.79v.64a9.21,9.21,0,0,0,2.37,6.58,8,8,0,0,0,6.15,2.53,11.65,11.65,0,0,0,4.41-.72,8.26,8.26,0,0,0,2.65-1.63V96.78H66.28v2.63Z"/><polygon class="cls-1" points="85.54 103.14 80.27 103.14 80.27 90 82.27 89.62 82.27 87.37 80.27 87.37 76.54 87.37 74.55 87.37 74.55 89.62 76.54 90 76.54 103.38 74.55 103.76 74.55 106.01 88.58 106.01 88.58 100.79 85.71 100.79 85.54 103.14"/></svg>