<svg id="Layer_1" data-name="Layer 1" xmlns="http://www.w3.org/2000/svg" viewBox="0 0 200 200"><defs><style>.cls-1{fill:#126837;}</style></defs><path class="cls-1" d="M71.58,106.58a.37.37,0,0,0-.16,0v.45c.49,0,1-.11,1.48-.15v-.27l.15,0v-.44l-1.47.15Z"/><path class="cls-1" d="M97.46,122.69c0-.11,0-.22-.06-.31a.94.94,0,0,1,.22,0c0-.31-.11-.6-.16-.92-.8-.31-1.23-.87-2-1a1.3,1.3,0,0,0-.64-.15v.31a.5.5,0,0,1-.16,0V121c.72.47,1.16,1.3,2.13,1.53C97,122.67,97.08,122.65,97.46,122.69Z"/><path class="cls-1" d="M97.15,116.16a1.35,1.35,0,0,0,.16-.29h0a2.21,2.21,0,0,0,.31-1.21H98v-.29h.15v-.45h-.65A3,3,0,0,0,97,113s0-.09.06-.22a.43.43,0,0,0,.16-.2h.56v-.34H98v-.6h-.83v.31H97v.2a1.66,1.66,0,0,0-1,.94,1.47,1.47,0,0,0-.27.83.61.61,0,0,1,.16.16h.49v.15H96v.32h-.16v.31c-.11.16,0,.47,0,.65-.29.22-.6.24-.76.74a.86.86,0,0,0-.2.44,1.8,1.8,0,0,0,.65.16C96.12,116.32,96.79,116.65,97.15,116.16Z"/><polygon class="cls-1" points="99.43 114.03 99.61 114.03 99.61 113.59 98.78 113.59 98.78 113.9 98.63 113.9 98.63 114.35 99.43 114.35 99.43 114.03"/><path class="cls-1" d="M112.5,110.7h-.11c-.07.31-.11.6-.16.92h.49c0-.09,0-.2.07-.29h.11c.07-.32.11-.61.16-.92h-.49A.62.62,0,0,0,112.5,110.7Z"/><polygon class="cls-1" points="61.75 110.86 61.6 110.86 61.6 111.3 62.09 111.3 62.09 111.01 62.25 111.01 62.25 110.54 61.75 110.54 61.75 110.86"/><path class="cls-1" d="M110.82,124.21h.09a3.67,3.67,0,0,0,.16-1.2,1.24,1.24,0,0,1-.52-.45h.2v-.31h.16v-.45h-.67c-.31-.45-.76-.65-1-1.12a.75.75,0,0,0,.69-.56h0a1.41,1.41,0,0,0,.18-.31h-.16c-.26-.41-.78-.34-1.47-.32-.25.36-.45.43-.58.79a1.6,1.6,0,0,0-.25.58c.65.67.69,1.34,1.61,1.81a.33.33,0,0,0,0,.13,1.58,1.58,0,0,0-.25,1.1,3.2,3.2,0,0,0,1.81.6A.76.76,0,0,0,110.82,124.21Z"/><path class="cls-1" d="M103.37,124.37c-.38.31-1.68.07-2.46.31-.25-.71-.69-.78-.83-1.67a4.35,4.35,0,0,0-1.14,0v.44l.65.29a2.76,2.76,0,0,1-.83.76c-.45-.73-.87-1.65-2.12-1.67-.07.31,0,.29-.16.44a1.44,1.44,0,0,1-.83,1.06c-.29-.27-.45-.23-.65-.61.76.18,1.14.09,1.14-.92a4.49,4.49,0,0,1-1.63-1.07H93.7c0,.45.12.92.16,1.37l-.16.15h-.33v-1.52a3.25,3.25,0,0,0,.65-.31c-.38-.32-.25-.38-1-.45-.49.51-1,.38-1.81.45v.6c-.18.31-.76.23-1,.45-.43.45-.12,1.43-.81,1.81s-.63-.4-1.14.31c-.13.16-.09.14-.16.45,1.84,0,1.23-.2,2.46-.6,1.21-.11,2.4-.2,3.61-.32a3.8,3.8,0,0,1,.15,1.21c-.11.16-.09.16-.15.45,1.47.38,2.08,1.28,3.76,1.37v-.61c.4-.22.38-.36,1-.45a4.47,4.47,0,0,0,3.11.92c.2,0,.13-.4.65-.31.18,0,.34.27.83.31a.75.75,0,0,0,.15-.16,6.19,6.19,0,0,0,.34-2.57h-.65Z"/><path class="cls-1" d="M110.42,127.23h-.83v.32h-.16v.92a2.46,2.46,0,0,1,1.48,1.67h1.14a1.58,1.58,0,0,0,.25-.44,1,1,0,0,0,.18-.32h.06l-.06,0c0-.07,0-.16.06-.25h.16l-.16-.15C111.6,128.26,110.93,128.33,110.42,127.23Z"/><path class="cls-1" d="M104.11,120.37c0-.05,0-.07,0-.12h.07a1.83,1.83,0,0,0,.16-.6l-.16-.16h-.67c-.18.25-.2.18-.29.45-.09.11-.12.11-.2.47l.2.07c-.29,0-.52.09-.7-.07s-.11-.4-.15-.6h-1c0,.11-.09.2-.13.31h0a7.48,7.48,0,0,0-.65,2,3.49,3.49,0,0,1,.49.16c1,.69,1.18-.45,2.46-.16a6.1,6.1,0,0,0,2,.45l.11-.32h.05c.06-.15.11-.31.15-.44s.09-.14.16-.45c-.69-.18-1-.74-1.63-.92Z"/><path class="cls-1" d="M103.71,141.06h-.18v.32a1.17,1.17,0,0,0-.16.76H104v-.32h.16v-.31a1.24,1.24,0,0,0,.15-.76h-.65v.31Z"/><path class="cls-1" d="M58,119.2h-.22c0,.25.11.52.15.76h.16v.32H58v.44h.49v-.29h.16V120h.16c0-.14.09-.21.11-.32H59a1.53,1.53,0,0,0,.15-.6l-.15-.16H58A.62.62,0,0,1,58,119.2Z"/><path class="cls-1" d="M99.5,10.41A89.5,89.5,0,1,0,189,99.91,89.51,89.51,0,0,0,99.5,10.41Zm.69,62.1q0-8.06,4.5-13.09a15,15,0,0,1,11.73-5,21.37,21.37,0,0,1,7.69,1.34,16.77,16.77,0,0,1,5.8,3.63v7.2H124.6l-1-4.78a7.31,7.31,0,0,0-2.6-1.35,12.51,12.51,0,0,0-3.69-.51A8.66,8.66,0,0,0,110,63.38a14.69,14.69,0,0,0-2.61,9.08v1.28q0,5.46,2.55,8.72a8.83,8.83,0,0,0,7.38,3.27,13.56,13.56,0,0,0,3.51-.36,8.66,8.66,0,0,0,2.11-.85V78.43L117.8,78V73h12.33V86.76a15.84,15.84,0,0,1-5.1,3.11,22.4,22.4,0,0,1-8.46,1.39,15.46,15.46,0,0,1-11.81-4.86c-3-3.24-4.54-7.45-4.54-12.64V72.51Zm30.05,35.77H129.1A1.46,1.46,0,0,1,128,108,4.53,4.53,0,0,1,130.24,108.28Zm-21.45-.6V108h-1v-.15c.29-.09.16,0,.34-.16Zm-2,2.26h-.65c-.29-.25-.72-.36-1-.61a1.52,1.52,0,0,0,.5-1c.64-.11,1.45-.56,2.12-.15a1.49,1.49,0,0,0-1.48.89c-.13.16-.09.16-.15.45A7.68,7.68,0,0,1,106.82,109.94Zm-2.62-3.65a.79.79,0,0,0,.49-.15,1.13,1.13,0,0,0,.83.31c.29-.2.27-.27.49-.16h.16v.16C105.41,106.56,104.71,106.74,104.2,106.29Zm-1.48.31c-.38,0-.47,0-.65-.15A1.41,1.41,0,0,1,102.72,106.6ZM68.24,86.4l3.81-.74V60l-3.81-.74V54.87H96.52V64.7H91l-.31-4.28H79.25v9H91.38v5.52H79.25V85.17H90.82l.31-4.27h5.46v9.8H68.24Zm28.58,20.2v.16c-.7.38.2.54-1,.61-.69-.36-1,.26-1.48.15s-1-.31-1.47-.45l.15-.15c.34-.2,1.3-.11,1.64-.32Zm-8.69,10c-.11.31-.22.6-.33.92l-1.14.15v-.15c.18-.27.09-.63.15-.76.38-.34.9-.45,1.14-.92s0-.49-.15-.92c.42,0,.87-.09,1.3-.16.09.3.29.34.33.45s-.11.52-.16.76c.32.76,1.19.83,1.32,2a2.69,2.69,0,0,1-1,.31,1.09,1.09,0,0,0-1,0,6.11,6.11,0,0,1-.16-1.2.85.85,0,0,0,.49-.16h.16v-.45C88.78,116.52,88.47,116.56,88.13,116.63ZM42.4,57.25a15.41,15.41,0,0,1,9.26-2.85,21.69,21.69,0,0,1,7.52,1.26A17,17,0,0,1,64.89,59v7.34h-5.4l-.94-4.92a9.24,9.24,0,0,0-2.73-1A16.08,16.08,0,0,0,52,60a7.3,7.3,0,0,0-4.56,1.26,3.85,3.85,0,0,0-1.62,3.2,3.53,3.53,0,0,0,1.68,3,22.63,22.63,0,0,0,5.82,2.47,22.48,22.48,0,0,1,9,4.36,9.08,9.08,0,0,1,3.06,7.11,8.45,8.45,0,0,1-3.65,7.25c-2.41,1.77-5.61,2.67-9.6,2.67a20.9,20.9,0,0,1-7.69-1.35,15.91,15.91,0,0,1-5.73-3.73V78.66h5.55l.76,5.1A8.8,8.8,0,0,0,48,85.21a14,14,0,0,0,4.14.59,7.22,7.22,0,0,0,4.5-1.21,3.88,3.88,0,0,0,1.54-3.22,4.17,4.17,0,0,0-1.45-3.32,15.32,15.32,0,0,0-5.13-2.37,29,29,0,0,1-9.64-4.38,8.33,8.33,0,0,1-3.27-6.94A8.68,8.68,0,0,1,42.4,57.25Zm18.86,51H59.14c-.43.41-1.91,0-2.47-.44.72-.12,1.41-.21,2.13-.32a4.66,4.66,0,0,0,1.14.32c.07-.32.05-.3.16-.45a2.35,2.35,0,0,1,.8-.32v.16c-.29.25-.22.14-.33.61A2.1,2.1,0,0,1,61.26,108.28Zm-27,3.34a2.23,2.23,0,0,0,1-.61c.6.11,1.2.2,1.79.32v.15c-1.21.07-1.08.61-2,.92C34.79,112,34.5,111.93,34.23,111.62Zm1,2.57c-.29-.09-.16,0-.34-.16h.34Zm.49-1.36c-.29-.09-.16,0-.34-.16h.34Zm33.74,51.91h-.16v.15a3.25,3.25,0,0,1-.65-.31h.83v.16Zm6.22-50.55c-.47-.2-.92-.4-1.48-.6a6.21,6.21,0,0,1-.64-2.29,1,1,0,0,0,.64-.91c-.4-.27,0-1.23,0-2.13-.11,0-.22-.11-.33-.16-.63-.47-1.46-.2-2.46-.15-.34-.47-.5-.83-1.32-.92-.38.31-.61.07-1.14.31-1.19.52-.79,1.08-3,1v.45h2a5.2,5.2,0,0,0,2.13,1.37c-.23.29-.2.13-.34.6a2.26,2.26,0,0,1,1.14.76h-.33l-.5.45a2,2,0,0,0-1-.31c.13.56.25.42.34,1.05l-.16.15h-.49c-.07.32-.05.3-.16.45-.38-.27-.83-.2-1.3-.45-.15-.08-.22-.53-.33-.6-.38-.22-1.19,0-1.48-.16h.16c.22-.13.91-.15,1.14-.31s.13-.25.15-.6a1.43,1.43,0,0,1-.49-.32c.43-.22.25-.06.34-.6a3.71,3.71,0,0,1-1.32-.16v.45A7,7,0,0,0,64,111.68c-.11.16-.09.14-.16.45.34.18.32.11.5.45-.67.09-.7.31-1,.45h0a2.12,2.12,0,0,1-.65.15V113h.65v-.45a5.08,5.08,0,0,1-1,.16v-.07c.13-.16.09-.14.15-.45H62v.45c-1.34,0-3.33.87-3.44,2a1.4,1.4,0,0,1,.15.76,11.64,11.64,0,0,1,2.78.92,2.33,2.33,0,0,0,0,1.36h.83c.06-.4.11-.8.15-1.21,1.17-.29,1.79-1.77,1.79-3-.29-.09-.15,0-.33-.16h.33v.16c.34-.07.31-.05.49-.16s.14-.27.5-.44v.44a3.68,3.68,0,0,1,1,0,2.66,2.66,0,0,1,1,.76c-.3.25-.23.14-.34.61a3.73,3.73,0,0,0,1.81-.45c.05.16.23,1.66.32,1.81.33.56,1,.18,1.32,1.37a1.78,1.78,0,0,0-.5,1.21c.65.24.79.2.83,1l-.16.15a9.83,9.83,0,0,0-2-.31V119c-1.24,0-1.35.14-2.29.16v.45a1.81,1.81,0,0,0,1.48.44l.16-.15v.31h-.34a9.74,9.74,0,0,1-2.12,1v-.56a11.4,11.4,0,0,0-2,.61,2,2,0,0,0-.16.76c.13.16.07,0,.16.31-1.19-.29-2.53,1-3,1.81v.92l-.8.16A13.81,13.81,0,0,0,57.59,127c.07.85.11,1.72.16,2.57-.11,0-.23.11-.34.16l-.15.15a8.67,8.67,0,0,0-.5-2.28c-.89-.07-1.2-.29-2.28-.31v.6c-1.5-.16-2.84-.4-3.44.92a4,4,0,0,0-.16,3.8,3.88,3.88,0,0,0,2,.16,12.39,12.39,0,0,0,.65-1.21c.38,0,.76-.11,1.14-.16-.16.94-.65,1.55-.81,2.58.92.22,1.81-.27,2,.91a2.94,2.94,0,0,0-.33,1.68c.56.34.51.56,1.47.61.61-.41.7,0,1.64.15.4-1,1.2-1.18,2.12-1.67v.44c.4,0,.56-.4.83-.31,0,0,.22.56.34.6a4.35,4.35,0,0,0,1.63.29c.13-.49-.09-.22.33-.44a2.06,2.06,0,0,0,1,.15v.76c.6.36,1.05,1.28,1.63,1.53.38.17.81-.16,1-.16s.58.27.82.31c.61.81,1.1,1.12,1,2.28,1.18.54,5.93,2.09,6.22,3a1.54,1.54,0,0,1-.16,1.52c-.29.51-1.07,1-1.32,1.52v2.13a11.44,11.44,0,0,1-1,2.28,2.61,2.61,0,0,0-2.46,1.36c-.23.41.22.63,0,1.21A26.42,26.42,0,0,1,68.73,157a2.48,2.48,0,0,0-1.14.15c.52.63.34.86.16,1.53l-1.48.31c-.09,1.36-.94,2.13-1.14,3.49.27,0,.54.09.83.16v.44a2.28,2.28,0,0,0-.65,1.53c.72.4,1,1,1.81,1.36v.16c-.33,0-.65.09-1,.15-.78-.56-2-.53-2.13-1.67h-.49a9.71,9.71,0,0,0-1.14-2.13c-.09-.11.58-1.05.34-1.52l-.5-.16c-.76-1.5-.33-4.83-.65-6.22-.38-1.61.54-4-.33-5.17-.58-.6-1.81-.87-2.28-1.52-.7-.92-.74-2-1.32-3-.34-.61-.85-.58-1-1.52,0-.52.23-.2.34-.45.22-.49-.58-1.07,0-2,0,0,1.14-1,1.14-1,.42-.83-.25-2-.34-2.57H57a1.76,1.76,0,0,1-.16.6,18.71,18.71,0,0,1-2.13-1.36c-.33-.52,0-1.06-.49-1.37l-1.79-.45c-.27-.18-.33-.78-.65-.91l-1.63.15c-.7-.24-2.6-1.36-2.8-2.12.49-.7-1.45-3.56-2.3-3.65a14.85,14.85,0,0,0,.49,2.12c.18.25.29.16,0,.3v-.3h-.16l-.15-.15a5.37,5.37,0,0,0-1-1.68c.58-.36-.31-2.08-.49-2.89a2.11,2.11,0,0,0-.65.16V125c-1.52-2.23,1.57-3.93,1.81-5.61.09-.58-.44-.58-.49-.92s.54-.76.34-1.52-.63-1.59-.83-2.57h-.34c-1.32-.83-3.35,0-4.92,0,0,.47.13.42,0,.6-.51.43-1.07.2-2,.16v-.61a2.11,2.11,0,0,0-.65.16c0-.36-.11-.72-.15-1a17.33,17.33,0,0,1,3.11-.92v-.45a4.1,4.1,0,0,1-1.15,0c-.13-.15-.06,0-.15-.31l.15-.16a6.29,6.29,0,0,1,2.13,0c0-.35-.11-.71-.16-1.07h.34c2.3-1.39,6.22-.72,8.34-.16,1,.27,2.26-.42,3.12-.44s2.25.4,3.6.44v-.31c.18-.27.06-.47.15-.6a1.18,1.18,0,0,0-.64-.16,1.67,1.67,0,0,1-.81.16,1.59,1.59,0,0,1-.16-.32c1.17-.29,1.41-.76,3.11-.76,1.1,1,3,.09,3.29.31h.16V109c-.61.11-.45,0-.65.45-.11.16-.09.13-.16.45.23,0,.43.09.65.15v.16a9.91,9.91,0,0,1-1.47.31V111a6.47,6.47,0,0,0,2.95-1v-.16a1.84,1.84,0,0,1-.83-.6,7.91,7.91,0,0,1,2.8-.45v-.45a10.25,10.25,0,0,1-2-.15v-.32c.13-.15.07,0,.16-.31a10.17,10.17,0,0,0,2.79.76v-.45h-.65c0-.6,0-.47-1-.44-.14-.12-.36-.21-.49-.32h.15a1.62,1.62,0,0,1,.81-.15c.47.38,1.32,0,1.32,0,.27.26.29.38.33.91h.83a5.93,5.93,0,0,0-.33-1.21h.33c.83-.67,2.49-.33,3.76-.6a14.63,14.63,0,0,1,4.75-.16c.35.09.64.41,1.29.32,2.31-.36,9.27-.85,11,.15-.9,0-1.23.32-1.48.92a2.15,2.15,0,0,0-.15,1.08c-.56.2-.68.47-1.32.6v1C80.37,111.19,77.42,111.37,75.67,114.19ZM62.09,132.56v.16c-.92.09-1.41.44-2.13,0,.41-.23.18,0,.34-.45.56,0,.71-.14,1,0A8,8,0,0,1,62.09,132.56Zm-3.45-.45v-.45a6.66,6.66,0,0,1-1-.6c-.58-.29-1.32,0-1.63-.16h.15a3.78,3.78,0,0,1,1.48-.15,5.66,5.66,0,0,0,2,1.05l-.16.16A1.61,1.61,0,0,1,58.64,132.11Zm.16.9c-.45.13-.56-.09-.34-.32C58.6,132.81,58.69,132.92,58.8,133ZM43.74,116.63h.34a.8.8,0,0,0-.16.16v.15C43.76,116.76,43.83,116.88,43.74,116.63Zm39.16-5a7,7,0,0,0,2.62,0c.11.27,0,.15.15.31v.31C84.73,112.51,82.11,113.16,82.9,111.62Zm26,41-.83.15a1.94,1.94,0,0,1-.33-1.21c-.2-.49.36-.69.49-1.2s-.11-1.15,0-1.68a2.65,2.65,0,0,0,2-1.81C111.18,147.77,109.52,151.47,108.94,152.59Zm14.75-14.26c-.29-.09-.16,0-.32-.15-.33-.45-.22-.65-.15-1.21a1.35,1.35,0,0,1,.65,1.21A.54.54,0,0,0,123.69,138.33Zm7.54,2c-.34-.54-1.12-.89-1.48-1.52h.65a3.33,3.33,0,0,0,2,1.52,7.84,7.84,0,0,1-.65-2.28h-.16c-.27-.36-.24-.36-.82-.45.11-1.41.13-2.95-.65-3.94-.18-.11-.16-.09-.5-.15-.26.33-.29.44-.64.31-.61-.92-.79-2.71-2.13-2.89-.38.38-.85.14-1.32.45v.16c-.49.51-.81,1.16-1.32,1.68-.27.26-1.14.6-1.32.91v.61c.34.47,0,1.36,0,2.12-.49.2-.52.47-.81.45a14.81,14.81,0,0,1-2.3-5.77c-.56,0-.72.13-1,0-1-.56-1-1.81-2.46-2-.89.56-2.79-.16-3.6-.31V130c.65.31,1.32.53,1.48,1.36-.27.29-.23.74-.49,1.08a18.34,18.34,0,0,1-4.1,2.57c-.38-.78-.54-.07-1.32-.45-.33-.18.16-.31-.65-.45-.22-.6-.45-1.2-.65-1.81-.24-.33-.94-.51-1.14-.92,0-.4-.11-.8-.15-1.2-.16,0-.34-.12-.5-.16-.22-.34-.31-1.19-.65-1.37h-.82c.13,1.17.85,1.68,1.32,2.44l.33,1.68h.34c.24.31.09.72.33,1.05a26.78,26.78,0,0,0,2.31,2.42c.58.34,2.57-.36,2.62-.29a2,2,0,0,1,.15,1.05c-.6.6-.62,1.57-1.14,2.28-.94,1.32-2.82,2.15-3.44,3.81-.38,1,.31,3.8.31,4.85s-2.33,1.41-2.62,2.73c.47.61.18,1.19,0,1.84-1.57.62-.47.51-1.14,1.67a5.88,5.88,0,0,1-5.73,2.73,4.48,4.48,0,0,0-.49-2.57l-.65-.6c0-.81-.11-1.61-.16-2.42-.22-.56-1-1.34-1.14-2-.35-1.36,1.26-2,1-3.33a10.35,10.35,0,0,0-.83-2.89c-.25-.4-1-.67-1.14-1.21l.33-2.28c-.58-.13-.33-.31-.64-.45-.34,0-.65.09-1,.16-.11-.31-.22-.6-.33-.92H90.66c-.85.63-2.46.61-3.76.76-.71-.56-1.43-1.12-2.12-1.68v-.6c-.43-.4-.88-.8-1.3-1.21-.25-.47-.13-.89-.34-1.21,1-.82,0-2.23.34-3.33a16.67,16.67,0,0,1,1.63-2.57c.32-.25.88-.16,1.14-.45s.09-1.41.5-1.81c.71-.72,1.07-.2,1.29-1.66-.13-.16,0,0-.15-.31h-1c-.06-1.12,0-1.55,0-2.73h.34c.51-.31,1.61,0,2.46,0a4.57,4.57,0,0,0,.16-1.52,5.59,5.59,0,0,1-1.32-.76h.33c.72-.5,2.55-.9,3-1.68.11-.16.08-.14.15-.45.45,0,.87-.11,1.32-.16a11.62,11.62,0,0,1-.15-1.52c.29-.09.15,0,.33-.15a3.08,3.08,0,0,1,.83.44v-.76a2.07,2.07,0,0,0-1.14-.31c-.38.38-.4.25-1,.16v-.32a2.15,2.15,0,0,1-.15-1.21,5.14,5.14,0,0,0,2.79-2c.25-.47-.29-.34,0-.61,2.44-1.83,5.44-.2,8,.45v.45H101v.44c.29.09.16,0,.34.16,1.14-.16,1.48-.51,2.62-.6a2.13,2.13,0,0,0-.34-.92H104c.24.31.24.2.33.76.79-.09.79-.4,1.32-.6a6.93,6.93,0,0,1,2.46-.16v-.45c.72.09,1.41.2,2.13.31a4.16,4.16,0,0,1,.16-1.67h.15v.15c.5.25.54.47,1.14.61.41-.38.52-.07,1.15-.32.13,0,.26-.42.33-.44h1c0-.16.11-.32.15-.45.54-.4,1.12-.2,1.79-.76.25-.2.14.27.16.31a3.53,3.53,0,0,0,1.32-.15h.16c-.07-.32,0-.3-.16-.45-1-.58-2.93-.23-3.76-.92a18.14,18.14,0,0,1,4.09.6,7.43,7.43,0,0,0,1.3.77c.79.22,1.68-.16,2.31.15.31.16.47.76.82.92,1.28.54,3.18-.34,4.44,0,.46.13.67.56,1,.76.6.38,2,0,3,0V109c-.33-.07-.31,0-.49-.16.34.07.31,0,.49.16h.34c.67.67,1.52.09,2.62.45.22.09,1.05.53,1.32.6.65,0,1.32-.11,2-.16.73.18,1.76.52,2.46.61l3.93-.16c2.09.49,2.91,2.28,4.59,2.73v.16c-1.23.07-.92.51-1.63.92a1.74,1.74,0,0,0-1-.16c-.15.4-.2.27-.33.76.58.56,2.15,2.26,1.14,3.65-.27-1.59-2.26-1.59-2.62-3.18a2.94,2.94,0,0,0,.34-1.68c-.56,0-.76.36-1.14.31a2.82,2.82,0,0,0-1.15-.31l-.15.16c0,.47.09.78,0,.92v.15c-.85-.24-2.87-.54-3.6,0a3.53,3.53,0,0,0-.5,1.81,7.38,7.38,0,0,1,2,.45c.67.18.58-.38.81-.15a8.46,8.46,0,0,1,2.3,2.28,1.06,1.06,0,0,0-.15.15c-.12,0-.23-.11-.34-.15a2.6,2.6,0,0,1-.49-.92h-.49c.2,1.07.62,2.46-.16,3.33-.4.23-.87.07-1.14.45a3.59,3.59,0,0,0-.49,1.52c.87.25,1.09.83,1.63,1.37v.31l-1,.31a3.12,3.12,0,0,0-1.63-2.28c-.54-.31-.71,0-1.14.16-.22-.31-.27-.27-.83-.29a1.46,1.46,0,0,0-.33.92.71.71,0,0,1,.15.15,3,3,0,0,1,1.79.31c-.65.14-.71.3-.82.92,1.88,1.39,1.65,1.86,1.47,4.25-1,.76-1.63,1.59-3.26,1.82,0,.53.22.87.15.91s-.11.32-.15.45c-.3-.09-.16,0-.34-.16l-.16-.15c.34-.27.32-.34.34-.92a4.21,4.21,0,0,0-1.14-.16c-.05.16-.11.32-.16.45-.27.27-.29.38-.33.92,1,.85,1.9,1.74,1.81,3.2a2.83,2.83,0,0,0-1.32,1.21h-.36v-.61H133a1.8,1.8,0,0,0-1.81-1.21,5.11,5.11,0,0,0,.49,2.73H132v.16c.85.51.9,1.39,1.3,2.28h-.49c.11.74.4.74.49,1.52H134c.16.34.13.23.34.45-.34.27-.41.87-.5,1.37h-.31v-.16C132.19,142.81,132.06,141.6,131.23,140.3Zm20.14,4.54c.24.68.64.56,1,1.06h-.49c-.18-.14-.41,0-.65-.16-.81-.45-.27-1-1.81-1.05a.78.78,0,0,0-.16.15v.45a3.82,3.82,0,0,1-2-.6,1.77,1.77,0,0,0,.16-1.08,3.48,3.48,0,0,0-2.31-.6,3.74,3.74,0,0,0-.65-1.52c.5,0,.45-.11.65,0h.34c.22.67.15,1,1,1.21l.16-.16v-.45c1.39-.09,4.14,1,4.74,2A.68.68,0,0,0,151.37,144.84Zm.49-.89v-.16c.33-.06.31,0,.49-.15.34.06.31,0,.49.15h-.15A1.55,1.55,0,0,1,151.86,144Zm-7.7-1.23c-.83,0-1.45.13-1.63-.16A4,4,0,0,1,144.16,142.72Zm-1-2.57a1.18,1.18,0,0,1-.16,1.36A3.41,3.41,0,0,1,143.18,140.15Zm-1.15-14v.76h-.15v-.15a1.52,1.52,0,0,1-.65-1.05c.85-.32.63-.74,2-.77v-.6c.33-.07.31,0,.49-.16a2.18,2.18,0,0,0,.16-1.2,3,3,0,0,1-1-2.29H143c.58.47,1.45.2,1.63.76-.38.25-.24.34-.83.45.09,1,1.37,2.33,1,3.18A8,8,0,0,1,142,126.18Zm-.82,15.33v.31h-.65c0,.94.36,1,.49,1.82h-.49v-.77l-.16-.15h-.49v.92h-.34v-.32a21.08,21.08,0,0,1,.5-2.57,7.9,7.9,0,0,1,1.63,0v.16h-.16c-.24.11-.91-.09-1.32.15-.13.18-.13.25-.15.61C140.45,141.62,140.83,141.55,141.21,141.51ZM140.07,145v.16c-.3-.09-.16,0-.34-.16Zm1.63.16c.33.06.31,0,.49.15h-.33l-.16.16Zm0-6.69v-.16c-.13-.13-.18-.47-.34-.6h-.47a4.2,4.2,0,0,0-.15-1.37c-.85-1.36-1.35-1.68-1.3-3.65h.16c.17.12.15.09.49.16a5.81,5.81,0,0,1-.16,1.52,6.52,6.52,0,0,1,.67.45h.47v.4a4.15,4.15,0,0,1,1.32,3A4.09,4.09,0,0,1,141.7,138.47Zm.49,6.22c.43.22.18-.05.34.44h-.34Zm.18-24.88.49.15v.16C142.46,120,142.57,120.05,142.37,119.81Zm-3.11,20.94a2.39,2.39,0,0,0-1,2.12,5.38,5.38,0,0,1-2.31-.44,5.14,5.14,0,0,1-.65-1.82,3.83,3.83,0,0,1,1-.15c.06-.31,0-.29.15-.45a7.64,7.64,0,0,0,2-1.83c.07,0,.11.11.16.15.42.23.51.23.65.76A1,1,0,0,0,139.26,140.75Zm0,4.41c-.51,0-.65.09-.83,0s-.15,0-.33-.16A2.46,2.46,0,0,1,139.26,145.16Zm-.18-14.43c-.18-.12,0,0-.33-.16v-.45c.13-.16,0,0,.15-.31h.34v.92ZM133.85,144h.82c.63.54,1.55.47,2.62.45v.44a.82.82,0,0,1,.49.16h-.15v.16C136.42,144.82,134.34,144.91,133.85,144Zm12.28,16.22a2.45,2.45,0,0,1-1.14.76v-.45c.13-.18.13-.24.16-.6.58.07.91,0,1.14.31h-.16Zm1.81-1.81c-1.25.11-3,1-3.6-.31.13-.18.13-.25.18-.61a3.39,3.39,0,0,0-1,.16c-.22-1.37-.58-2.17-2.46-2.13a26.68,26.68,0,0,1-5.23,1.52c-.36-.13-.25-.13-.5-.31,1.26-1.5,0-1.9.5-3.8.15-.56.33-1.12.49-1.68.36-.07,3-.9,3.27-1s.24-.72.49-1.05c0,0,2.15-1.48,2.3-1.53.27.45.23.43,1,.45a5.88,5.88,0,0,1,.83-1.68v.45a10.4,10.4,0,0,1,2.12-.16c-.11.79-.42.81-.49,1.68a2.85,2.85,0,0,0,1.48.45v.45h.49c.27-.9.71-2.11,1-3.05H149c0,1.46.49,1.19.83,1.82v1.81c.09.18.69.29.82.45a16.07,16.07,0,0,1,1.15,2.73c-.54.78-.47,1.72-1,2.41C149.93,156.55,148.64,157.11,147.94,158.36Zm3.76,3.94v-.16h.16c.69-.87,1.94-.92,2.95-1.52a7.44,7.44,0,0,0,1.32-1.37v.61c.34.06.31,0,.49.15C154.63,160.37,154,162.21,151.7,162.3ZM153,143.19h.34a.75.75,0,0,0-.16.15v.16C153,143.32,153.11,143.43,153,143.19Zm5.73,15.46h-.16a6,6,0,0,1-1.81,1.21v-.16c.13-.2,0-.56,0-.6.22-.32.81-.34,1-.76s0-.92.16-1.21v.15h.16c-.16.45-.05.61,0,1.21h.65v.16Zm1.9-67.93H133.71v-4.3l3.81-.74V60l-3.81-.74V54.87h14.84v4.34L144.7,60V85.19h10.11l.34-4.5h5.48v10Z"/><rect class="cls-1" x="143.85" y="156.39" width="0.16" height="0.29"/><rect class="cls-1" x="143.67" y="156.68" width="0.16" height="0.31"/><rect class="cls-1" x="59.14" y="120.25" width="0.49" height="0.45"/><polygon class="cls-1" points="64.71 115.4 64.86 115.4 64.86 114.79 64.37 114.79 64.37 115.11 64.22 115.11 64.22 115.71 64.71 115.71 64.71 115.4"/></svg>