<svg id="b84385d6-7231-4b58-920b-bcc15d167370" data-name="Layer 1" xmlns="http://www.w3.org/2000/svg" viewBox="0 0 179.46 236.2"><defs><style>.a1bf5a48-2fb8-4999-b792-fdf51a1408cb{fill:#fff;}</style></defs><path id="eda8ef2c-0d93-4702-b87c-9c936055f020" data-name="Layer 1" class="a1bf5a48-2fb8-4999-b792-fdf51a1408cb" d="M34.6,101.87c-.1-.28.19-.93-.19-.84C34.22,101.22,34.32,101.87,34.6,101.87Zm-.75-.37c0,.09-.28.37,0,.37,0-.18.19-.09.28,0C34.13,101.69,33.94,101.59,33.85,101.5Zm32.88,33.72h0ZM156.6,87.49c-1.12-1.22-3.08-1.5-4.48-2.43-.56,0-1-.1-1.22-.47a4.43,4.43,0,0,0,2.25-1.87,10.52,10.52,0,0,1,2.42-.09c.1-.47-.56-1-.93-1.22a3.69,3.69,0,0,0,.37-1.12,2.59,2.59,0,0,1-.56-2.05A4,4,0,0,0,151.74,77c-1.58,0-3.26,1.31-4.57,2.15-2.06,1.31-1.22,5.79-3.55,6.73-.19.56-.66.84-.84,1.4-.38.09-.56.47-1,.56-.09.37-.37.56-.47.93-.18.19-.18,0-.37-.09.09.56-.19.84-.28,1.22-2.34.84-1.68,4.67-4.21,5.32a8.63,8.63,0,0,1-.84,2.34c-.18-.57-.37-.47-.84-.75-.28.18.19.75-.09.93-.56,0-.47-.65-.84-.84a2.66,2.66,0,0,1-1,.75c-.19,0,0-.47-.19-.47s-.18.47-.56.38v-.47a9.16,9.16,0,0,1-2,1.87c.1-.66,1.12-1,1.22-2-.47-.28-.66.38-.84.57-.28-.19.09-.57,0-.94-.57.84-.75,2-1.59,2.52a4,4,0,0,1,.18-1.3c-.28-.28-.28.28-.37.46-.37-.46-.37-.09-.75.1a1.07,1.07,0,0,1-.09-.56c-.47.18-.28.93-.84.93,0-.37.37-.47.28-.84-.47,0-.37.65-.75.75-.28-.19-.18-.84-.47-.94-.18.47.57,1.12.19,1.87-.47-.56-.09-1.77-.75-2.15-.28.75.28,1.4.28,2.24-.28.28-.28-.28-.56-.28a1.51,1.51,0,0,0,.47,1,4.4,4.4,0,0,1-2.15,3.27c0,.37.1.65.47.65a13.11,13.11,0,0,1-2.8,1.13c-.66.28-1.5.93-2.06.84-.37-.1-.47-.56-.75-.84a14.17,14.17,0,0,1-1.86-1.41c-.84-.93-.84-2-2.25-2.14.38,1.21,1.31,1.86,1.69,3.08-.28.19-.75.93-.85.28-.56-.09.47-.19.38-.47s-.66,0-.66.19c-.37-.28.19-.47.1-.75-.38,0-.38.19-.56.28-.19-.19.09-.75,0-1.12-.66.19-.1,1.5-.75,1.59-.19-.37-.09-1.12.28-1.12,0-.1-.28-.47-.37-.19-.19-.28.46-.93.18-1.4-.46.37-.74,1.59-.93,1.68-.37.09.09-.75.37-.84-.46,0,0-.28-.28-.65a2.45,2.45,0,0,0-1.77,1.68c.09.18.28-.28.46.09-.18.66-.46,1.22-1.4,1.22-.09.56-.46.74-1,.84v-.47c-.38,0-.28.37-.66.28-.09-.19,0-.47-.18-.56A5.11,5.11,0,0,1,110,105c0,.46-.47.37-.47.74.56.28.84-.46.93-.93-.74-.56-1.58.37-2.24.56-1.12-.65-2.52.09-3.64.28-.47-.84-.66-2-1.31-2.62a12.7,12.7,0,0,0,.93,2.81c-.09.28-.46.28-.37.65a15.83,15.83,0,0,0-2.33-2c.28.93,1.21,1.49,2,2.24a4.64,4.64,0,0,1,1.68,2.62c-1.68-1.12-3.18-2.06-4.86-3.37-.28.94.94,1.5,2,2.34.38.28.75.65,1.31,1,.37.28,1.22.65,1.31.93.09.47-.75.75-.66,1.12.29.47.75.66,1,.94-.37.18-.93-.38-1.21-.66a1.81,1.81,0,0,0-.75,1.22c-.84.46-2.15.37-3.18.65a3.29,3.29,0,0,0-2-.75c-.37-.74-.37-1.59.28-2-.09-.09-.47,0-.37-.37h.65c-.19.56.19.65.65.65-.28-.65-.46-.93-1.21-.93,0-.28.47-.1.56-.38a9.58,9.58,0,0,0,.93,1c0-.28.38-1,.1-.93,0-.38.56-.1.56-.47A3.55,3.55,0,0,0,98.4,106c.38-.09.84-.18.66-.84.37-.18.84-.28,1-.65a1.51,1.51,0,0,0-1.3-.47c-.19.09,0,.56-.47.37,0-.09.19-.09.28-.09-.19-.47-.65-.09-.93-.37.28-.19.46-.1.74-.1-.18-.46.1-.37.28-.65-.18-.37-.84-.37-.93-.84.37.28.47,0,.75.09-.56-.65.28-.93-.38-1.49.19-.09.38-.09.47-.19.28-.28-.37-.37-.28-.75.47-.46.47-1.21.75-1.86.46-.28,1.3.28,1.49-.38-.19-.37-1.21.28-1.49.1a1.49,1.49,0,0,1,.18-1.41c0-.28-.37-.18-.28-.56-.37-.09-.46.1-.74.1.09-.75-.66-.38-.84-.66.09-.56,1-.37,1.49-.56-.19-.56-.47-1.49.09-1.77-.37,0-.56-.28-1.3-.28,0-.19.28-.1.28-.28-1.69,0-2.9,1.31-4.68,1.21.1-.56.85.19.85-.28-.1-.65-.56.1-1.13-.09-.09-1.12,1.22-.84,2-1.31,0-.28-.1-.28-.38-.28C95.69,90.85,97,90.2,98,89.26a3.74,3.74,0,0,0-2.52,1.31c-.28-.09-.47-.28-.75,0-.28-.09.28-.19.09-.47-.84.28-1.21,1-2,1.4-.75-.28-.84,0-1.59,0,.66-1.3,2.71-1.21,3.83-2,.38-.1.47.28.75.28.19-.47-.28-.38-.28-.66.84,0,.84-.74,1.12-1.21-.84.28-1.21.93-2.43.84.19-.37.84-.28.75-.93a6.25,6.25,0,0,0,2-.56c-1-.47-2.43.46-3.45.65a1.91,1.91,0,0,1-.1-1c-.28.38-.65.1-1.12.28.19.47.84.38.93.56,0,.56-.46.66-.93.66,0-.47.19-.56,0-.94-.75.1-.47,1.22-1.31,1.12,0-.74.66-.93.66-1.77,1-.19,1.21-1.12,2.15-1.4.09-.47-.1-.28-.28-.38A128.44,128.44,0,0,0,97,72.54c1.31-.56.66-3.08,1.4-4.3-.09-.47-.65-.56-.74-1A8.58,8.58,0,0,1,94.57,67c-.37,0-.37.46-.56.56-4.48.65-9.15,1.12-13.82,1.59-.28-4.3-.75-8.41-.84-12.9,3.36-.09,7.28-1.12,11-1.49a1.82,1.82,0,0,0,.37.84A9.32,9.32,0,0,0,95,54.51c0-.09,0-.19.09-.19.37-5.32-1.4-9.06-2-13.73-.1-.93.18-2-.28-2.9-1.59.28-3.55.19-4.39,1.13.46,3.36,1,7.1,1.49,10.74-3.64.37-7.19.84-10.93,1.21-.28-3.92-.75-8.78-1-13.08a1.26,1.26,0,0,0-.84-.56,3.48,3.48,0,0,1,.28-2.43,5.43,5.43,0,0,0-1.21-4.11H75.8c-.94,1.31-1.13,4.3.09,5.42v1.22c-1.5,1.49.09,4.2-.28,6.72-.94.28-1.87.47-2.8.66-.66-2.24.65-6.26-1.59-6.73-.1-2.24,1.21-5.42-.94-6.44-1.3.74-1.4,4-.28,5.13a7.81,7.81,0,0,1,.1,1.5c-.28,0-.28.18-.56.18-.56,1.69.18,3.55,0,5.33-.1,1.12-.84,3.08.09,4.39-.37,1.5.56,2.43.56,3.92-3.55.75-7.29,1.31-11.12,1.87,0-2.43,1.12-6.91.94-9.34,0-1-2-.84-3.27-.84-.75.65-.56,2-.66,2.9C55.8,49,54.87,51.8,54.87,54.6c-.28.19-.75.19-.93.38,0,1.77.09,2.8.09,4.57.65.75,2.33.47,3.55.47.37,0,.09-.75.28-.84,4.11-.47,8.31-.93,12.33-1.59.28,4.11.65,8.13.93,12.15a58.52,58.52,0,0,1-9.52,1.12c-1.5.09-3.83.18-4.67.65.09,1.5,0,2.8.18,4.39.19.19.56.19.75.38A24.66,24.66,0,0,0,58.7,81c.56,2.52.28,5.51,1.87,6.63-.09.28-.28-.18-.47-.09.38,1.12,2.06.75,2.06,2.24-.84-.47-1.22-1.31-2.34-1.49-.19.18.47.46.66.56-.38.18-.38-.28-.94-.19-.28,0-.09.56-.37.56-.1.37.18.47.46.47,0,.28-.65-.1-.65.19.19.56.84.74,1.4.93-.28.28-.75-.19-.93.19.37.28,1,.09,1.12.65-.47-.09-1.4-.47-1.78,0,.28.47,1.78.28,1.5.93s-1.59.19-2,.56a.39.39,0,0,1,0,.75.62.62,0,0,0,.65.38c-.19.46-.56-.28-.84.09.19.19.56.09.56.37-.37.47-.37,1,.65.94-.18.18-1,0-1.21.37.28.37.47.65.56.75-.28.65-1,0-1.68.09A.86.86,0,0,0,57.3,98c.47,0,1-.28,1.4.1a1.38,1.38,0,0,1-.28.74c-.19.1-.75-.09-1,.1.1.28.56.28.94.28v.65a6.4,6.4,0,0,1,2.61.65c-.46.19-1.4-.18-2-.28-.38,0-.38.38-.66.47.1.38.38.47.66.66-.28.37-.38.84-.75,1,.09-.28-.19-.28-.09-.56-.28.38-.28,0-.66,0,.38.66.94,1,1.12,1.78-1.12.09-1.12-1.12-1.68-1.68-.56,0-.09.74-.09,1.12-.84-.1,0-1.31-.38-1.78-.46,0-.37.47-.46.75-.38-.28-.28-1.12-.84-1.21-.38.93.84,1.58.56,2.52-1-.38-.75-1.59-1.5-2.34-.37.28,0,.84-.28,1.22-2.05-1,1.22-2.34,1.87-3.27-1.31.46-2.52,1.87-3.36,2.24-.1-.66,1.12-.75,1-1.68-.47-.28-.66.46-1,.46,0-.65.84-.74.46-1.49-.46.09-.46.47-.65.75-.19-.19-.19-.47-.65-.38.09-.56.46-1.21.37-1.68-.56-.19-.37.84-.75.47,0-.56,0-1.12-.37-1.31-.28.19-.28.75-.47.94.47.09.28.65.1.84-.28-.1.09-.75-.1-.66-.37.1-.18.84-.56.94-.65-.19-.56-1.12-.75-1.78-.28,0-.28.37-.46.47-.28-.1-.19-.47-.47-.56-.28.37-.09,1.59-.65,1.87a2.24,2.24,0,0,0-.66-1.22c-.37-.09-.46.56-.65.38-.66-.1-.84-1-1.59-.66-.19-.37.28-1,.19-1.68-.1-.19-.19.19-.28.28-.28,0-.1-.56-.28-.65-.38,0-.28.37-.56.46-1.31-.84-1.69-2.61-3.27-3.17a12.14,12.14,0,0,0-1.68-2.53c-1-1.12-2.62-1.86-3.37-2.89-1.21-1.59-2.43-4.11-5.42-2.9-1,.38-1.3,1.4-2,2.62-.28.47-.65.75-.75,1-.18.56-.09,1.21-.28,1.77-.28.75-.93,1-.46,2.15-.75.93-.75,4.3.37,5-.09-1-.84-3.45-.28-4.48.56,2.06.65,4.58,1.59,6.26a22.75,22.75,0,0,1,0-2.62c-.09-1.3-.75-2.61.47-3.36,1.49,1-.1,3.83.18,5.33,1.12-.47.28-2.81.84-3.74.38.47.28,1.49.75,1.87.09-.66-.56-1.59-.65-2.43.18.65-.1-.19.46-.19.56.56.19,1.22.28,2a19.33,19.33,0,0,0,.38,2.43c.09.28.37.56.37.84.38,1.68-.09,3.18,1.22,3.93.37-1-.56-1.87-.28-3.18a3,3,0,0,1,.56,2.62c.46-.28.56-1,.84-1.5.09.75-.94,1.5-.56,2.52.37.1.28-.46.37-.65-.19,0-.28.09-.28.19-.09-.38.65-.66.84-1a3.74,3.74,0,0,0-.19-1.12c.28-.28.47-.75.84-.94a5,5,0,0,0-.65.94c0,.18.47.18.19.46,1-.28.93-1.77,1.4-2.61.09.84-.56,1.87-.47,3a2.16,2.16,0,0,0,1,.47c.93-.85,1.77-1.87,3.27-2.06-.28.28.09,1.12-.28,1.59a4.06,4.06,0,0,0-1.4,1.12c.75-.56,1.68-.37,2.15-1.31.65.84.46,2.62.65,4,.75-.56.09-1.87.09-2.71a6,6,0,0,0-.18-1.78c.65-.74,1.49-.09,2.43,0-.56.28-.94.28-.94.75-.09.84,1.12.66,1.4,1.22-.18.37-.56,0-.93.09-.75.56.09,1.31.56,1.31.19.37,0,.37-.19.46.1.19.19.38.47.38-.09.28-.19.56-.47.56,0,.28.1.37.38.37-.19.19-.66.1-.66.47s.38.28.47.09a14,14,0,0,0,1.68,2.34c.09.37-.47.19-.37.56,0,.09.28.09.37.09-.09.19-.37.38-.28.75.65-.09.84-.65,1.4-.84.38-.09.1.37.28.47.47,0,.28-.56.66-.56-.19.93-.66,1.21-1.13,2A4.66,4.66,0,0,0,47.12,109c.56.1-.28.38-.1.75a.71.71,0,0,0,.75-.28c.37.28-.09,1.21.65,1-.09.28-.37.46-.37.74a4.05,4.05,0,0,0,1.87,0c0,1.22-1.59.38-2.34.66.19.47.94.37,1.5.47-.1.28-.75.18-.66.65.47.28.75-.37,1.22-.37-.28.93-1.22,1.12-2,1.68.18.56.74-.19.93.09-.65.09-.56.47-.75.93.1.57.75-.18.75,0s-.19.19,0,.38c-.75.37-.65,1-1.49,1.4a2.9,2.9,0,0,0,2.14-.19c.38.38-.65.19-.46.56.65.19,1.49-.09,2,.66,0,.37-.19.56-.09.93.46-.09.46.19,1.3,0-.28.94.47,1.4.75,2.06.38-.1.56-.47.84-.66.19,1.12,1.31,1.12,1.68.19v.65c1,.1.47,1.22,1.12,1.69.47-.1.47-.66.85-.75.56.09.09,1.21.37,1.68.37.09.37-.19.47-.37.18.09.28.28.56.28.18-.19.18-.75.37-.94.84,1.31,2.06-.37,1.4-1.12.56.09.47.75.47,1.4.65.28,1.12.66,1.87.47a4.71,4.71,0,0,1-.1-2c.56.09.56.74,1,.84.28-1-.93-1.12-.84-1.68s.19.18.37.18c0-.28-.09-.74.1-.84.46-.09.46.47.75.56.37-.46.18-.93,0-1.49,1.21.47,2.33.93,2.52,2.43a5.71,5.71,0,0,0-.38,3.27.69.69,0,0,1,.38-.19c.28,0,.56.28.56.75s-.28.74-.56.74a.51.51,0,0,1-.47-.28v.19c.09.09.09.28.09.56s-.18.75-.46.75c-.1,0-.1,0-.19-.09a5.55,5.55,0,0,1-1.31.09c-.18.09-.18.47-.28.56.28-.19,1.5-.19,1.5-.37v.18a.8.8,0,0,1,.56-.18c.37,0,.65.18.65.28s-.28.28-.65.28-.56-.1-.66-.28A.57.57,0,0,1,65,128a8.28,8.28,0,0,1-.09,1.49c.65.1.46-.65.56-1,0,.09.09.09.09.18a.49.49,0,0,1,.37-.18.66.66,0,0,1,0,1.3c-.09,0-.09,0-.18-.09a.33.33,0,0,1-.1.28.73.73,0,0,1,.28.66c0,.37-.18.65-.37.65a5,5,0,0,0,.09,1.59c-.18.18-.65.46-.93.18-.19.19-.56.75-.84.85-.1.09-.28-.19-.19-.19a1.14,1.14,0,0,0,.09,2c.1-.19.19-.47.38-.56a1.79,1.79,0,0,0,1.21,0,.57.57,0,0,1-.28-.56c0-.28.19-.56.38-.56s.37.28.37.56a.71.71,0,0,1-.09.37,1.21,1.21,0,0,0,.84,0c-.38,0-.66-.18-.66-.46s.28-.47.66-.47.65.19.65.47-.19.37-.47.46c.19,1.12.19,2.06.28,3,.19.1.38.19.38.38s-.1.28-.28.37a.88.88,0,0,0,.09.47c.37,2,1.68,3.36,1.5,5.41-.19.38.56.47.28.66a16.66,16.66,0,0,0-1.87.09c-.1-.56-.56-.84-.75-1.49-.37-1.12.09-2.52-.75-3-1.87-.1-2.71.84-4.2.56-.19-.19,0-.09.09-.28-.37.09-.65.19-.93.28-1.59-.75-4-.56-5.33-1.78,0-.56-.37-.74-.37-1.4-2.43-.09-5.51,2.15-7.75.66a2,2,0,0,1-1.5-.38c-.19.1-.28.28-.56.19-1.77-.56-3-1.22-4.58-1.78-1.86,2.06,4.11,1.31,4.49,2.81-.28.65-1.12.18-1.59.56-.19-.19-.19-.19-.09-.47-1.22,0-2.34-.65-3.37-.56-.18.75.66,1.12.84,1.68a16.81,16.81,0,0,0,3.09.09c.28,0,.84,0,.93.38.75-.66,2-.56,3.08-.75s2-1.12,3.09-.56c.09.28.09.56-.19.65.19.28.56.28.28.66,1.4-.94,3.18-.47,4.58-.28a3.63,3.63,0,0,1,.56,1,7.5,7.5,0,0,1,2.15.28c-.66.18-1.12,1-2.06,1.12-.75.18-1.68-.1-2.61.09-.28.09-.47.28-.75.37a10.14,10.14,0,0,1-3.27.28,3.2,3.2,0,0,1-2.15-1.12c-3.36.75-4.67,4-8.78,3.74a2.91,2.91,0,0,1-1.78.28c-.37,0-.28.37-.56.37-1.3.1-2.61,0-3.73,0a6.39,6.39,0,0,0-2.71.47c.09,1.5,2,.28,2.24,1.5-.37.37-1.4.18-1.59.74.19.75,1.31.56,1.78,1a28,28,0,0,0,4.48-1.49c.37.37,1.12.09,1.49.18a4,4,0,0,1,2-.74c.74-.66,2.05-.66,3.08-.94.56-.19.56-1,1-1.21s.09.37.28.46a7.39,7.39,0,0,1,4-2,2.36,2.36,0,0,1,2.15.38,7.48,7.48,0,0,0,.19,1.49c.47-.09.93.93,1.59,1.4-.38.1-.56-.75-1.12-.75-.1.75,1.3.94,1.49,1.87-.37.1-1.68-.74-2-1.4a7.43,7.43,0,0,1-.56-2.33c-.84.09,0,1.21-.1,1.86-.37-.18-.37,0-.65.1.09.65.37,1.12.47,1.77-.19.38-.85.28-.94.66,0,.56.94.09.94.46v.19c-.19.65-.85,0-1.41.09-.18.38.19.85.28,1.13.57,0,1.13,0,1,.56-1,.28-2.52,1.68-.56,2.14a5.74,5.74,0,0,0-.65,1.59,3.88,3.88,0,0,1,.46.84c0,.28-.46.1-.28.56.28.19.75-.09,1.13.1.28.37.18,1.12.93.93,0,.38-.65.19-.65.47a1.81,1.81,0,0,1,.93,1.12,2,2,0,0,1,1.49-.84c-.37.47-.56,1-1.21,1.12-.09.47.19.56.09,1,.28-.28.38-.84.94-.75.56.65-.84,1.59,0,2.24.56-.09.09-1.21.56-1.49-.09.65.19.93.09,1.59.56.18.56-.28.75-.47-.09-.19-.37-.1-.28-.47.28-.65,1-.75,1.49-1.12.1.56-.18.93-.65.93,0,.19.37.19.28.47-1.4,1.68-1.87,4.21-3.27,5.89,0,.46.19.56-.19.74.38,3.09,1.69,5.24,2.62,7.85,1.31,1.12,2,2.8,3.18,4.11s2.42,2,3.27,3.27c.18,1.59,2,2.52,2.8,4.11.56,1,.93,2.15,1.59,3.27.09.19.65,0,.65.19-.09.47-.47.56-.47,1.12a19.1,19.1,0,0,0,3.27,1.12c-.56,2.43-2.43,3.46-4,4.86,0,.18-.28.47,0,.56-.19.47-.66.56-.75,1-.19.18.09.28.09.56s-.37.28-.47.56c-.09.46.28.46.28.74a.73.73,0,0,0-.65.47c.09.56.65.47,1.12.38a.88.88,0,0,0,.19,1.68,3.14,3.14,0,0,0,2.71-1c.28-.28.18-.84.56-1,.65-.47,1.4-.47,2-.84,1.49-1.12,1.59-3.18,3.18-4.58a8.6,8.6,0,0,1,3.92-2c.19,0,.47.1.65,0,1.22-.37,1.78-2,1.5-3.64-.28-1.22-1.68-2.15-2.62-2.8,0-.19-.18-.38-.09-.66a1.21,1.21,0,0,1-.56-.65,5.67,5.67,0,0,0-.38-2.62c-.37-.65-1-.65-1.49-1.31-.19-.28-.19-.65-.37-.84-.19-.37-.66-.46-.84-.74-.38-.47-.47-.84-1-1.22-.19,0,.09.47-.28.28-.28-.47.09-.65.28-.84,0-1-.94-1.21-1.4-1.87.09-.28.09-.65.18-.84-.18-.75-1-.37-1.58-.56.37-1.21.93-2.24,2.14-2.52-.56-.47.38-1,.28-1.68,1.31.18,2.25-.75,3.37-1-.38,2-1.68,4.2-.56,6.07-.47.66-.38,2-.84,2.62A7.59,7.59,0,0,0,75,184.45c.29-.09.29-.46.47-.56a12.25,12.25,0,0,1-.75-5,11.81,11.81,0,0,0,.1-1.78c-.1-.37-.56-.74-.56-1-.1-.94.84-1.78.74-2.62.19,0,.85-.09.94.19-.19,0-.19-.1-.28-.1-.19.94.47,1.13.28,2.15.65,1.59,2.71,3.37,1.77,5.61.94.56-.74,1.87-.74,2.33-.1.84.74,1.12,2,1,.09-.65.19-1.21.75-1.4v-.47c-.38-.09-.38-.37-.75-.37.28-.37.47-.65.65-.84,0-.47-.46-.38-.56-.66a11.24,11.24,0,0,0-2-4.85c0-.28,0-.38.28-.38a1.17,1.17,0,0,1-.65-1.21c.93-.09.56-1.4,1.21-1.68a1.1,1.1,0,0,1,.19-1.4c0-.47-.56-.84-.19-1.22.47.38.56.94.56,1.78.38-.19.38.46.38,0,1.4,1.3,1.68,3.73,3.54,4.57.29,0,.38-.28.38-.56.84,0,1.31.66,2.15.75,1.12.19,2.33-.56,3.36.09a3.87,3.87,0,0,0,2.24,1.78c.1.28-.09.47-.09.65a.73.73,0,0,0,1.21-.46c.28-.1.19.46.47.18.28-.09.09-.56.28-.65.37-.37.56-.84.93-1.12a2.58,2.58,0,0,0,1.87-1.12c.75,0,1.12-.38,1-1.12a4.3,4.3,0,0,0,1.68,1,6.15,6.15,0,0,1,.38,2.34c0,.37.28.65.28.84,0,1-.94,2.05-.19,3,1.49.65,2.9.28,4.58.65,1.21,2,5.23,1.78,4.85,5,1.78,1.12,4.77.09,6.64.93.93.47,1.4,1.31,2.24,1.78h.65c.47.84,1.68,1,2.15,2,.56.09,1,1.12,1.87,1.31,1-.94-.75-1.5-.37-2.43.56-.1.74.28,1.12.37.84-.28,0-1.21,0-1.87-1.31-.93-3.55-.84-4.3-2.33-2.24.18-3.64-2-5.51-.94-.47-.09.19-.28,0-.56-2,.56-3.27-.56-4.49-1.21,0-.28-.18-.47-.09-.84a24.11,24.11,0,0,0-6-2.43c-.37-1.12-1.49-1.59-1.21-3.27,0-.37-.47-.37-.47-.75.94-1.21-1.77-1.87-.47-2.89a6.31,6.31,0,0,1,1.41.09c-.1-.37-.38-1.4-.94-1.68-.75.09-.93-.38-1.4-.47,0-.19.28-.09.28-.28-.19-.28-.84,0-.75-.47.66-1,2.15-.09,3,0h1.5c5,.28,10.27,1.5,14.94,2.15.66.09,1.22.47,2.06.19,1.68-1.5,4.48-5,1.68-7.48a6.09,6.09,0,0,0-1.68-3.45c-.19-.1-.84-.66-.94-.66-.28-.09-.28.28-.46.1-1.68-1-2.34-3.27-4.39-4.11-.19-.19,0-.1,0-.38-.66-.09-1.12-.37-1.22-1,.66.09,1.31.56,2.06.28-.66-.75-2.34-.47-2.9-1.22,0-.37-.19-.84-.19-1.12.66,0,.94.37,1.69.37-.1-.56-1.5-.65-2.15-1.12a1.66,1.66,0,0,0,.18-1.49c.94.19,1.87,1.4,3,1.77-.37-1.21-2.24-1-2.61-2.33.93-.09,1.4,1,2.24,1.4-.09-1.21-1.77-1.31-2-2.15.93.28,1.21,1.22,2,1.68a.66.66,0,0,0-.37-.65c.19-.19.47.37.84.28.09-.65-1.4-.56-1.59-1.4.66-.66,1.59.46,2.24.65.19-.28-.65-.37-.56-.75.38.1-.09-.46.66-.18a1.28,1.28,0,0,1,.09-.66c0-.37-.65,0-.75-.28s.75-.09.94-.46-.38-.19-.47-.38a.61.61,0,0,0,0-.56c.28.1.66.1.84.28.19-.65-.75-.18-.75-.65.66,0-.37-.66.57-.47,0-.09-.28-.09-.38-.09-.09-.38.38-.1.56-.19-.75-.56-3.55-.28-2.8-1.4a1.62,1.62,0,0,0,1.77.75c.1-.66.75-.38,1.69-.56-.19-.28-.94,0-.84-.47.37-.09.93.09.93-.19-.37-.09-1.4.19-1.68-.28.56-.28,1.31.1,2,.1-.93-.56-2.62-.47-3.27-1.41-.65,0-.93.38-1.49,0,.93-.37,2.14.19,2.89,0-.75-.65-2.61-.28-3.27-.18-.09-.47.19-.56.38-.75a1.76,1.76,0,0,0-.94.09c.28-.65.75-.18,1.12-.09a2.59,2.59,0,0,1,2.06-.56c-.47-.84-1.59.19-2.06-.28a2.8,2.8,0,0,1,1.22-.75c0-.18-.47.1-.28-.28.18-.09.28.1.37.1.28.09.19-.85.28-1.22.09-.19.47-.28.56-.56s0-.65.09-.84.28-.09.38-.19a8.7,8.7,0,0,0,.56-1.4c.09-.09.37-.19.47-.28.65-.93.93-2.05,1.68-2.71a27.47,27.47,0,0,1,.74-5.7c1.59-.18,1.22-2.43,2.43-3a4.22,4.22,0,0,1,.19-1.12c1.12-.46,2.34-.18,2.8-1.12.28-.65.1-1.4.56-2,.75-.38,1.78-.28,2.43-.75s.75-2,1.78-2.62c.56-.37,1.49-.37,1.87-1.12.28-.56.09-1.12.18-1.59.19-.28.75-.09.84-.37,0-.47-.84-.19-1-.47,0,1.87-.47,3.27-2.25,3.37-.74.74-.56,1.4-1.12,2.05-.84,1.22-2.52.38-3.36,1.59.19,1.87-.65,2.71-2.34,2.62a7.61,7.61,0,0,1-.18-1.5c-.47.19.18,1-.38,1.12a1,1,0,0,1,.28-1.12c-.46-2,2.81-2.43,1.4-4.48.29-2,1.69-2.71,2.06-4.49a2.49,2.49,0,0,1-1.21-.65c-.1.19.18.56-.1.75-.65-.19-.93-.94-.65-1.78-1.59-.28-2.15,2-1.59,3-1.12.66-.37,2.06-.47,3.08s-.84,1.5-1.49,2.15c-.1.84.28,1.4.28,2.15-.84.75-1.87,2.06-1,3.55-.47.84-1.49,1.12-2.15,1.78.38.56.94,1.58.19,2.24a1.79,1.79,0,0,0,.47,1.49c-.1.28-.38.47-.47.66.37,2.15-1.12,3.17-1.68,4.76-.66.37-1.22,1.5-2,1.87-.19.09-.84.19-.84.09-.19,0-.19-.09.09-.28a7.56,7.56,0,0,1,.75-3.45c.28-.84,1.12-1.78,1.21-2.81.09-.56-.19-1-.09-1.58a17.27,17.27,0,0,1,.84-3.18c.37.09.18.65.56.65.28-.56-.56-1.58.19-2.33.28.18.18.65.56.75.28-.38-.19-.85-.19-1.13.19.1.28.19.28.28.19-.18-.19-.56-.28-.65.19-.09.56.47.84.56-.09-.56-.84-.56-.93-1,.74-.09.93,1.12,1.77,1.31.19-.93-1.21-1.12-1.4-2,.19-.47.75-.56.93-.94,0-1-.65-1.31-.65-2.33.75-.1.65.65.84,1,.75-.37.56.66,1.31.56.09-.74-1.12-1.12-1.31-2,.19-.46.65.56,1.12.47a1.32,1.32,0,0,0-1.21-1.31c-.66-1,0-2.24-.38-3.36.66-.28,1.31.47,2.06.84.47-.19.37-.75.84-.56-.09-.37-.37-.47-.75-.47.38-.65-1.4-.75-1.87-.75a5.66,5.66,0,0,0,.84-1.86c1.5-.28,1.87-1.69,3.18-2.15.37-.66,1.21-.84,1.78-1.4.18.18-.29.46,0,.84-.1,0-.1-.19-.19-.19a4.27,4.27,0,0,0,.19,1.49c.65-.56.18-2.24.93-2.8,0,1.22-.47,2.62-.09,3.55.65,0,.28-1.12.37-1.77.47,2,2.24,3.36,1.77,6.07.85-.47-.18-2.06.28-3.08.19.56.75.65.94,1,.28-.18,0-.74,0-1,.47,0,.37.37.56.56.09-.1.28-.38.37-.1.38-.09.19-.65.38-.93.65.19.74,1,1.49,1.12a1.85,1.85,0,0,0,.94-.93c0-.75-1.13-1.4-.38-2.06.75.37.47,1.68.94,2.24.46-.18.09-1.3.65-1.49.19,0-.09.28.19.37.18-.18.28-.56.46-.75s.1.29.38.19c.46-.28,0-.75.09-1.4.66-.28,1.31-.56,2.06-.84v-1c-.38-.37-.84-.65-1.12-.93.09-.66.74-.38,1.12-.47.09-.28-.28-.19-.47-.19.19-.09,0-.56.19-.65-.1-.28-.56-.19-.56-.47.18-.37.74-.46,1.4-.46.09.46-.28.37-.28.65.37.09.93-.28,1.21-.56,0-.37-.37-.37-.37-.65.09-.47.37.37.65.28-.09-.75-.84-.85-.65-1.69,0-.46-.38,0-.47-.37.47-.37.56-.84.56-1.77.37.18.47.65.56,1,.28,0,.37-.28.56-.46,0-.66-.56-.84-.56-1.5.37-.19.94.19,1,.38,1,1.49-1.4,3.17-.75,4.2a5.25,5.25,0,0,0,1.87-3.46c2,1.31,2.43,4,2.62,7.1.65-.65.09-1.87.09-2.71a14.37,14.37,0,0,0-.47-2.8c.38.09.75.28.75.75a5.81,5.81,0,0,1,3.55,1,5.62,5.62,0,0,1,3.46.37c.65-1.12-.56-2.62-.66-3.83.28-.19.1-.28.56-.19.1-.46-.28-.46-.28-.75.19-.09.47-.09.38-.46-.28-.19-.94-.47-.75-.94a2.79,2.79,0,0,1,2-.18c0-.28.19-.19.37-.47-.09-1-1.21-.84-.93-2-.09-.28-.19-.56-.47-.66.56-.28.19-.93.47-1.4.19-.09.84,0,.93.19.1-.65-.46-.65-.65-1,.47-.47,1.87.28,2.8.38.28-.19-.28-.66,0-.75s.56-.1.56-.47c.38.28.75-.09,1.22,0-.19-1.4-2.43-1.59-2.71-3.18,1.31.1,2.61-1,4.11-.65.47-.75.19-1.12.65-1.49ZM94.29,89a.94.94,0,0,1-.74.37C93.55,89,93.92,89.07,94.29,89Zm-.37-.93h0c-.09.09-.75.65-.75.46C93.17,88.14,93.55,88.14,93.92,88.05Zm-1.78.65c.38.19-.28.75-.46.37S92.05,88.89,92.14,88.7Zm3.93-20.55a.3.3,0,0,1,.28.28.25.25,0,0,1-.28.28.29.29,0,0,1-.28-.28C95.88,68.24,96,68.15,96.07,68.15Zm-.28,2.71c.18,0,.37.09.37.28s-.19.28-.37.28-.38-.1-.38-.28S95.6,70.86,95.79,70.86Zm-1.87-2.62a.25.25,0,0,1,.28.28.28.28,0,0,1-.56,0A.25.25,0,0,1,93.92,68.24Zm-.56-14.85c.19,0,.28.19.28.37s-.09.38-.28.38-.28-.19-.28-.38A.41.41,0,0,1,93.36,53.39Zm-.56-2.9c.18,0,.37.1.37.28s-.19.28-.37.28-.38-.09-.38-.28S92.61,50.49,92.8,50.49Zm-1.59,3.74c0,.19-.19.28-.37.28s-.38-.09-.38-.28.19-.28.38-.28A.42.42,0,0,1,91.21,54.23Zm-.75-3.55a.29.29,0,0,1,.28.28.24.24,0,0,1-.28.28.3.3,0,0,1-.28-.28C90.28,50.77,90.37,50.68,90.46,50.68ZM54.4,56a.38.38,0,1,1,.38.38A.35.35,0,0,1,54.4,56ZM55,58.9c-.18,0-.37-.09-.37-.28s.19-.28.37-.28.38.09.38.28S55.24,58.9,55,58.9Zm1.69,0c-.19,0-.29-.09-.29-.28s.1-.28.29-.28a.28.28,0,0,1,0,.56ZM57,56.19c-.19,0-.28-.19-.28-.37s.09-.38.28-.38.28.19.28.38S57.21,56.19,57,56.19Zm1,18.78c-.1,0-.19-.1-.19-.28s.09-.28.19-.28.18.09.18.28S58.14,75,58.05,75Zm-.19-2.15a.38.38,0,1,1,.47-.37C58.33,72.73,58.14,72.82,57.86,72.82Zm.93,24.29c.19.09.28.37.56.37C59.17,97.76,58.7,97.48,58.79,97.11Zm-.09-3.18c.09-.18.19-.28.19-.37.37,0,.56.19.93.09A.94.94,0,0,1,58.7,93.93Zm-14,14c-.19-.09-.1-.56-.47-.37.09-.09.19-.09.19-.28C44.5,107.48,44.87,107.76,44.69,107.94ZM48.42,110c.1-.37-.18-.47-.09-.84h.28C48.61,109.35,48.52,110.09,48.42,110Zm.28,1.12a6,6,0,0,0,.47-1.21c.19.18.28,0,.47,0,0,.46.37.56.28,1A2.18,2.18,0,0,1,48.7,111.12Zm9.63-6.35c-.19,0-.19-.19-.47-.09-.09-.29.09-.29.09-.47h.38A.61.61,0,0,1,58.33,104.77Zm.65-2.15c.28-.09.47-.19.47.19C59.26,102.71,58.89,102.9,59,102.62Zm.28-1.21c.09-.38.47-.1.65,0C59.82,101.69,59.54,101.31,59.26,101.41Zm-18,39.42c-.19-.66.75-.94.84-.38C42.07,140.83,41.51,140.73,41.23,140.83Zm-8.5,10.37c-.37-.56.47-1,.84-.56C33.57,151,33.2,151,32.73,151.2Zm2.34-1c0-.09,0-.19-.1-.19,0-.28.66-.46.66-.09S35.44,150.17,35.07,150.17Zm1.4-.65c-.28-.1-.56-.1-.47-.47.37.09.47-.19.84-.09A2.16,2.16,0,0,1,36.47,149.52ZM74.11,178c-.09-.28-.37-.38-.28-.84A.5.5,0,0,1,74.11,178Zm47,12.52a1.67,1.67,0,0,1,.75.09c-.09.09-.09.37-.19.47-.28,0-.56,0-.65-.1C120.92,190.71,121,190.62,121.1,190.53Zm-1.3-.19a.61.61,0,0,1-.56,0C119.24,189.78,119.8,189.78,119.8,190.34Zm-1.13-.47c-.09.28.19.38,0,.56-.28-.09-.56-.18-.56-.46C118.3,190,118.3,189.87,118.67,189.87ZM99.24,173.34c.19,0,0,.37.1.46-.28,0-.28-.18-.28-.37C99.15,173.43,99.15,173.34,99.24,173.34Zm10.37-66.8c0,.28-.28.38-.46.38C109.05,106.54,109.43,106.64,109.61,106.54Zm-1.21.19c.09.37-.28.28-.19.56-.56-.37-.65.37-.84.65-.37-.28-.09-.56-.19-1.12A1.8,1.8,0,0,1,108.4,106.73Zm-1.31,1c0,.37.28.37.09.65C106.9,108.41,106.62,107.76,107.09,107.76Zm-.19-2.24c-.74,1,.1,3.08-.46,4.2-.66-1.12-1.12-2.43-1.87-3.55C105.5,106.08,105.88,105.42,106.9,105.52Zm-2.89.84c.47.18.47.93.75,1.3C104.48,107.57,103.63,107,104,106.36Zm.75,16.81c.28.84-.1,2.15.09,2.71a5.22,5.22,0,0,1-.37-2.8C104.57,123.08,104.66,123.17,104.76,123.17Zm-.57-4.11c-.09.28-.37.56-.37.84C103.54,119.72,103.73,119,104.19,119.06Zm-1.21.75c.28.19-.09.47-.09.75C102.7,120.46,102.79,119.81,103,119.81ZM99,108c-.37.09-.18-.38-.37-.38C98.68,107.38,99.24,107.76,99,108Zm.19-1v.28a8.55,8.55,0,0,0-1.59-.19c.19-.09.19-.37.47-.37C97.94,107.2,98.59,107,99.15,107Zm-1.4-2c.19-.09.56,0,.65-.19.19.1,0,.19,0,.28C98.12,105.14,97,105.05,97.75,105.05Zm-.19,2.61a1,1,0,0,0-.65.94h-.38C96.63,108.13,97.1,107.48,97.56,107.66Zm-.28,3.27c-.18.47-.56-.09-.65.1-.28-.1.18-.19.09-.28C97,110.65,97.1,110.84,97.28,110.93Zm-1.49-3c.74,0,.65-.65,1.4-.65-.28.56-1,.65-1.22,1.31C95.69,108.51,95.88,108.13,95.79,107.94Zm-.47,1.41c.37-.1.09.37.19.56C95.13,110.09,95.13,109.53,95.32,109.35Zm-.56,4.76c-.28.28-.84,0-1.21,0A5.44,5.44,0,0,1,94.76,114.11ZM93.64,102.9c.37.09.75.09.93.28C94.39,103.37,93.64,103.27,93.64,102.9Zm.28-3.46c-.28.19-.37.47-.84.38C93,99.44,93.55,99.54,93.92,99.44ZM91.4,128.59c0,.37-.19.56-.38.56s-.37-.28-.37-.56.19-.56.37-.56S91.4,128.22,91.4,128.59Zm-12.71,13a.73.73,0,0,1-.75-.66.67.67,0,0,1,.75-.65.72.72,0,0,1,.75.65A.8.8,0,0,1,78.69,141.58Zm.66,8.4c0,.19-.1.38-.28.38s-.28-.19-.28-.38.09-.37.28-.37A.42.42,0,0,1,79.35,150ZM79,137.09a1.15,1.15,0,0,1-1.21-.93c0-.56.56-.94,1.21-.94a1,1,0,1,1,0,1.87ZM68.14,123.64a.57.57,0,0,1,0-1.12.52.52,0,0,1,.46.56C68.6,123.45,68.42,123.64,68.14,123.64Zm.09.47c0,.18-.28.37-.56.37s-.56-.19-.56-.37.28-.38.56-.38S68.23,123.92,68.23,124.11Zm-.56-33.82c.37.09.75.19.75.56A.73.73,0,0,1,67.67,90.29Zm.56-5.7a9.75,9.75,0,0,1,2.33,3.46C69.63,87.49,68.79,85.9,68.23,84.59Zm0-.84c.37.19.37.65.56.93C68.6,84.4,68.32,84.22,68.23,83.75Zm3.92,13.92.84.09.56-.18V98s-.09,5.14-.18,5.61v8.87l-.66.19.1-.94-.47.85-.56.09v-2.06l.28-.37-.19-.19.56-.28-.56-.18V108c.75.19,1,.84.84.47s-.84-.85-.84-.85l.1-.46.93.09-1.12-.65v-2.25l.65-.28-.65-.09.56-.19-.65-.09-.1-1.59.19-.09.28-.19h.65v-.18l-.84-.19s-.37,0-.37-.19-.56-3.64-.56-3.64ZM70.56,80a2.91,2.91,0,0,1,.66,1.12C70.84,81,70.66,80.57,70.56,80Zm4.11,10.65-3.08-4.48L74.39,81,73,86.18Zm12.24,5.51v.19l-.65.19.65.09.1,2.71-.56-.47.56.75.28,2.9-1.12.09,1,.19.1.56-.47.09.56.19v1.12H87l.46.28.38,1.68-.47.56.47-.19.28,2-.1.28.19.18-.28.1.28.56-1,.09-.46-3-1.13-5L84,96.45l2.89-.28Zm-.84-12c.28.19-.09.56-.09.66C85.7,84.68,86,84.22,86.07,84.12Zm3.46,41.2a.84.84,0,1,1-.84-.84A.84.84,0,0,1,89.53,125.32Zm0-25.78a.88.88,0,0,1,.65-.19C90.18,99.91,89.9,99.54,89.53,99.54Zm-1.78,23.73a.69.69,0,0,1,.75-.75.81.81,0,0,1,.75.75.69.69,0,0,1-.75.74A.81.81,0,0,1,87.75,123.27Zm.94-3.74a.56.56,0,1,1,.56-.56A.54.54,0,0,1,88.69,119.53Zm-2.06,12.52a.84.84,0,0,1,0-1.68.84.84,0,1,1,0,1.68Zm.56,1c0,.28-.28.47-.65.47s-.66-.19-.66-.47.29-.46.66-.46S87.19,132.79,87.19,133.07Zm-11.86-4.2c.37,0,.65.47.65,1s-.28,1-.65,1-.66-.47-.66-1S75,128.87,75.33,128.87Zm-.84-.19c-.47,0-.84-.28-.84-.65s.37-.65.84-.65.84.28.84.65S75,128.68,74.49,128.68ZM76,132c0,.38-.18.56-.46.56a.53.53,0,0,1-.47-.56c0-.37.19-.56.47-.56S76,131.58,76,132Zm-.56,1.12c.38,0,.75.28.75.56s-.37.57-.75.57-.75-.28-.75-.57S75.05,133.07,75.42,133.07Zm.1-5.23a.72.72,0,0,1,.74-.65.67.67,0,0,1,.75.65.72.72,0,0,1-.75.66A.66.66,0,0,1,75.52,127.84Zm1.4,7.48a.65.65,0,1,1-.66.65C76.17,135.6,76.54,135.32,76.92,135.32Zm.18-.75a.66.66,0,1,1,.66-.65A.64.64,0,0,1,77.1,134.57Zm0-2.15a.85.85,0,0,1-.74-.93.77.77,0,1,1,1.49,0A.85.85,0,0,1,77.1,132.42Zm.1-2.24c-.38,0-.66-.38-.66-.94s.28-.93.66-.93.65.37.65.93A.75.75,0,0,1,77.2,130.18Zm.74-2.06a.65.65,0,1,1,.66-.65A.64.64,0,0,1,77.94,128.12Zm1,1.78a.56.56,0,1,1,.56-.56A.53.53,0,0,1,79,129.9Zm.56,1.4c0,.47-.28.93-.56.93s-.56-.37-.56-.93.28-.93.56-.93S79.53,130.83,79.53,131.3Zm-.46,1a.76.76,0,0,1,.74.84.82.82,0,0,1-.74.84.77.77,0,0,1-.75-.84A.71.71,0,0,1,79.07,132.33Zm.37-4.49c-.37,0-.75-.18-.75-.46s.28-.47.75-.47.75.19.75.47A.75.75,0,0,1,79.44,127.84Zm.56-15.6-.28-.09v-.56h.56l.28.28-.09.37Zm.56-2H79.44l-.84.84-.94.56-3.92.56,2.43-1.31,1.4-.37,2.8-.56,2.34-.19h2.15l1.68.84-3,.19H81.87l-.75-.37Zm6.35,15.6c-.28,0-.56-.37-.56-.84s.28-.84.56-.84.56.37.56.84S87.19,125.88,86.91,125.88Zm.28,1.31a.91.91,0,0,1-.74.93.85.85,0,0,1-.75-.93.92.92,0,0,1,.75-.94C86.91,126.25,87.19,126.63,87.19,127.19Zm-.74,1a.84.84,0,0,1,0,1.68.85.85,0,0,1-.85-.84A.9.9,0,0,1,86.45,128.22Zm.93-1.22c-.09,0-.19-.18-.19-.46s.1-.47.19-.47.19.18.19.47S87.47,127,87.38,127Zm-.28-3.27a.57.57,0,1,1,.47-.56A.53.53,0,0,1,87.1,123.73ZM84.48,98.79l1.22,5.6.84,4.58-1.87-.65-1.12.09-3.18.19L79.25,96.36l4.21-.65ZM80.28,109l4.11-.37,1.12.28,1.12.56.1,1-1.41-.66-.56-.28H84.2l-2.89.19-2,.19-3.27.74-2.43,1.22v-.75l2.52-1.21,3.18-.75L78.22,94.59h.57Zm-1.21.1-3,.65s-2.43,1.21-2.43.84-.1-5.7-.1-7.75.38-5.8.38-5.8l4.2-.56Zm-1-12.8-4.11.56,1.21-1.4,2.34-.84h.65l.09,1.58Zm-7.2,24.47c.28,0,.47.28.47.75s-.19.75-.47.75-.46-.28-.46-.75S70.66,120.74,70.84,120.74Zm-.56,7.76a.42.42,0,0,1,.38.46.38.38,0,1,1-.75,0A.42.42,0,0,1,70.28,128.5Zm-.84-7.29a.48.48,0,1,1,.47.56C69.63,121.77,69.44,121.58,69.44,121.21Zm-.18.47a.62.62,0,0,1,.56.65.57.57,0,1,1-1.12,0A.62.62,0,0,1,69.26,121.68Zm.84,11.49a.92.92,0,0,1,.93.75c0,.46-.37.74-.93.74s-.94-.37-.94-.74S69.54,133.17,70.1,133.17Zm.74-4.58a.66.66,0,1,1,.66.56C71.12,129.15,70.84,129,70.84,128.59Zm1,4.67a.66.66,0,1,1-.65.66C71.12,133.54,71.5,133.26,71.87,133.26Zm.47-4.95A.66.66,0,1,1,73,129,.64.64,0,0,1,72.34,128.31Zm1.12,4.58c.47,0,.84.28.84.65s-.37.66-.84.66-.84-.28-.84-.66S73,132.89,73.46,132.89Zm1.68,2.43a.87.87,0,0,1,.94.84.93.93,0,0,1-.94.84.84.84,0,1,1,0-1.68Zm1.4,5.32c.38,0,.66.19.66.47s-.28.47-.66.47-.65-.19-.65-.47S76.08,140.64,76.54,140.64Zm.38-1.77c0-.28.18-.56.37-.56s.37.28.37.56-.18.56-.37.56S76.92,139.15,76.92,138.87Zm.65,1.86c.19,0,.28.28.28.57s-.09.56-.28.56-.28-.28-.28-.56S77.38,140.73,77.57,140.73Zm2.52,0a.57.57,0,1,1-.56.57A.54.54,0,0,1,80.09,140.73Zm.38-7.47c0-.47.28-.84.65-.84s.65.37.65.84-.28.84-.65.84S80.47,133.73,80.47,133.26Zm1.12-5a.86.86,0,1,1,1-.84A1,1,0,0,1,81.59,128.22ZM82.8,132a.69.69,0,0,1,.75.75.81.81,0,0,1-.75.75.69.69,0,0,1-.75-.75A.75.75,0,0,1,82.8,132ZM83,127.1c0-.56.56-.94,1.21-.94a1.16,1.16,0,0,1,1.22.94c0,.56-.56.93-1.22.93A1.09,1.09,0,0,1,83,127.1Zm1.77,5a.65.65,0,1,1-.65.65C84,132.33,84.3,132.05,84.76,132.05Zm.75,6.16c.37,0,.75.19.75.47s-.28.47-.75.47-.75-.19-.75-.47S85.14,138.21,85.51,138.21Zm.94,0c.18,0,.28.38.28.75s-.1.75-.28.75-.28-.38-.28-.75S86.35,138.21,86.45,138.21Zm.28-2.33c-.28,0-.56-.38-.56-.84s.28-.84.56-.84.56.37.56.84S87,135.88,86.73,135.88Zm.56,2.24c.18,0,.37.09.37.19s-.19.18-.37.18-.38-.09-.38-.18S87.1,138.12,87.29,138.12Zm.09-4.86a.75.75,0,1,1,.75.75A.81.81,0,0,1,87.38,133.26Zm.84-2.89c-.28,0-.56-.38-.56-.85s.28-.84.56-.84.56.38.56.84S88.5,130.37,88.22,130.37Zm.37,1c0,.38-.18.66-.46.66s-.47-.28-.47-.66.19-.65.47-.65S88.59,131,88.59,131.39Zm-.09-2.89a1,1,0,0,1-.93-1,1,1,0,0,1,.93-1,1,1,0,0,1,.93,1A1,1,0,0,1,88.5,128.5Zm1.22,4.39c.28,0,.46.28.46.74s-.18.75-.46.75-.47-.28-.47-.75A.58.58,0,0,1,89.72,132.89Zm.46-4.11c-.28,0-.56-.38-.56-.84s.28-.84.56-.84.56.37.56.84S90.46,128.78,90.18,128.78Zm.94-39.43c.18.38-.47,0-.47.28C90.37,89.54,91,89.07,91.12,89.35Zm-.66-3.64c-.09-.37.38-.28.28-.56a.74.74,0,0,0,.47.09A.77.77,0,0,1,90.46,85.71Zm.47.47c-.37-.28.28-.38.28-.66C91.58,85.8,90.93,85.9,90.93,86.18Zm2.15-15a.28.28,0,1,1-.28.28A.29.29,0,0,1,93.08,71.14Zm-.47,1.4a13.54,13.54,0,0,1-.93,3.55c-.38,1.21-.38,2.71-.94,3.74a7.61,7.61,0,0,0-1,2c-.1.46.28,1.21-.47,1.4.09-.19-.19-.37-.19-.19-.19-.09-.09-.65.09-.65a1.56,1.56,0,0,1-.28-1.87.7.7,0,0,1-.46.09c-.94-.46.46-2-.84-2-.1-.28,0-.19,0-.56-.38.09-.28.65-.47.84s-.19-.28-.47-.19c-.46.66.19,2.43-.75,2.62a12.92,12.92,0,0,1,.47-2.9c0-.37-.28-.47-.37-.65-.38.56-.38,1.4-1,1.68,0,.47,0,.84-.19,1-.37-.75.19-1.59-.18-2.53-.47.1-.47.66-.47,1.13-.93,0-.19,2.05-1.12,1.77v.56c-.47-.65-1-.75-1-1.87.47-.09.28.38.56.38.1-.94.38-1.78-.18-2.43-.47.09-.85-.1-.75.46a14.05,14.05,0,0,1-.56-4.2A100.43,100.43,0,0,0,92.61,72.54ZM82.9,84.4l-2.06,4.11,1-3.83-2.8-3.83Zm-2.15,10,2,.37.65.66-4,.56-.28-1.59ZM77.66,70.48c.84-.46.56.84.56.84a11.34,11.34,0,0,0-.84.94.29.29,0,0,0,.19.37,14.37,14.37,0,0,1,1.31.66c.65.37-.66.56-.66.56a8.91,8.91,0,0,0-1.58-.47,2.27,2.27,0,0,0-1.68.37s-1.22.84-1.87.75.37-1,.37-1a7.7,7.7,0,0,1,1.12-.93c.38-.28-.19-.56-.19-.56s-.74.28-1.49-.66,1.49-.09,1.49-.09a7.65,7.65,0,0,1,1.22.28,2.12,2.12,0,0,0,.93,0A2.79,2.79,0,0,1,77.66,70.48Zm-6.72-17c-.56-.47.65-.56.65-.56a4.39,4.39,0,0,0,1.59.56,2,2,0,0,0,1.68-.28s1.31-.75,2-.56-.37,1-.37,1l-1.12.84c-.37.28.09.56.09.56s.75-.28,1.4.75-1.49,0-1.49,0-.66-.19-1.22-.38a1.83,1.83,0,0,0-.93-.09,3.31,3.31,0,0,1-1.21.84c-.85.47-.47-.84-.47-.84s.75-.56.84-.84-.09-.37-.09-.37A3.75,3.75,0,0,1,70.94,53.48ZM71.41,75c.28,1-.1,2.15,0,3.36,0,.47-.19-.19-.38.09a3.49,3.49,0,0,0,.38,1.5,1.53,1.53,0,0,0-1.87-.37c.18,1.21,1.3,2,1.21,3.17-.37-.09-.56-.37-.84-.56-.19.19,0,.66,0,.66-.65-.19-.65-2-1.4-2.43-.19.46.19,1,.28,1.58-.37-.28-.65-.84-1.22-.93-.28.09,0,.37,0,.56.19,0-.09-.47.29-.28a11.54,11.54,0,0,1,1.58,2.52c-1.21-.46-1.4-2-2.52-2.61-.28,0-.19.56-.19.84-.37-.19-.46-.66-.84-.84-.18.56.75.74.66,1.59a1.54,1.54,0,0,1-.75-1.22c-.37.09,0,.47-.09.84-.28,0-.19-.19-.47-.09.65.84,1.59,1.4,1.77,2.71.19.18.75.37.38.74a28.39,28.39,0,0,1-2.52-3.45c-.28.28-.38.56-.84.28,0,.65.65.65.65,1.31-.47.46-.84-.38-1.22-.47a31.34,31.34,0,0,0-1.21-7.75C65,75.53,68.14,75,71.41,75ZM68.14,88.05c-.38-.28-.85-.38-.75-1A1.17,1.17,0,0,1,68.14,88.05Zm-.57-4.67A2.13,2.13,0,0,1,67.11,82C67.48,82.25,67.48,82.82,67.57,83.38Zm-.28,4.67c-.74.09-.46-.84-.93-1C66.64,86.83,67.11,87.49,67.29,88.05Zm-2.05-2.34c-.09,0,0-.28-.19-.28,0-.09.28-.09.38-.09C65.52,85.62,65.24,85.52,65.24,85.71ZM63.84,85l-.38-.56C63.65,84.59,63.84,84.78,63.84,85ZM60.1,72.54c-.19,0-.28-.19-.28-.37s.09-.38.28-.38.28.19.28.38S60.29,72.54,60.1,72.54Zm.56,2a.25.25,0,0,1-.28-.28.31.31,0,0,1,.28-.28.24.24,0,0,1,.28.28A.29.29,0,0,1,60.66,74.5Zm.75,13.17a2.34,2.34,0,0,1,1.77,1.22C62.25,88.79,62,88.14,61.41,87.67Zm-.93,17.75c0-.18-.19-.18-.1-.46.47,0,.47.46.84.46C61,105.7,60.76,105.24,60.48,105.42Zm.09-10.09c.28.1.75.1.75.38C61.13,95.52,60.48,95.71,60.57,95.33Zm0-4.67a4.63,4.63,0,0,1,2.24.47C61.88,91.5,61.22,90.85,60.57,90.66Zm2.24,3.93c.09-.28.56,0,.75,0C63.46,94.77,62.9,94.68,62.81,94.59Zm.56-8.13a2.31,2.31,0,0,0,.28-.84c.56.37,1.22.65,1.5,1.4C64.4,86.83,64,86.27,63.37,86.46Zm1.12,5.6c.47.19,1.31-.09,1.87.28A1.53,1.53,0,0,1,64.49,92.06Zm-.65-5c1.59.28,2.61,2,4.11,2.8-.19.47-.56-.19-.75-.28C66,89.07,64.21,88.33,63.84,87Zm2.89,37.83c0-.18.28-.28.75-.28s.75.1.75.28-.28.28-.75.28S66.73,125,66.73,124.85ZM66.45,134c-.28,0-.56-.28-.56-.75s.28-.75.56-.75.56.28.56.75S66.83,134,66.45,134Zm.19-2.15c-.28,0-.56-.37-.56-.75s.28-.74.56-.74.56.37.56.74S66.92,131.86,66.64,131.86Zm.28-2.52c0-.28.28-.56.75-.56s.75.28.75.56-.28.56-.75.56S66.92,129.71,66.92,129.34Zm1.31,5.7a.67.67,0,0,1-.75-.66.73.73,0,0,1,.75-.65.67.67,0,0,1,.75.65A.73.73,0,0,1,68.23,135Zm.93-5.42a.54.54,0,0,1-.56-.56.6.6,0,0,1,.56-.56.53.53,0,0,1,.56.56A.54.54,0,0,1,69.16,129.62Zm-5,14.48c-.28.28-.66-.28-.84-.47C63.65,143.26,63.93,143.82,64.12,144.1ZM52,151c.38-.19,1,.19,1.22.47A1.17,1.17,0,0,1,52,151Zm3.09,10.46c0-.09,0-.18-.1-.18.1-.75,1-1,1.78-.84a1.63,1.63,0,0,1-1.68,1Zm.65,2.71c.47-.46.56-1.59,1.4-1.4C56.83,163.44,56.36,164.28,55.71,164.18Zm2.06-13.92a19.07,19.07,0,0,1,3,.66C59.73,151.1,58.23,151.1,57.77,150.26Zm6.07-1.87c-.38.47-.66.38-1.22.19-.09.38.19.47.38.56-.1.28-.66,0-.56.28s.65.28,1,.38a1.58,1.58,0,0,1-.93.18c-.19.28.19.38,0,.47-1.31-.09-2.24-.65-3.46-.84,0,.19.1.19.19.19-.65.28-1.59-.56-2.24-.38-.37.19.28.38,0,.56-1.31-.18-2.06-.93-3.18-1.21.47,1.21,2.24,1.12,2.71,2.33-2.33-.93-4.3-2.14-5.14-4.57,1.12-.47,2.9-.75,4.58-1.22,1.4-.37,2.43-1.68,3.36-.75A3.34,3.34,0,0,1,62.62,146h.94a1.62,1.62,0,0,0,2.24.93c.28.19.37.56.65.65a1.65,1.65,0,0,1-2.61.84Zm6.82,25.32c0-.37.56-.19.65-.37C71.59,173.52,70.94,173.71,70.66,173.71Zm5.42-.93c0-.38.28-.56.37-.84.19.09.09.56.19.74-.19.19-.19.19-.56.1Zm1,1.4c-.65-.1-.28-.66-.18-1C77.2,173.24,77.2,173.8,77.1,174.18Zm2.62-3.83c.28,0,.19.37.28.56C79.53,171.1,79.53,170.54,79.72,170.35Zm.19-.19c-.38-.65-.38-1.77.56-1.49C80.28,169.23,80.75,170.25,79.91,170.16Zm1.3,2.62c-.09,0-.09.18-.09.28-.19-.1-.28-.28-.47-.38.28-.74.84-1.21.94-2.05.18.84-.1,1.68.37,2.33-.09.38-.84-.09-.47.38C81.4,173.62,81.21,173.15,81.21,172.78Zm.75,3.36c-.37-.09-.19-.65-.47-.75.19-.28.28.47.66.28C82.24,176,82.05,176,82,176.14Zm2.43-1.68c-.47.09-.47-.38-.75-.38.1-.84-.37-1.12-.46-1.77.28.09.09-.28.37-.19.19.28.09.84.09,1.22.19-.28.47,0,.75-.28.19.37.37,1.21,0,1.4Zm.47-4.3c-.38.09-.1-.56-.19-.75C84.86,169.51,84.86,169.88,84.86,170.16Zm.84,4.67v-.56c.37,0,.65,0,.75.19.09.37-.28.47-.75.37Zm0-6.82c.18.1.28.38.56.38,0,.28,0,.46-.09.56C86,168.76,85.32,168.57,85.7,168Zm1.21.75a1,1,0,0,1-.28-1.21H87A2.73,2.73,0,0,1,86.91,168.76Zm.94,2.34c-.28,0-.38-.47-.19-.56C88,170.35,87.75,170.82,87.85,171.1Zm6.35-28.87a.43.43,0,0,1-.37-.47.38.38,0,1,1,.74,0A.43.43,0,0,1,94.2,142.23Zm2-.93c0,.46-.47.37-.65.56C95,141.3,95.88,141.58,96.16,141.3ZM96.53,173c-.46-.09-.56-1-.18-1.21C96.91,171.84,96.63,172.59,96.53,173Zm2.06-.09c-.28-.28-.19.28-.56.19-.09-.28.09-.47.09-.66C98.5,172.4,98.68,172.59,98.59,172.87Zm.75-34.47c.09-.37.56-.47.56-.84h.28A1,1,0,0,1,99.34,138.4Zm6.72,3.08c-.09-.09-.18-.09-.37-.09-.09-.56.47-.28.47-.56.37,0,0,.37.18.37C106.44,141.39,106,141.11,106.06,141.48Zm1.5-1.77a.27.27,0,0,0-.1-.47c0-.19.19.09.19-.09C107.93,139.15,107.93,139.61,107.56,139.71Zm2-2.43c-.19.09-.47-.1-.47.09-.09-.09.38-.47.38-.65-.19-.38-.38.18-.66-.1.1.1.19.1.19.28-.93.19-1.22,1.5-2.34,1.87-.09.28.1.38.1.56-1.12.56-1.59,2.06-3.09,2,.1-.29.47-.29.56-.57-.09-.65-.74-.09-1.21-.37.19,0,.56-.37.56-.84-.75.19-1.59.65-2.24.84a1.72,1.72,0,0,1-.37-1.21c-.19,0-.28.09-.28.18-.1-.37.84-.65,1-1,0-.19-.37-.28-.37-.1a2.84,2.84,0,0,1,.56-1c-.09-.28-.28-.46-.37-.74l-.75.18c-.38.1.09-.46-.19-.56-1.77.94-2.8,2.62-4.58,3.46.38-.93,1.31-1.68,1-2.8-1,1.4-1.68,3.17-2.89,4.48a1.34,1.34,0,0,0-1,.47c.09,0,.18.28.18.56s-.09.56-.18.56H93l.1.56-1.59,3.27-2.15,1.31-2.33,2-2.15,1.77-2.34,2.9-.93-.19,1.12-3.27-.56-.37-.94,2.34-.93,1.77L78.79,156l-1.78,6-2.71-.56L73,167l-1.58,5.41-1.31.19-1.31-2.52-2.9-2.15,6.73-7.66-2.15-.19,3.27-4.58,1.78-2.05-2-.84-3.08-1.5L69.91,149l.37-1.69a13.21,13.21,0,0,0,6.36,4l1.3.56,4-2.33,1.78.74,6-4.67,1.77-2.33.09-.75c-.18-.19-.37.19-.56-.09a7.7,7.7,0,0,1-.84-3.09c.56.1.56-.56.66-.84.46.28.46,1,1.12,1,.28.09.28-.28.37-.37-.28-.56-.84-.84-1.12-1.5-.28.19-.75.19-.93.47,0,.09-.1.09-.19.09s-.28-.28-.28-.75.09-.74.28-.74a.2.2,0,0,1,.19.18c.28.1.18.66.56.66.18-1-.47-1.87-.28-2.71a1,1,0,0,1-.19-.65c0-.38.09-.75.28-.75s.28.28.28.65l.09.1c0-.19.1-.28.19-.28s.19.28.19.56v.09a14.64,14.64,0,0,0,1.21,1.49c.47-.56-.56-1.3-1-1.58.28-.38.19-.85-.37-.85.75-.84.56-3.17.09-4.2l.19-.19v-.18c0-.28.19-.56.28-.56s.19.09.28.18a8.43,8.43,0,0,0,.84-2.61,11.58,11.58,0,0,1,2.43-4.49,12.85,12.85,0,0,0,7.1-1.68v1.68c-.56.84-2.34.38-2.24,1.78.18.19.47-.19.84-.09,0,.37-.19.56.09.74,1-.18,1.5-.93,1.68-2.05.47,0,.56-.28.66-.66.74,1.78.28,4.77.28,6.64.09.56.75.37,1,.65a8.34,8.34,0,0,0-.1-2.15c.75.1.66-1.59.75-2.43.93,1-.19,2.71.47,3.74.74-.28-.1-1.87.37-2.24.47.74.37,2,.93,2.71.19,0,.19-.28.28-.38.38.1.19.66.47.84.38,0,.47-.18.84-.18.38.28,0,1.4.38,1.68.56-.47-.1-2,.46-2.62.56.47.1,1.12.19,1.78s.65,1,.75,1.68c.09.93-.19,1.77-.1,2.52a5.38,5.38,0,0,1,.28,1c.38,1.4-.65,1.49-1.21,2.71ZM90,142.88c0-.18.09-.37.28-.37s.28.19.28.37-.1.38-.28.38S90,143.16,90,142.88Zm24.66,3.93a.7.7,0,0,1-.84-.1C114,146.43,114.47,146.71,114.66,146.81Zm-2.06-.19c0,.37-.74.09-.65-.19A.53.53,0,0,1,112.6,146.62Zm10.09-27c-.47-.09-.75-.84-.37-1.12C122.88,118.5,122.88,119.15,122.69,119.62Zm.47-4.86c.19,0,.19.1.28.1-.28.37-.19,1.12-.75,1.12A1.26,1.26,0,0,1,123.16,114.76Zm-.66-.74c.38.09-.09,1.12-.37.84A7.71,7.71,0,0,0,122.5,114Zm-1.21,3.92c.37,0,.37.37.37.65a1.29,1.29,0,0,1-.65.28A2.82,2.82,0,0,1,121.29,117.94Zm-.93,1.87c-.1.93.09,1.68-.56,2.15C119.33,121.21,119.14,119.81,120.36,119.81Zm-.66,2.71c1.12-.66.66-3,2-3.46,1,.56.1,1.78-.46,2.15,0,1.21-.56,2.06-.38,3.36-.37.19-.93.38-1.3.56-.19.38.09,1.22-.38,1.22C119.05,125.32,119.05,123.36,119.7,122.52ZM119,127c.18.28.09.84-.29.75C118.49,127.47,118.49,126.91,119,127Zm-.94.66c0,.18.09.18.09.37-.28.09-.74.28-.93.09C117.09,127.56,117.65,127.66,118,127.66Zm-5.42,4.2c-.56-.47-.56-1.49-.93-2.15.19-.19.19.47.47.47.09,0,.18-.19.28-.19a9.56,9.56,0,0,1-.47-2c.37.09.37.56.56.84,1.4-.37.09-1.87-.19-2.52.28-.56.84.19.94-.38.28-.09.28.19.46.19a5.46,5.46,0,0,1-.46,1.31C113.82,128.87,112.14,130.37,112.6,131.86Zm1.78-6.54c-.47-.09-.56-.65-.56-1.12.18.28.28.56.74.47A1.35,1.35,0,0,0,114.38,125.32Zm2.52-18.12c-.37-.47-1-.75-.84-1.78a9.32,9.32,0,0,0,2,.75C118.11,107.1,117.18,106.82,116.9,107.2Zm9.34,6.26c-.56-.38-.65-1.31-1-2a.34.34,0,0,0,.28.1c0-.56-.65-.56-.56-1.22.66-.09.38.84.75,1,.19.09.19-.09.19-.28C126,111.87,126.71,112.52,126.24,113.46Zm1.59.18c.09-.46-.37-.46-.19-.93.28.28.56.47.56.93Zm6.07-14.76a1.52,1.52,0,0,1-.75-.18c.19-.47.66-.66.57-1.22C134.28,97.48,134.18,98.7,133.9,98.88Zm-57.17,4.49.84-2.71-2,.19ZM65.8,124.67V125h.28C66.08,124.76,66.08,124.57,65.8,124.67Zm49.7,25.78c.19.09.56.19.75.28C116.25,150.45,115.59,150.36,115.5,150.45Zm-81.37-48.3a2.32,2.32,0,0,0,.28,1.22A1,1,0,0,0,34.13,102.15Zm47.64.66.85-2.71-2.15.28ZM65.33,129.9c-.65.18-.46.84-.46,1.49h.37v-.28a1.28,1.28,0,0,1,.19-.65C65.43,130.18,65.61,130,65.33,129.9Zm-.37,3v-.19c0-.09-.09-.19-.09-.37s.09-.56.28-.56c0-.1-.1-.19-.19-.38A1.67,1.67,0,0,0,65,132.89ZM34.6,100.19c-.1.19-.28.28-.19.56C34.79,100.85,34.79,100.28,34.6,100.19Zm58.48,36.15c-.1.75-.94,1.22-.56,2.15.09,0,.18,0,.18.1.66.09.75-.38.94-.66.19.28.37.47.65.47C95.69,137.75,94.29,136.34,93.08,136.34ZM82.8,78.42c.1.38-.37.28-.28.66C83,79.27,82.9,78.14,82.8,78.42ZM69.07,81.13c.28.19.28.75.56.94C69.72,81.51,69.35,81,69.07,81.13Zm23.82,60.63v0Z"/></svg>