<svg id="f5ced8c5-c7a5-42b2-83ce-712aae2216c9" data-name="Layer 1" xmlns="http://www.w3.org/2000/svg" viewBox="0 0 179.84 207.52"><defs><style>.f6a82422-9989-47e1-ac1a-f6b0235a35d0{fill:#fff;}</style></defs><path class="f6a82422-9989-47e1-ac1a-f6b0235a35d0" d="M92.47,67.94l-.75-2.56c-.3-1-.6-2.25-.9-3.45s-.6-2.4-.9-3.46h-.15l-.9,3.61c-.3,1.2-.6,2.25-.9,3.45l-.75,2.41Z"/><path class="f6a82422-9989-47e1-ac1a-f6b0235a35d0" d="M32.24,139.88l57.68,33.34,57.67-33.34L89.92,106.54Zm57.83.45.75-3.3,2.55-8.26h3.91v21.17h-3V138.83a11.35,11.35,0,0,1,.15-2.25c0-.75.15-1.51.15-2.26s.15-1.35.15-1.8h-.15l-1.5,5.11-2.25,6.76H89l-2.26-6.61-1.5-5.11h-.15c0,.45.15,1.05.15,1.8s.15,1.51.15,2.26.15,1.5.15,2.25v11.11h-3V128.92h3.9L89,137.18l1,3.15Z"/><path class="f6a82422-9989-47e1-ac1a-f6b0235a35d0" d="M29.84,71.84v64l55.42-32ZM48.46,96.47v18H44.71v-18H38.1V93.32H55.22v3.15Z"/><path class="f6a82422-9989-47e1-ac1a-f6b0235a35d0" d="M129.87,109.39a4.5,4.5,0,0,0,1.35,1.5,4.26,4.26,0,0,0,1.8.6,2.63,2.63,0,0,0,1.81-.6,3.28,3.28,0,0,0,1.35-1.5,6.63,6.63,0,0,0,.9-2.4,20.43,20.43,0,0,0,.3-3.16,11.29,11.29,0,0,0-1.2-5.55,3.61,3.61,0,0,0-3.31-2,3.76,3.76,0,0,0-3.3,2,11.29,11.29,0,0,0-1.2,5.55,18.74,18.74,0,0,0,.3,3.16A17.81,17.81,0,0,0,129.87,109.39Z"/><path class="f6a82422-9989-47e1-ac1a-f6b0235a35d0" d="M150,135.83v-64l-55.43,32ZM127.17,95.72a7.26,7.26,0,0,1,6-2.85,8.91,8.91,0,0,1,3.46.75,5.86,5.86,0,0,1,2.55,2.1,8.26,8.26,0,0,1,1.65,3.46,13.93,13.93,0,0,1,.61,4.5,14.9,14.9,0,0,1-.61,4.66,10.55,10.55,0,0,1-1.65,3.45,11.73,11.73,0,0,1-2.55,2.26,8.34,8.34,0,0,1-3.46.75,8.9,8.9,0,0,1-3.45-.75,5.27,5.27,0,0,1-2.55-2.26,8.36,8.36,0,0,1-1.66-3.45,14.61,14.61,0,0,1-.6-4.66,13.63,13.63,0,0,1,.6-4.5A8.4,8.4,0,0,1,127.17,95.72Z"/><path class="f6a82422-9989-47e1-ac1a-f6b0235a35d0" d="M32.24,67.79l57.68,33.34,57.67-33.34L89.92,34.44Zm66.69,8.86H95l-1.66-5.71H86.31l-1.65,5.71H80.91l6.91-21.18h4.35Z"/><path class="f6a82422-9989-47e1-ac1a-f6b0235a35d0" d="M89.92,10.86,9.41,57.27v93l80.51,46.41,80.5-46.41v-93Zm64.73,130.37-64.73,37.4-64.74-37.4V66.44L89.92,29l64.73,37.4Z"/></svg>