<svg id="f0fcec85-0564-4ac0-8172-9573e3a8cdec" data-name="Layer 1" xmlns="http://www.w3.org/2000/svg" viewBox="0 0 179.2 65.51"><defs><style>.e41885e1-ad60-44dc-b8a7-71fc78848408{fill:#fff;}</style></defs><path class="e41885e1-ad60-44dc-b8a7-71fc78848408" d="M133.8,45.39V44c0-.92-.45-1.28-1.73-1.28H129.3v4h2.77C133.35,46.67,133.8,46.31,133.8,45.39Z"/><path class="e41885e1-ad60-44dc-b8a7-71fc78848408" d="M25,21.33V19.4c0-.62-.39-1-1.17-1H20v3.95H23.7C24.4,22.38,25,22.15,25,21.33Z"/><path class="e41885e1-ad60-44dc-b8a7-71fc78848408" d="M24.44,26.33H20v4h4.27c1.08,0,1.43-.51,1.43-1.24V27.53C25.72,26.72,25.29,26.33,24.44,26.33Z"/><path class="e41885e1-ad60-44dc-b8a7-71fc78848408" d="M141.31,42.55c-1.86,0-2.55.64-2.55,1.84v3.84c0,1.2.69,1.84,2.55,1.84s2.56-.64,2.56-1.84V44.39C143.87,43.19,143.18,42.55,141.31,42.55Z"/><path class="e41885e1-ad60-44dc-b8a7-71fc78848408" d="M60.52,42.55c-1.86,0-2.55.64-2.55,1.84v3.84c0,1.2.69,1.84,2.55,1.84s2.56-.64,2.56-1.84V44.39C63.08,43.19,62.39,42.55,60.52,42.55Z"/><path class="e41885e1-ad60-44dc-b8a7-71fc78848408" d="M70.59,42.72H68.07v4h2.52c1.27,0,1.72-.37,1.72-1.28V44C72.31,43.08,71.86,42.72,70.59,42.72Z"/><polygon class="e41885e1-ad60-44dc-b8a7-71fc78848408" points="92.63 26.95 97.01 26.95 94.8 18.93 92.63 26.95"/><path class="e41885e1-ad60-44dc-b8a7-71fc78848408" d="M154.85,18.89h-3.72v5.66h3.72c1.44,0,2-.58,2-1.74V20.56C156.83,19.43,156.29,18.89,154.85,18.89Z"/><path class="e41885e1-ad60-44dc-b8a7-71fc78848408" d="M17.35,42.72H15.07V49.9h2.28c1.62,0,2.12-.55,2.12-1.81V44.53C19.47,43.27,19,42.72,17.35,42.72Z"/><path class="e41885e1-ad60-44dc-b8a7-71fc78848408" d="M161.49,42.72H159v4h2.52c1.28,0,1.73-.37,1.73-1.28V44C163.22,43.08,162.77,42.72,161.49,42.72Z"/><path class="e41885e1-ad60-44dc-b8a7-71fc78848408" d="M0,0V65.51H179.2V0ZM20.47,48.12c0,1.52-.63,2.68-3.09,2.68H14.07v-9h3.31c2.46,0,3.09,1.16,3.09,2.68Zm8.69,2.68H23.41v-9h5.73v.9H24.41v2.92h4.4v.89h-4.4V49.9h4.75Zm-4-16.37H14.29V14.28H24.75c4.5,0,5.7,1.82,5.7,4.65v1.78a3.44,3.44,0,0,1-2.21,3.18,3.87,3.87,0,0,1,3,3.8v1.78C31.26,32.38,29.83,34.43,25.14,34.43ZM35.42,50.8H34.15l-3.37-9h1l3,8.11,3-8.11h1ZM32.61,14.28h5.82l4,9.07,4-9.07H52.3l-7,14.42v5.73H39.59V28.7ZM46.51,50.8H40.76v-9h5.73v.9H41.76v2.92h4.4v.89h-4.4V49.9h4.75Zm8.42,0H49.44v-9h1V49.9h4.49Zm9.15-2.52c0,1.53-.93,2.69-3.56,2.69S57,49.81,57,48.28V44.34c0-1.53.93-2.69,3.55-2.69s3.56,1.16,3.56,2.69Zm-5-13.85L53.65,14.28h5.46l3.34,12.87,3.72-12.87H72L75.7,27.15,79,14.28H84.5L79,34.43H72.52L69.08,21,65.63,34.43Zm14.2,11c0,1.28-.7,2.12-2.72,2.12H68.07v3.2h-1v-9h3.52c2,0,2.72.85,2.72,2.13ZM83.93,50.8,83.71,43,81,49.66H79.56L76.84,43l-.23,7.82h-1l.31-9h1.36l3,7.16,3-7.16H84.6l.31,9Zm9.89,0H88.07v-9H93.8v.9H89.08v2.92h4.4v.89h-4.4V49.9h4.74Zm10,0h-1.35l-4.73-7.94V50.8h-1v-9H98.1l4.73,7.94V41.82h1ZM99.14,34.43l-.85-3H91.35l-.85,3H84.88l6.39-20.15h7.06l6.43,20.15Zm14,8.29h-3.1V50.8h-1V42.72H106v-.9h7.21Zm3.6-8.29H111V19.24h-5.85v-5h17.44v5h-5.85Zm8.42,16.14a11.6,11.6,0,0,1-3.09.4c-2.47,0-3.26-.9-3.26-2.64v-4c0-1.78.86-2.66,3.38-2.66A12.28,12.28,0,0,1,125,42l-.12.86a14.46,14.46,0,0,0-2.66-.27c-1.88,0-2.38.48-2.38,1.81v3.93c0,1.3.45,1.78,2.28,1.78a10.16,10.16,0,0,0,2.07-.19V46.76h1Zm.8-36.29h14.57v4.57h-8.84v3.06h8.14v4.58h-8.14v3.37h8.84v4.57H126Zm8.5,36.52-2.24-3.23H129.3V50.8h-1v-9h3.78c2,0,2.73.85,2.73,2.13v1.5a1.85,1.85,0,0,1-1.48,2l2.34,3.37Zm10.38-2.52c0,1.53-.94,2.69-3.56,2.69s-3.56-1.16-3.56-2.69V44.34c0-1.53.94-2.69,3.56-2.69s3.56,1.16,3.56,2.69Zm9.91,0c0,1.54-1,2.71-3.51,2.71s-3.5-1.17-3.5-2.71V41.82h1v6.41c0,1.17.69,1.84,2.5,1.84s2.5-.67,2.5-1.84V41.82h1Zm9.44-2.78c0,1.28-.71,2.12-2.73,2.12H159v3.2h-1v-9h3.52c2,0,2.73.85,2.73,2.13Zm-6.19-11-3.56-5.38h-3.34v5.38H145.4V14.28H155c5.62,0,7.4,2.17,7.4,6V23a5.14,5.14,0,0,1-2.4,4.84l4.42,6.59Z"/></svg>