<svg id="a40becd0-0ec8-41e1-a602-79795cd0c599" data-name="Layer 1" xmlns="http://www.w3.org/2000/svg" viewBox="0 0 179.92 179.92"><defs><style>.e6c189cb-e90b-4bab-b511-c786bb6a528d{fill:#fff;}</style></defs><path class="e6c189cb-e90b-4bab-b511-c786bb6a528d" d="M165.71,102.73H179a89.9,89.9,0,1,1,.92-12.84H166.78a76.83,76.83,0,1,0-1.07,12.84ZM65.31,89.89V90a24.65,24.65,0,0,0,45.74,12.77H125.5A37.76,37.76,0,0,1,52.21,90v-.07h-13s0,0,0,.07a50.8,50.8,0,0,0,100,12.77h13.41a63.9,63.9,0,1,1,1.28-12.84H65.31Zm45.51-13.06a24.65,24.65,0,0,0-41.72,0Zm-56.26,0a37.76,37.76,0,0,1,70.8,0H139a50.79,50.79,0,0,0-98.12,0Z"/></svg>