<svg id="f34cc144-c8ea-4350-9806-c7ec37cb300e" data-name="Layer 1" xmlns="http://www.w3.org/2000/svg" viewBox="0 0 178.34 143.28"><defs><style>.a7f86828-fb99-4e18-8b9a-2b0fc9efbd46{font-size:40.64px;font-family:PraterScriptOT, Prater Script OT;}.a7f86828-fb99-4e18-8b9a-2b0fc9efbd46,.bd1ea0d9-64d8-49d5-bf92-2f15eacfbee9{fill:#fff;}</style></defs><text class="a7f86828-fb99-4e18-8b9a-2b0fc9efbd46" transform="translate(0.28 126.82)">earthdance</text><path class="bd1ea0d9-64d8-49d5-bf92-2f15eacfbee9" d="M79.15,63.14c2.7-1.58,4.53-2.59,5.53-3.13A36.85,36.85,0,0,1,81,54.55a3.15,3.15,0,0,1-.17-.36A13.32,13.32,0,0,1,74.44,59a22.48,22.48,0,0,1-7.78,1.29,30.62,30.62,0,0,1-11-2.09A32.72,32.72,0,0,0,75.09,73l-.16-1.74C74.71,70.14,74.25,66,79.15,63.14Z"/><path class="bd1ea0d9-64d8-49d5-bf92-2f15eacfbee9" d="M73,55.13a8.52,8.52,0,0,0,5.13-4.4c1.26-2.79,2.43-5.59,3.56-8.3.44-1,.87-2.07,1.31-3.09,0-.12-.07-.24-.1-.37C69.71,32.25,70.22,16.81,70.82,11.52A32.7,32.7,0,0,0,52.45,32.2c.37-.23.75-.45,1.16-.67,11.63-6.24,16.61-.24,17.86,1.75a12.05,12.05,0,0,1,.81,10.65,8.28,8.28,0,0,1-6,5.11c-3.3.73-6.3,0-8.23-1.95a5.66,5.66,0,0,1-1.65-5.15l0-.07a4.84,4.84,0,0,1,3-3.6c2.44-.86,4.89.83,5.16,1a2.06,2.06,0,0,1-2.39,3.35,2.44,2.44,0,0,0-1.4-.49s-.22.19-.38.76a1.81,1.81,0,0,0,.6,1.31c.54.54,1.82,1.38,4.41.81a4.2,4.2,0,0,0,3-2.69A8,8,0,0,0,68,35.46c-2.09-3.32-6.63-3.43-12.44-.31a17.79,17.79,0,0,0-4.3,3.14,30.75,30.75,0,0,0-.16,3.2,32.42,32.42,0,0,0,1.76,10.57,16,16,0,0,0,2.84,1.67C61.41,56.38,68.2,56.93,73,55.13Z"/><path class="bd1ea0d9-64d8-49d5-bf92-2f15eacfbee9" d="M85.94,30.64c2.31-7.32,2.76-11.95,2.37-13.5h0C87,17.86,85.71,24,85.94,30.64Z"/><path class="bd1ea0d9-64d8-49d5-bf92-2f15eacfbee9" d="M82.21,21.1c.05.14.09.28.14.44.63-3.79,1.89-6.88,4-8,2.46-1.32,4-.29,4.6.21,1.57,1.41,1.78,4.46,1.31,8,3.24-4.26,6.37-6.57,9.07-7.76a32.59,32.59,0,0,0-28-3.46C76.34,13,81.41,18.74,82.21,21.1Z"/><path class="bd1ea0d9-64d8-49d5-bf92-2f15eacfbee9" d="M87.23,63.31c-.65.33-2.65,1.41-6,3.38-2.78,1.63-2.3,3.62-2.29,3.64l0,.18.31,3.3a32.31,32.31,0,0,0,4.43.31c.68,0,1.36,0,2-.07l1.1-1.48c.15-.19,3.95-4.75.52-9.06Z"/><path class="bd1ea0d9-64d8-49d5-bf92-2f15eacfbee9" d="M105.37,17.08c-2.24.36-5.92,1.92-10.1,7.56-3.81,5.13-6.71,12-9.79,19.38-.1.26-.21.51-.32.77-1.81,5.2-.53,7.78-.51,7.8l.11.23s1,2,5.84,8.13c3.52,4.42,2.45,9.21.77,12.26a32.66,32.66,0,0,0,20-14.4,9.7,9.7,0,0,1-8.57-1.21c-7-4.28-8.48-12.35-6.9-18.44,1.72-6.66,5.42-10.78,9.66-10.78h0a7,7,0,0,1,6.59,6.22,6.86,6.86,0,0,1-5,7.8,2.05,2.05,0,1,1-1.24-3.91,2.79,2.79,0,0,0,2.22-3.27c-.2-1.34-1.21-2.73-2.55-2.73h0c-2.17,0-4.51,3.16-5.68,7.7S99.82,50.93,105,54.11a5.65,5.65,0,0,0,5.1.8c2.35-.89,4.45-3.78,5.83-8a33.77,33.77,0,0,0,.46-5.45A32.53,32.53,0,0,0,105.37,17.08Z"/><path class="bd1ea0d9-64d8-49d5-bf92-2f15eacfbee9" d="M120.4,24.81C112.38,6.13,88.89-6.1,68.49,3.17c-19.56,5.54-26.74,30.52-24.77,48C46.68,76.32,75,85.6,98.88,78.77,123.22,71.69,128.57,44,120.4,24.81ZM83.73,78.15a36.66,36.66,0,1,1,36.66-36.66A36.66,36.66,0,0,1,83.73,78.15Z"/></svg>