<svg id="e0d0ed45-2f68-4423-9d71-10599a0a41ef" data-name="Layer 1" xmlns="http://www.w3.org/2000/svg" viewBox="0 0 178.22 178.49"><defs><style>.abf1777f-b25b-4369-96f2-29f8986dec1a{fill:#fff;}</style></defs><path class="abf1777f-b25b-4369-96f2-29f8986dec1a" d="M89.29,0C40.64-.4,1.11,39,0,86.93A89.11,89.11,0,1,0,89.29,0Zm54.77,128.9c-3.43-1-4.65-3.87-5.11-7.11a15.72,15.72,0,0,1,3.27-11.86c1.24-1.69,2.37-3.48,3.67-5.13a4.77,4.77,0,0,0,.5-5.53c-4.75,2.14-8.2,10.09-15,2.6-1.47,4.57-3.93,8.12-8.8,9-4.57.88-8.61.31-10.84-4.45-1.45.79-1.49,2.14-2,3.2-2.34,5.16-6,7.23-12.3,6.89-3.91-.22-6.19-2.39-7.67-7.92-1.09-4-1.76-8.22-2.68-12.31a15.55,15.55,0,0,0-1.85-5.12,31.41,31.41,0,0,1-8,3.59c0,3.67,1.4,7,2.13,10.36s1.73,6.64,1.65,10.12a7.12,7.12,0,0,1-.68,3.22c-3.23,6.21-14.83,7.65-19.56,2.38-1.72,2.43-3.1,5.11-5.71,6.82-4.08,2.68-7.45,1.7-9.19-2.84-1.59-4.15-2.19-8.56-3.28-12.85a13.18,13.18,0,0,0-2.22-5.43l-7.95,2.18c.48,5.57,2.49,10.52,3.79,15.63.08.32.22.62.32.94,2,6.69,3,6.72-5.46,7.52-2-7-4.13-14.1-6.16-21.2-1.53-5.32-3-10.66-4.47-16C19.19,91.1,19,91,14.55,92.84c-1.31-1.47-1.13-3.48-1.75-5.2a1.46,1.46,0,0,1,1.12-2l.94-.35c8.8-3.21,8.83-3.22,11.56,5.68,1.16,3.79,2.17,7.62,3.27,11.49,2.54,0,4.66-1.05,6.9-1.54s1.52-2.15,1.14-3.49c-1.29-4.46-2.68-8.9-4-13.34-.58-1.92-1.1-3.7,1.81-4.25,2.29-.43,4.21-1.47,5.25,2.13,3.28,11.37,6.42,22.8,10.39,34,.47,1.33,1.05,2.62,1.69,4.19a13.07,13.07,0,0,0,4.68-14.25c-1.19-4.47-3.13-8.74-3.12-13.52a5.63,5.63,0,0,1,2.79-5.26A20.3,20.3,0,0,1,70.5,84a6.21,6.21,0,0,1,5.57,4.59c2.88,0,4.84-1.73,6.91-3.14,1.27-.87.48-2,.22-3-1.49-5.9-3.93-11.52-5.08-17.53-1.26-6.6.95-10.54,6.75-11.89,4.1-.95,7,.63,8.9,4.89,2.32,5.28,1.88,10.89.24,16a32.5,32.5,0,0,0,1.51,24.45c1.31,2.9,1.75,6.16,3.2,9,.91,1.8,2,2.13,3.73,1.21a6.24,6.24,0,0,0,2.94-2.59c2.26-4.55,4.14-8.91,2.57-14.46-2.9-10.33-7-20.32-9.14-30.86a18.72,18.72,0,0,1-.61-6.22c.55-4.12,3.62-6.43,8.88-6.86,3.54-.29,6.45,1.73,7.67,5.54a23.45,23.45,0,0,1-.09,15.39c-4.56,12.21,1.13,22.68,4.69,33.58.53,1.63,1.66,1.9,3.15,1.33a5.36,5.36,0,0,0,3.14-2.32c2.22-4.28,4.5-8.33,2.88-13.71a84.76,84.76,0,0,1-3.4-17.83l6.66-1.79c2.73,9.3,2.87,19.08,6.48,28,4.76-1.48,6.39-4.24,5.49-8.74-1.39-6.92-2.69-13.87-4-20.9,2.19-1.33,4.45-1.55,6.8-2,2.76,10,3.45,20.29,6.25,30.58,3.43-3.43,4.59-7.83,7.79-11.15l3.78,2.22a105.31,105.31,0,0,1-8.09,15.43,8.08,8.08,0,0,0-1,6.91,91.36,91.36,0,0,1,2,9.41C158.43,125.37,151.66,131.2,144.06,128.9Z"/><path class="abf1777f-b25b-4369-96f2-29f8986dec1a" d="M65.24,90c.35,3.21,1,6,4.54,6.7.34.06.68.82.81,1.31a90.78,90.78,0,0,1,3.27,15.23c.26,2.8-1.26,3.72-3.51,4.29s-2.79-1-3.43-2.64c-2.6-6.64-3.61-13.67-5.06-20.59C61.37,92,62.72,90.85,65.24,90Z"/><path class="abf1777f-b25b-4369-96f2-29f8986dec1a" d="M109.52,69.47c-5-7.71-5.75-13.38-2.11-15.69C110.31,56.51,110.45,57.47,109.52,69.47Z"/><path class="abf1777f-b25b-4369-96f2-29f8986dec1a" d="M88.53,74.65c-2.09-4.33-3.78-7.76-4.08-11.69-.13-1.66.23-3.41,2-3.69s2.07,1.71,2.48,3C90.2,66,89.71,69.82,88.53,74.65Z"/><path class="abf1777f-b25b-4369-96f2-29f8986dec1a" d="M148.79,110.7a18.76,18.76,0,0,1,2,7.86,4.4,4.4,0,0,1-2.26,4.13,1.48,1.48,0,0,1-2.05-.38,4.52,4.52,0,0,1-1.22-4.54A25.2,25.2,0,0,1,148.79,110.7Z"/></svg>