<svg id="f048ee14-bef2-4a14-9c06-66bc934d7bb8" data-name="Layer 1" xmlns="http://www.w3.org/2000/svg" viewBox="0 0 180 180"><defs><style>.b36fa704-c5b8-4c05-aff9-f2d0c013ff47{fill:#fff;}</style></defs><path class="b36fa704-c5b8-4c05-aff9-f2d0c013ff47" d="M150.11,129.77v-1.23c0-.4-.25-.62-.74-.62H147v2.52h2.35C149.76,130.44,150.11,130.29,150.11,129.77Z"/><polygon class="b36fa704-c5b8-4c05-aff9-f2d0c013ff47" points="131.28 133.35 134.07 133.35 132.66 128.24 131.28 133.35"/><path class="b36fa704-c5b8-4c05-aff9-f2d0c013ff47" d="M79.26,128.22H76.89v3.6h2.37c.91,0,1.26-.37,1.26-1.11v-1.43C80.52,128.56,80.17,128.22,79.26,128.22Z"/><path class="b36fa704-c5b8-4c05-aff9-f2d0c013ff47" d="M149.79,133H147v2.52h2.72c.69,0,.91-.32.91-.79v-1C150.6,133.2,150.33,133,149.79,133Z"/><path class="b36fa704-c5b8-4c05-aff9-f2d0c013ff47" d="M0,0V180H180V0ZM35.55,138.11l-.25-6.29-2,4.71H30.14l-2-4.69-.25,6.27H24.32L25,125.28h3.52l3.19,7.5,3.18-7.5h3.53l.66,12.83Zm18.23-9.92H48.15v1.95h5.18v2.91H48.15v2.15h5.63v2.91H44.5V125.28h9.28Zm15.09.25H65.15v9.67H61.5v-9.67H57.77v-3.16h11.1Zm12.41,9.67L79,134.68H76.89v3.43H73.24V125.28h6.12c3.57,0,4.71,1.38,4.71,3.83v1.72a3.29,3.29,0,0,1-1.53,3.09l2.81,4.19Zm12.16,0H89.79V125.28h3.65Zm4.94-27.41H83.47V77.36c0-2.28-1-3.62-3.62-3.62S72.19,75.6,69,77.36V110.7H54.07V77.36c0-2.28-1-3.62-3.62-3.62s-7.66,1.86-10.87,3.62V110.7H24.67V60.28H35.74l1.56,3.83a51,51,0,0,1,20.08-4.87c4.46,0,7.46,1.76,9.22,4.87a48.24,48.24,0,0,1,20.19-4.87c8.59,0,11.59,6.42,11.59,16.16Zm5.84,24.55a20.57,20.57,0,0,0,3.85-.35l.37,3a20,20,0,0,1-4.22.45c-3.67,0-5.35-1.43-5.35-4.17v-5c0-2.73,1.68-4.16,5.35-4.16a22,22,0,0,1,4.22.44l-.37,3a24,24,0,0,0-3.85-.35c-1.21,0-1.7.45-1.7,1.46v4.19C102.52,134.81,103,135.25,104.22,135.25Zm18.18,2.86h-9V125.28H117V135h5.37Zm13,0-.54-1.92h-4.42l-.54,1.92h-3.58l4.07-12.83h4.49l4.1,12.83Zm18.7-3.16c0,1.85-.92,3.16-3.9,3.16h-6.91V125.28H150c2.86,0,3.63,1.16,3.63,3v1.14a2.19,2.19,0,0,1-1.41,2,2.47,2.47,0,0,1,1.93,2.42Zm1.55-24.26H112.75v-69h15.56V96.9h27.37Z"/></svg>