<svg id="bc9c5923-8c6e-47b6-b065-1e5d5b9936d7" data-name="Layer 1" xmlns="http://www.w3.org/2000/svg" viewBox="0 0 180 24.75"><defs><style>.e375a86b-8a9e-4fca-adcd-0a514ffb7e84{fill:#fff;}</style></defs><path class="e375a86b-8a9e-4fca-adcd-0a514ffb7e84" d="M4.11,1.09c2.27,0,4.18.27,5.7,1.59a6.29,6.29,0,0,1,2.07,4.86c0,3.19-2,6.35-7.16,6.35H2.51v9.84H0V1.09ZM2.51,11.51H4.58c3,0,4.79-1.49,4.79-4.11,0-3.6-3.36-3.94-5-3.94H2.51Z"/><path class="e375a86b-8a9e-4fca-adcd-0a514ffb7e84" d="M26.22,17.35H16.58l-2.72,6.38H11.08L21.5,0,31.65,23.73H28.87Zm-1-2.38-3.8-9.06L17.56,15Z"/><path class="e375a86b-8a9e-4fca-adcd-0a514ffb7e84" d="M37.37,15c0,1.9,0,4,1.8,5.5a6,6,0,0,0,7.47,0c1.79-1.52,1.79-3.6,1.79-5.5V1.09H51V15.65a8.8,8.8,0,0,1-1.43,5.44,8,8,0,0,1-6.62,3.05,8,8,0,0,1-6.62-3.05,8.8,8.8,0,0,1-1.43-5.44V1.09h2.52Z"/><path class="e375a86b-8a9e-4fca-adcd-0a514ffb7e84" d="M59.31,1.09V21.36h6.25v2.37H56.8V1.09Z"/><path class="e375a86b-8a9e-4fca-adcd-0a514ffb7e84" d="M87,5.57a5.41,5.41,0,0,0-1.32-1.7,4.08,4.08,0,0,0-2.55-.78,3.47,3.47,0,0,0-3.8,3.5,2.39,2.39,0,0,0,.85,2A7.37,7.37,0,0,0,82.54,10l2.18.95a11.07,11.07,0,0,1,3.49,2.14,5.44,5.44,0,0,1,1.63,4.11,7.26,7.26,0,0,1-12.08,5.13,8.28,8.28,0,0,1-2.11-4l2.45-.68a5.32,5.32,0,0,0,1.36,2.89,4.63,4.63,0,0,0,7.8-3.23,3.33,3.33,0,0,0-1.12-2.64,9.68,9.68,0,0,0-2.71-1.57l-2-1a10,10,0,0,1-3-1.87,4.68,4.68,0,0,1-1.56-3.7c0-3.49,2.68-5.84,6.35-5.84a6.18,6.18,0,0,1,3.63,1A6.81,6.81,0,0,1,89,4.25Z"/><path class="e375a86b-8a9e-4fca-adcd-0a514ffb7e84" d="M97,10.29h11.61V1.09h2.52V23.73h-2.52V12.66H97V23.73H94.47V1.09H97Z"/><path class="e375a86b-8a9e-4fca-adcd-0a514ffb7e84" d="M129.45,17.35h-9.64l-2.71,6.38h-2.79L124.73,0l10.16,23.73H132.1Zm-1-2.38-3.8-9.06L120.8,15Z"/><path class="e375a86b-8a9e-4fca-adcd-0a514ffb7e84" d="M138.09,23.73V.14l17.65,18.5V1.09h2.52V24.75L140.6,6.25V23.73Z"/><path class="e375a86b-8a9e-4fca-adcd-0a514ffb7e84" d="M166.62,10.8l9.65-9.71h3.39L169.07,11.65,180,23.73h-3.46l-9.27-10.39-.65.65v9.74h-2.51V1.09h2.51Z"/></svg>