<svg id="fe9588aa-2443-4195-9249-174caa48cf65" data-name="Layer 1" xmlns="http://www.w3.org/2000/svg" viewBox="0 0 179 179"><defs><style>.b97e8129-3bea-416a-8566-2b6fc9e3b6b8{fill:#fff;}</style></defs><path class="b97e8129-3bea-416a-8566-2b6fc9e3b6b8" d="M61.58,96.17a.37.37,0,0,0-.16,0v.45l1.48-.16v-.27l.15,0v-.45l-1.47.16Z"/><path class="b97e8129-3bea-416a-8566-2b6fc9e3b6b8" d="M87.46,112.28c0-.11,0-.23-.06-.32a.64.64,0,0,1,.22,0c0-.32-.11-.61-.16-.92-.8-.31-1.23-.87-2-1a1.4,1.4,0,0,0-.64-.16v.31a.5.5,0,0,1-.16,0v.45c.72.47,1.16,1.3,2.13,1.52C87,112.26,87.08,112.23,87.46,112.28Z"/><path class="b97e8129-3bea-416a-8566-2b6fc9e3b6b8" d="M87.15,105.74a1.15,1.15,0,0,0,.16-.29h0a2.18,2.18,0,0,0,.31-1.2H88V104h.15v-.44h-.65a2.93,2.93,0,0,0-.44-.94s0-.09.06-.23a.39.39,0,0,0,.16-.2h.56v-.33H88v-.61h-.83v.32H87v.2a1.66,1.66,0,0,0-1,.94,1.43,1.43,0,0,0-.27.82,1.2,1.2,0,0,1,.16.16h.49v.16H86v.31h-.16v.31c-.11.16,0,.47,0,.65-.29.23-.6.25-.76.74a.9.9,0,0,0-.2.45,2,2,0,0,0,.65.16C86.12,105.9,86.79,106.24,87.15,105.74Z"/><polygon class="b97e8129-3bea-416a-8566-2b6fc9e3b6b8" points="89.43 103.62 89.61 103.62 89.61 103.17 88.78 103.17 88.78 103.48 88.63 103.48 88.63 103.93 89.43 103.93 89.43 103.62"/><path class="b97e8129-3bea-416a-8566-2b6fc9e3b6b8" d="M102.5,100.28h-.11c-.07.32-.11.61-.16.92h.49c0-.09,0-.2.07-.29h.11c.07-.31.11-.6.16-.92h-.49A.65.65,0,0,0,102.5,100.28Z"/><polygon class="b97e8129-3bea-416a-8566-2b6fc9e3b6b8" points="51.75 100.44 51.6 100.44 51.6 100.89 52.09 100.89 52.09 100.6 52.25 100.6 52.25 100.13 51.75 100.13 51.75 100.44"/><path class="b97e8129-3bea-416a-8566-2b6fc9e3b6b8" d="M100.82,113.8h.09a3.73,3.73,0,0,0,.16-1.21,1.24,1.24,0,0,1-.52-.45h.2v-.31h.16v-.45h-.67c-.31-.44-.76-.65-1-1.12a.73.73,0,0,0,.69-.56h0a1.05,1.05,0,0,0,.18-.31H99.9c-.26-.4-.78-.33-1.47-.31-.25.36-.45.42-.58.78a1.69,1.69,0,0,0-.25.58c.65.67.69,1.35,1.61,1.82a.28.28,0,0,0,0,.13,1.55,1.55,0,0,0-.25,1.1,3.2,3.2,0,0,0,1.81.6A.89.89,0,0,0,100.82,113.8Z"/><path class="b97e8129-3bea-416a-8566-2b6fc9e3b6b8" d="M93.37,114c-.38.31-1.68.06-2.46.31-.25-.72-.69-.78-.83-1.68a5.43,5.43,0,0,0-1.14,0V113l.65.29a2.89,2.89,0,0,1-.83.76c-.45-.74-.87-1.66-2.12-1.68-.07.32,0,.29-.16.45a1.42,1.42,0,0,1-.83,1c-.29-.27-.45-.22-.65-.6.76.18,1.14.09,1.14-.92a4.63,4.63,0,0,1-1.63-1.07H83.7c0,.44.12.91.16,1.36l-.16.16h-.33v-1.52A2.81,2.81,0,0,0,84,111c-.38-.31-.25-.38-1-.45-.49.52-1,.39-1.81.45v.61c-.18.31-.76.22-1,.44-.43.45-.12,1.44-.81,1.82s-.63-.41-1.14.31c-.13.16-.09.13-.16.45,1.84,0,1.23-.2,2.46-.61l3.61-.31a3.76,3.76,0,0,1,.15,1.21c-.11.15-.09.15-.15.45,1.47.38,2.08,1.27,3.76,1.36v-.6c.4-.23.38-.36,1-.45a4.57,4.57,0,0,0,3.11.92c.2,0,.13-.41.65-.32a2.25,2.25,0,0,0,.83.32,2.06,2.06,0,0,0,.15-.16,6.21,6.21,0,0,0,.34-2.57h-.65Z"/><path class="b97e8129-3bea-416a-8566-2b6fc9e3b6b8" d="M100.42,116.82h-.83v.31h-.16v.92a2.46,2.46,0,0,1,1.48,1.68h1.14a1.61,1.61,0,0,0,.25-.45,1,1,0,0,0,.18-.31h.06l-.06,0c0-.06,0-.15.06-.24h.16l-.16-.16C101.6,117.85,100.93,117.92,100.42,116.82Z"/><path class="b97e8129-3bea-416a-8566-2b6fc9e3b6b8" d="M94.11,110s0-.07,0-.11h.07a1.9,1.9,0,0,0,.16-.61l-.16-.15h-.67c-.18.24-.2.18-.29.45-.09.11-.12.11-.2.47l.2.06c-.29,0-.52.09-.7-.06s-.11-.41-.15-.61h-1c0,.11-.09.2-.13.31h0a7.48,7.48,0,0,0-.65,2c.15,0,.33.09.49.16,1,.69,1.18-.45,2.46-.16a5.85,5.85,0,0,0,2,.45l.11-.31h.05c.06-.16.11-.32.15-.45s.09-.13.16-.45c-.69-.18-1-.74-1.63-.91C94.27,110,94.18,110,94.11,110Z"/><path class="b97e8129-3bea-416a-8566-2b6fc9e3b6b8" d="M93.71,130.65h-.18V131a1.17,1.17,0,0,0-.16.76H94v-.31h.16v-.31a1.29,1.29,0,0,0,.15-.77h-.65v.32Z"/><path class="b97e8129-3bea-416a-8566-2b6fc9e3b6b8" d="M48,108.79h-.22c0,.24.11.51.15.76h.16v.31H48v.45h.49V110h.16v-.45h.16a3,3,0,0,0,.11-.31H49a1.64,1.64,0,0,0,.15-.61L49,108.5H48A.62.62,0,0,1,48,108.79Z"/><path class="b97e8129-3bea-416a-8566-2b6fc9e3b6b8" d="M89.5,0A89.5,89.5,0,1,0,179,89.5,89.5,89.5,0,0,0,89.5,0Zm.69,62.09q0-8.06,4.5-13.09a15,15,0,0,1,11.73-5,21.16,21.16,0,0,1,7.69,1.34,16.6,16.6,0,0,1,5.8,3.62v7.21H114.6l-1-4.79A7.14,7.14,0,0,0,111,50a12.17,12.17,0,0,0-3.69-.52A8.69,8.69,0,0,0,100,53a14.74,14.74,0,0,0-2.61,9.09v1.27q0,5.48,2.55,8.73a8.82,8.82,0,0,0,7.38,3.26,14.07,14.07,0,0,0,3.51-.35,8.66,8.66,0,0,0,2.11-.85V68l-5.13-.4v-5h12.33V76.34a15.66,15.66,0,0,1-5.1,3.11,22.4,22.4,0,0,1-8.46,1.39A15.46,15.46,0,0,1,94.76,76c-3-3.25-4.54-7.46-4.54-12.65V62.09Zm30.05,35.78H119.1a1.43,1.43,0,0,1-1.14-.32A4.42,4.42,0,0,1,120.24,97.87Zm-21.45-.61v.32h-1v-.16c.29-.09.16,0,.34-.16Zm-2,2.26h-.65c-.29-.24-.72-.35-1-.6a1.54,1.54,0,0,0,.5-1c.64-.11,1.45-.56,2.12-.16-.78.07-1.25.31-1.48.9-.13.15-.09.15-.15.44C96.39,99.21,96.62,99.35,96.82,99.52ZM94.2,95.88a.85.85,0,0,0,.49-.16,1.09,1.09,0,0,0,.83.31c.29-.2.27-.27.49-.15h.16V96C95.41,96.15,94.71,96.32,94.2,95.88Zm-1.48.31c-.38,0-.47,0-.65-.16A1.53,1.53,0,0,1,92.72,96.19ZM58.24,76l3.81-.74V49.54l-3.81-.74V44.46H86.52v9.82H81L80.71,50H69.25v9H81.38v5.53H69.25V74.75H80.82l.31-4.27h5.46v9.8H58.24Zm28.58,20.2v.16c-.7.38.2.53-1,.6-.69-.36-1,.27-1.48.16s-1-.32-1.47-.45L83,96.5c.34-.2,1.3-.11,1.64-.31Zm-8.69,10c-.11.32-.22.61-.33.92l-1.14.16v-.16c.18-.27.09-.62.15-.76.38-.33.9-.45,1.14-.92s0-.49-.15-.91c.42-.05.87-.09,1.3-.16.09.29.29.34.33.45s-.11.51-.16.76c.32.76,1.19.83,1.32,2a3.14,3.14,0,0,1-1,.31,1.09,1.09,0,0,0-1,0,6.2,6.2,0,0,1-.16-1.21c.33,0,.31,0,.49-.16h.16v-.44C78.78,106.1,78.47,106.15,78.13,106.21ZM32.4,46.83A15.4,15.4,0,0,1,41.66,44a21.69,21.69,0,0,1,7.52,1.25,17.15,17.15,0,0,1,5.71,3.36v7.34h-5.4L48.55,51a9,9,0,0,0-2.73-1,15.58,15.58,0,0,0-3.8-.45,7.3,7.3,0,0,0-4.56,1.25A3.87,3.87,0,0,0,35.84,54a3.54,3.54,0,0,0,1.68,3,22.69,22.69,0,0,0,5.82,2.46,22.61,22.61,0,0,1,9,4.36,9.12,9.12,0,0,1,3.06,7.12,8.48,8.48,0,0,1-3.65,7.25q-3.61,2.66-9.6,2.66a21.1,21.1,0,0,1-7.69-1.34,16.06,16.06,0,0,1-5.73-3.74V68.24h5.55L35,73.35A8.8,8.8,0,0,0,38,74.8a14,14,0,0,0,4.14.58,7.16,7.16,0,0,0,4.5-1.21A3.87,3.87,0,0,0,48.15,71a4.15,4.15,0,0,0-1.45-3.31,15.12,15.12,0,0,0-5.13-2.37,29,29,0,0,1-9.64-4.39A8.31,8.31,0,0,1,28.66,54,8.71,8.71,0,0,1,32.4,46.83Zm18.86,51H49.14c-.43.4-1.91,0-2.47-.45l2.13-.31a4.75,4.75,0,0,0,1.14.31c.07-.31.05-.29.16-.45a2.57,2.57,0,0,1,.8-.31v.16c-.29.24-.22.13-.33.6A2.12,2.12,0,0,1,51.26,97.87Zm-27,3.33a2.13,2.13,0,0,0,1-.6l1.79.31v.16c-1.21.06-1.08.6-2,.92C24.79,101.58,24.5,101.52,24.23,101.2Zm1,2.58c-.29-.09-.16,0-.34-.16h.34Zm.49-1.37c-.29-.09-.16,0-.34-.16h.34Zm33.74,51.91h-.16v.16a2.81,2.81,0,0,1-.65-.32h.83v.16Zm6.22-50.54c-.47-.21-.92-.41-1.48-.61a6.1,6.1,0,0,1-.64-2.28,1,1,0,0,0,.64-.92c-.4-.27,0-1.23,0-2.12-.11,0-.22-.12-.33-.16-.63-.47-1.46-.2-2.46-.16-.34-.47-.5-.83-1.32-.91-.38.31-.61.06-1.14.31-1.19.51-.79,1.07-3,1v.45h2a5.18,5.18,0,0,0,2.13,1.36c-.23.29-.2.14-.34.61a2.26,2.26,0,0,1,1.14.76h-.33l-.5.44a2.17,2.17,0,0,0-1-.31c.13.56.25.43.34,1l-.16.16h-.49c-.07.31,0,.29-.16.45-.38-.27-.83-.2-1.3-.45-.15-.09-.22-.54-.33-.6-.38-.23-1.19,0-1.48-.16h.16c.22-.14.91-.16,1.14-.31s.13-.25.15-.61a1.41,1.41,0,0,1-.49-.31c.43-.23.25-.07.34-.61a3.7,3.7,0,0,1-1.32-.15v.45A6.67,6.67,0,0,0,54,101.27c-.11.16-.09.13-.16.45.34.18.32.11.5.44-.67.09-.7.32-1,.45h0a2.05,2.05,0,0,1-.65.16v-.16h.65v-.45c-.74.12-.33.14-1,.16v-.07c.13-.15.09-.13.15-.44H52v.44c-1.34,0-3.33.88-3.44,2a1.4,1.4,0,0,1,.15.76,12.6,12.6,0,0,1,2.78.92,2.36,2.36,0,0,0,0,1.37h.83c.06-.41.11-.81.15-1.21,1.17-.29,1.79-1.77,1.79-3-.29-.08-.15,0-.33-.15h.33V103c.34-.06.31,0,.49-.15s.14-.27.5-.45v.45a3.28,3.28,0,0,1,1,0,2.56,2.56,0,0,1,1,.76c-.3.24-.23.13-.34.6a3.74,3.74,0,0,0,1.81-.44c0,.15.23,1.65.32,1.81.33.56,1,.18,1.32,1.36a1.82,1.82,0,0,0-.5,1.21c.65.25.79.2.83,1l-.16.16a8.57,8.57,0,0,0-2-.31v-.45c-1.24,0-1.35.13-2.29.15v.45a1.78,1.78,0,0,0,1.48.45l.16-.16v.32h-.34a10.21,10.21,0,0,1-2.12,1.05v-.56a11.41,11.41,0,0,0-2,.6,2,2,0,0,0-.16.76c.13.16.07,0,.16.32-1.19-.29-2.53,1-3,1.81v.92c-.27,0-.53.11-.8.15a14.45,14.45,0,0,0-2.13,1.68c.07.85.11,1.72.16,2.57-.11,0-.23.12-.34.16l-.15.16a8.67,8.67,0,0,0-.5-2.28c-.89-.07-1.2-.3-2.28-.32v.61c-1.5-.16-2.84-.41-3.44.91a4,4,0,0,0-.16,3.81,3.79,3.79,0,0,0,2,.15,13.45,13.45,0,0,0,.65-1.2c.38-.05.76-.12,1.14-.16-.16.94-.65,1.54-.81,2.57.92.23,1.81-.27,2,.92a2.94,2.94,0,0,0-.33,1.68c.56.33.51.56,1.47.6.61-.4.7,0,1.64.16.4-1,1.2-1.19,2.12-1.68v.45c.4,0,.56-.4.83-.32,0,0,.22.56.34.61a4.79,4.79,0,0,0,1.63.29c.13-.49-.09-.22.33-.45a1.93,1.93,0,0,0,1,.16v.76c.6.36,1,1.27,1.63,1.52.38.18.81-.16,1-.16s.58.27.82.32c.61.8,1.1,1.12,1,2.28,1.18.54,5.93,2.08,6.22,3a1.54,1.54,0,0,1-.16,1.52c-.29.52-1.07,1-1.32,1.53v2.12a11.19,11.19,0,0,1-1,2.28,2.62,2.62,0,0,0-2.46,1.37c-.23.4.22.63,0,1.21a27.28,27.28,0,0,1-1.82,2.88,2.34,2.34,0,0,0-1.14.16c.52.63.34.85.16,1.52l-1.48.31c-.09,1.37-.94,2.13-1.14,3.5.27,0,.54.08.83.15v.45a2.25,2.25,0,0,0-.65,1.52c.72.4,1,1,1.81,1.37v.15c-.33.05-.65.09-1,.16-.78-.56-2-.54-2.13-1.68h-.49a9.64,9.64,0,0,0-1.14-2.12c-.09-.12.58-1.06.34-1.53l-.5-.15c-.76-1.5-.33-4.84-.65-6.22-.38-1.61.54-4-.33-5.17-.58-.61-1.81-.87-2.28-1.52-.7-.92-.74-2-1.32-3.05-.34-.6-.85-.58-1-1.52,0-.51.23-.2.34-.45.22-.49-.58-1.07,0-2,0,0,1.14-1.06,1.14-1.06.42-.82-.25-2-.34-2.57H47a1.83,1.83,0,0,1-.16.61,18.71,18.71,0,0,1-2.13-1.37c-.33-.51,0-1.05-.49-1.36l-1.79-.45c-.27-.18-.33-.79-.65-.92l-1.63.16c-.7-.25-2.6-1.37-2.8-2.13.49-.69-1.45-3.56-2.3-3.65a14.67,14.67,0,0,0,.49,2.13c.18.25.29.16,0,.29v-.29h-.16l-.15-.16a5.43,5.43,0,0,0-1-1.67c.58-.36-.31-2.09-.49-2.89a1.86,1.86,0,0,0-.65.16v-.81c-1.52-2.24,1.57-3.94,1.81-5.62.09-.58-.44-.58-.49-.91s.54-.76.34-1.52a26.44,26.44,0,0,1-.83-2.58h-.34c-1.32-.83-3.35,0-4.92,0,0,.47.13.43,0,.61-.51.42-1.07.2-2,.15v-.6a1.86,1.86,0,0,0-.65.16c0-.36-.11-.72-.15-1.06a18.21,18.21,0,0,1,3.11-.91v-.45a4.55,4.55,0,0,1-1.15,0c-.13-.16-.06,0-.15-.31l.15-.16a6,6,0,0,1,2.13,0c0-.36-.11-.72-.16-1.08h.34c2.3-1.38,6.22-.71,8.34-.15,1,.27,2.26-.43,3.12-.45s2.25.4,3.6.45v-.32c.18-.26.06-.46.15-.6a1.4,1.4,0,0,0-.64-.16,1.47,1.47,0,0,1-.81.16,1.51,1.51,0,0,1-.16-.31c1.17-.29,1.41-.76,3.11-.76,1.1,1,3,.09,3.29.31h.16v.16c-.61.11-.45,0-.65.44-.11.16-.09.14-.16.45.23,0,.43.09.65.16v.15a9.84,9.84,0,0,1-1.47.32v.45a6.48,6.48,0,0,0,2.95-1.06v-.15a1.79,1.79,0,0,1-.83-.61,7.92,7.92,0,0,1,2.8-.44v-.45a10.18,10.18,0,0,1-2-.16V97.4c.13-.16.07-.05.16-.31a10.54,10.54,0,0,0,2.79.76V97.4h-.65c0-.61,0-.47-1-.45-.14-.11-.36-.2-.49-.31h.15a1.51,1.51,0,0,1,.81-.16c.47.38,1.32,0,1.32,0,.27.27.29.38.33.92h.83a5.76,5.76,0,0,0-.33-1.21h.33c.83-.67,2.49-.34,3.76-.6a14.36,14.36,0,0,1,4.75-.16c.35.09.64.4,1.29.31,2.31-.36,9.27-.85,11,.16-.9,0-1.23.31-1.48.92a2.11,2.11,0,0,0-.15,1.07c-.56.2-.68.47-1.32.6v1.06C70.37,100.78,67.42,101,65.67,103.78ZM52.09,122.15v.15c-.92.09-1.41.45-2.13,0,.41-.22.18,0,.34-.45.56,0,.71-.13,1,0A6.23,6.23,0,0,1,52.09,122.15Zm-3.45-.45v-.45a7.65,7.65,0,0,1-1-.6c-.58-.29-1.32,0-1.63-.16h.15a3.58,3.58,0,0,1,1.48-.16,5.35,5.35,0,0,0,2,1l-.16.16A1.5,1.5,0,0,1,48.64,121.7Zm.16.89c-.45.14-.56-.09-.34-.31C48.6,122.39,48.69,122.5,48.8,122.59ZM33.74,106.21h.34a1.21,1.21,0,0,0-.16.16v.16C33.76,106.35,33.83,106.46,33.74,106.21Zm39.16-5a6.75,6.75,0,0,0,2.62,0c.11.27,0,.16.15.32v.31C74.73,102.1,72.11,102.75,72.9,101.2Zm26,41c-.27.05-.53.09-.83.16a2,2,0,0,1-.33-1.21c-.2-.49.36-.69.49-1.21s-.11-1.14,0-1.68a2.61,2.61,0,0,0,2-1.81C101.18,137.36,99.52,141.05,98.94,142.17Zm14.75-14.25c-.29-.09-.16,0-.32-.16-.33-.45-.22-.65-.15-1.21a1.35,1.35,0,0,1,.65,1.21A.56.56,0,0,0,113.69,127.92Zm7.54,2c-.34-.54-1.12-.9-1.48-1.52h.65a3.36,3.36,0,0,0,2,1.52,7.82,7.82,0,0,1-.65-2.29h-.16c-.27-.35-.24-.35-.82-.44.11-1.41.13-3-.65-3.94-.18-.11-.16-.09-.5-.16-.26.34-.29.45-.64.32-.61-.92-.79-2.71-2.13-2.89-.38.38-.85.13-1.32.45v.15c-.49.52-.81,1.17-1.32,1.68-.27.27-1.14.61-1.32.92v.6c.34.47,0,1.37,0,2.13-.49.2-.52.47-.81.45a14.8,14.8,0,0,1-2.3-5.78c-.56,0-.72.14-1,0-1-.56-1-1.81-2.46-2-.89.56-2.79-.15-3.6-.31v.76c.65.32,1.32.54,1.48,1.37-.27.29-.23.74-.49,1.07a18,18,0,0,1-4.1,2.57c-.38-.78-.54-.06-1.32-.44-.33-.18.16-.32-.65-.45-.22-.61-.45-1.21-.65-1.81-.24-.34-.94-.52-1.14-.92,0-.4-.11-.81-.15-1.21-.16,0-.34-.11-.5-.16-.22-.33-.31-1.18-.65-1.36h-.82c.13,1.16.85,1.68,1.32,2.44l.33,1.68h.34c.24.31.09.71.33,1.05a26.63,26.63,0,0,0,2.31,2.41c.58.34,2.57-.35,2.62-.29a2,2,0,0,1,.15,1.06c-.6.6-.62,1.56-1.14,2.28-.94,1.32-2.82,2.15-3.44,3.8-.38,1,.31,3.81.31,4.86s-2.33,1.41-2.62,2.73c.47.6.18,1.18,0,1.83-1.57.63-.47.52-1.14,1.68a5.88,5.88,0,0,1-5.73,2.73,4.48,4.48,0,0,0-.49-2.57l-.65-.61c0-.8-.11-1.61-.16-2.41a21.08,21.08,0,0,1-1.14-2c-.35-1.37,1.26-2,1-3.34a10.38,10.38,0,0,0-.83-2.88c-.25-.41-1-.68-1.14-1.21l.33-2.28c-.58-.14-.33-.32-.64-.45-.34,0-.65.09-1,.15L82.3,128H80.66c-.85.62-2.46.6-3.76.76-.71-.56-1.43-1.12-2.12-1.68v-.6l-1.3-1.21c-.25-.47-.13-.9-.34-1.21,1-.83,0-2.24.34-3.33a16.3,16.3,0,0,1,1.63-2.58c.32-.24.88-.15,1.14-.45s.09-1.4.5-1.81c.71-.71,1.07-.2,1.29-1.65-.13-.16,0,0-.15-.32h-1c-.06-1.12,0-1.54,0-2.73h.34c.51-.31,1.61,0,2.46,0a4.57,4.57,0,0,0,.16-1.52,5,5,0,0,1-1.32-.76h.33c.72-.49,2.55-.89,3-1.68.11-.15.08-.13.15-.44.45,0,.87-.12,1.32-.16a11.78,11.78,0,0,1-.15-1.52c.29-.09.15,0,.33-.16a3.4,3.4,0,0,1,.83.45v-.76a2.15,2.15,0,0,0-1.14-.32c-.38.39-.4.25-1,.16v-.31A2.15,2.15,0,0,1,82,103a5.2,5.2,0,0,0,2.79-2c.25-.47-.29-.33,0-.6,2.44-1.84,5.44-.2,8,.44v.45H91v.45c.29.09.16,0,.34.16,1.14-.16,1.48-.52,2.62-.61a2.18,2.18,0,0,0-.34-.92H94c.24.32.24.21.33.77.79-.09.79-.41,1.32-.61a7.42,7.42,0,0,1,2.46-.16v-.44c.72.09,1.41.2,2.13.31a4.21,4.21,0,0,1,.16-1.68h.15v.16c.5.24.54.47,1.14.6.41-.38.52-.06,1.15-.31.13-.05.26-.43.33-.45h1c0-.15.11-.31.15-.45.54-.4,1.12-.2,1.79-.76.25-.2.14.27.16.32a3.32,3.32,0,0,0,1.32-.16h.16c-.07-.31,0-.29-.16-.45-1-.58-2.93-.22-3.76-.91a17.07,17.07,0,0,1,4.09.6,6.83,6.83,0,0,0,1.3.76c.79.22,1.68-.16,2.31.16.31.15.47.76.82.91,1.28.54,3.18-.33,4.44,0,.46.14.67.56,1,.77.6.38,2,0,2.95,0v-.77c-.33-.06-.31,0-.49-.15.34.06.31,0,.49.15h.34c.67.68,1.52.09,2.62.45.22.09,1,.54,1.32.61.65,0,1.32-.12,2-.16.73.18,1.76.51,2.46.6,1.32,0,2.61-.11,3.93-.15,2.09.49,2.91,2.28,4.59,2.73v.15c-1.23.07-.92.52-1.63.92a1.74,1.74,0,0,0-1-.16c-.15.41-.2.27-.33.76.58.56,2.15,2.26,1.14,3.65-.27-1.59-2.26-1.59-2.62-3.18a2.9,2.9,0,0,0,.34-1.67c-.56,0-.76.35-1.14.31a2.82,2.82,0,0,0-1.15-.31l-.15.15c0,.47.09.79,0,.92v.16c-.85-.25-2.87-.54-3.6,0a3.5,3.5,0,0,0-.5,1.81,6.68,6.68,0,0,1,2,.45c.67.18.58-.38.81-.16a8.46,8.46,0,0,1,2.3,2.28c0,.05-.11.09-.15.16l-.34-.16c-.22-.38-.36-.4-.49-.91h-.49c.2,1.07.62,2.46-.16,3.33-.4.22-.87.07-1.14.45a3.54,3.54,0,0,0-.49,1.52c.87.24,1.09.83,1.63,1.36v.32l-1,.31a3.08,3.08,0,0,0-1.63-2.28c-.54-.32-.71,0-1.14.15-.22-.31-.27-.26-.83-.29a1.51,1.51,0,0,0-.33.92s.11.09.15.16a3,3,0,0,1,1.79.31c-.65.13-.71.29-.82.92,1.88,1.38,1.65,1.85,1.47,4.25-1,.76-1.63,1.59-3.26,1.81,0,.54.22.87.15.92s-.11.31-.15.45c-.3-.09-.16,0-.34-.16l-.16-.16c.34-.27.32-.33.34-.91a3.54,3.54,0,0,0-1.14-.16c-.05.16-.11.31-.16.45-.27.26-.29.38-.33.91,1,.85,1.9,1.75,1.81,3.2a2.83,2.83,0,0,0-1.32,1.21h-.36v-.6H123a1.8,1.8,0,0,0-1.81-1.21,5.13,5.13,0,0,0,.49,2.73H122v.16c.85.51.9,1.38,1.3,2.28h-.49c.11.74.4.74.49,1.52H124c.16.33.13.22.34.45-.34.27-.41.87-.5,1.36h-.31v-.15C122.19,132.39,122.06,131.18,121.23,129.89Zm20.14,4.54c.24.67.64.56,1,1h-.49c-.18-.13-.41,0-.65-.16-.81-.44-.27-1-1.81-1a.8.8,0,0,0-.16.16v.45a3.83,3.83,0,0,1-2-.61,1.72,1.72,0,0,0,.16-1.07,3.43,3.43,0,0,0-2.31-.61,3.8,3.8,0,0,0-.65-1.52c.5,0,.45-.11.65,0h.34c.22.67.15,1.05,1,1.21l.16-.16v-.44c1.39-.09,4.14,1,4.74,2A.68.68,0,0,0,141.37,134.43Zm.49-.9v-.15c.33-.07.31,0,.49-.16.34.07.31.05.49.16h-.15A1.66,1.66,0,0,1,141.86,133.53Zm-7.7-1.23c-.83,0-1.45.14-1.63-.15A4,4,0,0,1,134.16,132.3Zm-1-2.57a1.19,1.19,0,0,1-.16,1.37A3.48,3.48,0,0,1,133.18,129.73Zm-1.15-14v.76h-.15v-.16a1.5,1.5,0,0,1-.65-1.05c.85-.31.63-.74,2-.76V114c.33-.07.31,0,.49-.16a2.23,2.23,0,0,0,.16-1.21,2.93,2.93,0,0,1-1-2.28H133c.58.47,1.45.2,1.63.76-.38.25-.24.34-.83.45.09,1,1.37,2.32,1,3.17A8.19,8.19,0,0,1,132,115.77Zm-.82,15.33v.31h-.65c0,.94.36,1,.49,1.81h-.49v-.76l-.16-.16h-.49v.92h-.34v-.31a21.15,21.15,0,0,1,.5-2.58,7.9,7.9,0,0,1,1.63,0v.16h-.16c-.24.11-.91-.09-1.32.16-.13.18-.13.24-.15.6C130.45,131.21,130.83,131.14,131.21,131.1Zm-1.14,3.49v.15c-.3-.09-.16,0-.34-.15Zm1.63.15c.33.07.31,0,.49.16h-.33l-.16.16Zm0-6.69v-.15c-.13-.14-.18-.47-.34-.61h-.47a4.15,4.15,0,0,0-.15-1.36c-.85-1.37-1.35-1.68-1.3-3.65h.16c.17.11.15.09.49.16a5.86,5.86,0,0,1-.16,1.52,6.46,6.46,0,0,1,.67.44h.47v.41a4.14,4.14,0,0,1,1.32,3A3.41,3.41,0,0,1,131.7,128.05Zm.49,6.22c.43.23.18,0,.34.45h-.34Zm.18-24.88c.16,0,.31.09.49.16v.15C132.46,109.57,132.57,109.64,132.37,109.39Zm-3.11,20.94a2.42,2.42,0,0,0-1,2.13A5.22,5.22,0,0,1,126,132a5,5,0,0,1-.65-1.81,3.77,3.77,0,0,1,1-.16c.06-.31,0-.29.15-.44a7.68,7.68,0,0,0,2-1.84,1.21,1.21,0,0,1,.16.16c.42.22.51.22.65.76A1,1,0,0,0,129.26,130.33Zm0,4.41c-.51,0-.65.09-.83,0s-.15,0-.33-.15A2.61,2.61,0,0,1,129.26,134.74Zm-.18-14.43a1.11,1.11,0,0,0-.33-.16v-.44c.13-.16,0,0,.15-.32h.34v.92Zm-5.23,13.22h.82c.63.54,1.55.47,2.62.45v.45c.34,0,.31,0,.49.16h-.15v.15C126.42,134.41,124.34,134.5,123.85,133.53Zm12.28,16.23a2.52,2.52,0,0,1-1.14.76v-.45c.13-.18.13-.25.16-.6.58.06.91,0,1.14.31h-.16Zm1.81-1.82c-1.25.12-3,1.06-3.6-.31.13-.18.13-.25.18-.6a3.44,3.44,0,0,0-1,.15c-.22-1.36-.58-2.17-2.46-2.12a26.68,26.68,0,0,1-5.23,1.52c-.36-.14-.25-.14-.5-.31,1.26-1.5,0-1.91.5-3.81.15-.56.33-1.12.49-1.68a32.06,32.06,0,0,0,3.27-1.05c.35-.22.24-.71.49-1,0,0,2.15-1.48,2.3-1.52.27.45.23.42,1,.45a5.61,5.61,0,0,1,.83-1.68v.45a9.72,9.72,0,0,1,2.12-.16c-.11.78-.42.8-.49,1.68a2.85,2.85,0,0,0,1.48.44v.45h.49c.27-.89.71-2.1,1-3H139c0,1.45.49,1.18.83,1.81v1.81c.09.18.69.29.82.45a16.07,16.07,0,0,1,1.15,2.73c-.54.78-.47,1.72-1,2.42C139.93,146.13,138.64,146.69,137.94,147.94Zm3.76,3.94v-.16h.16c.69-.87,1.94-.91,2.95-1.52a7.09,7.09,0,0,0,1.32-1.36v.6c.34.07.31.05.49.16C144.63,150,144,151.79,141.7,151.88ZM143,132.77h.34a.81.81,0,0,0-.16.16v.16C143,132.91,143.11,133,143,132.77Zm5.73,15.46h-.16a5.8,5.8,0,0,1-1.81,1.21v-.15c.13-.21,0-.56,0-.61.22-.31.81-.33,1-.76s0-.92.16-1.21v.16h.16c-.16.45-.05.6,0,1.21h.65v.15Zm1.9-67.93H123.71V76l3.81-.74V49.54l-3.81-.74V44.46h14.84V48.8l-3.85.74V74.78h10.11l.34-4.5h5.48v10Z"/><rect class="b97e8129-3bea-416a-8566-2b6fc9e3b6b8" x="133.85" y="145.97" width="0.16" height="0.29"/><rect class="b97e8129-3bea-416a-8566-2b6fc9e3b6b8" x="133.67" y="146.27" width="0.16" height="0.31"/><rect class="b97e8129-3bea-416a-8566-2b6fc9e3b6b8" x="49.14" y="109.84" width="0.49" height="0.45"/><polygon class="b97e8129-3bea-416a-8566-2b6fc9e3b6b8" points="54.71 104.98 54.86 104.98 54.86 104.38 54.37 104.38 54.37 104.69 54.22 104.69 54.22 105.3 54.71 105.3 54.71 104.98"/></svg>