<svg id="f8a9d422-d090-4fbe-b62a-57074f8684d7" data-name="Layer 1" xmlns="http://www.w3.org/2000/svg" viewBox="0 0 180.44 245.76"><defs><style>.abb7f443-0f87-47f3-87b2-c9159ecf9264{fill:#fff;}</style></defs><path class="abb7f443-0f87-47f3-87b2-c9159ecf9264" d="M41.77,128.2a3.32,3.32,0,0,0,2.43-1.32c.41-.73.66-3,.66-5.4a24.43,24.43,0,0,0-.37-4.47c-.5-1.56-2.72-1.07-3.71-.9,0,3.4.33,8.29.33,12.16C41.32,128.23,41.57,128.24,41.77,128.2Z"/><path class="abb7f443-0f87-47f3-87b2-c9159ecf9264" d="M60.46,140.78a4.31,4.31,0,0,0,1-.37c1.52-.41,1.93-2.37,1.93-3.65.09-6.3.13-15.77-.41-21.59-.2-2-2-1.78-3.29-1.46a3.58,3.58,0,0,0-2.18,2.89c-.13,8.3.16,14.91.74,22.76C58.36,140.67,59.47,141,60.46,140.78Z"/><path class="abb7f443-0f87-47f3-87b2-c9159ecf9264" d="M99.07,111.67c-1,4.93-2.35,14.52-2.35,14.52l4.78-.87C100.76,120.69,100,115.87,99.07,111.67Z"/><path class="abb7f443-0f87-47f3-87b2-c9159ecf9264" d="M41.17,164.76c0,1.77.31,4.31.31,6.33l.6,0a4,4,0,0,0,2.24-.69,5.18,5.18,0,0,0,.61-2.89,7.35,7.35,0,0,0-.35-2.37C44.13,164.29,42.08,164.63,41.17,164.76Z"/><path class="abb7f443-0f87-47f3-87b2-c9159ecf9264" d="M77.09,160.1c-1.06.4-1.85,1-2,1.92a113.59,113.59,0,0,0,.69,14.87c.07.86,1.09,1.13,2,1.09a4.27,4.27,0,0,0,1-.16,2.11,2.11,0,0,0,1.78-2.3,119.26,119.26,0,0,0-.38-14.5C79.93,159.65,78.27,159.86,77.09,160.1Z"/><path class="abb7f443-0f87-47f3-87b2-c9159ecf9264" d="M56.71,163.22c.19,2.33.07,5.44.19,8,.41-.07.87-.08,1.36-.15,1.21-.19,2-.76,2-1.44l.11-4a3.19,3.19,0,0,0-.83-2.49C59.06,162.66,57.65,163,56.71,163.22Z"/><path class="abb7f443-0f87-47f3-87b2-c9159ecf9264" d="M139.12,127.18a3.91,3.91,0,0,0,1-.36c1.52-.41,1.93-2.4,1.93-3.69.09-6.37.13-15.94-.41-21.82-.2-2.07-2-1.8-3.29-1.48a3.61,3.61,0,0,0-2.18,2.92c-.12,8.38.16,15.07.74,23C137,127.07,138.13,127.35,139.12,127.18Z"/><path class="abb7f443-0f87-47f3-87b2-c9159ecf9264" d="M67.83,195.71a2.31,2.31,0,0,0-.44,1.65c1,0,1.37-.34,1.53-.58C69.28,196.27,68.74,194.92,67.83,195.71Z"/><path class="abb7f443-0f87-47f3-87b2-c9159ecf9264" d="M98.05,200.64a1.58,1.58,0,0,1,.21-1.33c-.94-.09-1.34.33-1.35,1a60.64,60.64,0,0,0,0,6.79c.21.46,1.64.57,1.8-.18a42.62,42.62,0,0,0,.25-5.35A1.34,1.34,0,0,1,98.05,200.64Z"/><path class="abb7f443-0f87-47f3-87b2-c9159ecf9264" d="M87.78,205.94a1.5,1.5,0,0,0,0,1.38c.35.51,1.14.29,1.48-.73C88.77,205.79,88.18,205.28,87.78,205.94Z"/><path class="abb7f443-0f87-47f3-87b2-c9159ecf9264" d="M92.5,196.22a.6.6,0,0,0-1-.37c-.43.38-.28,1.3-.28,1.62C92.07,197.58,92.68,197.07,92.5,196.22Z"/><path class="abb7f443-0f87-47f3-87b2-c9159ecf9264" d="M102.08,44.24a2.78,2.78,0,0,0,.59-1.84c0-1.13-.63-1.27-1.39-1.11-.93.18-1.07,2.51-1.13,3.41A2.48,2.48,0,0,0,102.08,44.24Z"/><path class="abb7f443-0f87-47f3-87b2-c9159ecf9264" d="M128.43,6.29C117.89,2.19,109.54-1.72,88,4,47.11,14.77,27.22,29.44,26.41,44.38,25.2,69.57.81,116.76.81,146.34c0,35.44,4.78,43.63,17.75,57.4,9.32,9.66,19.33,16.74,40.41,22.6,10.71-.78,16,13.64,27,16.33,24.31,5.92,50.67-2,62.83-16.4,17-19.63,25.8-58.66,27.83-97.32C177,115.48,167.28,26.91,128.43,6.29Zm4.1,60.61c.63.62,3.11,1.91,4.42,3.2-.18-1.6-.72-5.72-.72-6.29a28.43,28.43,0,0,1,3.55-.16l-.13,6.45c1-1.19,4.32-3.3,4.68-3.82a11.38,11.38,0,0,1,2.21,4L141.05,73a42.08,42.08,0,0,1,4.09,5.36c-1.17.77-2.29,1.86-3.64,2.94l-3.2-6.86-3.42,6.6a10.47,10.47,0,0,1-3-3.35c.22-.36,3.24-4.13,4.14-5l-5.18-1.6Zm-23.31-2.65c1.6-.07,3.28-.11,5-.12,3.5,0,7.15.05,10.39,0,0,.52,0,1.2,0,3-1.57.07-3.88.12-5.55.23,0,2.72.15,6,.11,9.33,0,2.71.41,6.14.19,9.08l-5,.94.07-.81c.56-6.25.12-12.79-.11-18.44-1.67,0-3.39.13-5.17.19,0-.57.07-1.1.07-1.55S109.22,65,109.22,64.25ZM90.68,29.8A2.45,2.45,0,0,1,93.3,32a8.91,8.91,0,0,1-1.09,4.47,17.7,17.7,0,0,1-2.09,3.16c0,.49,0,1.62,0,1.8,1.2-2,2.51-2.4,3.58-1.93,1.41.6,1.37,4.38,1.31,7.65a29.53,29.53,0,0,0,.08,3.42c.28.57,1.45-.78,2.68-2.72,0-.9.1-1.8.16-2.56.22-2.61.57-5.7,2.22-6.14a6.18,6.18,0,0,1,1.51-.21A2.79,2.79,0,0,1,104,40c.86,1.22.68,4.7-.75,5.88-1.25,1-2.16.85-3.28.95-.16,1.29-.35,3.13.26,3.85.84,1,2.74,1.45,6-3.35a5.08,5.08,0,0,1,1,1.36c-2,3.88-4.19,4.87-5.84,4.87a4.14,4.14,0,0,1-2.74-1,3.45,3.45,0,0,1-.73-1.72A8.28,8.28,0,0,1,96,53a3.21,3.21,0,0,1-1.65.46c-.75,0-1.43-.3-1.47-1.22-.08-2.4-.23-5.81-.23-8.67,0-1.76-1.61-1.23-2.53.92,0,1.36,0,1.64,0,2.35-.06,2.17.06,4.27,0,6.25-.53,0-1.55.12-2.2.12,0-3.53,0-8.49,0-9.67,0-1.61,0-8.28,0-9C87.92,32.15,87.86,29.8,90.68,29.8Zm14.71,44.86a10.48,10.48,0,0,1-.15,3.18l-5.29.53A51.92,51.92,0,0,0,100,85.1c2-.25,4.84-1.07,6.77-1.14a4.79,4.79,0,0,0,0,.67c0,.69.11,1.43.11,2.18a6.4,6.4,0,0,1-.08.89c-3.31.82-7.82,1.59-11.24,2.29l-.08-1.87c-.07-2-.11-3.93-.11-5.91,0-6,.26-12,.26-17.53,3.58-.19,7.45-.46,11.17-.57,0,.66.12,1.72.19,3.43l-6.85.58v.09l-.26,6.5C101.22,74.67,104,74.65,105.39,74.66Zm-14.6,1.11a12.29,12.29,0,0,1-.15,3.5l-5.28.48a61.54,61.54,0,0,0,.07,7.35c2-.22,4.84-1,6.78-1.07a4.35,4.35,0,0,0,0,.73c0,.77.11,1.58.11,2.41,0,.33,0,.67-.07,1-3.32.8-7.82,1.5-11.25,2.17l-.07-2c-.08-2.12-.11-4.27-.11-6.43,0-6.49.26-13,.26-19.07,3.57-.2,7.44-.49,11.17-.61,0,.73.11,1.89.18,3.78l-6.85.6v.1l-.26,7.1C86.62,75.72,89.41,75.73,90.79,75.77Zm-12-40.46a5.87,5.87,0,0,1,2.65-.76c.77,0,1.84,0,2.82,0s2.26,0,2.87,0A18.54,18.54,0,0,1,87,37.11c-.48,0-2.17,0-2.7,0-.1,1.11-.14,2.54-.16,3S84,43.48,84,44.31s-.08,4.87-.14,5.65a3.87,3.87,0,0,1-.6,2.33,2.14,2.14,0,0,1-2,1c-1.73,0-2.52-.5-3.6-2.09a12.28,12.28,0,0,1,1.25-1.73c.84.89,1.41,1.43,1.85,1.33.78-.14.7-.53.72-1.27,0-1.06.1-1.73.19-3.41.14-3,.12-5.1.14-5.7s.14-2.37.1-3.32a2.59,2.59,0,0,0-1.8.25,5.15,5.15,0,0,0-1.91,2.33,6.14,6.14,0,0,1-1.51-1A7.94,7.94,0,0,1,78.78,35.31ZM53.59,64.15l.9,2.39c1.9,5,3.35,13.92,3.91,16.91.56-3.19,1.49-8.73,4-19l3.47-.13c1.3,10.37,3.38,16.42,3.76,19.68.74-4.06,2.83-14.64,4.39-19.78l4.39,1.17c-1.6,6.45-5.32,21.12-6.77,28.36-.56.12-1,.18-1.31.23-.67.09-1.11.12-2.19.27-.75-2.39-3.2-13.13-3.65-15.09-.11-1-.26-2.06-.52-4.88a28.41,28.41,0,0,1-.52,4.56c-.3,1.6-2.91,12.71-4,16.78-.78,0-2.35.19-3.2.22C53.56,86.28,51.55,75,49.16,65.46ZM36.43,92.88l1.15-.11c1.68-.15,3.84-.57,5.07-2.78a10.2,10.2,0,0,0,.15-1.76c0-5.63-5.25-8.52-5.51-13,0-.51,0-1,0-1.57,0-2.93.52-6.29,2.79-8.25,1.16-1,3.5-1.64,5.88-1.85l.71,4.89a6.58,6.58,0,0,0-3.24,1.18,5.17,5.17,0,0,0-1.56,3.92,5.24,5.24,0,0,0,.74,2.82c1.64,2.66,5,7,5,12a11.52,11.52,0,0,1-1.9,6.24c-1.93,2.33-5.47,3.4-9.64,3.87L36,92.93ZM48.15,170.8c-.23,1.23-2.24,2.17-3.91,2.6l-2.76.34L41.4,182l-4.85.06a69.77,69.77,0,0,0,.27-7c0-1.93,0-3.87,0-5.77,0-2.09,0-4.16.19-6.18,2.69-.43,5.8-.93,8.94-1.18a3.35,3.35,0,0,1,2.5,1.09,13.14,13.14,0,0,1,.23,2.79A28,28,0,0,1,48.15,170.8Zm10.87,3-2,.08c-.3,2.05-.38,5.55-.53,7.83-.91,0-1.78.06-2.77.07-.49,0-1,0-1.59,0v-2.17c0-6.29.15-13.12.31-19,.56,0,1.25-.15,1.93-.26,1.06-.17,2.16-.38,3.26-.56,2.31-.38,4.47-.59,5.3.21a6.1,6.1,0,0,1,2,3.68c0,1.09.12,2.09.12,3a11.94,11.94,0,0,1-.8,4.63,2.55,2.55,0,0,1-1.21,1l5.07,8-3.37,1.7C62.32,178.92,60.84,176.27,59,173.81Zm11,24.41a3.27,3.27,0,0,1-2.42.93c.65,2.15,2.39,3.58,2.39,6a4,4,0,0,1-.86,3,2.73,2.73,0,0,1-2.29,1.06,3.38,3.38,0,0,1-1.54-.35,4,4,0,0,1-1.66-3.26,2,2,0,0,1,.23-1c.28-.51.44-.91,1.28-.85,1.66.11,1.4,2.58.26,2.56,0,.88,1,1.17,1.6,1,.83-.26,1.13-1.5,1.13-2,0-2.15-1.86-3.19-2.45-6.28a3.48,3.48,0,0,1-2.7-1.6,8.14,8.14,0,0,1,.86-1.28,3.12,3.12,0,0,0,1.8,1c.12-1.66.35-2.62,1.57-3.28a2.28,2.28,0,0,1,1.08-.25,2.51,2.51,0,0,1,1.75.64,2.79,2.79,0,0,1,.54,1.85A3.8,3.8,0,0,1,70,198.22Zm6.4,9.88A3.41,3.41,0,0,1,74,209.18a2.24,2.24,0,0,1-1.65-.58,1.88,1.88,0,0,1-.42-1.08c-.08-1.44-.09-2.8-.09-4,0-.93,0-1.73,0-2.33l.05-5.7c.46,0,1.15-.07,1.86-.09-.06,1.26,0,2.15,0,3.46.56,0,1.4,0,2.26,0a13.75,13.75,0,0,1,0,1.64c-1,.09-1.56.1-2.26.18l0,5.26c0,1.44,1.19,1.49,1.79.95a10.69,10.69,0,0,0,2-2.48,8.17,8.17,0,0,1,.8,1.13A10.09,10.09,0,0,1,76.43,208.1Zm4.74.7a1.1,1.1,0,0,1-.79.32,1.58,1.58,0,0,1-1.45-1.63,1.29,1.29,0,0,1,1.24-1.44,1.45,1.45,0,0,1,1.43,1.45A2.79,2.79,0,0,1,81.17,208.8Zm2.44-29.49a6.59,6.59,0,0,1-3.56,2.52c-.72,0-1.52,0-2.31.06-2.32,0-4.74-.14-5.88-1.6-1.59-2-1.55-7.28-1.74-11.2,0-1.37-.19-3-.19-4.57,0-2.66.42-5.23,2.46-6.43a17.44,17.44,0,0,1,5.16-1.65,8.68,8.68,0,0,1,4.73.22,4.61,4.61,0,0,1,2.5,3.93c.12,2.79.34,6.29.34,9.59C85.12,174.14,84.82,177.74,83.61,179.31Zm35.83,28.59a3.07,3.07,0,0,1-2.41,1.24,2,2,0,0,1-.61-.09,2.86,2.86,0,0,1-1.64-1.63,8.17,8.17,0,0,1-1.36,1.39,2.83,2.83,0,0,1-1,.22c-.93,0-1.76-.58-1.78-2v-.12a12.11,12.11,0,0,1-1.7,1.83,1.55,1.55,0,0,1-1,.39c-.61,0-1.23-.42-1.31-1.75a3.72,3.72,0,0,1-2.54,1.71,1.1,1.1,0,0,1-.89-.42,4.25,4.25,0,0,1-.34-2.15c0-1,.08-2.15.12-3,0-.38.06-1.32.12-2.6a5.85,5.85,0,0,1-.68.3,4.37,4.37,0,0,1-1.73.26c0,.27,0,.58,0,.89,0,.87-.09,1.69-.13,2.18a13.79,13.79,0,0,1-.39,3.39,2.41,2.41,0,0,1-2.5,1.26c-.92,0-2.35-.39-2.49-1.41,0-.12,0-.27,0-.44-.91,1.39-1.71,1.84-2.48,1.81a2.86,2.86,0,0,1-2.14-1.37c-.65,1.2-1.27,1.48-1.89,1.48a5.38,5.38,0,0,1-.69-.07c-1.49-.26-1.68-2-1.68-2.79s.32-2.17,1.16-2.44a2,2,0,0,1,2.06.4c.13-2-.12-4.3,0-5.31-1-.13-2.3-.86-3.1-2.94a8.82,8.82,0,0,1,1.21-1c.56,1.08,1.13,1.86,1.88,2.1a6.68,6.68,0,0,1,.27-2.21,1.75,1.75,0,0,1,1.81-1.14,2.91,2.91,0,0,1,1.53.42,2.19,2.19,0,0,1,1,1.34,4,4,0,0,1-.3,2.5,2.75,2.75,0,0,1-2.43,1.18,27,27,0,0,1-.2,6.37c.45.44,1,1.42,1.66,1.38.47,0,1.21-.2,2.41-2.37,0-.44,0-.85,0-1.21,0-1.42.11-2.77.19-4.15.06-1.13.93-1.49,2-1.57a8,8,0,0,1,.87-.05c1,0,2.42.29,2.47,2.09.28.17.68,0,1.21-.11a5,5,0,0,0,1.29-.54c0-.37,0-.75.06-1.15a8.85,8.85,0,0,0,1,0,5.7,5.7,0,0,1,.71,0c-.22,3-.36,7-.36,7.72,0,1.44,1.4.42,2-.54.11-2.32.21-4.77.34-7.38a9.59,9.59,0,0,0,1.32,0,4.15,4.15,0,0,1,.55,0c-.16,3.17-.52,6.35-.51,8.54,0,1.26,1.29-.22,2.26-1.77,0-2.21-.06-3.94,0-6.64a13.11,13.11,0,0,1,1.79-.06c.07,3.7-.22,8.65.16,9s1.3-.48,2-1.56c.07-.58.26-1.17.75-1.33a1,1,0,0,1,1.48.65c.2.53.06,1.75-.94,1.52A1.17,1.17,0,0,0,117,207.5c.45,0,1.39-.4,1.16-2.09-.09-.73-.93-1.51-1.57-2.2a4.64,4.64,0,0,1-1.27-2.32,3.13,3.13,0,0,1,.16-2.36,2,2,0,0,1,1.68-.89,1.1,1.1,0,0,1,1.19.91c.1,1-.25,1.93-1.62,1.45,0,.82,1.26,1.93,2,2.62a4.21,4.21,0,0,1,1.16,2.39,7.31,7.31,0,0,1,.08,1A3.18,3.18,0,0,1,119.44,207.9ZM93.27,153.85c.64-.07,1.21-.17,1.74-.26,1.06-.18,1.94-.37,2.81-.52,0,3.12,0,6.28,0,9.44,0,5-.07,10.05-.41,15.26-.19,2.84-2.69,3.35-5.69,3.4-1.36,0-2.88,0-4.28,0-.07-.73-.11-1.82-.11-2.78v-.89a21.79,21.79,0,0,1,2.2-.12c1.36-.06,2.69-.21,3.22-1.23.34-.63.3-2.44.38-4.53C93.35,166.45,93.23,158.48,93.27,153.85Zm18.83,9.84a15.72,15.72,0,0,1-.15,4l-5.38.47a70,70,0,0,0,.07,7.84c2-.06,4.93-.68,6.9-.51a5.77,5.77,0,0,0,0,.85c0,.88.12,1.83.12,2.78a9.65,9.65,0,0,1-.08,1.11c-3.37.38-8,.47-11.44.68l-.08-2.08c-.07-2.15-.11-4.34-.11-6.53,0-6.58.26-13.22.26-19.37,3.64-.81,7.58-1.79,11.37-2.58,0,.84.11,2.16.19,4.33l-7,1.51v.12l-.27,7.58C107.86,163.78,110.7,163.69,112.1,163.69Zm.57,31.6a1.53,1.53,0,0,1-.36,1.09,1.27,1.27,0,0,1-1.5.09,1.37,1.37,0,0,1-.55-1.18c0-.87.46-1.44,1.21-1.44a1.11,1.11,0,0,1,1,.58A2,2,0,0,1,112.67,195.29Zm16-43.1-1.59.25c-2.2.34-4.47.9-5.31,3.38-.3,3.23-.41,6.15-.41,9,0,2.43.07,4.81.26,7.26.27,4.09,4.43,4,6.78,3.66-.07,1.6,0,2.59-.15,4.86-2.23,0-10,.18-11-3.69a49.05,49.05,0,0,1-.79-9.91,78.67,78.67,0,0,1,.9-12.35c.46-2.93,2-4,4.67-5.27a15.07,15.07,0,0,1,5.11-1.68c.49-.09,1-.18,1.59-.25Zm13-1.68c0,4.35.16,9.59.12,15,0,4.36.41,10,.19,14.63l-5.12.1.08-1.2c.57-9.36.11-19.29-.12-27.8-1.7.14-3.44.59-5.26.87,0-.8.07-1.56.07-2.18s0-1.5,0-2.59c1.62-.38,3.33-.73,5.11-1,3.56-.66,7.28-1.2,10.57-1.81,0,.89,0,2.07,0,5.09C145.71,149.82,143.36,150.15,141.65,150.51Zm6.46-12.25c-19.86,3.73-41.55,7.74-63,11.66l-49.64,9-.17-2.51L43,155l105-19.36c.28,0,.29.09.3.22,0,.43-.35,1.3-.3,1.95C148,138,148.1,138.13,148.11,138.26ZM36,124.64c0-4.15,0-8.26.2-12.25a72.86,72.86,0,0,1,9.72-1.25,3.81,3.81,0,0,1,2.72,2.26,41.35,41.35,0,0,1,.24,5.1,83.77,83.77,0,0,1-.53,9.16c-.25,2.27-2.43,4.06-4.24,5l-3,.75L41,149.18l-5.27.86c.25-4.52.29-9.19.29-13.95C36.05,132.27,36,128.41,36,124.64Zm15.93-4.22c0-4.2.45-8.25,2.67-10a14.09,14.09,0,0,1,5.6-2.22c1.94-.35,3.91-.27,5.15.6a7.53,7.53,0,0,1,2.71,5.82c.13,4,.37,9.12.37,13.9,0,5.73-.32,11-1.64,13.44a9.75,9.75,0,0,1-3.87,4.27c-.78.13-1.65.33-2.51.48-2.51.43-5.15.55-6.38-1.55-1.73-2.87-1.69-11.29-1.9-17.49C52.1,125.5,51.94,122.93,51.94,120.42ZM71.33,106.6q2.65-.61,5.55-1.13c3.87-.69,7.91-1.26,11.49-1.89,0,.94,0,2.17,0,5.36-1.73.35-4.28.75-6.13,1.17,0,4.71.16,10.36.12,16.16,0,4.7.45,10.68.2,15.76l-5.55.95.08-1.34c.62-10.39.12-21.3-.12-30.69-1.86.18-3.75.7-5.72,1,0-.9.08-1.76.08-2.47C71.37,108.67,71.33,107.83,71.33,106.6ZM89.23,141l.7-3.92,6.63-35.17,2.72-.48c.74-.13,1.52-.27,2.1-.42,2.84,9.82,5.43,23.88,8.39,36.45l-5.68,1c-.66-2-1-5.34-1.52-7.68-2.31.21-4.78.83-7.08,1.28l-1.77,8.19c-1,.17-2,.25-3,.42A9.05,9.05,0,0,0,89.23,141Zm22-41.45c1.77-.41,3.62-.78,5.56-1.13,3.87-.68,7.9-1.25,11.48-1.89.05.95.05,2.19.05,5.39-1.73.35-4.29.75-6.14,1.18,0,4.72.17,10.41.13,16.24-.05,4.72.45,10.74.2,15.84l-5.56,1,.09-1.35c.61-10.45.12-21.42-.13-30.86-1.85.18-3.74.71-5.72,1.06,0-.91.08-1.78.08-2.49C111.25,101.62,111.21,100.77,111.21,99.53Zm19.39,7.07c0-4.25.45-8.34,2.68-10.12a13.89,13.89,0,0,1,5.59-2.23c1.94-.34,3.91-.26,5.15.62a7.65,7.65,0,0,1,2.72,5.88c.12,4.09.37,9.22.37,14,0,5.79-.33,11.11-1.65,13.58a9.77,9.77,0,0,1-3.87,4.31c-.78.13-1.65.33-2.51.48-2.51.43-5.15.55-6.38-1.58-1.73-2.9-1.69-11.41-1.89-17.67C130.76,111.73,130.6,109.13,130.6,106.6Zm17.34-19.83c0,.17.16.29.17.42-19.86,3.73-41.55,7.74-63,11.66-16.88,3.07-33.76,6.13-49.64,9l-.17-2.5L43,104l105-19.36c.28,0,.29.09.3.22C148.27,85.26,147.89,86.13,147.94,86.77Z"/><path class="abb7f443-0f87-47f3-87b2-c9159ecf9264" d="M91.37,33.59c.38-2-1.33-2-1.37-.7s0,2.26.06,3.88A12.56,12.56,0,0,0,91.37,33.59Z"/></svg>