<svg id="f48bb206-2613-435c-90a3-1861048945f1" data-name="Layer 1" xmlns="http://www.w3.org/2000/svg" viewBox="0 0 180 36.99"><defs><style>.b6f4df42-be60-47c0-9ac0-8e9e90e94832{fill:#fff;}</style></defs><path class="b6f4df42-be60-47c0-9ac0-8e9e90e94832" d="M130.93,15c.08,1.74,0,4.05.08,5.95.2,0,.41-.06.65-.12a1.18,1.18,0,0,0,.94-1.07l.05-2.91a3.24,3.24,0,0,0-.39-1.83C132,14.71,131.37,14.87,130.93,15Z"/><path class="b6f4df42-be60-47c0-9ac0-8e9e90e94832" d="M123.62,15.66c0,1.47.14,3.59.14,5.26l.28,0a1.45,1.45,0,0,0,1.06-.56,7,7,0,0,0,.28-2.33,10,10,0,0,0-.16-1.93C125,15.4,124,15.59,123.62,15.66Z"/><path class="b6f4df42-be60-47c0-9ac0-8e9e90e94832" d="M140.52,13.41a1.51,1.51,0,0,0-1,1.23c0,3.56.07,6.4.32,9.77,0,.56.52.68,1,.61a1.43,1.43,0,0,0,.44-.15c.66-.17.84-1,.84-1.55,0-2.7.06-6.76-.18-9.26C141.85,13.18,141.07,13.29,140.52,13.41Z"/><path class="b6f4df42-be60-47c0-9ac0-8e9e90e94832" d="M112,17.47l-3.22,8.64V37L180,24.6V.54L115.71,11.33Zm14.86,3.24a3.06,3.06,0,0,1-1.84,2.1l-1.3.31,0,6.84-2.28.35c.11-1.95.12-4,.12-6,0-1.65,0-3.33,0-5,0-1.79,0-3.57.09-5.3a29.38,29.38,0,0,1,4.2-.45,1.69,1.69,0,0,1,1.18,1,17.2,17.2,0,0,1,.11,2.21A36.9,36.9,0,0,1,126.9,20.71Zm7.79,7.87c-1.13-2.14-1.82-4-2.68-5.71l-.94.11c-.14,1.52-.18,4.14-.25,5.84-.43.06-.84.15-1.3.23l-.75.1V27.48c0-4.83.07-10.07.14-14.54a8.3,8.3,0,0,0,.91-.11c.5-.07,1-.18,1.53-.26,1.09-.17,2.11-.22,2.5.39a5.54,5.54,0,0,1,.93,2.66c0,.77.05,1.47.05,2.14a12.35,12.35,0,0,1-.37,3.27,1.58,1.58,0,0,1-.58.74l2.39,5.41Zm8.89-3a4.14,4.14,0,0,1-1.67,1.81l-1.09.19c-1.09.18-2.23.22-2.76-.69-.75-1.24-.73-4.85-.82-7.52,0-.93-.09-2-.09-3.11,0-1.81.19-3.55,1.16-4.29a6,6,0,0,1,2.42-.9,3.17,3.17,0,0,1,2.23.3,3.29,3.29,0,0,1,1.18,2.51c.05,1.73.16,3.9.16,5.95C144.3,22.26,144.15,24.51,143.58,25.56Zm6.51-1.7c-.09,1.65-1.26,2.1-2.67,2.33-.64.1-1.36.16-2,.27,0-.44-.05-1.11-.05-1.7v-.54a10.47,10.47,0,0,1,1-.19c.64-.1,1.27-.26,1.52-.89a13.13,13.13,0,0,0,.18-2.7c.09-3.05,0-7.75,0-10.49.3,0,.57-.07.82-.1.5-.08.91-.17,1.32-.23,0,1.8,0,3.61,0,5.43C150.29,17.92,150.25,20.84,150.09,23.86Zm6.9-8.31a9.49,9.49,0,0,1-.07,2.11l-2.53.4c-.09.15,0,3.41,0,4.29a32,32,0,0,1,3.25-.62,3.17,3.17,0,0,0,0,.45c0,.46,0,1,0,1.46a5.54,5.54,0,0,1,0,.59c-1.59.42-3.75.77-5.39,1.11l0-1.16c0-1.21-.05-2.44-.05-3.67,0-3.7.12-7.43.12-10.89,1.71-.37,3.57-.82,5.35-1.16,0,.45.05,1.14.09,2.29l-3.28.76v.06l-.13,4.15C155,15.66,156.33,15.57,157,15.55Zm7.79-6L164,9.7c-1,.16-2.1.43-2.49,1.68-.14,1.64-.2,3.11-.2,4.56,0,1.23,0,2.43.13,3.67.12,2.05,2.08,1.78,3.19,1.48,0,.79,0,1.27-.07,2.38-1.06.17-4.71.77-5.16-1.18a27.33,27.33,0,0,1-.37-5.1,43.69,43.69,0,0,1,.43-6.41,3.11,3.11,0,0,1,2.19-2.64,6.57,6.57,0,0,1,2.41-.76l.75-.1ZM171,15.64c0,2,.2,4.52.09,6.67l-2.41.39,0-.57c.27-4.4.05-9,0-13-.81.07-1.63.28-2.48.41,0-.38,0-.75,0-1s0-.72,0-1.24c.76-.16,1.56-.31,2.4-.44,1.68-.26,3.43-.47,5-.71,0,.39,0,.91,0,2.26-.75.14-1.86.29-2.66.46C170.88,10.79,171,13.19,171,15.64Z"/><polygon class="b6f4df42-be60-47c0-9ac0-8e9e90e94832" points="116.68 24.6 108.82 36.99 108.96 25.7 112.04 17.47 116.68 0.54 116.68 24.6"/><path class="b6f4df42-be60-47c0-9ac0-8e9e90e94832" d="M73.74,14.12a1.54,1.54,0,0,0-.95,1.24c-.05,3.57.07,6.42.32,9.79,0,.57.52.69,1,.61a1.75,1.75,0,0,0,.44-.16c.66-.17.84-1,.84-1.57,0-2.71.06-6.77-.18-9.27C75.08,13.88,74.29,14,73.74,14.12Z"/><path class="b6f4df42-be60-47c0-9ac0-8e9e90e94832" d="M65.54,15.1c0,1.47.14,3.59.14,5.26l.28,0A1.53,1.53,0,0,0,67,19.77a6.77,6.77,0,0,0,.28-2.33,10,10,0,0,0-.16-1.93C66.93,14.83,66,15,65.54,15.1Z"/><path class="b6f4df42-be60-47c0-9ac0-8e9e90e94832" d="M89.77,19.49l2.06-.37c-.32-2-.64-4-1-5.8C90.34,15.41,89.77,19.49,89.77,19.49Z"/><path class="b6f4df42-be60-47c0-9ac0-8e9e90e94832" d="M107.81,8.35a1.55,1.55,0,0,0-1,1.22c0,3.53.08,6.34.33,9.67,0,.56.51.67.94.6a2,2,0,0,0,.45-.16c.66-.17.83-1,.83-1.55,0-2.67.06-6.69-.17-9.16C109.15,8.1,108.36,8.22,107.81,8.35Z"/><path class="b6f4df42-be60-47c0-9ac0-8e9e90e94832" d="M51.65,12.49V37L116.77,24.6V.54Zm17.17,7.62A3.08,3.08,0,0,1,67,22.24l-1.3.33,0,6.84-2.28.37c.11-2,.13-4,.13-6,0-1.65,0-3.32,0-5,0-1.79,0-3.57.09-5.3A32.35,32.35,0,0,1,67.77,13a1.65,1.65,0,0,1,1.17,1,17.14,17.14,0,0,1,.11,2.2A36.9,36.9,0,0,1,68.82,20.11Zm8,6.15a4.2,4.2,0,0,1-1.67,1.84c-.34,0-.71.14-1.09.21-1.09.19-2.23.24-2.76-.66-.75-1.23-.73-4.86-.82-7.53,0-.94-.09-2.05-.09-3.13,0-1.81.19-3.55,1.16-4.3A5.84,5.84,0,0,1,74,11.75a3.18,3.18,0,0,1,2.23.27,3.28,3.28,0,0,1,1.18,2.51c0,1.73.16,3.91.16,6C77.52,23,77.38,25.21,76.8,26.26Zm6.76-6.73c0,2,.2,4.57.09,6.73l-2.41.42,0-.57c.27-4.45,0-9.12,0-13.13-.81.07-1.63.29-2.48.44,0-.39,0-.76,0-1.07s0-.72,0-1.25c.76-.17,1.56-.33,2.4-.47,1.68-.28,3.43-.51,5-.78,0,.41,0,.93,0,2.29-.75.15-1.86.31-2.66.49C83.49,14.64,83.58,17.05,83.56,19.53ZM93,24.68c-.29-.86-.45-2.27-.66-3.26-1,.09-2.07.36-3.07.55l-.77,3.49c-.42.08-.87.11-1.3.19a3.93,3.93,0,0,0-.64.15l.3-1.67,2.88-15L90.87,9c.32-.06.66-.11.91-.18C93,13,94.13,18.92,95.42,24.25Zm7.88-8.12c0,2,.19,4.53.09,6.69l-2.41.42,0-.57c.26-4.42,0-9.06-.06-13-.8.07-1.62.29-2.48.44,0-.39,0-.75,0-1.06s0-.72,0-1.24c.77-.17,1.57-.33,2.41-.47,1.68-.28,3.42-.52,5-.78,0,.4,0,.92,0,2.27-.75.15-1.85.32-2.66.49C100.77,11.7,100.86,14.1,100.84,16.56Zm10,3.76a4.13,4.13,0,0,1-1.68,1.82c-.34.06-.71.15-1.09.21-1.09.19-2.23.25-2.76-.64-.75-1.22-.73-4.8-.82-7.44,0-.92-.09-2-.09-3.08,0-1.79.2-3.51,1.16-4.25A6,6,0,0,1,108,6a3.13,3.13,0,0,1,2.23.26,3.16,3.16,0,0,1,1.18,2.47c0,1.71.16,3.86.16,5.89C111.59,17.05,111.45,19.28,110.88,20.32Z"/><polygon class="b6f4df42-be60-47c0-9ac0-8e9e90e94832" points="51.65 12.39 59.52 0 59.52 24.5 51.65 36.45 51.65 12.39"/><path class="b6f4df42-be60-47c0-9ac0-8e9e90e94832" d="M0,12.3V36.8L59.51,24.41V.35ZM13.73,27.93c-.92,1.23-2.62,1.89-4.61,2.29l0-2.61.23,0,.56-.11a3.17,3.17,0,0,0,2.42-1.61,5.45,5.45,0,0,0,.07-.87c0-2.75-2.51-3.81-2.64-6,0-.24,0-.48,0-.75A6,6,0,0,1,11,14.05a6.72,6.72,0,0,1,2.82-1.44L14.2,15a3.54,3.54,0,0,0-1.55.85,3,3,0,0,0-.75,2,2.26,2.26,0,0,0,.35,1.31c.79,1.2,2.39,3.12,2.39,5.59A6.25,6.25,0,0,1,13.73,27.93Zm12.43-1.19a5.86,5.86,0,0,1-.62.15c-.32.06-.54.08-1.05.19-.36-1.27-1.54-6.9-1.75-7.92-.06-.51-.13-1.07-.25-2.55a16.78,16.78,0,0,1-.25,2.45c-.14.86-1.39,6.79-1.89,8.94-.38,0-1.12.16-1.53.21-1.31-4.75-2.27-10.32-3.41-14.92l2.12-1.06L18,13.37a56.78,56.78,0,0,1,1.87,8.39c.27-1.67.72-4.61,1.91-10.2l1.66-.38C24,16.62,25,19.75,25.2,21.5c.36-2.24,1.35-8.15,2.1-11.11l2.11.26C28.64,14.41,26.86,22.73,26.16,26.74Zm9.18-10.87A8.92,8.92,0,0,1,35.27,18l-2.53.5a42.36,42.36,0,0,0,0,4.3A29.59,29.59,0,0,1,36,22a3.1,3.1,0,0,0,0,.44c0,.47.06,1,.06,1.47a5.65,5.65,0,0,1,0,.59c-1.59.48-3.74.91-5.38,1.31l0-1.16c0-1.21-.05-2.44-.05-3.68,0-3.7.12-7.44.12-10.9,1.71-.43,3.57-.95,5.35-1.35,0,.44,0,1.14.09,2.28l-3.28.88V12l-.13,4.16C33.35,16.06,34.68,15.92,35.34,15.87Zm7-1.36a8.85,8.85,0,0,1-.07,2.1l-2.53.5c-.09.16,0,3.41,0,4.29A33,33,0,0,1,43,20.65a3.31,3.31,0,0,0,0,.45c0,.46.06.95.06,1.46a5.65,5.65,0,0,1,0,.59c-1.59.48-3.74.9-5.38,1.31l0-1.16c0-1.2-.05-2.43-.05-3.66,0-3.69.12-7.43.12-10.88,1.71-.43,3.57-1,5.35-1.35,0,.44.05,1.14.09,2.28l-3.28.87v.06l-.13,4.16C40.34,14.7,41.67,14.56,42.33,14.51Zm6.63,1c0,2,.2,4.52.09,6.67l-2.4.48,0-.57c.27-4.42.06-9,0-13-.8.09-1.62.33-2.48.5,0-.39,0-.76,0-1.06s0-.72,0-1.24c.77-.19,1.57-.36,2.41-.52,1.67-.33,3.42-.6,5-.9,0,.4,0,.92,0,2.26-.75.17-1.86.36-2.66.56C48.89,10.68,49,13.07,49,15.52Z"/></svg>