<svg id="a686a0cb-b391-4f02-9bbf-41d3958ca083" data-name="Layer 1" xmlns="http://www.w3.org/2000/svg" viewBox="0 0 178.29 72.2"><defs><style>.b48202af-9640-445d-9570-0acd938e39ec{fill:#fff;fill-rule:evenodd;}</style></defs><path class="b48202af-9640-445d-9570-0acd938e39ec" d="M51.22,72a.69.69,0,0,0-.15-.07A.19.19,0,0,0,51.22,72Z"/><path class="b48202af-9640-445d-9570-0acd938e39ec" d="M150.47,48.22h0l0,0h0Z"/><path class="b48202af-9640-445d-9570-0acd938e39ec" d="M178.13,23.66c-.17.14-.35.28-.52.44-.62.55-1.21,1.12-1.84,1.66a6.21,6.21,0,0,1-1.48,1,15.17,15.17,0,0,0-1.69,1.14.39.39,0,0,1-.25.08c-.29,0-.45.21-.66.34s-.12.18-.18.17a2.69,2.69,0,0,0-1.44.55c-1.11.53-2.2,1.08-3.28,1.66-.88.47-1.73,1-2.58,1.48-.48.29-1,.56-1.43.89a14.88,14.88,0,0,0-1.3,1.08c-.36.32-.59.78-1.09.93-.06,0-.09.11-.15.16-.24.23-.48.47-.74.68s-.68.52-1,.79c-.18.15-.32.42-.51.46-.54.1-.72.65-1.18.83a.32.32,0,0,0-.16.2c0,.17-.11.23-.23.32a3.65,3.65,0,0,1-1.06.81c-.09,0-.15.15-.23.23a10.59,10.59,0,0,1-.76.74c-.27.22-.56.39-.83.57v.52l-.55.13a1.11,1.11,0,0,0-.36.08c-.63.33-1.26.68-1.89,1a1.54,1.54,0,0,1-.34.17l-1.8.48-.16,0a2,2,0,0,1-1.61.31,4.25,4.25,0,0,0-1.88.08A17.48,17.48,0,0,1,141,44c-1.53,0-3.07-.05-4.61-.13-1.33-.06-2.66-.19-4-.29-1.13-.08-2.27-.13-3.4-.26-2-.22-4.09-.49-6.13-.75a42.64,42.64,0,0,1-4.88-1,2.93,2.93,0,0,1-.59-.29,10.73,10.73,0,0,1,1.49-.67c2-.84,4.08-1.67,6.1-2.54,1.13-.49,2.22-1.05,3.34-1.56a8.15,8.15,0,0,0,2.41-1.42,1.71,1.71,0,0,0,.52-.79,3.1,3.1,0,0,0-.74-.19,20.16,20.16,0,0,0-2.2.16,6.79,6.79,0,0,0-1.24.37l-2.15.68-.83.24a8.51,8.51,0,0,0-1,.3c-.38.14-.74.33-1.12.48-.73.31-1.48.57-2.19.9s-1.6.83-2.4,1.25a3.67,3.67,0,0,1-.47.16c-.09-.78-.21-1.5-.26-2.22-.13-1.66-.22-3.32-.33-5-.17-2.29-.33-4.58-.52-6.87a6.08,6.08,0,0,0-.43-2.43,2.08,2.08,0,0,0-1.12-1.08c-.31-.1-.59.05-.89,0a1,1,0,0,0-1.06.38,3.69,3.69,0,0,0-.75,1.66c-.08.57,0,1.15-.11,1.73-.2,2-.42,3.95-.63,5.92-.14,1.32-.32,2.62-.41,3.94-.17,2.38-.33,4.76-.28,7.15a1.19,1.19,0,0,1-.08.3c-.5,0-3.21-.1-3.65-.14a1.14,1.14,0,0,0-.3.09,8.52,8.52,0,0,1-1.47.59c-.07,0-.14.1-.2.15.09.33.32.59.17,1-.39,1-.42,9.58-2.42,15-.3.77-1.21,3.28-1.55,4-.2.43-1.57-.2-1.6-.26a21,21,0,0,1-1.72-4.26,28.17,28.17,0,0,1-.71-5.63c0-1.32,0-7.17,0-8.49a.81.81,0,0,1,.54-.9c-.07-.17-.12-.29-.18-.41.64-.29,1.35-.25,1.91-.7A8,8,0,0,0,97.07,42c-.64,0-1.27.15-1.93.17A26.22,26.22,0,0,1,91.08,42c-1.49-.18-3-.45-4.45-.64a25.5,25.5,0,0,0-3-.29c-1.37,0-2.75,0-4.12.11-.88,0-1.75.21-2.63.33s-2,.32-2.93.45c-.44.06-.67-.12-.72-.53-.13-1-.24-2-.34-3.07,0-.26-.67-10.73-.81-11.44-.08-.39-.24-.55-.62-.51a46.18,46.18,0,0,0-4.57.89c-.39.22-.38.45-.06.77s.34.39.5.57c-.24.36-.43.66-.6.93a2,2,0,0,1,0,.48c-.06.39.13,7.84.14,8,0,.52,0,1,0,1.57l-.21,5.1c0,.32-.05.64-.07,1l-.53.07c-.46.08-.92.15-1.38.24a14.74,14.74,0,0,1-2.4-.07,6.26,6.26,0,0,1-1-.23c-.88-.27-1.77-.51-2.63-.84a18.75,18.75,0,0,0-3.24-1.18c-1-.19-2-.45-3-.59a12.49,12.49,0,0,0-3.56,0,21.1,21.1,0,0,0-3.24.64c-.46.15-1,.17-1.43.29-.82.21-1.63.45-2.45.66a4.55,4.55,0,0,1-.91.15.91.91,0,0,1-1-.64,16.06,16.06,0,0,1-.61-1.49.84.84,0,0,0-.73-.6A1.63,1.63,0,0,0,38,42a11.72,11.72,0,0,0-1.19.15,1.05,1.05,0,0,0-.61.31,3.76,3.76,0,0,0-.82,2c0,.89,0,1.77,0,2.66,0,1.61,0,3.22-.09,4.83,0,1.34-.15,2.67-.22,4a71.42,71.42,0,0,0,0,7.88,4.68,4.68,0,0,0,0,.65c.27,1.23.46,4.29.91,5.48a2.91,2.91,0,0,0,.75,1.17c.42.36,4.32.48,4.83.19a.33.33,0,0,0,.14-.15c.15-.35.3-.69.44-1s.27-.69.4-1c.24,0-1.78-21.44-1.77-21.53a2.7,2.7,0,0,1,1.53-.73c.71-.1,1.42-.24,2.14-.31s1.25-.07,1.91-.1a4.92,4.92,0,0,1,0,.67c-.17,1.39-.87,15.62-.84,17.78,0,.81-.23,4.12-.15,4.37.19.58.32,1.18.53,1.75s6.46.24,6.51.15c.24-.37-.76-22.62-.87-23.88,0-.24,0-.49-.06-.81l2.69.4,2.64.34c-.07.21,0,22,.36,22.67s.45,1.48,1.4,1.58a38.63,38.63,0,0,0,4.28-.31.78.78,0,0,0,.33-.4c.14-.35-1.21-22.48-1.49-23.11a37.53,37.53,0,0,1,4.92-1c-.14,5,.48,11.05.34,16-.15.18.64,7.7.58,8,0,.15,0,.31,0,.42a2.61,2.61,0,0,0,1.29.51c.34.28,6.86-.06,7-.53s.23-.72.37-1.07a.52.52,0,0,1,.21-.27,25.18,25.18,0,0,1,3.35-.3,5.7,5.7,0,0,0,3.76-1.85,12.78,12.78,0,0,0,2.89-4.67,33.66,33.66,0,0,0,1.48-6.35c.23-1.39.45-3.69.71-5.07a37.38,37.38,0,0,0,.63-6.14c0-.41.07-.82.1-1.2l2.11-.34c.48-.07.46-.07.71.39a1,1,0,0,1,0,.58Q92,45.86,91.79,47a40.1,40.1,0,0,0-.47,5.78A27,27,0,0,0,91.59,57c.2,1.14.59,6.76.92,7.87a6,6,0,0,0,3.12,3.91c.85.4,4.21,1.85,4.69,2,.08,0,.89.14,1.2.22s.67.19.73.69c.47-.16.88-.34,1.31-.44A1.8,1.8,0,0,0,104.85,70c.18-.47.37-1,.54-1.42,3.74-9.87,5-21,5-21.08.12.68.9,7.6,1,8.18.24,1.5.47,3,.74,4.49q.34,2,.78,3.93c.15.69.44,1.35.58,2a18.81,18.81,0,0,0,1.08,2.76,5.33,5.33,0,0,0,.86,1.35,14.35,14.35,0,0,0,1.17,1.17c.07-.13.12-.24.17-.34l.49.34c0,.08-.1.18-.08.25s.27.21.18.41l.26,0c.41.06.82.18,1.13-.24,0,0,.07,0,.11,0l.39.35c.39-.28.76-.56,1.14-.82a.53.53,0,0,0,.27-.64,1.22,1.22,0,0,1,0-.27c-.07-1.67-.08-3.33-.2-5-.18-2.41-.46-4.82-.85-7.21s-.77-4.9-1.14-7.35c-.32-2.11-.62-4.22-.92-6.33a3.08,3.08,0,0,1,0-.44,7.38,7.38,0,0,1,1.24.18c2.11.66,4.19,1.38,6.3,2,1.91.56,3.84,1,5.77,1.49.91.22,1.84.37,2.76.55s1.67.34,2.5.49c1.28.21,2.57.43,3.85.59.4,0,.84.32,1.22-.08,0,0,.11,0,.16,0,1.16,0,2.32.1,3.47.1a16.32,16.32,0,0,0,2.21-.17c.84-.13,1.67-.33,2.49-.51.48-.1.49-.11.92-.57l-2.19.38a1.47,1.47,0,0,1-1.12-.14l1.07-.25c.65-.15,1.3-.27,1.94-.48s1.09-.45,1.64-.68a1.84,1.84,0,0,1,.51-.14.65.65,0,0,0,.56-.24,2,2,0,0,1,1.07-.21c0,.23-.23.27-.38.34l-1.85.88a4.61,4.61,0,0,0-.54.36l.12,0a3.23,3.23,0,0,1,.58-.24c.07,0,.16.07.33.15.53-.27,1.15-.6,1.79-.89a31.87,31.87,0,0,0,4.14-2.44c.83-.56,1.61-1.2,2.41-1.8.26-.19.56-.33.8-.54.74-.63,1.47-1.27,2.2-1.92.21-.19.39-.41.6-.6.45-.41.95-.78,1.37-1.21.71-.72,1.37-1.49,2.06-2.22s1.49-1.52,2.23-2.28c.48-.51.94-1,1.39-1.56.2-.23.34-.5.66-.62.13-.05.21-.23.3-.37a4.12,4.12,0,0,1,.27-.45c.4-.49.82-1,1.22-1.44.21-.25.36-.59.62-.74a6.54,6.54,0,0,0,1.18-1.17c.25-.24.4-.59.68-.76a10.1,10.1,0,0,0,2.1-2.57C178.15,24.11,178.46,23.88,178.13,23.66ZM82.9,51c-.75,2.15-1.65,5.15-3,7a14.91,14.91,0,0,1-2.64,3.31c-.67.49-1.37.94-2.07,1.37-.47.29-.94-1.46-1-2,0-.07-.26-1.69-.28-2.3-.06-1.55-.18-3.1-.29-4.65s-.24-3.82-.36-5.28L73,45.74a3.79,3.79,0,0,1,1.84-.47c1.07-.17,2.14-.3,3.22-.4s2-.12,3-.16c.54,0,1.08,0,1.62-.05a1.07,1.07,0,0,1,1,.36,1.53,1.53,0,0,0,.34.21A50.15,50.15,0,0,1,82.9,51Zm60.45-2.83a5.54,5.54,0,0,1,2-.16.92.92,0,0,1,0,.16Zm3.62-.27,1.16-.1C147.74,48.27,147.36,48.11,147,47.87Zm1.29,0a1.33,1.33,0,0,1,1.07-.25A1.13,1.13,0,0,1,148.26,47.86Zm6.38-2c.43-.33.79-.7,1.34-.69A1.51,1.51,0,0,1,154.64,45.88Z"/><path class="b48202af-9640-445d-9570-0acd938e39ec" d="M31.11,53.37c-.09-.7-.16-1.4-.23-2.1-.13-1.25-.26-2.5-.38-3.76-.08-.75-.11-1.51-.2-2.26a16.94,16.94,0,0,0-.29-2c-.08-.36,0-.89-.59-1-.2,0-.43.06-.62,0a3.53,3.53,0,0,0-1.68.11.48.48,0,0,0-.24.09c-.27.45-.76.66-1.12,1a7.19,7.19,0,0,0-.35,1.42c-.18.68-.39,1.36-.53,2.05-.29,1.45-.56,2.91-.8,4.37s-.46,2.89-.63,4.34c0,.25,0,1,0,2l-.92,1.25-.86,1.15-.06.11A12.69,12.69,0,0,1,20,62.65c-.07.15-.15.29-.22.43a23.56,23.56,0,0,0-.55-2.79c-.12-.42-.68-3.88-.72-4.06-.11-.45-.21-.91-.3-1.37,0-.17-.62-4.1-.82-5.16-.11-.54-.17-1.1-.25-1.68l1.54-.59a17.64,17.64,0,0,0,4.42-2.68,7.18,7.18,0,0,0,1.22-1.3c.34-.44.31-.63,0-1.07a9.54,9.54,0,0,0-1.77-.44c-.47,0-4.4-.06-5.89.18a3.36,3.36,0,0,1-.45,0c-.08-.62-.15-1.19-.22-1.76,0-.23-.29-2.48-.38-3.37-.2-2,.18-6.2.07-8.17,0-.63,0-1.26-.07-1.89a5.38,5.38,0,0,0-.09-.9c-.08-.44-.19-.88-.29-1.32a.71.71,0,0,0-.06-.25,2.63,2.63,0,0,0-3-.33c-.5.41-1,.85-1.47,1.28a1.55,1.55,0,0,0-.28.39,13.68,13.68,0,0,0-.87,2.72c-.1.5-1,4.58-1.06,5-.12.79-.58,4.22-.65,5.15-.1,1.18-.2,2.36-.28,3.54a16.54,16.54,0,0,0-4.16-.08A8.25,8.25,0,0,1,2,42.07c-.09,0-.19,0-.26,0a1.48,1.48,0,0,1-1.27.07,3.52,3.52,0,0,1-.24.38c-.33.43-.36.63,0,1.06a6.87,6.87,0,0,0,1.21,1.31,17.64,17.64,0,0,0,4.42,2.68l1.53.59v.1l-.06.45h.07c0,.82,0,1.64.09,2.47C7.58,52.6,9.08,65,9.37,65.71c.5,1.23,1.38,4.64,2.25,5.65.23.26,5.45.16,8-.17.09.2.24.19.55.06l.32-.1a.56.56,0,0,1,0-.12c.3-.07.47-.15.46-.24a4.63,4.63,0,0,0-.06-.56,1.62,1.62,0,0,1,.18-.2.62.62,0,0,0,.11-.23c.2-.42.37-.87.6-1.27a24.63,24.63,0,0,0,1.95-4,3.53,3.53,0,0,1,.17-.33,26.42,26.42,0,0,0,.69,4.92c.1.18.9,2.26,1.06,2.39.34.29,5.49.16,6.07-.37,1.08-.57.1-12.46,0-13.28C31.52,56.33,31.31,54.85,31.11,53.37ZM19.82,63.18a.42.42,0,0,1,0,.18Z"/><path class="b48202af-9640-445d-9570-0acd938e39ec" d="M151.22,48.25l.35-.12a.19.19,0,0,0,0-.08l-.24,0-.15.15Z"/><path class="b48202af-9640-445d-9570-0acd938e39ec" d="M151.32,48v0h0Z"/><path class="b48202af-9640-445d-9570-0acd938e39ec" d="M150.54,48.19l.6-.14A.56.56,0,0,0,150.54,48.19Z"/><path class="b48202af-9640-445d-9570-0acd938e39ec" d="M151.14,48.05h0l0,0h0Z"/><path class="b48202af-9640-445d-9570-0acd938e39ec" d="M123.28,9.34a5.36,5.36,0,0,0,1.19.66,15.1,15.1,0,0,0,3.44.87c0,.42,0,.81-.07,1.21a13.48,13.48,0,0,0,.45,3.9,5.9,5.9,0,0,0,.52,1.25c.19.38.34.41.75.32l.33,0a1.13,1.13,0,0,1,.45-.86s.06-.12.08-.18a6.49,6.49,0,0,1,.4-1,12.55,12.55,0,0,0,1.3-3l.17.24.3.26.21-.36L134,13a13.48,13.48,0,0,0,3.89.48,5.58,5.58,0,0,0,1.34-.21c.41-.1.48-.23.49-.65a2,2,0,0,1,0-.33,1.19,1.19,0,0,1-.73-.64c0-.06-.1-.09-.16-.12a6.79,6.79,0,0,1-.86-.63,12.4,12.4,0,0,0-2.74-2l-.19-.14,0,0a13.46,13.46,0,0,0,2.56-3,6,6,0,0,0,.57-1.23c.15-.4.08-.53-.27-.77l-.26-.21a1.13,1.13,0,0,1-.93.25c-.06,0-.13,0-.19.06a6,6,0,0,1-1,.37,12.13,12.13,0,0,0-2.76.93l-.3-.72a13.47,13.47,0,0,0-2.12-3.3,5.43,5.43,0,0,0-1-.89c-.34-.26-.49-.23-.81,0-.08.07-.18.12-.28.19a1.14,1.14,0,0,1,0,1s0,.13,0,.19a6.48,6.48,0,0,1,.07,1.07,12.91,12.91,0,0,0,.19,3.4,1.92,1.92,0,0,1,0,.35h-.1c0,.06,0,.13,0,.19a12.46,12.46,0,0,0-3.26,1,5.94,5.94,0,0,1-1,.29c-.07,0-.15,0-.19.06a1.12,1.12,0,0,1-.9.35,2.62,2.62,0,0,1-.09.33C122.91,9,122.93,9.11,123.28,9.34Z"/><path class="b48202af-9640-445d-9570-0acd938e39ec" d="M32.16,31.19a13.78,13.78,0,0,1-2.6-.4,2.19,2.19,0,0,0-1.62.38c-.55.54-1.39.88-1.42,2.13l0,1.25.28,1.29s.22,1.6.81,1.85,2.07.78,2.77.26S33,35.89,33,35.89,33,31.16,32.16,31.19Z"/></svg>