<?xml version="1.0" encoding="utf-8"?>
<!-- Generator: Adobe Illustrator 24.1.0, SVG Export Plug-In . SVG Version: 6.00 Build 0)  -->
<svg version="1.1" id="b81e5b42-f22b-4aae-b8a6-60f47443aeb6"
	 xmlns="http://www.w3.org/2000/svg" xmlns:xlink="http://www.w3.org/1999/xlink" x="0px" y="0px" viewBox="0 0 179.5 236.2"
	 style="enable-background:new 0 0 179.5 236.2;" xml:space="preserve">
<style type="text/css">
	.st0{fill:#ECFF00;}
</style>
<path id="ad4ddd07-24bc-4bc5-9b3a-309c3761132b" class="st0" d="M34.6,101.9c-0.1-0.3,0.2-0.9-0.2-0.8
	C34.2,101.2,34.3,101.9,34.6,101.9z M33.8,101.5c0,0.1-0.3,0.4,0,0.4c0-0.2,0.2-0.1,0.3,0C34.1,101.7,33.9,101.6,33.8,101.5z
	 M66.7,135.2L66.7,135.2z M156.6,87.5c-1.1-1.2-3.1-1.5-4.5-2.4c-0.6,0-1-0.1-1.2-0.5c0.9-0.4,1.7-1,2.2-1.9
	c0.8-0.1,1.6-0.2,2.4-0.1c0.1-0.5-0.6-1-0.9-1.2c0.2-0.4,0.3-0.7,0.4-1.1c-0.5-0.6-0.7-1.3-0.6-2.1c-0.7-0.7-1.7-1.2-2.7-1.2
	c-1.6,0-3.3,1.3-4.6,2.2c-2.1,1.3-1.2,5.8-3.6,6.7c-0.2,0.6-0.7,0.8-0.8,1.4c-0.4,0.1-0.6,0.5-1,0.6c-0.1,0.4-0.4,0.6-0.5,0.9
	c-0.2,0.2-0.2,0-0.4-0.1c0.1,0.6-0.2,0.8-0.3,1.2c-2.3,0.8-1.7,4.7-4.2,5.3c-0.2,0.8-0.4,1.6-0.8,2.3c-0.2-0.6-0.4-0.5-0.8-0.8
	c-0.3,0.2,0.2,0.8-0.1,0.9c-0.6,0-0.5-0.7-0.8-0.8c-0.3,0.3-0.6,0.6-1,0.8c-0.2,0,0-0.5-0.2-0.5s-0.2,0.5-0.6,0.4v-0.5
	c-0.6,0.7-1.2,1.4-2,1.9c0.1-0.7,1.1-1,1.2-2c-0.5-0.3-0.7,0.4-0.8,0.6c-0.3-0.2,0.1-0.6,0-0.9c-0.6,0.8-0.8,2-1.6,2.5
	c0-0.4,0-0.9,0.2-1.3c-0.3-0.3-0.3,0.3-0.4,0.5c-0.4-0.5-0.4-0.1-0.8,0.1c-0.1-0.2-0.1-0.4-0.1-0.6c-0.5,0.2-0.3,0.9-0.8,0.9
	c0-0.4,0.4-0.5,0.3-0.8c-0.5,0-0.4,0.7-0.8,0.8c-0.3-0.2-0.2-0.8-0.5-0.9c-0.2,0.5,0.6,1.1,0.2,1.9c-0.5-0.6-0.1-1.8-0.8-2.2
	c-0.3,0.8,0.3,1.4,0.3,2.2c-0.3,0.3-0.3-0.3-0.6-0.3c0,0.4,0.2,0.7,0.5,1c-0.2,1.4-1,2.6-2.2,3.3c0,0.4,0.1,0.7,0.5,0.7
	c-0.9,0.5-1.8,0.9-2.8,1.1c-0.7,0.3-1.5,0.9-2.1,0.8c-0.4-0.1-0.5-0.6-0.8-0.8c-0.7-0.4-1.3-0.9-1.9-1.4c-0.8-0.9-0.8-2-2.2-2.1
	c0.4,1.2,1.3,1.9,1.7,3.1c-0.3,0.2-0.8,0.9-0.8,0.3c-0.6-0.1,0.5-0.2,0.4-0.5s-0.7,0-0.7,0.2c-0.4-0.3,0.2-0.5,0.1-0.8
	c-0.4,0-0.4,0.2-0.6,0.3c-0.2-0.2,0.1-0.8,0-1.1c-0.7,0.2-0.1,1.5-0.8,1.6c-0.2-0.4-0.1-1.1,0.3-1.1c0-0.1-0.3-0.5-0.4-0.2
	c-0.2-0.3,0.5-0.9,0.2-1.4c-0.5,0.4-0.7,1.6-0.9,1.7c-0.4,0.1,0.1-0.8,0.4-0.8c-0.5,0,0-0.3-0.3-0.7c-0.8,0.2-1.5,0.8-1.8,1.7
	c0.1,0.2,0.3-0.3,0.5,0.1c-0.2,0.7-0.5,1.2-1.4,1.2c-0.1,0.6-0.5,0.7-1,0.8v-0.5c-0.4,0-0.3,0.4-0.7,0.3c-0.1-0.2,0-0.5-0.2-0.6
	c0.5-0.3,1.1-0.4,1.6-0.5c0,0.5-0.5,0.4-0.5,0.7c0.6,0.3,0.8-0.5,0.9-0.9c-0.7-0.6-1.6,0.4-2.2,0.6c-1.1-0.7-2.5,0.1-3.6,0.3
	c-0.5-0.8-0.7-2-1.3-2.6c0.2,1,0.5,1.9,0.9,2.8c-0.1,0.3-0.5,0.3-0.4,0.7c-0.7-0.7-1.5-1.4-2.3-2c0.3,0.9,1.2,1.5,2,2.2
	c0.8,0.7,1.4,1.6,1.7,2.6c-1.7-1.1-3.2-2.1-4.9-3.4c-0.3,0.9,0.9,1.5,2,2.3c0.4,0.3,0.8,0.7,1.3,1c0.4,0.3,1.2,0.7,1.3,0.9
	c0.1,0.5-0.8,0.8-0.7,1.1c0.3,0.5,0.8,0.7,1,0.9c-0.4,0.2-0.9-0.4-1.2-0.7c-0.4,0.3-0.7,0.7-0.8,1.2c-0.8,0.5-2.2,0.4-3.2,0.7
	c-0.6-0.5-1.3-0.7-2-0.8c-0.4-0.7-0.4-1.6,0.3-2c-0.1-0.1-0.5,0-0.4-0.4h0.7c-0.2,0.6,0.2,0.7,0.7,0.7c-0.3-0.7-0.5-0.9-1.2-0.9
	c0-0.3,0.5-0.1,0.6-0.4c0.3,0.4,0.6,0.7,0.9,1c0-0.3,0.4-1,0.1-0.9c0-0.4,0.6-0.1,0.6-0.5c0.1-1.4-0.7-2.7-1.9-3.3
	c0.4-0.1,0.8-0.2,0.7-0.8c0.4-0.2,0.8-0.3,1-0.7c-0.3-0.4-0.8-0.5-1.3-0.5c-0.2,0.1,0,0.6-0.5,0.4c0-0.1,0.2-0.1,0.3-0.1
	c-0.2-0.5-0.7-0.1-0.9-0.4c0.3-0.2,0.5-0.1,0.7-0.1c-0.2-0.5,0.1-0.4,0.3-0.7c-0.2-0.4-0.8-0.4-0.9-0.8c0.4,0.3,0.5,0,0.8,0.1
	c-0.6-0.7,0.3-0.9-0.4-1.5c0.2-0.1,0.4-0.1,0.5-0.2c0.3-0.3-0.4-0.4-0.3-0.8c0.5-0.5,0.5-1.2,0.8-1.9c0.5-0.3,1.3,0.3,1.5-0.4
	c-0.2-0.4-1.2,0.3-1.5,0.1c-0.2-0.5-0.1-1,0.2-1.4c0-0.3-0.4-0.2-0.3-0.6c-0.4-0.1-0.5,0.1-0.7,0.1c0.1-0.8-0.7-0.4-0.8-0.7
	c0.1-0.6,1-0.4,1.5-0.6c-0.2-0.6-0.5-1.5,0.1-1.8c-0.4,0-0.6-0.3-1.3-0.3c0-0.2,0.3-0.1,0.3-0.3c-1.7,0-2.9,1.3-4.7,1.2
	c0.1-0.6,0.8,0.2,0.8-0.3c-0.1-0.7-0.6,0.1-1.1-0.1c-0.1-1.1,1.2-0.8,2-1.3c0-0.3-0.1-0.3-0.4-0.3c1.1-0.9,2.4-1.5,3.4-2.5
	c-1,0.1-1.9,0.6-2.5,1.3c-0.3-0.1-0.5-0.3-0.8,0c-0.3-0.1,0.3-0.2,0.1-0.5c-0.8,0.3-1.2,1-2,1.4c-0.8-0.3-0.8,0-1.6,0
	c0.7-1.3,2.7-1.2,3.8-2c0.4-0.1,0.5,0.3,0.8,0.3c0.2-0.5-0.3-0.4-0.3-0.7c0.8,0,0.8-0.7,1.1-1.2c-0.8,0.3-1.2,0.9-2.4,0.8
	c0.2-0.4,0.8-0.3,0.8-0.9c0.7-0.1,1.4-0.3,2-0.6c-1-0.5-2.4,0.5-3.4,0.7c-0.1-0.3-0.2-0.7-0.1-1c-0.3,0.4-0.7,0.1-1.1,0.3
	c0.2,0.5,0.8,0.4,0.9,0.6c0,0.6-0.5,0.7-0.9,0.7c0-0.5,0.2-0.6,0-0.9c-0.8,0.1-0.5,1.2-1.3,1.1c0-0.7,0.7-0.9,0.7-1.8
	c1-0.2,1.2-1.1,2.2-1.4c0.1-0.5-0.1-0.3-0.3-0.4c1.4-4.1,2.5-8.3,3.5-12.5c1.3-0.6,0.7-3.1,1.4-4.3c-0.1-0.5-0.7-0.6-0.7-1
	c-1,0.1-2.1,0-3.1-0.2c-0.4,0-0.4,0.5-0.6,0.6c-4.5,0.7-9.2,1.1-13.8,1.6c-0.3-4.3-0.8-8.4-0.8-12.9c3.4-0.1,7.3-1.1,11-1.5
	c0,0.3,0.2,0.6,0.4,0.8c1.5,0,3-0.4,4.3-1.1c0-0.1,0-0.2,0.1-0.2c0.4-5.3-1.4-9.1-2-13.7c-0.1-0.9,0.2-2-0.3-2.9
	c-1.6,0.3-3.6,0.2-4.4,1.1c0.5,3.4,1,7.1,1.5,10.7c-3.6,0.4-7.2,0.8-10.9,1.2c-0.3-3.9-0.8-8.8-1-13.1c-0.2-0.3-0.5-0.5-0.8-0.6
	c-0.2-0.8-0.1-1.7,0.3-2.4c0.2-1.5-0.3-3-1.2-4.1h-0.4c-0.9,1.3-1.1,4.3,0.1,5.4v1.2c-1.5,1.5,0.1,4.2-0.3,6.7
	c-0.9,0.3-1.9,0.5-2.8,0.7c-0.7-2.2,0.7-6.3-1.6-6.7c-0.1-2.2,1.2-5.4-0.9-6.4c-1.3,0.7-1.4,4-0.3,5.1c0.1,0.5,0.1,1,0.1,1.5
	c-0.3,0-0.3,0.2-0.6,0.2c-0.6,1.7,0.2,3.5,0,5.3c-0.1,1.1-0.8,3.1,0.1,4.4c-0.4,1.5,0.6,2.4,0.6,3.9c-3.6,0.8-7.3,1.3-11.1,1.9
	c0-2.4,1.1-6.9,0.9-9.3c0-1-2-0.8-3.3-0.8c-0.8,0.7-0.6,2-0.7,2.9c-0.3,2.5-1.2,5.3-1.2,8.1c-0.3,0.2-0.8,0.2-0.9,0.4
	c0,1.8,0.1,2.8,0.1,4.6c0.7,0.8,2.3,0.5,3.5,0.5c0.4,0,0.1-0.8,0.3-0.8c4.1-0.5,8.3-0.9,12.3-1.6c0.3,4.1,0.7,8.1,0.9,12.1
	c-3.1,0.6-6.3,1-9.5,1.1c-1.5,0.1-3.8,0.2-4.7,0.7c0.1,1.5,0,2.8,0.2,4.4c0.2,0.2,0.6,0.2,0.8,0.4c0.1,1.6,0.4,3.2,0.8,4.7
	c0.6,2.5,0.3,5.5,1.9,6.6c-0.1,0.3-0.3-0.2-0.5-0.1c0.4,1.1,2.1,0.8,2.1,2.2c-0.8-0.5-1.2-1.3-2.3-1.5c-0.2,0.2,0.5,0.5,0.7,0.6
	c-0.4,0.2-0.4-0.3-0.9-0.2c-0.3,0-0.1,0.6-0.4,0.6c-0.1,0.4,0.2,0.5,0.5,0.5c0,0.3-0.7-0.1-0.7,0.2c0.2,0.6,0.8,0.7,1.4,0.9
	c-0.3,0.3-0.8-0.2-0.9,0.2c0.4,0.3,1,0.1,1.1,0.7c-0.5-0.1-1.4-0.5-1.8,0c0.3,0.5,1.8,0.3,1.5,0.9s-1.6,0.2-2,0.6
	c0.2,0.1,0.3,0.3,0.3,0.5c0,0.1-0.1,0.2-0.3,0.3c0.1,0.3,0.4,0.4,0.7,0.4c-0.2,0.5-0.6-0.3-0.8,0.1c0.2,0.2,0.6,0.1,0.6,0.4
	c-0.4,0.5-0.4,1,0.7,0.9c-0.2,0.2-1,0-1.2,0.4c0.3,0.4,0.5,0.7,0.6,0.8c-0.3,0.7-1,0-1.7,0.1c-0.2,0.4-0.1,0.9,0.3,1.1
	c0.5,0,1-0.3,1.4,0.1c0,0.3-0.1,0.5-0.3,0.7c-0.2,0.1-0.8-0.1-1,0.1c0.1,0.3,0.6,0.3,0.9,0.3v0.7c0.9,0,1.8,0.3,2.6,0.7
	c-0.5,0.2-1.4-0.2-2-0.3c-0.4,0-0.4,0.4-0.7,0.5c0.1,0.4,0.4,0.5,0.7,0.7c-0.3,0.4-0.4,0.8-0.8,1c0.1-0.3-0.2-0.3-0.1-0.6
	c-0.3,0.4-0.3,0-0.7,0c0.4,0.7,0.9,1,1.1,1.8c-1.1,0.1-1.1-1.1-1.7-1.7c-0.6,0-0.1,0.7-0.1,1.1c-0.8-0.1,0-1.3-0.4-1.8
	c-0.5,0-0.4,0.5-0.5,0.8c-0.4-0.3-0.3-1.1-0.8-1.2c-0.4,0.9,0.8,1.6,0.6,2.5c-1-0.4-0.8-1.6-1.5-2.3c-0.4,0.3,0,0.8-0.3,1.2
	c-2-1,1.2-2.3,1.9-3.3c-1.3,0.5-2.5,1.9-3.4,2.2c-0.1-0.7,1.1-0.8,1-1.7c-0.5-0.3-0.7,0.5-1,0.5c0-0.7,0.8-0.7,0.5-1.5
	c-0.5,0.1-0.5,0.5-0.7,0.8C52,99,52,98.7,51.6,98.8c0.1-0.6,0.5-1.2,0.4-1.7c-0.6-0.2-0.4,0.8-0.8,0.5c0-0.6,0-1.1-0.4-1.3
	c-0.3,0.2-0.3,0.8-0.5,0.9c0.5,0.1,0.3,0.7,0.1,0.8c-0.3-0.1,0.1-0.8-0.1-0.7c-0.4,0.1-0.2,0.8-0.6,0.9c-0.7-0.2-0.6-1.1-0.8-1.8
	c-0.3,0-0.3,0.4-0.5,0.5c-0.3-0.1-0.2-0.5-0.5-0.6c-0.3,0.4-0.1,1.6-0.7,1.9c-0.1-0.5-0.3-0.9-0.7-1.2c-0.4-0.1-0.5,0.6-0.7,0.4
	c-0.7-0.1-0.8-1-1.6-0.7c-0.2-0.4,0.3-1,0.2-1.7c-0.1-0.2-0.2,0.2-0.3,0.3c-0.3,0-0.1-0.6-0.3-0.7c-0.4,0-0.3,0.4-0.6,0.5
	c-1.3-0.8-1.7-2.6-3.3-3.2c-0.5-0.9-1-1.8-1.7-2.5c-1-1.1-2.6-1.9-3.4-2.9c-1.2-1.6-2.4-4.1-5.4-2.9c-1,0.4-1.3,1.4-2,2.6
	c-0.3,0.5-0.6,0.8-0.8,1c-0.2,0.6-0.1,1.2-0.3,1.8c-0.3,0.8-0.9,1-0.5,2.2c-0.8,0.9-0.8,4.3,0.4,5c-0.1-1-0.8-3.4-0.3-4.5
	c0.6,2.1,0.6,4.6,1.6,6.3c-0.1-0.9-0.1-1.7,0-2.6c-0.1-1.3-0.8-2.6,0.5-3.4c1.5,1-0.1,3.8,0.2,5.3c1.1-0.5,0.3-2.8,0.8-3.7
	c0.4,0.5,0.3,1.5,0.8,1.9c0.1-0.7-0.6-1.6-0.6-2.4c0.2,0.7-0.1-0.2,0.5-0.2c0.6,0.6,0.2,1.2,0.3,2c0.1,0.8,0.2,1.6,0.4,2.4
	c0.1,0.3,0.4,0.6,0.4,0.8c0.4,1.7-0.1,3.2,1.2,3.9c0.4-1-0.6-1.9-0.3-3.2c0.6,0.7,0.8,1.7,0.6,2.6c0.5-0.3,0.6-1,0.8-1.5
	c0.1,0.8-0.9,1.5-0.6,2.5c0.4,0.1,0.3-0.5,0.4-0.7c-0.2,0-0.3,0.1-0.3,0.2c-0.1-0.4,0.7-0.7,0.8-1c0-0.4-0.1-0.8-0.2-1.1
	c0.3-0.3,0.5-0.8,0.8-0.9c-0.3,0.3-0.5,0.6-0.7,0.9c0,0.2,0.5,0.2,0.2,0.5c1-0.3,0.9-1.8,1.4-2.6c0.1,0.8-0.6,1.9-0.5,3
	c0.3,0.2,0.6,0.4,1,0.5c0.9-0.8,1.8-1.9,3.3-2.1c-0.3,0.3,0.1,1.1-0.3,1.6c-0.5,0.3-1,0.6-1.4,1.1c0.8-0.6,1.7-0.4,2.2-1.3
	c0.7,0.8,0.5,2.6,0.7,4c0.8-0.6,0.1-1.9,0.1-2.7c0-0.6,0-1.2-0.2-1.8c0.7-0.7,1.5-0.1,2.4,0c-0.6,0.3-0.9,0.3-0.9,0.8
	c-0.1,0.8,1.1,0.7,1.4,1.2c-0.2,0.4-0.6,0-0.9,0.1c-0.8,0.6,0.1,1.3,0.6,1.3c0.2,0.4,0,0.4-0.2,0.5c0.1,0.2,0.2,0.4,0.5,0.4
	c-0.1,0.3-0.2,0.6-0.5,0.6c0,0.3,0.1,0.4,0.4,0.4c-0.2,0.2-0.7,0.1-0.7,0.5s0.4,0.3,0.5,0.1c0.5,0.8,1,1.6,1.7,2.3
	c0.1,0.4-0.5,0.2-0.4,0.6c0,0.1,0.3,0.1,0.4,0.1c-0.1,0.2-0.4,0.4-0.3,0.8c0.7-0.1,0.8-0.7,1.4-0.8c0.4-0.1,0.1,0.4,0.3,0.5
	c0.5,0,0.3-0.6,0.7-0.6c-0.2,0.9-0.7,1.2-1.1,2c0.7-0.4,1.3-1,1.7-1.7c0.6,0.1-0.3,0.4-0.1,0.8c0.3,0.1,0.6,0,0.8-0.3
	c0.4,0.3-0.1,1.2,0.7,1c-0.1,0.3-0.4,0.5-0.4,0.7c0.6,0.1,1.3,0.1,1.9,0c0,1.2-1.6,0.4-2.3,0.7c0.2,0.5,0.9,0.4,1.5,0.5
	c-0.1,0.3-0.8,0.2-0.7,0.7c0.5,0.3,0.8-0.4,1.2-0.4c-0.3,0.9-1.2,1.1-2,1.7c0.2,0.6,0.7-0.2,0.9,0.1c-0.7,0.1-0.6,0.5-0.8,0.9
	c0.1,0.6,0.8-0.2,0.8,0s-0.2,0.2,0,0.4c-0.8,0.4-0.7,1-1.5,1.4c0.7,0.2,1.5,0.1,2.1-0.2c0.4,0.4-0.7,0.2-0.5,0.6
	c0.7,0.2,1.5-0.1,2,0.7c0,0.4-0.2,0.6-0.1,0.9c0.5-0.1,0.5,0.2,1.3,0c-0.3,0.9,0.5,1.4,0.8,2.1c0.4-0.1,0.6-0.5,0.8-0.7
	c0.2,1.1,1.3,1.1,1.7,0.2v0.7c1,0.1,0.5,1.2,1.1,1.7c0.5-0.1,0.5-0.7,0.8-0.8c0.6,0.1,0.1,1.2,0.4,1.7c0.4,0.1,0.4-0.2,0.5-0.4
	c0.2,0.1,0.3,0.3,0.6,0.3c0.2-0.2,0.2-0.8,0.4-0.9c0.8,1.3,2.1-0.4,1.4-1.1c0.6,0.1,0.5,0.8,0.5,1.4c0.7,0.3,1.1,0.7,1.9,0.5
	c-0.2-0.7-0.2-1.3-0.1-2c0.6,0.1,0.6,0.7,1,0.8c0.3-1-0.9-1.1-0.8-1.7s0.2,0.2,0.4,0.2c0-0.3-0.1-0.7,0.1-0.8
	c0.5-0.1,0.5,0.5,0.8,0.6c0.4-0.5,0.2-0.9,0-1.5c1.2,0.5,2.3,0.9,2.5,2.4c-0.4,1-0.6,2.2-0.4,3.3c0.1-0.1,0.2-0.2,0.4-0.2
	c0.3,0,0.6,0.3,0.6,0.8s-0.3,0.7-0.6,0.7c-0.2,0-0.4-0.1-0.5-0.3v0.2c0.1,0.1,0.1,0.3,0.1,0.6s-0.2,0.8-0.5,0.8
	c-0.1,0-0.1,0-0.2-0.1c-0.4,0.1-0.9,0.1-1.3,0.1c-0.2,0.1-0.2,0.5-0.3,0.6c0.3-0.2,1.5-0.2,1.5-0.4v0.2c0.2-0.1,0.4-0.2,0.6-0.2
	c0.4,0,0.7,0.2,0.7,0.3s-0.3,0.3-0.7,0.3s-0.6-0.1-0.7-0.3c-0.1,0.1-0.2,0.1-0.3,0.1c0,0.5,0,1-0.1,1.5c0.7,0.1,0.5-0.6,0.6-1
	c0,0.1,0.1,0.1,0.1,0.2c0.1-0.1,0.2-0.2,0.4-0.2c0.4,0.1,0.6,0.4,0.5,0.8c0,0.3-0.3,0.5-0.5,0.5c-0.1,0-0.1,0-0.2-0.1
	c0,0.1,0,0.2-0.1,0.3c0.2,0.2,0.3,0.4,0.3,0.7c0,0.4-0.2,0.6-0.4,0.6c-0.1,0.5,0,1.1,0.1,1.6c-0.2,0.2-0.7,0.5-0.9,0.2
	c-0.2,0.2-0.6,0.8-0.8,0.9c-0.1,0.1-0.3-0.2-0.2-0.2c-0.5,0.3-0.7,1-0.4,1.6c0.1,0.2,0.3,0.3,0.5,0.4c0.1-0.2,0.2-0.5,0.4-0.6
	c0.4,0.1,0.8,0.1,1.2,0c-0.2-0.1-0.3-0.3-0.3-0.6c0-0.3,0.2-0.6,0.4-0.6s0.4,0.3,0.4,0.6c0,0.1,0,0.3-0.1,0.4c0.3,0.1,0.6,0.1,0.8,0
	c-0.4,0-0.7-0.2-0.7-0.5s0.3-0.5,0.7-0.5s0.7,0.2,0.7,0.5s-0.2,0.4-0.5,0.5c0.2,1.1,0.2,2.1,0.3,3c0.2,0.1,0.4,0.2,0.4,0.4
	s-0.1,0.3-0.3,0.4c0,0.2,0,0.3,0.1,0.5c0.4,2,1.7,3.4,1.5,5.4c-0.2,0.4,0.6,0.5,0.3,0.7c-0.6,0-1.2,0-1.9,0.1
	c-0.1-0.6-0.6-0.8-0.8-1.5c-0.4-1.1,0.1-2.5-0.8-3c-1.9-0.1-2.7,0.8-4.2,0.6c-0.2-0.2,0-0.1,0.1-0.3c-0.4,0.1-0.7,0.2-0.9,0.3
	c-1.6-0.8-4-0.6-5.3-1.8c0-0.6-0.4-0.7-0.4-1.4c-2.4-0.1-5.5,2.1-7.8,0.7c-0.5,0.1-1.1-0.1-1.5-0.4c-0.2,0.1-0.3,0.3-0.6,0.2
	c-1.8-0.6-3-1.2-4.6-1.8c-1.9,2.1,4.1,1.3,4.5,2.8c-0.3,0.6-1.1,0.2-1.6,0.6c-0.2-0.2-0.2-0.2-0.1-0.5c-1.2,0-2.3-0.6-3.4-0.6
	c-0.2,0.8,0.7,1.1,0.8,1.7c1,0.1,2.1,0.2,3.1,0.1c0.3,0,0.8,0,0.9,0.4c0.8-0.7,2-0.6,3.1-0.8s2-1.1,3.1-0.6c0.1,0.3,0.1,0.6-0.2,0.6
	c0.2,0.3,0.6,0.3,0.3,0.7c1.4-0.9,3.2-0.5,4.6-0.3c0.2,0.3,0.4,0.6,0.6,1c0.7,0,1.5,0.1,2.2,0.3c-0.7,0.2-1.1,1-2.1,1.1
	c-0.8,0.2-1.7-0.1-2.6,0.1c-0.3,0.1-0.5,0.3-0.8,0.4c-1.1,0.3-2.2,0.4-3.3,0.3c-0.8-0.1-1.6-0.5-2.2-1.1c-3.4,0.8-4.7,4-8.8,3.7
	c-0.5,0.3-1.2,0.4-1.8,0.3c-0.4,0-0.3,0.4-0.6,0.4c-1.3,0.1-2.6,0-3.7,0c-0.9,0-1.9,0.1-2.7,0.5c0.1,1.5,2,0.3,2.2,1.5
	c-0.4,0.4-1.4,0.2-1.6,0.7c0.2,0.8,1.3,0.6,1.8,1c1.5-0.4,3-0.9,4.5-1.5c0.4,0.4,1.1,0.1,1.5,0.2c0.6-0.4,1.3-0.7,2-0.7
	c0.7-0.7,2-0.7,3.1-0.9c0.6-0.2,0.6-1,1-1.2s0.1,0.4,0.3,0.5c1.1-1.1,2.5-1.8,4-2c0.7-0.2,1.5-0.1,2.2,0.4c0,0.5,0.1,1,0.2,1.5
	c0.5-0.1,0.9,0.9,1.6,1.4c-0.4,0.1-0.6-0.8-1.1-0.8c-0.1,0.8,1.3,0.9,1.5,1.9c-0.4,0.1-1.7-0.7-2-1.4c-0.3-0.7-0.5-1.5-0.6-2.3
	c-0.8,0.1,0,1.2-0.1,1.9c-0.4-0.2-0.4,0-0.7,0.1c0.1,0.6,0.4,1.1,0.5,1.8c-0.2,0.4-0.8,0.3-0.9,0.7c0,0.6,0.9,0.1,0.9,0.5v0.2
	c-0.2,0.6-0.8,0-1.4,0.1c-0.2,0.4,0.2,0.9,0.3,1.1c0.6,0,1.1,0,1,0.6c-1,0.3-2.5,1.7-0.6,2.1c-0.3,0.5-0.5,1-0.7,1.6
	c0.2,0.3,0.3,0.5,0.5,0.8c0,0.3-0.5,0.1-0.3,0.6c0.3,0.2,0.8-0.1,1.1,0.1c0.3,0.4,0.2,1.1,0.9,0.9c0,0.4-0.7,0.2-0.7,0.5
	c0.5,0.2,0.8,0.6,0.9,1.1c0.3-0.5,0.9-0.8,1.5-0.8c-0.4,0.5-0.6,1-1.2,1.1c-0.1,0.5,0.2,0.6,0.1,1c0.3-0.3,0.4-0.8,0.9-0.8
	c0.6,0.6-0.8,1.6,0,2.2c0.6-0.1,0.1-1.2,0.6-1.5c-0.1,0.6,0.2,0.9,0.1,1.6c0.6,0.2,0.6-0.3,0.8-0.5c-0.1-0.2-0.4-0.1-0.3-0.5
	c0.3-0.6,1-0.8,1.5-1.1c0.1,0.6-0.2,0.9-0.7,0.9c0,0.2,0.4,0.2,0.3,0.5c-1.4,1.7-1.9,4.2-3.3,5.9c0,0.5,0.2,0.6-0.2,0.7
	c0.4,3.1,1.7,5.2,2.6,7.9c1.3,1.1,2,2.8,3.2,4.1s2.4,2,3.3,3.3c0.2,1.6,2,2.5,2.8,4.1c0.6,1,0.9,2.1,1.6,3.3c0.1,0.2,0.7,0,0.7,0.2
	c-0.1,0.5-0.5,0.6-0.5,1.1c1.1,0.5,2.1,0.8,3.3,1.1c-0.6,2.4-2.4,3.5-4,4.9c0,0.2-0.3,0.5,0,0.6c-0.2,0.5-0.7,0.6-0.8,1
	c-0.2,0.2,0.1,0.3,0.1,0.6s-0.4,0.3-0.5,0.6c-0.1,0.5,0.3,0.5,0.3,0.7c-0.3,0-0.5,0.2-0.7,0.5c0.1,0.6,0.7,0.5,1.1,0.4
	c-0.4,0.2-0.7,0.7-0.5,1.2c0.1,0.3,0.4,0.5,0.7,0.5c1,0.1,2-0.2,2.7-1c0.3-0.3,0.2-0.8,0.6-1c0.7-0.5,1.4-0.5,2-0.8
	c1.5-1.1,1.6-3.2,3.2-4.6c1.1-1,2.5-1.7,3.9-2c0.2,0,0.5,0.1,0.7,0c1.2-0.4,1.8-2,1.5-3.6c-0.3-1.2-1.7-2.1-2.6-2.8
	c0-0.2-0.2-0.4-0.1-0.7c-0.3-0.1-0.5-0.4-0.6-0.6c0.1-0.9,0-1.8-0.4-2.6c-0.4-0.6-1-0.6-1.5-1.3c-0.2-0.3-0.2-0.6-0.4-0.8
	c-0.2-0.4-0.7-0.5-0.8-0.7c-0.4-0.5-0.5-0.8-1-1.2c-0.2,0,0.1,0.5-0.3,0.3c-0.3-0.5,0.1-0.6,0.3-0.8c0-1-0.9-1.2-1.4-1.9
	c0.1-0.3,0.1-0.6,0.2-0.8c-0.2-0.8-1-0.4-1.6-0.6c0.4-1.2,0.9-2.2,2.1-2.5c-0.6-0.5,0.4-1,0.3-1.7c1.3,0.2,2.2-0.8,3.4-1
	c-0.4,2-1.7,4.2-0.6,6.1c-0.5,0.7-0.4,2-0.8,2.6c0.4,1.2,1.1,2.4,2.1,3.2c0.3-0.1,0.3-0.5,0.5-0.6c-0.6-1.6-0.9-3.3-0.8-5
	c0.1-0.6,0.1-1.2,0.1-1.8c-0.1-0.4-0.6-0.7-0.6-1c-0.1-0.9,0.8-1.8,0.7-2.6c0.2,0,0.8-0.1,0.9,0.2c-0.2,0-0.2-0.1-0.3-0.1
	c-0.2,0.9,0.5,1.1,0.3,2.1c0.7,1.6,2.7,3.4,1.8,5.6c0.9,0.6-0.7,1.9-0.7,2.3c-0.1,0.8,0.7,1.1,2,1c0.1-0.6,0.2-1.2,0.8-1.4v-0.5
	c-0.4-0.1-0.4-0.4-0.8-0.4c0.3-0.4,0.5-0.6,0.7-0.8c0-0.5-0.5-0.4-0.6-0.7c-0.3-1.8-1-3.4-2-4.9c0-0.3,0-0.4,0.3-0.4
	c-0.5-0.2-0.7-0.7-0.7-1.2c0.9-0.1,0.6-1.4,1.2-1.7c-0.3-0.5-0.2-1,0.2-1.4c0-0.5-0.6-0.8-0.2-1.2c0.5,0.4,0.6,0.9,0.6,1.8
	c0.4-0.2,0.4,0.5,0.4,0c1.4,1.3,1.7,3.7,3.5,4.6c0.3,0,0.4-0.3,0.4-0.6c0.8,0,1.3,0.7,2.2,0.8c1.1,0.2,2.3-0.6,3.4,0.1
	c0.5,0.9,1.3,1.5,2.2,1.8c0.1,0.3-0.1,0.5-0.1,0.6c0.3,0.3,0.8,0.2,1-0.1c0.1-0.1,0.2-0.3,0.2-0.4c0.3-0.1,0.2,0.5,0.5,0.2
	c0.3-0.1,0.1-0.6,0.3-0.6c0.4-0.4,0.6-0.8,0.9-1.1c0.8-0.1,1.4-0.5,1.9-1.1c0.8,0,1.1-0.4,1-1.1c0.5,0.5,1.1,0.8,1.7,1
	c0.3,0.7,0.4,1.5,0.4,2.3c0,0.4,0.3,0.6,0.3,0.8c0,1-0.9,2.1-0.2,3c1.5,0.6,2.9,0.3,4.6,0.6c1.2,2,5.2,1.8,4.8,5
	c1.8,1.1,4.8,0.1,6.6,0.9c0.9,0.5,1.4,1.3,2.2,1.8h0.7c0.5,0.8,1.7,1,2.2,2c0.6,0.1,1,1.1,1.9,1.3c1-0.9-0.8-1.5-0.4-2.4
	c0.6-0.1,0.7,0.3,1.1,0.4c0.8-0.3,0-1.2,0-1.9c-1.3-0.9-3.6-0.8-4.3-2.3c-2.2,0.2-3.6-2-5.5-0.9c-0.5-0.1,0.2-0.3,0-0.6
	c-2,0.6-3.3-0.6-4.5-1.2c0-0.3-0.2-0.5-0.1-0.8c-1.9-1.1-3.9-1.9-6-2.4c-0.4-1.1-1.5-1.6-1.2-3.3c0-0.4-0.5-0.4-0.5-0.8
	c0.9-1.2-1.8-1.9-0.5-2.9c0.5,0,0.9,0,1.4,0.1c-0.1-0.4-0.4-1.4-0.9-1.7c-0.8,0.1-0.9-0.4-1.4-0.5c0-0.2,0.3-0.1,0.3-0.3
	c-0.2-0.3-0.8,0-0.8-0.5c0.7-1,2.2-0.1,3,0h1.5c5,0.3,10.3,1.5,14.9,2.1c0.7,0.1,1.2,0.5,2.1,0.2c1.7-1.5,4.5-5,1.7-7.5
	c-0.2-1.3-0.8-2.5-1.7-3.4c-0.2-0.1-0.8-0.7-0.9-0.7c-0.3-0.1-0.3,0.3-0.5,0.1c-1.7-1-2.3-3.3-4.4-4.1c-0.2-0.2,0-0.1,0-0.4
	c-0.7-0.1-1.1-0.4-1.2-1c0.7,0.1,1.3,0.6,2.1,0.3c-0.7-0.8-2.3-0.5-2.9-1.2c0-0.4-0.2-0.8-0.2-1.1c0.7,0,0.9,0.4,1.7,0.4
	c-0.1-0.6-1.5-0.6-2.2-1.1c0.3-0.4,0.4-1,0.2-1.5c0.9,0.2,1.9,1.4,3,1.8c-0.4-1.2-2.2-1-2.6-2.3c0.9-0.1,1.4,1,2.2,1.4
	c-0.1-1.2-1.8-1.3-2-2.1c0.9,0.3,1.2,1.2,2,1.7c0-0.3-0.1-0.5-0.4-0.6c0.2-0.2,0.5,0.4,0.8,0.3c0.1-0.6-1.4-0.6-1.6-1.4
	c0.7-0.7,1.6,0.5,2.2,0.6c0.2-0.3-0.7-0.4-0.6-0.8c0.4,0.1-0.1-0.5,0.7-0.2c0-0.2,0-0.5,0.1-0.7c0-0.4-0.7,0-0.8-0.3
	s0.8-0.1,0.9-0.5s-0.4-0.2-0.5-0.4c0.1-0.2,0.1-0.4,0-0.6c0.3,0.1,0.7,0.1,0.8,0.3c0.2-0.6-0.8-0.2-0.8-0.6c0.7,0-0.4-0.7,0.6-0.5
	c0-0.1-0.3-0.1-0.4-0.1c-0.1-0.4,0.4-0.1,0.6-0.2c-0.8-0.6-3.6-0.3-2.8-1.4c0.4,0.6,1.1,0.9,1.8,0.8c0.1-0.7,0.8-0.4,1.7-0.6
	c-0.2-0.3-0.9,0-0.8-0.5c0.4-0.1,0.9,0.1,0.9-0.2c-0.4-0.1-1.4,0.2-1.7-0.3c0.6-0.3,1.3,0.1,2,0.1c-0.9-0.6-2.6-0.5-3.3-1.4
	c-0.7,0-0.9,0.4-1.5,0c0.9-0.4,2.1,0.2,2.9,0c-0.8-0.6-2.6-0.3-3.3-0.2c-0.1-0.5,0.2-0.6,0.4-0.8c-0.3-0.1-0.6,0-0.9,0.1
	c0.3-0.6,0.8-0.2,1.1-0.1c0.6-0.5,1.3-0.7,2.1-0.6c-0.5-0.8-1.6,0.2-2.1-0.3c0.3-0.4,0.8-0.6,1.2-0.8c0-0.2-0.5,0.1-0.3-0.3
	c0.2-0.1,0.3,0.1,0.4,0.1c0.3,0.1,0.2-0.9,0.3-1.2c0.1-0.2,0.5-0.3,0.6-0.6s0-0.6,0.1-0.8s0.3-0.1,0.4-0.2c0.2-0.4,0.4-0.9,0.6-1.4
	c0.1-0.1,0.4-0.2,0.5-0.3c0.7-0.9,0.9-2.1,1.7-2.7c0-1.9,0.3-3.8,0.7-5.7c1.6-0.2,1.2-2.4,2.4-3c0-0.4,0.1-0.8,0.2-1.1
	c1.1-0.5,2.3-0.2,2.8-1.1c0.3-0.7,0.1-1.4,0.6-2c0.8-0.4,1.8-0.3,2.4-0.8s0.8-2,1.8-2.6c0.6-0.4,1.5-0.4,1.9-1.1
	c0.3-0.6,0.1-1.1,0.2-1.6c0.2-0.3,0.8-0.1,0.8-0.4c0-0.5-0.8-0.2-1-0.5c0,1.9-0.5,3.3-2.2,3.4c-0.7,0.7-0.6,1.4-1.1,2.1
	c-0.8,1.2-2.5,0.4-3.4,1.6c0.2,1.9-0.7,2.7-2.3,2.6c-0.1-0.5-0.2-1-0.2-1.5c-0.5,0.2,0.2,1-0.4,1.1c-0.2-0.4,0-0.8,0.3-1.1
	c-0.5-2,2.8-2.4,1.4-4.5c0.3-2,1.7-2.7,2.1-4.5c-0.5-0.1-0.9-0.3-1.2-0.7c-0.1,0.2,0.2,0.6-0.1,0.8c-0.7-0.2-0.9-0.9-0.7-1.8
	c-1.6-0.3-2.2,2-1.6,3c-1.1,0.7-0.4,2.1-0.5,3.1s-0.8,1.5-1.5,2.2c-0.1,0.8,0.3,1.4,0.3,2.2c-0.8,0.8-1.9,2.1-1,3.6
	c-0.5,0.8-1.5,1.1-2.2,1.8c0.4,0.6,0.9,1.6,0.2,2.2c-0.1,0.5,0.1,1.1,0.5,1.5c-0.1,0.3-0.4,0.5-0.5,0.7c0.4,2.1-1.1,3.2-1.7,4.8
	c-0.7,0.4-1.2,1.5-2,1.9c-0.2,0.1-0.8,0.2-0.8,0.1c-0.2,0-0.2-0.1,0.1-0.3c0-1.2,0.2-2.4,0.8-3.4c0.3-0.8,1.1-1.8,1.2-2.8
	c0.1-0.6-0.2-1-0.1-1.6c0.2-1.1,0.5-2.1,0.8-3.2c0.4,0.1,0.2,0.7,0.6,0.7c0.3-0.6-0.6-1.6,0.2-2.3c0.3,0.2,0.2,0.7,0.6,0.8
	c0.3-0.4-0.2-0.8-0.2-1.1c0.2,0.1,0.3,0.2,0.3,0.3c0.2-0.2-0.2-0.6-0.3-0.7c0.2-0.1,0.6,0.5,0.8,0.6c-0.1-0.6-0.8-0.6-0.9-1
	c0.7-0.1,0.9,1.1,1.8,1.3c0.2-0.9-1.2-1.1-1.4-2c0.2-0.5,0.8-0.6,0.9-0.9c0-1-0.7-1.3-0.7-2.3c0.8-0.1,0.7,0.7,0.8,1
	c0.8-0.4,0.6,0.7,1.3,0.6c0.1-0.7-1.1-1.1-1.3-2c0.2-0.5,0.7,0.6,1.1,0.5c0-0.7-0.5-1.3-1.2-1.3c-0.7-1,0-2.2-0.4-3.4
	c0.7-0.3,1.3,0.5,2.1,0.8c0.5-0.2,0.4-0.8,0.8-0.6c-0.1-0.4-0.4-0.5-0.8-0.5c0.4-0.7-1.4-0.8-1.9-0.8c0.4-0.6,0.7-1.2,0.8-1.9
	c1.5-0.3,1.9-1.7,3.2-2.2c0.4-0.7,1.2-0.8,1.8-1.4c0.2,0.2-0.3,0.5,0,0.8c-0.1,0-0.1-0.2-0.2-0.2c0,0.5,0,1,0.2,1.5
	c0.7-0.6,0.2-2.2,0.9-2.8c0,1.2-0.5,2.6-0.1,3.6c0.7,0,0.3-1.1,0.4-1.8c0.5,2,2.2,3.4,1.8,6.1c0.8-0.5-0.2-2.1,0.3-3.1
	c0.2,0.6,0.8,0.7,0.9,1c0.3-0.2,0-0.7,0-1c0.5,0,0.4,0.4,0.6,0.6c0.1-0.1,0.3-0.4,0.4-0.1c0.4-0.1,0.2-0.7,0.4-0.9
	c0.6,0.2,0.7,1,1.5,1.1c0.4-0.2,0.8-0.5,0.9-0.9c0-0.8-1.1-1.4-0.4-2.1c0.8,0.4,0.5,1.7,0.9,2.2c0.5-0.2,0.1-1.3,0.6-1.5
	c0.2,0-0.1,0.3,0.2,0.4c0.2-0.2,0.3-0.6,0.5-0.8s0.1,0.3,0.4,0.2c0.5-0.3,0-0.8,0.1-1.4c0.7-0.3,1.3-0.6,2.1-0.8v-1
	c-0.4-0.4-0.8-0.7-1.1-0.9c0.1-0.7,0.7-0.4,1.1-0.5c0.1-0.3-0.3-0.2-0.5-0.2c0.2-0.1,0-0.6,0.2-0.7c-0.1-0.3-0.6-0.2-0.6-0.5
	c0.2-0.4,0.7-0.5,1.4-0.5c0.1,0.5-0.3,0.4-0.3,0.7c0.4,0.1,0.9-0.3,1.2-0.6c0-0.4-0.4-0.4-0.4-0.7c0.1-0.5,0.4,0.4,0.6,0.3
	c-0.1-0.8-0.8-0.8-0.6-1.7c0-0.5-0.4,0-0.5-0.4c0.5-0.4,0.6-0.8,0.6-1.8c0.4,0.2,0.5,0.7,0.6,1c0.3,0,0.4-0.3,0.6-0.5
	c0-0.7-0.6-0.8-0.6-1.5c0.4-0.2,0.9,0.2,1,0.4c1,1.5-1.4,3.2-0.8,4.2c1-0.9,1.7-2.1,1.9-3.5c2,1.3,2.4,4,2.6,7.1
	c0.6-0.7,0.1-1.9,0.1-2.7c-0.1-0.9-0.2-1.9-0.5-2.8c0.4,0.1,0.8,0.3,0.8,0.8c1.3-0.1,2.5,0.3,3.6,1c1.2-0.2,2.4-0.1,3.5,0.4
	c0.6-1.1-0.6-2.6-0.7-3.8c0.3-0.2,0.1-0.3,0.6-0.2c0.1-0.5-0.3-0.5-0.3-0.8c0.2-0.1,0.5-0.1,0.4-0.5c-0.3-0.2-0.9-0.5-0.8-0.9
	c0.6-0.3,1.3-0.4,2-0.2c0-0.3,0.2-0.2,0.4-0.5c-0.1-1-1.2-0.8-0.9-2c-0.1-0.3-0.2-0.6-0.5-0.7c0.6-0.3,0.2-0.9,0.5-1.4
	c0.2-0.1,0.8,0,0.9,0.2c0.1-0.7-0.5-0.7-0.6-1c0.5-0.5,1.9,0.3,2.8,0.4c0.3-0.2-0.3-0.7,0-0.8s0.6-0.1,0.6-0.5
	c0.4,0.3,0.8-0.1,1.2,0c-0.2-1.4-2.4-1.6-2.7-3.2c1.3,0.1,2.6-1,4.1-0.7C156.4,88.3,156.1,87.9,156.6,87.5L156.6,87.5z M94.3,89
	c-0.2,0.2-0.4,0.4-0.7,0.4C93.6,89,93.9,89.1,94.3,89z M93.9,88.1L93.9,88.1c-0.1,0.1-0.8,0.7-0.8,0.5
	C93.2,88.1,93.6,88.1,93.9,88.1L93.9,88.1z M92.1,88.7c0.4,0.2-0.3,0.8-0.5,0.4S92.1,88.9,92.1,88.7L92.1,88.7z M96.1,68.2
	c0.2,0,0.3,0.1,0.3,0.3c0,0.1-0.1,0.3-0.2,0.3c0,0,0,0-0.1,0c-0.2,0-0.3-0.1-0.3-0.3C95.9,68.2,96,68.2,96.1,68.2L96.1,68.2z
	 M95.8,70.9c0.2,0,0.4,0.1,0.4,0.3s-0.2,0.3-0.4,0.3s-0.4-0.1-0.4-0.3S95.6,70.9,95.8,70.9L95.8,70.9z M93.9,68.3
	c0.1,0,0.3,0.1,0.3,0.2c0,0,0,0,0,0.1c0,0.2-0.1,0.3-0.3,0.3c-0.2,0-0.3-0.1-0.3-0.3C93.6,68.4,93.7,68.3,93.9,68.3
	C93.9,68.2,93.9,68.2,93.9,68.3L93.9,68.3z M93.4,53.4c0.2,0,0.3,0.2,0.3,0.4s-0.1,0.4-0.3,0.4s-0.3-0.2-0.3-0.4
	C93.1,53.6,93.2,53.4,93.4,53.4L93.4,53.4z M92.8,50.5c0.2,0,0.4,0.1,0.4,0.3s-0.2,0.3-0.4,0.3s-0.4-0.1-0.4-0.3
	S92.6,50.5,92.8,50.5L92.8,50.5z M91.2,54.2c0,0.2-0.2,0.3-0.4,0.3s-0.4-0.1-0.4-0.3s0.2-0.3,0.4-0.3C91,54,91.1,54.1,91.2,54.2
	L91.2,54.2z M90.5,50.7c0.2,0,0.3,0.1,0.3,0.3c0,0.1-0.1,0.3-0.2,0.3c0,0-0.1,0-0.1,0c-0.2,0-0.3-0.1-0.3-0.3
	C90.3,50.8,90.4,50.7,90.5,50.7L90.5,50.7z M54.4,56c0-0.2,0.2-0.4,0.4-0.4c0.2,0,0.4,0.2,0.4,0.4c0,0.2-0.2,0.4-0.4,0.4
	C54.6,56.4,54.4,56.3,54.4,56C54.4,56,54.4,56,54.4,56z M55,58.9c-0.2,0-0.4-0.1-0.4-0.3s0.2-0.3,0.4-0.3s0.4,0.1,0.4,0.3
	S55.2,58.9,55,58.9z M56.7,58.9c-0.2,0-0.3-0.1-0.3-0.3s0.1-0.3,0.3-0.3c0.2,0,0.3,0.1,0.3,0.3C57,58.8,56.8,58.9,56.7,58.9z
	 M57,56.2c-0.2,0-0.3-0.2-0.3-0.4s0.1-0.4,0.3-0.4s0.3,0.2,0.3,0.4S57.2,56.2,57,56.2z M58,75c-0.1,0-0.2-0.1-0.2-0.3
	s0.1-0.3,0.2-0.3s0.2,0.1,0.2,0.3S58.1,75,58,75L58,75z M57.8,72.8c-0.2,0-0.3-0.3-0.3-0.5s0.3-0.3,0.5-0.3c0.2,0,0.3,0.2,0.3,0.4
	C58.3,72.7,58.1,72.8,57.8,72.8L57.8,72.8z M58.7,97.1c0.2,0.1,0.3,0.4,0.6,0.4C59.2,97.8,58.7,97.5,58.7,97.1L58.7,97.1z
	 M58.7,93.9c0.1-0.2,0.2-0.3,0.2-0.4c0.4,0,0.6,0.2,0.9,0.1C59.5,94,59.1,94.1,58.7,93.9L58.7,93.9z M44.7,107.9
	c-0.2-0.1-0.1-0.6-0.5-0.4c0.1-0.1,0.2-0.1,0.2-0.3C44.5,107.5,44.9,107.8,44.7,107.9L44.7,107.9z M48.4,110
	c0.1-0.4-0.2-0.5-0.1-0.8h0.3C48.6,109.3,48.5,110.1,48.4,110z M48.7,111.1c0.2-0.4,0.4-0.8,0.5-1.2c0.2,0.2,0.3,0,0.5,0
	c0,0.5,0.4,0.6,0.3,1C49.5,111.1,49.1,111.2,48.7,111.1z M58.3,104.8c-0.2,0-0.2-0.2-0.5-0.1c-0.1-0.3,0.1-0.3,0.1-0.5h0.4
	C58.4,104.4,58.4,104.6,58.3,104.8z M59,102.6c0.3-0.1,0.5-0.2,0.5,0.2C59.3,102.7,58.9,102.9,59,102.6L59,102.6z M59.3,101.4
	c0.1-0.4,0.5-0.1,0.7,0C59.8,101.7,59.5,101.3,59.3,101.4z M41.3,140.8c-0.2-0.7,0.8-0.9,0.8-0.4C42.1,140.8,41.5,140.7,41.3,140.8
	L41.3,140.8z M32.8,151.2c-0.4-0.6,0.5-1,0.8-0.6C33.6,151,33.2,151,32.8,151.2L32.8,151.2z M35.1,150.2c0-0.1,0-0.2-0.1-0.2
	c0-0.3,0.7-0.5,0.7-0.1S35.4,150.2,35.1,150.2L35.1,150.2z M36.5,149.6c-0.3-0.1-0.6-0.1-0.5-0.5c0.4,0.1,0.5-0.2,0.8-0.1
	C36.8,149.2,36.6,149.4,36.5,149.6L36.5,149.6z M74.1,178c-0.1-0.3-0.4-0.4-0.3-0.8c0.3,0,0.5,0.3,0.4,0.6
	C74.2,177.8,74.2,177.9,74.1,178z M121.1,190.5c0.3,0,0.5,0,0.8,0.1c-0.1,0.1-0.1,0.4-0.2,0.5c-0.3,0-0.6,0-0.7-0.1
	C120.9,190.7,121,190.6,121.1,190.5L121.1,190.5z M119.8,190.3c-0.2,0.1-0.4,0.1-0.6,0C119.2,189.8,119.8,189.8,119.8,190.3
	L119.8,190.3z M118.7,189.9c-0.1,0.3,0.2,0.4,0,0.6c-0.3-0.1-0.6-0.2-0.6-0.5C118.3,190,118.3,189.9,118.7,189.9L118.7,189.9z
	 M99.2,173.3c0.2,0,0,0.4,0.1,0.5c-0.3,0-0.3-0.2-0.3-0.4C99.2,173.4,99.2,173.3,99.2,173.3z M109.6,106.5c0,0.3-0.3,0.4-0.5,0.4
	C109.1,106.5,109.4,106.6,109.6,106.5z M108.4,106.7c0.1,0.4-0.3,0.3-0.2,0.6c-0.6-0.4-0.7,0.4-0.8,0.7c-0.4-0.3-0.1-0.6-0.2-1.1
	C107.6,106.6,108,106.6,108.4,106.7z M107.1,107.7c0,0.4,0.3,0.4,0.1,0.7C106.9,108.4,106.6,107.8,107.1,107.7L107.1,107.7z
	 M106.9,105.5c-0.7,1,0.1,3.1-0.5,4.2c-0.7-1.1-1.1-2.4-1.9-3.6C105.5,106.1,105.9,105.4,106.9,105.5L106.9,105.5z M104,106.3
	c0.5,0.2,0.5,0.9,0.8,1.3C104.5,107.6,103.6,107,104,106.3L104,106.3z M104.8,123.1c0.3,0.8-0.1,2.2,0.1,2.7
	c-0.4-0.9-0.5-1.9-0.4-2.8C104.6,123.1,104.7,123.2,104.8,123.1L104.8,123.1z M104.2,119c-0.1,0.3-0.4,0.6-0.4,0.8
	C103.5,119.7,103.7,119,104.2,119L104.2,119z M103,119.8c0.3,0.2-0.1,0.5-0.1,0.8C102.7,120.5,102.8,119.8,103,119.8L103,119.8z
	 M99,108c-0.4,0.1-0.2-0.4-0.4-0.4C98.7,107.4,99.2,107.8,99,108z M99.2,107v0.3c-0.5-0.1-1.1-0.2-1.6-0.2c0.2-0.1,0.2-0.4,0.5-0.4
	C97.9,107.2,98.6,107,99.2,107L99.2,107z M97.8,105c0.2-0.1,0.6,0,0.7-0.2c0.2,0.1,0,0.2,0,0.3C98.1,105.1,97,105.1,97.8,105
	L97.8,105z M97.6,107.6c-0.4,0.1-0.7,0.5-0.7,0.9h-0.4C96.6,108.1,97.1,107.5,97.6,107.6L97.6,107.6z M97.3,110.9
	c-0.2,0.5-0.6-0.1-0.7,0.1c-0.3-0.1,0.2-0.2,0.1-0.3C97,110.7,97.1,110.8,97.3,110.9L97.3,110.9z M95.8,107.9c0.7,0,0.7-0.7,1.4-0.7
	c-0.3,0.6-1,0.7-1.2,1.3C95.7,108.5,95.9,108.1,95.8,107.9L95.8,107.9z M95.4,109.3c0.4-0.1,0.1,0.4,0.2,0.6
	C95.1,110.1,95.1,109.5,95.4,109.3L95.4,109.3z M94.8,114.1c-0.3,0.3-0.8,0-1.2,0C94,114,94.4,114,94.8,114.1L94.8,114.1z
	 M93.6,102.9c0.4,0.1,0.8,0.1,0.9,0.3C94.4,103.4,93.6,103.3,93.6,102.9z M93.9,99.4c-0.3,0.2-0.4,0.5-0.8,0.4
	C93,99.4,93.6,99.5,93.9,99.4z M91.4,128.6c0,0.4-0.2,0.6-0.4,0.6s-0.4-0.3-0.4-0.6s0.2-0.6,0.4-0.6S91.4,128.2,91.4,128.6z
	 M78.7,141.6c-0.4,0-0.7-0.3-0.8-0.7c0-0.4,0.3-0.7,0.7-0.7c0,0,0,0,0.1,0c0.4,0,0.7,0.3,0.8,0.6C79.4,141.3,79.1,141.6,78.7,141.6
	L78.7,141.6z M79.4,150c0,0.2-0.1,0.4-0.3,0.4s-0.3-0.2-0.3-0.4s0.1-0.4,0.3-0.4C79.2,149.7,79.3,149.8,79.4,150L79.4,150z
	 M79,137.1c-0.6,0-1.1-0.4-1.2-0.9c0-0.6,0.6-0.9,1.2-0.9c0.5-0.2,1.1,0.1,1.3,0.6c0.2,0.5-0.1,1.1-0.6,1.3
	C79.5,137.2,79.2,137.2,79,137.1z M68.1,123.6c-0.3-0.1-0.5-0.4-0.5-0.7c0-0.2,0.2-0.4,0.5-0.5c0.3,0,0.5,0.3,0.5,0.6
	C68.6,123.4,68.4,123.6,68.1,123.6z M68.2,124.1c0,0.2-0.3,0.4-0.6,0.4s-0.6-0.2-0.6-0.4s0.3-0.4,0.6-0.4S68.2,123.9,68.2,124.1z
	 M67.7,90.3c0.4,0.1,0.8,0.2,0.8,0.6C68.1,90.9,67.8,90.6,67.7,90.3z M68.2,84.6c1,1,1.8,2.2,2.3,3.5C69.6,87.5,68.8,85.9,68.2,84.6
	z M68.2,83.8c0.4,0.2,0.4,0.7,0.6,0.9C68.6,84.4,68.3,84.2,68.2,83.8z M72.1,97.7l0.8,0.1l0.6-0.2V98c0,0-0.1,5.1-0.2,5.6v8.9
	l-0.7,0.2l0.1-0.9l-0.5,0.8l-0.6,0.1v-2.1l0.3-0.4l-0.2-0.2l0.6-0.3l-0.6-0.2V108c0.8,0.2,1,0.8,0.8,0.5s-0.8-0.8-0.8-0.8l0.1-0.5
	l0.9,0.1l-1.1-0.7v-2.2l0.7-0.3l-0.7-0.1l0.6-0.2l-0.7-0.1l-0.1-1.6l0.2-0.1l0.3-0.2h0.7v-0.2l-0.8-0.2c0,0-0.4,0-0.4-0.2
	s-0.6-3.6-0.6-3.6L72.1,97.7z M70.6,80c0.3,0.3,0.5,0.7,0.7,1.1C70.8,81,70.7,80.6,70.6,80z M74.7,90.7l-3.1-4.5l2.8-5.2L73,86.2
	L74.7,90.7z M86.9,96.2v0.2l-0.7,0.2l0.7,0.1l0.1,2.7l-0.6-0.5l0.6,0.8l0.3,2.9l-1.1,0.1l1,0.2l0.1,0.6l-0.5,0.1l0.6,0.2v1.1H87
	l0.5,0.3l0.4,1.7l-0.5,0.6l0.5-0.2l0.3,2l-0.1,0.3l0.2,0.2l-0.3,0.1l0.3,0.6l-1,0.1l-0.5-3l-1.1-5L84,96.4L86.9,96.2L86.9,96.2z
	 M86.1,84.2c0.3,0.2-0.1,0.6-0.1,0.7C85.7,84.7,86,84.2,86.1,84.2L86.1,84.2z M89.5,125.4c0,0.5-0.4,0.8-0.8,0.8s-0.8-0.4-0.8-0.8
	s0.4-0.8,0.8-0.8h0C89.1,124.5,89.5,124.9,89.5,125.4L89.5,125.4z M89.5,99.6c0.2-0.1,0.4-0.2,0.7-0.2
	C90.2,99.9,89.9,99.5,89.5,99.6L89.5,99.6z M87.8,123.3c0-0.4,0.2-0.7,0.6-0.8c0,0,0.1,0,0.1,0c0.4,0,0.7,0.3,0.8,0.8
	c0,0.4-0.3,0.7-0.6,0.7c0,0-0.1,0-0.1,0C88.1,124,87.8,123.7,87.8,123.3L87.8,123.3z M88.7,119.6c-0.3,0-0.6-0.3-0.6-0.6
	c0-0.3,0.3-0.6,0.6-0.6c0.3,0,0.6,0.3,0.6,0.6c0,0,0,0,0,0C89.2,119.3,89,119.5,88.7,119.6C88.7,119.5,88.7,119.5,88.7,119.6
	L88.7,119.6z M86.6,132.1c-0.5,0-0.8-0.4-0.8-0.8c0-0.5,0.4-0.8,0.8-0.8c0.5,0,0.8,0.4,0.8,0.8S87.1,132.1,86.6,132.1
	C86.6,132.1,86.6,132.1,86.6,132.1z M87.2,133.1c0,0.3-0.3,0.5-0.7,0.5s-0.7-0.2-0.7-0.5s0.3-0.5,0.7-0.5S87.2,132.8,87.2,133.1
	L87.2,133.1z M75.3,128.9c0.4,0,0.7,0.5,0.7,1s-0.3,1-0.7,1s-0.7-0.5-0.7-1S75,128.9,75.3,128.9L75.3,128.9z M74.5,128.7
	c-0.5,0-0.8-0.3-0.8-0.6s0.4-0.7,0.8-0.7s0.8,0.3,0.8,0.7C75.3,128.4,75,128.7,74.5,128.7L74.5,128.7z M76,132
	c0,0.4-0.2,0.6-0.5,0.6c-0.3,0-0.5-0.3-0.5-0.6c0-0.4,0.2-0.6,0.5-0.6S76,131.6,76,132z M75.4,133.1c0.4,0,0.8,0.3,0.8,0.6
	s-0.4,0.6-0.8,0.6s-0.8-0.3-0.8-0.6S75.1,133.1,75.4,133.1L75.4,133.1z M75.5,127.9c0-0.4,0.4-0.7,0.7-0.7c0.4,0,0.7,0.2,0.7,0.6
	c0,0,0,0,0,0.1c0,0.4-0.4,0.7-0.8,0.7c-0.4,0.1-0.7-0.2-0.8-0.5C75.5,127.9,75.5,127.9,75.5,127.9L75.5,127.9z M76.9,135.4
	c0.4,0,0.6,0.3,0.6,0.7c0,0.4-0.3,0.6-0.7,0.6c-0.4,0-0.6-0.3-0.6-0.6C76.2,135.6,76.5,135.3,76.9,135.4L76.9,135.4z M77.1,134.6
	c-0.4,0-0.7-0.3-0.7-0.7s0.3-0.7,0.7-0.7c0.4,0,0.7,0.3,0.7,0.7c0,0,0,0,0,0C77.8,134.3,77.5,134.6,77.1,134.6
	C77.1,134.6,77.1,134.6,77.1,134.6L77.1,134.6z M77.1,132.5c-0.5-0.1-0.8-0.5-0.7-0.9c-0.1-0.4,0.1-0.8,0.6-0.9
	c0.4-0.1,0.8,0.1,0.9,0.6c0,0.1,0,0.3,0,0.4C77.9,132,77.5,132.4,77.1,132.5L77.1,132.5z M77.2,130.2c-0.4,0-0.7-0.4-0.7-0.9
	s0.3-0.9,0.7-0.9s0.7,0.4,0.7,0.9C77.9,129.7,77.7,130.1,77.2,130.2C77.3,130.2,77.2,130.2,77.2,130.2L77.2,130.2z M78,128.2
	c-0.4,0-0.6-0.3-0.6-0.7c0-0.4,0.3-0.6,0.7-0.6c0.4,0,0.6,0.3,0.6,0.6C78.6,127.9,78.3,128.1,78,128.2
	C77.9,128.1,77.9,128.1,78,128.2L78,128.2z M79,129.9c-0.3,0-0.6-0.3-0.6-0.6c0-0.3,0.3-0.6,0.6-0.6s0.6,0.3,0.6,0.6l0,0
	C79.5,129.7,79.3,129.9,79,129.9L79,129.9z M79.5,131.3c0,0.5-0.3,0.9-0.6,0.9s-0.6-0.4-0.6-0.9s0.3-0.9,0.6-0.9
	S79.5,130.8,79.5,131.3L79.5,131.3z M79.1,132.3c0.4,0,0.8,0.4,0.7,0.8c0,0,0,0,0,0.1c0,0.4-0.3,0.8-0.7,0.8c-0.4,0-0.8-0.4-0.8-0.8
	c0,0,0,0,0-0.1c-0.1-0.4,0.2-0.8,0.5-0.8C78.9,132.3,79,132.3,79.1,132.3L79.1,132.3z M79.4,127.9c-0.4,0-0.8-0.2-0.8-0.5
	s0.3-0.5,0.8-0.5s0.8,0.2,0.8,0.5C80.1,127.7,79.8,127.9,79.4,127.9L79.4,127.9z M80,112.3l-0.3-0.1v-0.6h0.6l0.3,0.3l-0.1,0.4
	L80,112.3z M80.5,110.3h-1.1l-0.8,0.8l-0.9,0.6l-3.9,0.6l2.4-1.3l1.4-0.4l2.8-0.6l2.3-0.2h2.2l1.7,0.8l-3,0.2h-1.7l-0.8-0.4
	L80.5,110.3z M86.9,125.9c-0.3,0-0.6-0.4-0.6-0.8s0.3-0.8,0.6-0.8s0.6,0.4,0.6,0.8S87.2,125.9,86.9,125.9L86.9,125.9z M87.2,127.2
	c0,0.5-0.3,0.8-0.7,0.9c-0.5-0.1-0.8-0.5-0.8-0.9c0-0.5,0.3-0.9,0.8-0.9C86.9,126.2,87.2,126.6,87.2,127.2L87.2,127.2z M86.4,128.2
	c0.5,0,0.8,0.4,0.8,0.8c0,0.5-0.4,0.8-0.8,0.8c-0.5,0-0.8-0.4-0.8-0.8C85.6,128.6,86,128.2,86.4,128.2L86.4,128.2z M87.4,126.9
	c-0.1,0-0.2-0.2-0.2-0.5s0.1-0.5,0.2-0.5s0.2,0.2,0.2,0.5S87.5,127,87.4,126.9L87.4,126.9z M87.1,123.7c-0.3,0.1-0.6-0.2-0.7-0.5
	c-0.1-0.3,0.2-0.6,0.5-0.7c0.3-0.1,0.6,0.2,0.7,0.5c0,0,0,0.1,0,0.1C87.6,123.4,87.4,123.7,87.1,123.7
	C87.1,123.7,87.1,123.7,87.1,123.7L87.1,123.7z M84.5,98.8l1.2,5.6l0.8,4.6l-1.9-0.7l-1.1,0.1l-3.2,0.2l-1.1-12.2l4.2-0.7L84.5,98.8
	z M80.3,109l4.1-0.4l1.1,0.3l1.1,0.6l0.1,1l-1.4-0.7l-0.6-0.3h-0.6l-2.9,0.2l-2,0.2l-3.3,0.7l-2.4,1.2v-0.8l2.5-1.2l3.2-0.8
	l-1.1-14.6h0.6L80.3,109z M79.1,109.1l-3,0.7c0,0-2.4,1.2-2.4,0.8s-0.1-5.7-0.1-7.8s0.4-5.8,0.4-5.8l4.2-0.6L79.1,109.1z M78.1,96.3
	L74,96.9l1.2-1.4l2.3-0.8h0.7l0.1,1.6L78.1,96.3z M70.9,120.8c0.3,0,0.5,0.3,0.5,0.8s-0.2,0.8-0.5,0.8s-0.5-0.3-0.5-0.8
	S70.7,120.7,70.9,120.8L70.9,120.8z M70.3,128.5c0.2,0,0.4,0.2,0.4,0.5c0,0,0,0,0,0c0,0.2-0.1,0.4-0.3,0.4c-0.2,0-0.4-0.1-0.4-0.3
	c0,0,0-0.1,0-0.1C69.9,128.8,70,128.5,70.3,128.5C70.3,128.5,70.3,128.5,70.3,128.5L70.3,128.5z M69.5,121.2c0-0.3,0.3-0.4,0.6-0.4
	c0.3,0,0.4,0.3,0.4,0.6c0,0.2-0.2,0.4-0.5,0.4C69.6,121.8,69.4,121.6,69.5,121.2L69.5,121.2z M69.3,121.7c0.3,0,0.6,0.3,0.6,0.7
	c0.1,0.3-0.1,0.6-0.5,0.7c-0.3,0.1-0.6-0.1-0.7-0.5c0-0.1,0-0.1,0-0.2C68.7,122,68.9,121.7,69.3,121.7L69.3,121.7z M70.1,133.2
	c0.5,0,0.8,0.3,0.9,0.8c0,0.5-0.4,0.7-0.9,0.7s-0.9-0.4-0.9-0.7S69.5,133.2,70.1,133.2L70.1,133.2z M70.9,128.6
	c-0.1-0.4,0.2-0.7,0.6-0.8s0.7,0.2,0.8,0.6s-0.2,0.7-0.6,0.8c0,0-0.1,0-0.1,0C71.1,129.1,70.8,129,70.9,128.6L70.9,128.6z
	 M71.9,133.3c0.4,0,0.7,0.3,0.7,0.6c0,0.4-0.3,0.7-0.6,0.7c-0.4,0-0.7-0.3-0.7-0.6c0,0,0,0,0,0C71.1,133.5,71.5,133.3,71.9,133.3
	L71.9,133.3z M72.3,128.3c0-0.4,0.3-0.7,0.7-0.7s0.7,0.3,0.7,0.7c0,0.4-0.3,0.7-0.7,0.7l0,0C72.6,129,72.4,128.7,72.3,128.3
	C72.3,128.4,72.3,128.3,72.3,128.3L72.3,128.3z M73.5,132.9c0.5,0,0.8,0.3,0.8,0.6s-0.4,0.7-0.8,0.7s-0.8-0.3-0.8-0.7
	S73,132.9,73.5,132.9L73.5,132.9z M75.1,135.3c0.5,0,0.9,0.3,0.9,0.8c0,0,0,0,0,0c0,0.5-0.5,0.8-0.9,0.8c-0.5,0-0.8-0.4-0.8-0.8
	S74.7,135.4,75.1,135.3C75.1,135.3,75.1,135.3,75.1,135.3z M76.5,140.7c0.4,0,0.7,0.2,0.7,0.5s-0.3,0.5-0.7,0.5s-0.7-0.2-0.7-0.5
	S76.1,140.6,76.5,140.7L76.5,140.7z M76.9,138.9c0-0.3,0.2-0.6,0.4-0.6s0.4,0.3,0.4,0.6s-0.2,0.6-0.4,0.6S76.9,139.1,76.9,138.9
	L76.9,138.9z M77.6,140.8c0.2,0,0.3,0.3,0.3,0.6s-0.1,0.6-0.3,0.6s-0.3-0.3-0.3-0.6S77.4,140.7,77.6,140.8L77.6,140.8z M80.1,140.8
	c0.3,0,0.6,0.2,0.6,0.6c0,0.3-0.2,0.6-0.6,0.6s-0.6-0.2-0.6-0.6c0,0,0,0,0,0C79.5,141,79.7,140.8,80.1,140.8
	C80,140.7,80.1,140.7,80.1,140.8L80.1,140.8z M80.5,133.3c0-0.5,0.3-0.8,0.7-0.8s0.7,0.4,0.7,0.8s-0.3,0.8-0.7,0.8
	S80.5,133.7,80.5,133.3L80.5,133.3z M81.6,128.3c-0.5-0.1-0.8-0.5-0.7-1c0.1-0.5,0.5-0.8,1-0.7c0.4,0.1,0.7,0.4,0.7,0.9
	C82.5,127.9,82.1,128.2,81.6,128.3L81.6,128.3z M82.8,132c0.4,0,0.7,0.2,0.8,0.6c0,0,0,0.1,0,0.1c0,0.4-0.3,0.7-0.8,0.8
	c-0.4,0-0.7-0.2-0.8-0.6c0,0,0-0.1,0-0.1C82.1,132.3,82.4,132,82.8,132z M83,127.1c0-0.6,0.6-0.9,1.2-0.9c0.6,0,1.1,0.4,1.2,0.9
	c0,0.6-0.6,0.9-1.2,0.9C83.6,128.1,83.1,127.7,83,127.1z M84.8,132.1c0.4,0,0.7,0.3,0.7,0.7c0,0.4-0.3,0.6-0.7,0.6
	c-0.4,0-0.7-0.3-0.7-0.7l0,0C84,132.3,84.3,132.1,84.8,132.1L84.8,132.1z M85.5,138.3c0.4,0,0.8,0.2,0.8,0.5s-0.3,0.5-0.8,0.5
	s-0.8-0.2-0.8-0.5S85.1,138.2,85.5,138.3L85.5,138.3z M86.5,138.3c0.2,0,0.3,0.4,0.3,0.8s-0.1,0.8-0.3,0.8s-0.3-0.4-0.3-0.8
	S86.3,138.2,86.5,138.3L86.5,138.3z M86.7,135.9c-0.3,0-0.6-0.4-0.6-0.8s0.3-0.8,0.6-0.8s0.6,0.4,0.6,0.8S87,135.9,86.7,135.9
	L86.7,135.9z M87.3,138.2c0.2,0,0.4,0.1,0.4,0.2s-0.2,0.2-0.4,0.2s-0.4-0.1-0.4-0.2S87.1,138.1,87.3,138.2L87.3,138.2z M87.4,133.3
	c0-0.4,0.3-0.8,0.8-0.8s0.8,0.3,0.8,0.8s-0.3,0.8-0.8,0.8C87.7,134,87.4,133.7,87.4,133.3L87.4,133.3z M88.2,130.4
	c-0.3,0-0.6-0.4-0.6-0.9s0.3-0.8,0.6-0.8s0.6,0.4,0.6,0.8S88.5,130.4,88.2,130.4L88.2,130.4z M88.6,131.4c0,0.4-0.2,0.7-0.5,0.7
	s-0.5-0.3-0.5-0.7s0.2-0.6,0.5-0.6S88.6,131,88.6,131.4L88.6,131.4z M88.5,128.5c-0.5,0-0.9-0.5-0.9-1c0-0.5,0.4-1,0.9-1
	c0.5,0,0.9,0.5,0.9,1C89.4,128,89,128.5,88.5,128.5L88.5,128.5z M89.7,132.9c0.3,0,0.5,0.3,0.5,0.7s-0.2,0.8-0.5,0.8
	s-0.5-0.3-0.5-0.8c-0.1-0.3,0-0.6,0.3-0.7C89.6,132.9,89.7,132.9,89.7,132.9L89.7,132.9z M90.2,128.8c-0.3,0-0.6-0.4-0.6-0.8
	s0.3-0.8,0.6-0.8s0.6,0.4,0.6,0.8C90.7,128.4,90.5,128.8,90.2,128.8L90.2,128.8z M91.1,89.4c0.2,0.4-0.5,0-0.5,0.3
	C90.4,89.5,91,89.1,91.1,89.4L91.1,89.4z M90.5,85.7c-0.1-0.4,0.4-0.3,0.3-0.6c0.1,0.1,0.3,0.1,0.5,0.1
	C91.1,85.6,90.8,85.7,90.5,85.7L90.5,85.7z M90.9,86.2c-0.4-0.3,0.3-0.4,0.3-0.7C91.6,85.8,90.9,85.9,90.9,86.2L90.9,86.2z
	 M93.1,71.2c0.2,0,0.3,0.1,0.3,0.3s-0.1,0.3-0.3,0.3s-0.3-0.1-0.3-0.3l0,0C92.8,71.3,92.9,71.2,93.1,71.2
	C93,71.1,93.1,71.1,93.1,71.2L93.1,71.2z M92.6,72.6c-0.1,1.2-0.5,2.4-0.9,3.6c-0.4,1.2-0.4,2.7-0.9,3.7c-0.4,0.6-0.8,1.3-1,2
	c-0.1,0.5,0.3,1.2-0.5,1.4c0.1-0.2-0.2-0.4-0.2-0.2c-0.2-0.1-0.1-0.7,0.1-0.7c-0.5-0.5-0.6-1.3-0.3-1.9c-0.1,0.1-0.3,0.1-0.5,0.1
	c-0.9-0.5,0.5-2-0.8-2c-0.1-0.3,0-0.2,0-0.6c-0.4,0.1-0.3,0.7-0.5,0.8s-0.2-0.3-0.5-0.2c-0.5,0.7,0.2,2.4-0.8,2.6c0-1,0.2-2,0.5-2.9
	c0-0.4-0.3-0.5-0.4-0.7c-0.4,0.6-0.4,1.4-1,1.7c0,0.5,0,0.8-0.2,1c-0.4-0.8,0.2-1.6-0.2-2.5c-0.5,0.1-0.5,0.7-0.5,1.1
	c-0.9,0-0.2,2.1-1.1,1.8v0.6c-0.5-0.7-1-0.8-1-1.9c0.5-0.1,0.3,0.4,0.6,0.4c0.1-0.9,0.4-1.8-0.2-2.4c-0.5,0.1-0.8-0.1-0.8,0.5
	c-0.4-1.4-0.6-2.8-0.6-4.2C85,73.6,88.8,73.2,92.6,72.6L92.6,72.6z M82.9,84.4l-2.1,4.1l1-3.8L79,80.8L82.9,84.4z M80.8,94.4l2,0.4
	l0.7,0.7l-4,0.6l-0.3-1.6L80.8,94.4z M77.7,70.5c0.8-0.5,0.6,0.8,0.6,0.8c-0.3,0.3-0.6,0.6-0.8,0.9c-0.1,0.2,0,0.3,0.2,0.4
	c0,0,0,0,0,0c0.4,0.2,0.9,0.4,1.3,0.7c0.7,0.4-0.7,0.6-0.7,0.6c-0.5-0.2-1-0.4-1.6-0.5c-0.6-0.1-1.2,0-1.7,0.4c0,0-1.2,0.8-1.9,0.8
	s0.4-1,0.4-1c0.3-0.3,0.7-0.7,1.1-0.9c0.4-0.3-0.2-0.6-0.2-0.6s-0.7,0.3-1.5-0.7s1.5-0.1,1.5-0.1c0.4,0.1,0.8,0.2,1.2,0.3
	c0.3,0.1,0.6,0.1,0.9,0C76.8,71.1,77.2,70.7,77.7,70.5z M70.9,53.5c-0.6-0.5,0.7-0.6,0.7-0.6c0.5,0.3,1,0.5,1.6,0.6
	c0.6,0.2,1.2,0.1,1.7-0.3c0,0,1.3-0.8,2-0.6s-0.4,1-0.4,1l-1.1,0.8C75,54.8,75.5,55,75.5,55s0.8-0.3,1.4,0.8s-1.5,0-1.5,0
	s-0.7-0.2-1.2-0.4c-0.3-0.1-0.6-0.1-0.9-0.1c-0.3,0.4-0.7,0.7-1.2,0.8c-0.8,0.5-0.5-0.8-0.5-0.8s0.8-0.6,0.8-0.8s-0.1-0.4-0.1-0.4
	C71.8,54,71.3,53.8,70.9,53.5z M71.4,75c0.3,1-0.1,2.2,0,3.4c0,0.5-0.2-0.2-0.4,0.1c0,0.5,0.1,1,0.4,1.5c-0.5-0.5-1.2-0.7-1.9-0.4
	c0.2,1.2,1.3,2,1.2,3.2c-0.4-0.1-0.6-0.4-0.8-0.6c-0.2,0.2,0,0.7,0,0.7c-0.7-0.2-0.7-2-1.4-2.4c-0.2,0.5,0.2,1,0.3,1.6
	c-0.4-0.3-0.7-0.8-1.2-0.9c-0.3,0.1,0,0.4,0,0.6c0.2,0-0.1-0.5,0.3-0.3c0.6,0.8,1.2,1.6,1.6,2.5c-1.2-0.5-1.4-2-2.5-2.6
	c-0.3,0-0.2,0.6-0.2,0.8c-0.4-0.2-0.5-0.7-0.8-0.8c-0.2,0.6,0.8,0.7,0.7,1.6c-0.4-0.3-0.7-0.7-0.8-1.2c-0.4,0.1,0,0.5-0.1,0.8
	c-0.3,0-0.2-0.2-0.5-0.1c0.7,0.8,1.6,1.4,1.8,2.7c0.2,0.2,0.8,0.4,0.4,0.7c-0.9-1.1-1.8-2.2-2.5-3.4c-0.3,0.3-0.4,0.6-0.8,0.3
	c0,0.7,0.7,0.7,0.7,1.3c-0.5,0.5-0.8-0.4-1.2-0.5c-0.1-2.6-0.5-5.2-1.2-7.8C65,75.5,68.1,75,71.4,75z M68.1,88.1
	c-0.4-0.3-0.8-0.4-0.8-1C67.8,87.2,68.1,87.6,68.1,88.1z M67.6,83.4c-0.3-0.4-0.5-0.9-0.5-1.4C67.5,82.2,67.5,82.8,67.6,83.4z
	 M67.3,88.1c-0.7,0.1-0.5-0.8-0.9-1C66.6,86.8,67.1,87.5,67.3,88.1z M65.2,85.7c-0.1,0,0-0.3-0.2-0.3c0-0.1,0.3-0.1,0.4-0.1
	C65.5,85.6,65.2,85.5,65.2,85.7z M63.8,85l-0.4-0.6C63.7,84.6,63.8,84.8,63.8,85z M60.1,72.5c-0.2,0-0.3-0.2-0.3-0.4
	s0.1-0.4,0.3-0.4s0.3,0.2,0.3,0.4S60.3,72.5,60.1,72.5z M60.7,74.5c-0.1,0-0.3-0.1-0.3-0.2c0,0,0,0,0-0.1c0-0.1,0.1-0.3,0.3-0.3
	c0.1,0,0.3,0.1,0.3,0.2c0,0,0,0.1,0,0.1C60.9,74.4,60.8,74.5,60.7,74.5L60.7,74.5z M61.4,87.7c0.8,0.1,1.4,0.6,1.8,1.2
	C62.2,88.8,62,88.1,61.4,87.7L61.4,87.7z M60.5,105.5c0-0.2-0.2-0.2-0.1-0.5c0.5,0,0.5,0.5,0.8,0.5C61,105.7,60.8,105.2,60.5,105.5
	L60.5,105.5z M60.6,95.4c0.3,0.1,0.8,0.1,0.8,0.4C61.1,95.5,60.5,95.7,60.6,95.4L60.6,95.4z M60.6,90.7c0.8,0,1.5,0.1,2.2,0.5
	C61.9,91.5,61.2,90.8,60.6,90.7L60.6,90.7z M62.8,94.6c0.1-0.3,0.6,0,0.8,0C63.5,94.8,62.9,94.7,62.8,94.6L62.8,94.6z M63.4,86.5
	c0.1-0.3,0.2-0.5,0.3-0.8c0.6,0.4,1.2,0.7,1.5,1.4C64.4,86.8,64,86.3,63.4,86.5L63.4,86.5z M64.5,92.1c0.5,0.2,1.3-0.1,1.9,0.3
	C65.7,92.7,65,92.6,64.5,92.1L64.5,92.1z M63.8,87.1c1.6,0.3,2.6,2,4.1,2.8c-0.2,0.5-0.6-0.2-0.8-0.3C66,89.1,64.2,88.3,63.8,87.1
	L63.8,87.1z M66.7,124.9c0-0.2,0.3-0.3,0.8-0.3s0.8,0.1,0.8,0.3s-0.3,0.3-0.8,0.3S66.7,125,66.7,124.9L66.7,124.9z M66.4,134
	c-0.3,0-0.6-0.3-0.6-0.8s0.3-0.8,0.6-0.8s0.6,0.3,0.6,0.8S66.8,134,66.4,134z M66.6,131.9c-0.3,0-0.6-0.4-0.6-0.8s0.3-0.7,0.6-0.7
	s0.6,0.4,0.6,0.7S66.9,131.9,66.6,131.9L66.6,131.9z M66.9,129.3c0-0.3,0.3-0.6,0.8-0.6s0.8,0.3,0.8,0.6s-0.3,0.6-0.8,0.6
	S66.9,129.7,66.9,129.3L66.9,129.3z M68.2,135c-0.4,0-0.7-0.2-0.7-0.6c0,0,0,0,0-0.1c0-0.4,0.4-0.7,0.8-0.6c0.4,0,0.7,0.2,0.7,0.6
	c0,0,0,0,0,0.1C68.9,134.7,68.6,135,68.2,135L68.2,135z M69.2,129.6c-0.3,0-0.5-0.2-0.6-0.5c0,0,0,0,0,0c0-0.3,0.3-0.5,0.6-0.6
	c0.3,0,0.5,0.2,0.6,0.5c0,0,0,0,0,0.1C69.7,129.3,69.5,129.6,69.2,129.6C69.2,129.6,69.2,129.6,69.2,129.6L69.2,129.6z M64.2,144.1
	c-0.3,0.3-0.7-0.3-0.8-0.5C63.7,143.3,63.9,143.8,64.2,144.1L64.2,144.1z M52,151c0.4-0.2,1,0.2,1.2,0.5
	C52.8,151.6,52.3,151.4,52,151z M55.1,161.5c0-0.1,0-0.2-0.1-0.2c0.1-0.8,1-1,1.8-0.8C56.5,161.1,55.8,161.5,55.1,161.5L55.1,161.5z
	 M55.7,164.2c0.5-0.5,0.6-1.6,1.4-1.4C56.8,163.4,56.4,164.3,55.7,164.2L55.7,164.2z M57.8,150.3c1,0.1,2,0.4,3,0.7
	C59.7,151.1,58.2,151.1,57.8,150.3L57.8,150.3z M63.9,148.4c-0.4,0.5-0.7,0.4-1.2,0.2c-0.1,0.4,0.2,0.5,0.4,0.6
	c-0.1,0.3-0.7,0-0.6,0.3s0.7,0.3,1,0.4c-0.3,0.2-0.6,0.2-0.9,0.2c-0.2,0.3,0.2,0.4,0,0.5c-1.3-0.1-2.2-0.6-3.5-0.8
	c0,0.2,0.1,0.2,0.2,0.2c-0.7,0.3-1.6-0.6-2.2-0.4c-0.4,0.2,0.3,0.4,0,0.6c-1.3-0.2-2.1-0.9-3.2-1.2c0.5,1.2,2.2,1.1,2.7,2.3
	c-2.3-0.9-4.3-2.1-5.1-4.6c1.1-0.5,2.9-0.8,4.6-1.2c1.4-0.4,2.4-1.7,3.4-0.8c1.3-0.2,2.5,0.4,3.3,1.4h0.9c0.3,0.8,1.2,1.3,2.1,1
	c0.1,0,0.1,0,0.2-0.1c0.3,0.2,0.4,0.6,0.7,0.6c-0.3,0.9-1.2,1.4-2,1.1C64.2,148.7,64,148.6,63.9,148.4L63.9,148.4z M70.7,173.7
	c0-0.4,0.6-0.2,0.7-0.4C71.6,173.5,70.9,173.7,70.7,173.7L70.7,173.7z M76.1,172.8c0-0.4,0.3-0.6,0.4-0.8c0.2,0.1,0.1,0.6,0.2,0.7
	C76.5,172.9,76.5,172.9,76.1,172.8L76.1,172.8z M77.1,174.2c-0.7-0.1-0.3-0.7-0.2-1C77.2,173.2,77.2,173.8,77.1,174.2L77.1,174.2z
	 M79.7,170.3c0.3,0,0.2,0.4,0.3,0.6C79.5,171.1,79.5,170.5,79.7,170.3L79.7,170.3z M79.9,170.2c-0.4-0.6-0.4-1.8,0.6-1.5
	C80.3,169.2,80.8,170.2,79.9,170.2L79.9,170.2z M81.2,172.8c-0.1,0-0.1,0.2-0.1,0.3c-0.2-0.1-0.3-0.3-0.5-0.4
	c0.3-0.7,0.8-1.2,0.9-2.1c0.2,0.8-0.1,1.7,0.4,2.3c-0.1,0.4-0.8-0.1-0.5,0.4C81.4,173.6,81.2,173.1,81.2,172.8L81.2,172.8z
	 M82,176.1c-0.4-0.1-0.2-0.6-0.5-0.8c0.2-0.3,0.3,0.5,0.7,0.3C82.2,176,82.1,176,82,176.1L82,176.1z M84.4,174.5
	c-0.5,0.1-0.5-0.4-0.8-0.4c0.1-0.8-0.4-1.1-0.5-1.8c0.3,0.1,0.1-0.3,0.4-0.2c0.2,0.3,0.1,0.8,0.1,1.2c0.2-0.3,0.5,0,0.8-0.3
	C84.6,173.4,84.8,174.3,84.4,174.5L84.4,174.5z M84.9,170.2c-0.4,0.1-0.1-0.6-0.2-0.8C84.9,169.5,84.9,169.9,84.9,170.2L84.9,170.2z
	 M85.7,174.8v-0.6c0.4,0,0.7,0,0.8,0.2C86.6,174.8,86.2,174.9,85.7,174.8z M85.7,168c0.2,0.1,0.3,0.4,0.6,0.4c0,0.3,0,0.5-0.1,0.6
	C86,168.8,85.3,168.6,85.7,168L85.7,168z M86.9,168.8c-0.4-0.3-0.5-0.8-0.3-1.2H87C87.1,167.9,87,168.4,86.9,168.8L86.9,168.8z
	 M87.9,171.1c-0.3,0-0.4-0.5-0.2-0.6C88,170.4,87.8,170.8,87.9,171.1L87.9,171.1z M94.2,142.2c-0.2,0-0.4-0.2-0.4-0.5
	c0-0.2,0.1-0.4,0.3-0.5s0.4,0.1,0.5,0.3c0,0.1,0,0.1,0,0.2C94.6,142,94.4,142.2,94.2,142.2C94.2,142.2,94.2,142.2,94.2,142.2
	L94.2,142.2z M96.2,141.3c0,0.5-0.5,0.4-0.7,0.6C95,141.3,95.9,141.6,96.2,141.3L96.2,141.3z M96.5,173c-0.5-0.1-0.6-1-0.2-1.2
	C96.9,171.8,96.6,172.6,96.5,173z M98.6,172.9c-0.3-0.3-0.2,0.3-0.6,0.2c-0.1-0.3,0.1-0.5,0.1-0.7C98.5,172.4,98.7,172.6,98.6,172.9
	L98.6,172.9z M99.3,138.4c0.1-0.4,0.6-0.5,0.6-0.8h0.3C100.1,138,99.8,138.3,99.3,138.4L99.3,138.4z M106.1,141.5
	c-0.1-0.1-0.2-0.1-0.4-0.1c-0.1-0.6,0.5-0.3,0.5-0.6c0.4,0,0,0.4,0.2,0.4C106.4,141.4,106,141.1,106.1,141.5L106.1,141.5z
	 M107.6,139.8c0.1-0.1,0.1-0.3,0-0.4c0,0-0.1-0.1-0.1-0.1c0-0.2,0.2,0.1,0.2-0.1C107.9,139.1,107.9,139.6,107.6,139.8L107.6,139.8z
	 M109.6,137.3c-0.2,0.1-0.5-0.1-0.5,0.1c-0.1-0.1,0.4-0.5,0.4-0.6c-0.2-0.4-0.4,0.2-0.7-0.1c0.1,0.1,0.2,0.1,0.2,0.3
	c-0.9,0.2-1.2,1.5-2.3,1.9c-0.1,0.3,0.1,0.4,0.1,0.6c-1.1,0.6-1.6,2.1-3.1,2c0.1-0.3,0.5-0.3,0.6-0.6c-0.1-0.6-0.7-0.1-1.2-0.4
	c0.2,0,0.6-0.4,0.6-0.8c-0.8,0.2-1.6,0.6-2.2,0.8c-0.3-0.3-0.4-0.8-0.4-1.2c-0.2,0-0.3,0.1-0.3,0.2c-0.1-0.4,0.8-0.6,1-1
	c0-0.2-0.4-0.3-0.4-0.1c0.1-0.4,0.3-0.7,0.6-1c-0.1-0.3-0.3-0.5-0.4-0.7l-0.8,0.2c-0.4,0.1,0.1-0.5-0.2-0.6
	c-1.8,0.9-2.8,2.6-4.6,3.5c0.4-0.9,1.3-1.7,1-2.8c-1,1.4-1.7,3.2-2.9,4.5c-0.4,0-0.7,0.2-1,0.5c0.1,0,0.2,0.3,0.2,0.6
	s-0.1,0.6-0.2,0.6H93l0.1,0.6l-1.6,3.3l-2.2,1.3l-2.3,2l-2.2,1.8l-2.3,2.9l-0.9-0.2l1.1-3.3l-0.6-0.4l-0.9,2.3l-0.9,1.8l-1.5,1
	l-1.8,6l-2.7-0.6L73,167l-1.6,5.4l-1.3,0.2l-1.3-2.5l-2.9-2.1l6.7-7.7l-2.2-0.2l3.3-4.6l1.8-2.1l-2-0.8l-3.1-1.5l-0.5-2.1l0.4-1.7
	c1.7,1.9,3.9,3.3,6.4,4l1.3,0.6l4-2.3l1.8,0.7l6-4.7l1.8-2.3l0.1-0.8c-0.2-0.2-0.4,0.2-0.6-0.1c-0.5-1-0.8-2-0.8-3.1
	c0.6,0.1,0.6-0.6,0.7-0.8c0.5,0.3,0.5,1,1.1,1c0.3,0.1,0.3-0.3,0.4-0.4c-0.3-0.6-0.8-0.8-1.1-1.5c-0.3,0.2-0.8,0.2-0.9,0.5
	c0,0.1-0.1,0.1-0.2,0.1s-0.3-0.3-0.3-0.8s0.1-0.7,0.3-0.7c0.1,0,0.2,0.1,0.2,0.2c0.3,0.1,0.2,0.7,0.6,0.7c0.2-1-0.5-1.9-0.3-2.7
	c-0.1-0.2-0.2-0.4-0.2-0.6c0-0.4,0.1-0.8,0.3-0.8s0.3,0.3,0.3,0.6l0.1,0.1c0-0.2,0.1-0.3,0.2-0.3s0.2,0.3,0.2,0.6v0.1
	c0.4,0.5,0.8,1,1.2,1.5c0.5-0.6-0.6-1.3-1-1.6c0.3-0.4,0.2-0.9-0.4-0.9c0.8-0.8,0.6-3.2,0.1-4.2l0.2-0.2v-0.2c0-0.3,0.2-0.6,0.3-0.6
	s0.2,0.1,0.3,0.2c0.4-0.8,0.7-1.7,0.8-2.6c0.5-1.7,1.3-3.2,2.4-4.5c2.5,0.1,4.9-0.4,7.1-1.7v1.7c-0.6,0.8-2.3,0.4-2.2,1.8
	c0.2,0.2,0.5-0.2,0.8-0.1c0,0.4-0.2,0.6,0.1,0.7c1-0.2,1.5-0.9,1.7-2.1c0.5,0,0.6-0.3,0.7-0.7c0.7,1.8,0.3,4.8,0.3,6.6
	c0.1,0.6,0.8,0.4,1,0.6c0.1-0.7,0-1.4-0.1-2.2c0.8,0.1,0.7-1.6,0.8-2.4c0.9,1-0.2,2.7,0.5,3.7c0.7-0.3-0.1-1.9,0.4-2.2
	c0.5,0.7,0.4,2,0.9,2.7c0.2,0,0.2-0.3,0.3-0.4c0.4,0.1,0.2,0.7,0.5,0.8c0.4,0,0.5-0.2,0.8-0.2c0.4,0.3,0,1.4,0.4,1.7
	c0.6-0.5-0.1-2,0.5-2.6c0.6,0.5,0.1,1.1,0.2,1.8s0.7,1,0.8,1.7c0.1,0.9-0.2,1.8-0.1,2.5c0.1,0.3,0.2,0.7,0.3,1
	C111.1,135.9,110.1,136,109.6,137.3L109.6,137.3z M90,142.9c0-0.2,0.1-0.4,0.3-0.4s0.3,0.2,0.3,0.4s-0.1,0.4-0.3,0.4
	S90,143.2,90,142.9z M114.7,146.8c-0.3,0.2-0.6,0.1-0.8-0.1C114,146.4,114.5,146.7,114.7,146.8z M112.6,146.6c0,0.4-0.7,0.1-0.7-0.2
	C112.2,146.3,112.5,146.4,112.6,146.6z M122.7,119.6c-0.5-0.1-0.8-0.8-0.4-1.1C122.9,118.5,122.9,119.2,122.7,119.6z M123.2,114.8
	c0.2,0,0.2,0.1,0.3,0.1c-0.3,0.4-0.2,1.1-0.8,1.1C122.6,115.5,122.8,115,123.2,114.8z M122.5,114c0.4,0.1-0.1,1.1-0.4,0.8
	C122.3,114.6,122.4,114.3,122.5,114L122.5,114z M121.3,117.9c0.4,0,0.4,0.4,0.4,0.7c-0.2,0.2-0.4,0.2-0.7,0.3
	C121,118.5,121.1,118.2,121.3,117.9z M120.4,119.8c-0.1,0.9,0.1,1.7-0.6,2.2C119.3,121.2,119.1,119.8,120.4,119.8z M119.7,122.5
	c1.1-0.7,0.7-3,2-3.5c1,0.6,0.1,1.8-0.5,2.2c0,1.2-0.6,2.1-0.4,3.4c-0.4,0.2-0.9,0.4-1.3,0.6c-0.2,0.4,0.1,1.2-0.4,1.2
	C119.1,125.3,119.1,123.4,119.7,122.5z M119,127c0.2,0.3,0.1,0.8-0.3,0.8C118.5,127.5,118.5,126.9,119,127z M118.1,127.7
	c0,0.2,0.1,0.2,0.1,0.4c-0.3,0.1-0.7,0.3-0.9,0.1C117.1,127.6,117.7,127.7,118.1,127.7L118.1,127.7z M112.6,131.9
	c-0.6-0.5-0.6-1.5-0.9-2.1c0.2-0.2,0.2,0.5,0.5,0.5c0.1,0,0.2-0.2,0.3-0.2c-0.2-0.6-0.4-1.3-0.5-2c0.4,0.1,0.4,0.6,0.6,0.8
	c1.4-0.4,0.1-1.9-0.2-2.5c0.3-0.6,0.8,0.2,0.9-0.4c0.3-0.1,0.3,0.2,0.5,0.2c-0.1,0.5-0.3,0.9-0.5,1.3
	C113.8,128.9,112.1,130.4,112.6,131.9L112.6,131.9z M114.4,125.3c-0.5-0.1-0.6-0.7-0.6-1.1c0.2,0.3,0.3,0.6,0.7,0.5
	C114.5,124.9,114.4,125.1,114.4,125.3L114.4,125.3z M116.9,107.2c-0.4-0.5-1-0.8-0.8-1.8c0.6,0.3,1.3,0.6,2,0.8
	C118.1,107.1,117.2,106.8,116.9,107.2L116.9,107.2z M126.3,113.5c-0.6-0.4-0.7-1.3-1-2c0.1,0.1,0.2,0.1,0.3,0.1
	c0-0.6-0.7-0.6-0.6-1.2c0.7-0.1,0.4,0.8,0.8,1c0.2,0.1,0.2-0.1,0.2-0.3C126,111.9,126.7,112.5,126.3,113.5L126.3,113.5z
	 M127.9,113.6c0.1-0.5-0.4-0.5-0.2-0.9c0.3,0.3,0.6,0.5,0.6,0.9H127.9z M133.9,98.9c-0.3,0-0.5-0.1-0.8-0.2c0.2-0.5,0.7-0.7,0.6-1.2
	C134.3,97.5,134.2,98.7,133.9,98.9L133.9,98.9z M76.8,103.4l0.8-2.7l-2,0.2L76.8,103.4z M65.8,124.7v0.3h0.3
	C66.1,124.8,66.1,124.6,65.8,124.7z M115.5,150.4c0.2,0.1,0.6,0.2,0.8,0.3C116.2,150.4,115.6,150.4,115.5,150.4z M34.1,102.1
	c0,0.4,0.1,0.8,0.3,1.2C34.6,102.9,34.5,102.4,34.1,102.1z M81.8,102.8l0.8-2.7l-2.2,0.3L81.8,102.8z M65.3,129.9
	c-0.7,0.2-0.5,0.8-0.5,1.5h0.4v-0.3c0-0.2,0.1-0.5,0.2-0.6C65.4,130.2,65.6,130,65.3,129.9z M65,132.9v-0.2c0-0.1-0.1-0.2-0.1-0.4
	s0.1-0.6,0.3-0.6c0-0.1-0.1-0.2-0.2-0.4C64.7,131.9,64.8,132.4,65,132.9L65,132.9z M34.6,100.2c-0.1,0.2-0.3,0.3-0.2,0.6
	C34.8,100.8,34.8,100.3,34.6,100.2z M93.1,136.3c-0.1,0.8-0.9,1.2-0.6,2.1c0.1,0,0.2,0,0.2,0.1c0.7,0.1,0.8-0.4,0.9-0.7
	c0.2,0.3,0.4,0.5,0.7,0.5C95.7,137.8,94.3,136.3,93.1,136.3z M82.8,78.4c0.1,0.4-0.4,0.3-0.3,0.7C83,79.3,82.9,78.1,82.8,78.4z
	 M69.1,81.1c0.3,0.2,0.3,0.8,0.6,0.9C69.7,81.5,69.3,81,69.1,81.1z M92.9,141.8L92.9,141.8z"/>
</svg>
