<?xml version="1.0" encoding="utf-8"?>
<!-- Generator: Adobe Illustrator 18.0.0, SVG Export Plug-In . SVG Version: 6.00 Build 0)  -->
<!DOCTYPE svg PUBLIC "-//W3C//DTD SVG 1.1//EN" "http://www.w3.org/Graphics/SVG/1.1/DTD/svg11.dtd">
<svg version="1.1" id="Layer_1" xmlns="http://www.w3.org/2000/svg" xmlns:xlink="http://www.w3.org/1999/xlink" x="0px" y="0px"
	 viewBox="0 0 512 129.3" enable-background="new 0 0 512 129.3" xml:space="preserve">
<g>
	<polygon fill="#231F20" points="501.2,96.8 493.4,119.3 502.3,119.3 512,96.8 	"/>
	<path fill="#231F20" d="M84.9,73.9c2-9.2,9.8-15.9,19.2-15.9c9.6,0,17.1,6.9,19.1,15.9H84.9z M133,83.2c0.3-1.6,0.4-3.2,0.4-4.8
		c0-1.5-0.2-3-0.4-4.5c-2.2-13.9-14.1-25-29-25c-16.5,0-29.2,13.3-29.2,29.5c0,16.2,12.7,29.3,29.2,29.3c11.3,0,20.8-6.2,25.7-15.2
		h-11.4c-3.5,3.9-8.5,6.3-14.2,6.3c-5.7,0-10.8-2.4-14.3-6.3c-2.3-2.6-4-5.7-4.8-9.3v0H133z"/>
	<path fill="#231F20" d="M10.2,55.5V9.2h5.2c17.5,0,27,8.2,27,22.8c0,14.5-9.8,23.4-27.1,23.4H10.2z M59,107.7L23.1,62.6
		c18.4-1.8,29.5-13.6,29.5-30.8C52.6,11.4,39.4,0,13.8,0H0v107.7h10.2V61.4l36.1,46.3H59z"/>
	<path fill="#231F20" d="M251.2,99.9c-7,0-12.2-5.3-12.2-11.9c0-6.2,5.5-11.6,12.2-11.6c6.8,0,12,5.3,12,11.7
		C263.2,94.4,258.3,99.9,251.2,99.9 M263.5,100.2v7.5h8.6v-42c0-12.5-3.6-16.8-17.9-16.8c-3,0-7.1,0.3-12,0.7l-2.2,9
		c4.2-0.9,8-1.3,11.6-1.3c8,0,11.6,2.1,11.6,8.9v9.1c-3.1-4.3-7.7-6.5-13.2-6.5c-12.3,0-19.7,9-19.7,19.3c0,11.6,8.2,19.6,18.7,19.6
		C254.9,107.8,260.1,105.1,263.5,100.2"/>
	<path fill="#231F20" d="M377.6,99.2c-10.8,0-19.6-9.3-19.6-20.5c0-11.4,8.7-20.5,19.9-20.5c11,0,19.7,8.7,19.7,20.6
		C397.6,89.8,389,99.2,377.6,99.2 M397.4,0v59.7c-4.4-6.7-11.7-10.4-20.3-10.4c-16.2,0-28.8,13.3-28.8,29.2
		c0,16.2,12.7,29.2,28.2,29.2c8.5,0,15.9-3.9,20.9-10.7v10.6h9.5V0H397.4z"/>
	<path fill="#231F20" d="M312.6,58.1v-9.3h-9.3v58.9h9.3V75.8c0-11.3,4.9-16.9,12.8-16.9h2.2V49C321.4,49,316.2,52.2,312.6,58.1"/>
	<path fill="#231F20" d="M167.2,71c0,7.4,6.2,13.3,13.9,13.3c8,0,14.1-6.2,14.1-13.2c0-7.4-5.9-13.6-13.9-13.6
		C173.2,57.5,167.2,63.6,167.2,71 M203.2,56.4c-0.7,0-1.3,0.2-1.9,0.2h-1.6H198c4.3,3.9,6.7,9.2,6.7,14.7c0,7.6-4.7,14.2-12.2,17.2
		c7.3,4.4,11.1,10.8,11.1,18.4c0,13.2-9.8,22.5-24.6,22.5c-7.9,0-15.6-3.7-20.5-10.5l5.5-7.9c3.3,6.2,9,9.8,15.3,9.8
		c9.2,0,15.1-5.8,15.1-13.8c0-7.9-5.8-13.6-13.3-13.6c-5,0-9.2,1.9-13,5.9l-4.7-6.2c2.7-2.1,4.7-3.4,5.9-4
		c-7.6-4-11.4-10.2-11.4-18.1c0-12.6,9.6-21.9,24.9-21.9c2.8,0,6.8,0.7,12.2,0.7c2.2,0,5.8-0.3,10.8-0.7L203.2,56.4z"/>
	<path fill="#231F20" d="M439.1,94.3c2.7,3.6,6.8,5.6,11.3,5.6c5.8,0,9.3-3.6,9.3-8.4c0-5.3-3.9-7.3-10.4-9.5
		c-9-3.1-13.9-7.1-13.9-15.4c0-10.1,7.6-17,17.5-17c6.7,0,11.9,2.5,15.7,7.4l-5.2,5.8c-2.8-3.9-6.5-5.9-10.2-5.9
		c-4.7,0-8.5,3.6-8.5,7.9c0,6.4,5.6,8.2,12.6,10.8c8,3.1,12,7.3,12,15.1c0,9.8-7.9,17.1-19,17.1c-6.5,0-12.3-2.4-15.9-6.4
		L439.1,94.3z"/>
</g>
</svg>
